<?xml version="1.0" standalone="no"?>
<!DOCTYPE svg PUBLIC "-//W3C//DTD SVG 1.1//EN" "http://www.w3.org/Graphics/SVG/1.1/DTD/svg11.dtd" >
<svg xmlns="http://www.w3.org/2000/svg" xmlns:xlink="http://www.w3.org/1999/xlink" version="1.1">
<metadata>
Created by FontForge 20170731 at Thu Jan 12 18:29:42 2017
 By Aleksey,,,
Copyright (c) 2014 by Dino dos santos, Pedro Leal. All rights reserved.
</metadata>
<defs>
<font id="JulesText-LightItalic" horiz-adv-x="570" >
  <font-face 
    font-family="JulesText-LightItalic"
    font-weight="400"
    font-style="italic"
    font-stretch="normal"
    units-per-em="1000"
    panose-1="0 0 4 0 0 0 0 0 0 0"
    ascent="772"
    descent="-228"
    x-height="500"
    cap-height="680"
    bbox="-648 -250 1235 965"
    underline-thickness="50"
    underline-position="-150"
    unicode-range="U+0020-FB02"
  />
<missing-glyph horiz-adv-x="500" 
 />
    <glyph glyph-name="fi" unicode="fi" horiz-adv-x="525" 
d="M356 710q30 0 46.5 -16t16.5 -36q0 -14 -9 -23.5t-22 -9.5q-21 0 -21 19q0 4 3.5 14t3.5 17q0 15 -27 15q-61 0 -82 -104l-18 -86h104l-4 -20h-105l-116 -544q-14 -69 -51.5 -107.5t-89.5 -38.5q-31 0 -50 12.5t-19 33.5q0 16 9.5 27.5t23.5 11.5q20 0 20 -19
q0 -5 -3.5 -15t-3.5 -15q0 -16 28 -16q60 0 82 104l120 566h-70l4 20h70l14 64q15 71 53.5 108.5t92.5 37.5zM523 650q13 0 21 -8t8 -20q0 -17 -12.5 -29.5t-31.5 -12.5q-13 0 -20.5 8t-7.5 20q0 16 12 29t31 13zM496 73h20q-11 -47 -37 -65t-51 -18q-70 0 -53 80l81 380
q4 20 -0.5 25t-23.5 5h-44l4 20h124l-91 -429q-12 -56 21 -56q15 0 29 14t21 44z" />
    <glyph glyph-name="fl" unicode="fl" horiz-adv-x="520" 
d="M356 710q30 0 46.5 -16t16.5 -36q0 -14 -9 -23.5t-22 -9.5q-21 0 -21 19q0 4 3.5 14t3.5 17q0 15 -27 15q-61 0 -82 -104l-18 -86h104l-4 -20h-105l-116 -544q-14 -69 -51.5 -107.5t-89.5 -38.5q-31 0 -50 12.5t-19 33.5q0 16 9.5 27.5t23.5 11.5q20 0 20 -19
q0 -5 -3.5 -15t-3.5 -15q0 -16 28 -16q60 0 82 104l120 566h-70l4 20h70l14 64q15 71 53.5 108.5t92.5 37.5zM496 73h20q-11 -47 -37 -65t-51 -18q-70 0 -53 80l134 630h50l-134 -629q-12 -56 21 -56q15 0 29 14t21 44z" />
    <glyph glyph-name="f_b" unicode="fb" horiz-adv-x="819" 
d="M356 710q30 0 46.5 -16t16.5 -36q0 -14 -9 -23.5t-22 -9.5q-21 0 -21 19q0 4 3.5 14t3.5 17q0 15 -27 15q-61 0 -82 -104l-18 -86h104l-4 -20h-105l-116 -544q-14 -69 -51.5 -107.5t-89.5 -38.5q-31 0 -50 12.5t-19 33.5q0 16 9.5 27.5t23.5 11.5q20 0 20 -19
q0 -5 -3.5 -15t-3.5 -15q0 -16 28 -16q60 0 82 104l120 566h-70l4 20h70l14 64q15 71 53.5 108.5t92.5 37.5zM683 510q74 0 112 -45t38 -125q0 -138 -72.5 -244t-187.5 -106q-54 0 -90 33.5t-47 100.5l-55 -124h-20l149 700h50l-70 -323q39 66 89 99.5t104 33.5zM679 490
q-75 0 -135 -70t-79 -162l-7 -31q-14 -88 16.5 -152.5t102.5 -64.5q63 0 112.5 54.5t72.5 131.5t23 157q0 137 -106 137z" />
    <glyph glyph-name="f_h" unicode="fh" horiz-adv-x="850" 
d="M356 710q30 0 46.5 -16t16.5 -36q0 -14 -9 -23.5t-22 -9.5q-21 0 -21 19q0 4 3.5 14t3.5 17q0 15 -27 15q-61 0 -82 -104l-18 -86h104l-4 -20h-105l-116 -544q-14 -69 -51.5 -107.5t-89.5 -38.5q-31 0 -50 12.5t-19 33.5q0 16 9.5 27.5t23.5 11.5q20 0 20 -19
q0 -5 -3.5 -15t-3.5 -15q0 -16 28 -16q60 0 82 104l120 566h-70l4 20h70l14 64q15 71 53.5 108.5t92.5 37.5zM836 73h20q-11 -47 -37 -65t-51 -18q-70 0 -53 80l56 265q32 155 -92 155q-165 0 -230 -310l-38 -180h-50l149 700h50l-74 -345q37 81 88.5 118t108.5 37
q86 0 120.5 -47t17.5 -128l-56 -264q-12 -56 21 -56q15 0 29 14t21 44z" />
    <glyph glyph-name="f_j" unicode="fj" horiz-adv-x="490" 
d="M356 710q30 0 46.5 -16t16.5 -36q0 -14 -9 -23.5t-22 -9.5q-21 0 -21 19q0 4 3.5 14t3.5 17q0 15 -27 15q-61 0 -82 -104l-18 -86h104l-4 -20h-105l-116 -544q-14 -69 -51.5 -107.5t-89.5 -38.5q-31 0 -50 12.5t-19 33.5q0 16 9.5 27.5t23.5 11.5q20 0 20 -19
q0 -5 -3.5 -15t-3.5 -15q0 -16 28 -16q60 0 82 104l120 566h-70l4 20h70l14 64q15 71 53.5 108.5t92.5 37.5zM523 650q13 0 21 -8t8 -20q0 -17 -12.5 -29.5t-31.5 -12.5q-13 0 -20.5 8t-7.5 20q0 16 12 29t31 13zM516 500l-120 -564q-14 -69 -51.5 -107.5t-89.5 -38.5
q-31 0 -50 12.5t-19 33.5q0 16 9.5 27.5t23.5 11.5q20 0 20 -19q0 -5 -3.5 -15t-3.5 -15q0 -16 28 -16q60 0 82 104l114 536q4 19 0 24.5t-24 5.5h-44l4 20h124z" />
    <glyph glyph-name="f_k" unicode="fk" horiz-adv-x="800" 
d="M265 586l-18 -86h104l-4 -20h-105l-116 -544q-14 -69 -51.5 -107.5t-89.5 -38.5q-31 0 -50 12.5t-19 33.5q0 16 9.5 27.5t23.5 11.5q20 0 20 -19q0 -5 -3.5 -15t-3.5 -15q0 -16 28 -16q60 0 82 104l120 566h-70l4 20h70l14 64q15 71 53.5 108.5t92.5 37.5q30 0 46.5 -16
t16.5 -36q0 -14 -9 -23.5t-22 -9.5q-21 0 -21 19q0 4 3.5 14t3.5 17q0 15 -27 15q-61 0 -82 -104zM784 510q43 0 43 -36q0 -10 -8 -18t-21 -8q-14 0 -23.5 13.5t-18.5 13.5q-17 0 -32.5 -14t-30 -36t-30.5 -46t-41.5 -48t-55.5 -37q134 -17 134 -118q0 -19 -9 -67.5
t-9 -65.5q0 -28 24 -28q15 0 29 14t21 44h20q-11 -47 -37 -65t-51 -18q-56 0 -56 52q0 13 9 65.5t9 68.5q0 100 -133 100h-47l-59 -276h-50l149 700h50l-85 -399h12q50 0 87 21.5t59.5 52.5t42 61.5t46.5 52t62 21.5z" />
    <glyph glyph-name=".notdef" horiz-adv-x="500" 
 />
    <glyph glyph-name=".null" horiz-adv-x="0" 
 />
    <glyph glyph-name="nonmarkingreturn" horiz-adv-x="333" 
 />
    <glyph glyph-name="space" unicode=" " horiz-adv-x="200" 
 />
    <glyph glyph-name="exclam" unicode="!" horiz-adv-x="290" 
d="M304 750q13 0 20 -8.5t4 -21.5q-1 -4 -57.5 -223.5t-79.5 -326.5h-20q22 105 58 321.5t39 228.5q7 30 36 30zM156 50q24 0 24 -22q0 -16 -11 -27t-26 -11q-25 0 -25 22q0 16 11 27t27 11z" />
    <glyph glyph-name="quotedbl" unicode="&#x22;" horiz-adv-x="290" 
d="M237 690q12 0 19 -8.5t4 -21.5q-4 -18 -19 -59l-30 -81h-20l4 81q2 43 5 59q3 13 14 21.5t23 8.5zM347 690q12 0 19 -8.5t4 -21.5q-4 -18 -19 -59l-30 -81h-20l4 81q2 43 5 59q3 13 14 21.5t23 8.5z" />
    <glyph glyph-name="numbersign" unicode="#" horiz-adv-x="510" 
d="M537 360h-99l-55 -130h126l-6 -30h-133l-65 -155h-35l65 155h-115l-65 -155h-35l65 155h-92l6 30h99l55 130h-126l6 30h133l65 155h35l-65 -155h115l65 155h35l-65 -155h92zM348 230l55 130h-115l-55 -130h115z" />
    <glyph glyph-name="dollar" unicode="$" horiz-adv-x="550" 
d="M585 680h20l-36 -165h-20q14 64 -23.5 103.5t-99.5 45.5l-59 -280q44 -23 61.5 -33.5t48 -34.5t43 -50.5t12.5 -60.5q0 -93 -72 -153t-177 -62l-17 -80h-25l17 80q-45 2 -80 13.5t-54 21.5t-26 10q-11 0 -14 -15l-4 -20h-20l35 165h20q-15 -70 26 -108.5t122 -41.5
l70 328q-34 18 -54.5 31t-44 33t-34.5 44.5t-11 53.5q0 81 63.5 132.5t154.5 52.5l21 100h25l-21 -101q48 -4 88.5 -24t45.5 -20q11 0 14 15zM238 522q0 -40 27 -68t79 -57l57 268q-73 -2 -118 -40.5t-45 -102.5zM484 193q0 45 -32.5 75t-95.5 63l-68 -316q86 3 141 52
t55 126z" />
    <glyph glyph-name="percent" unicode="%" horiz-adv-x="844" 
d="M281 326q-65 0 -97 35t-32 94q0 96 59 165.5t148 69.5q65 0 97 -35t32 -94q0 -96 -59 -165.5t-148 -69.5zM192 0l575 680h30l-575 -680h-30zM285 343q47 0 83.5 36t54 87.5t17.5 105.5q0 102 -85 102q-70 0 -112.5 -71t-42.5 -158q0 -102 85 -102zM630 -10q-65 0 -97 35
t-32 94q0 96 58.5 165.5t147.5 69.5q65 0 97.5 -35.5t32.5 -94.5q0 -95 -59 -164.5t-148 -69.5zM633 7q70 0 112.5 71t42.5 158q0 102 -84 102q-70 0 -113 -71.5t-43 -158.5q0 -48 21.5 -74.5t63.5 -26.5z" />
    <glyph glyph-name="ampersand" unicode="&#x26;" horiz-adv-x="680" 
d="M521 355h194l-4 -20h-51q-19 0 -25 -5t-11 -25q-38 -133 -113 -213l23 -50q2 -5 5 -8.5t5 -5.5t6.5 -4t6.5 -2.5t7.5 -1t7.5 -0.5h9h9h29l-4 -20h-120l-25 54q-84 -64 -198 -64q-87 0 -128.5 42t-41.5 102q0 47 17 87t50.5 71.5t66 53.5t81.5 48q-30 71 -30 127
q0 79 54 134t135 55q49 0 76.5 -24.5t27.5 -62.5q0 -27 -7.5 -51t-26 -46t-33 -36.5t-46 -35t-45.5 -28.5t-51 -28l131 -286q60 70 97 193q5 19 0.5 24.5t-24.5 5.5h-58zM466 690q-59 0 -93 -42.5t-34 -110.5q0 -62 23 -119q79 44 123.5 91.5t44.5 115.5q0 30 -16.5 47.5
t-47.5 17.5zM287 15q100 0 175 58l-136 300q-81 -47 -126.5 -104t-45.5 -135q0 -52 31.5 -85.5t101.5 -33.5z" />
    <glyph glyph-name="quotesingle" unicode="'" horiz-adv-x="180" 
d="M237 690q12 0 19 -8.5t4 -21.5q-4 -18 -19 -59l-30 -81h-20l4 81q2 43 5 59q3 13 14 21.5t23 8.5z" />
    <glyph glyph-name="parenleft" unicode="(" horiz-adv-x="305" 
d="M420 775q-115 -109 -180.5 -273t-65.5 -327q0 -148 65 -250l-18 -15q-93 135 -93 294q0 168 73 317t207 269z" />
    <glyph glyph-name="parenright" unicode=")" horiz-adv-x="305" 
d="M215 775l18 15q93 -135 93 -292q0 -167 -73 -317t-207 -271l-12 15q115 109 180 273.5t65 328.5q0 147 -64 248z" />
    <glyph glyph-name="asterisk" unicode="*" horiz-adv-x="410" 
d="M356 710q13 0 19.5 -8.5t4.5 -21.5q-4 -17 -23.5 -55.5t-25.5 -63.5q22 13 48 35.5t44.5 35.5t32.5 13q12 0 18.5 -9.5t4.5 -20.5q-1 -5 -4 -10t-6 -8.5t-9 -6.5t-9 -5t-11.5 -4.5t-12 -3t-14 -3t-13.5 -3.5q-39 -9 -66 -21q21 -11 57 -21q46 -12 55 -21q8 -9 5 -23
q-2 -11 -12.5 -20.5t-22.5 -9.5q-14 0 -27 13t-29.5 35.5t-33.5 35.5q-3 -23 -0.5 -64t-1.5 -55q-2 -13 -12.5 -21.5t-23.5 -8.5t-19.5 8.5t-4.5 21.5q4 17 23.5 55.5t25.5 63.5q-22 -13 -48.5 -35.5t-44.5 -35.5t-32 -13q-12 0 -18.5 9.5t-4.5 20.5q3 13 15.5 21.5t22 11.5
t34.5 10q52 12 73 22q-18 11 -63 22q-44 13 -52 25q-4 7 -2 18t12.5 20.5t22.5 9.5q14 0 27 -13t29.5 -35.5t33.5 -35.5q3 23 0.5 64t1.5 55q2 13 12.5 21.5t23.5 8.5z" />
    <glyph glyph-name="plus" unicode="+" horiz-adv-x="470" 
d="M486 310l-6 -30h-171l-36 -170h-30l36 170h-169l6 30h170l36 170h30l-36 -170h170z" />
    <glyph glyph-name="comma" unicode="," horiz-adv-x="180" 
d="M101 50q30 0 30 -36q0 -46 -30.5 -85t-73.5 -39l3 15q27 0 48 23.5t21 47.5q0 14 -11 14q-25 0 -25 22q0 16 11 27t27 11z" />
    <glyph glyph-name="hyphen" unicode="-" horiz-adv-x="390" 
d="M398 275l-6 -30h-290l6 30h290z" />
    <glyph glyph-name="period" unicode="." horiz-adv-x="180" 
d="M101 50q24 0 24 -22q0 -16 -11 -27t-26 -11q-25 0 -25 22q0 16 11 27t27 11z" />
    <glyph glyph-name="slash" unicode="/" horiz-adv-x="540" 
d="M645 680l-575 -680h-30l575 680h30z" />
    <glyph glyph-name="zero" unicode="0" horiz-adv-x="650" 
d="M472 690q99 0 147 -59.5t48 -163.5q0 -121 -40.5 -229t-121 -178t-182.5 -70q-99 0 -147.5 59.5t-48.5 163.5q0 120 41 228t121.5 178.5t182.5 70.5zM466 665q-87 0 -155 -71t-102 -175.5t-34 -216.5q0 -187 153 -187q87 0 155.5 71t102 175t33.5 217q0 187 -153 187z
" />
    <glyph glyph-name="one" unicode="1" horiz-adv-x="370" 
d="M50 0l4 20h80q20 0 26.5 5.5t10.5 24.5l117 550q4 20 -0.5 25t-23.5 5h-80l4 20q64 0 96.5 8.5t52.5 31.5h20l-136 -640q-5 -20 -0.5 -25t23.5 -5h80l-4 -20h-270z" />
    <glyph glyph-name="two" unicode="2" horiz-adv-x="550" 
d="M402 690q82 0 130.5 -37.5t48.5 -107.5q0 -52 -26 -106t-63 -99.5t-101.5 -101t-118 -95.5t-136.5 -98h224q61 0 89 17.5t39 71.5l7 31h20l-35 -165h-430l4 20q217 153 289 214q155 132 181 250q6 27 6 56q0 55 -34 90t-100 35q-60 0 -100 -22.5t-49 -67.5
q-5 -25 -30 -25q-21 0 -21 19q0 40 63 80.5t143 40.5z" />
    <glyph glyph-name="three" unicode="3" horiz-adv-x="565" 
d="M338 355q38 -3 70.5 -12t62.5 -25.5t47 -44.5t17 -65q0 -100 -83 -159t-199 -59q-81 0 -126.5 31.5t-45.5 71.5q0 16 9 26.5t23 10.5q20 0 20 -18q0 -2 -1.5 -11.5t-1.5 -13.5q0 -72 128 -72q95 0 160.5 51.5t65.5 136.5q0 38 -19 65t-51.5 41t-65.5 20t-71 6h-46l9 40
h46q105 2 178 52.5t73 134.5q0 48 -36 75.5t-105 27.5q-60 0 -100 -22.5t-49 -67.5q-5 -25 -30 -25q-21 0 -21 19q0 42 65.5 81.5t140.5 39.5q87 0 136 -33t49 -92q0 -84 -73.5 -141t-175.5 -69z" />
    <glyph glyph-name="four" unicode="4" 
d="M446 166l-25 -116q-5 -20 -0.5 -25t23.5 -5h80l-4 -20h-270l4 20h80q20 0 26.5 5.5t10.5 24.5l25 116h-331l6 25l466 499h20l-106 -499h110l-6 -25h-109zM101 191h300l88 415z" />
    <glyph glyph-name="five" unicode="5" horiz-adv-x="560" 
d="M482 610q-35 0 -103.5 11t-93.5 13l-76 -264q67 40 144 40q88 0 137 -39.5t49 -114.5q0 -118 -81 -192t-205 -74q-81 0 -126.5 31.5t-45.5 71.5q0 16 9 26.5t23 10.5q20 0 20 -18q0 -2 -1.5 -11.5t-1.5 -13.5q0 -72 128 -72q105 0 168.5 70t63.5 176q0 124 -142 124
q-78 0 -148 -44h-25l101 344q40 0 134 -20t132 -20q45 0 57 55h20q-19 -90 -137 -90z" />
    <glyph glyph-name="six" unicode="6" horiz-adv-x="590" 
d="M473 690q69 0 112.5 -31t43.5 -71q0 -38 -31 -38q-21 0 -21 19q0 3 1.5 12.5t1.5 12.5q0 35 -31.5 53t-81.5 18q-96 0 -169.5 -91t-105.5 -228q98 69 193 69q86 0 135.5 -38.5t49.5 -113.5q0 -114 -78.5 -193.5t-193.5 -79.5q-91 0 -134 55.5t-43 145.5q0 116 45.5 230.5
t128 191.5t178.5 77zM380 390q-95 0 -195 -73q-12 -64 -12 -130q0 -172 130 -172q96 0 157 76t61 177q0 122 -141 122z" />
    <glyph glyph-name="seven" unicode="7" horiz-adv-x="550" 
d="M657 690q-40 -61 -111 -149t-120 -149.5t-98.5 -158.5t-71.5 -201q-9 -42 -34 -42t-17 39q18 85 72 182.5t107 165.5t117 144.5t82 103.5q-38 -25 -102 -25q-49 0 -108 20t-88 20q-43 0 -71 -23.5t-34 -50.5l-11 -53h-20l36 167h20l-13 -59q38 69 142 69q40 0 113 -25
t111 -25q22 0 38.5 11.5t35.5 38.5h25z" />
    <glyph glyph-name="eight" unicode="8" horiz-adv-x="590" 
d="M613 558q0 -74 -53.5 -120.5t-150.5 -80.5q34 -20 55 -34t44.5 -35.5t35 -48t11.5 -57.5q0 -92 -72.5 -142t-184.5 -50q-98 0 -148.5 43.5t-50.5 106.5q0 36 19 69.5t52 60.5t69 48t79 38q-53 32 -83 67t-30 84q0 84 68 133.5t169 49.5q82 0 126.5 -37.5t44.5 -94.5z
M382 372q91 32 136 73t45 113q0 53 -39 80t-88 27q-76 0 -128.5 -39t-52.5 -108q0 -46 32.5 -78t94.5 -68zM505 173q0 12 -3 24t-6 21t-11.5 19.5t-13 17t-17.5 17t-18.5 15t-22 14.5t-21.5 13t-24 14t-23 13q-39 -18 -60 -28t-51.5 -29.5t-45.5 -37t-27 -44.5t-12 -59
q0 -51 37 -89.5t117 -38.5q89 0 145.5 43.5t56.5 114.5z" />
    <glyph glyph-name="nine" unicode="9" horiz-adv-x="590" 
d="M437 690q91 0 134 -55.5t43 -145.5q0 -116 -45.5 -230.5t-128.5 -191.5t-178 -77q-70 0 -113.5 31t-43.5 72q0 16 9 26.5t23 10.5q20 0 20 -18q0 -2 -1.5 -12t-1.5 -13q0 -36 31 -54t82 -18q96 0 170 92t106 228q-99 -70 -194 -70q-87 0 -136 38.5t-49 114.5
q0 113 79 192.5t194 79.5zM355 290q95 0 194 74q13 61 13 129q0 172 -131 172q-95 0 -156 -75.5t-61 -178.5q0 -121 141 -121z" />
    <glyph glyph-name="colon" unicode=":" horiz-adv-x="180" 
d="M158 320q25 0 25 -24q0 -15 -11.5 -25.5t-26.5 -10.5q-24 0 -24 21q0 16 10.5 27.5t26.5 11.5zM101 50q24 0 24 -22q0 -16 -11 -27t-26 -11q-25 0 -25 22q0 16 11 27t27 11z" />
    <glyph glyph-name="semicolon" unicode=";" horiz-adv-x="180" 
d="M158 320q25 0 25 -24q0 -15 -11.5 -25.5t-26.5 -10.5q-24 0 -24 21q0 16 10.5 27.5t26.5 11.5zM101 50q30 0 30 -36q0 -46 -30.5 -85t-73.5 -39l3 15q27 0 48 23.5t21 47.5q0 14 -11 14q-25 0 -25 22q0 16 11 27t27 11z" />
    <glyph glyph-name="less" unicode="&#x3c;" horiz-adv-x="470" 
d="M503 390l-6 -30l-315 -65l287 -65l-6 -30l-353 80l6 30z" />
    <glyph glyph-name="equal" unicode="=" horiz-adv-x="470" 
d="M503 390l-6 -30h-370l6 30h370zM469 230l-6 -30h-370l6 30h370z" />
    <glyph glyph-name="greater" unicode="&#x3e;" horiz-adv-x="470" 
d="M133 390l353 -80l-6 -30l-387 -80l6 30l315 65l-287 65z" />
    <glyph glyph-name="question" unicode="?" horiz-adv-x="505" 
d="M389 750q79 0 124.5 -36t45.5 -105q0 -23 -6 -52q-11 -54 -45 -100.5t-75.5 -79t-82.5 -63t-73 -67t-41 -77.5h-20q8 39 37.5 77.5t66.5 70.5t74.5 66.5t68 80t41.5 95.5q5 21 5 49q0 53 -30.5 84.5t-94.5 31.5q-61 0 -105.5 -23.5t-53.5 -66.5q-5 -25 -30 -25
q-21 0 -21 19q0 39 70.5 80t144.5 41zM201 50q24 0 24 -22q0 -16 -11 -27t-26 -11q-25 0 -25 22q0 16 11 27t27 11z" />
    <glyph glyph-name="at" unicode="@" horiz-adv-x="870" 
d="M593 652q139 0 221.5 -69t82.5 -185q0 -131 -86 -239.5t-204 -108.5q-93 0 -93 63q0 15 6 34q-77 -77 -149 -77q-83 0 -83 71q0 56 48 131t125 132t147 57q34 0 51.5 -16.5t17.5 -43.5q0 -11 -3 -23l51 75h38l-200 -289q-19 -28 -19 -50q0 -21 17.5 -32.5t47.5 -11.5
q110 0 188.5 100.5t78.5 222.5q0 109 -79.5 174t-208.5 65q-124 0 -229.5 -67t-165.5 -176.5t-60 -233.5q0 -117 68.5 -186t196.5 -69l-5 -20q-137 0 -217.5 79t-80.5 207q0 129 68 241t183 178.5t247 66.5zM599 440q-55 0 -120.5 -51t-109.5 -121.5t-44 -124.5
q0 -53 50 -53q103 0 244 206q35 51 35 93q0 51 -55 51z" />
    <glyph glyph-name="A" unicode="A" horiz-adv-x="690" 
d="M651 20h33l-4 -20h-195l4 20h51q16 0 20.5 6.5t1.5 23.5l-32 168h-309l-96 -166q-18 -32 8 -32h56l-4 -20h-175l4 20h34q20 0 28 5t20 25l372 635h25l119 -635q4 -19 11.5 -24.5t27.5 -5.5zM236 243h290l-71 377z" />
    <glyph glyph-name="B" unicode="B" horiz-adv-x="610" 
d="M482 358q53 -14 82 -49.5t29 -86.5q0 -97 -77 -159.5t-186 -62.5h-280l4 20h40q20 0 26.5 5.5t10.5 24.5l123 580q4 20 -0.5 25t-23.5 5h-40l5 20h250q189 0 189 -133q0 -61 -44 -114t-108 -75zM311 660l-63 -292h165q83 0 127.5 55t44.5 135q0 57 -36.5 79.5
t-108.5 22.5h-129zM334 20q100 0 155 57.5t55 156.5q0 114 -145 114h-155l-70 -328h160z" />
    <glyph glyph-name="C" unicode="C" horiz-adv-x="720" 
d="M541 665q-104 0 -187.5 -60.5t-128 -156t-44.5 -204.5q0 -108 59 -168.5t163 -60.5q109 0 178.5 40t83.5 110h20l-35 -165h-20l6 30q3 15 -7 15q-6 0 -34.5 -13.5t-80.5 -27.5t-116 -14q-123 0 -194.5 70.5t-71.5 189.5q0 177 121.5 308.5t293.5 131.5q64 0 110 -14
t68.5 -27.5t28.5 -13.5q11 0 14 15l7 30h20l-36 -165h-20q16 74 -35.5 112t-162.5 38z" />
    <glyph glyph-name="D" unicode="D" horiz-adv-x="750" 
d="M475 680q127 0 206.5 -70t79.5 -190q0 -172 -127.5 -296t-303.5 -124h-280l4 20h40q20 0 26.5 5.5t10.5 24.5l123 580q4 20 -0.5 25t-23.5 5h-40l5 20h280zM470 660h-130q-20 0 -26 -5.5t-10 -24.5l-123 -580q-5 -20 -0.5 -25t23.5 -5h130q106 0 193.5 57t135.5 149.5
t48 198.5q0 110 -66.5 172.5t-174.5 62.5z" />
    <glyph glyph-name="E" unicode="E" horiz-adv-x="620" 
d="M195 680h500l-35 -164h-20l6 30q13 60 -1.5 87t-68.5 27h-236q-20 0 -26 -5.5t-10 -24.5l-57 -270h166q55 0 78.5 18t32.5 62l6 30h20l-51 -240h-20l6 30q9 44 -6.5 62t-70.5 18h-165l-62 -290q-5 -20 -0.5 -25t23.5 -5h246q55 0 80 27t38 87l7 30h20l-35 -164h-510l4 20
h40q20 0 26.5 5.5t10.5 24.5l123 580q4 20 -0.5 25t-23.5 5h-40z" />
    <glyph glyph-name="F" unicode="F" horiz-adv-x="590" 
d="M195 680h500l-35 -164h-20l6 30q15 58 0.5 86t-70.5 28h-236q-20 0 -26 -5.5t-10 -24.5l-61 -288h166q55 0 78.5 18t32.5 62l6 30h20l-51 -240h-20l6 30q9 44 -6.5 62t-70.5 18h-165l-58 -272q-5 -20 -0.5 -25t23.5 -5h70l-4 -20h-220l4 20h40q20 0 26.5 5.5t10.5 24.5
l123 580q4 20 -0.5 25t-23.5 5h-40z" />
    <glyph glyph-name="G" unicode="G" horiz-adv-x="790" 
d="M616 310h190l-4 -20h-40q-20 0 -26.5 -5.5t-10.5 -24.5l-6 -30q-23 -108 -109.5 -174t-211.5 -66q-123 0 -194.5 70.5t-71.5 189.5q0 177 121.5 308.5t293.5 131.5q64 0 110 -14t68.5 -27.5t28.5 -13.5q11 0 14 15l7 30h20l-36 -165h-20q16 74 -35.5 112t-162.5 38
q-104 0 -187.5 -60.5t-128 -156t-44.5 -204.5q0 -108 59 -168.5t163 -60.5q221 0 266 215l6 30q5 20 0.5 25t-23.5 5h-40z" />
    <glyph glyph-name="H" unicode="H" horiz-adv-x="750" 
d="M655 680h190l-5 -20h-40q-20 0 -26 -5.5t-10 -24.5l-123 -580q-5 -20 -0.5 -25t23.5 -5h40l-4 -20h-190l4 20h40q20 0 26.5 5.5t10.5 24.5l60 285h-410l-60 -285q-5 -20 -0.5 -25t23.5 -5h40l-4 -20h-190l4 20h40q20 0 26.5 5.5t10.5 24.5l123 580q4 20 -0.5 25t-23.5 5
h-40l5 20h190l-5 -20h-40q-20 0 -26 -5.5t-10 -24.5l-57 -270h410l57 270q4 20 -0.5 25t-23.5 5h-40z" />
    <glyph glyph-name="I" unicode="I" horiz-adv-x="290" 
d="M385 680l-5 -20h-40q-20 0 -26 -5.5t-10 -24.5l-123 -580q-5 -20 -0.5 -25t23.5 -5h40l-4 -20h-190l4 20h40q20 0 26.5 5.5t10.5 24.5l123 580q4 20 -0.5 25t-23.5 5h-40l5 20h190z" />
    <glyph glyph-name="J" unicode="J" horiz-adv-x="365" 
d="M465 680l-5 -20h-40q-20 0 -26 -5.5t-10 -24.5l-94 -444q-22 -103 -69 -149.5t-108 -46.5q-41 0 -61 19.5t-20 42.5q0 14 9 23.5t22 9.5q21 0 21 -19q0 -9 -6 -19t-6 -17q0 -20 45 -20q46 0 72.5 34.5t45.5 119.5l99 466q4 20 -0.5 25t-23.5 5h-40l5 20h190z" />
    <glyph glyph-name="K" unicode="K" horiz-adv-x="635" 
d="M385 680l-5 -20h-40q-20 0 -26 -5.5t-10 -24.5l-123 -580q-5 -20 -0.5 -25t23.5 -5h40l-4 -20h-190l4 20h40q20 0 26.5 5.5t10.5 24.5l123 580q4 20 -0.5 25t-23.5 5h-40l5 20h190zM745 680l-5 -20h-36q-30 0 -66 -30l-340 -283l244 -297q11 -13 15.5 -18t13 -8.5
t20.5 -3.5h43l-4 -20h-230l4 20h51q18 0 25.5 8t-3.5 22l-232 281l360 299q14 13 10 21.5t-19 8.5h-56l5 20h200z" />
    <glyph glyph-name="L" unicode="L" 
d="M385 680l-5 -20h-40q-20 0 -26 -5.5t-10 -24.5l-123 -580q-5 -20 -0.5 -25t23.5 -5h216q54 0 79.5 27t38.5 87l7 30h20l-35 -164h-480l4 20h40q20 0 26.5 5.5t10.5 24.5l123 580q4 20 -0.5 25t-23.5 5h-40l5 20h190z" />
    <glyph glyph-name="M" unicode="M" horiz-adv-x="850" 
d="M945 680l-5 -20h-40q-20 0 -26 -5.5t-10 -24.5l-123 -580q-5 -20 -0.5 -25t23.5 -5h40l-4 -20h-190l4 20h40q20 0 26.5 5.5t10.5 24.5l124 584l-394 -634h-20l-130 639l-125 -589q-5 -20 -0.5 -25t23.5 -5h31l-4 -20h-146l4 20h30q20 0 26.5 5.5t10.5 24.5l123 580
q4 20 -0.5 25t-23.5 5h-30l5 20h119l122 -616l381 616h128z" />
    <glyph glyph-name="N" unicode="N" horiz-adv-x="745" 
d="M845 680l-5 -20l-36 -1q-20 -1 -26 -6t-10 -24l-134 -629h-25l-340 630l-123 -580q-5 -20 -0.5 -25t23.5 -5h40l-4 -20h-155l4 20h30q20 0 26.5 5.5t10.5 24.5l123 580q4 20 -0.5 25t-23.5 5h-30l5 20h107l324 -607l117 557q4 20 -0.5 25t-23.5 5h-36l5 20h157z" />
    <glyph glyph-name="O" unicode="O" horiz-adv-x="780" 
d="M537 690q120 0 188 -68.5t68 -185.5t-52 -219.5t-146 -164.5t-207 -62q-121 0 -188.5 68.5t-67.5 186.5q0 117 52 219t146 164t207 62zM531 665q-103 0 -185 -62t-124 -159t-42 -207q0 -105 55.5 -163.5t157.5 -58.5q103 0 185 62t124 159t42 207q0 105 -55.5 163.5
t-157.5 58.5z" />
    <glyph glyph-name="P" unicode="P" horiz-adv-x="590" 
d="M460 680q96 0 142 -39.5t46 -106.5q0 -110 -77 -180t-196 -70h-145l-49 -234q-5 -20 -0.5 -25t23.5 -5h70l-4 -20h-220l4 20h40q20 0 26.5 5.5t10.5 24.5l123 580q4 20 -0.5 25t-23.5 5h-40l5 20h265zM455 660h-145l-75 -356h145q106 0 163.5 67t57.5 176
q0 60 -36.5 86.5t-109.5 26.5z" />
    <glyph glyph-name="Q" unicode="Q" horiz-adv-x="780" 
d="M463 -3q34 -13 61 -36.5t43.5 -47.5t32 -46.5t35.5 -36.5t46 -14q7 0 21 4l-5 -20q-27 -10 -57 -10q-34 0 -61 20.5t-45 50l-36 59t-46 50t-64 20.5q-121 0 -188.5 68.5t-67.5 186.5q0 117 52 219t146 164t207 62q120 0 188 -68.5t68 -185.5q0 -159 -93 -284.5
t-237 -154.5zM180 237q0 -105 55.5 -163.5t157.5 -58.5q103 0 185 62t124 159t42 207q0 105 -55.5 163.5t-157.5 58.5q-103 0 -185 -62t-124 -159t-42 -207z" />
    <glyph glyph-name="R" unicode="R" horiz-adv-x="680" 
d="M635 20h44l-4 -20h-64q-60 0 -80.5 38.5t-25.5 132.5q-4 82 -30.5 110.5t-83.5 28.5h-155l-55 -260q-5 -20 -0.5 -25t23.5 -5h40l-4 -20h-190l4 20h40q20 0 26.5 5.5t10.5 24.5l123 580q4 20 -0.5 25t-23.5 5h-40l5 20h275q190 0 192 -132q0 -85 -52 -148t-139 -82
q82 -35 84 -147q3 -87 16.5 -119t63.5 -32zM240 330l155 1q218 1 218 230q-1 56 -37 77.5t-111 21.5h-155z" />
    <glyph glyph-name="S" unicode="S" horiz-adv-x="550" 
d="M410 690q42 0 76 -11t53 -22.5t27 -11.5q11 0 14 15l5 20h20l-36 -165h-20q15 69 -28.5 109.5t-111.5 40.5q-76 0 -122.5 -39t-46.5 -104q0 -40 30 -71.5t72.5 -55t85 -47.5t72.5 -62t30 -86q0 -94 -72.5 -152t-179.5 -58q-51 0 -90.5 11t-61 22.5t-28.5 11.5
q-11 0 -14 -15l-4 -20h-20l35 165h20q-15 -73 30 -111.5t133 -38.5q90 0 148.5 49.5t58.5 128.5q0 40 -30 72t-72.5 54t-85 45.5t-72.5 59t-30 81.5q0 82 62 133.5t153 51.5z" />
    <glyph glyph-name="T" unicode="T" horiz-adv-x="590" 
d="M695 680l-35 -164h-20l6 30q13 60 -1.5 87t-68.5 27h-86q-20 0 -26 -5.5t-10 -24.5l-123 -580q-5 -20 -0.5 -25t23.5 -5h40l-4 -20h-190l4 20h40q20 0 26.5 5.5t10.5 24.5l123 580q4 20 -0.5 25t-23.5 5h-86q-54 0 -79.5 -27t-38.5 -87l-6 -30h-20l35 164h510z" />
    <glyph glyph-name="U" unicode="U" horiz-adv-x="740" 
d="M840 680l-5 -20h-36q-20 0 -26 -5.5t-10 -24.5l-86 -405q-25 -116 -110 -175.5t-189 -59.5q-109 0 -164.5 45.5t-55.5 132.5q0 37 8 72l83 390q4 20 -0.5 25t-23.5 5h-40l5 20h190l-5 -20h-40q-20 0 -26 -5.5t-10 -24.5l-86 -405q-8 -40 -8 -67q0 -143 178 -143
q97 0 172 53.5t97 156.5l86 405q4 20 -0.5 25t-23.5 5h-36l5 20h157z" />
    <glyph glyph-name="V" unicode="V" horiz-adv-x="690" 
d="M342 -5l-119 635q-4 19 -11.5 24.5t-28.5 5.5h-33l5 20h195l-5 -20h-51q-16 0 -20 -6.5t-1 -23.5l106 -570l330 568q18 32 -8 32h-56l5 20h175l-5 -20h-34q-20 0 -27.5 -5t-19.5 -25l-372 -635h-25z" />
    <glyph glyph-name="W" unicode="W" horiz-adv-x="1020" 
d="M980 680h175l-5 -20h-34q-20 0 -27.5 -5t-19.5 -25l-372 -635h-25l-52 482l-283 -482h-25l-89 635q-3 19 -11 24.5t-29 5.5h-33l5 20h195l-5 -20h-51q-16 0 -19.5 -6.5t-1.5 -23.5l78 -567l264 455l-12 112q-2 19 -10.5 24.5t-29.5 5.5h-33l5 20h195l-5 -20h-51
q-16 0 -19.5 -6t-1.5 -24l58 -567l328 565q18 32 -8 32h-56z" />
    <glyph glyph-name="X" unicode="X" horiz-adv-x="620" 
d="M550 680h180l-5 -20h-40q-20 0 -30.5 -5.5t-26.5 -24.5l-222 -262l129 -318q8 -20 13.5 -25t20.5 -5h45l-4 -20h-215l4 20h59q34 0 22 30l-111 275l-234 -275q-13 -15 -10 -22.5t18 -7.5h51l-4 -20h-180l4 20h35q20 0 30.5 5.5t27.5 24.5l253 296l-115 284
q-8 20 -13.5 25t-21.5 5h-45l5 20h215l-5 -20h-59q-33 0 -21 -30l98 -241l202 241q24 30 -9 30h-46z" />
    <glyph glyph-name="Y" unicode="Y" horiz-adv-x="650" 
d="M785 680l-5 -20h-25q-44 0 -67 -30l-280 -359l-47 -221q-5 -20 -0.5 -25t23.5 -5h40l-4 -20h-190l4 20h40q20 0 26.5 5.5t10.5 24.5l45 214l-121 366q-6 18 -15.5 24t-29.5 6h-40l5 20h227l-5 -20h-68q-21 0 -24.5 -8t3.5 -22l109 -338l262 335q15 20 12.5 26.5
t-20.5 6.5h-66l5 20h195z" />
    <glyph glyph-name="Z" unicode="Z" horiz-adv-x="640" 
d="M705 680l-5 -20l-573 -640h343q54 0 79.5 27t38.5 87l7 30h20l-35 -164h-520l4 20l573 640h-303q-54 0 -79.5 -27t-38.5 -87l-6 -30h-20l35 164h480z" />
    <glyph glyph-name="bracketleft" unicode="[" horiz-adv-x="290" 
d="M408 790l-4 -20h-70l-179 -840h70l-4 -20h-120l187 880h120z" />
    <glyph glyph-name="backslash" unicode="\" horiz-adv-x="540" 
d="M185 680h25l290 -680h-25z" />
    <glyph glyph-name="bracketright" unicode="]" horiz-adv-x="290" 
d="M338 790l-187 -880h-120l4 20h70l179 840h-70l4 20h120z" />
    <glyph glyph-name="asciicircum" unicode="^" horiz-adv-x="420" 
d="M389 168q-61 30 -123 97q-88 -67 -163 -97l-7 20q42 20 93.5 61t77.5 71h23q13 -31 46.5 -71.5t67.5 -60.5z" />
    <glyph glyph-name="underscore" unicode="_" horiz-adv-x="450" 
d="M394 -30l-7 -30h-350l7 30h350z" />
    <glyph glyph-name="grave" unicode="`" horiz-adv-x="290" 
d="M235 700q8 0 14 -2.5t13 -13t11 -30.5q7 -34 25 -51.5t57 -32.5l-14 -20q-46 17 -92.5 51t-46.5 64q0 17 10.5 26t22.5 9z" />
    <glyph glyph-name="a" unicode="a" 
d="M496 15q15 0 29 14t21 44h20q-11 -47 -37 -65t-51 -18q-70 0 -53 80l11 54q-39 -67 -89 -100.5t-104 -33.5q-74 0 -112 45t-38 125q0 138 72.5 244t187.5 106q54 0 90 -33.5t47 -100.5l56 124h20l-91 -429q-12 -56 21 -56zM247 10q62 0 115.5 51t82 124.5t28.5 145.5
q0 73 -33.5 116t-90.5 43q-63 0 -112.5 -54.5t-72.5 -131.5t-23 -157q0 -137 106 -137z" />
    <glyph glyph-name="b" unicode="b" horiz-adv-x="550" 
d="M413 510q74 0 112 -45t38 -125q0 -138 -72.5 -244t-187.5 -106q-54 0 -90 33.5t-47 100.5l-55 -124h-20l138 650q4 19 0 24.5t-24 5.5h-44l4 20h125l-70 -323q39 66 89 99.5t104 33.5zM409 490q-63 0 -116 -50.5t-81 -122.5t-28 -143t31.5 -117.5t91.5 -46.5
q63 0 112.5 54.5t72.5 131.5t23 157q0 137 -106 137z" />
    <glyph glyph-name="c" unicode="c" horiz-adv-x="500" 
d="M387 510q71 0 112 -31t41 -71q0 -38 -31 -38q-21 0 -21 19q0 3 1.5 11t1.5 13q0 32 -25 54.5t-83 22.5q-68 0 -124.5 -49t-85.5 -121.5t-29 -146.5t36.5 -116t102.5 -42q55 0 97 19.5t86 68.5l13 -13q-80 -100 -206 -100q-90 0 -134 50.5t-44 133.5q0 135 84 235.5
t208 100.5z" />
    <glyph glyph-name="d" unicode="d" 
d="M496 15q15 0 29 14t21 44h20q-11 -47 -37 -65t-51 -18q-70 0 -53 80l11 54q-39 -67 -89 -100.5t-104 -33.5q-74 0 -112 45t-38 125q0 138 72.5 244t187.5 106q54 0 90 -33.5t47 -100.5l59 274q4 20 -0.5 25t-23.5 5h-44l4 20h124l-134 -629q-12 -56 21 -56zM247 10
q75 0 133.5 69.5t80.5 161.5q27 111 -5.5 180t-106.5 69q-63 0 -112.5 -54.5t-72.5 -131.5t-23 -157q0 -137 106 -137z" />
    <glyph glyph-name="e" unicode="e" horiz-adv-x="505" 
d="M255 220q-38 0 -106 7q-4 -24 -4 -55q0 -74 36 -115.5t102 -41.5q55 0 97 19.5t86 68.5l13 -13q-80 -100 -206 -100q-90 0 -134 50.5t-44 133.5q0 137 82 236.5t206 99.5q80 0 113 -35.5t33 -89.5q0 -27 -11.5 -53t-39 -52.5t-85 -43t-138.5 -16.5zM379 490
q-86 0 -146.5 -70t-80.5 -171q64 -8 104 -8q66 0 113.5 14.5t70 38t32 46t9.5 47.5q0 103 -102 103z" />
    <glyph glyph-name="f" unicode="f" horiz-adv-x="265" 
d="M356 710q30 0 46.5 -16t16.5 -36q0 -14 -9 -23.5t-22 -9.5q-21 0 -21 19q0 4 3.5 14t3.5 17q0 15 -27 15q-61 0 -82 -104l-18 -86h104l-4 -20h-105l-116 -544q-14 -69 -51.5 -107.5t-89.5 -38.5q-31 0 -50 12.5t-19 33.5q0 16 9.5 27.5t23.5 11.5q20 0 20 -19
q0 -5 -3.5 -15t-3.5 -15q0 -16 28 -16q60 0 82 104l120 566h-70l4 20h70l14 64q15 71 53.5 108.5t92.5 37.5z" />
    <glyph glyph-name="g" unicode="g" horiz-adv-x="490" 
d="M526 540q22 0 34.5 -10.5t12.5 -24.5q0 -11 -7.5 -19.5t-20.5 -8.5q-10 0 -15 6t-6.5 13t-6.5 13t-15 6q-24 0 -61 -30q48 -35 48 -99q0 -85 -61 -145.5t-149 -60.5q-45 0 -77 17q-22 -13 -34 -21.5t-21.5 -22.5t-9.5 -31q0 -25 34.5 -37t83.5 -16.5t98.5 -13t84 -36
t34.5 -75.5q0 -68 -82.5 -111t-196.5 -43q-93 0 -145.5 31.5t-52.5 85.5q0 44 37 82.5t101 61.5q-29 19 -29 56q0 54 81 101q-45 34 -45 97q0 85 61.5 145t147.5 60q41 0 73 -15q54 45 104 45zM284 200q67 0 111 58t44 130q0 47 -24.5 74.5t-69.5 27.5q-66 0 -110.5 -56.5
t-44.5 -130.5q0 -47 24.5 -75t69.5 -28zM422 -71q0 30 -19 48.5t-51.5 26.5t-66 12t-72 9.5t-61.5 15.5q-54 -17 -85 -51t-31 -83q0 -41 40 -69t122 -28q99 0 161.5 33t62.5 86z" />
    <glyph glyph-name="h" unicode="h" horiz-adv-x="580" 
d="M566 73h20q-11 -47 -37 -65t-51 -18q-70 0 -53 80l56 265q32 155 -92 155q-165 0 -230 -310l-38 -180h-50l138 650q4 19 0 24.5t-24 5.5h-44l4 20h125l-74 -345q37 81 88.5 118t108.5 37q86 0 120.5 -47t17.5 -128l-56 -264q-12 -56 21 -56q15 0 29 14t21 44z" />
    <glyph glyph-name="i" unicode="i" horiz-adv-x="250" 
d="M247 650q13 0 21 -8t8 -20q0 -16 -14 -29t-30 -13q-13 0 -20.5 8t-7.5 20q0 16 13.5 29t29.5 13zM226 73h20q-11 -47 -37 -65t-51 -18q-70 0 -53 80l81 380q4 20 -0.5 25t-23.5 5h-44l4 20h124l-91 -429q-12 -56 21 -56q15 0 29 14t21 44z" />
    <glyph glyph-name="j" unicode="j" horiz-adv-x="220" 
d="M253 650q13 0 21 -8t8 -20q0 -16 -14 -29t-30 -13q-13 0 -20.5 8t-7.5 20q0 16 13.5 29t29.5 13zM246 500l-120 -564q-14 -69 -51.5 -107.5t-89.5 -38.5q-31 0 -50 12.5t-19 33.5q0 16 9.5 27.5t23.5 11.5q20 0 20 -19q0 -5 -3.5 -15t-3.5 -15q0 -16 28 -16q60 0 82 104
l114 536q4 19 0 24.5t-24 5.5h-44l4 20h124z" />
    <glyph glyph-name="k" unicode="k" horiz-adv-x="530" 
d="M514 510q43 0 43 -36q0 -10 -8 -18t-21 -8q-14 0 -23.5 13.5t-18.5 13.5q-17 0 -32.5 -14t-30 -36t-30.5 -46t-41.5 -48t-55.5 -37q134 -17 134 -118q0 -19 -9 -67.5t-9 -65.5q0 -28 24 -28q15 0 29 14t21 44h20q-11 -47 -37 -65t-51 -18q-56 0 -56 52q0 13 9 65.5
t9 68.5q0 100 -133 100h-47l-59 -276h-50l138 650q4 19 0 24.5t-24 5.5h-44l4 20h125l-85 -399h12q50 0 87 21.5t59.5 52.5t42 61.5t46.5 52t62 21.5z" />
    <glyph glyph-name="l" unicode="l" horiz-adv-x="250" 
d="M226 73h20q-11 -47 -37 -65t-51 -18q-70 0 -53 80l124 580q4 20 -0.5 25t-23.5 5h-44l4 20h124l-134 -629q-12 -56 21 -56q15 0 29 14t21 44z" />
    <glyph glyph-name="m" unicode="m" horiz-adv-x="920" 
d="M906 73h20q-11 -47 -37 -65t-51 -18q-70 0 -53 80l56 265q32 155 -92 155q-81 0 -139 -76t-87 -213l-43 -201h-50l71 335q33 155 -92 155q-165 0 -230 -310l-38 -180h-50l95 450q4 20 -0.5 25t-23.5 5h-44l4 20h124l-30 -145q37 81 88.5 118t108.5 37q80 0 115.5 -42
t26.5 -113q37 81 89.5 118t108.5 37q86 0 120.5 -47t17.5 -128l-56 -264q-12 -56 21 -56q15 0 29 14t21 44z" />
    <glyph glyph-name="n" unicode="n" horiz-adv-x="580" 
d="M566 73h20q-11 -47 -37 -65t-51 -18q-70 0 -53 80l56 265q32 155 -92 155q-165 0 -230 -310l-38 -180h-50l95 450q4 20 -0.5 25t-23.5 5h-44l4 20h124l-30 -145q37 81 88.5 118t108.5 37q86 0 120.5 -47t17.5 -128l-56 -264q-12 -56 21 -56q15 0 29 14t21 44z" />
    <glyph glyph-name="o" unicode="o" horiz-adv-x="550" 
d="M383 510q90 0 134 -50.5t44 -133.5q0 -137 -82 -236.5t-206 -99.5q-90 0 -134 50.5t-44 133.5q0 137 82 236.5t206 99.5zM379 490q-71 0 -126.5 -50t-82.5 -123.5t-27 -153.5q0 -73 34.5 -113t99.5 -40q71 0 126.5 50t82.5 123t27 153q0 74 -34.5 114t-99.5 40z" />
    <glyph glyph-name="p" unicode="p" horiz-adv-x="550" 
d="M413 510q74 0 112 -45t38 -125q0 -138 -72.5 -244t-187.5 -106q-54 0 -90 33.5t-47 100.5l-58 -274q-4 -20 0.5 -25t23.5 -5h40l-5 -20h-190l5 20h40q19 0 25 5t11 25l128 600q4 19 -0.5 24.5t-23.5 5.5h-44l4 20h124l-27 -126q76 136 194 136zM515 353q0 137 -106 137
q-63 0 -116 -50.5t-81 -122.5t-28 -143t31 -117.5t92 -46.5q63 0 112.5 54.5t72.5 131.5t23 157z" />
    <glyph glyph-name="q" unicode="q" horiz-adv-x="540" 
d="M428 -150q-4 -20 0.5 -25t23.5 -5h40l-5 -20h-190l5 20h40q20 0 26 5.5t10 24.5l59 275q-38 -65 -88 -100t-106 -35q-74 0 -112 45t-38 125q0 138 72.5 244t187.5 106q54 0 90 -33.5t47 -100.5l56 124h20zM471 330q0 76 -32.5 118t-89.5 42q-63 0 -112.5 -54.5
t-72.5 -131.5t-23 -157q0 -137 106 -137q62 0 114.5 49t81 122t28.5 149z" />
    <glyph glyph-name="r" unicode="r" horiz-adv-x="380" 
d="M387 510q53 0 53 -36q0 -16 -9.5 -25t-21.5 -9q-22 0 -22 22q0 23 -15 23q-43 0 -99.5 -69t-81.5 -186l-50 -230h-50l95 450q4 19 0 24.5t-24 5.5h-44l4 20h124l-29 -140q33 66 80 108t90 42z" />
    <glyph glyph-name="s" unicode="s" horiz-adv-x="460" 
d="M327 510q71 0 112 -31t41 -71q0 -38 -31 -38q-21 0 -21 19q0 3 1.5 11t1.5 13q0 32 -25 54.5t-83 22.5q-61 0 -96 -27.5t-35 -76.5q0 -30 25.5 -53.5t62 -41.5t73.5 -36.5t62.5 -48t25.5 -66.5q0 -70 -58 -110t-147 -40q-84 0 -128.5 31t-44.5 71q0 38 31 38q21 0 21 -19
q0 -3 -1.5 -11t-1.5 -13q0 -77 128 -77q71 0 112 30.5t41 88.5q0 32 -25.5 57t-62.5 42.5t-74 36t-62.5 47t-25.5 65.5q0 62 51.5 97.5t132.5 35.5z" />
    <glyph glyph-name="t" unicode="t" horiz-adv-x="280" 
d="M242 480l-83 -389q-4 -17 -4 -34q0 -42 38 -42q20 0 38 13.5t25 44.5h20q-9 -44 -38 -63.5t-60 -19.5q-73 0 -73 66q0 12 4 34l83 390h-70l4 20h70l58 130h20l-28 -130h120l-4 -20h-120z" />
    <glyph glyph-name="u" unicode="u" horiz-adv-x="580" 
d="M246 500l-70 -335q-32 -155 92 -155q165 0 230 310l38 180h50l-91 -429q-12 -56 21 -56q15 0 29 14t21 44h20q-11 -47 -37 -65t-51 -18q-70 0 -53 80l16 75q-37 -81 -88.5 -118t-108.5 -37q-86 0 -120.5 47t-17.5 128l60 285q4 20 -0.5 25t-23.5 5h-44l4 20h124z" />
    <glyph glyph-name="v" unicode="v" horiz-adv-x="545" 
d="M489 510q25 0 38 -26t13 -65q0 -48 -21 -92t-55 -81t-69.5 -73t-71 -84t-54.5 -99h-25q18 39 18 78q0 54 -51 147t-51 145q0 72 71 150l15 -15q-48 -55 -48 -107q0 -35 22 -78t44.5 -92t22.5 -98q0 -30 -9 -64q26 50 85 113t99.5 115t40.5 97q0 28 -10 46.5t-20 30.5
t-10 23q0 13 8 21t18 8z" />
    <glyph glyph-name="w" unicode="w" horiz-adv-x="805" 
d="M749 510q25 0 38 -26t13 -65q0 -48 -21 -92t-55 -81t-69.5 -73t-71 -84t-54.5 -99h-25q18 39 18 78q0 49 -34 132t-37 92q-18 -50 -87 -139.5t-95 -162.5h-25q18 39 18 78q0 54 -51 147t-51 145q0 72 71 150l15 -15q-48 -55 -48 -107q0 -35 22 -78t44.5 -92t22.5 -98
q0 -30 -9 -64q22 42 61.5 96t66.5 98.5t35 88.5q-1 7 -1 21q0 72 71 150l15 -15q-48 -55 -48 -107q0 -39 34.5 -122.5t34.5 -145.5q0 -30 -9 -64q26 50 85 113t99.5 115t40.5 97q0 28 -10 46.5t-20 30.5t-10 23q0 13 8 21t18 8z" />
    <glyph glyph-name="x" unicode="x" horiz-adv-x="515" 
d="M537 510q41 0 41 -34q0 -11 -8.5 -19.5t-22.5 -8.5t-22.5 13.5t-17.5 13.5q-17 0 -39 -18t-49 -54.5t-44.5 -64t-46.5 -74.5q4 -55 9 -93t15.5 -77t28.5 -59t44 -20q36 0 54 58h20q-14 -47 -41.5 -65t-52.5 -18q-41 0 -67 31t-36 72.5t-16 103.5q-63 -106 -109.5 -156
t-95.5 -50q-41 0 -41 34q0 11 8.5 19.5t22.5 8.5t22.5 -13.5t17.5 -13.5q50 0 171 212q-10 144 -24 187q-20 61 -65 61q-36 0 -54 -58h-20q14 47 41.5 65t52.5 18q98 0 113 -203q31 49 51.5 78t49 61.5t55.5 47.5t55 15z" />
    <glyph glyph-name="y" unicode="y" horiz-adv-x="545" 
d="M489 510q25 0 38 -26t13 -65q0 -63 -51 -171t-122 -208.5t-151.5 -175t-133.5 -74.5q-23 0 -36.5 11.5t-13.5 27.5t8.5 26t22.5 10q21 0 21 -21q0 -5 -4 -13t-4 -12q0 -9 16 -9q41 0 112.5 73.5t71.5 122.5q0 61 -29 127.5t-58 125t-29 101.5q0 72 71 150l15 -15
q-48 -55 -48 -107q0 -33 17 -72.5t37 -72t37 -81.5t17 -99q0 -40 -12 -88q209 285 209 406q0 28 -10 46.5t-20 30.5t-10 23q0 13 8 21t18 8z" />
    <glyph glyph-name="z" unicode="z" horiz-adv-x="460" 
d="M393 3q57 0 74 70h16q-23 -113 -120 -113q-31 0 -59.5 13.5t-47 30t-45 30t-53.5 13.5q-53 0 -100 -58l-15 10q47 75 110.5 145.5t116.5 115t120 102.5t107 101q-56 -38 -131 -38q-19 0 -38 2t-43 6.5t-36.5 7.5t-42 10t-36.5 9l-25 -100h-20l35 150q208 -41 262 -41
q47 0 68 12t37 40l20 -10q-26 -52 -86 -115t-120.5 -113t-128 -112.5t-102.5 -111.5q23 13 57 13q46 0 120 -34.5t106 -34.5z" />
    <glyph glyph-name="braceleft" unicode="{" horiz-adv-x="370" 
d="M286 640q31 150 202 150l-4 -20q-61 0 -96 -25t-52 -103q-4 -20 -13 -86t-13 -86q-12 -57 -54 -86t-87 -34q37 -4 65 -26.5t28 -65.5q0 -27 -28 -122.5t-28 -129.5q0 -46 25 -61t74 -15l-4 -20q-143 0 -143 105q0 29 28 128t28 132q0 34 -17 49.5t-55 15.5l2 10l3 10
q51 0 76.5 28t38.5 91q5 23 12.5 82.5t11.5 78.5z" />
    <glyph glyph-name="bar" unicode="|" horiz-adv-x="185" 
d="M273 790l-187 -880h-25l187 880h25z" />
    <glyph glyph-name="braceright" unicode="}" horiz-adv-x="370" 
d="M305 425q0 -34 17 -49.5t55 -15.5l-2 -10l-3 -10q-51 0 -76.5 -28t-38.5 -91q-5 -23 -12.5 -82.5t-11.5 -78.5q-31 -150 -202 -150l4 20q61 0 96 25t52 103q4 20 13 86t13 86q12 57 54 86t87 34q-37 4 -65 26.5t-28 65.5q0 27 28 122.5t28 129.5q0 46 -25 61t-74 15l4 20
q143 0 143 -105q0 -29 -28 -128t-28 -132z" />
    <glyph glyph-name="asciitilde" unicode="~" horiz-adv-x="440" 
d="M461 336q-8 -41 -31.5 -63.5t-54.5 -22.5q-25 0 -101.5 23t-99.5 23q-38 0 -49 -46h-22q9 41 33 63.5t57 22.5q26 0 100 -23t98 -23q39 0 48 46h22z" />
    <glyph glyph-name="exclamdown" unicode="&#xa1;" horiz-adv-x="290" 
d="M291 450q-24 0 -24 22q0 16 11 27t26 11q25 0 25 -22q0 -16 -11 -27t-27 -11zM143 -250q-13 0 -20 8.5t-4 21.5q1 4 57.5 223.5t79.5 326.5h20q-22 -105 -58 -321.5t-39 -228.5q-7 -30 -36 -30z" />
    <glyph glyph-name="cent" unicode="&#xa2;" horiz-adv-x="500" 
d="M393 510q68 -1 107.5 -32t39.5 -70q0 -38 -31 -38q-21 0 -21 19q0 3 1.5 11t1.5 13q0 31 -23.5 53.5t-78.5 23.5l-101 -475q53 1 94 20.5t84 67.5l13 -13q-76 -97 -196 -100l-17 -80h-25l17 80q-82 5 -122.5 55t-40.5 129q0 129 78 228t195 107l17 81h25zM144 173
q0 -68 31 -109.5t88 -47.5l101 473q-95 -11 -157.5 -108t-62.5 -208z" />
    <glyph glyph-name="sterling" unicode="&#xa3;" horiz-adv-x="550" 
d="M595 680h20l-36 -165h-20q12 69 -29 109.5t-111 40.5q-79 0 -125.5 -43t-46.5 -120q0 -35 22 -132h210l-7 -30h-196q7 -39 7 -67q0 -50 -20.5 -91t-49 -68t-79.5 -64h222q62 0 89 15t38 69l7 31h25l-35 -165h-430l5 25q47 33 63.5 45t47.5 38t42 43t21 43t10 55
q0 39 -14 91h-103l7 30h88q-19 68 -19 112q0 92 66.5 150t160.5 58q42 0 74.5 -11t50.5 -22.5t26 -11.5q11 0 14 15z" />
    <glyph glyph-name="currency" unicode="&#xa4;" horiz-adv-x="790" 
d="M845 680h20l-36 -165h-20q16 74 -35.5 112t-162.5 38q-105 0 -188 -60.5t-128 -159.5h200l-7 -30h-206q-23 -63 -29 -130h208l-7 -30h-203v-11q0 -108 59 -168.5t163 -60.5q109 0 178.5 40t83.5 110h20l-35 -165h-20l6 30q3 15 -7 15q-6 0 -34.5 -13.5t-80.5 -27.5
t-116 -14q-123 0 -194.5 70.5t-71.5 189.5v5h-98l7 30h92q6 69 30 130h-95l7 30h101q52 110 151.5 177.5t219.5 67.5q64 0 110 -14t68.5 -27.5t28.5 -13.5q11 0 14 15z" />
    <glyph glyph-name="yen" unicode="&#xa5;" horiz-adv-x="650" 
d="M590 680h195l-5 -20h-25q-44 0 -67 -30l-273 -350h125l-7 -30h-129l-43 -200q-5 -20 -0.5 -25t23.5 -5h40l-4 -20h-190l4 20h40q20 0 26.5 5.5t10.5 24.5l42 200h-130l7 30h121l-116 350q-6 18 -15.5 24t-29.5 6h-40l5 20h227l-5 -20h-68q-21 0 -24.5 -8t3.5 -22
l109 -338l262 335q15 20 12.5 26.5t-20.5 6.5h-66z" />
    <glyph glyph-name="brokenbar" unicode="&#xa6;" horiz-adv-x="185" 
d="M273 790l-81 -380h-25l81 380h25zM167 290l-81 -380h-25l81 380h25z" />
    <glyph glyph-name="section" unicode="&#xa7;" 
d="M604 770h20l-36 -165h-20q15 69 -28.5 109.5t-111.5 40.5q-76 0 -123.5 -39t-47.5 -104q0 -40 30.5 -71t73.5 -52.5l86 -43t73.5 -54.5t30.5 -76q0 -72 -69 -129q29 -35 29 -81q0 -82 -64.5 -133.5t-156.5 -51.5q-42 0 -76 11t-53 22.5t-27 11.5q-11 0 -14 -15l-5 -20
h-20l36 165h20q-15 -69 28.5 -109.5t111.5 -40.5q76 0 123.5 39t47.5 104q0 40 -30.5 71t-73.5 52.5l-86 43t-73.5 54.5t-30.5 76q0 72 69 129q-29 35 -29 81q0 82 64.5 133.5t156.5 51.5q42 0 76 -11t53 -22.5t27 -11.5q11 0 14 15zM503 303q0 42 -42 72.5t-109 61.5
t-97 59q-39 -51 -39 -99q0 -42 42 -72.5t109 -61.5t97 -59q39 51 39 99z" />
    <glyph glyph-name="dieresis" unicode="&#xa8;" horiz-adv-x="350" 
d="M233 650q13 0 21 -8t8 -20q0 -16 -14 -29t-30 -13q-13 0 -20.5 8t-7.5 20q0 16 13.5 29t29.5 13zM393 650q13 0 21 -8t8 -20q0 -16 -14 -29t-30 -13q-13 0 -20.5 8t-7.5 20q0 16 13.5 29t29.5 13z" />
    <glyph glyph-name="copyright" unicode="&#xa9;" horiz-adv-x="800" 
d="M398 -10q-125 0 -204.5 78.5t-79.5 198.5q0 107 62 205.5t162.5 158t208.5 59.5q125 0 204 -78.5t79 -198.5q0 -107 -61.5 -205.5t-162 -158t-208.5 -59.5zM403 15q100 0 193 55t150.5 146.5t57.5 190.5q0 111 -73.5 184.5t-189.5 73.5q-100 0 -193 -55t-150.5 -146.5
t-57.5 -190.5q0 -111 73.5 -184.5t189.5 -73.5zM431 130q-75 0 -119 42.5t-44 114.5q0 106 73.5 184.5t178.5 78.5q35 0 61.5 -7.5t40 -15t17.5 -7.5q6 0 8 9l4 15h15l-22 -102h-15q11 46 -19 68.5t-89 22.5q-90 0 -146.5 -77.5t-56.5 -177.5q0 -62 32 -96t89 -34
q59 0 98 23t49 67h15l-22 -102h-15l3 15q2 9 -5 9q-4 0 -20.5 -7.5t-46 -15t-64.5 -7.5z" />
    <glyph glyph-name="ordfeminine" unicode="&#xaa;" horiz-adv-x="450" 
d="M242 326q-50 0 -77 31t-27 88q0 96 50.5 170.5t130.5 74.5q37 0 63 -22.5t33 -68.5l43 84h24l-63 -295q-8 -38 14 -38q24 0 34 39h16q-14 -63 -70 -63t-44 58l7 33q-51 -91 -134 -91zM254 346q61 0 104.5 71.5t43.5 147.5q0 49 -21.5 77t-57.5 28q-62 0 -99.5 -74.5
t-37.5 -160.5q0 -89 68 -89zM102 245l6 30h350l-6 -30h-350z" />
    <glyph glyph-name="guillemotleft" unicode="&#xab;" 
d="M308 60q-46 74 -96 113.5t-120 71.5l6 30q85 32 151.5 71.5t143.5 113.5l12 -15q-47 -61 -101.5 -103.5t-126.5 -81.5q112 -77 149 -185zM528 60q-46 74 -96 113.5t-120 71.5l6 30q85 32 151.5 71.5t143.5 113.5l12 -15q-47 -61 -101.5 -103.5t-126.5 -81.5
q112 -77 149 -185z" />
    <glyph glyph-name="logicalnot" unicode="&#xac;" horiz-adv-x="490" 
d="M506 310l-43 -200h-30l37 170h-360l6 30h390z" />
    <glyph glyph-name="uni00AD" unicode="&#xad;" horiz-adv-x="390" 
d="M398 275l-6 -30h-290l6 30h290z" />
    <glyph glyph-name="registered" unicode="&#xae;" horiz-adv-x="800" 
d="M547 690q125 0 204 -78.5t79 -198.5q0 -107 -61.5 -205.5t-162 -158t-208.5 -59.5q-125 0 -204.5 78.5t-79.5 198.5q0 107 62 205.5t162.5 158t208.5 59.5zM403 15q100 0 193 55t150.5 146.5t57.5 190.5q0 111 -73.5 184.5t-189.5 73.5q-100 0 -193 -55t-150.5 -146.5
t-57.5 -190.5q0 -111 73.5 -184.5t189.5 -73.5zM573 236q2 -51 10 -68.5t38 -17.5h22l-3 -15h-47q-40 0 -55.5 21.5t-17.5 75.5q-1 55 -15.5 71t-51.5 16h-73l-32 -151q-3 -12 0.5 -15t13.5 -3h20l-3 -15h-127l3 15h21q11 0 15.5 3.5t6.5 14.5l72 342q3 10 0.5 14t-14.5 4
h-21l3 15h172q121 0 121 -83q0 -51 -31 -86.5t-84 -48.5q55 -20 57 -89zM383 334h77q62 0 92 36t30 99q0 34 -19.5 46.5t-61.5 12.5h-77z" />
    <glyph glyph-name="macron" unicode="&#xaf;" horiz-adv-x="370" 
d="M444 630l-6 -30h-250l6 30h250z" />
    <glyph glyph-name="degree" unicode="&#xb0;" horiz-adv-x="290" 
d="M292 690q39 0 62 -22.5t23 -58.5q0 -53 -39 -91t-91 -38q-39 0 -62 23t-23 59q0 52 39.5 90t90.5 38zM285 660q-37 0 -65 -27t-28 -65q0 -26 16.5 -42t44.5 -16q37 0 65 27t28 65q0 26 -16.5 42t-44.5 16z" />
    <glyph glyph-name="plusminus" unicode="&#xb1;" horiz-adv-x="470" 
d="M316 310h170l-6 -30h-171l-36 -170h-30l36 170h-169l6 30h170l36 170h30zM59 40l6 30h370l-6 -30h-370z" />
    <glyph glyph-name="uni00B2" unicode="&#xb2;" horiz-adv-x="285" 
d="M298 785q45 0 71 -19t26 -54q0 -52 -50 -104t-170 -134h112q29 0 42 7.5t18 30.5l3 13h12l-18 -85h-225l2 13q62 44 94.5 68.5t70 59.5t53.5 66.5t16 64.5q0 26 -14.5 42.5t-43.5 16.5q-58 0 -68 -45q-4 -18 -23 -18q-14 0 -14 13q0 24 32.5 44t73.5 20z" />
    <glyph glyph-name="uni00B3" unicode="&#xb3;" horiz-adv-x="286" 
d="M272 618q97 -9 97 -73q0 -52 -42.5 -81t-104.5 -29q-40 0 -64.5 16t-24.5 36q0 11 6.5 18t16.5 7q15 0 15 -14l-1 -14q0 -35 57 -35q45 0 73.5 27t28.5 68q0 64 -93 64h-23l5 20h23q50 0 83.5 26.5t33.5 68.5q0 48 -61 48q-59 0 -68 -45q-5 -18 -23 -18q-15 0 -15 13
q0 23 33 43.5t73 20.5q98 0 98 -61q0 -46 -36.5 -72.5t-86.5 -33.5z" />
    <glyph glyph-name="acute" unicode="&#xb4;" horiz-adv-x="290" 
d="M353 700q21 0 21 -21q0 -33 -67 -72t-124 -57l-6 20q45 15 70.5 32.5t47.5 51.5q30 46 58 46z" />
    <glyph glyph-name="paragraph" unicode="&#xb6;" horiz-adv-x="640" 
d="M739 700l-6 -25h-66l-138 -650h66l-5 -25h-185q-135 0 -218 69t-83 194q0 184 131 310.5t319 126.5h185zM642 675h-94l-138 -650h94z" />
    <glyph glyph-name="periodcentered" unicode="&#xb7;" horiz-adv-x="180" 
d="M149 279q25 0 25 -23q0 -16 -11 -26.5t-26 -10.5q-25 0 -25 22q0 16 10.5 27t26.5 11z" />
    <glyph glyph-name="cedilla" unicode="&#xb8;" horiz-adv-x="260" 
d="M142 0l-33 -53q31 -3 53 -17.5t22 -42.5q0 -41 -32.5 -69t-84.5 -28q-33 0 -59 12l9 20q24 -12 53 -12q34 0 54 22t20 52q0 47 -67 46l45 70h20z" />
    <glyph glyph-name="uni00B9" unicode="&#xb9;" horiz-adv-x="195" 
d="M118 440l2 13h38q10 0 13.5 2.5t4.5 12.5l57 265q2 10 0 12.5t-12 2.5h-38l3 12q63 0 85 25h13l-68 -317q-2 -10 0 -12.5t12 -2.5h37l-2 -13h-145z" />
    <glyph glyph-name="ordmasculine" unicode="&#xba;" horiz-adv-x="424" 
d="M358 690q65 0 97 -35.5t32 -93.5q0 -97 -58.5 -166t-147.5 -69q-65 0 -97 35.5t-32 94.5q0 95 58.5 164.5t147.5 69.5zM355 674q-70 0 -113 -72t-43 -160q0 -99 85 -99q70 0 113 71.5t43 158.5q0 48 -21.5 74.5t-63.5 26.5zM432 275l-6 -30h-324l6 30h324z" />
    <glyph glyph-name="guillemotright" unicode="&#xbb;" 
d="M68 60l-12 15q81 107 227 185q-56 39 -92 81.5t-56 103.5l18 15q45 -74 95 -113.5t120 -71.5l-6 -30q-85 -32 -151.5 -71.5t-142.5 -113.5zM288 60l-12 15q81 107 227 185q-56 39 -92 81.5t-56 103.5l18 15q45 -74 95 -113.5t120 -71.5l-6 -30q-85 -32 -151.5 -71.5
t-142.5 -113.5z" />
    <glyph glyph-name="onequarter" unicode="&#xbc;" horiz-adv-x="635" 
d="M244 353l-3 -13h-145l3 13h38q10 0 13 2.5t5 12.5l57 265q2 10 0 12.5t-12 2.5h-38l2 12q64 0 86 25h13l-68 -317q-2 -10 0 -12.5t12 -2.5h37zM660 680h30l-575 -680h-30zM617 345h13l-52 -248h52l-3 -14h-52l-12 -55q-2 -10 0 -12.5t12 -2.5h37l-3 -13h-145l3 13h38
q10 0 13 2.5t5 12.5l12 55h-158l3 14zM398 97h140l40 189z" />
    <glyph glyph-name="onehalf" unicode="&#xbd;" horiz-adv-x="680" 
d="M96 340l3 13h38q10 0 13 2.5t5 12.5l57 265q2 10 0 12.5t-12 2.5h-38l2 12q64 0 86 25h13l-68 -317q-2 -10 0 -12.5t12 -2.5h37l-3 -13h-145zM690 680l-575 -680h-30l575 680h30zM599 345q45 0 71.5 -18.5t26.5 -53.5q0 -53 -50 -104t-171 -135h112q29 0 42.5 7.5
t17.5 30.5l3 13h12l-18 -85h-225l3 13q62 44 94 68.5t69.5 59.5t53.5 66.5t16 64.5q0 26 -14.5 42.5t-43.5 16.5q-58 0 -67 -45q-4 -18 -23 -18q-15 0 -15 13q0 23 33 43.5t73 20.5z" />
    <glyph glyph-name="threequarters" unicode="&#xbe;" horiz-adv-x="696" 
d="M348 445q0 -52 -42.5 -81t-104.5 -29q-40 0 -64.5 16t-24.5 36q0 11 6.5 18t16.5 7q15 0 15 -14l-1 -14q0 -35 57 -35q45 0 73.5 27t28.5 68q0 64 -93 64h-23l5 20h23q50 0 83.5 26.5t33.5 68.5q0 48 -61 48q-59 0 -68 -45q-5 -18 -23 -18q-15 0 -15 13q0 23 33 43.5
t73 20.5q98 0 98 -61q0 -46 -36.5 -72.5t-86.5 -33.5q97 -9 97 -73zM721 680h30l-575 -680h-30zM678 345h13l-52 -248h52l-3 -14h-52l-12 -55q-2 -10 0 -12.5t12 -2.5h37l-3 -13h-145l3 13h38q10 0 13 2.5t5 12.5l12 55h-158l3 14zM459 97h140l40 189z" />
    <glyph glyph-name="questiondown" unicode="&#xbf;" horiz-adv-x="495" 
d="M294 450q-24 0 -24 22q0 16 11 27t26 11q25 0 25 -22q0 -16 -11 -27t-27 -11zM106 -250q-79 0 -124.5 36t-45.5 105q0 23 6 52q11 54 45 100.5t75.5 79t82.5 63t73 67t41 77.5h20q-8 -39 -37.5 -77.5t-66.5 -70.5t-74.5 -66.5t-68 -80t-41.5 -95.5q-5 -21 -5 -49
q0 -53 30.5 -84.5t94.5 -31.5q61 0 105.5 23.5t53.5 66.5q5 25 30 25q21 0 21 -19q0 -39 -70.5 -80t-144.5 -41z" />
    <glyph glyph-name="Agrave" unicode="&#xc0;" horiz-adv-x="690" 
d="M549 730q-46 17 -92.5 51t-46.5 64q0 17 10.5 26t22.5 9q8 0 14 -2.5t13 -13t11 -30.5q7 -34 25 -51.5t57 -32.5zM651 20h33l-4 -20h-195l4 20h51q16 0 20.5 6.5t1.5 23.5l-32 168h-309l-96 -166q-18 -32 8 -32h56l-4 -20h-175l4 20h34q20 0 28 5t20 25l372 635h25
l119 -635q4 -19 11.5 -24.5t27.5 -5.5zM236 243h290l-71 377z" />
    <glyph glyph-name="Aacute" unicode="&#xc1;" horiz-adv-x="690" 
d="M664 859q0 -33 -67 -72t-124 -57l-6 20q45 15 70.5 32.5t47.5 51.5q30 46 58 46q21 0 21 -21zM651 20h33l-4 -20h-195l4 20h51q16 0 20.5 6.5t1.5 23.5l-32 168h-309l-96 -166q-18 -32 8 -32h56l-4 -20h-175l4 20h34q20 0 28 5t20 25l372 635h25l119 -635
q4 -19 11.5 -24.5t27.5 -5.5zM236 243h290l-71 377z" />
    <glyph glyph-name="Acircumflex" unicode="&#xc2;" horiz-adv-x="690" 
d="M521 825q-87 -66 -164 -97l-6 20q42 20 93.5 61t77.5 71h23q13 -31 46.5 -71.5t67.5 -60.5l-16 -20q-59 29 -122 97zM651 20h33l-4 -20h-195l4 20h51q16 0 20.5 6.5t1.5 23.5l-32 168h-309l-96 -166q-18 -32 8 -32h56l-4 -20h-175l4 20h34q20 0 28 5t20 25l372 635h25
l119 -635q4 -19 11.5 -24.5t27.5 -5.5zM236 243h290l-71 377z" />
    <glyph glyph-name="Atilde" unicode="&#xc3;" horiz-adv-x="690" 
d="M438 806q-38 0 -49 -46h-22q9 41 33 63.5t58 22.5q26 0 69.5 -23t67.5 -23q38 0 49 46h22q-9 -41 -32.5 -63.5t-54.5 -22.5q-25 0 -71.5 23t-69.5 23zM651 20h33l-4 -20h-195l4 20h51q16 0 20.5 6.5t1.5 23.5l-32 168h-309l-96 -166q-18 -32 8 -32h56l-4 -20h-175l4 20
h34q20 0 28 5t20 25l372 635h25l119 -635q4 -19 11.5 -24.5t27.5 -5.5zM236 243h290l-71 377z" />
    <glyph glyph-name="Adieresis" unicode="&#xc4;" horiz-adv-x="690" 
d="M427 760q-13 0 -20.5 8t-7.5 20q0 16 13.5 29t29.5 13q13 0 21 -8t8 -20q0 -16 -14 -29t-30 -13zM587 760q-13 0 -20.5 8t-7.5 20q0 16 13.5 29t29.5 13q13 0 21 -8t8 -20q0 -16 -14 -29t-30 -13zM651 20h33l-4 -20h-195l4 20h51q16 0 20.5 6.5t1.5 23.5l-32 168h-309
l-96 -166q-18 -32 8 -32h56l-4 -20h-175l4 20h34q20 0 28 5t20 25l372 635h25l119 -635q4 -19 11.5 -24.5t27.5 -5.5zM236 243h290l-71 377z" />
    <glyph glyph-name="Aring" unicode="&#xc5;" horiz-adv-x="690" 
d="M504 745q-41 0 -65.5 23.5t-24.5 62.5q0 52 41.5 93t95.5 41q40 0 64.5 -23.5t24.5 -60.5q0 -56 -41 -96t-95 -40zM545 939q-44 0 -74 -31t-30 -73q0 -29 18.5 -46.5t50.5 -17.5q43 0 73 30t30 75q0 29 -18 46t-50 17zM651 20h33l-4 -20h-195l4 20h51q16 0 20.5 6.5
t1.5 23.5l-32 168h-309l-96 -166q-18 -32 8 -32h56l-4 -20h-175l4 20h34q20 0 28 5t20 25l372 635h25l119 -635q4 -19 11.5 -24.5t27.5 -5.5zM236 243h290l-71 377z" />
    <glyph glyph-name="AE" unicode="&#xc6;" horiz-adv-x="960" 
d="M1035 680l-35 -164h-20l6 30q13 60 -1.5 87t-68.5 27h-236q-20 0 -26 -5.5t-10 -24.5l-57 -270h166q55 0 78.5 18t32.5 62l6 30h20l-51 -240h-20l6 30q9 44 -6.5 62t-70.5 18h-165l-62 -290q-5 -20 -0.5 -25t23.5 -5h246q54 0 79.5 27t38.5 87l7 30h20l-35 -164h-510
l4 20h40q20 0 26.5 5.5t10.5 24.5l36 168h-247l-132 -166q-11 -15 -8.5 -23.5t16.5 -8.5h53l-4 -20h-175l4 20h34h10t8 1.5t5.5 2t5.5 4t5 5.5t6 8t8 9l501 630h438zM280 243h232l85 399z" />
    <glyph glyph-name="Ccedilla" unicode="&#xc7;" horiz-adv-x="720" 
d="M775 680h20l-36 -165h-20q16 74 -35.5 112t-162.5 38q-104 0 -187.5 -60.5t-128 -156t-44.5 -204.5q0 -108 59 -168.5t163 -60.5q109 0 178.5 40t83.5 110h20l-35 -165h-20l6 30q3 15 -7 15q-6 0 -34 -13.5t-78 -27t-112 -14.5l-27 -43q31 -3 53 -17.5t22 -42.5
q0 -41 -32.5 -69t-84.5 -28q-34 0 -59 12l9 20q24 -12 53 -12q34 0 54 22t20 52q0 47 -67 46l39 60q-117 4 -185 74t-68 186q0 177 121.5 308.5t293.5 131.5q64 0 110 -14t68.5 -27.5t28.5 -13.5q11 0 14 15z" />
    <glyph glyph-name="Egrave" unicode="&#xc8;" horiz-adv-x="620" 
d="M524 730q-46 17 -92.5 51t-46.5 64q0 17 10.5 26t22.5 9q8 0 14 -2.5t13 -13t11 -30.5q7 -34 25 -51.5t57 -32.5zM195 680h500l-35 -164h-20l6 30q13 60 -1.5 87t-68.5 27h-236q-20 0 -26 -5.5t-10 -24.5l-57 -270h166q55 0 78.5 18t32.5 62l6 30h20l-51 -240h-20l6 30
q9 44 -6.5 62t-70.5 18h-165l-62 -290q-5 -20 -0.5 -25t23.5 -5h246q55 0 80 27t38 87l7 30h20l-35 -164h-510l4 20h40q20 0 26.5 5.5t10.5 24.5l123 580q4 20 -0.5 25t-23.5 5h-40z" />
    <glyph glyph-name="Eacute" unicode="&#xc9;" horiz-adv-x="620" 
d="M639 859q0 -33 -67 -72t-124 -57l-6 20q45 15 70.5 32.5t47.5 51.5q30 46 58 46q21 0 21 -21zM195 680h500l-35 -164h-20l6 30q13 60 -1.5 87t-68.5 27h-236q-20 0 -26 -5.5t-10 -24.5l-57 -270h166q55 0 78.5 18t32.5 62l6 30h20l-51 -240h-20l6 30q9 44 -6.5 62
t-70.5 18h-165l-62 -290q-5 -20 -0.5 -25t23.5 -5h246q55 0 80 27t38 87l7 30h20l-35 -164h-510l4 20h40q20 0 26.5 5.5t10.5 24.5l123 580q4 20 -0.5 25t-23.5 5h-40z" />
    <glyph glyph-name="Ecircumflex" unicode="&#xca;" horiz-adv-x="620" 
d="M496 825q-87 -66 -164 -97l-6 20q42 20 93.5 61t77.5 71h23q13 -31 46.5 -71.5t67.5 -60.5l-16 -20q-59 29 -122 97zM195 680h500l-35 -164h-20l6 30q13 60 -1.5 87t-68.5 27h-236q-20 0 -26 -5.5t-10 -24.5l-57 -270h166q55 0 78.5 18t32.5 62l6 30h20l-51 -240h-20
l6 30q9 44 -6.5 62t-70.5 18h-165l-62 -290q-5 -20 -0.5 -25t23.5 -5h246q55 0 80 27t38 87l7 30h20l-35 -164h-510l4 20h40q20 0 26.5 5.5t10.5 24.5l123 580q4 20 -0.5 25t-23.5 5h-40z" />
    <glyph glyph-name="Edieresis" unicode="&#xcb;" horiz-adv-x="620" 
d="M402 760q-13 0 -20.5 8t-7.5 20q0 16 13.5 29t29.5 13q13 0 21 -8t8 -20q0 -16 -14 -29t-30 -13zM562 760q-13 0 -20.5 8t-7.5 20q0 16 13.5 29t29.5 13q13 0 21 -8t8 -20q0 -16 -14 -29t-30 -13zM195 680h500l-35 -164h-20l6 30q13 60 -1.5 87t-68.5 27h-236
q-20 0 -26 -5.5t-10 -24.5l-57 -270h166q55 0 78.5 18t32.5 62l6 30h20l-51 -240h-20l6 30q9 44 -6.5 62t-70.5 18h-165l-62 -290q-5 -20 -0.5 -25t23.5 -5h246q55 0 80 27t38 87l7 30h20l-35 -164h-510l4 20h40q20 0 26.5 5.5t10.5 24.5l123 580q4 20 -0.5 25t-23.5 5h-40z
" />
    <glyph glyph-name="Igrave" unicode="&#xcc;" horiz-adv-x="290" 
d="M243 880q8 0 14 -2.5t13 -13t11 -30.5q7 -34 25 -51.5t57 -32.5l-14 -20q-46 17 -92.5 51t-46.5 64q0 17 10.5 26t22.5 9zM385 680l-5 -20h-40q-20 0 -26 -5.5t-10 -24.5l-123 -580q-5 -20 -0.5 -25t23.5 -5h40l-4 -20h-190l4 20h40q20 0 26.5 5.5t10.5 24.5l123 580
q4 20 -0.5 25t-23.5 5h-40l5 20h190z" />
    <glyph glyph-name="Iacute" unicode="&#xcd;" horiz-adv-x="290" 
d="M443 880q21 0 21 -21q0 -33 -67 -72t-124 -57l-6 20q45 15 70.5 32.5t47.5 51.5q30 46 58 46zM385 680l-5 -20h-40q-20 0 -26 -5.5t-10 -24.5l-123 -580q-5 -20 -0.5 -25t23.5 -5h40l-4 -20h-190l4 20h40q20 0 26.5 5.5t10.5 24.5l123 580q4 20 -0.5 25t-23.5 5h-40l5 20
h190z" />
    <glyph glyph-name="Icircumflex" unicode="&#xce;" horiz-adv-x="290" 
d="M443 728q-59 29 -122 97q-87 -66 -164 -97l-6 20q42 20 93.5 61t77.5 71h23q13 -31 46.5 -71.5t67.5 -60.5zM385 680l-5 -20h-40q-20 0 -26 -5.5t-10 -24.5l-123 -580q-5 -20 -0.5 -25t23.5 -5h40l-4 -20h-190l4 20h40q20 0 26.5 5.5t10.5 24.5l123 580q4 20 -0.5 25
t-23.5 5h-40l5 20h190z" />
    <glyph glyph-name="Idieresis" unicode="&#xcf;" horiz-adv-x="290" 
d="M242 830q13 0 21 -8t8 -20q0 -16 -14 -29t-30 -13q-13 0 -20.5 8t-7.5 20q0 16 13.5 29t29.5 13zM402 830q13 0 21 -8t8 -20q0 -16 -14 -29t-30 -13q-13 0 -20.5 8t-7.5 20q0 16 13.5 29t29.5 13zM385 680l-5 -20h-40q-20 0 -26 -5.5t-10 -24.5l-123 -580
q-5 -20 -0.5 -25t23.5 -5h40l-4 -20h-190l4 20h40q20 0 26.5 5.5t10.5 24.5l123 580q4 20 -0.5 25t-23.5 5h-40l5 20h190z" />
    <glyph glyph-name="Eth" unicode="&#xd0;" horiz-adv-x="750" 
d="M475 680q127 0 206.5 -70t79.5 -190q0 -172 -127.5 -296t-303.5 -124h-280l4 20h40q20 0 26.5 5.5t10.5 24.5l60 285h-70l6 30h71l56 265q4 20 -0.5 25t-23.5 5h-40l5 20h280zM334 20q106 0 193.5 57t135.5 149.5t48 198.5q0 110 -66.5 172.5t-174.5 62.5h-130
q-20 0 -26 -5.5t-10 -24.5l-56 -265h169l-6 -30h-170l-60 -285q-5 -20 -0.5 -25t23.5 -5h130z" />
    <glyph glyph-name="Ntilde" unicode="&#xd1;" horiz-adv-x="745" 
d="M694 846q-9 -41 -32.5 -63.5t-54.5 -22.5q-25 0 -71.5 23t-69.5 23q-38 0 -49 -46h-22q9 41 33 63.5t58 22.5q26 0 69.5 -23t67.5 -23q38 0 49 46h22zM845 680l-5 -20l-36 -1q-20 -1 -26 -6t-10 -24l-134 -629h-25l-340 630l-123 -580q-5 -20 -0.5 -25t23.5 -5h40l-4 -20
h-155l4 20h30q20 0 26.5 5.5t10.5 24.5l123 580q4 20 -0.5 25t-23.5 5h-30l5 20h107l324 -607l117 557q4 20 -0.5 25t-23.5 5h-36l5 20h157z" />
    <glyph glyph-name="Ograve" unicode="&#xd2;" horiz-adv-x="780" 
d="M488 880q8 0 14 -2.5t13 -13t11 -30.5q7 -34 25 -51.5t57 -32.5l-14 -20q-46 17 -92.5 51t-46.5 64q0 17 10.5 26t22.5 9zM537 690q120 0 188 -68.5t68 -185.5t-52 -219.5t-146 -164.5t-207 -62q-121 0 -188.5 68.5t-67.5 186.5q0 117 52 219t146 164t207 62zM531 665
q-103 0 -185 -62t-124 -159t-42 -207q0 -105 55.5 -163.5t157.5 -58.5q103 0 185 62t124 159t42 207q0 105 -55.5 163.5t-157.5 58.5z" />
    <glyph glyph-name="Oacute" unicode="&#xd3;" horiz-adv-x="780" 
d="M688 880q21 0 21 -21q0 -33 -67 -72t-124 -57l-6 20q45 15 70.5 32.5t47.5 51.5q30 46 58 46zM537 690q120 0 188 -68.5t68 -185.5t-52 -219.5t-146 -164.5t-207 -62q-121 0 -188.5 68.5t-67.5 186.5q0 117 52 219t146 164t207 62zM531 665q-103 0 -185 -62t-124 -159
t-42 -207q0 -105 55.5 -163.5t157.5 -58.5q103 0 185 62t124 159t42 207q0 105 -55.5 163.5t-157.5 58.5z" />
    <glyph glyph-name="Ocircumflex" unicode="&#xd4;" horiz-adv-x="780" 
d="M688 728q-59 29 -122 97q-87 -66 -164 -97l-6 20q42 20 93.5 61t77.5 71h23q13 -31 46.5 -71.5t67.5 -60.5zM537 690q120 0 188 -68.5t68 -185.5t-52 -219.5t-146 -164.5t-207 -62q-121 0 -188.5 68.5t-67.5 186.5q0 117 52 219t146 164t207 62zM531 665q-103 0 -185 -62
t-124 -159t-42 -207q0 -105 55.5 -163.5t157.5 -58.5q103 0 185 62t124 159t42 207q0 105 -55.5 163.5t-157.5 58.5z" />
    <glyph glyph-name="Otilde" unicode="&#xd5;" horiz-adv-x="780" 
d="M711 846q-9 -41 -32.5 -63.5t-54.5 -22.5q-25 0 -71.5 23t-69.5 23q-38 0 -49 -46h-22q9 41 33 63.5t58 22.5q26 0 69.5 -23t67.5 -23q38 0 49 46h22zM537 690q120 0 188 -68.5t68 -185.5t-52 -219.5t-146 -164.5t-207 -62q-121 0 -188.5 68.5t-67.5 186.5q0 117 52 219
t146 164t207 62zM531 665q-103 0 -185 -62t-124 -159t-42 -207q0 -105 55.5 -163.5t157.5 -58.5q103 0 185 62t124 159t42 207q0 105 -55.5 163.5t-157.5 58.5z" />
    <glyph glyph-name="Odieresis" unicode="&#xd6;" horiz-adv-x="780" 
d="M487 830q13 0 21 -8t8 -20q0 -16 -14 -29t-30 -13q-13 0 -20.5 8t-7.5 20q0 16 13.5 29t29.5 13zM647 830q13 0 21 -8t8 -20q0 -16 -14 -29t-30 -13q-13 0 -20.5 8t-7.5 20q0 16 13.5 29t29.5 13zM537 690q120 0 188 -68.5t68 -185.5t-52 -219.5t-146 -164.5t-207 -62
q-121 0 -188.5 68.5t-67.5 186.5q0 117 52 219t146 164t207 62zM531 665q-103 0 -185 -62t-124 -159t-42 -207q0 -105 55.5 -163.5t157.5 -58.5q103 0 185 62t124 159t42 207q0 105 -55.5 163.5t-157.5 58.5z" />
    <glyph glyph-name="multiply" unicode="&#xd7;" horiz-adv-x="412" 
d="M453 429l-166 -137l106 -134l-23 -19l-106 134l-162 -134l-18 22l163 134l-106 134l24 19l105 -134l166 137z" />
    <glyph glyph-name="Oslash" unicode="&#xd8;" horiz-adv-x="780" 
d="M715 632q78 -70 78 -196q0 -117 -52 -219.5t-146 -164.5t-207 -62q-95 0 -159 44l-36 -44h-30l48 58q-79 70 -79 197q0 117 52 219t146 164t207 62q95 0 159 -44l36 44h30zM180 237q0 -103 53 -161l442 543q-55 46 -144 46q-103 0 -185 -62t-124 -159t-42 -207zM393 15
q103 0 185 62t124 159t42 207q0 102 -52 160l-442 -543q54 -45 143 -45z" />
    <glyph glyph-name="Ugrave" unicode="&#xd9;" horiz-adv-x="740" 
d="M468 880q8 0 14 -2.5t13 -13t11 -30.5q7 -34 25 -51.5t57 -32.5l-14 -20q-46 17 -92.5 51t-46.5 64q0 17 10.5 26t22.5 9zM840 680l-5 -20h-36q-20 0 -26 -5.5t-10 -24.5l-86 -405q-25 -116 -110 -175.5t-189 -59.5q-109 0 -164.5 45.5t-55.5 132.5q0 37 8 72l83 390
q4 20 -0.5 25t-23.5 5h-40l5 20h190l-5 -20h-40q-20 0 -26 -5.5t-10 -24.5l-86 -405q-8 -40 -8 -67q0 -143 178 -143q97 0 172 53.5t97 156.5l86 405q4 20 -0.5 25t-23.5 5h-36l5 20h157z" />
    <glyph glyph-name="Uacute" unicode="&#xda;" horiz-adv-x="740" 
d="M668 880q21 0 21 -21q0 -33 -67 -72t-124 -57l-6 20q45 15 70.5 32.5t47.5 51.5q30 46 58 46zM840 680l-5 -20h-36q-20 0 -26 -5.5t-10 -24.5l-86 -405q-25 -116 -110 -175.5t-189 -59.5q-109 0 -164.5 45.5t-55.5 132.5q0 37 8 72l83 390q4 20 -0.5 25t-23.5 5h-40l5 20
h190l-5 -20h-40q-20 0 -26 -5.5t-10 -24.5l-86 -405q-8 -40 -8 -67q0 -143 178 -143q97 0 172 53.5t97 156.5l86 405q4 20 -0.5 25t-23.5 5h-36l5 20h157z" />
    <glyph glyph-name="Ucircumflex" unicode="&#xdb;" horiz-adv-x="740" 
d="M668 728q-59 29 -122 97q-87 -66 -164 -97l-6 20q42 20 93.5 61t77.5 71h23q13 -31 46.5 -71.5t67.5 -60.5zM840 680l-5 -20h-36q-20 0 -26 -5.5t-10 -24.5l-86 -405q-25 -116 -110 -175.5t-189 -59.5q-109 0 -164.5 45.5t-55.5 132.5q0 37 8 72l83 390q4 20 -0.5 25
t-23.5 5h-40l5 20h190l-5 -20h-40q-20 0 -26 -5.5t-10 -24.5l-86 -405q-8 -40 -8 -67q0 -143 178 -143q97 0 172 53.5t97 156.5l86 405q4 20 -0.5 25t-23.5 5h-36l5 20h157z" />
    <glyph glyph-name="Udieresis" unicode="&#xdc;" horiz-adv-x="740" 
d="M467 830q13 0 21 -8t8 -20q0 -16 -14 -29t-30 -13q-13 0 -20.5 8t-7.5 20q0 16 13.5 29t29.5 13zM627 830q13 0 21 -8t8 -20q0 -16 -14 -29t-30 -13q-13 0 -20.5 8t-7.5 20q0 16 13.5 29t29.5 13zM840 680l-5 -20h-36q-20 0 -26 -5.5t-10 -24.5l-86 -405
q-25 -116 -110 -175.5t-189 -59.5q-109 0 -164.5 45.5t-55.5 132.5q0 37 8 72l83 390q4 20 -0.5 25t-23.5 5h-40l5 20h190l-5 -20h-40q-20 0 -26 -5.5t-10 -24.5l-86 -405q-8 -40 -8 -67q0 -143 178 -143q97 0 172 53.5t97 156.5l86 405q4 20 -0.5 25t-23.5 5h-36l5 20h157z
" />
    <glyph glyph-name="Yacute" unicode="&#xdd;" horiz-adv-x="650" 
d="M636 880q21 0 21 -21q0 -33 -67 -72t-124 -57l-6 20q45 15 70.5 32.5t47.5 51.5q30 46 58 46zM785 680l-5 -20h-25q-44 0 -67 -30l-280 -359l-47 -221q-5 -20 -0.5 -25t23.5 -5h40l-4 -20h-190l4 20h40q20 0 26.5 5.5t10.5 24.5l45 214l-121 366q-6 18 -15.5 24t-29.5 6
h-40l5 20h227l-5 -20h-68q-21 0 -24.5 -8t3.5 -22l109 -338l262 335q15 20 12.5 26.5t-20.5 6.5h-66l5 20h195z" />
    <glyph glyph-name="Thorn" unicode="&#xde;" horiz-adv-x="590" 
d="M50 0l4 20h40q20 0 26.5 5.5t10.5 24.5l123 580q4 20 -0.5 25t-23.5 5h-40l5 20h190l-5 -20h-40q-20 0 -26 -5.5t-10 -24.5l-19 -90h145q95 0 142 -39t47 -106q0 -110 -77 -180t-196 -70h-145l-20 -95q-5 -20 -0.5 -25t23.5 -5h40l-4 -20h-190zM205 165h145
q107 0 164 66.5t57 176.5q0 60 -36 86t-109 26h-145z" />
    <glyph glyph-name="germandbls" unicode="&#xdf;" horiz-adv-x="545" 
d="M254 536l-128 -600q-14 -69 -51.5 -107.5t-89.5 -38.5q-31 0 -50 12.5t-19 33.5q0 16 9.5 27.5t23.5 11.5q20 0 20 -19q0 -5 -3.5 -15t-3.5 -15q0 -16 28 -16q60 0 82 104l120 566h-70l4 20h70l3 14q20 92 80 144t137 52q59 0 97 -25.5t38 -75.5q0 -40 -18.5 -71.5
t-45.5 -52t-54 -38t-45.5 -38t-18.5 -43.5q0 -21 17 -41t41.5 -37t49.5 -35.5t42 -45t17 -57.5q0 -71 -49.5 -115.5t-123.5 -44.5q-64 0 -102 30.5t-38 68.5q0 19 9 30t23 11q21 0 21 -23q0 -4 -2 -14t-2 -18q0 -31 24.5 -48t70.5 -17q51 0 85.5 36.5t34.5 88.5
q0 29 -17 52.5t-41 40t-48 32t-41 35t-17 42.5q0 29 18.5 55t45 47.5t53 44.5t45 58t18.5 78q0 70 -91 70q-125 0 -158 -154z" />
    <glyph glyph-name="agrave" unicode="&#xe0;" 
d="M323 700q8 0 14 -2.5t13 -13t11 -30.5q7 -34 25 -51.5t57 -32.5l-14 -20q-46 17 -92.5 51t-46.5 64q0 17 10.5 26t22.5 9zM496 15q15 0 29 14t21 44h20q-11 -47 -37 -65t-51 -18q-70 0 -53 80l11 54q-39 -67 -89 -100.5t-104 -33.5q-74 0 -112 45t-38 125q0 138 72.5 244
t187.5 106q54 0 90 -33.5t47 -100.5l56 124h20l-91 -429q-12 -56 21 -56zM247 10q62 0 115.5 51t82 124.5t28.5 145.5q0 73 -33.5 116t-90.5 43q-63 0 -112.5 -54.5t-72.5 -131.5t-23 -157q0 -137 106 -137z" />
    <glyph glyph-name="aacute" unicode="&#xe1;" 
d="M523 700q21 0 21 -21q0 -33 -67 -72t-124 -57l-6 20q45 15 70.5 32.5t47.5 51.5q30 46 58 46zM496 15q15 0 29 14t21 44h20q-11 -47 -37 -65t-51 -18q-70 0 -53 80l11 54q-39 -67 -89 -100.5t-104 -33.5q-74 0 -112 45t-38 125q0 138 72.5 244t187.5 106q54 0 90 -33.5
t47 -100.5l56 124h20l-91 -429q-12 -56 21 -56zM247 10q62 0 115.5 51t82 124.5t28.5 145.5q0 73 -33.5 116t-90.5 43q-63 0 -112.5 -54.5t-72.5 -131.5t-23 -157q0 -137 106 -137z" />
    <glyph glyph-name="acircumflex" unicode="&#xe2;" 
d="M523 548q-59 29 -122 97q-87 -66 -164 -97l-6 20q42 20 93.5 61t77.5 71h23q13 -31 46.5 -71.5t67.5 -60.5zM496 15q15 0 29 14t21 44h20q-11 -47 -37 -65t-51 -18q-70 0 -53 80l11 54q-39 -67 -89 -100.5t-104 -33.5q-74 0 -112 45t-38 125q0 138 72.5 244t187.5 106
q54 0 90 -33.5t47 -100.5l56 124h20l-91 -429q-12 -56 21 -56zM247 10q62 0 115.5 51t82 124.5t28.5 145.5q0 73 -33.5 116t-90.5 43q-63 0 -112.5 -54.5t-72.5 -131.5t-23 -157q0 -137 106 -137z" />
    <glyph glyph-name="atilde" unicode="&#xe3;" 
d="M546 666q-9 -41 -32.5 -63.5t-54.5 -22.5q-25 0 -71.5 23t-69.5 23q-38 0 -49 -46h-22q9 41 33 63.5t58 22.5q26 0 69.5 -23t67.5 -23q38 0 49 46h22zM496 15q15 0 29 14t21 44h20q-11 -47 -37 -65t-51 -18q-70 0 -53 80l11 54q-39 -67 -89 -100.5t-104 -33.5
q-74 0 -112 45t-38 125q0 138 72.5 244t187.5 106q54 0 90 -33.5t47 -100.5l56 124h20l-91 -429q-12 -56 21 -56zM247 10q62 0 115.5 51t82 124.5t28.5 145.5q0 73 -33.5 116t-90.5 43q-63 0 -112.5 -54.5t-72.5 -131.5t-23 -157q0 -137 106 -137z" />
    <glyph glyph-name="adieresis" unicode="&#xe4;" 
d="M322 650q13 0 21 -8t8 -20q0 -16 -14 -29t-30 -13q-13 0 -20.5 8t-7.5 20q0 16 13.5 29t29.5 13zM482 650q13 0 21 -8t8 -20q0 -16 -14 -29t-30 -13q-13 0 -20.5 8t-7.5 20q0 16 13.5 29t29.5 13zM496 15q15 0 29 14t21 44h20q-11 -47 -37 -65t-51 -18q-70 0 -53 80
l11 54q-39 -67 -89 -100.5t-104 -33.5q-74 0 -112 45t-38 125q0 138 72.5 244t187.5 106q54 0 90 -33.5t47 -100.5l56 124h20l-91 -429q-12 -56 21 -56zM247 10q62 0 115.5 51t82 124.5t28.5 145.5q0 73 -33.5 116t-90.5 43q-63 0 -112.5 -54.5t-72.5 -131.5t-23 -157
q0 -137 106 -137z" />
    <glyph glyph-name="aring" unicode="&#xe5;" 
d="M431 785q40 0 64.5 -23.5t24.5 -60.5q0 -56 -41 -96t-95 -40q-41 0 -65.5 23.5t-24.5 62.5q0 52 41.5 93t95.5 41zM425 759q-44 0 -74 -31t-30 -73q0 -29 18.5 -46.5t50.5 -17.5q43 0 73 30t30 75q0 29 -18 46t-50 17zM496 15q15 0 29 14t21 44h20q-11 -47 -37 -65
t-51 -18q-70 0 -53 80l11 54q-39 -67 -89 -100.5t-104 -33.5q-74 0 -112 45t-38 125q0 138 72.5 244t187.5 106q54 0 90 -33.5t47 -100.5l56 124h20l-91 -429q-12 -56 21 -56zM247 10q62 0 115.5 51t82 124.5t28.5 145.5q0 73 -33.5 116t-90.5 43q-63 0 -112.5 -54.5
t-72.5 -131.5t-23 -157q0 -137 106 -137z" />
    <glyph glyph-name="ae" unicode="&#xe6;" horiz-adv-x="867" 
d="M617 220q-38 0 -106 7q-4 -24 -4 -55q0 -74 36 -115.5t102 -41.5q55 0 97 19.5t86 68.5l13 -13q-80 -100 -206 -100q-86 0 -130 46.5t-48 124.5q-85 -171 -214 -171q-74 0 -112 45t-38 125q0 88 32 167t94 131t139 52q117 0 172 -111q84 111 215 111q80 0 113 -35.5
t33 -89.5q0 -27 -11.5 -53t-39 -52.5t-85 -43t-138.5 -16.5zM247 10q67 0 128.5 66t84.5 157q25 98 55 145q-24 52 -60 82t-101 30q-64 0 -114 -54.5t-74.5 -132t-24.5 -156.5q0 -137 106 -137zM741 490q-86 0 -146.5 -70t-80.5 -171q64 -8 104 -8q66 0 113.5 14.5t70 38
t32 46t9.5 47.5q0 103 -102 103z" />
    <glyph glyph-name="ccedilla" unicode="&#xe7;" horiz-adv-x="500" 
d="M387 510q71 0 112 -31t41 -71q0 -38 -31 -38q-21 0 -21 19q0 3 1.5 11t1.5 13q0 32 -25 54.5t-83 22.5q-68 0 -124.5 -49t-85.5 -121.5t-29 -146.5t36.5 -116t102.5 -42q55 0 97 19.5t86 68.5l13 -13q-76 -95 -194 -100l-27 -43q31 -3 53 -17.5t22 -42.5q0 -41 -32.5 -69
t-84.5 -28q-34 0 -59 12l9 20q24 -12 53 -12q34 0 54 22t20 52q0 47 -67 46l39 60q-86 3 -128 53t-42 131q0 135 84 235.5t208 100.5z" />
    <glyph glyph-name="egrave" unicode="&#xe8;" horiz-adv-x="505" 
d="M440 550q-46 17 -92.5 51t-46.5 64q0 17 10.5 26t22.5 9q8 0 14 -2.5t13 -13t11 -30.5q7 -34 25 -51.5t57 -32.5zM255 220q-38 0 -106 7q-4 -24 -4 -55q0 -74 36 -115.5t102 -41.5q55 0 97 19.5t86 68.5l13 -13q-80 -100 -206 -100q-90 0 -134 50.5t-44 133.5
q0 137 82 236.5t206 99.5q80 0 113 -35.5t33 -89.5q0 -27 -11.5 -53t-39 -52.5t-85 -43t-138.5 -16.5zM379 490q-86 0 -146.5 -70t-80.5 -171q64 -8 104 -8q66 0 113.5 14.5t70 38t32 46t9.5 47.5q0 103 -102 103z" />
    <glyph glyph-name="eacute" unicode="&#xe9;" horiz-adv-x="505" 
d="M534 700q21 0 21 -21q0 -33 -67 -72t-124 -57l-6 20q45 15 70.5 32.5t47.5 51.5q30 46 58 46zM383 510q80 0 113 -35.5t33 -89.5q0 -27 -11.5 -53t-39 -52.5t-85 -43t-138.5 -16.5q-38 0 -106 7q-4 -24 -4 -55q0 -74 36 -115.5t102 -41.5q55 0 97 19.5t86 68.5l13 -13
q-80 -100 -206 -100q-90 0 -134 50.5t-44 133.5q0 137 82 236.5t206 99.5zM256 241q66 0 113.5 14.5t70 38t32 46t9.5 47.5q0 103 -102 103q-86 0 -146.5 -70t-80.5 -171q64 -8 104 -8z" />
    <glyph glyph-name="ecircumflex" unicode="&#xea;" horiz-adv-x="505" 
d="M436 700q13 -31 46.5 -71.5t67.5 -60.5l-16 -20q-59 29 -122 97q-87 -66 -164 -97l-6 20q42 20 93.5 61t77.5 71h23zM383 510q80 0 113 -35.5t33 -89.5q0 -27 -11.5 -53t-39 -52.5t-85 -43t-138.5 -16.5q-38 0 -106 7q-4 -24 -4 -55q0 -74 36 -115.5t102 -41.5
q55 0 97 19.5t86 68.5l13 -13q-80 -100 -206 -100q-90 0 -134 50.5t-44 133.5q0 137 82 236.5t206 99.5zM256 241q66 0 113.5 14.5t70 38t32 46t9.5 47.5q0 103 -102 103q-86 0 -146.5 -70t-80.5 -171q64 -8 104 -8z" />
    <glyph glyph-name="edieresis" unicode="&#xeb;" horiz-adv-x="505" 
d="M318 580q-13 0 -20.5 8t-7.5 20q0 16 13.5 29t29.5 13q13 0 21 -8t8 -20q0 -16 -14 -29t-30 -13zM478 580q-13 0 -20.5 8t-7.5 20q0 16 13.5 29t29.5 13q13 0 21 -8t8 -20q0 -16 -14 -29t-30 -13zM255 220q-38 0 -106 7q-4 -24 -4 -55q0 -74 36 -115.5t102 -41.5
q55 0 97 19.5t86 68.5l13 -13q-80 -100 -206 -100q-90 0 -134 50.5t-44 133.5q0 137 82 236.5t206 99.5q80 0 113 -35.5t33 -89.5q0 -27 -11.5 -53t-39 -52.5t-85 -43t-138.5 -16.5zM379 490q-86 0 -146.5 -70t-80.5 -171q64 -8 104 -8q66 0 113.5 14.5t70 38t32 46
t9.5 47.5q0 103 -102 103z" />
    <glyph glyph-name="igrave" unicode="&#xec;" horiz-adv-x="250" 
d="M168 700q8 0 14 -2.5t13 -13t11 -30.5q7 -34 25 -51.5t57 -32.5l-14 -20q-46 17 -92.5 51t-46.5 64q0 17 10.5 26t22.5 9zM226 73h20q-11 -47 -37 -65t-51 -18q-70 0 -53 80l81 380q4 20 -0.5 25t-23.5 5h-44l4 20h124l-91 -429q-12 -56 21 -56q15 0 29 14t21 44z" />
    <glyph glyph-name="iacute" unicode="&#xed;" horiz-adv-x="250" 
d="M368 700q21 0 21 -21q0 -33 -67 -72t-124 -57l-6 20q45 15 70.5 32.5t47.5 51.5q30 46 58 46zM226 73h20q-11 -47 -37 -65t-51 -18q-70 0 -53 80l81 380q4 20 -0.5 25t-23.5 5h-44l4 20h124l-91 -429q-12 -56 21 -56q15 0 29 14t21 44z" />
    <glyph glyph-name="icircumflex" unicode="&#xee;" horiz-adv-x="250" 
d="M368 548q-59 29 -122 97q-87 -66 -164 -97l-6 20q42 20 93.5 61t77.5 71h23q13 -31 46.5 -71.5t67.5 -60.5zM226 73h20q-11 -47 -37 -65t-51 -18q-70 0 -53 80l81 380q4 20 -0.5 25t-23.5 5h-44l4 20h124l-91 -429q-12 -56 21 -56q15 0 29 14t21 44z" />
    <glyph glyph-name="idieresis" unicode="&#xef;" horiz-adv-x="250" 
d="M167 650q13 0 21 -8t8 -20q0 -16 -14 -29t-30 -13q-13 0 -20.5 8t-7.5 20q0 16 13.5 29t29.5 13zM327 650q13 0 21 -8t8 -20q0 -16 -14 -29t-30 -13q-13 0 -20.5 8t-7.5 20q0 16 13.5 29t29.5 13zM226 73h20q-11 -47 -37 -65t-51 -18q-70 0 -53 80l81 380q4 20 -0.5 25
t-23.5 5h-44l4 20h124l-91 -429q-12 -56 21 -56q15 0 29 14t21 44z" />
    <glyph glyph-name="eth" unicode="&#xf0;" horiz-adv-x="550" 
d="M414 749q82 -10 125.5 -76.5t43.5 -180.5q0 -127 -34 -238.5t-107.5 -187.5t-173.5 -76q-90 0 -134 50.5t-44 133.5q0 143 86 239.5t222 96.5q87 0 137 -41q3 133 -32.5 192.5t-107.5 63.5l-111 -140l-19 15l99 124q-86 -6 -148 -83l-17 12q33 46 82 70.5t103 26.5
l92 116l20 -15zM273 15q52 0 93 24t67.5 62.5t46.5 96.5t31 114t19 127q-46 46 -137 46q-114 0 -184 -93t-70 -220q0 -73 34.5 -115t99.5 -42z" />
    <glyph glyph-name="ntilde" unicode="&#xf1;" horiz-adv-x="580" 
d="M577 666q-9 -41 -32.5 -63.5t-54.5 -22.5q-25 0 -71.5 23t-69.5 23q-38 0 -49 -46h-22q9 41 33 63.5t58 22.5q26 0 69.5 -23t67.5 -23q38 0 49 46h22zM566 73h20q-11 -47 -37 -65t-51 -18q-70 0 -53 80l56 265q32 155 -92 155q-165 0 -230 -310l-38 -180h-50l95 450
q4 20 -0.5 25t-23.5 5h-44l4 20h124l-30 -145q37 81 88.5 118t108.5 37q86 0 120.5 -47t17.5 -128l-56 -264q-12 -56 21 -56q15 0 29 14t21 44z" />
    <glyph glyph-name="ograve" unicode="&#xf2;" horiz-adv-x="550" 
d="M334 700q8 0 14 -2.5t13 -13t11 -30.5q7 -34 25 -51.5t57 -32.5l-14 -20q-46 17 -92.5 51t-46.5 64q0 17 10.5 26t22.5 9zM383 510q90 0 134 -50.5t44 -133.5q0 -137 -82 -236.5t-206 -99.5q-90 0 -134 50.5t-44 133.5q0 137 82 236.5t206 99.5zM379 490
q-71 0 -126.5 -50t-82.5 -123.5t-27 -153.5q0 -73 34.5 -113t99.5 -40q71 0 126.5 50t82.5 123t27 153q0 74 -34.5 114t-99.5 40z" />
    <glyph glyph-name="oacute" unicode="&#xf3;" horiz-adv-x="550" 
d="M534 700q21 0 21 -21q0 -33 -67 -72t-124 -57l-6 20q45 15 70.5 32.5t47.5 51.5q30 46 58 46zM383 510q90 0 134 -50.5t44 -133.5q0 -137 -82 -236.5t-206 -99.5q-90 0 -134 50.5t-44 133.5q0 137 82 236.5t206 99.5zM379 490q-71 0 -126.5 -50t-82.5 -123.5t-27 -153.5
q0 -73 34.5 -113t99.5 -40q71 0 126.5 50t82.5 123t27 153q0 74 -34.5 114t-99.5 40z" />
    <glyph glyph-name="ocircumflex" unicode="&#xf4;" horiz-adv-x="550" 
d="M534 548q-59 29 -122 97q-87 -66 -164 -97l-6 20q42 20 93.5 61t77.5 71h23q13 -31 46.5 -71.5t67.5 -60.5zM383 510q90 0 134 -50.5t44 -133.5q0 -137 -82 -236.5t-206 -99.5q-90 0 -134 50.5t-44 133.5q0 137 82 236.5t206 99.5zM379 490q-71 0 -126.5 -50
t-82.5 -123.5t-27 -153.5q0 -73 34.5 -113t99.5 -40q71 0 126.5 50t82.5 123t27 153q0 74 -34.5 114t-99.5 40z" />
    <glyph glyph-name="otilde" unicode="&#xf5;" horiz-adv-x="550" 
d="M557 666q-9 -41 -32.5 -63.5t-54.5 -22.5q-25 0 -71.5 23t-69.5 23q-38 0 -49 -46h-22q9 41 33 63.5t58 22.5q26 0 69.5 -23t67.5 -23q38 0 49 46h22zM383 510q90 0 134 -50.5t44 -133.5q0 -137 -82 -236.5t-206 -99.5q-90 0 -134 50.5t-44 133.5q0 137 82 236.5
t206 99.5zM379 490q-71 0 -126.5 -50t-82.5 -123.5t-27 -153.5q0 -73 34.5 -113t99.5 -40q71 0 126.5 50t82.5 123t27 153q0 74 -34.5 114t-99.5 40z" />
    <glyph glyph-name="odieresis" unicode="&#xf6;" horiz-adv-x="550" 
d="M333 650q13 0 21 -8t8 -20q0 -16 -14 -29t-30 -13q-13 0 -20.5 8t-7.5 20q0 16 13.5 29t29.5 13zM493 650q13 0 21 -8t8 -20q0 -16 -14 -29t-30 -13q-13 0 -20.5 8t-7.5 20q0 16 13.5 29t29.5 13zM383 510q90 0 134 -50.5t44 -133.5q0 -137 -82 -236.5t-206 -99.5
q-90 0 -134 50.5t-44 133.5q0 137 82 236.5t206 99.5zM379 490q-71 0 -126.5 -50t-82.5 -123.5t-27 -153.5q0 -73 34.5 -113t99.5 -40q71 0 126.5 50t82.5 123t27 153q0 74 -34.5 114t-99.5 40z" />
    <glyph glyph-name="divide" unicode="&#xf7;" horiz-adv-x="470" 
d="M331 450q24 0 24 -22q0 -16 -11 -27t-26 -11q-25 0 -25 22q0 16 11 27t27 11zM486 310l-6 -30h-370l6 30h370zM278 200q24 0 24 -22q0 -16 -11 -27t-26 -11q-25 0 -25 22q0 16 11 27t27 11z" />
    <glyph glyph-name="oslash" unicode="&#xf8;" horiz-adv-x="550" 
d="M628 530l-94 -93q27 -47 27 -111q0 -137 -82 -236.5t-206 -99.5q-91 0 -138 55l-76 -75h-30l94 92q-28 46 -28 112q0 137 82 236.5t206 99.5q92 0 138 -56l77 76h30zM143 163q0 -41 10 -71l341 335q-34 63 -115 63q-71 0 -126.5 -50t-82.5 -123.5t-27 -153.5zM513 336
q0 36 -10 71l-341 -335q34 -62 115 -62q71 0 126.5 50t82.5 123t27 153z" />
    <glyph glyph-name="ugrave" unicode="&#xf9;" horiz-adv-x="580" 
d="M334 700q8 0 14 -2.5t13 -13t11 -30.5q7 -34 25 -51.5t57 -32.5l-14 -20q-46 17 -92.5 51t-46.5 64q0 17 10.5 26t22.5 9zM246 500l-70 -335q-32 -155 92 -155q165 0 230 310l38 180h50l-91 -429q-12 -56 21 -56q15 0 29 14t21 44h20q-11 -47 -37 -65t-51 -18
q-70 0 -53 80l16 75q-37 -81 -88.5 -118t-108.5 -37q-86 0 -120.5 47t-17.5 128l60 285q4 20 -0.5 25t-23.5 5h-44l4 20h124z" />
    <glyph glyph-name="uacute" unicode="&#xfa;" horiz-adv-x="580" 
d="M534 700q21 0 21 -21q0 -33 -67 -72t-124 -57l-6 20q45 15 70.5 32.5t47.5 51.5q30 46 58 46zM246 500l-70 -335q-32 -155 92 -155q165 0 230 310l38 180h50l-91 -429q-12 -56 21 -56q15 0 29 14t21 44h20q-11 -47 -37 -65t-51 -18q-70 0 -53 80l16 75
q-37 -81 -88.5 -118t-108.5 -37q-86 0 -120.5 47t-17.5 128l60 285q4 20 -0.5 25t-23.5 5h-44l4 20h124z" />
    <glyph glyph-name="ucircumflex" unicode="&#xfb;" horiz-adv-x="580" 
d="M534 548q-59 29 -122 97q-87 -66 -164 -97l-6 20q42 20 93.5 61t77.5 71h23q13 -31 46.5 -71.5t67.5 -60.5zM246 500l-70 -335q-32 -155 92 -155q165 0 230 310l38 180h50l-91 -429q-12 -56 21 -56q15 0 29 14t21 44h20q-11 -47 -37 -65t-51 -18q-70 0 -53 80l16 75
q-37 -81 -88.5 -118t-108.5 -37q-86 0 -120.5 47t-17.5 128l60 285q4 20 -0.5 25t-23.5 5h-44l4 20h124z" />
    <glyph glyph-name="udieresis" unicode="&#xfc;" horiz-adv-x="580" 
d="M333 650q13 0 21 -8t8 -20q0 -16 -14 -29t-30 -13q-13 0 -20.5 8t-7.5 20q0 16 13.5 29t29.5 13zM493 650q13 0 21 -8t8 -20q0 -16 -14 -29t-30 -13q-13 0 -20.5 8t-7.5 20q0 16 13.5 29t29.5 13zM246 500l-70 -335q-32 -155 92 -155q165 0 230 310l38 180h50l-91 -429
q-12 -56 21 -56q15 0 29 14t21 44h20q-11 -47 -37 -65t-51 -18q-70 0 -53 80l16 75q-37 -81 -88.5 -118t-108.5 -37q-86 0 -120.5 47t-17.5 128l60 285q4 20 -0.5 25t-23.5 5h-44l4 20h124z" />
    <glyph glyph-name="yacute" unicode="&#xfd;" horiz-adv-x="545" 
d="M522 700q21 0 21 -21q0 -33 -67 -72t-124 -57l-6 20q45 15 70.5 32.5t47.5 51.5q30 46 58 46zM489 510q25 0 38 -26t13 -65q0 -63 -51 -171t-122 -208.5t-151.5 -175t-133.5 -74.5q-23 0 -36.5 11.5t-13.5 27.5t8.5 26t22.5 10q21 0 21 -21q0 -5 -4 -13t-4 -12
q0 -9 16 -9q41 0 112.5 73.5t71.5 122.5q0 61 -29 127.5t-58 125t-29 101.5q0 72 71 150l15 -15q-48 -55 -48 -107q0 -33 17 -72.5t37 -72t37 -81.5t17 -99q0 -40 -12 -88q209 285 209 406q0 28 -10 46.5t-20 30.5t-10 23q0 13 8 21t18 8z" />
    <glyph glyph-name="thorn" unicode="&#xfe;" horiz-adv-x="550" 
d="M413 510q74 0 112 -45t38 -125q0 -138 -72.5 -244t-187.5 -106q-54 0 -90 33.5t-47 100.5l-58 -274q-4 -20 0.5 -25t23.5 -5h40l-5 -20h-190l5 20h40q19 0 25 5t11 25l171 800q4 19 -0.5 24.5t-23.5 5.5h-44l4 20h124l-70 -326q76 136 194 136zM515 353q0 137 -106 137
q-63 0 -116 -50.5t-81 -122.5t-28 -143t31 -117.5t92 -46.5q63 0 112.5 54.5t72.5 131.5t23 157z" />
    <glyph glyph-name="ydieresis" unicode="&#xff;" horiz-adv-x="545" 
d="M321 650q13 0 21 -8t8 -20q0 -16 -14 -29t-30 -13q-13 0 -20.5 8t-7.5 20q0 16 13.5 29t29.5 13zM481 650q13 0 21 -8t8 -20q0 -16 -14 -29t-30 -13q-13 0 -20.5 8t-7.5 20q0 16 13.5 29t29.5 13zM489 510q25 0 38 -26t13 -65q0 -63 -51 -171t-122 -208.5t-151.5 -175
t-133.5 -74.5q-23 0 -36.5 11.5t-13.5 27.5t8.5 26t22.5 10q21 0 21 -21q0 -5 -4 -13t-4 -12q0 -9 16 -9q41 0 112.5 73.5t71.5 122.5q0 61 -29 127.5t-58 125t-29 101.5q0 72 71 150l15 -15q-48 -55 -48 -107q0 -33 17 -72.5t37 -72t37 -81.5t17 -99q0 -40 -12 -88
q209 285 209 406q0 28 -10 46.5t-20 30.5t-10 23q0 13 8 21t18 8z" />
    <glyph glyph-name="Amacron" unicode="&#x100;" horiz-adv-x="690" 
d="M643 810l-6 -30h-250l6 30h250zM651 20h33l-4 -20h-195l4 20h51q16 0 20.5 6.5t1.5 23.5l-32 168h-309l-96 -166q-18 -32 8 -32h56l-4 -20h-175l4 20h34q20 0 28 5t20 25l372 635h25l119 -635q4 -19 11.5 -24.5t27.5 -5.5zM236 243h290l-71 377z" />
    <glyph glyph-name="amacron" unicode="&#x101;" 
d="M523 630l-6 -30h-250l6 30h250zM496 15q15 0 29 14t21 44h20q-11 -47 -37 -65t-51 -18q-70 0 -53 80l11 54q-39 -67 -89 -100.5t-104 -33.5q-74 0 -112 45t-38 125q0 138 72.5 244t187.5 106q54 0 90 -33.5t47 -100.5l56 124h20l-91 -429q-12 -56 21 -56zM247 10
q62 0 115.5 51t82 124.5t28.5 145.5q0 73 -33.5 116t-90.5 43q-63 0 -112.5 -54.5t-72.5 -131.5t-23 -157q0 -137 106 -137z" />
    <glyph glyph-name="Abreve" unicode="&#x102;" horiz-adv-x="690" 
d="M500 730q-48 0 -74.5 33t-22.5 100h20q-1 -36 18.5 -59.5t69.5 -23.5q96 0 127 83h20q-25 -67 -67 -100t-91 -33zM651 20h33l-4 -20h-195l4 20h51q16 0 20.5 6.5t1.5 23.5l-32 168h-309l-96 -166q-18 -32 8 -32h56l-4 -20h-175l4 20h34q20 0 28 5t20 25l372 635h25
l119 -635q4 -19 11.5 -24.5t27.5 -5.5zM236 243h290l-71 377z" />
    <glyph glyph-name="abreve" unicode="&#x103;" 
d="M538 683q-25 -67 -67 -100t-91 -33q-48 0 -74.5 33t-22.5 100h20q-1 -36 18.5 -59.5t69.5 -23.5q96 0 127 83h20zM496 15q15 0 29 14t21 44h20q-11 -47 -37 -65t-51 -18q-70 0 -53 80l11 54q-39 -67 -89 -100.5t-104 -33.5q-74 0 -112 45t-38 125q0 138 72.5 244
t187.5 106q54 0 90 -33.5t47 -100.5l56 124h20l-91 -429q-12 -56 21 -56zM247 10q62 0 115.5 51t82 124.5t28.5 145.5q0 73 -33.5 116t-90.5 43q-63 0 -112.5 -54.5t-72.5 -131.5t-23 -157q0 -137 106 -137z" />
    <glyph glyph-name="Aogonek" unicode="&#x104;" horiz-adv-x="690" 
d="M599 0q-38 -29 -65 -65t-27 -64q0 -36 45 -36q34 0 59 17l4 -13q-34 -29 -80 -29q-27 0 -43 13t-16 38q0 70 100 139h-91l4 20h51q16 0 20.5 6.5t1.5 23.5l-32 168h-309l-96 -166q-18 -32 8 -32h56l-4 -20h-175l4 20h34q20 0 28 5t20 25l372 635h25l119 -635
q4 -19 11.5 -24.5t27.5 -5.5h33l-4 -20h-81zM236 243h290l-71 377z" />
    <glyph glyph-name="aogonek" unicode="&#x105;" 
d="M496 15q15 0 29 14t21 44h20q-11 -53 -51 -74q-38 -29 -64.5 -64.5t-26.5 -63.5q0 -36 45 -36q34 0 59 17l4 -13q-34 -29 -80 -29q-26 0 -42.5 13t-16.5 38q0 63 86 129h-1q-70 0 -53 80l11 54q-39 -67 -89 -100.5t-104 -33.5q-74 0 -112 45t-38 125q0 138 72.5 244
t187.5 106q54 0 90 -33.5t47 -100.5l56 124h20l-91 -429q-12 -56 21 -56zM247 10q62 0 115.5 51t82 124.5t28.5 145.5q0 73 -33.5 116t-90.5 43q-63 0 -112.5 -54.5t-72.5 -131.5t-23 -157q0 -137 106 -137z" />
    <glyph glyph-name="Cacute" unicode="&#x106;" horiz-adv-x="720" 
d="M698 880q21 0 21 -21q0 -33 -67 -72t-124 -57l-6 20q45 15 70.5 32.5t47.5 51.5q30 46 58 46zM541 665q-104 0 -187.5 -60.5t-128 -156t-44.5 -204.5q0 -108 59 -168.5t163 -60.5q109 0 178.5 40t83.5 110h20l-35 -165h-20l6 30q3 15 -7 15q-6 0 -34.5 -13.5t-80.5 -27.5
t-116 -14q-123 0 -194.5 70.5t-71.5 189.5q0 177 121.5 308.5t293.5 131.5q64 0 110 -14t68.5 -27.5t28.5 -13.5q11 0 14 15l7 30h20l-36 -165h-20q16 74 -35.5 112t-162.5 38z" />
    <glyph glyph-name="cacute" unicode="&#x107;" horiz-adv-x="500" 
d="M539 700q21 0 21 -21q0 -33 -67 -72t-124 -57l-6 20q45 15 70.5 32.5t47.5 51.5q30 46 58 46zM387 510q71 0 112 -31t41 -71q0 -38 -31 -38q-21 0 -21 19q0 3 1.5 11t1.5 13q0 32 -25 54.5t-83 22.5q-68 0 -124.5 -49t-85.5 -121.5t-29 -146.5t36.5 -116t102.5 -42
q55 0 97 19.5t86 68.5l13 -13q-80 -100 -206 -100q-90 0 -134 50.5t-44 133.5q0 135 84 235.5t208 100.5z" />
    <glyph glyph-name="Cdotaccent" unicode="&#x10a;" horiz-adv-x="720" 
d="M577 830q13 0 21 -8t8 -20q0 -16 -14 -29t-30 -13q-13 0 -20.5 8t-7.5 20q0 16 13.5 29t29.5 13zM541 665q-104 0 -187.5 -60.5t-128 -156t-44.5 -204.5q0 -108 59 -168.5t163 -60.5q109 0 178.5 40t83.5 110h20l-35 -165h-20l6 30q3 15 -7 15q-6 0 -34.5 -13.5
t-80.5 -27.5t-116 -14q-123 0 -194.5 70.5t-71.5 189.5q0 177 121.5 308.5t293.5 131.5q64 0 110 -14t68.5 -27.5t28.5 -13.5q11 0 14 15l7 30h20l-36 -165h-20q16 74 -35.5 112t-162.5 38z" />
    <glyph glyph-name="cdotaccent" unicode="&#x10b;" horiz-adv-x="500" 
d="M418 650q13 0 21 -8t8 -20q0 -16 -14 -29t-30 -13q-13 0 -20.5 8t-7.5 20q0 16 13.5 29t29.5 13zM387 510q71 0 112 -31t41 -71q0 -38 -31 -38q-21 0 -21 19q0 3 1.5 11t1.5 13q0 32 -25 54.5t-83 22.5q-68 0 -124.5 -49t-85.5 -121.5t-29 -146.5t36.5 -116t102.5 -42
q55 0 97 19.5t86 68.5l13 -13q-80 -100 -206 -100q-90 0 -134 50.5t-44 133.5q0 135 84 235.5t208 100.5z" />
    <glyph glyph-name="Ccaron" unicode="&#x10c;" horiz-adv-x="720" 
d="M731 880l7 -20q-43 -20 -93.5 -60.5t-77.5 -71.5h-23q-13 30 -47 71t-67 61l15 20q62 -30 122 -97q91 68 164 97zM541 665q-104 0 -187.5 -60.5t-128 -156t-44.5 -204.5q0 -108 59 -168.5t163 -60.5q109 0 178.5 40t83.5 110h20l-35 -165h-20l6 30q3 15 -7 15
q-6 0 -34.5 -13.5t-80.5 -27.5t-116 -14q-123 0 -194.5 70.5t-71.5 189.5q0 177 121.5 308.5t293.5 131.5q64 0 110 -14t68.5 -27.5t28.5 -13.5q11 0 14 15l7 30h20l-36 -165h-20q16 74 -35.5 112t-162.5 38z" />
    <glyph glyph-name="ccaron" unicode="&#x10d;" horiz-adv-x="500" 
d="M572 700l7 -20q-43 -20 -93.5 -60.5t-77.5 -71.5h-23q-13 30 -47 71t-67 61l15 20q62 -30 122 -97q91 68 164 97zM387 510q71 0 112 -31t41 -71q0 -38 -31 -38q-21 0 -21 19q0 3 1.5 11t1.5 13q0 32 -25 54.5t-83 22.5q-68 0 -124.5 -49t-85.5 -121.5t-29 -146.5
t36.5 -116t102.5 -42q55 0 97 19.5t86 68.5l13 -13q-80 -100 -206 -100q-90 0 -134 50.5t-44 133.5q0 135 84 235.5t208 100.5z" />
    <glyph glyph-name="Dcaron" unicode="&#x10e;" horiz-adv-x="750" 
d="M666 880l7 -20q-43 -20 -93.5 -60.5t-77.5 -71.5h-23q-13 30 -47 71t-67 61l15 20q62 -30 122 -97q91 68 164 97zM475 680q127 0 206.5 -70t79.5 -190q0 -172 -127.5 -296t-303.5 -124h-280l4 20h40q20 0 26.5 5.5t10.5 24.5l123 580q4 20 -0.5 25t-23.5 5h-40l5 20h280z
M470 660h-130q-20 0 -26 -5.5t-10 -24.5l-123 -580q-5 -20 -0.5 -25t23.5 -5h130q106 0 193.5 57t135.5 149.5t48 198.5q0 110 -66.5 172.5t-174.5 62.5z" />
    <glyph glyph-name="dcaron" unicode="&#x10f;" 
d="M701 710q30 0 30 -36q0 -46 -30.5 -85t-73.5 -39l3 15q28 0 48.5 23.5t20.5 47.5q0 14 -11 14q-24 0 -24 21q0 16 10.5 27.5t26.5 11.5zM496 15q15 0 29 14t21 44h20q-11 -47 -37 -65t-51 -18q-70 0 -53 80l11 54q-39 -67 -89 -100.5t-104 -33.5q-74 0 -112 45t-38 125
q0 138 72.5 244t187.5 106q54 0 90 -33.5t47 -100.5l59 274q4 20 -0.5 25t-23.5 5h-44l4 20h124l-134 -629q-12 -56 21 -56zM247 10q75 0 133.5 69.5t80.5 161.5q27 111 -5.5 180t-106.5 69q-63 0 -112.5 -54.5t-72.5 -131.5t-23 -157q0 -137 106 -137z" />
    <glyph glyph-name="Dcroat" unicode="&#x110;" horiz-adv-x="750" 
d="M475 680q127 0 206.5 -70t79.5 -190q0 -172 -127.5 -296t-303.5 -124h-280l4 20h40q20 0 26.5 5.5t10.5 24.5l60 285h-70l6 30h71l56 265q4 20 -0.5 25t-23.5 5h-40l5 20h280zM334 20q106 0 193.5 57t135.5 149.5t48 198.5q0 110 -66.5 172.5t-174.5 62.5h-130
q-20 0 -26 -5.5t-10 -24.5l-56 -265h169l-6 -30h-170l-60 -285q-5 -20 -0.5 -25t23.5 -5h130z" />
    <glyph glyph-name="dcroat" unicode="&#x111;" 
d="M580 565l-105 -494q-12 -56 21 -56q15 0 29 14t21 44h20q-11 -47 -37 -65t-51 -18q-70 0 -53 80l11 54q-39 -67 -89 -100.5t-104 -33.5q-74 0 -112 45t-38 125q0 138 72.5 244t187.5 106q54 0 90 -33.5t47 -100.5l41 189h-171l6 30h171l12 55q4 20 -0.5 25t-23.5 5h-44
l4 20h124l-22 -105h69l-6 -30h-70zM461 241q27 111 -5.5 180t-106.5 69q-63 0 -112.5 -54.5t-72.5 -131.5t-23 -157q0 -137 106 -137q75 0 133.5 69.5t80.5 161.5z" />
    <glyph glyph-name="Emacron" unicode="&#x112;" horiz-adv-x="620" 
d="M618 810l-6 -30h-250l6 30h250zM195 680h500l-35 -164h-20l6 30q13 60 -1.5 87t-68.5 27h-236q-20 0 -26 -5.5t-10 -24.5l-57 -270h166q55 0 78.5 18t32.5 62l6 30h20l-51 -240h-20l6 30q9 44 -6.5 62t-70.5 18h-165l-62 -290q-5 -20 -0.5 -25t23.5 -5h246q55 0 80 27
t38 87l7 30h20l-35 -164h-510l4 20h40q20 0 26.5 5.5t10.5 24.5l123 580q4 20 -0.5 25t-23.5 5h-40z" />
    <glyph glyph-name="emacron" unicode="&#x113;" horiz-adv-x="505" 
d="M534 630l-6 -30h-250l6 30h250zM383 510q80 0 113 -35.5t33 -89.5q0 -27 -11.5 -53t-39 -52.5t-85 -43t-138.5 -16.5q-38 0 -106 7q-4 -24 -4 -55q0 -74 36 -115.5t102 -41.5q55 0 97 19.5t86 68.5l13 -13q-80 -100 -206 -100q-90 0 -134 50.5t-44 133.5q0 137 82 236.5
t206 99.5zM256 241q66 0 113.5 14.5t70 38t32 46t9.5 47.5q0 103 -102 103q-86 0 -146.5 -70t-80.5 -171q64 -8 104 -8z" />
    <glyph glyph-name="Edotaccent" unicode="&#x116;" horiz-adv-x="620" 
d="M482 760q-13 0 -20.5 8t-7.5 20q0 16 13.5 29t29.5 13q13 0 21 -8t8 -20q0 -16 -14 -29t-30 -13zM195 680h500l-35 -164h-20l6 30q13 60 -1.5 87t-68.5 27h-236q-20 0 -26 -5.5t-10 -24.5l-57 -270h166q55 0 78.5 18t32.5 62l6 30h20l-51 -240h-20l6 30q9 44 -6.5 62
t-70.5 18h-165l-62 -290q-5 -20 -0.5 -25t23.5 -5h246q55 0 80 27t38 87l7 30h20l-35 -164h-510l4 20h40q20 0 26.5 5.5t10.5 24.5l123 580q4 20 -0.5 25t-23.5 5h-40z" />
    <glyph glyph-name="edotaccent" unicode="&#x117;" horiz-adv-x="505" 
d="M398 580q-13 0 -20.5 8t-7.5 20q0 16 13.5 29t29.5 13q13 0 21 -8t8 -20q0 -16 -14 -29t-30 -13zM255 220q-38 0 -106 7q-4 -24 -4 -55q0 -74 36 -115.5t102 -41.5q55 0 97 19.5t86 68.5l13 -13q-80 -100 -206 -100q-90 0 -134 50.5t-44 133.5q0 137 82 236.5t206 99.5
q80 0 113 -35.5t33 -89.5q0 -27 -11.5 -53t-39 -52.5t-85 -43t-138.5 -16.5zM379 490q-86 0 -146.5 -70t-80.5 -171q64 -8 104 -8q66 0 113.5 14.5t70 38t32 46t9.5 47.5q0 103 -102 103z" />
    <glyph glyph-name="Eogonek" unicode="&#x118;" horiz-adv-x="620" 
d="M195 680h500l-35 -164h-20l6 30q13 60 -1.5 87t-68.5 27h-236q-20 0 -26 -5.5t-10 -24.5l-57 -270h166q55 0 78.5 18t32.5 62l6 30h20l-51 -240h-20l6 30q9 44 -6.5 62t-70.5 18h-165l-62 -290q-5 -20 -0.5 -25t23.5 -5h246q55 0 80 27t38 87l7 30h20l-35 -164
q-43 -29 -74.5 -68.5t-31.5 -70.5q0 -36 45 -36q34 0 59 17l4 -13q-34 -29 -80 -29q-26 0 -42.5 13t-16.5 38q0 75 115 149h-488l4 20h40q20 0 26.5 5.5t10.5 24.5l123 580q4 20 -0.5 25t-23.5 5h-40z" />
    <glyph glyph-name="eogonek" unicode="&#x119;" horiz-adv-x="505" 
d="M255 220q-38 0 -106 7q-4 -24 -4 -55q0 -74 36 -115.5t102 -41.5q55 0 97 19.5t86 68.5l13 -13q-47 -60 -114 -84q-41 -29 -70.5 -67t-29.5 -68q0 -36 45 -36q34 0 59 17l4 -13q-34 -29 -80 -29q-27 0 -43 13t-16 38q0 66 93 134q-30 -5 -54 -5q-90 0 -134 50.5
t-44 133.5q0 137 82 236.5t206 99.5q80 0 113 -35.5t33 -89.5q0 -27 -11.5 -53t-39 -52.5t-85 -43t-138.5 -16.5zM379 490q-86 0 -146.5 -70t-80.5 -171q64 -8 104 -8q66 0 113.5 14.5t70 38t32 46t9.5 47.5q0 103 -102 103z" />
    <glyph glyph-name="Ecaron" unicode="&#x11a;" horiz-adv-x="620" 
d="M464 728q-13 30 -47 71t-67 61l15 20q62 -30 122 -97q91 68 164 97l7 -20q-43 -20 -93.5 -60.5t-77.5 -71.5h-23zM195 680h500l-35 -164h-20l6 30q13 60 -1.5 87t-68.5 27h-236q-20 0 -26 -5.5t-10 -24.5l-57 -270h166q55 0 78.5 18t32.5 62l6 30h20l-51 -240h-20l6 30
q9 44 -6.5 62t-70.5 18h-165l-62 -290q-5 -20 -0.5 -25t23.5 -5h246q55 0 80 27t38 87l7 30h20l-35 -164h-510l4 20h40q20 0 26.5 5.5t10.5 24.5l123 580q4 20 -0.5 25t-23.5 5h-40z" />
    <glyph glyph-name="ecaron" unicode="&#x11b;" horiz-adv-x="505" 
d="M380 548q-13 30 -47 71t-67 61l15 20q62 -30 122 -97q91 68 164 97l7 -20q-43 -20 -93.5 -60.5t-77.5 -71.5h-23zM383 510q80 0 113 -35.5t33 -89.5q0 -27 -11.5 -53t-39 -52.5t-85 -43t-138.5 -16.5q-38 0 -106 7q-4 -24 -4 -55q0 -74 36 -115.5t102 -41.5q55 0 97 19.5
t86 68.5l13 -13q-80 -100 -206 -100q-90 0 -134 50.5t-44 133.5q0 137 82 236.5t206 99.5zM256 241q66 0 113.5 14.5t70 38t32 46t9.5 47.5q0 103 -102 103q-86 0 -146.5 -70t-80.5 -171q64 -8 104 -8z" />
    <glyph glyph-name="Gbreve" unicode="&#x11e;" horiz-adv-x="790" 
d="M718 863q-25 -67 -67 -100t-91 -33q-48 0 -74.5 33t-22.5 100h20q-1 -36 18.5 -59.5t69.5 -23.5q96 0 127 83h20zM616 310h190l-4 -20h-40q-20 0 -26.5 -5.5t-10.5 -24.5l-6 -30q-23 -108 -109.5 -174t-211.5 -66q-123 0 -194.5 70.5t-71.5 189.5q0 177 121.5 308.5
t293.5 131.5q64 0 110 -14t68.5 -27.5t28.5 -13.5q11 0 14 15l7 30h20l-36 -165h-20q16 74 -35.5 112t-162.5 38q-104 0 -187.5 -60.5t-128 -156t-44.5 -204.5q0 -108 59 -168.5t163 -60.5q221 0 266 215l6 30q5 20 0.5 25t-23.5 5h-40z" />
    <glyph glyph-name="gbreve" unicode="&#x11f;" horiz-adv-x="490" 
d="M361 550q-48 0 -74.5 33t-22.5 100h20q-1 -36 18.5 -59.5t69.5 -23.5q96 0 127 83h20q-25 -67 -67 -100t-91 -33zM526 540q22 0 34.5 -10.5t12.5 -24.5q0 -11 -7.5 -19.5t-20.5 -8.5q-10 0 -15 6t-6.5 13t-6.5 13t-15 6q-24 0 -61 -30q48 -35 48 -99q0 -85 -61 -145.5
t-149 -60.5q-45 0 -77 17q-22 -13 -34 -21.5t-21.5 -22.5t-9.5 -31q0 -25 34.5 -37t83.5 -16.5t98.5 -13t84 -36t34.5 -75.5q0 -68 -82.5 -111t-196.5 -43q-93 0 -145.5 31.5t-52.5 85.5q0 44 37 82.5t101 61.5q-29 19 -29 56q0 54 81 101q-45 34 -45 97q0 85 61.5 145
t147.5 60q41 0 73 -15q54 45 104 45zM284 200q67 0 111 58t44 130q0 47 -24.5 74.5t-69.5 27.5q-66 0 -110.5 -56.5t-44.5 -130.5q0 -47 24.5 -75t69.5 -28zM422 -71q0 30 -19 48.5t-51.5 26.5t-66 12t-72 9.5t-61.5 15.5q-54 -17 -85 -51t-31 -83q0 -41 40 -69t122 -28
q99 0 161.5 33t62.5 86z" />
    <glyph glyph-name="Gdotaccent" unicode="&#x120;" horiz-adv-x="790" 
d="M582 830q13 0 21 -8t8 -20q0 -16 -14 -29t-30 -13q-13 0 -20.5 8t-7.5 20q0 16 13.5 29t29.5 13zM616 310h190l-4 -20h-40q-20 0 -26.5 -5.5t-10.5 -24.5l-6 -30q-23 -108 -109.5 -174t-211.5 -66q-123 0 -194.5 70.5t-71.5 189.5q0 177 121.5 308.5t293.5 131.5
q64 0 110 -14t68.5 -27.5t28.5 -13.5q11 0 14 15l7 30h20l-36 -165h-20q16 74 -35.5 112t-162.5 38q-104 0 -187.5 -60.5t-128 -156t-44.5 -204.5q0 -108 59 -168.5t163 -60.5q221 0 266 215l6 30q5 20 0.5 25t-23.5 5h-40z" />
    <glyph glyph-name="gdotaccent" unicode="&#x121;" horiz-adv-x="490" 
d="M368 580q-13 0 -20.5 8t-7.5 20q0 16 13.5 29t29.5 13q13 0 21 -8t8 -20q0 -16 -14 -29t-30 -13zM526 540q22 0 34.5 -10.5t12.5 -24.5q0 -11 -7.5 -19.5t-20.5 -8.5q-10 0 -15 6t-6.5 13t-6.5 13t-15 6q-24 0 -61 -30q48 -35 48 -99q0 -85 -61 -145.5t-149 -60.5
q-45 0 -77 17q-22 -13 -34 -21.5t-21.5 -22.5t-9.5 -31q0 -25 34.5 -37t83.5 -16.5t98.5 -13t84 -36t34.5 -75.5q0 -68 -82.5 -111t-196.5 -43q-93 0 -145.5 31.5t-52.5 85.5q0 44 37 82.5t101 61.5q-29 19 -29 56q0 54 81 101q-45 34 -45 97q0 85 61.5 145t147.5 60
q41 0 73 -15q54 45 104 45zM284 200q67 0 111 58t44 130q0 47 -24.5 74.5t-69.5 27.5q-66 0 -110.5 -56.5t-44.5 -130.5q0 -47 24.5 -75t69.5 -28zM422 -71q0 30 -19 48.5t-51.5 26.5t-66 12t-72 9.5t-61.5 15.5q-54 -17 -85 -51t-31 -83q0 -41 40 -69t122 -28
q99 0 161.5 33t62.5 86z" />
    <glyph glyph-name="Gcommaaccent" unicode="&#x122;" horiz-adv-x="790" 
d="M616 310h190l-4 -20h-40q-20 0 -26.5 -5.5t-10.5 -24.5l-6 -30q-23 -108 -109.5 -174t-211.5 -66q-123 0 -194.5 70.5t-71.5 189.5q0 177 121.5 308.5t293.5 131.5q64 0 110 -14t68.5 -27.5t28.5 -13.5q11 0 14 15l7 30h20l-36 -165h-20q16 74 -35.5 112t-162.5 38
q-104 0 -187.5 -60.5t-128 -156t-44.5 -204.5q0 -108 59 -168.5t163 -60.5q221 0 266 215l6 30q5 20 0.5 25t-23.5 5h-40zM392 -60q31 0 31 -35q0 -45 -29.5 -80t-73.5 -35l4 15q28 0 47.5 18.5t19.5 41.5q0 15 -12 15q-24 0 -24 21q0 16 10.5 27.5t26.5 11.5z" />
    <glyph glyph-name="gcommaaccent" unicode="&#x123;" horiz-adv-x="490" 
d="M368 580q-31 0 -31 34q0 45 30 80.5t73 35.5l-3 -15q-28 0 -47.5 -18.5t-19.5 -42.5q0 -14 11 -14q25 0 25 -23q0 -15 -11 -26t-27 -11zM526 540q22 0 34.5 -10.5t12.5 -24.5q0 -11 -7.5 -19.5t-20.5 -8.5q-10 0 -15 6t-6.5 13t-6.5 13t-15 6q-24 0 -61 -30
q48 -35 48 -99q0 -85 -61 -145.5t-149 -60.5q-45 0 -77 17q-22 -13 -34 -21.5t-21.5 -22.5t-9.5 -31q0 -25 34.5 -37t83.5 -16.5t98.5 -13t84 -36t34.5 -75.5q0 -68 -82.5 -111t-196.5 -43q-93 0 -145.5 31.5t-52.5 85.5q0 44 37 82.5t101 61.5q-29 19 -29 56q0 54 81 101
q-45 34 -45 97q0 85 61.5 145t147.5 60q41 0 73 -15q54 45 104 45zM284 200q67 0 111 58t44 130q0 47 -24.5 74.5t-69.5 27.5q-66 0 -110.5 -56.5t-44.5 -130.5q0 -47 24.5 -75t69.5 -28zM422 -71q0 30 -19 48.5t-51.5 26.5t-66 12t-72 9.5t-61.5 15.5q-54 -17 -85 -51
t-31 -83q0 -41 40 -69t122 -28q99 0 161.5 33t62.5 86z" />
    <glyph glyph-name="Hbar" unicode="&#x126;" horiz-adv-x="750" 
d="M800 660q-20 0 -26 -5.5t-10 -24.5l-22 -105h69l-6 -30h-70l-94 -445q-5 -20 -0.5 -25t23.5 -5h40l-4 -20h-190l4 20h40q20 0 26.5 5.5t10.5 24.5l60 285h-410l-60 -285q-5 -20 -0.5 -25t23.5 -5h40l-4 -20h-190l4 20h40q20 0 26.5 5.5t10.5 24.5l94 445h-70l6 30h71
l22 105q4 20 -0.5 25t-23.5 5h-40l5 20h190l-5 -20h-40q-20 0 -26 -5.5t-10 -24.5l-22 -105h410l22 105q4 20 -0.5 25t-23.5 5h-40l5 20h190l-5 -20h-40zM657 360l28 135h-410l-28 -135h410z" />
    <glyph glyph-name="hbar" unicode="&#x127;" horiz-adv-x="580" 
d="M566 73h20q-11 -47 -37 -65t-51 -18q-70 0 -53 80l56 265q32 155 -92 155q-165 0 -230 -310l-38 -180h-50l120 565h-61l6 30h61l12 55q4 19 0 24.5t-24 5.5h-44l4 20h125l-23 -105h179l-6 -30h-179l-45 -210q37 81 88.5 118t108.5 37q86 0 120.5 -47t17.5 -128l-56 -264
q-12 -56 21 -56q15 0 29 14t21 44z" />
    <glyph glyph-name="Imacron" unicode="&#x12a;" horiz-adv-x="290" 
d="M443 810l-6 -30h-250l6 30h250zM385 680l-5 -20h-40q-20 0 -26 -5.5t-10 -24.5l-123 -580q-5 -20 -0.5 -25t23.5 -5h40l-4 -20h-190l4 20h40q20 0 26.5 5.5t10.5 24.5l123 580q4 20 -0.5 25t-23.5 5h-40l5 20h190z" />
    <glyph glyph-name="imacron" unicode="&#x12b;" horiz-adv-x="250" 
d="M368 630l-6 -30h-250l6 30h250zM226 73h20q-11 -47 -37 -65t-51 -18q-70 0 -53 80l81 380q4 20 -0.5 25t-23.5 5h-44l4 20h124l-91 -429q-12 -56 21 -56q15 0 29 14t21 44z" />
    <glyph glyph-name="Iogonek" unicode="&#x12e;" horiz-adv-x="290" 
d="M195 680h190l-5 -20h-40q-20 0 -26 -5.5t-10 -24.5l-123 -580q-5 -20 -0.5 -25t23.5 -5h40l-4 -20h-59q-43 -29 -74.5 -68.5t-31.5 -70.5q0 -36 45 -36q34 0 59 17l4 -13q-34 -29 -80 -29q-27 0 -43 13t-16 38q0 75 115 149h-109l4 20h40q20 0 26.5 5.5t10.5 24.5
l123 580q4 20 -0.5 25t-23.5 5h-40z" />
    <glyph glyph-name="iogonek" unicode="&#x12f;" horiz-adv-x="250" 
d="M247 650q13 0 21 -8t8 -20q0 -16 -14 -29t-30 -13q-13 0 -20.5 8t-7.5 20q0 16 13.5 29t29.5 13zM246 500l-91 -429q-12 -56 21 -56q15 0 29 14t21 44h20q-12 -52 -47 -72q-39 -29 -66.5 -65t-27.5 -65q0 -36 45 -36q34 0 59 17l4 -13q-34 -29 -80 -29q-27 0 -43 13
t-16 38q0 63 86 129h-2q-70 0 -53 80l81 380q4 20 -0.5 25t-23.5 5h-44l4 20h124z" />
    <glyph glyph-name="Idotaccent" unicode="&#x130;" horiz-adv-x="290" 
d="M322 830q13 0 21 -8t8 -20q0 -16 -14 -29t-30 -13q-13 0 -20.5 8t-7.5 20q0 16 13.5 29t29.5 13zM385 680l-5 -20h-40q-20 0 -26 -5.5t-10 -24.5l-123 -580q-5 -20 -0.5 -25t23.5 -5h40l-4 -20h-190l4 20h40q20 0 26.5 5.5t10.5 24.5l123 580q4 20 -0.5 25t-23.5 5h-40
l5 20h190z" />
    <glyph glyph-name="dotlessi" unicode="&#x131;" horiz-adv-x="250" 
d="M226 73h20q-11 -47 -37 -65t-51 -18q-70 0 -53 80l81 380q4 20 -0.5 25t-23.5 5h-44l4 20h124l-91 -429q-12 -56 21 -56q15 0 29 14t21 44z" />
    <glyph glyph-name="IJ" unicode="&#x132;" horiz-adv-x="640" 
d="M385 680l-5 -20h-40q-20 0 -26 -5.5t-10 -24.5l-123 -580q-5 -20 -0.5 -25t23.5 -5h40l-4 -20h-190l4 20h40q20 0 26.5 5.5t10.5 24.5l123 580q4 20 -0.5 25t-23.5 5h-40l5 20h190zM740 680l-5 -20h-40q-20 0 -26 -5.5t-10 -24.5l-94 -444q-22 -103 -69 -149.5
t-108 -46.5q-41 0 -61 19.5t-20 42.5q0 14 9 23.5t22 9.5q21 0 21 -19q0 -9 -6 -19t-6 -17q0 -20 45 -20q46 0 72.5 34.5t45.5 119.5l99 466q4 20 -0.5 25t-23.5 5h-40l5 20h190z" />
    <glyph glyph-name="Kcommaaccent" unicode="&#x136;" horiz-adv-x="635" 
d="M385 680l-5 -20h-40q-20 0 -26 -5.5t-10 -24.5l-123 -580q-5 -20 -0.5 -25t23.5 -5h40l-4 -20h-190l4 20h40q20 0 26.5 5.5t10.5 24.5l123 580q4 20 -0.5 25t-23.5 5h-40l5 20h190zM745 680l-5 -20h-36q-30 0 -66 -30l-340 -283l244 -297q11 -13 15.5 -18t13 -8.5
t20.5 -3.5h43l-4 -20h-230l4 20h51q18 0 25.5 8t-3.5 22l-232 281l360 299q14 13 10 21.5t-19 8.5h-56l5 20h200zM305 -60q31 0 31 -35q0 -45 -29.5 -80t-73.5 -35l4 15q28 0 47.5 18.5t19.5 41.5q0 15 -12 15q-24 0 -24 21q0 16 10.5 27.5t26.5 11.5z" />
    <glyph glyph-name="kcommaaccent" unicode="&#x137;" horiz-adv-x="530" 
d="M514 510q43 0 43 -36q0 -10 -8 -18t-21 -8q-14 0 -23.5 13.5t-18.5 13.5q-17 0 -32.5 -14t-30 -36t-30.5 -46t-41.5 -48t-55.5 -37q134 -17 134 -118q0 -19 -9 -67.5t-9 -65.5q0 -28 24 -28q15 0 29 14t21 44h20q-11 -47 -37 -65t-51 -18q-56 0 -56 52q0 13 9 65.5
t9 68.5q0 100 -133 100h-47l-59 -276h-50l138 650q4 19 0 24.5t-24 5.5h-44l4 20h125l-85 -399h12q50 0 87 21.5t59.5 52.5t42 61.5t46.5 52t62 21.5zM252 -60q31 0 31 -35q0 -45 -29.5 -80t-73.5 -35l4 15q28 0 47.5 18.5t19.5 41.5q0 15 -12 15q-24 0 -24 21
q0 16 10.5 27.5t26.5 11.5z" />
    <glyph glyph-name="Lacute" unicode="&#x139;" 
d="M447 880q21 0 21 -21q0 -33 -67 -72t-124 -57l-6 20q45 15 70.5 32.5t47.5 51.5q30 46 58 46zM385 680l-5 -20h-40q-20 0 -26 -5.5t-10 -24.5l-123 -580q-5 -20 -0.5 -25t23.5 -5h216q54 0 79.5 27t38.5 87l7 30h20l-35 -164h-480l4 20h40q20 0 26.5 5.5t10.5 24.5
l123 580q4 20 -0.5 25t-23.5 5h-40l5 20h190z" />
    <glyph glyph-name="lacute" unicode="&#x13a;" horiz-adv-x="250" 
d="M427 900q21 0 21 -21q0 -33 -67 -72t-124 -57l-6 20q45 15 70.5 32.5t47.5 51.5q30 46 58 46zM226 73h20q-11 -47 -37 -65t-51 -18q-70 0 -53 80l124 580q4 20 -0.5 25t-23.5 5h-44l4 20h124l-134 -629q-12 -56 21 -56q15 0 29 14t21 44z" />
    <glyph glyph-name="Lcommaaccent" unicode="&#x13b;" 
d="M385 680l-5 -20h-40q-20 0 -26 -5.5t-10 -24.5l-123 -580q-5 -20 -0.5 -25t23.5 -5h216q54 0 79.5 27t38.5 87l7 30h20l-35 -164h-480l4 20h40q20 0 26.5 5.5t10.5 24.5l123 580q4 20 -0.5 25t-23.5 5h-40l5 20h190zM290 -60q31 0 31 -35q0 -45 -29.5 -80t-73.5 -35l4 15
q28 0 47.5 18.5t19.5 41.5q0 15 -12 15q-24 0 -24 21q0 16 10.5 27.5t26.5 11.5z" />
    <glyph glyph-name="lcommaaccent" unicode="&#x13c;" horiz-adv-x="250" 
d="M226 73h20q-11 -47 -37 -65t-51 -18q-70 0 -53 80l124 580q4 20 -0.5 25t-23.5 5h-44l4 20h124l-134 -629q-12 -56 21 -56q15 0 29 14t21 44zM112 -60q31 0 31 -35q0 -45 -29.5 -80t-73.5 -35l4 15q28 0 47.5 18.5t19.5 41.5q0 15 -12 15q-24 0 -24 21q0 16 10.5 27.5
t26.5 11.5z" />
    <glyph glyph-name="Lcaron" unicode="&#x13d;" 
d="M467 690q30 0 30 -36q0 -46 -30.5 -85t-73.5 -39l3 15q28 0 48.5 23.5t20.5 47.5q0 14 -11 14q-24 0 -24 21q0 16 10.5 27.5t26.5 11.5zM385 680l-5 -20h-40q-20 0 -26 -5.5t-10 -24.5l-123 -580q-5 -20 -0.5 -25t23.5 -5h216q54 0 79.5 27t38.5 87l7 30h20l-35 -164
h-480l4 20h40q20 0 26.5 5.5t10.5 24.5l123 580q4 20 -0.5 25t-23.5 5h-40l5 20h190z" />
    <glyph glyph-name="lcaron" unicode="&#x13e;" horiz-adv-x="250" 
d="M391 710q30 0 30 -36q0 -46 -30.5 -85t-73.5 -39l3 15q28 0 48.5 23.5t20.5 47.5q0 14 -11 14q-24 0 -24 21q0 16 10.5 27.5t26.5 11.5zM226 73h20q-11 -47 -37 -65t-51 -18q-70 0 -53 80l124 580q4 20 -0.5 25t-23.5 5h-44l4 20h124l-134 -629q-12 -56 21 -56
q15 0 29 14t21 44z" />
    <glyph glyph-name="Ldot" unicode="&#x13f;" 
d="M385 680l-5 -20h-40q-20 0 -26 -5.5t-10 -24.5l-123 -580q-5 -20 -0.5 -25t23.5 -5h216q54 0 79.5 27t38.5 87l7 30h20l-35 -164h-480l4 20h40q20 0 26.5 5.5t10.5 24.5l123 580q4 20 -0.5 25t-23.5 5h-40l5 20h190zM379 389q25 0 25 -23q0 -16 -11 -26.5t-26 -10.5
q-25 0 -25 22q0 16 10.5 27t26.5 11z" />
    <glyph glyph-name="ldot" unicode="&#x140;" horiz-adv-x="270" 
d="M226 73h20q-11 -47 -37 -65t-51 -18q-70 0 -53 80l124 580q4 20 -0.5 25t-23.5 5h-44l4 20h124l-134 -629q-12 -56 21 -56q15 0 29 14t21 44zM314 389q25 0 25 -23q0 -16 -11 -26.5t-26 -10.5q-25 0 -25 22q0 16 10.5 27t26.5 11z" />
    <glyph glyph-name="Lslash" unicode="&#x141;" 
d="M545 164h20l-35 -164h-480l4 20h40q20 0 26.5 5.5t10.5 24.5l53 249l-91 -62l9 35l89 61l63 297q4 20 -0.5 25t-23.5 5h-40l5 20h190l-5 -20h-40q-20 0 -26 -5.5t-10 -24.5l-55 -257l102 69l-9 -35l-100 -68l-61 -289q-5 -20 -0.5 -25t23.5 -5h216q54 0 79.5 27t38.5 87z
" />
    <glyph glyph-name="lslash" unicode="&#x142;" horiz-adv-x="250" 
d="M214 346l-59 -275q-12 -56 21 -56q15 0 29 14t21 44h20q-11 -47 -37 -65t-51 -18q-70 0 -53 80l50 232l-73 -55l8 35l72 54l67 314q4 20 -0.5 25t-23.5 5h-44l4 20h124l-68 -320l95 72l-8 -35z" />
    <glyph glyph-name="Nacute" unicode="&#x143;" horiz-adv-x="745" 
d="M671 880q21 0 21 -21q0 -33 -67 -72t-124 -57l-6 20q45 15 70.5 32.5t47.5 51.5q30 46 58 46zM845 680l-5 -20l-36 -1q-20 -1 -26 -6t-10 -24l-134 -629h-25l-340 630l-123 -580q-5 -20 -0.5 -25t23.5 -5h40l-4 -20h-155l4 20h30q20 0 26.5 5.5t10.5 24.5l123 580
q4 20 -0.5 25t-23.5 5h-30l5 20h107l324 -607l117 557q4 20 -0.5 25t-23.5 5h-36l5 20h157z" />
    <glyph glyph-name="nacute" unicode="&#x144;" horiz-adv-x="580" 
d="M554 700q21 0 21 -21q0 -33 -67 -72t-124 -57l-6 20q45 15 70.5 32.5t47.5 51.5q30 46 58 46zM566 73h20q-11 -47 -37 -65t-51 -18q-70 0 -53 80l56 265q32 155 -92 155q-165 0 -230 -310l-38 -180h-50l95 450q4 20 -0.5 25t-23.5 5h-44l4 20h124l-30 -145
q37 81 88.5 118t108.5 37q86 0 120.5 -47t17.5 -128l-56 -264q-12 -56 21 -56q15 0 29 14t21 44z" />
    <glyph glyph-name="Ncommaaccent" unicode="&#x145;" horiz-adv-x="745" 
d="M845 680l-5 -20l-36 -1q-20 -1 -26 -6t-10 -24l-134 -629h-25l-340 630l-123 -580q-5 -20 -0.5 -25t23.5 -5h40l-4 -20h-155l4 20h30q20 0 26.5 5.5t10.5 24.5l123 580q4 20 -0.5 25t-23.5 5h-30l5 20h107l324 -607l117 557q4 20 -0.5 25t-23.5 5h-36l5 20h157zM360 -60
q31 0 31 -35q0 -45 -29.5 -80t-73.5 -35l4 15q28 0 47.5 18.5t19.5 41.5q0 15 -12 15q-24 0 -24 21q0 16 10.5 27.5t26.5 11.5z" />
    <glyph glyph-name="ncommaaccent" unicode="&#x146;" horiz-adv-x="580" 
d="M566 73h20q-11 -47 -37 -65t-51 -18q-70 0 -53 80l56 265q32 155 -92 155q-165 0 -230 -310l-38 -180h-50l95 450q4 20 -0.5 25t-23.5 5h-44l4 20h124l-30 -145q37 81 88.5 118t108.5 37q86 0 120.5 -47t17.5 -128l-56 -264q-12 -56 21 -56q15 0 29 14t21 44zM272 -60
q31 0 31 -35q0 -45 -29.5 -80t-73.5 -35l4 15q28 0 47.5 18.5t19.5 41.5q0 15 -12 15q-24 0 -24 21q0 16 10.5 27.5t26.5 11.5z" />
    <glyph glyph-name="Ncaron" unicode="&#x147;" horiz-adv-x="745" 
d="M704 880l7 -20q-43 -20 -93.5 -60.5t-77.5 -71.5h-23q-13 30 -47 71t-67 61l15 20q62 -30 122 -97q91 68 164 97zM845 680l-5 -20l-36 -1q-20 -1 -26 -6t-10 -24l-134 -629h-25l-340 630l-123 -580q-5 -20 -0.5 -25t23.5 -5h40l-4 -20h-155l4 20h30q20 0 26.5 5.5
t10.5 24.5l123 580q4 20 -0.5 25t-23.5 5h-30l5 20h107l324 -607l117 557q4 20 -0.5 25t-23.5 5h-36l5 20h157z" />
    <glyph glyph-name="ncaron" unicode="&#x148;" horiz-adv-x="580" 
d="M587 700l7 -20q-43 -20 -93.5 -60.5t-77.5 -71.5h-23q-13 30 -47 71t-67 61l15 20q62 -30 122 -97q91 68 164 97zM566 73h20q-11 -47 -37 -65t-51 -18q-70 0 -53 80l56 265q32 155 -92 155q-165 0 -230 -310l-38 -180h-50l95 450q4 20 -0.5 25t-23.5 5h-44l4 20h124
l-30 -145q37 81 88.5 118t108.5 37q86 0 120.5 -47t17.5 -128l-56 -264q-12 -56 21 -56q15 0 29 14t21 44z" />
    <glyph glyph-name="Eng" unicode="&#x14a;" horiz-adv-x="745" 
d="M195 680h107l324 -607l117 557q4 20 -0.5 25t-23.5 5h-36l5 20h157l-5 -20l-36 -1q-20 -1 -26 -6t-10 -24l-137 -643q-42 -196 -172 -196q-46 0 -65.5 24t-14.5 46q5 25 31 25q24 0 19 -25q-1 -5 -5 -13.5t-5 -11.5q-2 -12 8 -18.5t37 -6.5q105 0 137 154l8 36l-340 630
l-123 -580q-5 -20 -0.5 -25t23.5 -5h40l-4 -20h-155l4 20h30q20 0 26.5 5.5t10.5 24.5l123 580q4 20 -0.5 25t-23.5 5h-30z" />
    <glyph glyph-name="eng" unicode="&#x14b;" 
d="M413 510q86 0 120.5 -47t17.5 -128l-85 -399q-14 -69 -51.5 -107.5t-89.5 -38.5q-31 0 -50 12.5t-19 33.5q0 16 9.5 27.5t23.5 11.5q20 0 20 -19q0 -5 -3.5 -15t-3.5 -15q0 -16 28 -16q60 0 82 104l89 421q32 155 -92 155q-165 0 -230 -310l-38 -180h-50l95 450
q4 20 -0.5 25t-23.5 5h-44l4 20h124l-30 -145q37 81 88.5 118t108.5 37z" />
    <glyph glyph-name="Omacron" unicode="&#x14c;" horiz-adv-x="780" 
d="M688 810l-6 -30h-250l6 30h250zM537 690q120 0 188 -68.5t68 -185.5t-52 -219.5t-146 -164.5t-207 -62q-121 0 -188.5 68.5t-67.5 186.5q0 117 52 219t146 164t207 62zM531 665q-103 0 -185 -62t-124 -159t-42 -207q0 -105 55.5 -163.5t157.5 -58.5q103 0 185 62t124 159
t42 207q0 105 -55.5 163.5t-157.5 58.5z" />
    <glyph glyph-name="omacron" unicode="&#x14d;" horiz-adv-x="550" 
d="M534 630l-6 -30h-250l6 30h250zM383 510q90 0 134 -50.5t44 -133.5q0 -137 -82 -236.5t-206 -99.5q-90 0 -134 50.5t-44 133.5q0 137 82 236.5t206 99.5zM379 490q-71 0 -126.5 -50t-82.5 -123.5t-27 -153.5q0 -73 34.5 -113t99.5 -40q71 0 126.5 50t82.5 123t27 153
q0 74 -34.5 114t-99.5 40z" />
    <glyph glyph-name="Ohungarumlaut" unicode="&#x150;" horiz-adv-x="780" 
d="M628 880q21 0 21 -21q0 -33 -67 -72t-124 -57l-6 20q45 15 70.5 32.5t47.5 51.5q30 46 58 46zM778 880q21 0 21 -21q0 -33 -67 -72t-124 -57l-6 20q45 15 70.5 32.5t47.5 51.5q30 46 58 46zM537 690q120 0 188 -68.5t68 -185.5t-52 -219.5t-146 -164.5t-207 -62
q-121 0 -188.5 68.5t-67.5 186.5q0 117 52 219t146 164t207 62zM531 665q-103 0 -185 -62t-124 -159t-42 -207q0 -105 55.5 -163.5t157.5 -58.5q103 0 185 62t124 159t42 207q0 105 -55.5 163.5t-157.5 58.5z" />
    <glyph glyph-name="ohungarumlaut" unicode="&#x151;" horiz-adv-x="550" 
d="M474 700q21 0 21 -21q0 -33 -67 -72t-124 -57l-6 20q45 15 70.5 32.5t47.5 51.5q30 46 58 46zM624 700q21 0 21 -21q0 -33 -67 -72t-124 -57l-6 20q45 15 70.5 32.5t47.5 51.5q30 46 58 46zM383 510q90 0 134 -50.5t44 -133.5q0 -137 -82 -236.5t-206 -99.5
q-90 0 -134 50.5t-44 133.5q0 137 82 236.5t206 99.5zM379 490q-71 0 -126.5 -50t-82.5 -123.5t-27 -153.5q0 -73 34.5 -113t99.5 -40q71 0 126.5 50t82.5 123t27 153q0 74 -34.5 114t-99.5 40z" />
    <glyph glyph-name="OE" unicode="&#x152;" horiz-adv-x="1160" 
d="M805 680h430l-35 -164h-20l6 30q13 60 -1.5 87t-68.5 27h-236q-20 0 -26 -5.5t-10 -24.5l-57 -270h166q55 0 78.5 18t32.5 62l6 30h20l-51 -240h-20l6 30q9 44 -6.5 62t-70.5 18h-165l-62 -290q-5 -20 -0.5 -25t23.5 -5h246q54 0 79.5 27t38.5 87l7 30h20l-35 -164h-440
l29 138q-55 -70 -133 -109t-168 -39q-121 0 -188.5 68.5t-67.5 186.5q0 117 52 219t146 164t207 62q90 0 151 -38.5t87 -109.5zM393 15q125 0 216 86.5t123 238.5t-22 238.5t-179 86.5q-103 0 -185 -62t-124 -159t-42 -207q0 -105 55.5 -163.5t157.5 -58.5z" />
    <glyph glyph-name="oe" unicode="&#x153;" horiz-adv-x="910" 
d="M659 220q-38 0 -106 7q-4 -24 -4 -55q0 -74 36 -115.5t102 -41.5q55 0 97 19.5t86 68.5l13 -13q-80 -100 -206 -100q-75 0 -118 36t-55 97q-40 -61 -99.5 -97t-131.5 -36q-90 0 -134 50.5t-44 133.5q0 137 82 236.5t206 99.5q75 0 118 -36t55 -97q40 61 99.5 97t131.5 36
q80 0 113 -35.5t33 -89.5q0 -27 -11.5 -53t-39 -52.5t-85 -43t-138.5 -16.5zM277 10q71 0 126.5 50t82.5 123t27 153q0 74 -34.5 114t-99.5 40q-71 0 -126.5 -50t-82.5 -123.5t-27 -153.5q0 -73 34.5 -113t99.5 -40zM783 490q-86 0 -146.5 -70t-80.5 -171q64 -8 104 -8
q66 0 113.5 14.5t70 38t32 46t9.5 47.5q0 103 -102 103z" />
    <glyph glyph-name="Racute" unicode="&#x154;" horiz-adv-x="680" 
d="M608 880q21 0 21 -21q0 -33 -67 -72t-124 -57l-6 20q45 15 70.5 32.5t47.5 51.5q30 46 58 46zM635 20h44l-4 -20h-64q-60 0 -80.5 38.5t-25.5 132.5q-4 82 -30.5 110.5t-83.5 28.5h-155l-55 -260q-5 -20 -0.5 -25t23.5 -5h40l-4 -20h-190l4 20h40q20 0 26.5 5.5
t10.5 24.5l123 580q4 20 -0.5 25t-23.5 5h-40l5 20h275q190 0 192 -132q0 -85 -52 -148t-139 -82q82 -35 84 -147q3 -87 16.5 -119t63.5 -32zM240 330l155 1q218 1 218 230q-1 56 -37 77.5t-111 21.5h-155z" />
    <glyph glyph-name="racute" unicode="&#x155;" horiz-adv-x="380" 
d="M434 700q21 0 21 -21q0 -33 -67 -72t-124 -57l-6 20q45 15 70.5 32.5t47.5 51.5q30 46 58 46zM387 510q53 0 53 -36q0 -16 -9.5 -25t-21.5 -9q-22 0 -22 22q0 23 -15 23q-43 0 -99.5 -69t-81.5 -186l-50 -230h-50l95 450q4 19 0 24.5t-24 5.5h-44l4 20h124l-29 -140
q33 66 80 108t90 42z" />
    <glyph glyph-name="Rcommaaccent" unicode="&#x156;" horiz-adv-x="680" 
d="M635 20h44l-4 -20h-64q-60 0 -80.5 38.5t-25.5 132.5q-4 82 -30.5 110.5t-83.5 28.5h-155l-55 -260q-5 -20 -0.5 -25t23.5 -5h40l-4 -20h-190l4 20h40q20 0 26.5 5.5t10.5 24.5l123 580q4 20 -0.5 25t-23.5 5h-40l5 20h275q190 0 192 -132q0 -85 -52 -148t-139 -82
q82 -35 84 -147q3 -87 16.5 -119t63.5 -32zM240 330l155 1q218 1 218 230q-1 56 -37 77.5t-111 21.5h-155zM338 -60q31 0 31 -35q0 -45 -29.5 -80t-73.5 -35l4 15q28 0 47.5 18.5t19.5 41.5q0 15 -12 15q-24 0 -24 21q0 16 10.5 27.5t26.5 11.5z" />
    <glyph glyph-name="rcommaaccent" unicode="&#x157;" horiz-adv-x="380" 
d="M387 510q53 0 53 -36q0 -16 -9.5 -25t-21.5 -9q-22 0 -22 22q0 23 -15 23q-43 0 -99.5 -69t-81.5 -186l-50 -230h-50l95 450q4 19 0 24.5t-24 5.5h-44l4 20h124l-29 -140q33 66 80 108t90 42zM102 -60q31 0 31 -35q0 -45 -29.5 -80t-73.5 -35l4 15q28 0 47.5 18.5
t19.5 41.5q0 15 -12 15q-24 0 -24 21q0 16 10.5 27.5t26.5 11.5z" />
    <glyph glyph-name="Rcaron" unicode="&#x158;" horiz-adv-x="680" 
d="M641 880l7 -20q-43 -20 -93.5 -60.5t-77.5 -71.5h-23q-13 30 -47 71t-67 61l15 20q62 -30 122 -97q91 68 164 97zM635 20h44l-4 -20h-64q-60 0 -80.5 38.5t-25.5 132.5q-4 82 -30.5 110.5t-83.5 28.5h-155l-55 -260q-5 -20 -0.5 -25t23.5 -5h40l-4 -20h-190l4 20h40
q20 0 26.5 5.5t10.5 24.5l123 580q4 20 -0.5 25t-23.5 5h-40l5 20h275q190 0 192 -132q0 -85 -52 -148t-139 -82q82 -35 84 -147q3 -87 16.5 -119t63.5 -32zM240 330l155 1q218 1 218 230q-1 56 -37 77.5t-111 21.5h-155z" />
    <glyph glyph-name="rcaron" unicode="&#x159;" horiz-adv-x="380" 
d="M467 700l7 -20q-43 -20 -93.5 -60.5t-77.5 -71.5h-23q-13 30 -47 71t-67 61l15 20q62 -30 122 -97q91 68 164 97zM387 510q53 0 53 -36q0 -16 -9.5 -25t-21.5 -9q-22 0 -22 22q0 23 -15 23q-43 0 -99.5 -69t-81.5 -186l-50 -230h-50l95 450q4 19 0 24.5t-24 5.5h-44l4 20
h124l-29 -140q33 66 80 108t90 42z" />
    <glyph glyph-name="Sacute" unicode="&#x15a;" horiz-adv-x="550" 
d="M567 880q21 0 21 -21q0 -33 -67 -72t-124 -57l-6 20q45 15 70.5 32.5t47.5 51.5q30 46 58 46zM410 690q42 0 76 -11t53 -22.5t27 -11.5q11 0 14 15l5 20h20l-36 -165h-20q15 69 -28.5 109.5t-111.5 40.5q-76 0 -122.5 -39t-46.5 -104q0 -40 30 -71.5t72.5 -55t85 -47.5
t72.5 -62t30 -86q0 -94 -72.5 -152t-179.5 -58q-51 0 -90.5 11t-61 22.5t-28.5 11.5q-11 0 -14 -15l-4 -20h-20l35 165h20q-15 -73 30 -111.5t133 -38.5q90 0 148.5 49.5t58.5 128.5q0 40 -30 72t-72.5 54t-85 45.5t-72.5 59t-30 81.5q0 82 62 133.5t153 51.5z" />
    <glyph glyph-name="sacute" unicode="&#x15b;" horiz-adv-x="460" 
d="M489 700q21 0 21 -21q0 -33 -67 -72t-124 -57l-6 20q45 15 70.5 32.5t47.5 51.5q30 46 58 46zM327 510q71 0 112 -31t41 -71q0 -38 -31 -38q-21 0 -21 19q0 3 1.5 11t1.5 13q0 32 -25 54.5t-83 22.5q-61 0 -96 -27.5t-35 -76.5q0 -30 25.5 -53.5t62 -41.5t73.5 -36.5
t62.5 -48t25.5 -66.5q0 -70 -58 -110t-147 -40q-84 0 -128.5 31t-44.5 71q0 38 31 38q21 0 21 -19q0 -3 -1.5 -11t-1.5 -13q0 -77 128 -77q71 0 112 30.5t41 88.5q0 32 -25.5 57t-62.5 42.5t-74 36t-62.5 47t-25.5 65.5q0 62 51.5 97.5t132.5 35.5z" />
    <glyph glyph-name="Scedilla" unicode="&#x15e;" horiz-adv-x="550" 
d="M585 680h20l-36 -165h-20q15 69 -28.5 109.5t-111.5 40.5q-76 0 -122.5 -39t-46.5 -104q0 -40 30 -71.5t72.5 -55t85 -47.5t72.5 -62t30 -86q0 -93 -70 -150.5t-175 -59.5l-27 -43q31 -3 53 -17.5t22 -42.5q0 -41 -32.5 -69t-84.5 -28q-34 0 -59 12l9 20q24 -12 53 -12
q34 0 54 22t20 52q0 47 -67 46l39 60q-47 1 -83.5 12.5t-56.5 22t-27 10.5q-11 0 -14 -15l-4 -20h-20l35 165h20q-15 -73 30 -111.5t133 -38.5q90 0 148.5 49.5t58.5 128.5q0 40 -30 72t-72.5 54t-85 45.5t-72.5 59t-30 81.5q0 82 62 133.5t153 51.5q42 0 76 -11t53 -22.5
t27 -11.5q11 0 14 15z" />
    <glyph glyph-name="scedilla" unicode="&#x15f;" horiz-adv-x="460" 
d="M327 510q71 0 112 -31t41 -71q0 -38 -31 -38q-21 0 -21 19q0 3 1.5 11t1.5 13q0 32 -25 54.5t-83 22.5q-61 0 -96 -27.5t-35 -76.5q0 -30 25.5 -53.5t62 -41.5t73.5 -36.5t62.5 -48t25.5 -66.5q0 -70 -58 -110t-147 -40h-1l-27 -43q31 -3 53 -17.5t22 -42.5
q0 -41 -32.5 -69t-84.5 -28q-34 0 -59 12l9 20q24 -12 53 -12q34 0 54 22t20 52q0 47 -67 46l39 61q-74 3 -113 33t-39 68t31 38q21 0 21 -19q0 -3 -1.5 -11t-1.5 -13q0 -77 128 -77q71 0 112 30.5t41 88.5q0 32 -25.5 57t-62.5 42.5t-74 36t-62.5 47t-25.5 65.5
q0 62 51.5 97.5t132.5 35.5z" />
    <glyph glyph-name="Scaron" unicode="&#x160;" horiz-adv-x="550" 
d="M600 880l7 -20q-43 -20 -93.5 -60.5t-77.5 -71.5h-23q-13 30 -47 71t-67 61l15 20q62 -30 122 -97q91 68 164 97zM410 690q42 0 76 -11t53 -22.5t27 -11.5q11 0 14 15l5 20h20l-36 -165h-20q15 69 -28.5 109.5t-111.5 40.5q-76 0 -122.5 -39t-46.5 -104q0 -40 30 -71.5
t72.5 -55t85 -47.5t72.5 -62t30 -86q0 -94 -72.5 -152t-179.5 -58q-51 0 -90.5 11t-61 22.5t-28.5 11.5q-11 0 -14 -15l-4 -20h-20l35 165h20q-15 -73 30 -111.5t133 -38.5q90 0 148.5 49.5t58.5 128.5q0 40 -30 72t-72.5 54t-85 45.5t-72.5 59t-30 81.5q0 82 62 133.5
t153 51.5z" />
    <glyph glyph-name="scaron" unicode="&#x161;" horiz-adv-x="460" 
d="M522 700l7 -20q-43 -20 -93.5 -60.5t-77.5 -71.5h-23q-13 30 -47 71t-67 61l15 20q62 -30 122 -97q91 68 164 97zM327 510q71 0 112 -31t41 -71q0 -38 -31 -38q-21 0 -21 19q0 3 1.5 11t1.5 13q0 32 -25 54.5t-83 22.5q-61 0 -96 -27.5t-35 -76.5q0 -30 25.5 -53.5
t62 -41.5t73.5 -36.5t62.5 -48t25.5 -66.5q0 -70 -58 -110t-147 -40q-84 0 -128.5 31t-44.5 71q0 38 31 38q21 0 21 -19q0 -3 -1.5 -11t-1.5 -13q0 -77 128 -77q71 0 112 30.5t41 88.5q0 32 -25.5 57t-62.5 42.5t-74 36t-62.5 47t-25.5 65.5q0 62 51.5 97.5t132.5 35.5z" />
    <glyph glyph-name="uni0162" unicode="&#x162;" horiz-adv-x="590" 
d="M185 680h510l-35 -164h-20l6 30q13 60 -1.5 87t-68.5 27h-86q-20 0 -26 -5.5t-10 -24.5l-123 -580q-5 -20 -0.5 -25t23.5 -5h40l-4 -20h-84l-33 -53q31 -3 53 -17.5t22 -42.5q0 -41 -32.5 -69t-84.5 -28q-33 0 -59 12l9 20q24 -12 53 -12q34 0 54 22t20 52q0 47 -67 46
l45 70h-86l4 20h40q20 0 26.5 5.5t10.5 24.5l123 580q4 20 -0.5 25t-23.5 5h-86q-54 0 -79.5 -27t-38.5 -87l-6 -30h-20z" />
    <glyph glyph-name="uni0163" unicode="&#x163;" horiz-adv-x="280" 
d="M242 480l-83 -389q-4 -17 -4 -34q0 -42 38 -42q20 0 38 13.5t25 44.5h20q-9 -44 -38 -63.5t-60 -19.5h-2l-27 -43q31 -3 53 -17.5t22 -42.5q0 -41 -32.5 -69t-84.5 -28q-33 0 -59 12l9 20q24 -12 53 -12q34 0 54 22t20 52q0 47 -67 46l40 62q-52 9 -52 64q0 12 4 34
l83 390h-70l4 20h70l58 130h20l-28 -130h120l-4 -20h-120z" />
    <glyph glyph-name="Tcaron" unicode="&#x164;" horiz-adv-x="590" 
d="M626 880l7 -20q-43 -20 -93.5 -60.5t-77.5 -71.5h-23q-13 30 -47 71t-67 61l15 20q62 -30 122 -97q91 68 164 97zM695 680l-35 -164h-20l6 30q13 60 -1.5 87t-68.5 27h-86q-20 0 -26 -5.5t-10 -24.5l-123 -580q-5 -20 -0.5 -25t23.5 -5h40l-4 -20h-190l4 20h40
q20 0 26.5 5.5t10.5 24.5l123 580q4 20 -0.5 25t-23.5 5h-86q-54 0 -79.5 -27t-38.5 -87l-6 -30h-20l35 164h510z" />
    <glyph glyph-name="tcaron" unicode="&#x165;" horiz-adv-x="280" 
d="M371 710q30 0 30 -36q0 -46 -30.5 -85t-73.5 -39l3 15q28 0 48.5 23.5t20.5 47.5q0 14 -11 14q-24 0 -24 21q0 16 10.5 27.5t26.5 11.5zM242 480l-83 -389q-4 -17 -4 -34q0 -42 38 -42q20 0 38 13.5t25 44.5h20q-9 -44 -38 -63.5t-60 -19.5q-73 0 -73 66q0 12 4 34
l83 390h-70l4 20h70l58 130h20l-28 -130h120l-4 -20h-120z" />
    <glyph glyph-name="Tbar" unicode="&#x166;" horiz-adv-x="590" 
d="M185 680h510l-35 -164h-20l6 30q13 60 -1.5 87t-68.5 27h-86q-20 0 -26 -5.5t-10 -24.5l-58 -275h119l-6 -30h-120l-58 -275q-5 -20 -0.5 -25t23.5 -5h40l-4 -20h-190l4 20h40q20 0 26.5 5.5t10.5 24.5l58 275h-120l6 30h121l58 275q4 20 -0.5 25t-23.5 5h-86
q-54 0 -79.5 -27t-38.5 -87l-6 -30h-20z" />
    <glyph glyph-name="tbar" unicode="&#x167;" horiz-adv-x="280" 
d="M362 480h-120l-42 -195h110l-4 -30h-112l-35 -164q-4 -17 -4 -34q0 -42 38 -42q20 0 38 13.5t25 44.5h20q-9 -44 -38 -63.5t-60 -19.5q-73 0 -73 66q0 12 4 34l35 165h-70l4 30h73l41 195h-70l4 20h70l58 130h20l-28 -130h120z" />
    <glyph glyph-name="Umacron" unicode="&#x16a;" horiz-adv-x="740" 
d="M668 810l-6 -30h-250l6 30h250zM840 680l-5 -20h-36q-20 0 -26 -5.5t-10 -24.5l-86 -405q-25 -116 -110 -175.5t-189 -59.5q-109 0 -164.5 45.5t-55.5 132.5q0 37 8 72l83 390q4 20 -0.5 25t-23.5 5h-40l5 20h190l-5 -20h-40q-20 0 -26 -5.5t-10 -24.5l-86 -405
q-8 -40 -8 -67q0 -143 178 -143q97 0 172 53.5t97 156.5l86 405q4 20 -0.5 25t-23.5 5h-36l5 20h157z" />
    <glyph glyph-name="umacron" unicode="&#x16b;" horiz-adv-x="580" 
d="M534 630l-6 -30h-250l6 30h250zM246 500l-70 -335q-32 -155 92 -155q165 0 230 310l38 180h50l-91 -429q-12 -56 21 -56q15 0 29 14t21 44h20q-11 -47 -37 -65t-51 -18q-70 0 -53 80l16 75q-37 -81 -88.5 -118t-108.5 -37q-86 0 -120.5 47t-17.5 128l60 285q4 20 -0.5 25
t-23.5 5h-44l4 20h124z" />
    <glyph glyph-name="Uring" unicode="&#x16e;" horiz-adv-x="740" 
d="M576 965q40 0 64.5 -23.5t24.5 -60.5q0 -56 -41 -96t-95 -40q-41 0 -65.5 23.5t-24.5 62.5q0 52 41.5 93t95.5 41zM570 939q-44 0 -74 -31t-30 -73q0 -29 18.5 -46.5t50.5 -17.5q43 0 73 30t30 75q0 29 -18 46t-50 17zM840 680l-5 -20h-36q-20 0 -26 -5.5t-10 -24.5
l-86 -405q-25 -116 -110 -175.5t-189 -59.5q-109 0 -164.5 45.5t-55.5 132.5q0 37 8 72l83 390q4 20 -0.5 25t-23.5 5h-40l5 20h190l-5 -20h-40q-20 0 -26 -5.5t-10 -24.5l-86 -405q-8 -40 -8 -67q0 -143 178 -143q97 0 172 53.5t97 156.5l86 405q4 20 -0.5 25t-23.5 5h-36
l5 20h157z" />
    <glyph glyph-name="uring" unicode="&#x16f;" horiz-adv-x="580" 
d="M442 785q40 0 64.5 -23.5t24.5 -60.5q0 -56 -41 -96t-95 -40q-41 0 -65.5 23.5t-24.5 62.5q0 52 41.5 93t95.5 41zM436 759q-44 0 -74 -31t-30 -73q0 -29 18.5 -46.5t50.5 -17.5q43 0 73 30t30 75q0 29 -18 46t-50 17zM246 500l-70 -335q-32 -155 92 -155q165 0 230 310
l38 180h50l-91 -429q-12 -56 21 -56q15 0 29 14t21 44h20q-11 -47 -37 -65t-51 -18q-70 0 -53 80l16 75q-37 -81 -88.5 -118t-108.5 -37q-86 0 -120.5 47t-17.5 128l60 285q4 20 -0.5 25t-23.5 5h-44l4 20h124z" />
    <glyph glyph-name="Uhungarumlaut" unicode="&#x170;" horiz-adv-x="740" 
d="M608 880q21 0 21 -21q0 -33 -67 -72t-124 -57l-6 20q45 15 70.5 32.5t47.5 51.5q30 46 58 46zM758 880q21 0 21 -21q0 -33 -67 -72t-124 -57l-6 20q45 15 70.5 32.5t47.5 51.5q30 46 58 46zM840 680l-5 -20h-36q-20 0 -26 -5.5t-10 -24.5l-86 -405q-25 -116 -110 -175.5
t-189 -59.5q-109 0 -164.5 45.5t-55.5 132.5q0 37 8 72l83 390q4 20 -0.5 25t-23.5 5h-40l5 20h190l-5 -20h-40q-20 0 -26 -5.5t-10 -24.5l-86 -405q-8 -40 -8 -67q0 -143 178 -143q97 0 172 53.5t97 156.5l86 405q4 20 -0.5 25t-23.5 5h-36l5 20h157z" />
    <glyph glyph-name="uhungarumlaut" unicode="&#x171;" horiz-adv-x="580" 
d="M474 700q21 0 21 -21q0 -33 -67 -72t-124 -57l-6 20q45 15 70.5 32.5t47.5 51.5q30 46 58 46zM624 700q21 0 21 -21q0 -33 -67 -72t-124 -57l-6 20q45 15 70.5 32.5t47.5 51.5q30 46 58 46zM246 500l-70 -335q-32 -155 92 -155q165 0 230 310l38 180h50l-91 -429
q-12 -56 21 -56q15 0 29 14t21 44h20q-11 -47 -37 -65t-51 -18q-70 0 -53 80l16 75q-37 -81 -88.5 -118t-108.5 -37q-86 0 -120.5 47t-17.5 128l60 285q4 20 -0.5 25t-23.5 5h-44l4 20h124z" />
    <glyph glyph-name="Uogonek" unicode="&#x172;" horiz-adv-x="740" 
d="M683 680h157l-5 -20h-36q-20 0 -26 -5.5t-10 -24.5l-86 -405q-24 -113 -105.5 -172.5t-181.5 -62.5q-39 -29 -66 -65t-27 -64q0 -36 45 -36q34 0 59 17l4 -13q-34 -29 -80 -29q-27 0 -43 13t-16 38q0 69 100 139q-103 2 -155.5 47.5t-52.5 130.5q0 37 8 72l83 390
q4 20 -0.5 25t-23.5 5h-40l5 20h190l-5 -20h-40q-20 0 -26 -5.5t-10 -24.5l-86 -405q-8 -40 -8 -67q0 -143 178 -143q97 0 172 53.5t97 156.5l86 405q4 20 -0.5 25t-23.5 5h-36z" />
    <glyph glyph-name="uogonek" unicode="&#x173;" horiz-adv-x="580" 
d="M516 15q15 0 29 14t21 44h20q-13 -55 -52 -74q-42 -29 -73 -68.5t-31 -69.5q0 -36 45 -36q34 0 59 17l4 -13q-34 -29 -80 -29q-26 0 -42.5 13t-16.5 38q0 70 100 139h-1q-70 0 -53 80l16 75q-37 -81 -88.5 -118t-108.5 -37q-86 0 -120.5 47t-17.5 128l60 285
q4 20 -0.5 25t-23.5 5h-44l4 20h124l-70 -335q-32 -155 92 -155q165 0 230 310l38 180h50l-91 -429q-12 -56 21 -56z" />
    <glyph glyph-name="Wcircumflex" unicode="&#x174;" horiz-adv-x="1020" 
d="M798 728q-59 29 -122 97q-87 -66 -164 -97l-6 20q42 20 93.5 61t77.5 71h23q13 -31 46.5 -71.5t67.5 -60.5zM980 680h175l-5 -20h-34q-20 0 -27.5 -5t-19.5 -25l-372 -635h-25l-52 482l-283 -482h-25l-89 635q-3 19 -11 24.5t-29 5.5h-33l5 20h195l-5 -20h-51
q-16 0 -19.5 -6.5t-1.5 -23.5l78 -567l264 455l-12 112q-2 19 -10.5 24.5t-29.5 5.5h-33l5 20h195l-5 -20h-51q-16 0 -19.5 -6t-1.5 -24l58 -567l328 565q18 32 -8 32h-56z" />
    <glyph glyph-name="wcircumflex" unicode="&#x175;" horiz-adv-x="805" 
d="M518 645q-87 -66 -164 -97l-6 20q42 20 93.5 61t77.5 71h23q13 -31 46.5 -71.5t67.5 -60.5l-16 -20q-59 29 -122 97zM749 510q25 0 38 -26t13 -65q0 -48 -21 -92t-55 -81t-69.5 -73t-71 -84t-54.5 -99h-25q18 39 18 78q0 49 -34 132t-37 92q-18 -50 -87 -139.5
t-95 -162.5h-25q18 39 18 78q0 54 -51 147t-51 145q0 72 71 150l15 -15q-48 -55 -48 -107q0 -35 22 -78t44.5 -92t22.5 -98q0 -30 -9 -64q22 42 61.5 96t66.5 98.5t35 88.5q-1 7 -1 21q0 72 71 150l15 -15q-48 -55 -48 -107q0 -39 34.5 -122.5t34.5 -145.5q0 -30 -9 -64
q26 50 85 113t99.5 115t40.5 97q0 28 -10 46.5t-20 30.5t-10 23q0 13 8 21t18 8z" />
    <glyph glyph-name="Ycircumflex" unicode="&#x176;" horiz-adv-x="650" 
d="M636 728q-59 29 -122 97q-87 -66 -164 -97l-6 20q42 20 93.5 61t77.5 71h23q13 -31 46.5 -71.5t67.5 -60.5zM785 680l-5 -20h-25q-44 0 -67 -30l-280 -359l-47 -221q-5 -20 -0.5 -25t23.5 -5h40l-4 -20h-190l4 20h40q20 0 26.5 5.5t10.5 24.5l45 214l-121 366
q-6 18 -15.5 24t-29.5 6h-40l5 20h227l-5 -20h-68q-21 0 -24.5 -8t3.5 -22l109 -338l262 335q15 20 12.5 26.5t-20.5 6.5h-66l5 20h195z" />
    <glyph glyph-name="ycircumflex" unicode="&#x177;" horiz-adv-x="545" 
d="M522 548q-59 29 -122 97q-87 -66 -164 -97l-6 20q42 20 93.5 61t77.5 71h23q13 -31 46.5 -71.5t67.5 -60.5zM489 510q25 0 38 -26t13 -65q0 -63 -51 -171t-122 -208.5t-151.5 -175t-133.5 -74.5q-23 0 -36.5 11.5t-13.5 27.5t8.5 26t22.5 10q21 0 21 -21q0 -5 -4 -13
t-4 -12q0 -9 16 -9q41 0 112.5 73.5t71.5 122.5q0 61 -29 127.5t-58 125t-29 101.5q0 72 71 150l15 -15q-48 -55 -48 -107q0 -33 17 -72.5t37 -72t37 -81.5t17 -99q0 -40 -12 -88q209 285 209 406q0 28 -10 46.5t-20 30.5t-10 23q0 13 8 21t18 8z" />
    <glyph glyph-name="Ydieresis" unicode="&#x178;" horiz-adv-x="650" 
d="M435 830q13 0 21 -8t8 -20q0 -16 -14 -29t-30 -13q-13 0 -20.5 8t-7.5 20q0 16 13.5 29t29.5 13zM595 830q13 0 21 -8t8 -20q0 -16 -14 -29t-30 -13q-13 0 -20.5 8t-7.5 20q0 16 13.5 29t29.5 13zM785 680l-5 -20h-25q-44 0 -67 -30l-280 -359l-47 -221q-5 -20 -0.5 -25
t23.5 -5h40l-4 -20h-190l4 20h40q20 0 26.5 5.5t10.5 24.5l45 214l-121 366q-6 18 -15.5 24t-29.5 6h-40l5 20h227l-5 -20h-68q-21 0 -24.5 -8t3.5 -22l109 -338l262 335q15 20 12.5 26.5t-20.5 6.5h-66l5 20h195z" />
    <glyph glyph-name="Zacute" unicode="&#x179;" horiz-adv-x="640" 
d="M618 880q21 0 21 -21q0 -33 -67 -72t-124 -57l-6 20q45 15 70.5 32.5t47.5 51.5q30 46 58 46zM705 680l-5 -20l-573 -640h343q54 0 79.5 27t38.5 87l7 30h20l-35 -164h-520l4 20l573 640h-303q-54 0 -79.5 -27t-38.5 -87l-6 -30h-20l35 164h480z" />
    <glyph glyph-name="zacute" unicode="&#x17a;" horiz-adv-x="460" 
d="M520 679q0 -33 -67 -72t-124 -57l-6 20q45 15 70.5 32.5t47.5 51.5q30 46 58 46q21 0 21 -21zM393 3q57 0 74 70h16q-23 -113 -120 -113q-31 0 -59.5 13.5t-47 30t-45 30t-53.5 13.5q-53 0 -100 -58l-15 10q47 75 110.5 145.5t116.5 115t120 102.5t107 101
q-56 -38 -131 -38q-19 0 -38 2t-43 6.5t-36.5 7.5t-42 10t-36.5 9l-25 -100h-20l35 150q208 -41 262 -41q47 0 68 12t37 40l20 -10q-26 -52 -86 -115t-120.5 -113t-128 -112.5t-102.5 -111.5q23 13 57 13q46 0 120 -34.5t106 -34.5z" />
    <glyph glyph-name="Zdotaccent" unicode="&#x17b;" horiz-adv-x="640" 
d="M497 830q13 0 21 -8t8 -20q0 -16 -14 -29t-30 -13q-13 0 -20.5 8t-7.5 20q0 16 13.5 29t29.5 13zM705 680l-5 -20l-573 -640h343q54 0 79.5 27t38.5 87l7 30h20l-35 -164h-520l4 20l573 640h-303q-54 0 -79.5 -27t-38.5 -87l-6 -30h-20l35 164h480z" />
    <glyph glyph-name="zdotaccent" unicode="&#x17c;" horiz-adv-x="460" 
d="M363 580q-13 0 -20.5 8t-7.5 20q0 16 13.5 29t29.5 13q13 0 21 -8t8 -20q0 -16 -14 -29t-30 -13zM393 3q57 0 74 70h16q-23 -113 -120 -113q-31 0 -59.5 13.5t-47 30t-45 30t-53.5 13.5q-53 0 -100 -58l-15 10q47 75 110.5 145.5t116.5 115t120 102.5t107 101
q-56 -38 -131 -38q-19 0 -38 2t-43 6.5t-36.5 7.5t-42 10t-36.5 9l-25 -100h-20l35 150q208 -41 262 -41q47 0 68 12t37 40l20 -10q-26 -52 -86 -115t-120.5 -113t-128 -112.5t-102.5 -111.5q23 13 57 13q46 0 120 -34.5t106 -34.5z" />
    <glyph glyph-name="Zcaron" unicode="&#x17d;" horiz-adv-x="640" 
d="M651 880l7 -20q-43 -20 -93.5 -60.5t-77.5 -71.5h-23q-13 30 -47 71t-67 61l15 20q62 -30 122 -97q91 68 164 97zM705 680l-5 -20l-573 -640h343q54 0 79.5 27t38.5 87l7 30h20l-35 -164h-520l4 20l573 640h-303q-54 0 -79.5 -27t-38.5 -87l-6 -30h-20l35 164h480z" />
    <glyph glyph-name="zcaron" unicode="&#x17e;" horiz-adv-x="460" 
d="M345 548q-13 30 -47 71t-67 61l15 20q62 -30 122 -97q91 68 164 97l7 -20q-43 -20 -93.5 -60.5t-77.5 -71.5h-23zM393 3q57 0 74 70h16q-23 -113 -120 -113q-31 0 -59.5 13.5t-47 30t-45 30t-53.5 13.5q-53 0 -100 -58l-15 10q47 75 110.5 145.5t116.5 115t120 102.5
t107 101q-56 -38 -131 -38q-19 0 -38 2t-43 6.5t-36.5 7.5t-42 10t-36.5 9l-25 -100h-20l35 150q208 -41 262 -41q47 0 68 12t37 40l20 -10q-26 -52 -86 -115t-120.5 -113t-128 -112.5t-102.5 -111.5q23 13 57 13q46 0 120 -34.5t106 -34.5z" />
    <glyph glyph-name="florin" unicode="&#x192;" horiz-adv-x="364" 
d="M461 710q28 0 42.5 -14t14.5 -33q0 -16 -10 -27t-24 -11q-19 0 -19 17q0 8 5 19.5t5 15.5q0 13 -25 13q-62 0 -93 -104l-28 -86h105l-7 -20h-105l-173 -544q-22 -71 -64.5 -108.5t-96.5 -37.5q-30 0 -44 15t-14 34q0 16 10.5 26t24.5 10q19 0 19 -15q0 -3 -5 -18t-5 -19
q0 -13 26 -13q60 0 93 104l179 566h-70l7 20h70l20 64q22 71 65 108.5t97 37.5z" />
    <glyph glyph-name="Scommaaccent" unicode="&#x218;" horiz-adv-x="550" 
d="M410 690q42 0 76 -11t53 -22.5t27 -11.5q11 0 14 15l5 20h20l-36 -165h-20q15 69 -28.5 109.5t-111.5 40.5q-76 0 -122.5 -39t-46.5 -104q0 -40 30 -71.5t72.5 -55t85 -47.5t72.5 -62t30 -86q0 -94 -72.5 -152t-179.5 -58q-51 0 -90.5 11t-61 22.5t-28.5 11.5
q-11 0 -14 -15l-4 -20h-20l35 165h20q-15 -73 30 -111.5t133 -38.5q90 0 148.5 49.5t58.5 128.5q0 40 -30 72t-72.5 54t-85 45.5t-72.5 59t-30 81.5q0 82 62 133.5t153 51.5zM267 -60q31 0 31 -35q0 -45 -29.5 -80t-73.5 -35l4 15q28 0 47.5 18.5t19.5 41.5q0 15 -12 15
q-24 0 -24 21q0 16 10.5 27.5t26.5 11.5z" />
    <glyph glyph-name="scommaaccent" unicode="&#x219;" horiz-adv-x="460" 
d="M327 510q71 0 112 -31t41 -71q0 -38 -31 -38q-21 0 -21 19q0 3 1.5 11t1.5 13q0 32 -25 54.5t-83 22.5q-61 0 -96 -27.5t-35 -76.5q0 -30 25.5 -53.5t62 -41.5t73.5 -36.5t62.5 -48t25.5 -66.5q0 -70 -58 -110t-147 -40q-84 0 -128.5 31t-44.5 71q0 38 31 38q21 0 21 -19
q0 -3 -1.5 -11t-1.5 -13q0 -77 128 -77q71 0 112 30.5t41 88.5q0 32 -25.5 57t-62.5 42.5t-74 36t-62.5 47t-25.5 65.5q0 62 51.5 97.5t132.5 35.5zM217 -60q31 0 31 -35q0 -45 -29.5 -80t-73.5 -35l4 15q28 0 47.5 18.5t19.5 41.5q0 15 -12 15q-24 0 -24 21q0 16 10.5 27.5
t26.5 11.5z" />
    <glyph glyph-name="uni021A" unicode="&#x21a;" horiz-adv-x="590" 
d="M695 680l-35 -164h-20l6 30q13 60 -1.5 87t-68.5 27h-86q-20 0 -26 -5.5t-10 -24.5l-123 -580q-5 -20 -0.5 -25t23.5 -5h40l-4 -20h-190l4 20h40q20 0 26.5 5.5t10.5 24.5l123 580q4 20 -0.5 25t-23.5 5h-86q-54 0 -79.5 -27t-38.5 -87l-6 -30h-20l35 164h510zM282 -60
q31 0 31 -35q0 -45 -29.5 -80t-73.5 -35l4 15q28 0 47.5 18.5t19.5 41.5q0 15 -12 15q-24 0 -24 21q0 16 10.5 27.5t26.5 11.5z" />
    <glyph glyph-name="uni021B" unicode="&#x21b;" horiz-adv-x="280" 
d="M242 480l-83 -389q-4 -17 -4 -34q0 -42 38 -42q20 0 38 13.5t25 44.5h20q-9 -44 -38 -63.5t-60 -19.5q-73 0 -73 66q0 12 4 34l83 390h-70l4 20h70l58 130h20l-28 -130h120l-4 -20h-120zM158 -60q31 0 31 -35q0 -45 -29.5 -80t-73.5 -35l4 15q28 0 47.5 18.5t19.5 41.5
q0 15 -12 15q-24 0 -24 21q0 16 10.5 27.5t26.5 11.5z" />
    <glyph glyph-name="uni0237" unicode="&#x237;" horiz-adv-x="220" 
d="M246 500l-120 -564q-14 -69 -51.5 -107.5t-89.5 -38.5q-31 0 -50 12.5t-19 33.5q0 16 9.5 27.5t23.5 11.5q20 0 20 -19q0 -5 -3.5 -15t-3.5 -15q0 -16 28 -16q60 0 82 104l114 536q4 19 0 24.5t-24 5.5h-44l4 20h124z" />
    <glyph glyph-name="circumflex" unicode="&#x2c6;" horiz-adv-x="420" 
d="M469 548q-59 29 -122 97q-87 -66 -164 -97l-6 20q42 20 93.5 61t77.5 71h23q13 -31 46.5 -71.5t67.5 -60.5z" />
    <glyph glyph-name="caron" unicode="&#x2c7;" horiz-adv-x="420" 
d="M502 700l7 -20q-43 -20 -93.5 -60.5t-77.5 -71.5h-23q-13 30 -47 71t-67 61l15 20q62 -30 122 -97q91 68 164 97z" />
    <glyph glyph-name="breve" unicode="&#x2d8;" horiz-adv-x="375" 
d="M460 683q-25 -67 -67 -100t-91 -33q-48 0 -74.5 33t-22.5 100h20q-1 -36 18.5 -59.5t69.5 -23.5q96 0 127 83h20z" />
    <glyph glyph-name="dotaccent" unicode="&#x2d9;" horiz-adv-x="190" 
d="M233 650q13 0 21 -8t8 -20q0 -16 -14 -29t-30 -13q-13 0 -20.5 8t-7.5 20q0 16 13.5 29t29.5 13z" />
    <glyph glyph-name="ring" unicode="&#x2da;" horiz-adv-x="290" 
d="M312 785q40 0 64.5 -23.5t24.5 -60.5q0 -56 -41 -96t-95 -40q-41 0 -65.5 23.5t-24.5 62.5q0 52 41.5 93t95.5 41zM306 759q-44 0 -74 -31t-30 -73q0 -29 18.5 -46.5t50.5 -17.5q43 0 73 30t30 75q0 29 -18 46t-50 17z" />
    <glyph glyph-name="ogonek" unicode="&#x2db;" horiz-adv-x="245" 
d="M157 0q-43 -29 -74.5 -68.5t-31.5 -70.5q0 -36 45 -36q34 0 59 17l4 -13q-34 -29 -80 -29q-27 0 -43 13t-16 38q0 75 115 149h22z" />
    <glyph glyph-name="tilde" unicode="&#x2dc;" horiz-adv-x="400" 
d="M482 666q-9 -41 -32.5 -63.5t-54.5 -22.5q-25 0 -71.5 23t-69.5 23q-38 0 -49 -46h-22q9 41 33 63.5t58 22.5q26 0 69.5 -23t67.5 -23q38 0 49 46h22z" />
    <glyph glyph-name="hungarumlaut" unicode="&#x2dd;" horiz-adv-x="440" 
d="M353 700q21 0 21 -21q0 -33 -67 -72t-124 -57l-6 20q45 15 70.5 32.5t47.5 51.5q30 46 58 46zM503 700q21 0 21 -21q0 -33 -67 -72t-124 -57l-6 20q45 15 70.5 32.5t47.5 51.5q30 46 58 46z" />
    <glyph glyph-name="gravecomb" unicode="&#x300;" horiz-adv-x="0" 
d="M-55 700q8 0 14 -2.5t13 -13t11 -30.5q7 -34 25 -51.5t57 -32.5l-14 -20q-46 17 -92.5 51t-46.5 64q0 17 10.5 26t22.5 9z" />
    <glyph glyph-name="acutecomb" unicode="&#x301;" horiz-adv-x="0" 
d="M63 700q21 0 21 -21q0 -33 -67 -72t-124 -57l-6 20q45 15 70.5 32.5t47.5 51.5q30 46 58 46z" />
    <glyph glyph-name="uni0302" unicode="&#x302;" horiz-adv-x="0" 
d="M49 548q-59 29 -122 97q-87 -66 -164 -97l-6 20q42 20 93.5 61t77.5 71h23q13 -31 46.5 -71.5t67.5 -60.5z" />
    <glyph glyph-name="tildecomb" unicode="&#x303;" horiz-adv-x="0" 
d="M82 666q-9 -41 -32.5 -63.5t-54.5 -22.5q-25 0 -71.5 23t-69.5 23q-38 0 -49 -46h-22q9 41 33 63.5t58 22.5q26 0 69.5 -23t67.5 -23q38 0 49 46h22z" />
    <glyph glyph-name="uni0304" unicode="&#x304;" horiz-adv-x="0" 
d="M74 630l-6 -30h-250l6 30h250z" />
    <glyph glyph-name="uni0306" unicode="&#x306;" horiz-adv-x="0" 
d="M85 683q-25 -67 -67 -100t-91 -33q-48 0 -74.5 33t-22.5 100h20q-1 -36 18.5 -59.5t69.5 -23.5q96 0 127 83h20z" />
    <glyph glyph-name="uni0307" unicode="&#x307;" horiz-adv-x="0" 
d="M43 650q13 0 21 -8t8 -20q0 -16 -14 -29t-30 -13q-13 0 -20.5 8t-7.5 20q0 16 13.5 29t29.5 13z" />
    <glyph glyph-name="uni0308" unicode="&#x308;" horiz-adv-x="0" 
d="M-117 650q13 0 21 -8t8 -20q0 -16 -14 -29t-30 -13q-13 0 -20.5 8t-7.5 20q0 16 13.5 29t29.5 13zM43 650q13 0 21 -8t8 -20q0 -16 -14 -29t-30 -13q-13 0 -20.5 8t-7.5 20q0 16 13.5 29t29.5 13z" />
    <glyph glyph-name="uni030A" unicode="&#x30a;" horiz-adv-x="0" 
d="M22 785q40 0 64.5 -23.5t24.5 -60.5q0 -56 -41 -96t-95 -40q-41 0 -65.5 23.5t-24.5 62.5q0 52 41.5 93t95.5 41zM16 759q-44 0 -74 -31t-30 -73q0 -29 18.5 -46.5t50.5 -17.5q43 0 73 30t30 75q0 29 -18 46t-50 17z" />
    <glyph glyph-name="uni030B" unicode="&#x30b;" horiz-adv-x="0" 
d="M-87 700q21 0 21 -21q0 -33 -67 -72t-124 -57l-6 20q45 15 70.5 32.5t47.5 51.5q30 46 58 46zM63 700q21 0 21 -21q0 -33 -67 -72t-124 -57l-6 20q45 15 70.5 32.5t47.5 51.5q30 46 58 46z" />
    <glyph glyph-name="uni030C" unicode="&#x30c;" horiz-adv-x="0" 
d="M82 700l7 -20q-43 -20 -93.5 -60.5t-77.5 -71.5h-23q-13 30 -47 71t-67 61l15 20q62 -30 122 -97q91 68 164 97z" />
    <glyph glyph-name="uni0312" unicode="&#x312;" horiz-adv-x="0" 
d="M33 580q-31 0 -31 34q0 45 30 80.5t73 35.5l-3 -15q-28 0 -47.5 -18.5t-19.5 -42.5q0 -14 11 -14q25 0 25 -23q0 -15 -11 -26t-27 -11z" />
    <glyph glyph-name="uni0326" unicode="&#x326;" horiz-adv-x="0" 
d="M-103 -60q31 0 31 -35q0 -45 -29.5 -80t-73.5 -35l4 15q28 0 47.5 18.5t19.5 41.5q0 15 -12 15q-24 0 -24 21q0 16 10.5 27.5t26.5 11.5z" />
    <glyph glyph-name="uni0327" unicode="&#x327;" horiz-adv-x="0" 
d="M-118 0l-33 -53q31 -3 53 -17.5t22 -42.5q0 -41 -32.5 -69t-84.5 -28q-33 0 -59 12l9 20q24 -12 53 -12q34 0 54 22t20 52q0 47 -67 46l45 70h20z" />
    <glyph glyph-name="uni0328" unicode="&#x328;" horiz-adv-x="0" 
d="M-88 0q-43 -29 -74.5 -68.5t-31.5 -70.5q0 -36 45 -36q34 0 59 17l4 -13q-34 -29 -80 -29q-26 0 -42.5 13t-16.5 38q0 75 115 149h22z" />
    <glyph glyph-name="uni0335" unicode="&#x335;" horiz-adv-x="0" 
d="M8 273l-6 -30h-290l6 30h290z" />
    <glyph glyph-name="uni0336" unicode="&#x336;" horiz-adv-x="0" 
d="M8 273l-6 -30h-650l6 30h650z" />
    <glyph glyph-name="uni0337" unicode="&#x337;" horiz-adv-x="0" 
d="M-191 420l-226 -170l8 35l226 170z" />
    <glyph glyph-name="uni0338" unicode="&#x338;" horiz-adv-x="0" 
d="M74 700l-569 -700h-30l569 700h30z" />
    <glyph glyph-name="uni0394" unicode="&#x394;" horiz-adv-x="686" 
d="M493 685l128 -685h-556l403 685h25zM110 25h456l-111 595z" />
    <glyph glyph-name="uni03A9" unicode="&#x3a9;" horiz-adv-x="840" 
d="M748 134l7 30h25l-35 -164h-265l5 25l13 57h-1l6 25q135 31 220 124.5t85 215.5q0 102 -67.5 170t-174.5 68q-142 0 -256.5 -111.5t-114.5 -247.5q0 -78 46.5 -136.5t141.5 -82.5l-23 -107h-265l35 164h25l-7 -30q-9 -45 12.5 -77t74.5 -32h105l13 63q-103 27 -155.5 88
t-52.5 146q0 102 60.5 192.5t159 143t206.5 52.5q127 0 207.5 -71.5t80.5 -185.5q0 -136 -92.5 -232.5t-243.5 -132.5l-13 -63h105q54 0 89 32t44 77z" />
    <glyph glyph-name="uni03BC" unicode="&#x3bc;" horiz-adv-x="580" 
d="M516 15q15 0 29 14t21 44h20q-11 -47 -37 -65t-51 -18q-70 0 -53 80l16 75q-37 -81 -88.5 -118t-108.5 -37q-80 0 -117 43l-21 -97q-15 -68 -52 -107t-89 -39q-31 0 -50 12.5t-19 33.5q0 16 9.5 27.5t23.5 11.5q20 0 20 -19q0 -5 -3.5 -15t-3.5 -15q0 -16 28 -16
q60 0 82 104l54 251l60 285q4 20 -0.5 25t-23.5 5h-44l4 20h124l-70 -335q-32 -155 92 -155q165 0 230 310l38 180h50l-91 -429q-12 -56 21 -56z" />
    <glyph glyph-name="pi" unicode="&#x3c0;" horiz-adv-x="590" 
d="M666 500l-4 -20h-40q-20 0 -26 -5.5t-10 -24.5l-85 -400q-5 -20 -0.5 -25t23.5 -5h40l-4 -20h-190l4 20h40q20 0 26.5 5.5t10.5 24.5l90 425h-290l-90 -425q-5 -20 -0.5 -25t23.5 -5h40l-4 -20h-190l4 20h40q20 0 26.5 5.5t10.5 24.5l85 400q4 20 -0.5 25t-23.5 5h-40
l4 20h530z" />
    <glyph glyph-name="Wgrave" unicode="&#x1e80;" horiz-adv-x="1020" 
d="M598 880q8 0 14 -2.5t13 -13t11 -30.5q7 -34 25 -51.5t57 -32.5l-14 -20q-46 17 -92.5 51t-46.5 64q0 17 10.5 26t22.5 9zM980 680h175l-5 -20h-34q-20 0 -27.5 -5t-19.5 -25l-372 -635h-25l-52 482l-283 -482h-25l-89 635q-3 19 -11 24.5t-29 5.5h-33l5 20h195l-5 -20
h-51q-16 0 -19.5 -6.5t-1.5 -23.5l78 -567l264 455l-12 112q-2 19 -10.5 24.5t-29.5 5.5h-33l5 20h195l-5 -20h-51q-16 0 -19.5 -6t-1.5 -24l58 -567l328 565q18 32 -8 32h-56z" />
    <glyph glyph-name="wgrave" unicode="&#x1e81;" horiz-adv-x="805" 
d="M546 550q-46 17 -92.5 51t-46.5 64q0 17 10.5 26t22.5 9q8 0 14 -2.5t13 -13t11 -30.5q7 -34 25 -51.5t57 -32.5zM749 510q25 0 38 -26t13 -65q0 -48 -21 -92t-55 -81t-69.5 -73t-71 -84t-54.5 -99h-25q18 39 18 78q0 49 -34 132t-37 92q-18 -50 -87 -139.5t-95 -162.5
h-25q18 39 18 78q0 54 -51 147t-51 145q0 72 71 150l15 -15q-48 -55 -48 -107q0 -35 22 -78t44.5 -92t22.5 -98q0 -30 -9 -64q22 42 61.5 96t66.5 98.5t35 88.5q-1 7 -1 21q0 72 71 150l15 -15q-48 -55 -48 -107q0 -39 34.5 -122.5t34.5 -145.5q0 -30 -9 -64q26 50 85 113
t99.5 115t40.5 97q0 28 -10 46.5t-20 30.5t-10 23q0 13 8 21t18 8z" />
    <glyph glyph-name="Wacute" unicode="&#x1e82;" horiz-adv-x="1020" 
d="M798 880q21 0 21 -21q0 -33 -67 -72t-124 -57l-6 20q45 15 70.5 32.5t47.5 51.5q30 46 58 46zM980 680h175l-5 -20h-34q-20 0 -27.5 -5t-19.5 -25l-372 -635h-25l-52 482l-283 -482h-25l-89 635q-3 19 -11 24.5t-29 5.5h-33l5 20h195l-5 -20h-51q-16 0 -19.5 -6.5
t-1.5 -23.5l78 -567l264 455l-12 112q-2 19 -10.5 24.5t-29.5 5.5h-33l5 20h195l-5 -20h-51q-16 0 -19.5 -6t-1.5 -24l58 -567l328 565q18 32 -8 32h-56z" />
    <glyph glyph-name="wacute" unicode="&#x1e83;" horiz-adv-x="805" 
d="M661 679q0 -33 -67 -72t-124 -57l-6 20q45 15 70.5 32.5t47.5 51.5q30 46 58 46q21 0 21 -21zM749 510q25 0 38 -26t13 -65q0 -48 -21 -92t-55 -81t-69.5 -73t-71 -84t-54.5 -99h-25q18 39 18 78q0 49 -34 132t-37 92q-18 -50 -87 -139.5t-95 -162.5h-25q18 39 18 78
q0 54 -51 147t-51 145q0 72 71 150l15 -15q-48 -55 -48 -107q0 -35 22 -78t44.5 -92t22.5 -98q0 -30 -9 -64q22 42 61.5 96t66.5 98.5t35 88.5q-1 7 -1 21q0 72 71 150l15 -15q-48 -55 -48 -107q0 -39 34.5 -122.5t34.5 -145.5q0 -30 -9 -64q26 50 85 113t99.5 115t40.5 97
q0 28 -10 46.5t-20 30.5t-10 23q0 13 8 21t18 8z" />
    <glyph glyph-name="Wdieresis" unicode="&#x1e84;" horiz-adv-x="1020" 
d="M597 830q13 0 21 -8t8 -20q0 -16 -14 -29t-30 -13q-13 0 -20.5 8t-7.5 20q0 16 13.5 29t29.5 13zM757 830q13 0 21 -8t8 -20q0 -16 -14 -29t-30 -13q-13 0 -20.5 8t-7.5 20q0 16 13.5 29t29.5 13zM980 680h175l-5 -20h-34q-20 0 -27.5 -5t-19.5 -25l-372 -635h-25
l-52 482l-283 -482h-25l-89 635q-3 19 -11 24.5t-29 5.5h-33l5 20h195l-5 -20h-51q-16 0 -19.5 -6.5t-1.5 -23.5l78 -567l264 455l-12 112q-2 19 -10.5 24.5t-29.5 5.5h-33l5 20h195l-5 -20h-51q-16 0 -19.5 -6t-1.5 -24l58 -567l328 565q18 32 -8 32h-56z" />
    <glyph glyph-name="wdieresis" unicode="&#x1e85;" horiz-adv-x="805" 
d="M424 580q-13 0 -20.5 8t-7.5 20q0 16 13.5 29t29.5 13q13 0 21 -8t8 -20q0 -16 -14 -29t-30 -13zM584 580q-13 0 -20.5 8t-7.5 20q0 16 13.5 29t29.5 13q13 0 21 -8t8 -20q0 -16 -14 -29t-30 -13zM749 510q25 0 38 -26t13 -65q0 -48 -21 -92t-55 -81t-69.5 -73t-71 -84
t-54.5 -99h-25q18 39 18 78q0 49 -34 132t-37 92q-18 -50 -87 -139.5t-95 -162.5h-25q18 39 18 78q0 54 -51 147t-51 145q0 72 71 150l15 -15q-48 -55 -48 -107q0 -35 22 -78t44.5 -92t22.5 -98q0 -30 -9 -64q22 42 61.5 96t66.5 98.5t35 88.5q-1 7 -1 21q0 72 71 150
l15 -15q-48 -55 -48 -107q0 -39 34.5 -122.5t34.5 -145.5q0 -30 -9 -64q26 50 85 113t99.5 115t40.5 97q0 28 -10 46.5t-20 30.5t-10 23q0 13 8 21t18 8z" />
    <glyph glyph-name="Ygrave" unicode="&#x1ef2;" horiz-adv-x="650" 
d="M436 880q8 0 14 -2.5t13 -13t11 -30.5q7 -34 25 -51.5t57 -32.5l-14 -20q-46 17 -92.5 51t-46.5 64q0 17 10.5 26t22.5 9zM785 680l-5 -20h-25q-44 0 -67 -30l-280 -359l-47 -221q-5 -20 -0.5 -25t23.5 -5h40l-4 -20h-190l4 20h40q20 0 26.5 5.5t10.5 24.5l45 214
l-121 366q-6 18 -15.5 24t-29.5 6h-40l5 20h227l-5 -20h-68q-21 0 -24.5 -8t3.5 -22l109 -338l262 335q15 20 12.5 26.5t-20.5 6.5h-66l5 20h195z" />
    <glyph glyph-name="ygrave" unicode="&#x1ef3;" horiz-adv-x="545" 
d="M322 700q8 0 14 -2.5t13 -13t11 -30.5q7 -34 25 -51.5t57 -32.5l-14 -20q-46 17 -92.5 51t-46.5 64q0 17 10.5 26t22.5 9zM489 510q25 0 38 -26t13 -65q0 -63 -51 -171t-122 -208.5t-151.5 -175t-133.5 -74.5q-23 0 -36.5 11.5t-13.5 27.5t8.5 26t22.5 10q21 0 21 -21
q0 -5 -4 -13t-4 -12q0 -9 16 -9q41 0 112.5 73.5t71.5 122.5q0 61 -29 127.5t-58 125t-29 101.5q0 72 71 150l15 -15q-48 -55 -48 -107q0 -33 17 -72.5t37 -72t37 -81.5t17 -99q0 -40 -12 -88q209 285 209 406q0 28 -10 46.5t-20 30.5t-10 23q0 13 8 21t18 8z" />
    <glyph glyph-name="endash" unicode="&#x2013;" horiz-adv-x="490" 
d="M498 275l-6 -30h-390l6 30h390z" />
    <glyph glyph-name="emdash" unicode="&#x2014;" horiz-adv-x="640" 
d="M648 275l-6 -30h-540l6 30h540z" />
    <glyph glyph-name="quoteleft" unicode="&#x2018;" horiz-adv-x="180" 
d="M79 530q-30 0 -30 36q0 46 30.5 85t73.5 39l-3 -15q-27 0 -48 -23.5t-21 -47.5q0 -14 11 -14q25 0 25 -22q0 -16 -11 -27t-27 -11z" />
    <glyph glyph-name="quoteright" unicode="&#x2019;" horiz-adv-x="180" 
d="M101 690q30 0 30 -36q0 -46 -30.5 -85t-73.5 -39l3 15q27 0 48 23.5t21 47.5q0 14 -11 14q-25 0 -25 22q0 16 11 27t27 11z" />
    <glyph glyph-name="quotesinglbase" unicode="&#x201a;" horiz-adv-x="180" 
d="M101 50q30 0 30 -36q0 -46 -30.5 -85t-73.5 -39l3 15q27 0 48 23.5t21 47.5q0 14 -11 14q-25 0 -25 22q0 16 11 27t27 11z" />
    <glyph glyph-name="quotedblleft" unicode="&#x201c;" horiz-adv-x="300" 
d="M79 530q-30 0 -30 36q0 46 30.5 85t73.5 39l-3 -15q-27 0 -48 -23.5t-21 -47.5q0 -14 11 -14q25 0 25 -22q0 -16 -11 -27t-27 -11zM199 530q-30 0 -30 36q0 46 30.5 85t73.5 39l-3 -15q-27 0 -48 -23.5t-21 -47.5q0 -14 11 -14q25 0 25 -22q0 -16 -11 -27t-27 -11z" />
    <glyph glyph-name="quotedblright" unicode="&#x201d;" horiz-adv-x="300" 
d="M101 690q30 0 30 -36q0 -46 -30.5 -85t-73.5 -39l3 15q27 0 48 23.5t21 47.5q0 14 -11 14q-25 0 -25 22q0 16 11 27t27 11zM221 690q30 0 30 -36q0 -46 -30.5 -85t-73.5 -39l3 15q27 0 48 23.5t21 47.5q0 14 -11 14q-25 0 -25 22q0 16 11 27t27 11z" />
    <glyph glyph-name="quotedblbase" unicode="&#x201e;" horiz-adv-x="300" 
d="M101 50q30 0 30 -36q0 -46 -30.5 -85t-73.5 -39l3 15q27 0 48 23.5t21 47.5q0 14 -11 14q-25 0 -25 22q0 16 11 27t27 11zM221 50q30 0 30 -36q0 -46 -30.5 -85t-73.5 -39l3 15q27 0 48 23.5t21 47.5q0 14 -11 14q-25 0 -25 22q0 16 11 27t27 11z" />
    <glyph glyph-name="dagger" unicode="&#x2020;" horiz-adv-x="440" 
d="M367 690q14 0 19.5 -9t3.5 -21q-4 -19 -21.5 -57t-23.5 -63q25 1 65 10.5t59 9.5q12 0 19.5 -8t4.5 -22q-4 -14 -14.5 -22t-22.5 -8q-19 0 -55 9.5t-60 10.5q-4 -24 -9 -92t-10 -88q-1 -6 -36 -122.5t-56 -217.5h-20q22 102 37 221l15 119q5 20 29 88t30 92
q-25 -1 -65.5 -10.5t-59.5 -9.5q-12 0 -19.5 8t-3.5 22q3 14 13.5 22t22.5 8q19 0 55 -9.5t61 -10.5q4 25 2.5 64t2.5 56q2 12 12.5 21t24.5 9z" />
    <glyph glyph-name="daggerdbl" unicode="&#x2021;" horiz-adv-x="440" 
d="M388 180q12 0 19.5 -8t4.5 -22t-13.5 -22t-22.5 -8q-19 0 -55.5 9.5t-60.5 10.5q-5 -25 -3 -64t-3 -56q-2 -12 -12 -21t-24 -9t-20 9t-4 21q4 19 21.5 57t24.5 63q-25 -1 -65 -10.5t-59 -9.5q-12 0 -19.5 8t-4.5 22t13.5 22t22.5 8q19 0 55 -9.5t61 -10.5q4 23 9 91.5
t9 88.5q5 20 29 88t30 92q-25 -1 -65.5 -10.5t-59.5 -9.5q-12 0 -19.5 8t-3.5 22q3 14 13.5 22t22.5 8q19 0 55 -9.5t61 -10.5q4 25 2.5 64t2.5 56q2 12 12.5 21t24.5 9t19.5 -9t3.5 -21q-4 -19 -21.5 -57t-23.5 -63q25 1 65 10.5t59 9.5q12 0 19.5 -8t4.5 -22
q-4 -14 -14.5 -22t-22.5 -8q-19 0 -55 9.5t-60 10.5q-4 -24 -9 -92t-10 -88q-4 -20 -28 -88t-30 -92q25 1 65 10.5t59 9.5z" />
    <glyph glyph-name="bullet" unicode="&#x2022;" horiz-adv-x="220" 
d="M178 319q27 0 42 -15.5t15 -38.5q0 -33 -25.5 -59.5t-61.5 -26.5q-27 0 -42 15.5t-15 38.5q0 33 25.5 59.5t61.5 26.5z" />
    <glyph glyph-name="ellipsis" unicode="&#x2026;" horiz-adv-x="500" 
d="M101 50q24 0 24 -22q0 -16 -11 -27t-26 -11q-25 0 -25 22q0 16 11 27t27 11zM261 50q24 0 24 -22q0 -16 -11 -27t-26 -11q-25 0 -25 22q0 16 11 27t27 11zM421 50q24 0 24 -22q0 -16 -11 -27t-26 -11q-25 0 -25 22q0 16 11 27t27 11z" />
    <glyph glyph-name="perthousand" unicode="&#x2030;" horiz-adv-x="1224" 
d="M281 326q-65 0 -97 35t-32 94q0 96 59 165.5t148 69.5q65 0 97 -35t32 -94q0 -96 -59 -165.5t-148 -69.5zM192 0l575 680h30l-575 -680h-30zM285 343q47 0 83.5 36t54 87.5t17.5 105.5q0 102 -85 102q-70 0 -112.5 -71t-42.5 -158q0 -102 85 -102zM630 -10q-65 0 -97 35
t-32 94q0 96 58.5 165.5t147.5 69.5q65 0 97.5 -35.5t32.5 -94.5q0 -95 -59 -164.5t-148 -69.5zM1010 -10q-65 0 -97 35t-32 94q0 96 58.5 165.5t147.5 69.5q65 0 97.5 -35.5t32.5 -94.5q0 -95 -59 -164.5t-148 -69.5zM633 7q70 0 112.5 71t42.5 158q0 102 -84 102
q-70 0 -113 -71.5t-43 -158.5q0 -48 21.5 -74.5t63.5 -26.5zM1013 7q70 0 112.5 71t42.5 158q0 102 -84 102q-70 0 -113 -71.5t-43 -158.5q0 -48 21.5 -74.5t63.5 -26.5z" />
    <glyph glyph-name="guilsinglleft" unicode="&#x2039;" horiz-adv-x="350" 
d="M308 60q-46 74 -96 113.5t-120 71.5l6 30q85 32 151.5 71.5t143.5 113.5l12 -15q-47 -61 -101.5 -103.5t-126.5 -81.5q112 -77 149 -185z" />
    <glyph glyph-name="guilsinglright" unicode="&#x203a;" horiz-adv-x="350" 
d="M68 60l-12 15q81 107 227 185q-56 39 -92 81.5t-56 103.5l18 15q45 -74 95 -113.5t120 -71.5l-6 -30q-85 -32 -151.5 -71.5t-142.5 -113.5z" />
    <glyph glyph-name="fraction" unicode="&#x2044;" horiz-adv-x="540" 
d="M645 680l-575 -680h-30l575 680h30z" />
    <glyph glyph-name="Euro" unicode="&#x20ac;" horiz-adv-x="790" 
d="M845 680h20l-36 -165h-20q16 74 -35.5 112t-162.5 38q-105 0 -188 -60.5t-128 -159.5h200l-7 -30h-206q-23 -63 -29 -130h208l-7 -30h-203v-11q0 -108 59 -168.5t163 -60.5q109 0 178.5 40t83.5 110h20l-35 -165h-20l6 30q3 15 -7 15q-6 0 -34.5 -13.5t-80.5 -27.5
t-116 -14q-123 0 -194.5 70.5t-71.5 189.5v5h-98l7 30h92q6 69 30 130h-95l7 30h101q52 110 151.5 177.5t219.5 67.5q64 0 110 -14t68.5 -27.5t28.5 -13.5q11 0 14 15z" />
    <glyph glyph-name="trademark" unicode="&#x2122;" horiz-adv-x="1047" 
d="M550 680l-25 -117h-17l4 18q9 42 -1 62.5t-51 20.5h-51q-13 0 -17.5 -4t-7.5 -18l-85 -400q-3 -14 0 -17.5t16 -3.5h25l-3 -17h-143l3 17h26q14 0 18.5 3.5t7.5 17.5l85 401q3 13 0 17t-17 4h-51q-41 0 -59.5 -20.5t-27.5 -62.5l-4 -18h-16l25 117h366zM1142 680l-4 -16
h-26q-13 0 -17.5 -4t-7.5 -18l-85 -400q-3 -14 0 -17.5t16 -3.5h25l-3 -17h-143l3 17h26q14 0 18.5 4t7.5 17l84 396l-270 -434h-18l-90 437l-85 -399q-3 -14 0 -17.5t16 -3.5h22l-3 -17h-105l3 17h21q14 0 18.5 3.5t7.5 17.5l85 401q3 13 0 17t-17 4h-21l4 16h96l84 -414
l257 414h101z" />
    <glyph glyph-name="oneeighth" unicode="&#x215b;" horiz-adv-x="680" 
d="M244 353l-3 -13h-145l3 13h38q10 0 13 2.5t5 12.5l57 265q2 10 0 12.5t-12 2.5h-38l2 12q64 0 86 25h13l-68 -317q-2 -10 0 -12.5t12 -2.5h37zM660 680h30l-575 -680h-30zM693 279q0 -63 -98 -97q23 -13 36 -22.5t24.5 -27t11.5 -38.5q0 -47 -38.5 -73t-97.5 -26
q-52 0 -77.5 21.5t-25.5 52.5q0 63 108 105q-56 35 -56 79q0 43 36 67.5t89 24.5q43 0 65.5 -19t22.5 -47zM581 190q40 16 60.5 36t20.5 53q0 25 -18 38.5t-42 13.5q-35 0 -59 -18.5t-24 -50.5q0 -23 15.5 -38.5t46.5 -33.5zM627 83q0 26 -17 42.5t-52 36.5q-5 3 -7 4
q-30 -14 -46.5 -23.5t-31 -28.5t-14.5 -43t18.5 -43t56.5 -19q41 0 67 20.5t26 53.5z" />
    <glyph glyph-name="threeeighths" unicode="&#x215c;" horiz-adv-x="741" 
d="M348 445q0 -52 -42.5 -81t-104.5 -29q-40 0 -64.5 16t-24.5 36q0 11 6.5 18t16.5 7q15 0 15 -14l-1 -14q0 -35 57 -35q45 0 73.5 27t28.5 68q0 64 -93 64h-23l5 20h23q50 0 83.5 26.5t33.5 68.5q0 48 -61 48q-59 0 -68 -45q-5 -18 -23 -18q-15 0 -15 13q0 23 33 43.5
t73 20.5q98 0 98 -61q0 -46 -36.5 -72.5t-86.5 -33.5q97 -9 97 -73zM721 680h30l-575 -680h-30zM754 279q0 -63 -98 -97q23 -13 36 -22.5t24.5 -27t11.5 -38.5q0 -47 -38.5 -73t-97.5 -26q-52 0 -77.5 21.5t-25.5 52.5q0 63 108 105q-56 35 -56 79q0 43 36 67.5t89 24.5
q43 0 65.5 -19t22.5 -47zM642 190q40 16 60.5 36t20.5 53q0 25 -18 38.5t-42 13.5q-35 0 -59 -18.5t-24 -50.5q0 -23 15.5 -38.5t46.5 -33.5zM688 83q0 26 -17 42.5t-52 36.5q-5 3 -7 4q-30 -14 -46.5 -23.5t-31 -28.5t-14.5 -43t18.5 -43t56.5 -19q41 0 67 20.5t26 53.5z
" />
    <glyph glyph-name="fiveeighths" unicode="&#x215d;" horiz-adv-x="725" 
d="M353 477q0 -59 -42.5 -95.5t-107.5 -36.5q-40 0 -64.5 16t-24.5 36q0 11 6.5 18t16.5 7q15 0 15 -14q0 -3 -0.5 -7.5t-0.5 -6.5q0 -35 57 -35q49 0 77 36.5t28 87.5q0 58 -65 58q-37 0 -72 -23h-15l52 175q24 0 72 -10t65 -10q25 0 30 26h13q-13 -57 -75 -57q-19 0 -55 6
t-47 7l-35 -120q35 20 72 20q46 0 73 -20t27 -58zM705 680h30l-575 -680h-30zM738 279q0 -63 -98 -97q23 -13 36 -22.5t24.5 -27t11.5 -38.5q0 -47 -38.5 -73t-97.5 -26q-52 0 -77.5 21.5t-25.5 52.5q0 63 108 105q-56 35 -56 79q0 43 36 67.5t89 24.5q43 0 65.5 -19
t22.5 -47zM626 190q40 16 60.5 36t20.5 53q0 25 -18 38.5t-42 13.5q-35 0 -59 -18.5t-24 -50.5q0 -23 15.5 -38.5t46.5 -33.5zM672 83q0 26 -17 42.5t-52 36.5q-5 3 -7 4q-30 -14 -46.5 -23.5t-31 -28.5t-14.5 -43t18.5 -43t56.5 -19q41 0 67 20.5t26 53.5z" />
    <glyph glyph-name="seveneighths" unicode="&#x215e;" horiz-adv-x="679" 
d="M164 616l-5 -22h-13l19 86h13l-8 -36q23 41 75 41q22 0 57 -15t51 -15q22 0 42 30h15q-21 -31 -70.5 -90.5t-81 -112.5t-45.5 -119q-6 -28 -26 -28q-19 0 -14 26q10 49 45 101.5t87 111.5t60 69q-26 -17 -58 -17q-23 0 -53 11.5t-44 11.5q-19 0 -31 -10t-15 -23zM659 680
h30l-575 -680h-30zM692 279q0 -63 -98 -97q23 -13 36 -22.5t24.5 -27t11.5 -38.5q0 -47 -38.5 -73t-97.5 -26q-52 0 -77.5 21.5t-25.5 52.5q0 63 108 105q-56 35 -56 79q0 43 36 67.5t89 24.5q43 0 65.5 -19t22.5 -47zM580 190q40 16 60.5 36t20.5 53q0 25 -18 38.5
t-42 13.5q-35 0 -59 -18.5t-24 -50.5q0 -23 15.5 -38.5t46.5 -33.5zM626 83q0 26 -17 42.5t-52 36.5q-5 3 -7 4q-30 -14 -46.5 -23.5t-31 -28.5t-14.5 -43t18.5 -43t56.5 -19q41 0 67 20.5t26 53.5z" />
    <glyph glyph-name="arrowleft" unicode="&#x2190;" horiz-adv-x="820" 
d="M392 485l4 -5q-41 -62 -70 -124h174l79 87q12 12 27 12h45l-88 -99h45l79 87q12 12 27 12h45l-88 -99h45l79 87q12 12 27 12h45l-98 -105l53 -105h-45q-15 0 -21 12l-43 87h-45l46 -99h-45q-15 0 -21 12l-43 87h-45l46 -99h-45q-15 0 -21 12l-43 87h-174q3 -63 18 -124
l-6 -5q-113 100 -212 130l2 10q112 30 267 130z" />
    <glyph glyph-name="arrowup" unicode="&#x2191;" horiz-adv-x="420" 
d="M366 710q8 -103 79 -239l-6 -5q-49 25 -115 44l-37 -174l74 -61q10 -9 7 -24l-9 -45l-85 67l-10 -45l74 -61q11 -10 7 -24l-9 -45l-85 67l-9 -45l74 -61q10 -10 6 -24l-9 -45l-89 75l-121 -75l9 45q5 16 18 24l100 61l9 45l-113 -67l9 45q5 16 17 24l100 61l10 45
l-113 -67l9 45q3 15 17 24l100 61l37 174q-69 -18 -133 -44l-4 5q128 133 181 239h10z" />
    <glyph glyph-name="arrowright" unicode="&#x2192;" horiz-adv-x="820" 
d="M634 485q113 -100 211 -130l-2 -10q-111 -30 -266 -130l-4 5q33 51 70 124h-174l-79 -87q-12 -12 -27 -12h-45l88 99h-45l-79 -87q-12 -12 -27 -12h-45l88 99h-45l-79 -87q-12 -12 -27 -12h-45l97 105l-52 105h45q15 0 21 -12l43 -87h45l-46 99h45q15 0 21 -12l43 -87h45
l-46 99h45q15 0 21 -12l43 -87h174q-6 74 -18 124z" />
    <glyph glyph-name="arrowdown" unicode="&#x2193;" horiz-adv-x="420" 
d="M466 710l-10 -45q-3 -16 -17 -24l-100 -61l-9 -45l113 67l-10 -45q-3 -16 -17 -24l-100 -61l-9 -45l113 67l-10 -45q-3 -16 -17 -24l-100 -61l-37 -174q69 18 134 44l4 -5q-128 -133 -181 -239h-10q-8 103 -79 239l6 5q48 -24 114 -44l37 174l-74 61q-10 10 -7 24l10 45
l85 -67l9 45l-74 61q-10 10 -7 24l10 45l85 -67l9 45l-74 61q-10 10 -7 24l10 45l89 -75z" />
    <glyph glyph-name="arrowboth" unicode="&#x2194;" horiz-adv-x="820" 
d="M634 485q113 -100 211 -130l-2 -10q-111 -30 -266 -130l-4 5q33 51 70 124h-320q3 -63 18 -124l-6 -5q-113 100 -212 130l2 10q112 30 267 130l4 -5q-41 -62 -70 -124h320q-6 74 -18 124z" />
    <glyph glyph-name="arrowupdn" unicode="&#x2195;" horiz-adv-x="420" 
d="M366 710q8 -103 79 -239l-6 -5q-49 25 -115 44l-68 -320q69 18 134 44l4 -5q-128 -133 -181 -239h-10q-8 103 -79 239l6 5q48 -24 114 -44l68 320q-69 -18 -133 -44l-4 5q128 133 181 239h10z" />
    <glyph glyph-name="uni2196" unicode="&#x2196;" horiz-adv-x="687" 
d="M199 341q12 162 -21 261l8 7q87 -54 245 -77l-1 -7q-60 -21 -132 -57l97 -123l109 19q16 1 23 -9l26 -32l-122 -22l25 -32l108 18q16 3 24 -8l25 -32l-122 -23l25 -31l109 18q16 2 23 -8l25 -32l-131 -22l-49 -127l-26 32q-7 10 -2 25l40 105l-24 32l-48 -117l-25 31
q-9 11 -3 26l40 104l-25 32l-47 -117l-25 32q-9 10 -4 25l42 105l-97 123q-45 -57 -83 -119h-7z" />
    <glyph glyph-name="uni2197" unicode="&#x2197;" horiz-adv-x="687" 
d="M632 341h-7q-9 59 -31 119l-149 -123l-4 -105q-1 -14 -14 -25l-39 -32l3 117l-39 -32l-4 -104q0 -15 -13 -26l-39 -31l2 117l-38 -32l-4 -105q-2 -15 -14 -25l-38 -32l5 127l-123 22l39 32q12 10 27 8l101 -18l39 31l-112 23l37 32q14 11 28 8l100 -18l39 32l-112 22
l38 32q14 11 27 9l101 -19l149 123q-46 31 -106 57l1 7q170 23 277 77l6 -7q-74 -95 -133 -261z" />
    <glyph glyph-name="uni2198" unicode="&#x2198;" horiz-adv-x="687" 
d="M637 360q-12 -162 21 -261l-8 -7q-87 54 -245 77l1 7q60 21 132 57l-97 123l-109 -19q-16 -1 -23 9l-26 32l122 22l-25 32l-108 -18q-16 -3 -24 8l-24 32l121 23l-25 31l-109 -18q-16 -2 -23 8l-25 32l131 22l49 127l26 -32q7 -10 2 -25l-40 -105l24 -32l48 117l25 -31
q9 -11 3 -26l-40 -104l25 -32l47 117l25 -32q9 -10 4 -25l-42 -105l97 -123q45 57 83 119h7z" />
    <glyph glyph-name="uni2199" unicode="&#x2199;" horiz-adv-x="687" 
d="M204 360h7q9 -58 31 -119l149 123l4 105q1 14 14 25l39 32l-3 -117l39 32l4 104q0 15 13 26l39 31l-2 -117l38 32l4 105q2 15 14 25l38 32l-5 -127l123 -22l-39 -32q-12 -10 -27 -8l-101 18l-39 -31l113 -23l-38 -32q-14 -11 -28 -8l-100 18l-39 -32l112 -22l-38 -32
q-14 -10 -27 -9l-101 19l-149 -123q46 -31 106 -57l-1 -7q-170 -23 -277 -77l-6 7q74 95 133 261z" />
    <glyph glyph-name="partialdiff" unicode="&#x2202;" horiz-adv-x="565" 
d="M448 750q83 0 126.5 -53t43.5 -151q0 -129 -46.5 -256t-133.5 -213.5t-191 -86.5q-82 0 -121.5 41.5t-39.5 112.5q0 147 101.5 256.5t244.5 109.5q86 0 133 -41q6 47 6 84q0 92 -33 132t-98 40q-101 0 -177 -84l-12 9q84 100 197 100zM424 485q-79 0 -146.5 -50.5
t-104.5 -128t-37 -160.5q0 -62 30 -96.5t89 -34.5q63 0 114 35t86.5 98.5t58.5 133t42 157.5q-41 46 -132 46z" />
    <glyph glyph-name="emptyset" unicode="&#x2205;" horiz-adv-x="800" 
d="M753 615q78 -75 78 -196q0 -111 -59.5 -210.5t-160 -159t-213.5 -59.5q-111 0 -186 59l-47 -49h-35l63 65q-79 76 -79 197q0 83 36 162t95 137t138.5 93.5t163.5 35.5q112 0 187 -59l46 49h35zM144 269q0 -111 71 -180l495 518q-69 53 -170 53q-158 0 -277 -119
t-119 -272zM404 20q159 0 277.5 118.5t118.5 273.5q0 109 -71 178l-495 -517q69 -53 170 -53z" />
    <glyph glyph-name="product" unicode="&#x220f;" horiz-adv-x="740" 
d="M839 700l-4 -20h-40q-20 0 -26.5 -5.5t-10.5 -24.5l-127 -600q-5 -20 -0.5 -25t23.5 -5h40l-4 -20h-190l4 20h40q20 0 26.5 5.5t10.5 24.5l132 625h-400l-132 -625q-5 -20 -0.5 -25t23.5 -5h40l-4 -20h-190l4 20h40q20 0 26.5 5.5t10.5 24.5l127 600q5 20 0.5 25t-23.5 5
h-40l4 20h640z" />
    <glyph glyph-name="summation" unicode="&#x2211;" horiz-adv-x="645" 
d="M595 164h20l-35 -164h-520l4 20l306 334l-150 306l5 20h480l-35 -164h-20l6 30q13 60 -1.5 87t-68.5 27h-311l150 -306l-301 -334h346q54 0 79.5 27t38.5 87z" />
    <glyph glyph-name="minus" unicode="&#x2212;" horiz-adv-x="470" 
d="M486 310l-6 -30h-370l6 30h370z" />
    <glyph glyph-name="radical" unicode="&#x221a;" horiz-adv-x="670" 
d="M361 -5l-56 285h-195l6 30h217l47 -247l355 617h30l-392 -685h-12z" />
    <glyph glyph-name="infinity" unicode="&#x221e;" horiz-adv-x="765" 
d="M659 394q52 0 82.5 -28.5t30.5 -78.5q0 -75 -50 -128t-124 -53q-31 0 -56.5 9t-46.5 30t-32.5 36.5t-31.5 46.5q-35 -32 -52 -46.5t-47.5 -36t-59 -30.5t-59.5 -9q-52 0 -83 28.5t-31 78.5q0 74 51 127.5t124 53.5q42 0 75.5 -18.5t50.5 -39t42 -57.5q40 37 66.5 57.5
t68 39t82.5 18.5zM219 136q33 0 67.5 17t55.5 34t60 54q9 8 13 12q-26 39 -40 57t-43.5 36t-64.5 18q-59 0 -98 -42t-39 -103q0 -40 23.5 -61.5t65.5 -21.5zM604 136q60 0 99 43t39 102q0 41 -25.5 62t-64.5 21q-35 0 -71.5 -18t-58.5 -36t-63 -57q22 -34 29.5 -45.5
t27.5 -33.5t40.5 -30t47.5 -8z" />
    <glyph glyph-name="integral" unicode="&#x222b;" horiz-adv-x="275" 
d="M366 710q30 0 46.5 -16t16.5 -36q0 -14 -9 -23.5t-22 -9.5q-21 0 -21 19q0 5 3.5 16.5t3.5 14.5q0 15 -27 15q-61 0 -82 -104l-147 -690q-15 -71 -54 -108.5t-92 -37.5q-30 0 -46.5 16t-16.5 36q0 14 9 23.5t22 9.5q21 0 21 -19q0 -6 -3.5 -17.5t-3.5 -13.5q0 -15 27 -15
q60 0 82 104l147 690q15 71 53.5 108.5t92.5 37.5z" />
    <glyph glyph-name="approxequal" unicode="&#x2248;" horiz-adv-x="440" 
d="M461 426q-8 -41 -31.5 -63.5t-54.5 -22.5q-25 0 -101.5 23t-99.5 23q-38 0 -49 -46h-22q9 41 33 63.5t57 22.5q26 0 100 -23t98 -23q39 0 48 46h22zM461 246q-8 -41 -31.5 -63.5t-54.5 -22.5q-25 0 -101.5 23t-99.5 23q-38 0 -49 -46h-22q9 41 33 63.5t57 22.5
q26 0 100 -23t98 -23q39 0 48 46h22z" />
    <glyph glyph-name="notequal" unicode="&#x2260;" horiz-adv-x="470" 
d="M497 360h-129l-111 -130h212l-6 -30h-232l-85 -100h-30l85 100h-108l6 30h128l111 130h-211l6 30h231l85 100h30l-85 -100h109z" />
    <glyph glyph-name="lessequal" unicode="&#x2264;" horiz-adv-x="470" 
d="M503 390l-6 -30l-315 -65l287 -65l-6 -30l-353 80l6 30zM435 70l-6 -30h-370l6 30h370z" />
    <glyph glyph-name="greaterequal" unicode="&#x2265;" horiz-adv-x="470" 
d="M133 390l353 -80l-6 -30l-387 -80l6 30l315 65l-287 65zM435 70l-6 -30h-370l6 30h370z" />
    <glyph glyph-name="lozenge" unicode="&#x25ca;" horiz-adv-x="450" 
d="M214 -5l-92 345l239 345h20l91 -345l-238 -345h-20zM232 45l207 301l-76 289l-208 -301z" />
    <glyph glyph-name="i.loclTRK" horiz-adv-x="250" 
d="M247 650q13 0 21 -8t8 -20q0 -16 -14 -29t-30 -13q-13 0 -20.5 8t-7.5 20q0 16 13.5 29t29.5 13zM226 73h20q-11 -47 -37 -65t-51 -18q-70 0 -53 80l81 380q4 20 -0.5 25t-23.5 5h-44l4 20h124l-91 -429q-12 -56 21 -56q15 0 29 14t21 44z" />
    <glyph glyph-name="f.ss01" horiz-adv-x="265" 
d="M356 710q30 0 46.5 -16t16.5 -36q0 -14 -9 -23.5t-22 -9.5q-21 0 -21 19q0 4 3.5 14t3.5 17q0 15 -27 15q-61 0 -82 -104l-18 -86h104l-4 -20h-105l-116 -544q-14 -69 -51.5 -107.5t-89.5 -38.5v20q29 0 52.5 25.5t34.5 78.5l120 566h-70l4 20h70l14 64q15 71 53.5 108.5
t92.5 37.5z" />
    <glyph glyph-name="j.ss01" horiz-adv-x="220" 
d="M253 650q14 0 22.5 -10.5t5.5 -24.5t-16 -24.5t-27 -10.5t-22 10.5t-5 24.5t15.5 24.5t26.5 10.5zM246 500l-120 -564q-14 -69 -51.5 -107.5t-89.5 -38.5v20q29 0 52.5 25.5t34.5 78.5l114 536q4 19 0 24.5t-24 5.5h-44l4 20h124z" />
    <glyph glyph-name="y.ss01" horiz-adv-x="545" 
d="M489 510q25 0 38 -26t13 -65q0 -65 -48 -171.5t-119.5 -208t-163.5 -175.5t-169 -74v20q80 0 158 70.5t78 125.5q0 61 -29 127.5t-58 125t-29 101.5q0 72 71 150l15 -15q-48 -55 -48 -107q0 -31 15 -68t34 -68t36.5 -75t21.5 -90t-11 -112q71 78 140 205.5t69 200.5
q0 28 -10 46.5t-20 30.5t-10 23q0 13 8 21t18 8z" />
    <glyph glyph-name="yacute.ss01" horiz-adv-x="545" 
d="M522 700q21 0 21 -21q0 -33 -67 -72t-124 -57l-6 20q45 15 70.5 32.5t47.5 51.5q30 46 58 46zM489 510q25 0 38 -26t13 -65q0 -65 -48 -171.5t-119.5 -208t-163.5 -175.5t-169 -74v20q80 0 158 70.5t78 125.5q0 61 -29 127.5t-58 125t-29 101.5q0 72 71 150l15 -15
q-48 -55 -48 -107q0 -31 15 -68t34 -68t36.5 -75t21.5 -90t-11 -112q71 78 140 205.5t69 200.5q0 28 -10 46.5t-20 30.5t-10 23q0 13 8 21t18 8z" />
    <glyph glyph-name="ycircumflex.ss01" horiz-adv-x="545" 
d="M522 548q-59 29 -122 97q-87 -66 -164 -97l-6 20q42 20 93.5 61t77.5 71h23q13 -31 46.5 -71.5t67.5 -60.5zM489 510q25 0 38 -26t13 -65q0 -65 -48 -171.5t-119.5 -208t-163.5 -175.5t-169 -74v20q80 0 158 70.5t78 125.5q0 61 -29 127.5t-58 125t-29 101.5q0 72 71 150
l15 -15q-48 -55 -48 -107q0 -31 15 -68t34 -68t36.5 -75t21.5 -90t-11 -112q71 78 140 205.5t69 200.5q0 28 -10 46.5t-20 30.5t-10 23q0 13 8 21t18 8z" />
    <glyph glyph-name="ydieresis.ss01" horiz-adv-x="545" 
d="M321 650q13 0 21 -8t8 -20q0 -16 -14 -29t-30 -13q-13 0 -20.5 8t-7.5 20q0 16 13.5 29t29.5 13zM481 650q13 0 21 -8t8 -20q0 -16 -14 -29t-30 -13q-13 0 -20.5 8t-7.5 20q0 16 13.5 29t29.5 13zM489 510q25 0 38 -26t13 -65q0 -65 -48 -171.5t-119.5 -208
t-163.5 -175.5t-169 -74v20q80 0 158 70.5t78 125.5q0 61 -29 127.5t-58 125t-29 101.5q0 72 71 150l15 -15q-48 -55 -48 -107q0 -31 15 -68t34 -68t36.5 -75t21.5 -90t-11 -112q71 78 140 205.5t69 200.5q0 28 -10 46.5t-20 30.5t-10 23q0 13 8 21t18 8z" />
    <glyph glyph-name="ygrave.ss01" horiz-adv-x="545" 
d="M322 700q8 0 14 -2.5t13 -13t11 -30.5q7 -34 25 -51.5t57 -32.5l-14 -20q-46 17 -92.5 51t-46.5 64q0 17 10.5 26t22.5 9zM489 510q25 0 38 -26t13 -65q0 -65 -48 -171.5t-119.5 -208t-163.5 -175.5t-169 -74v20q80 0 158 70.5t78 125.5q0 61 -29 127.5t-58 125
t-29 101.5q0 72 71 150l15 -15q-48 -55 -48 -107q0 -31 15 -68t34 -68t36.5 -75t21.5 -90t-11 -112q71 78 140 205.5t69 200.5q0 28 -10 46.5t-20 30.5t-10 23q0 13 8 21t18 8z" />
    <glyph glyph-name="f_b.ss01" horiz-adv-x="819" 
d="M356 710q30 0 46.5 -16t16.5 -36q0 -14 -9 -23.5t-22 -9.5q-21 0 -21 19q0 4 3.5 14t3.5 17q0 15 -27 15q-61 0 -82 -104l-18 -86h104l-4 -20h-105l-116 -544q-14 -69 -51.5 -107.5t-89.5 -38.5v20q29 0 52.5 25.5t34.5 78.5l120 566h-70l4 20h70l14 64q15 71 53.5 108.5
t92.5 37.5zM683 510q74 0 112 -45t38 -125q0 -138 -72.5 -244t-187.5 -106q-54 0 -90 33.5t-47 100.5l-55 -124h-20l149 700h50l-70 -323q39 66 89 99.5t104 33.5zM679 490q-75 0 -135 -70t-79 -162l-7 -31q-14 -88 16.5 -152.5t102.5 -64.5q63 0 112.5 54.5t72.5 131.5
t23 157q0 137 -106 137z" />
    <glyph glyph-name="f_h.ss01" horiz-adv-x="850" 
d="M356 710q30 0 46.5 -16t16.5 -36q0 -14 -9 -23.5t-22 -9.5q-21 0 -21 19q0 4 3.5 14t3.5 17q0 15 -27 15q-61 0 -82 -104l-18 -86h104l-4 -20h-105l-116 -544q-14 -69 -51.5 -107.5t-89.5 -38.5v20q29 0 52.5 25.5t34.5 78.5l120 566h-70l4 20h70l14 64q15 71 53.5 108.5
t92.5 37.5zM836 73h20q-11 -47 -37 -65t-51 -18q-70 0 -53 80l56 265q32 155 -92 155q-165 0 -230 -310l-38 -180h-50l149 700h50l-74 -345q37 81 88.5 118t108.5 37q86 0 120.5 -47t17.5 -128l-56 -264q-12 -56 21 -56q15 0 29 14t21 44z" />
    <glyph glyph-name="f_j.ss01" horiz-adv-x="490" 
d="M356 710q30 0 46.5 -16t16.5 -36q0 -14 -9 -23.5t-22 -9.5q-21 0 -21 19q0 4 3.5 14t3.5 17q0 15 -27 15q-61 0 -82 -104l-18 -86h104l-4 -20h-105l-116 -544q-14 -69 -51.5 -107.5t-89.5 -38.5v20q29 0 52.5 25.5t34.5 78.5l120 566h-70l4 20h70l14 64q15 71 53.5 108.5
t92.5 37.5zM523 650q13 0 21 -8t8 -20q0 -17 -12.5 -29.5t-31.5 -12.5q-13 0 -20.5 8t-7.5 20q0 16 12 29t31 13zM516 500l-120 -564q-14 -69 -51.5 -107.5t-89.5 -38.5q-31 0 -50 12.5t-19 33.5q0 16 9.5 27.5t23.5 11.5q20 0 20 -19q0 -5 -3.5 -15t-3.5 -15q0 -16 28 -16
q60 0 82 104l114 536q4 19 0 24.5t-24 5.5h-44l4 20h124z" />
    <glyph glyph-name="f_k.ss01" horiz-adv-x="800" 
d="M265 586l-18 -86h104l-4 -20h-105l-116 -544q-14 -69 -51.5 -107.5t-89.5 -38.5v20q29 0 52.5 25.5t34.5 78.5l120 566h-70l4 20h70l14 64q15 71 53.5 108.5t92.5 37.5q30 0 46.5 -16t16.5 -36q0 -14 -9 -23.5t-22 -9.5q-21 0 -21 19q0 4 3.5 14t3.5 17q0 15 -27 15
q-61 0 -82 -104zM784 510q43 0 43 -36q0 -10 -8 -18t-21 -8q-14 0 -23.5 13.5t-18.5 13.5q-17 0 -32.5 -14t-30 -36t-30.5 -46t-41.5 -48t-55.5 -37q134 -17 134 -118q0 -19 -9 -67.5t-9 -65.5q0 -28 24 -28q15 0 29 14t21 44h20q-11 -47 -37 -65t-51 -18q-56 0 -56 52
q0 13 9 65.5t9 68.5q0 100 -133 100h-47l-59 -276h-50l149 700h50l-85 -399h12q50 0 87 21.5t59.5 52.5t42 61.5t46.5 52t62 21.5z" />
    <glyph glyph-name="fi.ss01" horiz-adv-x="525" 
d="M356 710q30 0 46.5 -16t16.5 -36q0 -14 -9 -23.5t-22 -9.5q-21 0 -21 19q0 4 3.5 14t3.5 17q0 15 -27 15q-61 0 -82 -104l-18 -86h104l-4 -20h-105l-116 -544q-14 -69 -51.5 -107.5t-89.5 -38.5v20q29 0 52.5 25.5t34.5 78.5l120 566h-70l4 20h70l14 64q15 71 53.5 108.5
t92.5 37.5zM523 650q13 0 21 -8t8 -20q0 -17 -12.5 -29.5t-31.5 -12.5q-13 0 -20.5 8t-7.5 20q0 16 12 29t31 13zM496 73h20q-11 -47 -37 -65t-51 -18q-70 0 -53 80l81 380q4 20 -0.5 25t-23.5 5h-44l4 20h124l-91 -429q-12 -56 21 -56q15 0 29 14t21 44z" />
    <glyph glyph-name="fl.ss01" horiz-adv-x="520" 
d="M356 710q30 0 46.5 -16t16.5 -36q0 -14 -9 -23.5t-22 -9.5q-21 0 -21 19q0 4 3.5 14t3.5 17q0 15 -27 15q-61 0 -82 -104l-18 -86h104l-4 -20h-105l-116 -544q-14 -69 -51.5 -107.5t-89.5 -38.5v20q29 0 52.5 25.5t34.5 78.5l120 566h-70l4 20h70l14 64q15 71 53.5 108.5
t92.5 37.5zM496 73h20q-11 -47 -37 -65t-51 -18q-70 0 -53 80l134 630h50l-134 -629q-12 -56 21 -56q15 0 29 14t21 44z" />
    <glyph glyph-name="zero.lf" horiz-adv-x="650" 
d="M472 690q99 0 147 -59.5t48 -163.5q0 -121 -40.5 -229t-121 -178t-182.5 -70q-99 0 -147.5 59.5t-48.5 163.5q0 120 41 228t121.5 178.5t182.5 70.5zM466 665q-87 0 -155 -71t-102 -175.5t-34 -216.5q0 -187 153 -187q87 0 155.5 71t102 175t33.5 217q0 187 -153 187z
" />
    <glyph glyph-name="one.lf" horiz-adv-x="370" 
d="M50 0l4 20h80q20 0 26.5 5.5t10.5 24.5l117 550q4 20 -0.5 25t-23.5 5h-80l4 20q64 0 96.5 8.5t52.5 31.5h20l-136 -640q-5 -20 -0.5 -25t23.5 -5h80l-4 -20h-270z" />
    <glyph glyph-name="two.lf" horiz-adv-x="550" 
d="M402 690q82 0 130.5 -37.5t48.5 -107.5q0 -52 -26 -106t-63 -99.5t-101.5 -101t-118 -95.5t-136.5 -98h224q61 0 89 17.5t39 71.5l7 31h20l-35 -165h-430l4 20q217 153 289 214q155 132 181 250q6 27 6 56q0 55 -34 90t-100 35q-60 0 -100 -22.5t-49 -67.5
q-5 -25 -30 -25q-21 0 -21 19q0 40 63 80.5t143 40.5z" />
    <glyph glyph-name="three.lf" horiz-adv-x="565" 
d="M338 355q38 -3 70.5 -12t62.5 -25.5t47 -44.5t17 -65q0 -100 -83 -159t-199 -59q-81 0 -126.5 31.5t-45.5 71.5q0 16 9 26.5t23 10.5q20 0 20 -18q0 -2 -1.5 -11.5t-1.5 -13.5q0 -72 128 -72q95 0 160.5 51.5t65.5 136.5q0 38 -19 65t-51.5 41t-65.5 20t-71 6h-46l9 40
h46q105 2 178 52.5t73 134.5q0 48 -36 75.5t-105 27.5q-60 0 -100 -22.5t-49 -67.5q-5 -25 -30 -25q-21 0 -21 19q0 42 65.5 81.5t140.5 39.5q87 0 136 -33t49 -92q0 -84 -73.5 -141t-175.5 -69z" />
    <glyph glyph-name="four.lf" 
d="M446 166l-25 -116q-5 -20 -0.5 -25t23.5 -5h80l-4 -20h-270l4 20h80q20 0 26.5 5.5t10.5 24.5l25 116h-331l6 25l466 499h20l-106 -499h110l-6 -25h-109zM101 191h300l88 415z" />
    <glyph glyph-name="five.lf" horiz-adv-x="560" 
d="M482 610q-35 0 -103.5 11t-93.5 13l-76 -264q67 40 144 40q88 0 137 -39.5t49 -114.5q0 -118 -81 -192t-205 -74q-81 0 -126.5 31.5t-45.5 71.5q0 16 9 26.5t23 10.5q20 0 20 -18q0 -2 -1.5 -11.5t-1.5 -13.5q0 -72 128 -72q105 0 168.5 70t63.5 176q0 124 -142 124
q-78 0 -148 -44h-25l101 344q40 0 134 -20t132 -20q45 0 57 55h20q-19 -90 -137 -90z" />
    <glyph glyph-name="six.lf" horiz-adv-x="590" 
d="M473 690q69 0 112.5 -31t43.5 -71q0 -38 -31 -38q-21 0 -21 19q0 3 1.5 12.5t1.5 12.5q0 35 -31.5 53t-81.5 18q-96 0 -169.5 -91t-105.5 -228q98 69 193 69q86 0 135.5 -38.5t49.5 -113.5q0 -114 -78.5 -193.5t-193.5 -79.5q-91 0 -134 55.5t-43 145.5q0 116 45.5 230.5
t128 191.5t178.5 77zM380 390q-95 0 -195 -73q-12 -64 -12 -130q0 -172 130 -172q96 0 157 76t61 177q0 122 -141 122z" />
    <glyph glyph-name="seven.lf" horiz-adv-x="550" 
d="M657 690q-40 -61 -111 -149t-120 -149.5t-98.5 -158.5t-71.5 -201q-9 -42 -34 -42t-17 39q18 85 72 182.5t107 165.5t117 144.5t82 103.5q-38 -25 -102 -25q-49 0 -108 20t-88 20q-43 0 -71 -23.5t-34 -50.5l-11 -53h-20l36 167h20l-13 -59q38 69 142 69q40 0 113 -25
t111 -25q22 0 38.5 11.5t35.5 38.5h25z" />
    <glyph glyph-name="eight.lf" horiz-adv-x="590" 
d="M613 558q0 -74 -53.5 -120.5t-150.5 -80.5q34 -20 55 -34t44.5 -35.5t35 -48t11.5 -57.5q0 -92 -72.5 -142t-184.5 -50q-98 0 -148.5 43.5t-50.5 106.5q0 36 19 69.5t52 60.5t69 48t79 38q-53 32 -83 67t-30 84q0 84 68 133.5t169 49.5q82 0 126.5 -37.5t44.5 -94.5z
M382 372q91 32 136 73t45 113q0 53 -39 80t-88 27q-76 0 -128.5 -39t-52.5 -108q0 -46 32.5 -78t94.5 -68zM505 173q0 12 -3 24t-6 21t-11.5 19.5t-13 17t-17.5 17t-18.5 15t-22 14.5t-21.5 13t-24 14t-23 13q-39 -18 -60 -28t-51.5 -29.5t-45.5 -37t-27 -44.5t-12 -59
q0 -51 37 -89.5t117 -38.5q89 0 145.5 43.5t56.5 114.5z" />
    <glyph glyph-name="nine.lf" horiz-adv-x="590" 
d="M437 690q91 0 134 -55.5t43 -145.5q0 -116 -45.5 -230.5t-128.5 -191.5t-178 -77q-70 0 -113.5 31t-43.5 72q0 16 9 26.5t23 10.5q20 0 20 -18q0 -2 -1.5 -12t-1.5 -13q0 -36 31 -54t82 -18q96 0 170 92t106 228q-99 -70 -194 -70q-87 0 -136 38.5t-49 114.5
q0 113 79 192.5t194 79.5zM355 290q95 0 194 74q13 61 13 129q0 172 -131 172q-95 0 -156 -75.5t-61 -178.5q0 -121 141 -121z" />
    <glyph glyph-name="zero.osf" horiz-adv-x="650" 
d="M433 510q105 0 156 -55.5t51 -140.5q0 -134 -92 -229t-225 -95q-105 0 -156 55t-51 141q0 133 92 228.5t225 95.5zM428 485q-112 0 -187 -90.5t-75 -210.5q0 -33 8 -61.5t25.5 -53.5t50.5 -39.5t78 -14.5q112 0 187 90t75 210q0 72 -37.5 121t-124.5 49z" />
    <glyph glyph-name="one.osf" horiz-adv-x="370" 
d="M50 0l4 20h80q20 0 26.5 5.5t10.5 24.5l78 370q5 20 0.5 25t-23.5 5h-80l4 20q64 0 96 9t52 31h20l-97 -460q-5 -20 -0.5 -25t23.5 -5h80l-4 -20h-270z" />
    <glyph glyph-name="two.osf" horiz-adv-x="550" 
d="M363 510q86 0 136.5 -29.5t50.5 -89.5q0 -30 -14.5 -61t-35 -56t-57 -54.5t-65 -49t-76.5 -47t-73.5 -41t-72.5 -37.5h204q61 0 89 17.5t39 71.5l7 31h20l-35 -165h-430l4 20q25 14 74.5 40t78.5 41.5t73 41.5t71 44.5t58 44.5t48.5 48.5t29.5 49t12 53.5q0 44 -35.5 73
t-105.5 29q-60 0 -100 -22.5t-49 -67.5q-5 -25 -30 -25q-21 0 -21 19q0 42 65 81.5t140 39.5z" />
    <glyph glyph-name="three.osf" horiz-adv-x="565" 
d="M300 175q38 -3 70.5 -12t62.5 -25.5t47 -44.5t17 -65q0 -100 -83 -159t-199 -59q-81 0 -126.5 31.5t-45.5 71.5q0 16 9 26.5t23 10.5q20 0 20 -18q0 -2 -1.5 -11.5t-1.5 -13.5q0 -72 128 -72q95 0 160.5 51.5t65.5 136.5q0 38 -19 65t-51.5 41t-65.5 20t-71 6h-46l9 40
h46q105 2 178 52.5t73 134.5q0 48 -36 75.5t-105 27.5q-60 0 -100 -22.5t-49 -67.5q-5 -25 -30 -25q-21 0 -21 19q0 42 65.5 81.5t140.5 39.5q87 0 136 -33t49 -92q0 -84 -73.5 -141t-175.5 -69z" />
    <glyph glyph-name="four.osf" 
d="M522 11l-5 -25h-110l-35 -166h-50l35 166h-330l5 25l466 499h20l-106 -499h110zM62 11h301l88 415z" />
    <glyph glyph-name="five.osf" horiz-adv-x="560" 
d="M444 430q-35 0 -103.5 11t-93.5 13l-76 -264q67 40 144 40q88 0 137 -39.5t49 -114.5q0 -118 -81 -192t-205 -74q-81 0 -126.5 31.5t-45.5 71.5q0 16 9 26.5t23 10.5q20 0 20 -18q0 -2 -1.5 -11.5t-1.5 -13.5q0 -72 128 -72q105 0 168.5 70t63.5 176q0 124 -142 124
q-78 0 -148 -44h-25l101 344q40 0 134 -20t132 -20q45 0 57 55h20q-19 -90 -137 -90z" />
    <glyph glyph-name="six.osf" horiz-adv-x="590" 
d="M473 690q69 0 112.5 -31t43.5 -71q0 -38 -31 -38q-21 0 -21 19q0 3 1.5 12.5t1.5 12.5q0 35 -31.5 53t-81.5 18q-96 0 -169.5 -91t-105.5 -228q98 69 193 69q86 0 135.5 -38.5t49.5 -113.5q0 -114 -78.5 -193.5t-193.5 -79.5q-91 0 -134 55.5t-43 145.5q0 116 45.5 230.5
t128 191.5t178.5 77zM380 390q-95 0 -195 -73q-12 -64 -12 -130q0 -172 130 -172q96 0 157 76t61 177q0 122 -141 122z" />
    <glyph glyph-name="seven.osf" horiz-adv-x="550" 
d="M618 510q-40 -61 -110.5 -148.5t-119.5 -149.5t-98.5 -159t-71.5 -201q-9 -42 -34 -42t-17 39q18 85 72 183t106.5 165.5t117 144.5t82.5 103q-40 -25 -103 -25q-49 0 -107.5 20t-87.5 20q-43 0 -71 -23.5t-34 -50.5l-11 -53h-20l35 167h20l-12 -59q38 69 141 69
q41 0 114 -25t111 -25q40 0 73 50h25z" />
    <glyph glyph-name="eight.osf" horiz-adv-x="590" 
d="M613 558q0 -74 -53.5 -120.5t-150.5 -80.5q34 -20 55 -34t44.5 -35.5t35 -48t11.5 -57.5q0 -92 -72.5 -142t-184.5 -50q-98 0 -148.5 43.5t-50.5 106.5q0 36 19 69.5t52 60.5t69 48t79 38q-53 32 -83 67t-30 84q0 84 68 133.5t169 49.5q82 0 126.5 -37.5t44.5 -94.5z
M382 372q91 32 136 73t45 113q0 53 -39 80t-88 27q-76 0 -128.5 -39t-52.5 -108q0 -46 32.5 -78t94.5 -68zM505 173q0 12 -3 24t-6 21t-11.5 19.5t-13 17t-17.5 17t-18.5 15t-22 14.5t-21.5 13t-24 14t-23 13q-39 -18 -60 -28t-51.5 -29.5t-45.5 -37t-27 -44.5t-12 -59
q0 -51 37 -89.5t117 -38.5q89 0 145.5 43.5t56.5 114.5z" />
    <glyph glyph-name="nine.osf" horiz-adv-x="590" 
d="M399 510q91 0 134 -55.5t43 -145.5q0 -116 -45.5 -230.5t-128.5 -191.5t-178 -77q-70 0 -113.5 31t-43.5 72q0 16 9 26.5t23 10.5q20 0 20 -18q0 -2 -1.5 -12t-1.5 -13q0 -36 31 -54t82 -18q96 0 170 92t106 228q-99 -70 -194 -70q-87 0 -136 38.5t-49 114.5
q0 113 79 192.5t194 79.5zM317 110q95 0 194 74q13 61 13 129q0 172 -131 172q-95 0 -156 -75.5t-61 -178.5q0 -121 141 -121z" />
    <glyph glyph-name="zero.subs" horiz-adv-x="334" 
d="M219 245q51 0 76.5 -30.5t25.5 -83.5q0 -94 -49 -165t-127 -71q-51 0 -76.5 30t-25.5 83q0 95 48.5 166t127.5 71zM216 231q-41 0 -72.5 -38t-46.5 -91t-15 -108q0 -85 66 -85q41 0 72.5 37.5t46.5 90.5t15 108q0 86 -66 86z" />
    <glyph glyph-name="one.subs" horiz-adv-x="195" 
d="M3 -100l3 13h38q10 0 13 2.5t5 12.5l56 265q2 10 0 12.5t-12 2.5h-38l3 12q65 0 85 25h13l-67 -317q-2 -10 0 -12.5t12 -2.5h37l-3 -13h-145z" />
    <glyph glyph-name="two.subs" horiz-adv-x="285" 
d="M183 245q45 0 71 -19t26 -54q0 -52 -50 -104t-170 -134h112q29 0 42 7.5t18 30.5l3 13h12l-18 -85h-225l3 13q62 44 94 68.5t69.5 59.5t53.5 66.5t16 64.5q0 26 -14.5 42.5t-43.5 16.5q-58 0 -67 -45q-5 -18 -23 -18q-15 0 -15 13q0 23 33 43.5t73 20.5z" />
    <glyph glyph-name="three.subs" horiz-adv-x="286" 
d="M157 78q97 -9 97 -73q0 -52 -42.5 -81t-104.5 -29q-40 0 -64.5 16t-24.5 36q0 11 6.5 18t16.5 7q15 0 15 -14l-1 -14q0 -35 57 -35q45 0 73.5 27t28.5 68q0 64 -93 64h-23l5 20h23q50 0 83.5 26.5t33.5 68.5q0 48 -61 48q-59 0 -68 -45q-5 -18 -23 -18q-15 0 -15 13
q0 23 33 43.5t73 20.5q98 0 98 -61q0 -46 -36.5 -72.5t-86.5 -33.5z" />
    <glyph glyph-name="four.subs" horiz-adv-x="290" 
d="M264 245l-52 -248h51l-3 -14h-51l-12 -55q-2 -10 0 -12.5t12 -2.5h37l-3 -13h-145l3 13h38q10 0 13 2.5t5 12.5l12 55h-159l3 14l238 248h13zM31 -3h141l40 189z" />
    <glyph glyph-name="five.subs" horiz-adv-x="290" 
d="M222 192q-19 0 -55 6t-47 7l-35 -120q35 20 72 20q46 0 73 -20t27 -58q0 -59 -42.5 -95.5t-107.5 -36.5q-40 0 -64.5 16t-24.5 36q0 11 6.5 18t16.5 7q15 0 15 -14q0 -3 -0.5 -7.5t-0.5 -6.5q0 -35 57 -35q49 0 77 36.5t28 87.5q0 58 -65 58q-37 0 -72 -23h-15l52 175
q24 0 72 -10t65 -10q25 0 30 26h13q-13 -57 -75 -57z" />
    <glyph glyph-name="six.subs" horiz-adv-x="308" 
d="M223 245q34 0 57.5 -16t23.5 -36q0 -11 -6.5 -18t-17.5 -7q-15 0 -15 13q0 2 1 7.5t1 7.5q0 35 -50 35q-44 0 -77.5 -43.5t-49.5 -108.5q45 30 89 30t70.5 -19.5t26.5 -57.5q0 -58 -41.5 -97.5t-101.5 -39.5q-48 0 -71 29.5t-23 76.5q0 90 54 167t130 77zM172 94
q-42 0 -85 -32q-8 -40 -8 -75q0 -78 57 -78q43 0 71.5 39t28.5 89q0 57 -64 57z" />
    <glyph glyph-name="seven.subs" horiz-adv-x="284" 
d="M316 245q-21 -32 -70 -91t-80.5 -112t-45.5 -119q-6 -28 -26 -28t-15 26q10 49 45 101.5t87 111.5t60 69q-25 -17 -57 -17q-23 0 -53.5 11.5t-44.5 11.5q-37 0 -46 -33l-4 -22h-13l18 86h13l-8 -36q23 41 75 41q22 0 57.5 -15t51.5 -15q21 0 41 30h15z" />
    <glyph glyph-name="eight.subs" horiz-adv-x="295" 
d="M289 179q0 -63 -98 -97q35 -20 53.5 -39t18.5 -49q0 -47 -38.5 -73t-97.5 -26q-52 0 -77.5 21.5t-25.5 52.5q0 63 108 105q-56 35 -56 79q0 43 36 67.5t89 24.5q43 0 65.5 -19t22.5 -47zM177 90q40 16 60.5 36t20.5 53q0 25 -18 38.5t-42 13.5q-35 0 -59 -18.5t-24 -50.5
q0 -23 15.5 -38.5t46.5 -33.5zM223 -17q0 26 -17 42.5t-52 36.5q-5 3 -7 4q-30 -14 -46.5 -23.5t-31 -28.5t-14.5 -43t18.5 -43t56.5 -19q41 0 67 20.5t26 53.5z" />
    <glyph glyph-name="nine.subs" horiz-adv-x="308" 
d="M203 245q48 0 71 -29.5t23 -76.5q0 -90 -54.5 -167t-129.5 -77q-35 0 -58 16t-23 36q0 11 6.5 18t16.5 7q15 0 15 -14q0 -2 -0.5 -7t-0.5 -8q0 -34 49 -34q44 0 78 44t50 109q-45 -31 -89 -31q-45 0 -71 19.5t-26 57.5q0 58 41.5 97.5t101.5 39.5zM164 46q42 0 85 32
q8 40 8 75q0 78 -57 78q-43 0 -71.5 -39t-28.5 -89q0 -57 64 -57z" />
    <glyph glyph-name="zero.tf" horiz-adv-x="600" 
d="M447 690q92 0 136.5 -57.5t44.5 -158.5q0 -89 -23 -174.5t-64.5 -155t-105 -112t-137.5 -42.5q-92 0 -136.5 57.5t-44.5 158.5q0 120 38.5 229.5t115.5 182t176 72.5zM441 665q-83 0 -148 -73.5t-97 -180t-32 -218.5q0 -178 139 -178q63 0 116.5 43t88 112t53.5 151.5
t19 165.5q0 178 -139 178z" />
    <glyph glyph-name="one.tf" horiz-adv-x="600" 
d="M115 0l4 20h130q20 0 26.5 5.5t10.5 24.5l117 550q4 20 -0.5 25t-23.5 5h-130l4 20q99 0 138.5 8.5t60.5 31.5h20l-136 -640q-5 -20 -0.5 -25t23.5 -5h130l-4 -20h-370z" />
    <glyph glyph-name="two.tf" horiz-adv-x="600" 
d="M437 690q82 0 130.5 -37.5t48.5 -107.5q0 -52 -26 -106t-63 -99.5t-101.5 -101t-118 -95.5t-136.5 -98h224q61 0 89 17.5t39 71.5l7 31h20l-35 -165h-430l4 20q217 153 289 214q155 132 181 250q6 27 6 56q0 55 -34 90t-100 35q-60 0 -100 -22.5t-49 -67.5
q-5 -25 -30 -25q-21 0 -21 19q0 40 63 80.5t143 40.5z" />
    <glyph glyph-name="three.tf" horiz-adv-x="600" 
d="M358 355q38 -3 70.5 -12t62.5 -25.5t47 -44.5t17 -65q0 -100 -83 -159t-199 -59q-81 0 -126.5 31.5t-45.5 71.5q0 16 9 26.5t23 10.5q20 0 20 -18q0 -2 -1.5 -11.5t-1.5 -13.5q0 -72 128 -72q95 0 160.5 51.5t65.5 136.5q0 38 -19 65t-51.5 41t-65.5 20t-71 6h-46l9 40
h46q105 2 178 52.5t73 134.5q0 48 -36 75.5t-105 27.5q-60 0 -100 -22.5t-49 -67.5q-5 -25 -30 -25q-21 0 -21 19q0 42 65.5 81.5t140.5 39.5q87 0 136 -33t49 -92q0 -84 -73.5 -141t-175.5 -69z" />
    <glyph glyph-name="four.tf" horiz-adv-x="600" 
d="M471 166l-25 -116q-5 -20 -0.5 -25t23.5 -5h80l-4 -20h-270l4 20h80q20 0 26.5 5.5t10.5 24.5l25 116h-331l6 25l466 499h20l-106 -499h110l-6 -25h-109zM126 191h300l88 415z" />
    <glyph glyph-name="five.tf" horiz-adv-x="600" 
d="M507 610q-35 0 -103.5 11t-93.5 13l-76 -264q67 40 144 40q88 0 137 -39.5t49 -114.5q0 -118 -81 -192t-205 -74q-81 0 -126.5 31.5t-45.5 71.5q0 16 9 26.5t23 10.5q20 0 20 -18q0 -2 -1.5 -11.5t-1.5 -13.5q0 -72 128 -72q105 0 168.5 70t63.5 176q0 124 -142 124
q-78 0 -148 -44h-25l101 344q41 0 135 -20t131 -20q45 0 57 55h20q-19 -90 -137 -90z" />
    <glyph glyph-name="six.tf" horiz-adv-x="600" 
d="M478 690q69 0 112.5 -31t43.5 -71q0 -38 -31 -38q-21 0 -21 19q0 3 1.5 12.5t1.5 12.5q0 35 -31.5 53t-81.5 18q-96 0 -169.5 -91t-105.5 -228q98 69 193 69q86 0 135.5 -38.5t49.5 -113.5q0 -114 -78.5 -193.5t-193.5 -79.5q-91 0 -134 55.5t-43 145.5q0 116 45.5 230.5
t128 191.5t178.5 77zM385 390q-95 0 -195 -73q-12 -64 -12 -130q0 -172 130 -172q96 0 157 76t61 177q0 122 -141 122z" />
    <glyph glyph-name="seven.tf" horiz-adv-x="600" 
d="M682 690q-40 -61 -111 -149t-120 -149.5t-98.5 -158.5t-71.5 -201q-9 -42 -34 -42t-17 39q18 85 72 182.5t107 165.5t117 144.5t82 103.5q-38 -25 -102 -25q-49 0 -108 20t-88 20q-43 0 -71 -23.5t-34 -50.5l-11 -53h-20l36 167h20l-13 -59q38 69 142 69q41 0 114 -25
t110 -25q22 0 38.5 11.5t35.5 38.5h25z" />
    <glyph glyph-name="eight.tf" horiz-adv-x="600" 
d="M618 558q0 -74 -53.5 -120.5t-150.5 -80.5q34 -20 55 -34t44.5 -35.5t35 -48t11.5 -57.5q0 -92 -72.5 -142t-184.5 -50q-98 0 -148.5 43.5t-50.5 106.5q0 36 19 69.5t52 60.5t69 48t79 38q-53 32 -83 67t-30 84q0 84 68 133.5t169 49.5q82 0 126.5 -37.5t44.5 -94.5z
M387 372q91 32 136 73t45 113q0 53 -39 80t-88 27q-76 0 -128.5 -39t-52.5 -108q0 -46 32.5 -78t94.5 -68zM510 173q0 12 -3 24t-6 21t-11.5 19.5t-13 17t-17.5 17t-18.5 15t-22 14.5t-21.5 13t-24 14t-23 13q-39 -18 -60 -28t-51.5 -29.5t-45.5 -37t-27 -44.5t-12 -59
q0 -51 37 -89.5t117 -38.5q89 0 145.5 43.5t56.5 114.5z" />
    <glyph glyph-name="nine.tf" horiz-adv-x="600" 
d="M442 690q91 0 134 -55.5t43 -145.5q0 -116 -45.5 -230.5t-128.5 -191.5t-178 -77q-70 0 -113.5 31t-43.5 72q0 16 9 26.5t23 10.5q20 0 20 -18q0 -2 -1.5 -12t-1.5 -13q0 -36 31 -54t82 -18q96 0 170 92t106 228q-99 -70 -194 -70q-87 0 -136 38.5t-49 114.5
q0 113 79 192.5t194 79.5zM360 290q95 0 194 74q13 61 13 129q0 172 -131 172q-95 0 -156 -75.5t-61 -178.5q0 -121 141 -121z" />
    <glyph glyph-name="zero.tosf" horiz-adv-x="600" 
d="M408 510q97 0 144.5 -54t47.5 -138q0 -134 -87 -231t-215 -97q-98 0 -145 53.5t-47 138.5q0 133 87.5 230.5t214.5 97.5zM403 485q-107 0 -177.5 -93t-70.5 -214q0 -70 34.5 -116.5t113.5 -46.5q107 0 177.5 92.5t70.5 214.5q0 70 -34.5 116.5t-113.5 46.5z" />
    <glyph glyph-name="one.tosf" horiz-adv-x="600" 
d="M115 0l4 20h130q20 0 26.5 5.5t10.5 24.5l78 370q5 20 0.5 25t-23.5 5h-130l4 20q99 0 138.5 8.5t59.5 31.5h20l-97 -460q-5 -20 -0.5 -25t23.5 -5h130l-4 -20h-370z" />
    <glyph glyph-name="two.tosf" horiz-adv-x="600" 
d="M398 510q86 0 136.5 -29.5t50.5 -89.5q0 -30 -14.5 -61t-35 -56t-57 -54.5t-65 -49t-76.5 -47t-73.5 -41t-72.5 -37.5h204q61 0 89 17.5t39 71.5l7 31h20l-35 -165h-430l4 20q25 14 74.5 40t78.5 41.5t73 41.5t71 44.5t58 44.5t48.5 48.5t29.5 49t12 53.5q0 44 -35.5 73
t-105.5 29q-60 0 -100 -22.5t-49 -67.5q-5 -25 -30 -25q-21 0 -21 19q0 42 65 81.5t140 39.5z" />
    <glyph glyph-name="three.tosf" horiz-adv-x="600" 
d="M320 175q38 -3 70.5 -12t62.5 -25.5t47 -44.5t17 -65q0 -100 -83 -159t-199 -59q-81 0 -126.5 31.5t-45.5 71.5q0 16 9 26.5t23 10.5q20 0 20 -18q0 -2 -1.5 -11.5t-1.5 -13.5q0 -72 128 -72q95 0 160.5 51.5t65.5 136.5q0 38 -19 65t-51.5 41t-65.5 20t-71 6h-46l9 40
h46q105 2 178 52.5t73 134.5q0 48 -36 75.5t-105 27.5q-60 0 -100 -22.5t-49 -67.5q-5 -25 -30 -25q-21 0 -21 19q0 42 65.5 81.5t140.5 39.5q87 0 136 -33t49 -92q0 -84 -73.5 -141t-175.5 -69z" />
    <glyph glyph-name="four.tosf" horiz-adv-x="600" 
d="M547 11l-5 -25h-110l-35 -166h-50l35 166h-330l5 25l466 499h20l-106 -499h110zM87 11h301l88 415z" />
    <glyph glyph-name="five.tosf" horiz-adv-x="600" 
d="M469 430q-35 0 -103.5 11t-93.5 13l-76 -264q67 40 144 40q88 0 137 -39.5t49 -114.5q0 -118 -81 -192t-205 -74q-81 0 -126.5 31.5t-45.5 71.5q0 16 9 26.5t23 10.5q20 0 20 -18q0 -2 -1.5 -11.5t-1.5 -13.5q0 -72 128 -72q105 0 168.5 70t63.5 176q0 124 -142 124
q-78 0 -148 -44h-25l101 344q41 0 135 -20t131 -20q45 0 57 55h20q-19 -90 -137 -90z" />
    <glyph glyph-name="six.tosf" horiz-adv-x="600" 
d="M478 690q69 0 112.5 -31t43.5 -71q0 -38 -31 -38q-21 0 -21 19q0 3 1.5 12.5t1.5 12.5q0 35 -31.5 53t-81.5 18q-96 0 -169.5 -91t-105.5 -228q98 69 193 69q86 0 135.5 -38.5t49.5 -113.5q0 -114 -78.5 -193.5t-193.5 -79.5q-91 0 -134 55.5t-43 145.5q0 116 45.5 230.5
t128 191.5t178.5 77zM385 390q-95 0 -195 -73q-12 -64 -12 -130q0 -172 130 -172q96 0 157 76t61 177q0 122 -141 122z" />
    <glyph glyph-name="seven.tosf" horiz-adv-x="600" 
d="M643 510q-40 -61 -110.5 -148.5t-119.5 -149.5t-98.5 -159t-71.5 -201q-9 -42 -34 -42t-17 39q18 85 72 183t106.5 165.5t117 144.5t82.5 103q-40 -25 -103 -25q-49 0 -107.5 20t-87.5 20q-43 0 -71 -23.5t-34 -50.5l-11 -53h-20l35 167h20l-12 -59q38 69 141 69
q40 0 114 -25t111 -25q40 0 73 50h25z" />
    <glyph glyph-name="eight.tosf" horiz-adv-x="600" 
d="M618 558q0 -74 -53.5 -120.5t-150.5 -80.5q34 -20 55 -34t44.5 -35.5t35 -48t11.5 -57.5q0 -92 -72.5 -142t-184.5 -50q-98 0 -148.5 43.5t-50.5 106.5q0 36 19 69.5t52 60.5t69 48t79 38q-53 32 -83 67t-30 84q0 84 68 133.5t169 49.5q82 0 126.5 -37.5t44.5 -94.5z
M387 372q91 32 136 73t45 113q0 53 -39 80t-88 27q-76 0 -128.5 -39t-52.5 -108q0 -46 32.5 -78t94.5 -68zM510 173q0 12 -3 24t-6 21t-11.5 19.5t-13 17t-17.5 17t-18.5 15t-22 14.5t-21.5 13t-24 14t-23 13q-39 -18 -60 -28t-51.5 -29.5t-45.5 -37t-27 -44.5t-12 -59
q0 -51 37 -89.5t117 -38.5q89 0 145.5 43.5t56.5 114.5z" />
    <glyph glyph-name="nine.tosf" horiz-adv-x="600" 
d="M403 510q91 0 134 -55.5t43 -145.5q0 -116 -45.5 -230.5t-128.5 -191.5t-178 -77q-70 0 -113.5 31t-43.5 72q0 16 9 26.5t23 10.5q20 0 20 -18q0 -2 -1.5 -12t-1.5 -13q0 -36 31 -54t82 -18q96 0 170 92t106 228q-99 -70 -194 -70q-87 0 -136 38.5t-49 114.5
q0 113 79 192.5t194 79.5zM321 110q95 0 194 74q13 61 13 129q0 172 -131 172q-95 0 -156 -75.5t-61 -178.5q0 -121 141 -121z" />
    <glyph glyph-name="zero.dnom" horiz-adv-x="334" 
d="M240 345q51 0 76.5 -30t25.5 -83q0 -95 -48.5 -166t-127.5 -71q-51 0 -76.5 30.5t-25.5 83.5q0 94 49 165t127 71zM237 331q-41 0 -72.5 -38t-46.5 -90.5t-15 -107.5q0 -86 66 -86q41 0 72.5 37.5t46.5 90.5t15 108q0 86 -66 86z" />
    <glyph glyph-name="one.dnom" horiz-adv-x="195" 
d="M24 0l3 13h38q10 0 13 2.5t5 12.5l56 265q2 10 0 12.5t-12 2.5h-38l3 12q65 0 85 25h13l-67 -317q-2 -10 0 -12.5t12 -2.5h37l-3 -13h-145z" />
    <glyph glyph-name="two.dnom" horiz-adv-x="285" 
d="M204 345q45 0 71.5 -18.5t26.5 -53.5q0 -53 -50 -104t-171 -135h112q29 0 42.5 7.5t17.5 30.5l3 13h12l-18 -85h-225l3 13q62 44 94 68.5t69.5 59.5t53.5 66.5t16 64.5q0 26 -14.5 42.5t-43.5 16.5q-58 0 -67 -45q-4 -18 -23 -18q-15 0 -15 13q0 23 33 43.5t73 20.5z" />
    <glyph glyph-name="three.dnom" horiz-adv-x="286" 
d="M178 178q97 -9 97 -73q0 -52 -42.5 -81t-104.5 -29q-40 0 -64.5 16t-24.5 36q0 11 6.5 18t16.5 7q15 0 15 -14l-1 -14q0 -35 57 -35q45 0 73.5 27t28.5 68q0 64 -93 64h-23l5 20h23q50 0 83.5 26.5t33.5 68.5q0 48 -61 48q-59 0 -68 -45q-5 -18 -23 -18q-15 0 -15 13
q0 23 33 43.5t73 20.5q98 0 98 -61q0 -46 -36.5 -72.5t-86.5 -33.5z" />
    <glyph glyph-name="four.dnom" horiz-adv-x="290" 
d="M285 345l-52 -248h52l-3 -14h-52l-12 -55q-2 -10 0 -12.5t12 -2.5h37l-3 -13h-145l3 13h38q10 0 13 2.5t5 12.5l12 55h-158l3 14l237 248h13zM53 97h140l40 189z" />
    <glyph glyph-name="five.dnom" horiz-adv-x="290" 
d="M244 292q-19 0 -55 6t-47 7l-35 -120q35 20 72 20q46 0 73 -20t27 -58q0 -59 -42.5 -95.5t-107.5 -36.5q-40 0 -64.5 16t-24.5 36q0 11 6.5 18t16.5 7q15 0 15 -14q0 -3 -0.5 -7.5t-0.5 -6.5q0 -35 57 -35q49 0 77 36.5t28 87.5q0 58 -65 58q-37 0 -72 -23h-15l52 175
q24 0 72 -10t65 -10q25 0 30 26h13q-13 -57 -75 -57z" />
    <glyph glyph-name="six.dnom" horiz-adv-x="308" 
d="M244 345q34 0 57.5 -16t23.5 -36q0 -11 -6.5 -18t-17.5 -7q-15 0 -15 13q0 2 1 7.5t1 7.5q0 35 -50 35q-44 0 -77.5 -43.5t-49.5 -108.5q45 30 89 30t70.5 -19.5t26.5 -57.5q0 -58 -41.5 -97.5t-101.5 -39.5q-48 0 -71 29.5t-23 76.5q0 90 54 167t130 77zM193 194
q-42 0 -85 -32q-8 -40 -8 -75q0 -78 57 -78q43 0 71.5 39t28.5 89q0 57 -64 57z" />
    <glyph glyph-name="seven.dnom" horiz-adv-x="284" 
d="M337 345q-21 -32 -70 -91t-80.5 -112t-45.5 -119q-6 -28 -26 -28t-15 26q11 49 46.5 102t86 110.5t59.5 69.5q-25 -17 -57 -17q-23 0 -53 11.5t-44 11.5q-19 0 -31 -10t-15 -23l-5 -22h-13l18 86h13l-7 -36q22 41 74 41q22 0 57.5 -15t51.5 -15q21 0 41 30h15z" />
    <glyph glyph-name="eight.dnom" horiz-adv-x="295" 
d="M308 279q0 -63 -98 -97q23 -13 36 -22.5t24.5 -27t11.5 -38.5q0 -47 -38.5 -73t-97.5 -26q-52 0 -77.5 21.5t-25.5 52.5q0 63 108 105q-56 35 -56 79q0 43 36 67.5t89 24.5q43 0 65.5 -19t22.5 -47zM196 190q40 16 60.5 36t20.5 53q0 25 -18 38.5t-42 13.5
q-35 0 -59 -18.5t-24 -50.5q0 -23 15.5 -38.5t46.5 -33.5zM242 83q0 26 -17 42.5t-52 36.5q-5 3 -7 4q-30 -14 -46.5 -23.5t-31 -28.5t-14.5 -43t18.5 -43t56.5 -19q41 0 67 20.5t26 53.5z" />
    <glyph glyph-name="nine.dnom" horiz-adv-x="308" 
d="M224 345q48 0 71 -29.5t23 -76.5q0 -90 -54.5 -167t-129.5 -77q-35 0 -58 16t-23 36q0 11 6.5 18t16.5 7q15 0 15 -14q0 -2 -0.5 -7t-0.5 -8q0 -34 49 -34q44 0 78 44t50 109q-45 -31 -89 -31q-45 0 -71 19.5t-26 57.5q0 58 41.5 97.5t101.5 39.5zM185 146q42 0 85 32
q8 40 8 75q0 78 -57 78q-43 0 -71.5 -39t-28.5 -89q0 -57 64 -57z" />
    <glyph glyph-name="zero.numr" horiz-adv-x="334" 
d="M313 685q51 0 76 -30t25 -82q0 -95 -48.5 -166.5t-127.5 -71.5q-51 0 -76.5 30.5t-25.5 83.5q0 93 49.5 164.5t127.5 71.5zM310 671q-41 0 -73 -38t-47 -91t-15 -107q0 -86 66 -86q41 0 73 38t47 91.5t15 107.5q0 85 -66 85z" />
    <glyph glyph-name="one.numr" horiz-adv-x="195" 
d="M96 340l3 13h38q10 0 13 2.5t5 12.5l57 265q2 10 0 12.5t-12 2.5h-38l2 12q64 0 86 25h13l-68 -317q-2 -10 0 -12.5t12 -2.5h37l-3 -13h-145z" />
    <glyph glyph-name="two.numr" horiz-adv-x="285" 
d="M277 685q45 0 71 -18.5t26 -53.5q0 -52 -50 -104t-171 -135h112q29 0 42.5 7.5t18.5 30.5l2 13h12l-18 -85h-225l3 13q62 44 94.5 68.5t70 59.5t53.5 66.5t16 64.5q0 26 -14.5 42.5t-43.5 16.5q-58 0 -68 -45q-4 -18 -23 -18q-14 0 -14 13q0 24 32.5 44t73.5 20z" />
    <glyph glyph-name="three.numr" horiz-adv-x="286" 
d="M251 518q97 -9 97 -73q0 -52 -42.5 -81t-104.5 -29q-40 0 -64.5 16t-24.5 36q0 11 6.5 18t16.5 7q15 0 15 -14l-1 -14q0 -35 57 -35q45 0 73.5 27t28.5 68q0 64 -93 64h-23l5 20h23q50 0 83.5 26.5t33.5 68.5q0 48 -61 48q-59 0 -68 -45q-5 -18 -23 -18q-15 0 -15 13
q0 23 33 43.5t73 20.5q98 0 98 -61q0 -46 -36.5 -72.5t-86.5 -33.5z" />
    <glyph glyph-name="four.numr" horiz-adv-x="290" 
d="M358 685l-53 -248h52l-3 -14h-52l-12 -55q-2 -10 0 -12.5t12 -2.5h37l-3 -13h-145l3 13h38q10 0 13 2.5t5 12.5l12 55h-158l3 14l238 248h13zM125 437h140l40 189z" />
    <glyph glyph-name="five.numr" horiz-adv-x="290" 
d="M318 642q-19 0 -55 6t-47 7l-35 -120q35 20 72 20q46 0 73 -20t27 -58q0 -59 -42.5 -95.5t-107.5 -36.5q-40 0 -64.5 16t-24.5 36q0 11 6.5 18t16.5 7q15 0 15 -14q0 -3 -0.5 -7.5t-0.5 -6.5q0 -35 57 -35q49 0 77 36.5t28 87.5q0 58 -65 58q-37 0 -72 -23h-15l52 175
q24 0 72 -10t65 -10q25 0 30 26h13q-13 -57 -75 -57z" />
    <glyph glyph-name="six.numr" horiz-adv-x="308" 
d="M314 685q34 0 57.5 -16t23.5 -36q0 -11 -6.5 -18t-17.5 -7q-15 0 -15 13q0 2 1 7.5t1 7.5q0 35 -50 35q-44 0 -77.5 -43.5t-49.5 -108.5q45 30 89 30t70.5 -19.5t26.5 -57.5q0 -58 -41.5 -97.5t-101.5 -39.5q-48 0 -71 29.5t-23 76.5q0 90 54 167t130 77zM263 534
q-42 0 -85 -32q-8 -40 -8 -75q0 -78 57 -78q43 0 71.5 39t28.5 89q0 57 -64 57z" />
    <glyph glyph-name="seven.numr" horiz-adv-x="284" 
d="M410 685q-21 -31 -70.5 -90.5t-81 -112.5t-45.5 -119q-6 -28 -26 -28q-19 0 -14 26q10 49 45 101.5t87 111.5t60 69q-26 -17 -58 -17q-23 0 -53 11.5t-44 11.5q-19 0 -31 -10t-15 -23l-5 -22h-13l19 86h13l-8 -36q23 41 75 41q22 0 57 -15t51 -15q22 0 42 30h15z" />
    <glyph glyph-name="eight.numr" horiz-adv-x="295" 
d="M383 619q0 -63 -98 -97q35 -20 53.5 -39t18.5 -49q0 -47 -38.5 -73t-97.5 -26q-52 0 -77.5 21.5t-25.5 52.5q0 63 108 105q-56 35 -56 79q0 43 36 67.5t89 24.5q43 0 65.5 -19t22.5 -47zM271 530q40 16 60.5 36t20.5 53q0 25 -18 38.5t-42 13.5q-35 0 -59 -18.5
t-24 -50.5q0 -23 15.5 -38.5t46.5 -33.5zM317 423q0 26 -17 42.5t-52 36.5q-2 1 -3.5 2t-3.5 2q-30 -14 -46.5 -23.5t-31 -28.5t-14.5 -43t18.5 -43t56.5 -19q41 0 67 20.5t26 53.5z" />
    <glyph glyph-name="nine.numr" horiz-adv-x="308" 
d="M297 685q48 0 71 -29.5t23 -76.5q0 -90 -54.5 -167t-129.5 -77q-35 0 -58 16t-23 36q0 11 6.5 18t16.5 7q15 0 15 -14q0 -2 -0.5 -7t-0.5 -8q0 -34 49 -34q44 0 78 44t50 109q-45 -31 -89 -31q-45 0 -71 19.5t-26 57.5q0 58 41.5 97.5t101.5 39.5zM258 486q42 0 85 32
q8 40 8 75q0 78 -57 78q-43 0 -71.5 -39t-28.5 -89q0 -57 64 -57z" />
    <glyph glyph-name="zero.sups" horiz-adv-x="334" 
d="M334 785q51 0 76.5 -30.5t25.5 -83.5q0 -93 -49.5 -164.5t-127.5 -71.5q-51 0 -76 30t-25 82q0 95 48.5 166.5t127.5 71.5zM331 771q-41 0 -73 -38.5t-47 -92t-15 -107.5q0 -84 66 -84q61 0 98 74.5t37 161.5q0 86 -66 86z" />
    <glyph glyph-name="four.sups" horiz-adv-x="290" 
d="M379 785l-53 -248h52l-3 -14h-52l-12 -55q-2 -10 0 -12.5t12 -2.5h37l-2 -13h-145l2 13h38q10 0 13.5 2.5t4.5 12.5l12 55h-158l3 14l238 248h13zM146 537h140l40 189z" />
    <glyph glyph-name="five.sups" horiz-adv-x="290" 
d="M339 742q-19 0 -55 6t-47 7l-35 -120q35 20 72 20q46 0 73 -20t27 -58q0 -59 -42.5 -95.5t-107.5 -36.5q-40 0 -64.5 16t-24.5 36q0 11 6.5 18t16.5 7q15 0 15 -14q0 -3 -0.5 -7.5t-0.5 -6.5q0 -35 57 -35q49 0 77 36.5t28 87.5q0 58 -65 58q-37 0 -72 -23h-15l52 175
q24 0 72 -10t65 -10q25 0 30 26h13q-13 -57 -75 -57z" />
    <glyph glyph-name="six.sups" horiz-adv-x="308" 
d="M338 785q34 0 57.5 -16t23.5 -36q0 -11 -6.5 -18t-17.5 -7q-15 0 -15 13q0 2 1 7.5t1 7.5q0 35 -50 35q-44 0 -77.5 -43.5t-49.5 -108.5q45 30 89 30t70.5 -19.5t26.5 -57.5q0 -58 -41.5 -97.5t-101.5 -39.5q-48 0 -71 29.5t-23 76.5q0 90 54 167t130 77zM287 634
q-42 0 -85 -32q-8 -40 -8 -75q0 -78 57 -78q43 0 71.5 39t28.5 89q0 57 -64 57z" />
    <glyph glyph-name="seven.sups" horiz-adv-x="284" 
d="M431 785q-21 -32 -70 -91t-81 -112t-46 -119q-5 -28 -26 -28q-19 0 -14 26q10 49 45 101.5t87 111.5t60 69q-25 -17 -58 -17q-23 0 -53 11.5t-44 11.5q-19 0 -31 -10t-15 -23l-4 -22h-13l18 86h13l-8 -36q23 41 75 41q22 0 57 -15t51 -15q22 0 42 30h15z" />
    <glyph glyph-name="eight.sups" horiz-adv-x="295" 
d="M404 719q0 -63 -98 -97q35 -20 53.5 -39t18.5 -49q0 -47 -38.5 -73t-97.5 -26q-52 0 -77.5 21.5t-25.5 52.5q0 63 108 105q-56 35 -56 79q0 43 36 67.5t89 24.5q43 0 65.5 -19t22.5 -47zM292 630q40 16 60.5 36t20.5 53q0 25 -18 38.5t-42 13.5q-35 0 -59 -18.5
t-24 -50.5q0 -23 15.5 -38.5t46.5 -33.5zM338 523q0 26 -17 42.5t-52 36.5q-2 1 -3.5 2t-3.5 2q-30 -14 -46.5 -23.5t-31 -28.5t-14.5 -43t18.5 -43t56.5 -19q41 0 67 20.5t26 53.5z" />
    <glyph glyph-name="nine.sups" horiz-adv-x="308" 
d="M318 785q48 0 71 -29.5t23 -76.5q0 -90 -54.5 -167t-129.5 -77q-35 0 -58 16t-23 36q0 11 6.5 18t16.5 7q15 0 15 -14q0 -2 -0.5 -7t-0.5 -8q0 -34 49 -34q44 0 78 44t50 109q-45 -31 -89 -31q-45 0 -71 19.5t-26 57.5q0 58 41.5 97.5t101.5 39.5zM279 586q42 0 85 32
q8 40 8 75q0 78 -57 78q-43 0 -71.5 -39t-28.5 -89q0 -57 64 -57z" />
    <glyph glyph-name="periodcentered.cap" horiz-adv-x="180" 
d="M171 379q24 0 24 -22q0 -16 -11 -27t-26 -11q-25 0 -25 22q0 16 11 27t27 11z" />
    <glyph glyph-name="exclamdown.cap" horiz-adv-x="290" 
d="M291 690q-24 0 -24 22q0 16 11 27t26 11q25 0 25 -22q0 -16 -11 -27t-27 -11zM143 -10q-13 0 -20 8.5t-4 21.5q1 4 57.5 223.5t79.5 326.5h20q-22 -105 -58 -321t-39 -229q-7 -30 -36 -30z" />
    <glyph glyph-name="questiondown.cap" horiz-adv-x="495" 
d="M294 690q-24 0 -24 22q0 16 11 27t26 11q25 0 25 -22q0 -16 -11 -27t-27 -11zM106 -10q-79 0 -124.5 36t-45.5 105q0 23 6 52q11 54 45 100.5t75.5 79t82.5 63t73 67t41 77.5h20q-8 -39 -37.5 -77.5t-66.5 -70.5t-74.5 -66.5t-68 -80t-41.5 -95.5q-5 -21 -5 -49
q0 -53 30.5 -84.5t94.5 -31.5q61 0 105.5 23.5t53.5 66.5q5 25 30 25q21 0 21 -19q0 -39 -70.5 -80t-144.5 -41z" />
    <glyph glyph-name="emdash.cap" horiz-adv-x="640" 
d="M668 365l-7 -30h-540l7 30h540z" />
    <glyph glyph-name="endash.cap" horiz-adv-x="490" 
d="M518 365l-7 -30h-390l7 30h390z" />
    <glyph glyph-name="hyphen.cap" horiz-adv-x="390" 
d="M418 365l-7 -30h-290l7 30h290z" />
    <glyph glyph-name="uni00AD.cap" horiz-adv-x="390" 
d="M398 365l-6 -30h-290l6 30h290z" />
    <glyph glyph-name="guillemotleft.cap" 
d="M308 160q-46 74 -96 113.5t-120 71.5l6 30q85 32 151.5 71.5t143.5 113.5l12 -15q-47 -61 -101.5 -103.5t-126.5 -81.5q112 -77 149 -185zM528 160q-46 74 -96 113.5t-120 71.5l6 30q85 32 151.5 71.5t143.5 113.5l12 -15q-47 -61 -101.5 -103.5t-126.5 -81.5
q112 -77 149 -185z" />
    <glyph glyph-name="guillemotright.cap" 
d="M68 160l-12 15q81 107 227 185q-56 39 -92 81.5t-56 103.5l18 15q45 -74 95 -113.5t120 -71.5l-6 -30q-85 -32 -151.5 -71.5t-142.5 -113.5zM288 160l-12 15q81 107 227 185q-56 39 -92 81.5t-56 103.5l18 15q45 -74 95 -113.5t120 -71.5l-6 -30q-85 -32 -151.5 -71.5
t-142.5 -113.5z" />
    <glyph glyph-name="guilsinglleft.cap" horiz-adv-x="350" 
d="M308 160q-46 74 -96 113.5t-120 71.5l6 30q85 32 151.5 71.5t143.5 113.5l12 -15q-47 -61 -101.5 -103.5t-126.5 -81.5q112 -77 149 -185z" />
    <glyph glyph-name="guilsinglright.cap" horiz-adv-x="350" 
d="M68 160l-12 15q81 107 227 185q-56 39 -92 81.5t-56 103.5l18 15q45 -74 95 -113.5t120 -71.5l-6 -30q-85 -32 -151.5 -71.5t-142.5 -113.5z" />
    <glyph glyph-name="at.cap" horiz-adv-x="870" 
d="M610 732q139 0 221.5 -69t82.5 -185q0 -131 -86 -239.5t-204 -108.5q-93 0 -93 63q0 15 6 34q-77 -77 -149 -77q-83 0 -83 71q0 56 48 131t125 132t147 57q34 0 51.5 -16.5t17.5 -43.5q0 -11 -3 -23l51 75h38l-200 -289q-19 -28 -19 -50q0 -21 17.5 -32.5t47.5 -11.5
q110 0 188.5 100.5t78.5 222.5q0 109 -79.5 174t-208.5 65q-124 0 -229.5 -67t-165.5 -176.5t-60 -233.5q0 -117 68.5 -186t196.5 -69l-5 -20q-137 0 -217.5 79t-80.5 207q0 129 68 241t183 178.5t247 66.5zM616 520q-55 0 -120.5 -51t-109.5 -121.5t-44 -124.5
q0 -53 50 -53q103 0 244 206q35 51 35 93q0 51 -55 51z" />
    <glyph glyph-name="caroncomb.alt" horiz-adv-x="0" 
d="M61 710q30 0 30 -36q0 -46 -30.5 -85t-73.5 -39l3 15q28 0 48.5 23.5t20.5 47.5q0 14 -11 14q-24 0 -24 21q0 16 10.5 27.5t26.5 11.5z" />
    </font>
</defs>
</svg>
