<?xml version="1.0" encoding="UTF-8"?><svg id="Capa_2" xmlns="http://www.w3.org/2000/svg" viewBox="0 0 41.56 40.23"><defs><style>.cls-1{fill:#2360ab;}.cls-1,.cls-2,.cls-3{stroke-width:0px;}.cls-2{fill:#fafcfd;}.cls-3{fill:#3d75ba;}</style></defs><g id="elementos"><circle class="cls-1" cx="22.26" cy="20.93" r="19.31" transform="translate(-3.19 37.82) rotate(-76.81)"/><circle class="cls-3" cx="19.31" cy="19.31" r="19.31" transform="translate(-5.94 29.7) rotate(-67.38)"/><path class="cls-2" d="m26.26,17.73c0-2.74-1.44-5.49-5.91-5.49-3.77,0-8.04,4.05-8.04,9.35,0,4.14,3.07,6.05,5.91,6.05.74,0,1.86-.33,2.6-.79l.98,2c-1.33.65-2.58,1.02-3.91,1.02-4.23,0-8.09-2.56-8.09-7.86,0-6.7,5.12-11.91,10.93-11.91,4.98,0,7.86,3.26,7.86,7.25,0,5.07-2.65,7.58-5.81,7.58-1.07,0-2.07-.56-2.37-1.72h-.09c-.56.88-1.67,1.49-2.6,1.49-1.72,0-2.98-1.4-2.98-3.44,0-2.98,2.19-5.81,4.79-5.81.7,0,1.21.33,1.58,1.12h.05l.37-.93h2.23l-1.21,5.21c-.28,1.26,0,1.81.93,1.81,1.16,0,2.79-1.63,2.79-4.93Zm-7.77,4.7c.42,0,.79-.28,1.3-1.02l.7-3.02c-.19-.42-.47-.6-.88-.6-1.21,0-2.14,1.91-2.14,3.3,0,.84.33,1.35,1.02,1.35Z"/></g></svg>