<?xml version="1.0" encoding="UTF-8"?><svg id="Capa_2" xmlns="http://www.w3.org/2000/svg" viewBox="0 0 42.02 40.68"><defs><style>.cls-1{fill:#2360ab;}.cls-1,.cls-2,.cls-3{stroke-width:0px;}.cls-2{fill:#fafcfd;}.cls-3{fill:#3d75ba;}</style></defs><g id="elementos"><circle class="cls-1" cx="22.5" cy="21.15" r="19.53" transform="translate(-2.99 3.72) rotate(-8.86)"/><circle class="cls-3" cx="19.53" cy="19.53" r="19.53" transform="translate(-2.89 35.65) rotate(-80.73)"/><path class="cls-2" d="m26.73,21.59c-.7-.69-1.57-.69-2.27,0-.53.53-1.06,1.05-1.58,1.59-.14.15-.26.18-.44.08-.34-.19-.71-.34-1.04-.54-1.54-.97-2.83-2.21-3.97-3.61-.57-.7-1.07-1.44-1.42-2.28-.07-.17-.06-.28.08-.42.53-.51,1.05-1.04,1.57-1.56.73-.73.73-1.59,0-2.32-.41-.42-.83-.83-1.24-1.25-.43-.43-.85-.86-1.28-1.28-.7-.68-1.57-.68-2.27,0-.53.53-1.05,1.07-1.59,1.58-.5.48-.76,1.06-.81,1.74-.08,1.11.19,2.16.57,3.18.78,2.11,1.98,3.99,3.43,5.71,1.96,2.33,4.29,4.17,7.03,5.5,1.23.6,2.51,1.06,3.89,1.13.95.05,1.78-.19,2.45-.93.45-.51.97-.97,1.45-1.46.71-.72.72-1.6,0-2.31-.85-.85-1.7-1.7-2.55-2.55Z"/></g></svg>