<?xml version="1.0" encoding="utf-8"?>
<!-- Generator: Adobe Illustrator 27.8.1, SVG Export Plug-In . SVG Version: 6.00 Build 0)  -->
<svg version="1.1" id="Capa_2_00000023264441022170138310000009917047018777372815_"
	 xmlns="http://www.w3.org/2000/svg" xmlns:xlink="http://www.w3.org/1999/xlink" x="0px" y="0px" viewBox="0 0 202.3 89.9"
	 style="enable-background:new 0 0 202.3 89.9;" xml:space="preserve">
<style type="text/css">
	.st0{fill:#F9B000;}
	.st1{fill:#9D773C;}
	.st2{fill:#FFFFFF;stroke:#FFFFFF;stroke-width:0.75;stroke-miterlimit:10;}
	.st3{enable-background:new    ;}
	.st4{fill:#FFFFFF;}
</style>
<path class="st0" d="M22.8,27.3c4.6-4,10.4-6.6,16.9-7V7c-10.1,0.4-19.3,4.5-26.3,10.9C13.4,17.9,22.8,27.3,22.8,27.3z"/>
<path class="st0" d="M13.2,46.7c0.4-6.5,3-12.3,7-16.9l-9.4-9.4C4.5,27.4,0.4,36.6,0,46.7H13.2z"/>
<path class="st0" d="M39.7,76.6c-6.5-0.4-12.4-3-16.9-7L13.4,79c7,6.4,16.2,10.5,26.3,10.9C39.7,89.9,39.7,76.6,39.7,76.6z"/>
<path class="st0" d="M20.2,67.1c-4-4.6-6.6-10.4-7-16.9H0c0.4,10.1,4.5,19.3,10.9,26.3L20.2,67.1L20.2,67.1z"/>
<path class="st1" d="M41.4,70L41.4,70c-11.9,0-21.6-9.7-21.6-21.6s9.7-21.6,21.6-21.6l0,0V24l0,0C28,24.1,17.1,35,17.1,48.5
	S28,72.8,41.4,72.8l0,0V70L41.4,70z"/>
<path class="st1" d="M41.4,66.8V53.3l0,0c-2.7,0-4.8-2.2-4.8-4.8s2.2-4.8,4.8-4.8l0,0V30.1c-0.5,0.1-1,0.3-1.3,0.8l-3.3,5.8L30.4,35
	c-1.3-0.4-2.6,0.9-2.2,2.2l1.7,6.4l-5.8,3.3c-1.2,0.7-1.2,2.4,0,3.1l5.8,3.3l-1.7,6.4c-0.4,1.3,0.9,2.6,2.2,2.2l6.4-1.7l3.3,5.8
	C40.4,66.5,40.9,66.8,41.4,66.8L41.4,66.8z"/>
<g>
	<g>
		<path class="st2" d="M87.1,66l2.3,4.3H78.9l2.3-4.3V51.2l-2.3-4.4l2.3-4.3V27.7h-6.9l0.9-4.3H93l0.9,4.3H87v14.8l2.4,4.3l-2.3,4.3
			V66z"/>
		<path class="st2" d="M106.9,66l4.8-2.3l-1.4,6.6h-14l2.3-4.3V51.2l-2.3-4.4l2.3-4.3V27.7l-2.3-4.3h14l1.4,6.6l-4.8-2.3h-2.4v17
			h6.8V49h-6.8v17H106.9L106.9,66z"/>
		<path class="st2" d="M137.1,46.8l-2.3,4.3v15.7c-1.3,1.3-2.1,2.1-3.5,3.5h-11.6c-1.3-1.4-2.1-2.1-3.5-3.5V55.4l-2.3-4.3h10.5
			l-2.3,4.3v10.5h6.7V51.2l-2.3-4.3l2.3-4.3V27.7h-6.7l0.9-4.3h14l-2.3,4.3v14.8L137.1,46.8L137.1,46.8z"/>
		<path class="st2" d="M161.3,51.2v15.6c-1.4,1.3-2.1,2.1-3.5,3.5h-11.6c-1.3-1.4-2.1-2.1-3.5-3.5V51.1l-2.3-4.3l2.3-4.3V26.9
			c1.4-1.4,2.1-2.1,3.5-3.5h11.6c1.4,1.4,2.1,2.1,3.5,3.5v15.7l2.3,4.3L161.3,51.2L161.3,51.2z M155.4,66V51.2l-2.3-4.3l2.3-4.3
			V27.7h-6.8v14.8l2.3,4.3l-2.3,4.3v14.8L155.4,66L155.4,66z"/>
	</g>
	<g>
		<g class="st3">
			<path class="st4" d="M46.3,73.6h3.5c3,0,4.5,1.2,4.5,3.5c0,0.5-0.1,1-0.4,1.4c-0.3,0.4-0.6,0.7-1,0.9c0.5,0.1,0.9,0.4,1.3,0.9
				c0.4,0.4,0.5,1,0.5,1.6c0,1.2-0.4,2.1-1.1,2.8c-0.8,0.7-2,1-3.7,1h-3.5V73.6z M48.9,75.9v2.4h0.9c0.7,0,1.3-0.1,1.6-0.2
				c0.3-0.2,0.5-0.5,0.5-1c0-0.5-0.2-0.8-0.5-0.9c-0.3-0.1-0.8-0.2-1.6-0.2H48.9z M48.9,80.6v2.6h0.9c0.8,0,1.5-0.1,1.9-0.3
				c0.4-0.2,0.6-0.6,0.6-1.1c0-0.5-0.2-0.8-0.6-1c-0.4-0.2-1-0.2-1.8-0.2H48.9z"/>
			<path class="st4" d="M60.2,75.1c1.2-1.2,2.6-1.8,4.4-1.8s3.2,0.6,4.4,1.8s1.8,2.7,1.8,4.5c0,1.8-0.6,3.3-1.8,4.5
				s-2.6,1.8-4.4,1.8s-3.2-0.6-4.4-1.8c-1.2-1.2-1.8-2.7-1.8-4.5C58.4,77.8,59,76.3,60.2,75.1z M67.1,77c-0.7-0.7-1.5-1-2.5-1
				s-1.9,0.3-2.5,1s-1,1.5-1,2.6c0,1,0.3,1.9,1,2.6s1.5,1,2.5,1s1.9-0.3,2.5-1s1-1.5,1-2.6C68.1,78.6,67.7,77.7,67.1,77z"/>
			<path class="st4" d="M80.6,73.3c1,0,1.9,0.2,2.8,0.6c0.9,0.4,1.6,1,2.1,1.8l-2.1,1.6c-0.7-0.9-1.6-1.3-2.8-1.3
				c-1,0-1.9,0.3-2.5,1s-1,1.5-1,2.6c0,1,0.3,1.9,1,2.6s1.5,1,2.5,1c1.2,0,2.2-0.3,2.8-1v-1.3h-2V79h2h2.3v4.5
				c-0.6,0.7-1.3,1.3-2.2,1.7c-0.9,0.4-1.9,0.6-2.9,0.6c-1.8,0-3.2-0.6-4.4-1.8c-1.2-1.2-1.8-2.7-1.8-4.5c0-1.8,0.6-3.3,1.8-4.5
				C77.3,73.9,78.8,73.3,80.6,73.3z"/>
			<path class="st4" d="M91.5,75.1c1.2-1.2,2.6-1.8,4.4-1.8s3.2,0.6,4.4,1.8s1.8,2.7,1.8,4.5c0,1.8-0.6,3.3-1.8,4.5
				s-2.6,1.8-4.4,1.8s-3.2-0.6-4.4-1.8c-1.2-1.2-1.8-2.7-1.8-4.5C89.7,77.8,90.3,76.3,91.5,75.1z M98.4,77c-0.7-0.7-1.5-1-2.5-1
				s-1.9,0.3-2.5,1s-1,1.5-1,2.6c0,1,0.3,1.9,1,2.6s1.5,1,2.5,1s1.9-0.3,2.5-1s1-1.5,1-2.6C99.4,78.6,99,77.7,98.4,77z"/>
			<path class="st4" d="M105.5,73.6h9.4v2.3h-3.4v9.7h-2.6v-9.7h-3.4V73.6z"/>
			<path class="st4" d="M121.6,73.6h3.1l4.6,12h-2.9l-0.8-2.2h-4.9l-0.8,2.2H117L121.6,73.6z M123.1,76.8l-1.6,4.3h3.2L123.1,76.8z
				 M123.5,69.6h2.3l-1.8,3.5h-1.6L123.5,69.6z"/>
			<path class="st4" d="M145.9,73.3c1.3,0,2.3,0.3,3.2,0.9s1.3,1.5,1.3,2.7c0,0.8-0.2,1.4-0.7,2s-1,1.1-1.6,1.4
				c-0.6,0.4-1.3,0.7-1.9,1c-0.6,0.3-1.2,0.6-1.6,0.9c-0.4,0.3-0.7,0.7-0.7,1h6.7v2.4h-9.4V84c0-0.7,0.2-1.3,0.5-1.9
				s0.7-1.1,1.2-1.4s1-0.7,1.6-1.1s1.1-0.6,1.6-0.8c0.5-0.2,0.9-0.5,1.2-0.8c0.3-0.3,0.5-0.5,0.5-0.8c0-0.5-0.1-0.9-0.4-1.1
				c-0.3-0.2-0.7-0.3-1.3-0.3c-0.5,0-1,0.1-1.4,0.3c-0.5,0.2-0.8,0.5-1.1,0.7l-0.4,0.3l-1.5-1.9c0,0,0.1-0.1,0.2-0.2
				c0.1-0.1,0.3-0.2,0.6-0.4c0.3-0.2,0.6-0.4,0.9-0.6c0.3-0.2,0.7-0.3,1.2-0.4C144.9,73.4,145.4,73.3,145.9,73.3z"/>
			<path class="st4" d="M159.8,73.3c1.5,0,2.8,0.6,3.8,1.8c1,1.2,1.5,2.7,1.5,4.5c0,1.8-0.5,3.3-1.5,4.5s-2.3,1.8-3.8,1.8
				c-1.5,0-2.8-0.6-3.8-1.8c-1-1.2-1.5-2.7-1.5-4.5c0-1.8,0.5-3.3,1.5-4.5C157.1,73.9,158.3,73.3,159.8,73.3z M159.8,75.8
				c-0.8,0-1.4,0.4-1.9,1.1s-0.8,1.6-0.8,2.7c0,1.1,0.3,2,0.8,2.7c0.5,0.7,1.1,1.1,1.9,1.1s1.4-0.4,1.9-1.1s0.7-1.6,0.7-2.7
				c0-1.1-0.3-2-0.8-2.7C161.2,76.2,160.6,75.8,159.8,75.8z"/>
			<path class="st4" d="M173.9,73.3c1.3,0,2.3,0.3,3.2,0.9c0.9,0.6,1.3,1.5,1.3,2.7c0,0.8-0.2,1.4-0.7,2c-0.5,0.6-1,1.1-1.6,1.4
				c-0.6,0.4-1.3,0.7-1.9,1s-1.2,0.6-1.6,0.9c-0.5,0.3-0.7,0.7-0.7,1h6.7v2.4h-9.4V84c0-0.7,0.2-1.3,0.5-1.9
				c0.3-0.6,0.7-1.1,1.2-1.4c0.5-0.4,1-0.7,1.6-1.1s1.1-0.6,1.6-0.8c0.5-0.2,0.9-0.5,1.2-0.8c0.3-0.3,0.5-0.5,0.5-0.8
				c0-0.5-0.1-0.9-0.4-1.1s-0.7-0.3-1.3-0.3c-0.5,0-1,0.1-1.4,0.3c-0.5,0.2-0.8,0.5-1.1,0.7l-0.4,0.3l-1.5-1.9c0,0,0.1-0.1,0.2-0.2
				c0.1-0.1,0.3-0.2,0.6-0.4c0.3-0.2,0.6-0.4,0.9-0.6c0.3-0.2,0.7-0.3,1.2-0.4C172.9,73.4,173.4,73.3,173.9,73.3z"/>
			<path class="st4" d="M186.9,73.3c1.3,0,2.3,0.3,3.2,0.9c0.9,0.6,1.3,1.5,1.3,2.7c0,0.4-0.1,0.7-0.2,1c-0.1,0.3-0.3,0.5-0.5,0.7
				c-0.2,0.2-0.4,0.3-0.6,0.4c-0.2,0.1-0.4,0.2-0.5,0.2l-0.2,0.1c0.1,0,0.2,0,0.3,0c0.1,0,0.3,0.1,0.6,0.2s0.5,0.2,0.7,0.4
				c0.2,0.2,0.4,0.4,0.6,0.8s0.3,0.7,0.3,1.2c0,1.1-0.5,2-1.3,2.7c-0.9,0.7-2,1-3.4,1c-0.6,0-1.1-0.1-1.7-0.2s-1-0.3-1.3-0.5
				c-0.3-0.2-0.7-0.4-0.9-0.5c-0.3-0.2-0.5-0.3-0.6-0.5l-0.2-0.2l1.2-2c0,0,0.1,0.1,0.1,0.1s0.2,0.2,0.4,0.3
				c0.2,0.2,0.4,0.3,0.7,0.4c0.2,0.1,0.6,0.2,0.9,0.3c0.4,0.1,0.8,0.2,1.2,0.2c1.3,0,2-0.5,2-1.5c0-0.9-0.7-1.3-2.1-1.3h-1.8v-2h1.8
				c0.6,0,1.1-0.1,1.4-0.3c0.3-0.2,0.4-0.5,0.4-1c0-0.5-0.1-0.9-0.4-1.1c-0.3-0.2-0.7-0.3-1.3-0.3c-0.5,0-1,0.1-1.4,0.3
				c-0.5,0.2-0.8,0.5-1.1,0.7l-0.4,0.3l-1.5-1.9c0,0,0.1-0.1,0.2-0.2c0.1-0.1,0.3-0.2,0.5-0.4s0.6-0.4,0.9-0.6
				c0.3-0.2,0.7-0.3,1.2-0.4C185.9,73.4,186.4,73.3,186.9,73.3z"/>
		</g>
	</g>
	<g>
		<g class="st3">
			<path class="st4" d="M57.5,7.6h2.9l3.7,6.1l3.7-6.1h2.9v11.6h-2.6v-7.5l-4,6.6l-4-6.6v7.5h-2.6V7.6z"/>
			<path class="st4" d="M74.9,7.6h2.6v5.8c0,1,0.2,1.9,0.7,2.5c0.4,0.6,1.1,1,1.9,1c0.8,0,1.4-0.3,1.9-1c0.5-0.6,0.7-1.5,0.7-2.5
				V7.6h2.6v5.8c0,1.9-0.5,3.4-1.4,4.4c-1,1.1-2.2,1.6-3.7,1.6c-1.5,0-2.7-0.5-3.7-1.6c-0.9-1.1-1.4-2.5-1.4-4.4V7.6z"/>
			<path class="st4" d="M89.3,7.6h2.9l5.2,7.8V7.6h2.6v11.6H97l-5.2-7.9v7.9h-2.6V7.6z"/>
			<path class="st4" d="M104.1,19.2V7.6h3.9c1.7,0,3.1,0.5,4.3,1.6c1.1,1.1,1.7,2.5,1.7,4.2s-0.6,3.1-1.7,4.2
				c-1.1,1.1-2.6,1.6-4.3,1.6H104.1z M106.7,9.8V17h1.3c1,0,1.8-0.3,2.4-1c0.7-0.7,1-1.5,1-2.5c0-1-0.3-1.9-1-2.6
				c-0.7-0.7-1.5-1-2.4-1H106.7z"/>
			<path class="st4" d="M118,7.6h2.6v11.6H118V7.6z"/>
			<path class="st4" d="M128.7,7.6h3l4.4,11.6h-2.8l-0.8-2.1h-4.8l-0.8,2.1h-2.8L128.7,7.6z M130.2,10.7l-1.5,4.2h3.1L130.2,10.7z"
				/>
			<path class="st4" d="M139.8,7.6h2.6V17h4.5v2.3h-7.1V7.6z"/>
			<path class="st4" d="M158.6,19.2V7.6h3.9c1.7,0,3.1,0.5,4.3,1.6c1.1,1.1,1.7,2.5,1.7,4.2s-0.6,3.1-1.7,4.2
				c-1.1,1.1-2.6,1.6-4.3,1.6H158.6z M161.2,9.8V17h1.3c1,0,1.8-0.3,2.4-1c0.7-0.7,1-1.5,1-2.5c0-1-0.3-1.9-1-2.6
				c-0.7-0.7-1.5-1-2.4-1H161.2z"/>
			<path class="st4" d="M172.4,19.2V7.6h2.6h5.5v2.3H175v2.4h5v2.3h-5V17h5.5v2.3H175H172.4z"/>
		</g>
	</g>
</g>
</svg>
