<?xml version="1.0" encoding="UTF-8"?><svg id="Capa_2" xmlns="http://www.w3.org/2000/svg" viewBox="0 0 366.98 89.88"><defs><style>.cls-1,.cls-2{fill:#fff;}.cls-3{fill:#f9b000;}.cls-4{fill:#9d773c;}.cls-2{stroke:#fff;stroke-miterlimit:10;stroke-width:.75px;}</style></defs><g id="textos"><path class="cls-1" d="m91.53,77.41h3.54c2.97,0,4.46,1.15,4.46,3.45,0,.55-.15,1.03-.44,1.44-.3.42-.63.7-.99.86.51.15.95.45,1.31.9.36.45.54,1,.54,1.65,0,1.18-.38,2.1-1.13,2.76-.75.66-2,.98-3.74.98h-3.54v-12.04Zm2.65,2.34v2.36h.89c.74,0,1.27-.08,1.58-.24.31-.16.47-.5.47-1.01,0-.47-.15-.77-.46-.91-.31-.14-.84-.21-1.59-.21h-.89Zm0,4.71v2.65h.89c.83,0,1.45-.1,1.86-.31.41-.2.61-.57.61-1.09s-.21-.83-.64-1c-.43-.17-1.04-.25-1.84-.25h-.89Z"/><path class="cls-1" d="m114.96,78.95c1.17-1.17,2.64-1.75,4.39-1.75s3.21.58,4.38,1.75,1.75,2.66,1.75,4.48-.58,3.32-1.75,4.48-2.63,1.75-4.38,1.75-3.22-.58-4.39-1.75c-1.17-1.17-1.76-2.66-1.76-4.48s.59-3.32,1.76-4.48Zm6.92,1.9c-.67-.67-1.51-1.01-2.53-1.01s-1.86.34-2.53,1.01-1.01,1.53-1.01,2.58.34,1.91,1.01,2.58,1.51,1.01,2.53,1.01,1.86-.34,2.53-1.01c.67-.67,1.01-1.53,1.01-2.58s-.34-1.91-1.01-2.58Z"/><path class="cls-1" d="m144.89,77.19c1.01,0,1.95.21,2.8.62.85.42,1.56,1,2.12,1.75l-2.08,1.64c-.68-.9-1.63-1.35-2.83-1.35-1.01,0-1.85.34-2.52,1.01s-1,1.53-1,2.58.33,1.91,1,2.58,1.51,1.01,2.52,1.01c1.23,0,2.17-.33,2.83-.99v-1.3h-2.05v-1.91h4.35v4.47c-.56.73-1.3,1.31-2.22,1.73-.92.43-1.9.64-2.92.64-1.75,0-3.22-.59-4.39-1.76-1.17-1.17-1.76-2.66-1.76-4.47s.59-3.32,1.76-4.49c1.17-1.17,2.64-1.76,4.39-1.76Z"/><path class="cls-1" d="m165.32,78.95c1.17-1.17,2.64-1.75,4.39-1.75s3.21.58,4.38,1.75,1.75,2.66,1.75,4.48-.58,3.32-1.75,4.48-2.63,1.75-4.38,1.75-3.22-.58-4.39-1.75c-1.17-1.17-1.76-2.66-1.76-4.48s.59-3.32,1.76-4.48Zm6.92,1.9c-.67-.67-1.51-1.01-2.53-1.01s-1.86.34-2.53,1.01-1.01,1.53-1.01,2.58.34,1.91,1.01,2.58,1.51,1.01,2.53,1.01,1.86-.34,2.53-1.01c.67-.67,1.01-1.53,1.01-2.58s-.34-1.91-1.01-2.58Z"/><path class="cls-1" d="m188.87,77.41h9.43v2.34h-3.4v9.7h-2.65v-9.7h-3.38v-2.34Z"/><path class="cls-1" d="m214.5,77.41h3.07l4.59,12.04h-2.87l-.8-2.17h-4.92l-.8,2.17h-2.87l4.59-12.04Zm1.54,3.21l-1.59,4.32h3.18l-1.59-4.32Zm.43-7.17h2.29l-1.81,3.5h-1.61l1.13-3.5Z"/><path class="cls-1" d="m257.84,77.19c1.26,0,2.33.31,3.2.94s1.31,1.54,1.31,2.75c0,.76-.23,1.45-.67,2.05-.45.6-.99,1.08-1.63,1.44-.64.36-1.28.69-1.91.98s-1.18.61-1.63.93c-.45.32-.67.67-.67,1.03h6.7v2.36h-9.43v-1.79c0-.69.16-1.33.49-1.92s.73-1.06,1.2-1.43c.48-.37,1-.72,1.57-1.06.57-.34,1.09-.62,1.57-.85.48-.23.88-.48,1.2-.75.33-.27.49-.55.49-.82,0-.52-.14-.9-.43-1.12-.28-.22-.73-.33-1.35-.33-.48,0-.96.12-1.43.35-.48.23-.84.46-1.08.69l-.36.34-1.45-1.95s.11-.11.2-.2c.08-.09.27-.23.55-.44s.58-.4.9-.56.71-.31,1.2-.44c.48-.13.98-.2,1.48-.2Z"/><path class="cls-1" d="m281.34,77.19c1.5,0,2.75.59,3.76,1.76,1,1.17,1.5,2.67,1.5,4.49s-.5,3.32-1.5,4.48-2.25,1.75-3.76,1.75-2.78-.58-3.78-1.75c-1.01-1.17-1.51-2.66-1.51-4.48s.5-3.32,1.51-4.49c1.01-1.17,2.27-1.76,3.78-1.76Zm0,2.48c-.76,0-1.4.35-1.9,1.06s-.76,1.61-.76,2.71.25,1.99.76,2.7c.51.71,1.14,1.06,1.9,1.06s1.39-.35,1.89-1.05.74-1.6.74-2.71-.25-2.01-.75-2.71-1.13-1.06-1.88-1.06Z"/><path class="cls-1" d="m304.89,77.19c1.26,0,2.33.31,3.2.94s1.31,1.54,1.31,2.75c0,.76-.23,1.45-.67,2.05-.45.6-.99,1.08-1.63,1.44-.64.36-1.28.69-1.91.98s-1.18.61-1.63.93c-.45.32-.67.67-.67,1.03h6.7v2.36h-9.43v-1.79c0-.69.16-1.33.49-1.92s.73-1.06,1.2-1.43c.48-.37,1-.72,1.57-1.06.57-.34,1.09-.62,1.57-.85.48-.23.88-.48,1.2-.75.33-.27.49-.55.49-.82,0-.52-.14-.9-.43-1.12-.28-.22-.73-.33-1.35-.33-.48,0-.96.12-1.43.35-.48.23-.84.46-1.08.69l-.36.34-1.45-1.95s.11-.11.2-.2c.08-.09.27-.23.55-.44s.58-.4.9-.56.71-.31,1.2-.44c.48-.13.98-.2,1.48-.2Z"/><path class="cls-1" d="m327.45,77.19c1.26,0,2.33.32,3.21.95.88.63,1.31,1.54,1.31,2.74,0,.37-.07.7-.21,1.01-.14.31-.32.55-.52.72-.21.17-.41.32-.61.44-.21.12-.38.2-.53.23l-.21.07c.07,0,.15,0,.26.03.1.02.29.08.56.18s.51.24.73.41.4.43.57.78.26.75.26,1.2c0,1.12-.45,2.02-1.35,2.71-.9.69-2.04,1.03-3.42,1.03-.58,0-1.13-.06-1.67-.19-.53-.12-.97-.28-1.31-.46-.35-.18-.65-.36-.91-.55-.26-.18-.46-.34-.58-.46l-.17-.19,1.25-2.02.15.15c.06.06.2.18.42.34.22.17.45.31.69.43.24.12.56.23.95.33.39.1.79.15,1.2.15,1.34,0,2.02-.5,2.02-1.49,0-.89-.69-1.33-2.07-1.33h-1.79v-2.05h1.79c.64,0,1.09-.09,1.37-.27.27-.18.41-.52.41-1.02s-.14-.9-.43-1.12c-.28-.22-.73-.33-1.35-.33-.48,0-.95.12-1.43.35-.47.23-.83.46-1.07.69l-.36.34-1.45-1.95.2-.2c.09-.09.27-.23.55-.44.28-.21.57-.4.89-.56s.71-.31,1.2-.44c.48-.13.98-.2,1.48-.2Z"/><path class="cls-2" d="m70.14,63.96l2.3,4.31h-10.48l2.3-4.31v-14.83l-2.3-4.31,2.3-4.31v-14.81h-6.89l.92-4.33h17.81l.93,4.33h-6.89v14.81s2.3,4.31,2.3,4.31l-2.3,4.31v14.83Z"/><path class="cls-2" d="m90.02,63.94l4.84-2.3-1.45,6.63h-14l2.3-4.33v-14.81s-2.3-4.31-2.3-4.31l2.3-4.31v-14.81s-2.3-4.33-2.3-4.33h14l1.45,6.63-4.84-2.3h-2.44v16.95h6.75v4.33h-6.75v16.95h2.44Z"/><path class="cls-2" d="m120.19,44.82l-2.3,4.31v15.68c-1.35,1.35-2.11,2.11-3.47,3.47h-11.57c-1.35-1.35-2.11-2.11-3.47-3.47v-11.42l-2.3-4.31h10.48l-2.3,4.31v10.55h6.74v-14.81l-2.3-4.31,2.3-4.31v-14.81h-6.74l.92-4.33h14l-2.3,4.31v14.83l2.3,4.31Z"/><path class="cls-2" d="m144.36,49.13v15.67c-1.35,1.35-2.11,2.11-3.47,3.47h-11.57c-1.35-1.35-2.11-2.11-3.47-3.47v-15.68l-2.3-4.3,2.3-4.3v-15.68c1.35-1.35,2.11-2.11,3.47-3.47h11.57c1.35,1.35,2.11,2.11,3.47,3.47v15.67l2.3,4.31-2.3,4.31Zm-5.88,14.81v-14.81l-2.3-4.3,2.3-4.3v-14.81h-6.75v14.81l2.3,4.31-2.3,4.31v14.81h6.75Z"/><path class="cls-2" d="m149.95,47.04v-4.55h19.79v4.55h-19.79Z"/><path class="cls-2" d="m184.76,63.96l2.3,4.31h-10.48l2.3-4.31v-14.83l-2.3-4.31,2.3-4.31v-14.81h-6.89l.92-4.33h17.81l.93,4.33h-6.89v14.81s2.3,4.31,2.3,4.31l-2.3,4.31v14.83Z"/><path class="cls-2" d="m217.07,44.82l-2.3,4.31v15.68c-1.36,1.35-2.11,2.11-3.47,3.47h-11.57c-1.36-1.35-2.11-2.11-3.47-3.47v-15.67l-2.3-4.31,2.3-4.31v-14.83l-2.3-4.31h10.48l-2.3,4.31v14.83l2.3,4.31-2.3,4.31v14.81h6.74v-14.81s-2.3-4.31-2.3-4.31l2.3-4.31v-14.83s-2.3-4.31-2.3-4.31h10.48l-2.3,4.31v14.83l2.3,4.31Z"/><path class="cls-2" d="m244.74,68.27h-7.86v-.05s0,.05,0,.05h-2.3l1.4-3.53-3.4-13.29-3.82,3.76v8.75l2.3,4.31h-10.48l2.3-4.31v-14.83l-2.3-4.31,2.3-4.31v-14.81l-2.3-4.33h17.33c1.35,1.35,2.11,2.11,3.47,3.47v17.95l-4.1,4.04,4.39,17.14,3.08,4.31Zm-9.25-42.57h-6.74v23.43l6.74-6.64v-16.79Z"/><path class="cls-2" d="m273.36,49.13v14.83l2.3,4.31h-10.47l2.3-4.31v-30.64l-3.68,9.58-1.25,3.27h-2.09l-1.25-3.27-3.66-9.54v30.6l2.3,4.31h-10.48l2.3-4.31v-14.83l-2.3-4.31,2.3-4.31v-14.83l-2.3-4.31h8.18s5.96,15.54,5.96,15.54l5.96-15.54h8.19l-2.3,4.31v14.83l2.3,4.31-2.3,4.31Z"/><path class="cls-2" d="m289.87,63.94l4.84-2.3-1.45,6.63h-14l2.3-4.33v-14.81l-2.3-4.31,2.3-4.31v-14.81l-2.3-4.33h14l1.45,6.63-4.84-2.3h-2.44v16.95h6.75v4.33h-6.75v16.95h2.44Z"/><path class="cls-2" d="m318.75,49.13v15.68c-1.36,1.35-2.11,2.11-3.47,3.47h-3.62v4.5h-4.33v-4.5h-3.62c-1.35-1.35-2.11-2.11-3.47-3.47v-15.68l-2.3-4.31,2.3-4.31v-15.68c1.35-1.35,2.11-2.11,3.47-3.47h11.57c1.35,1.35,2.11,2.11,3.47,3.47v15.68l2.3,4.31-2.29,4.31Zm-12.63,14.81h6.74v-14.81l-2.3-4.31,2.3-4.31v-14.81h-6.74v14.81l2.3,4.31-2.3,4.31v14.81Z"/><path class="cls-2" d="m347.51,44.82l-2.3,4.31v15.68c-1.36,1.35-2.11,2.11-3.47,3.47h-11.57c-1.36-1.35-2.11-2.11-3.47-3.47v-15.67l-2.3-4.31,2.3-4.31v-14.83l-2.3-4.31h10.48l-2.3,4.31v14.83l2.3,4.31-2.3,4.31v14.81h6.74v-14.81s-2.3-4.31-2.3-4.31l2.3-4.31v-14.83s-2.3-4.31-2.3-4.31h10.48l-2.3,4.31v14.83l2.3,4.31Z"/><path class="cls-2" d="m361.62,63.94l4.84-2.3-1.45,6.63h-5.82s-8.18,0-8.18,0l2.3-4.33v-14.81l-2.3-4.31,2.3-4.31v-14.81l-2.3-4.33h14l1.45,6.63-4.84-2.3h-2.44v16.95h6.75v4.33h-6.75v16.95h2.44Zm-.68-45.56h-4.37l3.77-6.59h5.18l-4.58,6.59Z"/><path class="cls-1" d="m148.63,0h2.87l3.7,6.13,3.73-6.13h2.87v11.65h-2.56v-7.48l-4.05,6.58-4.01-6.58v7.48h-2.56V0Z"/><path class="cls-1" d="m166.36,0h2.56v5.83c0,1.05.22,1.89.66,2.52.44.63,1.06.95,1.87.95s1.43-.32,1.88-.95.68-1.47.68-2.52V0h2.56v5.83c0,1.89-.48,3.37-1.44,4.44-.96,1.06-2.19,1.59-3.68,1.59s-2.72-.53-3.67-1.59c-.95-1.06-1.42-2.54-1.42-4.44V0Z"/><path class="cls-1" d="m181.11,0h2.87l5.15,7.85V0h2.58v11.65h-2.87l-5.17-7.86v7.86h-2.56V0Z"/><path class="cls-1" d="m196.25,11.65V0h3.9c1.71,0,3.13.54,4.26,1.61s1.7,2.48,1.7,4.22-.57,3.14-1.7,4.21-2.56,1.6-4.26,1.6h-3.9Zm2.56-9.38v7.12h1.34c.97,0,1.78-.34,2.45-1.02s.99-1.52.99-2.54-.33-1.88-.99-2.55c-.66-.68-1.48-1.02-2.45-1.02h-1.34Z"/><path class="cls-1" d="m210.39,0h2.56v11.65h-2.56V0Z"/><path class="cls-1" d="m221.42,0h2.97l4.44,11.65h-2.78l-.78-2.1h-4.76l-.78,2.1h-2.78l4.44-11.65Zm1.49,3.11l-1.54,4.18h3.07l-1.54-4.18Z"/><path class="cls-1" d="m232.89,0h2.56v9.38h4.54v2.26h-7.1V0Z"/><path class="cls-1" d="m252.28,11.65V0h3.9c1.71,0,3.13.54,4.26,1.61s1.7,2.48,1.7,4.22-.57,3.14-1.7,4.21-2.56,1.6-4.26,1.6h-3.9Zm2.56-9.38v7.12h1.34c.97,0,1.78-.34,2.45-1.02s.99-1.52.99-2.54-.33-1.88-.99-2.55c-.66-.68-1.48-1.02-2.45-1.02h-1.34Z"/><path class="cls-1" d="m266.43,11.65V0h8.06v2.26h-5.5v2.41h4.96v2.28h-4.96v2.43h5.5v2.26h-8.06Z"/><path class="cls-3" d="m22.75,27.28c4.57-4.03,10.44-6.61,16.91-7.01V7.02c-10.12.42-19.3,4.47-26.28,10.89l9.37,9.37Z"/><path class="cls-3" d="m13.25,46.68c.4-6.47,2.98-12.35,7.01-16.91l-9.37-9.37C4.47,27.38.42,36.56,0,46.68h13.25Z"/><path class="cls-3" d="m39.66,76.63c-6.47-.4-12.35-2.98-16.91-7.01l-9.37,9.37c6.98,6.41,16.16,10.46,26.28,10.89v-13.25Z"/><path class="cls-3" d="m20.25,67.13c-4.03-4.57-6.61-10.44-7.01-16.91H0c.42,10.12,4.47,19.3,10.89,26.28l9.37-9.37Z"/><path class="cls-4" d="m41.43,70.01h0c-11.89,0-21.56-9.67-21.56-21.56s9.67-21.56,21.56-21.56h0v-2.76h0c-13.41,0-24.32,10.91-24.32,24.33s10.91,24.33,24.32,24.33h0v-2.76Z"/><path class="cls-4" d="m41.43,66.84v-13.58h0c-2.66,0-4.81-2.15-4.81-4.81s2.15-4.81,4.81-4.81h0v-13.58c-.52.07-1.03.32-1.33.84l-3.32,5.76-6.42-1.72c-1.34-.36-2.57.87-2.21,2.21l1.72,6.42-5.76,3.32c-1.2.69-1.2,2.43,0,3.13l5.76,3.32-1.72,6.42c-.36,1.34.87,2.57,2.21,2.21l6.42-1.72,3.32,5.76c.3.52.8.77,1.33.84Z"/></g></svg>