<?xml version="1.0" encoding="UTF-8"?><svg id="Capa_2" xmlns="http://www.w3.org/2000/svg" viewBox="0 0 353.78 71.32"><defs><style>.cls-1{fill:#354a93;}.cls-2{fill:#fbb913;}</style></defs><g id="textos"><path class="cls-1" d="m246.95,39.3c0-3.32-2.73-6.04-6.08-6.04h-7.32v19.28h7.96c3.36,0,6.09-2.71,6.09-6.04,0-1.48-.56-2.92-1.57-4.03.6-.95.92-2.04.92-3.17m-8.5-1.84h2.42c1.04,0,1.88.83,1.88,1.84s-.85,1.84-1.88,1.84h-2.42v-3.68Zm3.06,10.88h-3.06v-3.69h3.06c1.04,0,1.89.83,1.89,1.85s-.85,1.84-1.89,1.84"/><path class="cls-1" d="m258.09,32.91c-5.37,0-9.73,4.52-9.73,10.07s4.37,10.09,9.73,10.09,9.73-4.51,9.73-10.09-4.36-10.07-9.73-10.07m0,14.92c-2.48,0-4.49-2.17-4.49-4.85s2.02-4.84,4.49-4.84,4.5,2.17,4.5,4.84-2.02,4.85-4.5,4.85"/><path class="cls-1" d="m279.8,45.95h2.29v1.06c-.85.53-1.86.82-2.87.82-2.84,0-5.16-2.17-5.16-4.85s2.31-4.84,5.16-4.84c1.35,0,2.62.49,3.59,1.37l.51.47,3.53-3.87-.5-.46c-1.94-1.78-4.47-2.75-7.13-2.75-5.73,0-10.39,4.52-10.39,10.07s4.66,10.09,10.39,10.09c.97,0,1.94-.13,2.87-.4v.04h5.24v-12h-7.53v5.23Z"/><polygon class="cls-1" points="314.2 38.93 314.2 52.71 320.41 52.71 320.41 38.93 326.28 38.93 326.28 33 308.31 33 308.31 38.93 314.2 38.93"/><polygon class="cls-1" points="353.78 60.97 341.89 29.36 331.23 29.36 322.49 52.67 328.96 52.67 336.55 33.5 347.32 60.97 353.78 60.97"/><path class="cls-1" d="m306.8,38.23v-.02c-1.66-3.15-4.88-5.3-8.58-5.3-5.37,0-9.73,4.52-9.73,10.07s4.37,10.09,9.73,10.09,9.73-4.51,9.73-10.09c0-1.71-.42-3.33-1.16-4.75m-8.58,9.6c-2.48,0-4.5-2.17-4.5-4.85s2.02-4.84,4.5-4.84,4.5,2.17,4.5,4.84-2.02,4.85-4.5,4.85"/><polygon class="cls-2" points="344.61 19.12 350.44 16.74 342.69 13.96 337.72 .67 332.57 10.46 322.05 8.3 329.47 16.34 325.86 26.06 338.91 21.37 348.44 29.36 344.61 19.12"/><polygon class="cls-2" points="322.89 19.65 325.27 18.11 322.42 17.5 321.6 14.66 320.46 17.09 316.13 16.17 319.52 19.66 318.48 22.48 321.52 20.53 323.87 22.43 322.89 19.65"/><polygon class="cls-2" points="348.68 5.21 351.18 3.61 348.19 2.97 347.34 0 345.89 2.48 341.63 1.58 345.16 5.22 344.08 8.16 347.25 6.12 349.71 8.11 348.68 5.21"/><rect class="cls-1" x="214.41" y="10.04" width="1.13" height="61.27"/><path class="cls-1" d="m5.18,62.23l-2.06-5.16h-1.11l-2.01,5.16h1.1l.43-1.17h2.06l.44,1.17h1.13Zm-3.32-2.05l.69-1.91.71,1.91h-1.41Z"/><polygon class="cls-1" points="9.08 61.36 6.49 61.36 6.49 57.12 5.46 57.12 5.46 62.23 9.08 62.23 9.08 61.36"/><path class="cls-1" d="m12.14,61.16c-.2.18-.44.27-.72.27-.37,0-.68-.14-.91-.41-.23-.28-.35-.74-.35-1.4,0-.61.12-1.06.36-1.32.24-.28.55-.42.94-.42.27,0,.51.08.7.24.19.15.32.36.37.63l1.04-.25c-.12-.41-.29-.73-.53-.95-.39-.37-.91-.56-1.54-.56-.73,0-1.3.24-1.75.71-.44.47-.66,1.13-.66,1.99,0,.81.22,1.45.66,1.92.44.47,1,.7,1.69.7.56,0,1.01-.14,1.37-.41.36-.28.62-.7.77-1.26l-1.01-.32c-.09.38-.23.66-.43.83"/><path class="cls-1" d="m15.11,61.06h2.06l.45,1.17h1.14l-2.07-5.16h-1.11l-2.01,5.16h1.11l.43-1.17Zm1.02-2.78l.71,1.91h-1.41l.7-1.91Z"/><polygon class="cls-1" points="22.76 61.36 20.17 61.36 20.17 57.12 19.13 57.12 19.13 62.23 22.76 62.23 22.76 61.36"/><path class="cls-1" d="m26.07,57.17c-.23-.07-.56-.1-.98-.1h-1.91v5.15h1.96c.38,0,.69-.03.92-.11.3-.1.55-.23.73-.41.24-.23.43-.53.56-.91.1-.31.16-.67.16-1.1,0-.48-.06-.89-.17-1.22-.12-.32-.28-.61-.49-.83-.22-.23-.48-.39-.77-.48m.26,3.42c-.07.23-.16.39-.27.5-.11.1-.26.17-.42.22-.13.03-.34.05-.63.05h-.77v-3.41h.47c.42,0,.71.02.86.05.19.05.35.13.48.25.13.12.23.29.3.5.07.21.11.52.11.92s-.04.71-.11.94"/><polygon class="cls-1" points="28.71 55.55 28.23 56.6 28.86 56.6 29.82 55.55 28.71 55.55"/><rect class="cls-1" x="27.97" y="57.07" width="1.04" height="5.16"/><path class="cls-1" d="m31.5,57.07l-2.01,5.16h1.1l.43-1.17h2.06l.45,1.17h1.13l-2.06-5.16h-1.11Zm-.15,3.11l.69-1.91.71,1.91h-1.41Z"/><polygon class="cls-1" points="42.08 57.07 40.52 57.07 39.59 60.59 38.66 57.07 37.1 57.07 37.1 62.23 38.07 62.23 38.07 58.17 39.08 62.23 40.09 62.23 41.11 58.17 41.11 62.23 42.08 62.23 42.08 57.07"/><path class="cls-1" d="m47.64,62.23l-2.07-5.16h-1.11l-2.01,5.16h1.1l.43-1.17h2.06l.45,1.17h1.13Zm-3.33-2.05l.7-1.91.71,1.91h-1.41Z"/><polygon class="cls-1" points="46.36 57.07 48.25 60.06 48.25 62.23 49.29 62.23 49.29 60.07 51.18 57.07 49.99 57.07 48.79 59.12 47.58 57.07 46.36 57.07"/><path class="cls-1" d="m50.74,59.68c0,.82.23,1.46.68,1.93.46.47,1.06.7,1.83.7s1.36-.23,1.82-.71c.44-.46.67-1.11.67-1.95s-.23-1.49-.68-1.96c-.46-.47-1.07-.7-1.83-.7-.42,0-.79.07-1.11.2-.24.1-.47.26-.67.47-.2.2-.36.44-.48.7-.15.36-.23.8-.23,1.32m1.47-1.36c.26-.29.61-.44,1.04-.44s.77.15,1.03.44c.26.29.39.73.39,1.32s-.13,1.04-.4,1.34c-.26.3-.61.45-1.02.45s-.76-.15-1.03-.46c-.27-.3-.4-.74-.4-1.33s.13-1.03.39-1.33"/><path class="cls-1" d="m60.1,61.23c-.24-.4-.44-.68-.59-.83-.15-.16-.33-.31-.55-.43.45-.06.78-.23,1.01-.48.23-.26.34-.57.34-.95,0-.32-.07-.59-.23-.82-.14-.24-.34-.4-.59-.49-.25-.09-.65-.13-1.2-.13h-2.19v5.15h1.04v-2.15h.22c.23,0,.41.02.53.06.11.04.21.11.31.21.09.11.28.36.54.76l.75,1.12h1.25l-.64-1Zm-2.19-1.97h-.77v-1.31h.81c.43,0,.68,0,.76.02.18.03.3.1.39.21.1.11.14.25.14.42,0,.15-.03.28-.1.38-.07.1-.16.18-.3.22-.12.03-.43.06-.93.06"/><rect class="cls-1" x="50.35" y="69.59" width=".97" height=".97"/><path class="cls-1" d="m7.28,66.05c-.21-.22-.47-.38-.77-.47-.22-.06-.54-.09-.96-.09h-1.87v5.06h1.93c.37,0,.68-.03.9-.11.3-.09.54-.23.72-.4.23-.23.41-.53.54-.89.1-.31.15-.66.15-1.09,0-.47-.05-.86-.16-1.19-.11-.32-.27-.6-.48-.82m-.51,2.9c-.07.22-.16.39-.27.49-.11.1-.25.17-.41.21-.13.03-.33.05-.62.05h-.77v-3.35h.46c.42,0,.7.02.84.05.19.04.35.12.48.24.12.12.22.28.29.49.07.21.1.51.1.9s-.04.7-.1.93"/><polygon class="cls-1" points="9.29 68.32 11.83 68.32 11.83 67.47 9.29 67.47 9.29 66.34 12.02 66.34 12.02 65.48 8.27 65.48 8.27 70.55 12.12 70.55 12.12 69.69 9.29 69.69 9.29 68.32"/><path class="cls-1" d="m17.88,67.86c.22-.1.39-.24.52-.45.13-.19.19-.41.19-.65,0-.22-.05-.41-.15-.59-.11-.17-.24-.32-.39-.42-.16-.11-.33-.18-.53-.22-.2-.03-.5-.05-.89-.05h-2.03v5.06h1.72c.65,0,1.06-.01,1.23-.03.27-.03.5-.12.69-.25.18-.13.33-.3.44-.52.1-.22.16-.44.16-.68,0-.3-.08-.55-.25-.77-.16-.21-.4-.36-.71-.46m-2.26-1.53h.59c.48,0,.77,0,.87.02.17.02.3.08.39.17.09.1.13.23.13.38,0,.17-.05.3-.15.4-.1.09-.24.16-.41.18-.1.01-.34.02-.75.02h-.67v-1.17Zm2.02,3.13c-.1.11-.22.17-.37.2-.1.02-.34.03-.7.03h-.95v-1.35h.83c.47,0,.77.02.91.07.14.05.24.12.32.23.07.1.11.23.11.39,0,.18-.05.32-.14.43"/><path class="cls-1" d="m21.65,65.4c-.42,0-.78.07-1.09.2-.24.1-.46.25-.66.45-.2.21-.36.44-.48.7-.15.35-.23.78-.23,1.3,0,.81.22,1.44.67,1.9.44.45,1.04.69,1.79.69s1.34-.24,1.78-.7.66-1.1.66-1.92-.22-1.47-.67-1.93c-.44-.47-1.04-.7-1.79-.7m1.01,3.92c-.26.3-.6.44-1,.44s-.75-.15-1.01-.45c-.26-.29-.4-.72-.4-1.3s.13-1.02.39-1.3c.25-.29.6-.43,1.02-.43s.76.14,1.01.43c.26.28.38.71.38,1.29s-.13,1.03-.39,1.32"/><path class="cls-1" d="m27.1,68.7h1.17v.64c-.16.12-.34.22-.55.3-.22.08-.43.13-.65.13-.43,0-.78-.16-1.05-.46-.27-.3-.4-.75-.4-1.34,0-.56.13-.98.4-1.27.26-.28.62-.42,1.06-.42.29,0,.54.07.74.22.19.14.33.34.4.59l1.01-.19c-.1-.47-.33-.83-.68-1.1-.36-.26-.85-.39-1.47-.39-.49,0-.89.09-1.21.25-.43.22-.75.53-.97.95-.22.4-.34.87-.34,1.4,0,.48.1.93.3,1.35.2.42.5.73.89.95.4.23.85.34,1.38.34.42,0,.83-.08,1.24-.24.41-.16.72-.34.93-.55v-2.01h-2.21v.86Z"/><path class="cls-1" d="m32.2,65.4c-.42,0-.78.07-1.09.2-.24.1-.46.25-.66.45-.2.21-.36.44-.47.7-.16.35-.23.78-.23,1.3,0,.81.22,1.44.67,1.9.44.45,1.04.69,1.8.69s1.34-.24,1.78-.7c.44-.46.67-1.1.67-1.92s-.23-1.47-.67-1.93c-.45-.47-1.06-.7-1.79-.7m1.02,3.92c-.27.3-.6.44-1.01.44s-.74-.15-1.01-.45c-.27-.29-.4-.72-.4-1.3s.13-1.02.39-1.3c.26-.29.6-.43,1.02-.43s.77.14,1.02.43c.26.28.37.71.37,1.29s-.12,1.03-.38,1.32"/><polygon class="cls-1" points="38.7 65.48 34.67 65.48 34.67 66.35 36.18 66.35 36.18 70.55 37.2 70.55 37.2 66.35 38.7 66.35 38.7 65.48"/><path class="cls-1" d="m40.17,65.49l-1.97,5.07h1.09l.42-1.15h2.02l.44,1.15h1.12l-2.03-5.07h-1.08Zm-.15,3.05l.68-1.87.7,1.87h-1.38Z"/><polygon class="cls-1" points="40.35 65.02 40.96 65.02 41.91 63.99 40.82 63.99 40.35 65.02"/><path class="cls-1" d="m49.7,66.05c-.21-.22-.47-.38-.76-.47-.22-.06-.54-.09-.96-.09h-1.88v5.06h1.93c.37,0,.68-.03.91-.11.3-.09.54-.23.72-.4.23-.23.42-.53.54-.89.1-.31.15-.66.15-1.09,0-.47-.05-.86-.16-1.19-.11-.32-.27-.6-.48-.82m-.51,2.9c-.07.22-.16.39-.27.49-.12.1-.25.17-.42.21-.13.03-.33.05-.62.05h-.76v-3.35h.46c.42,0,.7.02.84.05.19.04.35.12.47.24.13.12.23.28.3.49.07.21.1.51.1.9s-.03.7-.1.93"/><path class="cls-1" d="m54.41,69.5c-.2.17-.43.26-.7.26-.37,0-.67-.14-.9-.41-.24-.27-.35-.73-.35-1.36s.11-1.04.35-1.31c.23-.27.53-.4.92-.4.26,0,.5.08.69.23.19.15.32.36.37.62l1.01-.24c-.12-.41-.29-.72-.52-.93-.39-.37-.9-.56-1.51-.56-.71,0-1.28.23-1.71.7-.44.46-.66,1.12-.66,1.96s.22,1.43.65,1.89c.43.45.98.69,1.66.69.55,0,.99-.14,1.35-.41.35-.26.6-.68.75-1.24l-.99-.31c-.08.37-.22.64-.42.82"/><rect class="cls-1" x="55.98" y="69.6" width=".97" height=".97"/><path class="cls-1" d="m26.12,15.93c.88-.04,1.57-.4,1.62-.84,0-.4-.74-.84-1.66-.84-.87.05-1.34.49-1.34.89-.05.45.46.85,1.38.8"/><path class="cls-1" d="m17.22,43.06c-.51-.71-1.24-1.07-1.62-.85-.37.22-.37,1.02.14,1.74.51.71,1.11.89,1.48.67.37-.23.46-.84,0-1.56"/><path class="cls-1" d="m35.9,15.13c0-.4-.47-.84-1.34-.89-.92,0-1.66.45-1.66.85.05.44.74.8,1.61.85.92.04,1.43-.35,1.39-.8"/><path class="cls-1" d="m28.36,47.42c-.92-.13-1.71.09-1.8.49-.09.4.51.98,1.38,1.16.88.18,1.48-.14,1.57-.58.09-.4-.27-.89-1.15-1.07"/><path class="cls-1" d="m45.95,31.01c.05-.89-.33-1.6-.73-1.65-.47-.04-.97.62-1.02,1.52-.04.84.37,1.33.78,1.37.47.04.93-.4.97-1.24"/><path class="cls-1" d="m16.5,30.87c-.04-.89-.56-1.56-1.02-1.51-.41.05-.74.76-.69,1.64.05.85.51,1.29.92,1.25.47-.05.83-.54.79-1.38"/><path class="cls-1" d="m45.42,19.18c.41-.04.83-.54.78-1.38-.05-.89-.55-1.56-1.02-1.51-.41.04-.78.75-.74,1.65.04.85.5,1.29.97,1.24"/><path class="cls-1" d="m43.49,43.06c-.5.72-.41,1.33,0,1.56.37.22.97.04,1.48-.67.51-.71.51-1.52.14-1.74-.37-.22-1.11.13-1.62.84"/><path class="cls-1" d="m15.29,19.18c.41.05.88-.4.92-1.24.05-.9-.27-1.61-.69-1.65-.46-.05-.97.63-1.02,1.51-.04.84.33,1.34.79,1.38"/><path class="cls-1" d="m40.71,33.05c-.14-.04-.69.53-.69.53-.14-.44-.84-.44-.84-.44v.17c.47.05.56.67.42.89-.04.14.46.44.56.32.14-.23.74-.4,1.01,0l.09-.09s-.23-.62-.69-.54c0,0,.28-.75.14-.84"/><path class="cls-1" d="m39.74,34.47c-1.01-.62-2.26-.49-2.76.32-.49.78-.12,1.84.83,2.47-.69.06-1.58-.87-1.58-.87-.38.72.33,1.12.87,1.32-.08.05-.14.12-.21.18-.52-.13-.72.11-.72.11-.09-.03-1.25-1.28-2.1-2.16l.76-.15c-.56-1.28-2.05-1.55-3.06-2.33-.76-.58.09-.84.29-.65,1.89,1.6,3.6.5,3.6.5-1.34-.45-1.98-1.96-1.98-1.96,2.77,1.61,4.89-.22,4.89-.22-1.84.31-3.28-1.42-3.28-1.42,2.86.66,4.84-1.25,4.84-1.25-1.06.09-3.69-1.02-3.69-1.02,4.2-.14,4.56-3.12,4.61-3.12-1.16.76-4.24.4-4.24.4,4.38-1.55,4.06-5.15,4.06-5.15-.93,1.38-5.16,2.71-5.16,2.71-1.15.35-2.08,1.38-2.08,2.58-.05.49-.51.89-1.01.89-1.13,0-1.11-1.63-1.11-2.4,0-1.16-.04-2.49-.88-2.49h-1.66c-.3,0-.82-.03-1.03.22-.43.5-.36,1.82-.17,1.55,0,0,.65-.18,1.06,0,.53.15.14,1.82.14,2.18,0,.49-.46.93-1.01.93-.51,0-.97-.4-1.02-.89,0-1.2-.92-2.22-2.03-2.58,0,0-4.33-1.33-5.25-2.71,0,0-.33,3.64,4.1,5.25,0,0-3.13.26-4.28-.49.04,0,.6,3.12,4.79,3.25,0,0-2.77.93-3.78.8,0,0,1.98,2.27,4.93,1.6,0,0-1.62,1.47-3.46,1.16,0,0,2.08,1.86,4.89.31,0,0-.6,1.42-1.94,1.87,0,0,1.71,1.11,3.64-.5.24-.27,1.03.04.24.65-1.05.81-2.56,1-3.2,2.33l.78.16c-.87.88-2.04,2.13-2.16,2.16,0,0-.18-.23-.67-.12-.07-.05-.12-.11-.19-.16.55-.2,1.26-.6.87-1.32,0,0-.88.93-1.56.87.94-.63,1.32-1.69.83-2.47-.51-.8-1.75-.93-2.77-.31-1.01.63-1.43,1.79-.92,2.58.49.76,1.6.92,2.62.35-.42.61-1.23.82-1.56.94,0,0,.57,1.09,1.83-.36.08.06.13.11.2.17-.34.26-.48.71-.2.9,0,0-.14.71.69.66,0,0,.28.45.86.19.36.99.24,1.91.35,2.44l1.06.05c-.1-.47-.14-1.96-.98-3.3.17-.14.26-.34.09-.52-.03-.06,1.5-1.01,2.62-1.7l.15.72c.39-.52.95-.87,1.6-1.07-.69.95-1.12,2.04-.86,3.56,0,0,.18-.58,1.11-.67,0,0-1.29,1.56.78,4.58,2.08-3.02.88-4.58.88-4.58.92.09,1.15.67,1.15.67.21-1.53-.19-2.63-.92-3.59.67.19,1.2.55,1.61,1.09l.15-.73c1.11.69,2.65,1.66,2.62,1.71-.17.19-.06.39.11.53-.83,1.34-.88,2.83-.98,3.29l1.06-.05c.11-.53-.01-1.44.35-2.42.53.23.84-.2.84-.2.83.05.69-.66.69-.66.27-.19.14-.61-.2-.88.08-.06.14-.13.23-.2,1.26,1.45,1.83.36,1.83.36-.34-.12-1.14-.32-1.56-.94,1.02.57,2.13.41,2.62-.35.51-.8.09-1.96-.92-2.58m-18.86,2.01c-.51-.8-.51-1.69-.09-1.91.42-.22,1.19.18,1.7.98.55.76.42,1.42,0,1.65-.41.27-1.06.09-1.61-.71m8.7-14.41c-.27,0-.46-.18-.46-.4,0-.27.19-.44.46-.44.23,0,.42.18.42.44,0,.22-.18.4-.42.4m10.02,14.41c-.55.8-1.2.98-1.61.71-.42-.22-.55-.89,0-1.65.51-.8,1.29-1.2,1.7-.98.42.22.42,1.11-.09,1.91"/><path class="cls-1" d="m20.33,34.52c.09.13.6-.17.56-.31-.14-.23-.05-.85.42-.89v-.18s-.7,0-.84.44c0,0-.55-.57-.69-.53-.13.09.14.84.14.84-.47-.08-.69.54-.69.54l.09.09c.28-.4.88-.22,1.02,0"/><path class="cls-1" d="m34.53,39.28c-.42-.4-.92-.62-1.38-.62-.05.53.09,1.07.51,1.51.37.44.87.67,1.38.67.04-.53-.14-1.11-.51-1.56"/><path class="cls-1" d="m25.45,40.83c.51,0,1.01-.22,1.38-.67.42-.45.55-.98.5-1.51-.46,0-.97.22-1.38.62-.37.44-.56,1.02-.51,1.55"/><polygon class="cls-1" points="31.25 20.33 32.17 18.91 30.74 19.44 30.23 18.16 29.67 19.44 28.2 18.91 29.17 20.33 31.25 20.33"/><path class="cls-1" d="m30.24,10.26c-5.63,2.95-12.51,2.93-18.12-.04v32.48c0,3.97,3.27,7.13,7.32,7.13s7.42.55,10.8,2.71c3.37-2.12,6.83-2.71,10.75-2.71s7.37-3.16,7.37-7.13V10.21c-5.65,3-12.44,2.96-18.12.04m14.58,5.06s.1-.71.23-.71c.14-.04.37.67.37.67.28-.27.83.05.83.05l-.05.13c-.42-.18-.78.27-.74.49,0,.14-.6.18-.6.05,0-.22-.41-.62-.83-.45l-.05-.09s.47-.4.83-.13m.37.93c1.11-.09,2.08.53,2.17,1.38.04.79-.68,1.51-1.7,1.67.63.22,1.29-.03,1.65-.11,0,0,.13,1.03-1.46.69.06.83-.47,1.45-.67,2.28.12-.16.27-.31.47-.43.46-.27,1.02-.35,1.53-.27-.05.4-.33.84-.74,1.11-.41.27-.88.37-1.32.34.02.39.13.83.39,1.35l-.74.58c-.37-.71-.51-2.35.09-3.51.37-.79.44-1.09.4-1.39-.51.18-1.51.43-1.65-.43,0,0,1.12.18,1.65-.17-1.02-.03-1.88-.63-1.98-1.43-.05-.84.78-1.6,1.89-1.64m1.22,12.22l-.05.14c-.42-.18-.83.22-.83.45,0,.13-.6.09-.6-.05.04-.22-.32-.67-.74-.49l-.04-.13s.55-.31.82-.05c0,0,.24-.71.37-.66.14,0,.24.71.24.71.37-.27.83.08.83.08m-11.9-15.29c.84,0,1.5.8,1.53,1.8.33-.6.09-1.3.04-1.63,0,0,1.06-.04.65,1.44.82.03,1.4.56,2.22.82-.15-.12-.28-.29-.38-.47-.28-.44-.32-.98-.18-1.47.45.09.87.36,1.1.8.24.42.31.87.23,1.28.4.01.87-.05,1.43-.25l.56.75c-.78.26-2.49.26-3.64-.4-.74-.4-1.07-.5-1.36-.51.11.48.27,1.5-.58,1.54,0,0,.28-1.12-.09-1.63-.05,1.02-.76,1.81-1.66,1.81s-1.57-.88-1.53-1.96c0-1.06.74-1.91,1.66-1.91m-2.54.84l.14.04c-.23.4.23.76.47.76.13,0,.13.53,0,.53-.28,0-.69.36-.56.81h-.14s-.32-.5-.05-.81c0,0-.74-.13-.74-.27s.78-.26.78-.26c-.28-.32.09-.8.09-.8m-3.92.8c.23,0,.69-.35.46-.76l.14-.04s.37.49.09.8c0,0,.79.13.79.26s-.74.27-.74.27c.27.31-.05.81-.05.81h-.13c.13-.45-.28-.81-.56-.81-.14,0-.14-.53,0-.53m-8.58.67c.56.2,1.03.27,1.43.25-.07-.41-.02-.86.23-1.28.23-.44.65-.71,1.11-.8.14.49.09,1.02-.19,1.47-.09.19-.23.35-.37.47.81-.26,1.38-.78,2.21-.82-.41-1.48.65-1.44.65-1.44-.05.33-.28,1.03.04,1.63.02-1,.69-1.8,1.52-1.8.92,0,1.66.85,1.66,1.91.05,1.07-.65,1.96-1.52,1.96s-1.62-.79-1.66-1.81c-.38.51-.09,1.63-.09,1.63-.85-.03-.7-1.05-.58-1.53-.29,0-.63.11-1.36.51-1.15.67-2.86.67-3.64.4l.55-.76Zm-4.19-.23s.23-.71.36-.67c.14,0,.23.71.23.71.37-.27.82.13.82.13l-.04.09c-.41-.18-.83.22-.83.44-.05.13-.6.09-.6-.05,0-.22-.32-.67-.74-.49l-.05-.13s.55-.31.83-.05m.23.98c1.11.04,1.94.8,1.89,1.64-.09.8-.95,1.4-1.98,1.43.53.36,1.66.18,1.66.18-.14.86-1.15.61-1.66.43-.04.3.03.6.41,1.39.56,1.16.46,2.8.09,3.51l-.74-.58c.25-.52.36-.96.37-1.35-.44.03-.9-.07-1.29-.34-.47-.27-.69-.71-.74-1.11.51-.09,1.06,0,1.52.27.16.11.3.24.41.37-.21-.79-.71-1.4-.63-2.21-1.56.33-1.44-.7-1.44-.7.37.08,1.02.34,1.65.11-1.01-.15-1.74-.87-1.7-1.66.09-.85,1.06-1.47,2.17-1.38m1.03,12.14l-.04.13c-.41-.18-.78.27-.74.49,0,.14-.55.18-.59.05,0-.23-.42-.63-.83-.45l-.05-.14s.46-.35.83-.09c0,0,.09-.71.23-.71.14-.05.37.66.37.66.27-.26.82.05.82.05m-3.41,5.16c.51-.04,1.02.14,1.39.49.28.21.44.5.48.78.05-.15.1-.28.17-.43.37-.79.44-1.09.4-1.39-.51.18-1.51.43-1.65-.43,0,0,1.21.19,1.7-.22-1.05.03-1.94-.58-2.03-1.39-.04-.85.78-1.6,1.89-1.69,1.11-.04,2.08.58,2.16,1.43.05.81-.72,1.54-1.77,1.63.65.27,1.34,0,1.73-.08,0,0,.12,1.02-1.45.7.13,1.39-1.41,2.17-.35,4.38l-.74.57c-.28-.55-.41-1.65-.19-2.66-.48.02-.99-.16-1.33-.49-.37-.36-.51-.8-.42-1.2m1.1,8.54l-.09-.09s.23-.58.69-.49c0,0-.33-.67-.19-.76.14-.09.65.44.65.44.14-.4.74-.4.74-.4l.05.14c-.47.09-.56.62-.42.85.09.09-.42.4-.46.31-.14-.22-.7-.4-.97,0m6.13,6.63c-.12-.56-.31-.96-.53-1.28-.35.27-.79.44-1.22.49-.56.04-1.06-.18-1.34-.49.32-.35.83-.62,1.38-.62.22-.02.42,0,.61.04-.67-.51-1.45-.7-1.92-1.4-1.06,1.15-1.59.24-1.59.24.35-.12,1.09-.33,1.45-.93-.91.57-1.97.43-2.46-.27-.46-.71-.09-1.78.83-2.36.92-.58,2.07-.49,2.54.22.48.69.16,1.7-.72,2.29.64.06,1.51-.77,1.51-.77.41.74-.56,1.12-1.06,1.27.16.27.42.48,1.2.87,1.19.58,2.12,1.96,2.3,2.76l-.96-.04Zm5.83-.62c-.27-.05-.78.22-.69.66h-.14s-.23-.53.14-.8c0,0-.74-.31-.69-.44.05-.09.78-.09.78-.09-.23-.4.23-.8.23-.8l.14.09c-.29.36.09.8.32.84.13.05,0,.58-.1.54m8.53,1.2c-.5-.31-.93-.48-1.33-.54-.02.43-.2.86-.51,1.16-.37.4-.83.58-1.29.58,0-.49.19-1.02.51-1.43.14-.14.31-.25.48-.33-.85.09-1.55.48-2.39.32.09,1.53-.96,1.21-.96,1.21.12-.32.52-.94.34-1.58-.22.96-1.07,1.62-1.91,1.45-.88-.22-1.38-1.2-1.2-2.22.23-1.07,1.11-1.78,1.99-1.6.83.21,1.32,1.1,1.18,2.09.47-.41.43-1.51.43-1.51.86.23.47,1.14.24,1.58.31.08.65.07,1.47-.16,1.29-.4,2.99-.09,3.69.36l-.74.62Zm-4.51-3.46c-2.32-1.45-4.52-1.74-7.19-1.74s-4.72-2.12-4.72-4.72l-.02-21.84c2.91,1.55,9.29.51,12.08-.94,2.82,1.46,9.13,2.47,12.08.94l-.03,21.84c0,2.59-2.32,4.72-5.05,4.72s-4.84.3-7.14,1.74m15.77-1.34c-.48.68-1.51.83-2.44.31.37.58,1.09.77,1.43.89,0,0-.53.9-1.58-.24-.48.69-1.26.89-1.93,1.4.19-.05.4-.07.61-.05.56,0,1.02.27,1.38.62-.32.31-.78.54-1.34.49-.48-.04-.89-.21-1.22-.49-.23.32-.41.73-.53,1.28l-.97.04c.18-.8,1.11-2.18,2.3-2.76.78-.39,1.04-.6,1.19-.87-.5-.15-1.47-.53-1.06-1.27,0,0,.83.81,1.47.78-.85-.59-1.17-1.6-.68-2.29.46-.71,1.61-.8,2.54-.22.92.58,1.29,1.65.83,2.36m.46-2.41c-.23-.4-.79-.22-.92,0-.05.09-.56-.22-.51-.31.14-.23.09-.76-.37-.84l.05-.14s.6,0,.74.4c0,0,.51-.53.65-.44.09.09-.19.76-.19.76.45-.09.69.49.69.49l-.14.09Zm.7-7.34c-.34.33-.84.5-1.32.49.23,1.01.08,2.11-.21,2.66l-.74-.57c1.11-2.21-.43-2.99-.34-4.38-1.57.33-1.4-.69-1.4-.69.34.08,1.03.35,1.68.08-1.05-.09-1.82-.82-1.77-1.63.09-.85,1.06-1.47,2.17-1.43,1.1.09,1.93.85,1.89,1.69-.09.81-.98,1.42-2.03,1.39.49.41,1.7.22,1.7.22-.14.86-1.15.61-1.65.43-.04.3.03.6.41,1.39.07.14.13.28.18.42.05-.28.22-.57.46-.78.37-.36.87-.53,1.43-.49.05.4-.09.85-.46,1.2"/><rect class="cls-1" x="78.62" y="10.04" width="1.13" height="61.27"/><path class="cls-1" d="m100.37,40.88h-4.85v-3.06h13.17v3.06h-4.88v17.09h-3.43v-17.09Z"/><path class="cls-1" d="m110.62,37.82h3.43v13.62c0,2.53,1.16,3.66,2.98,3.66s2.98-1.14,2.98-3.66v-13.62h3.46v13.65c0,4.26-2.55,6.84-6.41,6.84s-6.44-2.58-6.44-6.84v-13.65Z"/><path class="cls-1" d="m126.85,37.82h5.85c.77,0,1.79.2,2.64.62,1.79.85,3.04,2.78,3.04,5.36s-1.42,4.65-2.95,5.53v.06s.26.37.6,1.08l3.35,7.49h-3.8l-3.06-7.52h-2.19v7.52h-3.46v-20.15Zm5.31,9.56c1.42,0,2.7-1.22,2.7-3.29,0-1.19-.4-2.19-1.08-2.7-.45-.31-1.08-.48-1.56-.48h-1.9v6.47h1.84Z"/><path class="cls-1" d="m141.39,37.82h3.46v20.15h-3.46v-20.15Z"/><path class="cls-1" d="m148.79,53.4c.88.94,2.13,1.7,3.49,1.7,1.56,0,2.47-1.05,2.47-2.5,0-3.66-7.09-3.58-7.09-9.39,0-3.24,2.21-5.73,5.99-5.73,1.56,0,3.15.43,4.46,1.33l-1.25,3.07c-.71-.6-2.1-1.16-3.15-1.16-1.73,0-2.58,1.14-2.58,2.47,0,3.69,7.12,3.35,7.12,9.28,0,3.18-1.99,5.85-5.85,5.85-1.84,0-3.77-.65-5.22-1.96l1.62-2.95Z"/><path class="cls-1" d="m161.51,37.82h3.8l2.72,9.79c.31,1.22.62,3.07.62,3.07h.09s.34-1.84.62-3.07l2.72-9.79h3.8l1.28,20.15h-3.21l-.68-11.21c-.09-1.33.03-3.12.03-3.12h-.09s-.37,2.04-.68,3.24l-2.16,7.63h-3.38l-2.16-7.63c-.31-1.16-.65-3.24-.65-3.24h-.11s.11,1.79.03,3.12l-.68,11.21h-3.24l1.31-20.15Z"/><path class="cls-1" d="m187.4,37.47c4.97,0,8.12,4.23,8.12,10.3s-3.15,10.53-8.12,10.53-8.12-4.37-8.12-10.56,3.12-10.27,8.12-10.27Zm0,17.51c2.84,0,4.54-2.87,4.54-7.21s-1.7-6.98-4.54-6.98-4.57,2.72-4.57,6.95,1.7,7.24,4.57,7.24Z"/><path class="cls-1" d="m97.36,23.66h1.27v7.39h-1.27v-7.39Z"/><path class="cls-1" d="m99.96,23.66h1.33l1.9,4.18c.2.45.37,1.12.37,1.12h.04s-.07-.7-.07-1.13v-4.17h1.19v7.39h-1.32l-1.9-4.19c-.2-.46-.37-1.12-.37-1.12h-.04s.07.7.07,1.13v4.18h-1.2v-7.39Z"/><path class="cls-1" d="m106.21,29.37c.32.34.78.62,1.28.62.57,0,.91-.38.91-.92,0-1.34-2.6-1.31-2.6-3.44,0-1.19.81-2.1,2.2-2.1.57,0,1.15.16,1.63.49l-.46,1.12c-.26-.22-.77-.43-1.15-.43-.63,0-.95.42-.95.91,0,1.35,2.61,1.23,2.61,3.4,0,1.17-.73,2.14-2.14,2.14-.68,0-1.38-.24-1.91-.72l.59-1.08Z"/><path class="cls-1" d="m111.89,24.79h-1.78v-1.12h4.83v1.12h-1.79v6.26h-1.26v-6.26Z"/><path class="cls-1" d="m115.73,23.66h1.27v7.39h-1.27v-7.39Z"/><path class="cls-1" d="m119.57,24.79h-1.78v-1.12h4.83v1.12h-1.79v6.26h-1.26v-6.26Z"/><path class="cls-1" d="m123.37,23.66h1.26v4.99c0,.93.43,1.34,1.09,1.34s1.09-.42,1.09-1.34v-4.99h1.27v5c0,1.56-.94,2.51-2.35,2.51s-2.36-.95-2.36-2.51v-5Z"/><path class="cls-1" d="m130.6,24.79h-1.78v-1.12h4.83v1.12h-1.79v6.26h-1.26v-6.26Z"/><path class="cls-1" d="m137.1,23.54c1.82,0,2.98,1.55,2.98,3.78s-1.15,3.86-2.98,3.86-2.98-1.6-2.98-3.87,1.14-3.77,2.98-3.77Zm0,6.42c1.04,0,1.67-1.05,1.67-2.64s-.62-2.56-1.67-2.56-1.68,1-1.68,2.55.62,2.65,1.68,2.65Z"/><path class="cls-1" d="m143.16,23.66h2.05c1.82,0,2.98,1.35,2.98,3.68s-1.15,3.7-2.98,3.7h-2.05v-7.39Zm2,6.25c1.08,0,1.72-.89,1.72-2.57s-.66-2.55-1.72-2.55h-.73v5.12h.73Z"/><path class="cls-1" d="m149.21,23.66h1.27v7.39h-1.27v-7.39Z"/><path class="cls-1" d="m151.97,29.37c.32.34.78.62,1.28.62.57,0,.91-.38.91-.92,0-1.34-2.6-1.31-2.6-3.44,0-1.19.81-2.1,2.2-2.1.57,0,1.15.16,1.63.49l-.46,1.12c-.26-.22-.77-.43-1.15-.43-.63,0-.95.42-.95.91,0,1.35,2.61,1.23,2.61,3.4,0,1.17-.73,2.14-2.14,2.14-.68,0-1.38-.24-1.92-.72l.59-1.08Z"/><path class="cls-1" d="m157.65,24.79h-1.78v-1.12h4.83v1.12h-1.79v6.26h-1.26v-6.26Z"/><path class="cls-1" d="m161.48,23.66h2.14c.28,0,.66.07.97.23.66.31,1.11,1.02,1.11,1.97s-.52,1.71-1.08,2.03v.02s.09.14.22.4l1.23,2.75h-1.39l-1.12-2.76h-.8v2.76h-1.27v-7.39Zm1.95,3.51c.52,0,.99-.45.99-1.21,0-.44-.15-.8-.39-.99-.17-.11-.4-.18-.57-.18h-.7v2.37h.68Z"/><path class="cls-1" d="m166.85,23.66h1.27v7.39h-1.27v-7.39Z"/><path class="cls-1" d="m170.69,24.79h-1.78v-1.12h4.83v1.12h-1.79v6.26h-1.26v-6.26Z"/><path class="cls-1" d="m175.85,23.66h1.37l1.95,7.39h-1.27l-.46-1.9h-1.81l-.45,1.9h-1.27l1.93-7.39Zm1.39,4.42l-.47-1.99c-.1-.43-.22-1.14-.22-1.14h-.03s-.11.72-.21,1.14l-.48,1.99h1.4Z"/><path class="cls-1" d="m179.89,23.66h1.27v6.26h2.38v1.12h-3.65v-7.39Z"/><path class="cls-1" d="m186.38,23.66h2.05c1.82,0,2.98,1.35,2.98,3.68s-1.15,3.7-2.98,3.7h-2.05v-7.39Zm2,6.25c1.08,0,1.72-.89,1.72-2.57s-.66-2.55-1.72-2.55h-.73v5.12h.73Z"/><path class="cls-1" d="m192.43,23.66h3.52v1.12h-2.25v1.98h1.81v1.12h-1.81v2.04h2.37v1.12h-3.64v-7.39Z"/></g></svg>