<svg width="591" height="163" viewBox="0 0 591 163" fill="none" xmlns="http://www.w3.org/2000/svg">
<path d="M32.9545 15.0108L0.000213623 48.075L32.9545 81.1392L65.9088 48.075L32.9545 15.0108Z" fill="url(#paint0_linear_3_5)"/>
<path d="M32.9554 67.6369L6.4714 94.2092L32.9554 120.781L59.4394 94.2092L32.9554 67.6369Z" stroke="url(#paint1_linear_3_5)" stroke-width="6.78" stroke-miterlimit="10"/>
<path opacity="0.5" d="M32.9539 82.9065L21.1071 94.7927L32.9539 106.679L44.8007 94.7927L32.9539 82.9065Z" fill="url(#paint2_linear_3_5)"/>
<path style="mix-blend-mode:multiply" d="M38.8779 133.892C35.6065 130.61 30.3025 130.61 27.0311 133.892C23.7597 137.174 23.7597 142.496 27.0311 145.778C30.3025 149.061 35.6065 149.061 38.8779 145.778C42.1493 142.496 42.1493 137.174 38.8779 133.892Z" fill="url(#paint3_linear_3_5)"/>
<path d="M558.044 15.0095L525.09 48.0737L558.044 81.1379L590.999 48.0737L558.044 15.0095Z" fill="url(#paint4_linear_3_5)"/>
<path d="M558.045 67.6394L531.561 94.2116L558.045 120.784L584.529 94.2116L558.045 67.6394Z" stroke="url(#paint5_linear_3_5)" stroke-width="6.78" stroke-miterlimit="10"/>
<path opacity="0.5" d="M558.044 82.9051L546.197 94.7914L558.044 106.678L569.89 94.7914L558.044 82.9051Z" fill="url(#paint6_linear_3_5)"/>
<path style="mix-blend-mode:multiply" d="M563.968 133.895C560.696 130.612 555.392 130.612 552.121 133.895C548.849 137.177 548.849 142.499 552.121 145.781C555.392 149.063 560.696 149.063 563.968 145.781C567.239 142.499 567.239 137.177 563.968 133.895Z" fill="url(#paint7_linear_3_5)"/>
<path d="M232.489 122.095H235.594C238.204 122.095 239.51 123.108 239.51 125.135C239.51 125.617 239.379 126.039 239.12 126.408C238.861 126.777 238.572 127.026 238.249 127.169C238.699 127.301 239.082 127.565 239.398 127.96C239.713 128.356 239.871 128.842 239.871 129.414C239.871 130.458 239.54 131.268 238.88 131.844C238.219 132.421 237.126 132.711 235.594 132.711H232.489V122.102V122.095ZM234.813 124.155V126.231H235.594C236.244 126.231 236.706 126.16 236.983 126.02C237.258 125.881 237.397 125.583 237.397 125.131C237.397 124.72 237.261 124.453 236.991 124.332C236.721 124.212 236.255 124.152 235.594 124.152H234.813V124.155ZM234.813 128.311V130.643H235.594C236.323 130.643 236.871 130.552 237.228 130.371C237.588 130.191 237.768 129.87 237.768 129.407C237.768 128.944 237.58 128.672 237.205 128.525C236.83 128.382 236.293 128.307 235.594 128.307H234.813V128.311Z" fill="#9D773C"/>
<path d="M245.075 123.458C246.104 122.43 247.392 121.914 248.931 121.914C250.471 121.914 251.755 122.426 252.78 123.458C253.805 124.487 254.316 125.802 254.316 127.41C254.316 129.019 253.805 130.334 252.78 131.362C251.755 132.391 250.471 132.903 248.931 132.903C247.392 132.903 246.108 132.391 245.075 131.362C244.046 130.334 243.532 129.019 243.532 127.41C243.532 125.802 244.046 124.487 245.075 123.458ZM251.15 125.135C250.561 124.543 249.821 124.246 248.931 124.246C248.041 124.246 247.302 124.543 246.712 125.135C246.123 125.726 245.826 126.483 245.826 127.406C245.826 128.329 246.123 129.087 246.712 129.678C247.302 130.27 248.041 130.567 248.931 130.567C249.821 130.567 250.561 130.27 251.15 129.678C251.74 129.087 252.036 128.329 252.036 127.406C252.036 126.483 251.74 125.726 251.15 125.135Z" fill="#9D773C"/>
<path d="M263.372 121.899C264.262 121.899 265.081 122.083 265.832 122.449C266.582 122.814 267.202 123.33 267.69 123.993L265.862 125.436C265.261 124.645 264.431 124.246 263.372 124.246C262.482 124.246 261.746 124.543 261.161 125.135C260.575 125.726 260.282 126.483 260.282 127.406C260.282 128.329 260.575 129.087 261.161 129.678C261.746 130.27 262.482 130.567 263.372 130.567C264.454 130.567 265.283 130.277 265.862 129.693V128.548H264.063V126.864H267.889V130.808C267.401 131.449 266.748 131.961 265.94 132.334C265.129 132.711 264.277 132.899 263.376 132.899C261.836 132.899 260.552 132.383 259.52 131.351C258.491 130.319 257.977 129.004 257.977 127.406C257.977 125.809 258.491 124.483 259.52 123.447C260.549 122.415 261.836 121.899 263.376 121.899H263.372Z" fill="#9D773C"/>
<path d="M273.319 123.458C274.347 122.43 275.635 121.914 277.175 121.914C278.714 121.914 279.998 122.426 281.023 123.458C282.048 124.487 282.559 125.802 282.559 127.41C282.559 129.019 282.048 130.334 281.023 131.362C279.998 132.391 278.714 132.903 277.175 132.903C275.635 132.903 274.351 132.391 273.319 131.362C272.286 130.334 271.775 129.019 271.775 127.41C271.775 125.802 272.29 124.487 273.319 123.458ZM279.394 125.135C278.804 124.543 278.065 124.246 277.175 124.246C276.285 124.246 275.545 124.543 274.956 125.135C274.366 125.726 274.07 126.483 274.07 127.406C274.07 128.329 274.366 129.087 274.956 129.678C275.545 130.27 276.285 130.567 277.175 130.567C278.065 130.567 278.804 130.27 279.394 129.678C279.983 129.087 280.28 128.329 280.28 127.406C280.28 126.483 279.983 125.726 279.394 125.135Z" fill="#9D773C"/>
<path d="M286.01 122.095H294.289V124.155H291.304V132.703H288.98V124.155H286.01V122.095Z" fill="#9D773C"/>
<path d="M300.526 122.095H303.225L307.258 132.703H304.739L304.033 130.793H299.715L299.009 132.703H296.489L300.526 122.095ZM301.874 124.924L300.477 128.733H303.267L301.87 124.924H301.874ZM302.249 118.602H304.258L302.67 121.688H301.262L302.253 118.602H302.249Z" fill="#9D773C"/>
<path d="M322.608 121.899C323.719 121.899 324.654 122.174 325.42 122.727C326.186 123.278 326.565 124.087 326.565 125.15C326.565 125.82 326.366 126.423 325.972 126.954C325.578 127.486 325.101 127.911 324.538 128.228C323.978 128.544 323.419 128.831 322.859 129.094C322.3 129.354 321.823 129.629 321.429 129.916C321.034 130.202 320.835 130.507 320.835 130.827H326.715V132.903H318.436V131.324C318.436 130.714 318.579 130.149 318.864 129.633C319.15 129.117 319.502 128.695 319.923 128.367C320.344 128.043 320.802 127.73 321.305 127.433C321.804 127.135 322.266 126.89 322.687 126.687C323.107 126.487 323.46 126.265 323.745 126.024C324.031 125.783 324.173 125.542 324.173 125.301C324.173 124.841 324.05 124.509 323.798 124.314C323.546 124.118 323.152 124.02 322.615 124.02C322.195 124.02 321.774 124.121 321.354 124.329C320.933 124.536 320.618 124.739 320.407 124.939L320.092 125.24L318.815 123.526C318.857 123.485 318.913 123.428 318.988 123.353C319.063 123.278 319.225 123.146 319.476 122.961C319.728 122.776 319.987 122.611 320.265 122.464C320.539 122.317 320.888 122.189 321.316 122.072C321.74 121.955 322.172 121.899 322.615 121.899H322.608Z" fill="#9D773C"/>
<path d="M335.25 121.899C336.572 121.899 337.672 122.415 338.551 123.447C339.429 124.479 339.868 125.802 339.868 127.406C339.868 129.011 339.429 130.33 338.551 131.358C337.672 132.387 336.572 132.899 335.25 132.899C333.928 132.899 332.813 132.387 331.927 131.358C331.041 130.33 330.598 129.015 330.598 127.406C330.598 125.798 331.041 124.483 331.927 123.447C332.813 122.415 333.921 121.899 335.25 121.899ZM335.25 124.08C334.582 124.08 334.022 124.393 333.579 125.014C333.136 125.636 332.911 126.435 332.911 127.406C332.911 128.378 333.132 129.162 333.579 129.784C334.022 130.405 334.582 130.718 335.25 130.718C335.918 130.718 336.474 130.409 336.91 129.791C337.345 129.173 337.563 128.378 337.563 127.406C337.563 126.435 337.341 125.636 336.902 125.014C336.463 124.393 335.911 124.08 335.254 124.08H335.25Z" fill="#9D773C"/>
<path d="M347.941 121.899C349.053 121.899 349.988 122.174 350.754 122.727C351.52 123.278 351.899 124.087 351.899 125.15C351.899 125.82 351.7 126.423 351.306 126.954C350.911 127.486 350.434 127.911 349.871 128.228C349.312 128.544 348.752 128.831 348.193 129.094C347.633 129.354 347.157 129.629 346.762 129.916C346.368 130.202 346.169 130.507 346.169 130.827H352.049V132.903H343.77V131.324C343.77 130.714 343.912 130.149 344.198 129.633C344.483 129.117 344.836 128.695 345.257 128.367C345.677 128.043 346.135 127.73 346.638 127.433C347.138 127.135 347.6 126.89 348.02 126.687C348.441 126.487 348.794 126.265 349.079 126.024C349.364 125.783 349.507 125.542 349.507 125.301C349.507 124.841 349.383 124.509 349.132 124.314C348.88 124.118 348.486 124.02 347.949 124.02C347.528 124.02 347.108 124.121 346.687 124.329C346.267 124.536 345.951 124.739 345.741 124.939L345.426 125.24L344.149 123.526C344.19 123.485 344.247 123.428 344.322 123.353C344.397 123.278 344.558 123.146 344.81 122.961C345.061 122.776 345.32 122.611 345.598 122.464C345.872 122.317 346.222 122.189 346.65 122.072C347.074 121.955 347.506 121.899 347.949 121.899H347.941Z" fill="#9D773C"/>
<path d="M359.761 121.899C360.873 121.899 361.811 122.177 362.581 122.735C363.351 123.293 363.738 124.095 363.738 125.15C363.738 125.47 363.674 125.768 363.55 126.039C363.426 126.31 363.272 126.521 363.092 126.672C362.912 126.823 362.731 126.951 362.551 127.056C362.371 127.162 362.217 127.229 362.086 127.26L361.905 127.32C361.965 127.32 362.04 127.327 362.131 127.342C362.221 127.358 362.386 127.41 362.626 127.501C362.867 127.591 363.077 127.712 363.265 127.862C363.452 128.013 363.617 128.239 363.768 128.548C363.918 128.853 363.993 129.207 363.993 129.61C363.993 130.594 363.599 131.389 362.81 131.995C362.022 132.602 361.019 132.907 359.81 132.907C359.3 132.907 358.811 132.85 358.35 132.741C357.884 132.632 357.501 132.496 357.193 132.334C356.889 132.172 356.619 132.014 356.39 131.852C356.16 131.69 355.988 131.558 355.879 131.445L355.729 131.279L356.825 129.505C356.855 129.535 356.896 129.576 356.953 129.633C357.009 129.689 357.129 129.787 357.321 129.934C357.512 130.081 357.711 130.206 357.929 130.311C358.143 130.417 358.421 130.515 358.763 130.605C359.104 130.695 359.453 130.741 359.814 130.741C360.993 130.741 361.582 130.304 361.582 129.433C361.582 128.65 360.978 128.258 359.769 128.258H358.196V126.453H359.769C360.328 126.453 360.73 126.374 360.97 126.212C361.211 126.05 361.331 125.753 361.331 125.308C361.331 124.864 361.207 124.517 360.955 124.321C360.704 124.125 360.31 124.027 359.769 124.027C359.348 124.027 358.932 124.129 358.515 124.336C358.098 124.543 357.786 124.747 357.576 124.946L357.261 125.248L355.984 123.534L356.157 123.36C356.232 123.285 356.393 123.153 356.637 122.969C356.881 122.784 357.14 122.618 357.418 122.471C357.692 122.324 358.042 122.196 358.47 122.08C358.894 121.963 359.326 121.906 359.769 121.906L359.761 121.899Z" fill="#9D773C"/>
<path d="M362.915 96.3601H403.625" stroke="#FFD054" stroke-width="6.53" stroke-miterlimit="10"/>
<path d="M403.876 99.3853C405.542 99.3853 406.891 98.0308 406.891 96.3601C406.891 94.6894 405.542 93.335 403.876 93.335C402.211 93.335 400.861 94.6894 400.861 96.3601C400.861 98.0308 402.211 99.3853 403.876 99.3853Z" fill="#FFD054"/>
<path d="M233.567 96.3601H192.853" stroke="#FFD054" stroke-width="6.53" stroke-miterlimit="10"/>
<path d="M192.602 99.3853C194.267 99.3853 195.617 98.0308 195.617 96.3601C195.617 94.6894 194.267 93.335 192.602 93.335C190.937 93.335 189.587 94.6894 189.587 96.3601C189.587 98.0308 190.937 99.3853 192.602 99.3853Z" fill="#FFD054"/>
<path d="M255.149 110.246L257.169 114.044H247.966L249.986 110.246V97.1739L247.97 93.3802L249.986 89.5865V76.5366H243.934L244.745 72.7165H260.387L261.198 76.5366H255.145V89.5865L257.165 93.384L255.149 97.1814V110.25V110.246Z" fill="#BF5738" stroke="#BF5738" stroke-width="1.74" stroke-miterlimit="10"/>
<path d="M282.679 110.224L286.926 108.201L285.649 114.044H273.356L275.376 110.224V97.1776L273.356 93.3802L275.376 89.5827V76.5328L273.356 72.7127H285.649L286.926 78.5558L282.679 76.5328H280.539V91.4702H286.464V95.2902H280.539V110.228H282.679V110.224Z" fill="#BF5738" stroke="#BF5738" stroke-width="1.74" stroke-miterlimit="10"/>
<path d="M319.243 93.3802L317.227 97.1739V110.989C316.037 112.183 315.372 112.85 314.182 114.044H304.021C302.831 112.85 302.167 112.179 300.976 110.989V100.926L298.956 97.1287H308.156L306.139 100.926V110.224H312.064V97.1739L310.048 93.3764L312.064 89.579V76.529H306.139L306.95 72.709H319.243L317.227 76.5064V89.579L319.243 93.3727V93.3802Z" fill="#BF5738" stroke="#BF5738" stroke-width="1.74" stroke-miterlimit="10"/>
<path d="M350.528 97.1739V110.985C349.338 112.179 348.673 112.846 347.483 114.04H337.323C336.132 112.846 335.468 112.179 334.278 110.985V97.1701L332.261 93.3764L334.278 89.5827V75.768C335.468 74.5738 336.132 73.907 337.323 72.7127H347.483C348.673 73.907 349.338 74.5776 350.528 75.768V89.579L352.545 93.3764L350.528 97.1701V97.1739ZM345.362 110.224V97.1701L343.345 93.3764L345.362 89.5827V76.529H339.437V89.579L341.453 93.3764L339.437 97.1739V110.224H345.362Z" fill="#BF5738" stroke="#BF5738" stroke-width="1.74" stroke-miterlimit="10"/>
<path d="M242.969 53.88H245.492L248.743 59.2823L252.021 53.88H254.545V64.1459H252.296V57.5494L248.74 63.3435L245.214 57.5494V64.1459H242.965V53.88H242.969Z" fill="#9D773C"/>
<path d="M258.54 53.88H260.789V59.0186C260.789 59.9416 260.98 60.68 261.371 61.2376C261.758 61.7951 262.306 62.0739 263.012 62.0739C263.718 62.0739 264.27 61.7951 264.668 61.2376C265.066 60.68 265.265 59.9378 265.265 59.0186V53.88H267.514V59.0186C267.514 60.6875 267.093 61.991 266.252 62.9291C265.411 63.8671 264.333 64.3343 263.015 64.3343C261.698 64.3343 260.627 63.8671 259.794 62.9366C258.96 62.0061 258.547 60.6988 258.547 59.0186V53.88H258.54Z" fill="#9D773C"/>
<path d="M271.498 53.88H274.021L278.549 60.7968V53.88H280.813V64.1459H278.29L273.747 57.2141V64.1459H271.498V53.88Z" fill="#9D773C"/>
<path d="M284.789 64.1421V53.8762H288.214C289.712 53.8762 290.962 54.3509 291.957 55.2965C292.952 56.2421 293.452 57.4815 293.452 59.0148C293.452 60.5481 292.952 61.7876 291.957 62.7256C290.962 63.6674 289.712 64.1384 288.214 64.1384H284.789V64.1421ZM287.039 55.8729V62.1492H288.214C289.066 62.1492 289.78 61.8516 290.362 61.2526C290.944 60.6536 291.233 59.9114 291.233 59.0186C291.233 58.1257 290.944 57.3647 290.362 56.7695C289.78 56.1705 289.066 55.8729 288.214 55.8729H287.039Z" fill="#9D773C"/>
<path d="M297.21 53.88H299.459V64.1459H297.21V53.88Z" fill="#9D773C"/>
<path d="M306.901 53.88H309.515L313.42 64.1459H310.983L310.299 62.2962H306.12L305.437 64.1459H303L306.905 53.88H306.901ZM308.208 56.6188L306.86 60.3033H309.56L308.212 56.6188H308.208Z" fill="#9D773C"/>
<path d="M316.972 53.88H319.221V62.1492H323.212V64.1421H316.972V53.8762V53.88Z" fill="#9D773C"/>
<path d="M334.007 64.1421V53.8762H337.432C338.93 53.8762 340.18 54.3509 341.175 55.2965C342.17 56.2421 342.67 57.4815 342.67 59.0148C342.67 60.5481 342.17 61.7876 341.175 62.7256C340.18 63.6674 338.93 64.1384 337.432 64.1384H334.007V64.1421ZM336.256 55.8729V62.1492H337.432C338.284 62.1492 338.997 61.8516 339.579 61.2526C340.161 60.6536 340.45 59.9114 340.45 59.0186C340.45 58.1257 340.161 57.3647 339.579 56.7695C338.997 56.1705 338.284 55.8729 337.432 55.8729H336.256Z" fill="#9D773C"/>
<path d="M346.428 64.1421V53.8762H353.51V55.8691H348.677V57.9939H353.029V60.0019H348.677V62.1417H353.51V64.1346H346.428V64.1421Z" fill="#9D773C"/>
<path fill-rule="evenodd" clip-rule="evenodd" d="M221.833 56.4342C223.459 56.4342 224.773 57.7565 224.773 59.384C224.773 61.0115 223.455 62.3338 221.833 62.3338C220.571 62.3338 219.497 61.5389 219.077 60.4163H187.709V61.4523C187.709 62.0437 187.229 62.5259 186.639 62.5259C186.05 62.5259 185.569 62.0437 185.569 61.4523V60.4163H177.001L170.257 65.7244L150.897 59.3802L170.257 53.0361L177.001 58.3442H185.569V57.3082C185.569 56.7168 186.05 56.2345 186.639 56.2345C187.229 56.2345 187.709 56.7168 187.709 57.3082V58.3442H219.077C219.494 57.2253 220.571 56.4267 221.833 56.4267V56.4342Z" fill="#FFD054"/>
<path fill-rule="evenodd" clip-rule="evenodd" d="M372.7 62.3376C371.074 62.3376 369.76 61.0152 369.76 59.3878C369.76 57.7603 371.078 56.438 372.7 56.438C373.962 56.438 375.036 57.2329 375.456 58.3555H406.824V57.3195C406.824 56.728 407.304 56.2458 407.894 56.2458C408.483 56.2458 408.964 56.728 408.964 57.3195V58.3555H417.532L424.276 53.0474L443.636 59.3915L424.276 65.7357L417.532 60.4275H408.964V61.4636C408.964 62.055 408.483 62.5372 407.894 62.5372C407.304 62.5372 406.824 62.055 406.824 61.4636V60.4275H375.456C375.04 61.5464 373.962 62.3451 372.7 62.3451V62.3376Z" fill="#FFD054"/>
<path d="M286.246 150.067C283.963 147.471 282.503 144.13 282.278 140.453H274.772C275.012 146.205 277.306 151.423 280.937 155.39L286.246 150.063V150.067Z" fill="#FFD054"/>
<path d="M297.24 155.469C293.576 155.243 290.245 153.778 287.658 151.487L282.349 156.814C286.303 160.457 291.503 162.759 297.237 163V155.469H297.24Z" fill="#FFD054"/>
<path d="M314.204 140.453C313.979 144.13 312.519 147.471 310.236 150.067L315.545 155.394C319.176 151.427 321.47 146.209 321.71 140.456H314.204V140.453Z" fill="#FFD054"/>
<path d="M308.82 151.487C306.233 153.778 302.903 155.243 299.238 155.469V163C304.971 162.759 310.172 160.457 314.126 156.814L308.816 151.487H308.82Z" fill="#FFD054"/>
<path d="M310.457 139.451C310.457 146.209 304.975 151.706 298.239 151.706C291.503 151.706 286.025 146.209 286.025 139.451H284.459C284.459 147.076 290.639 153.277 298.239 153.277C305.839 153.277 312.019 147.076 312.019 139.451H310.453H310.457Z" fill="#9D773C"/>
<path d="M308.659 139.451H300.961C300.961 140.961 299.741 142.182 298.239 142.182C296.737 142.182 295.517 140.957 295.517 139.451H287.82C287.861 139.748 288 140.034 288.296 140.204L291.556 142.091L290.579 145.742C290.377 146.503 291.071 147.204 291.83 146.996L295.468 146.017L297.349 149.287C297.743 149.969 298.727 149.969 299.121 149.287L301.003 146.017L304.641 146.996C305.399 147.2 306.098 146.503 305.895 145.742L304.919 142.091L308.178 140.204C308.475 140.034 308.614 139.748 308.655 139.451H308.659Z" fill="#9D773C"/>
<path d="M267.288 140.453H207.493V142.901H267.288V140.453Z" fill="#FFD054"/>
<path fill-rule="evenodd" clip-rule="evenodd" d="M253.854 148.368L247.148 141.685L253.854 134.986L260.564 141.685L253.854 148.368Z" fill="#FFD054"/>
<path fill-rule="evenodd" clip-rule="evenodd" d="M240.442 148.368L233.736 141.685L240.442 134.986L247.148 141.685L240.442 148.368Z" fill="#FFD054"/>
<path fill-rule="evenodd" clip-rule="evenodd" d="M207.493 144.631C209.115 144.631 210.437 143.305 210.437 141.677C210.437 140.05 209.115 138.723 207.493 138.723C205.871 138.723 204.55 140.05 204.55 141.677C204.55 143.305 205.871 144.631 207.493 144.631Z" fill="#FFD054"/>
<path d="M388.985 140.453H329.19V142.901H388.985V140.453Z" fill="#FFD054"/>
<path fill-rule="evenodd" clip-rule="evenodd" d="M342.624 134.986L349.331 141.673L342.624 148.368L335.918 141.673L342.624 134.986Z" fill="#FFD054"/>
<path fill-rule="evenodd" clip-rule="evenodd" d="M356.037 134.986L362.746 141.673L356.037 148.368L349.331 141.673L356.037 134.986Z" fill="#FFD054"/>
<path fill-rule="evenodd" clip-rule="evenodd" d="M388.985 138.723C387.363 138.723 386.041 140.05 386.041 141.677C386.041 143.305 387.363 144.631 388.985 144.631C390.607 144.631 391.929 143.305 391.929 141.677C391.929 140.05 390.607 138.723 388.985 138.723Z" fill="#FFD054"/>
<path d="M394.159 14.3459C393.645 16.3538 392.826 17.8871 391.835 19.2283C391.294 19.9591 390.705 20.6335 390.077 21.3003C389.612 20.8332 389.116 20.3961 388.598 19.9855C387.708 19.2848 386.717 18.6594 385.602 18.4711C385.05 18.3769 384.393 18.4711 383.736 18.6896C383.687 18.6594 383.642 18.6255 383.589 18.5991C383.248 18.3844 382.887 18.1998 382.527 18.0378C382.174 17.8834 381.813 17.7477 381.453 17.6385C380.961 17.4916 380.454 17.3974 379.943 17.3409C379.444 17.2806 378.941 17.2542 378.438 17.2316C375.768 17.1111 373.053 17.1563 370.466 16.4857C367.875 15.8076 365.352 14.2705 364.241 11.8293C363.738 10.733 363.572 9.36548 364.252 8.37091C364.718 10.1227 366.235 11.3998 367.83 12.255C372.19 14.587 377.469 14.5418 382.283 13.4304C382.388 13.404 382.497 13.3814 382.602 13.3513C383.676 13.1064 384.798 12.8691 385.827 13.2307C386.417 13.4417 386.931 13.826 387.438 14.2215C388.129 14.764 388.808 15.3065 389.661 15.4007C391.786 15.6343 393.284 13.0838 394.456 11.6673C394.959 12.4547 394.373 13.5321 394.163 14.3496L394.159 14.3459Z" fill="#77270F"/>
<path d="M390.682 20.2417C389.541 19.8424 388.463 19.281 387.314 18.9043C386.191 18.5313 384.667 18.1094 383.585 18.5991C382.913 18.1847 382.189 17.8608 381.445 17.6385C380.953 17.4916 380.446 17.3974 379.936 17.3409C380.003 17.145 380.06 16.9453 380.116 16.7494C380.398 15.687 380.585 14.4626 381.483 13.8297C381.813 13.5924 382.204 13.4718 382.594 13.3475C382.801 13.2797 383.003 13.2119 383.202 13.1215C383.769 12.8691 384.31 12.3077 384.179 11.6974C384.066 11.1587 383.473 10.8197 383.371 10.2772C383.927 9.6405 384.381 8.91341 384.933 8.27673C385.309 10.2696 386.285 12.093 387.243 13.8787C387.306 13.9917 387.363 14.1048 387.427 14.2178C388.504 16.222 389.589 18.2337 390.674 20.2417H390.682Z" fill="#77270F"/>
<path d="M407.868 53.2734C405.123 46.6694 397.223 42.9586 395.552 36.0003C395.15 34.3239 395.154 32.5721 394.899 30.8655C394.362 27.2753 392.631 23.8696 390.074 21.3003C389.608 20.8332 389.113 20.3962 388.594 19.9855C387.704 19.2848 386.713 18.6594 385.598 18.4711C385.046 18.3769 384.389 18.4711 383.732 18.6896C383.683 18.6594 383.638 18.6255 383.585 18.5992C383.244 18.3844 382.883 18.1998 382.523 18.0378C383.191 17.646 383.912 17.3409 384.483 16.8248C384.855 16.4857 385.155 16.06 385.587 15.8038C386.687 15.1558 388.069 15.8754 389.075 16.659C390.07 17.4351 390.994 18.2978 391.835 19.2321C393.907 21.5151 395.499 24.2313 396.464 27.1547C397.178 29.3134 397.557 31.5813 398.361 33.7136C399.656 37.1494 401.988 40.069 404.019 43.1243C406.05 46.1834 407.86 49.6003 407.868 53.2734Z" fill="#77270F"/>
<path d="M395.312 26.955C393.536 27.8969 391.373 28.3565 390.175 29.9764C389.638 30.7035 389.36 31.6001 389.259 32.5005C388.97 35.0359 390.021 37.5826 391.613 39.5717C393.205 41.5609 395.3 43.0753 397.407 44.5069C398.691 45.3809 400.043 46.2851 400.782 47.6526C400.414 45.2076 398.439 43.3805 396.652 41.6777C394.865 39.9748 393.029 37.9066 393.089 35.4352C393.096 35.0736 393.156 34.6968 393.374 34.4068C393.577 34.1355 393.896 33.9811 394.215 33.8643C395.541 33.3745 396.99 33.4197 398.387 33.2276C399.784 33.0355 401.271 32.5043 401.984 31.2837C402.536 30.3343 402.506 29.125 402.138 28.089C401.77 27.053 401.098 26.1526 400.411 25.2974C397.812 22.0764 394.651 18.8968 394.151 14.7866C393.982 13.404 394.249 11.7879 395.417 11.0306C392.33 10.6313 390.475 19.9554 390.475 19.9554C390.475 19.9554 396.205 26.4879 395.323 26.955H395.312Z" fill="#9D773C"/>
<path d="M388.801 10.9628C390.28 10.9214 391.354 9.48226 392.788 9.10176C393.949 8.79284 395.161 9.21478 396.307 9.57267C401.019 11.0532 406.279 11.5128 410.804 9.5237C412.46 8.79661 414.071 7.64004 414.671 5.92969C415.272 6.977 415.002 8.32569 414.416 9.37677C413.117 11.7238 410.485 13.0612 407.853 13.5359C405.221 14.0068 402.517 13.7506 399.844 13.664C398.83 13.6301 397.805 13.6225 396.81 13.8373C393.678 14.5078 390.641 17.0244 390.678 20.2379C388.027 16.723 385.238 14.425 384.393 9.56514C384.246 8.73256 383.747 7.61744 384.306 6.86775C385.361 8.36713 386.664 11.0269 388.801 10.959V10.9628Z" fill="#9D773C"/>
<path d="M380.98 4.82965C381.517 3.7861 382.741 3.1419 383.905 3.29259C385.069 3.44328 386.09 4.3738 386.349 5.52283C386.503 6.20848 386.405 6.92804 386.244 7.61369C386.139 8.0733 386.004 8.52914 385.79 8.95108C385.271 9.97202 384.265 10.733 383.142 10.9553C382.647 11.0532 382.102 11.0419 381.682 10.7632C381.423 10.5899 381.231 10.3337 381.07 10.0624C380.244 8.66853 380.244 6.25369 380.976 4.83342L380.98 4.82965Z" fill="#77270F"/>
<path d="M200.28 14.3459C200.795 16.3538 201.613 17.8871 202.605 19.2283C203.145 19.9591 203.735 20.6335 204.362 21.3003C204.827 20.8332 205.323 20.3961 205.841 19.9855C206.731 19.2848 207.722 18.6594 208.838 18.4711C209.39 18.3769 210.047 18.4711 210.704 18.6896C210.753 18.6594 210.798 18.6255 210.85 18.5991C211.192 18.3844 211.552 18.1998 211.913 18.0378C212.266 17.8834 212.626 17.7477 212.987 17.6385C213.479 17.4916 213.985 17.3974 214.496 17.3409C214.995 17.2806 215.499 17.2542 216.002 17.2316C218.671 17.1111 221.386 17.1563 223.973 16.4857C226.564 15.8076 229.087 14.2705 230.199 11.8293C230.702 10.733 230.867 9.36548 230.187 8.37091C229.722 10.1227 228.205 11.3998 226.609 12.255C222.25 14.587 216.97 14.5418 212.157 13.4304C212.052 13.404 211.943 13.3814 211.838 13.3513C210.764 13.1064 209.641 12.8691 208.612 13.2307C208.023 13.4417 207.508 13.826 207.002 14.2215C206.311 14.764 205.631 15.3065 204.779 15.4007C202.653 15.6343 201.155 13.0838 199.984 11.6673C199.481 12.4547 200.066 13.5321 200.277 14.3496L200.28 14.3459Z" fill="#77270F"/>
<path d="M203.757 20.2417C204.899 19.8424 205.976 19.281 207.125 18.9043C208.248 18.5313 209.773 18.1094 210.854 18.5991C211.526 18.1847 212.251 17.8608 212.994 17.6385C213.486 17.4916 213.993 17.3974 214.504 17.3409C214.436 17.145 214.38 16.9453 214.323 16.7494C214.042 15.687 213.854 14.4626 212.957 13.8297C212.626 13.5924 212.236 13.4718 211.845 13.3475C211.639 13.2797 211.436 13.2119 211.237 13.1215C210.67 12.8691 210.129 12.3077 210.261 11.6974C210.373 11.1587 210.967 10.8197 211.068 10.2772C210.512 9.6405 210.058 8.91341 209.506 8.27673C209.13 10.2696 208.154 12.093 207.197 13.8787C207.133 13.9917 207.077 14.1048 207.013 14.2178C205.935 16.222 204.85 18.2337 203.765 20.2417H203.757Z" fill="#77270F"/>
<path d="M186.572 53.2734C189.316 46.6694 197.217 42.9586 198.887 36.0003C199.289 34.3239 199.285 32.5721 199.541 30.8655C200.078 27.2753 201.809 23.8696 204.366 21.3003C204.831 20.8332 205.327 20.3962 205.845 19.9855C206.735 19.2848 207.726 18.6594 208.841 18.4711C209.393 18.3769 210.05 18.4711 210.707 18.6896C210.756 18.6594 210.801 18.6255 210.854 18.5992C211.196 18.3844 211.556 18.1998 211.917 18.0378C211.248 17.646 210.527 17.3409 209.957 16.8248C209.585 16.4857 209.284 16.06 208.853 15.8038C207.752 15.1558 206.371 15.8754 205.364 16.659C204.369 17.4351 203.446 18.2978 202.605 19.2321C200.532 21.5151 198.94 24.2313 197.975 27.1547C197.262 29.3134 196.882 31.5813 196.079 33.7136C194.783 37.1494 192.452 40.069 190.42 43.1243C188.389 46.1834 186.579 49.6003 186.572 53.2734Z" fill="#77270F"/>
<path d="M199.131 26.955C200.907 27.8969 203.07 28.3565 204.268 29.9764C204.805 30.7035 205.083 31.6001 205.184 32.5005C205.473 35.0359 204.422 37.5826 202.83 39.5717C201.238 41.5609 199.143 43.0753 197.036 44.5069C195.752 45.3809 194.4 46.2851 193.661 47.6526C194.029 45.2076 196.004 43.3805 197.791 41.6777C199.578 39.9748 201.414 37.9066 201.354 35.4352C201.347 35.0736 201.287 34.6968 201.069 34.4068C200.866 34.1355 200.547 33.9811 200.228 33.8643C198.902 33.3745 197.453 33.4197 196.056 33.2276C194.66 33.0355 193.173 32.5043 192.459 31.2837C191.907 30.3343 191.937 29.125 192.305 28.089C192.673 27.053 193.345 26.1526 194.032 25.2974C196.631 22.0764 199.792 18.8968 200.292 14.7866C200.461 13.404 200.194 11.7879 199.026 11.0306C202.113 10.6313 203.968 19.9554 203.968 19.9554C203.968 19.9554 198.238 26.4879 199.12 26.955H199.131Z" fill="#9D773C"/>
<path d="M205.638 10.9628C204.159 10.9214 203.085 9.48226 201.651 9.10176C200.491 8.79284 199.278 9.21478 198.133 9.57267C193.42 11.0532 188.16 11.5128 183.635 9.5237C181.98 8.79661 180.369 7.64004 179.768 5.92969C179.167 6.977 179.438 8.32569 180.023 9.37677C181.322 11.7238 183.955 13.0612 186.587 13.5359C189.219 14.0068 191.922 13.7506 194.596 13.664C195.609 13.6301 196.635 13.6225 197.63 13.8373C200.761 14.5078 203.799 17.0244 203.761 20.2379C206.412 16.723 209.202 14.425 210.047 9.56514C210.193 8.73256 210.692 7.61744 210.133 6.86775C209.078 8.36713 207.775 11.0269 205.638 10.959V10.9628Z" fill="#9D773C"/>
<path d="M213.46 4.82965C212.923 3.7861 211.699 3.1419 210.535 3.29259C209.371 3.44328 208.349 4.3738 208.09 5.52283C207.936 6.20848 208.034 6.92804 208.196 7.61369C208.301 8.0733 208.436 8.52914 208.65 8.95108C209.168 9.97202 210.174 10.733 211.297 10.9553C211.793 11.0532 212.337 11.0419 212.758 10.7632C213.017 10.5899 213.208 10.3337 213.37 10.0624C214.196 8.66853 214.196 6.25369 213.463 4.83342L213.46 4.82965Z" fill="#77270F"/>
<path d="M318.019 3.95187H280.562V26.2769H318.019V3.95187Z" fill="#9D773C"/>
<path d="M318.196 26.2769H299.437H299.32H280.562L265.024 45.6748H299.32H299.437H333.737L318.196 26.2769Z" fill="#9D773C" stroke="white" stroke-width="2.03" stroke-miterlimit="10"/>
<path d="M267.472 45.6748L283.01 26.2769" stroke="white" stroke-width="1.73" stroke-miterlimit="10"/>
<path d="M315.748 26.2769L331.289 45.6748" stroke="white" stroke-width="1.73" stroke-miterlimit="10"/>
<path d="M332.712 45.6748H265.794V49.7849H332.712V45.6748Z" fill="#9D773C" stroke="white" stroke-width="2.49" stroke-miterlimit="10"/>
<path d="M280.562 3.95187V25.8738" stroke="white" stroke-width="2.04" stroke-miterlimit="10"/>
<path d="M287.974 3.95187V25.8738" stroke="white" stroke-width="2.04" stroke-miterlimit="10"/>
<path d="M295.385 3.95187V25.8738" stroke="white" stroke-width="2.04" stroke-miterlimit="10"/>
<path d="M302.797 3.95187V25.8738" stroke="white" stroke-width="2.04" stroke-miterlimit="10"/>
<path d="M310.209 3.95187V25.8738" stroke="white" stroke-width="2.04" stroke-miterlimit="10"/>
<path d="M317.621 3.95187V25.8738" stroke="white" stroke-width="2.04" stroke-miterlimit="10"/>
<path d="M299.381 39.018C302.199 39.018 304.483 37.6551 304.483 35.974C304.483 34.2928 302.199 32.93 299.381 32.93C296.562 32.93 294.278 34.2928 294.278 35.974C294.278 37.6551 296.562 39.018 299.381 39.018Z" stroke="white" stroke-width="2.03" stroke-miterlimit="10"/>
<path d="M299.159 34.4407L300.867 31.5511H297.766L299.159 34.4407Z" fill="#9D773C" stroke="white" stroke-width="1.11" stroke-miterlimit="10"/>
<path d="M299.535 37.9254L297.83 40.815H300.931L299.535 37.9254Z" fill="#9D773C" stroke="white" stroke-width="1.11" stroke-miterlimit="10"/>
<path d="M303.041 35.9627L305.921 37.673V34.565L303.041 35.9627Z" fill="#9D773C" stroke="white" stroke-width="1.11" stroke-miterlimit="10"/>
<path d="M295.716 36.3394L292.836 34.6291V37.7409L295.716 36.3394Z" fill="#9D773C" stroke="white" stroke-width="1.11" stroke-miterlimit="10"/>
<path d="M244.576 11.0306C244.576 11.0306 244.557 11.0532 244.553 11.0645C244.523 11.1286 244.549 11.2039 244.613 11.2378L260 18.8516C260.064 18.8817 260.143 18.8553 260.173 18.7913C260.203 18.7272 260.177 18.6481 260.113 18.618L244.726 11.0043C244.673 10.9779 244.617 10.9892 244.579 11.0269L244.576 11.0306Z" fill="#585857"/>
<path d="M255.634 0.0376502C255.596 0.0753233 255.585 0.1356 255.611 0.184575L263.199 15.623C263.229 15.687 263.308 15.7134 263.372 15.6833C263.436 15.6531 263.462 15.574 263.432 15.51L255.84 0.071556C255.81 0.00751178 255.731 -0.0188594 255.667 0.0112791C255.656 0.0188137 255.645 0.0263483 255.634 0.0338829V0.0376502Z" fill="#585857"/>
<path d="M251.477 15.9809C251.477 15.9809 251.458 16.0035 251.451 16.0186C251.421 16.0826 251.451 16.1617 251.518 16.1881L256.884 18.5464C256.948 18.5766 257.027 18.5464 257.053 18.4786C257.083 18.4146 257.053 18.3354 256.985 18.3091L251.62 15.9507C251.571 15.9281 251.515 15.9394 251.477 15.9771V15.9809Z" fill="#585857"/>
<path d="M261.277 8.41613C261.251 8.4425 261.243 8.48018 261.258 8.51408L262.88 12.2249C262.899 12.2701 262.952 12.2889 262.997 12.2701C263.042 12.2512 263.06 12.1985 263.042 12.1533L261.42 8.4425C261.401 8.3973 261.348 8.37846 261.303 8.3973C261.292 8.40106 261.284 8.4086 261.277 8.41613Z" fill="#585857"/>
<path d="M259.903 13.4417C259.861 13.4832 259.854 13.5472 259.884 13.5999L261.743 16.6251C261.78 16.6854 261.859 16.7042 261.919 16.6665C261.979 16.6289 261.998 16.5497 261.96 16.4895L260.102 13.4643C260.064 13.404 259.985 13.3852 259.925 13.4229C259.918 13.4266 259.91 13.4342 259.903 13.4417Z" fill="#585857"/>
<path d="M257.92 9.97205C257.879 10.0135 257.871 10.0775 257.901 10.1303L259.197 12.2437C259.234 12.304 259.313 12.3228 259.373 12.2852C259.433 12.2475 259.452 12.1684 259.415 12.1081L258.119 9.99465C258.082 9.93438 258.003 9.91554 257.943 9.95321C257.935 9.95698 257.928 9.96451 257.92 9.97205Z" fill="#585857"/>
<path d="M258.765 16.2145C258.765 16.2145 258.754 16.2258 258.75 16.2333C258.709 16.2936 258.724 16.3727 258.784 16.4141L260.924 17.8984C260.984 17.9399 261.063 17.9248 261.104 17.8645C261.146 17.8043 261.131 17.7251 261.07 17.6837L258.93 16.1994C258.878 16.1617 258.81 16.1692 258.765 16.2145Z" fill="#585857"/>
<path d="M256.347 14.7188C256.347 14.7188 256.336 14.7301 256.332 14.7377C256.291 14.798 256.306 14.8771 256.366 14.9185L257.973 16.0336C258.033 16.0751 258.112 16.06 258.153 15.9997C258.194 15.9395 258.179 15.8603 258.119 15.8189L256.512 14.7038C256.46 14.6661 256.392 14.6736 256.347 14.7188Z" fill="#585857"/>
<path d="M252.235 18.1848C252.299 18.2601 252.28 18.3618 252.217 18.4259C252.153 18.4899 252.033 18.4711 251.976 18.407C251.913 18.3317 251.931 18.23 251.995 18.1659C252.059 18.1019 252.179 18.1207 252.235 18.1848Z" fill="#585857"/>
<path d="M258.716 13.5472C258.78 13.6226 258.761 13.7243 258.697 13.7883C258.634 13.8524 258.513 13.8335 258.457 13.7695C258.393 13.6941 258.412 13.5924 258.476 13.5284C258.54 13.4643 258.66 13.4832 258.716 13.5472Z" fill="#585857"/>
<path d="M259.343 9.51996C259.407 9.59531 259.388 9.69703 259.324 9.76107C259.261 9.82511 259.14 9.80628 259.084 9.74223C259.02 9.66689 259.039 9.56517 259.103 9.50113C259.167 9.43708 259.287 9.45592 259.343 9.51996Z" fill="#585857"/>
<path d="M247.249 16.0073C247.313 16.0826 247.294 16.1843 247.23 16.2484C247.166 16.3124 247.046 16.2936 246.99 16.2295C246.926 16.1542 246.945 16.0525 247.009 15.9884C247.073 15.9244 247.193 15.9432 247.249 16.0073Z" fill="#585857"/>
<path d="M264.258 11.0344C264.322 11.1098 264.303 11.2115 264.239 11.2755C264.176 11.3396 264.055 11.3207 263.999 11.2567C263.935 11.1814 263.954 11.0796 264.018 11.0156C264.082 10.9515 264.202 10.9704 264.258 11.0344Z" fill="#585857"/>
<path d="M258.742 3.03267C258.769 3.06658 258.788 3.11555 258.784 3.16076C258.784 3.17583 258.776 3.1909 258.773 3.2022C258.761 3.22857 258.746 3.25494 258.724 3.27378L258.671 3.32652C258.671 3.32652 258.634 3.35289 258.611 3.35666C258.589 3.36419 258.566 3.36796 258.543 3.36419C258.502 3.36043 258.453 3.33782 258.431 3.30392C258.405 3.27001 258.386 3.22104 258.39 3.17583C258.39 3.16076 258.397 3.14569 258.401 3.13439C258.412 3.10802 258.427 3.08165 258.45 3.06281L258.502 3.01007C258.502 3.01007 258.54 2.9837 258.562 2.97993C258.585 2.97239 258.607 2.96863 258.63 2.97239C258.671 2.97616 258.72 2.99877 258.742 3.03267Z" fill="#585857"/>
<path d="M254.578 18.3694C254.642 18.4447 254.623 18.5464 254.56 18.6105C254.496 18.6745 254.376 18.6557 254.319 18.5916C254.256 18.5163 254.274 18.4146 254.338 18.3505C254.402 18.2865 254.522 18.3053 254.578 18.3694Z" fill="#585857"/>
<path d="M259.891 12.5903C259.891 12.5903 259.85 12.5715 259.831 12.5866C259.764 12.6355 259.677 12.628 259.614 12.579C259.602 12.5677 259.591 12.5526 259.576 12.5451C259.557 12.5225 259.531 12.5263 259.516 12.5451C259.497 12.5602 259.493 12.5866 259.516 12.6054C259.527 12.6205 259.539 12.6318 259.55 12.6431C259.599 12.7071 259.602 12.7938 259.557 12.8616C259.546 12.8804 259.542 12.9068 259.561 12.9218C259.576 12.9407 259.602 12.9407 259.621 12.9256C259.689 12.8766 259.775 12.8842 259.839 12.9331C259.85 12.9444 259.861 12.9595 259.876 12.9671C259.895 12.9897 259.922 12.9859 259.937 12.9671C259.955 12.952 259.959 12.9256 259.937 12.9068C259.925 12.8917 259.914 12.8804 259.903 12.8691C259.854 12.8051 259.85 12.7184 259.895 12.6506C259.906 12.6318 259.91 12.6054 259.891 12.5903ZM259.67 12.6958C259.707 12.7033 259.749 12.7033 259.79 12.6958C259.779 12.7372 259.779 12.7749 259.79 12.8164C259.753 12.8088 259.711 12.8088 259.67 12.8164C259.681 12.7749 259.681 12.7372 259.67 12.6958Z" fill="#585857"/>
<path d="M261.131 7.48937C261.131 7.48937 261.089 7.47053 261.07 7.4856C261.003 7.53458 260.917 7.52704 260.853 7.47807C260.841 7.46676 260.83 7.4517 260.815 7.44416C260.796 7.42156 260.77 7.42532 260.755 7.44416C260.736 7.45923 260.733 7.4856 260.755 7.50444C260.766 7.51951 260.778 7.53081 260.789 7.54211C260.838 7.60616 260.841 7.6928 260.796 7.76061C260.785 7.77945 260.781 7.80582 260.8 7.82089C260.815 7.83973 260.841 7.83973 260.86 7.82466C260.928 7.77568 261.014 7.78322 261.078 7.83219C261.089 7.8435 261.1 7.85856 261.116 7.8661C261.134 7.8887 261.161 7.88494 261.176 7.8661C261.194 7.85103 261.198 7.82466 261.176 7.80582C261.164 7.79075 261.153 7.77945 261.142 7.76815C261.093 7.70411 261.089 7.61746 261.134 7.54965C261.146 7.53081 261.149 7.50444 261.131 7.48937ZM260.909 7.59485C260.947 7.60239 260.988 7.60239 261.029 7.59485C261.018 7.63629 261.018 7.67397 261.029 7.71541C260.992 7.70787 260.95 7.70787 260.909 7.71541C260.92 7.67397 260.92 7.63629 260.909 7.59485Z" fill="#585857"/>
<path d="M250.82 15.299C250.82 15.299 250.779 15.2802 250.76 15.2952C250.692 15.3442 250.606 15.3367 250.542 15.2877C250.531 15.2764 250.52 15.2613 250.504 15.2538C250.486 15.2312 250.459 15.235 250.444 15.2538C250.426 15.2689 250.422 15.2952 250.444 15.3141C250.456 15.3291 250.467 15.3404 250.478 15.3517C250.527 15.4158 250.531 15.5024 250.486 15.5702C250.474 15.5891 250.471 15.6155 250.489 15.6305C250.504 15.6494 250.531 15.6494 250.55 15.6343C250.617 15.5853 250.703 15.5928 250.767 15.6418C250.779 15.6531 250.79 15.6682 250.805 15.6757C250.824 15.6983 250.85 15.6946 250.865 15.6757C250.884 15.6607 250.887 15.6343 250.865 15.6155C250.854 15.6004 250.842 15.5891 250.831 15.5778C250.782 15.5137 250.779 15.4271 250.824 15.3593C250.835 15.3404 250.839 15.3141 250.82 15.299ZM250.598 15.4045C250.636 15.412 250.677 15.412 250.719 15.4045C250.707 15.4459 250.707 15.4836 250.719 15.525C250.681 15.5175 250.64 15.5175 250.598 15.525C250.61 15.4836 250.61 15.4459 250.598 15.4045Z" fill="#585857"/>
<path d="M255.292 20.0872C255.292 20.0872 255.262 20.0759 255.251 20.0872C255.202 20.1211 255.138 20.1174 255.093 20.0835C255.085 20.0759 255.078 20.0646 255.067 20.0571C255.055 20.0383 255.033 20.0458 255.022 20.0571C255.01 20.0684 255.006 20.0872 255.022 20.1023C255.029 20.1136 255.037 20.1211 255.048 20.1287C255.082 20.1739 255.085 20.2379 255.052 20.2869C255.04 20.302 255.04 20.317 255.052 20.3283C255.063 20.3434 255.082 20.3396 255.093 20.3283C255.142 20.2944 255.205 20.2982 255.251 20.3321C255.258 20.3396 255.266 20.3509 255.277 20.3585C255.288 20.3773 255.311 20.3698 255.322 20.3585C255.333 20.3472 255.337 20.3283 255.322 20.3133C255.314 20.302 255.307 20.2944 255.296 20.2869C255.262 20.2417 255.258 20.1777 255.292 20.1287C255.303 20.1136 255.303 20.0985 255.292 20.0872ZM255.13 20.1626C255.16 20.1701 255.187 20.1663 255.217 20.1626C255.209 20.1927 255.209 20.2229 255.217 20.2492C255.187 20.2417 255.16 20.2455 255.13 20.2492C255.138 20.2191 255.138 20.189 255.13 20.1626Z" fill="#585857"/>
<path d="M261.341 5.78655C261.341 5.78655 261.311 5.77524 261.299 5.78655C261.251 5.82045 261.187 5.81668 261.142 5.78278C261.134 5.77524 261.127 5.76394 261.116 5.75641C261.104 5.73757 261.082 5.74511 261.07 5.75641C261.059 5.76771 261.055 5.78655 261.07 5.80162C261.078 5.81292 261.085 5.82045 261.097 5.82799C261.131 5.87319 261.134 5.93724 261.1 5.98621C261.089 6.00128 261.089 6.01635 261.1 6.02765C261.112 6.04272 261.131 6.03896 261.142 6.02765C261.191 5.99375 261.254 5.99752 261.299 6.03142C261.307 6.03896 261.315 6.05026 261.326 6.05779C261.337 6.07663 261.36 6.06909 261.371 6.05779C261.382 6.04649 261.386 6.02765 261.371 6.01258C261.363 6.00128 261.356 5.99375 261.345 5.98621C261.311 5.94101 261.307 5.87696 261.341 5.82799C261.352 5.81292 261.352 5.79785 261.341 5.78655ZM261.179 5.86189C261.209 5.86943 261.236 5.86566 261.266 5.86189C261.258 5.89203 261.258 5.92217 261.266 5.94854C261.236 5.94101 261.209 5.94477 261.179 5.94854C261.187 5.9184 261.187 5.88826 261.179 5.86189Z" fill="#585857"/>
<path d="M255.694 14.0935C255.667 14.0633 255.622 14.0633 255.592 14.0859C255.476 14.1688 255.322 14.1575 255.217 14.0746C255.198 14.052 255.179 14.0332 255.153 14.0143C255.123 13.9729 255.074 13.9842 255.048 14.0143C255.018 14.0407 255.006 14.0897 255.048 14.1198C255.067 14.1424 255.089 14.165 255.108 14.1839C255.19 14.2931 255.202 14.4438 255.119 14.5606C255.097 14.5945 255.097 14.6359 255.127 14.6623C255.153 14.6925 255.198 14.6925 255.228 14.6699C255.344 14.587 255.498 14.5983 255.603 14.6812C255.622 14.7038 255.641 14.7226 255.667 14.7414C255.697 14.7829 255.746 14.7716 255.772 14.7414C255.802 14.7151 255.814 14.6661 255.772 14.6359C255.754 14.6133 255.731 14.5907 255.712 14.5719C255.63 14.4627 255.618 14.312 255.701 14.1952C255.724 14.1613 255.724 14.1198 255.694 14.0935ZM255.311 14.2743C255.378 14.2894 255.45 14.2856 255.517 14.2743C255.502 14.3421 255.498 14.4137 255.517 14.4815C255.45 14.4664 255.378 14.4702 255.311 14.4815C255.326 14.4137 255.329 14.3421 255.311 14.2743Z" fill="#585857"/>
<path d="M264.938 18.3694L265.407 18.2639L265.58 18.4372C265.633 18.3957 265.685 18.3656 265.745 18.3392L266.049 18.1961L266.703 17.9022L273.105 24.3255L272.812 24.981L272.669 25.2861C272.639 25.3464 272.613 25.3992 272.571 25.4519L272.752 25.6365L272.646 26.0999C272.868 25.9643 273.052 25.7571 273.165 25.5122L273.206 25.418L273.825 24.0354C274.017 23.6059 273.949 23.135 273.653 22.8336L268.19 17.356C267.893 17.0546 267.424 16.9868 266.996 17.1827L265.617 17.8043L265.52 17.8457C265.276 17.955 265.069 18.1396 264.934 18.3656L264.938 18.3694ZM266.902 17.8193L267.217 17.6762C267.311 17.6347 267.401 17.6159 267.491 17.6159C267.619 17.6159 267.735 17.6573 267.822 17.744L273.281 23.2217C273.424 23.3648 273.446 23.5946 273.349 23.8207L273.202 24.1371L266.909 17.8231L266.902 17.8193Z" fill="#585857"/>
<path d="M261.525 19.4091L271.614 29.5281C271.708 29.6223 271.832 29.6713 271.956 29.6713C272.004 29.6713 272.049 29.6675 272.102 29.6524C272.286 29.5997 272.425 29.449 272.47 29.2606L273.243 25.7495C273.266 25.6365 273.255 25.5197 273.206 25.4255C273.183 25.3766 273.15 25.3313 273.112 25.2937L265.745 17.9022C265.708 17.8645 265.666 17.8344 265.617 17.8118C265.52 17.7591 265.407 17.7515 265.295 17.7741L261.791 18.5502C261.607 18.5916 261.457 18.7348 261.401 18.9194C261.348 19.1002 261.397 19.2811 261.525 19.4091ZM261.881 19.0475L264.934 18.3731L265.403 18.2676L272.571 25.4594L272.752 25.644L272.646 26.1074L271.971 29.1514L261.881 19.0475Z" fill="#585857"/>
<path d="M263.447 18.4116L263.319 18.5395L272.477 27.7272L272.604 27.5993L263.447 18.4116Z" fill="#585857"/>
<path d="M271.738 26.0735L272.628 26.9664C272.662 27.0003 272.718 27.0003 272.755 26.9664C272.793 26.9324 272.789 26.8759 272.755 26.8383L271.865 25.9454C271.832 25.9115 271.775 25.9115 271.738 25.9454C271.7 25.9793 271.704 26.0358 271.738 26.0735Z" fill="#585857"/>
<path d="M272.436 26.0095L272.797 26.3711C272.83 26.405 272.887 26.405 272.924 26.3711C272.962 26.3372 272.958 26.2807 272.924 26.2431L272.564 25.8814C272.53 25.8475 272.474 25.8475 272.436 25.8814C272.399 25.9153 272.402 25.9718 272.436 26.0095Z" fill="#585857"/>
<path d="M262.873 18.7084L263.781 19.6201C263.815 19.654 263.872 19.654 263.909 19.6201C263.947 19.5862 263.943 19.5297 263.909 19.492L263 18.5803C262.967 18.5464 262.91 18.5464 262.873 18.5803C262.835 18.6142 262.839 18.6707 262.873 18.7084Z" fill="#585857"/>
<path d="M262.407 18.7951L262.809 19.1982C262.843 19.2321 262.899 19.2321 262.937 19.1982C262.97 19.1643 262.97 19.1078 262.937 19.0701L262.535 18.667C262.501 18.6331 262.445 18.6331 262.407 18.667C262.37 18.7009 262.373 18.7574 262.407 18.7951Z" fill="#585857"/>
<path d="M261.9 18.9194L262.726 19.7482C262.76 19.7821 262.816 19.7821 262.854 19.7482C262.892 19.7143 262.888 19.6578 262.854 19.6201L262.028 18.7913C261.994 18.7574 261.938 18.7574 261.9 18.7913C261.863 18.8252 261.866 18.8817 261.9 18.9194Z" fill="#585857"/>
<path d="M354.298 11.0306C354.298 11.0306 354.317 11.0532 354.321 11.0645C354.351 11.1286 354.324 11.2039 354.261 11.2378L338.873 18.8516C338.81 18.8817 338.731 18.8553 338.701 18.7913C338.671 18.7272 338.697 18.6481 338.761 18.618L354.148 11.0043C354.2 10.9779 354.257 10.9892 354.294 11.0269L354.298 11.0306Z" fill="#585857"/>
<path d="M343.24 0.0376502C343.278 0.0753233 343.289 0.1356 343.263 0.184575L335.674 15.623C335.644 15.687 335.565 15.7134 335.502 15.6833C335.438 15.6531 335.412 15.574 335.442 15.51L343.034 0.071556C343.064 0.00751178 343.143 -0.0188594 343.206 0.0112791C343.218 0.0188137 343.229 0.0263483 343.24 0.0338829V0.0376502Z" fill="#585857"/>
<path d="M347.397 15.9809C347.397 15.9809 347.416 16.0035 347.423 16.0186C347.453 16.0826 347.423 16.1617 347.355 16.1881L341.99 18.5464C341.926 18.5766 341.847 18.5464 341.821 18.4786C341.791 18.4146 341.821 18.3354 341.889 18.3091L347.254 15.9507C347.303 15.9281 347.359 15.9394 347.397 15.9771V15.9809Z" fill="#585857"/>
<path d="M337.597 8.41613C337.623 8.4425 337.631 8.48018 337.616 8.51408L335.994 12.2249C335.975 12.2701 335.922 12.2889 335.877 12.2701C335.832 12.2512 335.813 12.1985 335.832 12.1533L337.454 8.4425C337.473 8.3973 337.525 8.37846 337.571 8.3973C337.582 8.40106 337.589 8.4086 337.597 8.41613Z" fill="#585857"/>
<path d="M338.971 13.4417C339.012 13.4832 339.02 13.5472 338.99 13.5999L337.131 16.6251C337.094 16.6854 337.015 16.7042 336.955 16.6665C336.895 16.6289 336.876 16.5497 336.913 16.4895L338.772 13.4643C338.81 13.404 338.888 13.3852 338.949 13.4229C338.956 13.4266 338.964 13.4342 338.971 13.4417Z" fill="#585857"/>
<path d="M340.954 9.97205C340.995 10.0135 341.002 10.0775 340.972 10.1303L339.677 12.2437C339.639 12.304 339.561 12.3228 339.5 12.2852C339.44 12.2475 339.422 12.1684 339.459 12.1081L340.755 9.99465C340.792 9.93438 340.871 9.91554 340.931 9.95321C340.939 9.95698 340.946 9.96451 340.954 9.97205Z" fill="#585857"/>
<path d="M340.109 16.2145C340.109 16.2145 340.12 16.2258 340.124 16.2333C340.165 16.2936 340.15 16.3727 340.09 16.4141L337.95 17.8984C337.89 17.9399 337.811 17.9248 337.77 17.8645C337.728 17.8043 337.743 17.7251 337.803 17.6837L339.944 16.1994C339.996 16.1617 340.064 16.1692 340.109 16.2145Z" fill="#585857"/>
<path d="M342.527 14.7188C342.527 14.7188 342.538 14.7301 342.542 14.7377C342.583 14.798 342.568 14.8771 342.508 14.9185L340.901 16.0336C340.841 16.0751 340.762 16.06 340.721 15.9997C340.679 15.9395 340.695 15.8603 340.755 15.8189L342.362 14.7038C342.414 14.6661 342.482 14.6736 342.527 14.7188Z" fill="#585857"/>
<path d="M346.638 18.1848C346.574 18.2601 346.593 18.3618 346.657 18.4259C346.721 18.4899 346.841 18.4711 346.897 18.407C346.961 18.3317 346.942 18.23 346.879 18.1659C346.815 18.1019 346.695 18.1207 346.638 18.1848Z" fill="#585857"/>
<path d="M340.158 13.5472C340.094 13.6226 340.113 13.7243 340.176 13.7883C340.24 13.8524 340.36 13.8335 340.417 13.7695C340.48 13.6941 340.462 13.5924 340.398 13.5284C340.334 13.4643 340.214 13.4832 340.158 13.5472Z" fill="#585857"/>
<path d="M339.531 9.51996C339.467 9.59531 339.485 9.69703 339.549 9.76107C339.613 9.82511 339.733 9.80628 339.79 9.74223C339.853 9.66689 339.835 9.56517 339.771 9.50113C339.707 9.43708 339.587 9.45592 339.531 9.51996Z" fill="#585857"/>
<path d="M351.625 16.0073C351.561 16.0826 351.58 16.1843 351.643 16.2484C351.707 16.3124 351.827 16.2936 351.884 16.2295C351.948 16.1542 351.929 16.0525 351.865 15.9884C351.801 15.9244 351.681 15.9432 351.625 16.0073Z" fill="#585857"/>
<path d="M334.615 11.0344C334.552 11.1098 334.57 11.2115 334.634 11.2755C334.698 11.3396 334.818 11.3207 334.875 11.2567C334.938 11.1814 334.92 11.0796 334.856 11.0156C334.792 10.9515 334.672 10.9704 334.615 11.0344Z" fill="#585857"/>
<path d="M340.131 3.03267C340.105 3.06658 340.086 3.11555 340.09 3.16076C340.09 3.17583 340.098 3.1909 340.101 3.2022C340.113 3.22857 340.128 3.25494 340.15 3.27378L340.203 3.32652C340.203 3.32652 340.24 3.35289 340.263 3.35666C340.285 3.36419 340.308 3.36796 340.33 3.36419C340.372 3.36043 340.42 3.33782 340.443 3.30392C340.469 3.27001 340.488 3.22104 340.484 3.17583C340.484 3.16076 340.477 3.14569 340.473 3.13439C340.462 3.10802 340.447 3.08165 340.424 3.06281L340.372 3.01007C340.372 3.01007 340.334 2.9837 340.312 2.97993C340.289 2.97239 340.266 2.96863 340.244 2.97239C340.203 2.97616 340.154 2.99877 340.131 3.03267Z" fill="#585857"/>
<path d="M344.295 18.3694C344.232 18.4447 344.25 18.5464 344.314 18.6105C344.378 18.6745 344.498 18.6557 344.554 18.5916C344.618 18.5163 344.6 18.4146 344.536 18.3505C344.472 18.2865 344.352 18.3053 344.295 18.3694Z" fill="#585857"/>
<path d="M338.982 12.5903C338.964 12.6054 338.964 12.6318 338.979 12.6506C339.027 12.7184 339.02 12.8051 338.971 12.8691C338.96 12.8804 338.945 12.8917 338.937 12.9068C338.915 12.9256 338.918 12.952 338.937 12.9671C338.952 12.9859 338.979 12.9897 338.997 12.9671C339.012 12.9557 339.024 12.9444 339.035 12.9331C339.099 12.8842 339.185 12.8804 339.253 12.9256C339.271 12.9369 339.298 12.9407 339.313 12.9218C339.332 12.9068 339.332 12.8804 339.317 12.8616C339.268 12.7938 339.275 12.7071 339.324 12.6431C339.335 12.6318 339.35 12.6205 339.358 12.6054C339.38 12.5866 339.377 12.5602 339.358 12.5451C339.343 12.5263 339.317 12.5225 339.298 12.5451C339.283 12.5564 339.271 12.5677 339.26 12.579C339.196 12.628 339.11 12.6318 339.042 12.5866C339.024 12.5753 338.997 12.5715 338.982 12.5903ZM339.204 12.8126C339.163 12.8013 339.125 12.8013 339.084 12.8126C339.091 12.7749 339.091 12.7335 339.084 12.692C339.125 12.7033 339.163 12.7033 339.204 12.692C339.196 12.7297 339.196 12.7712 339.204 12.8126Z" fill="#585857"/>
<path d="M337.743 7.48937C337.724 7.50444 337.724 7.53081 337.739 7.54965C337.788 7.61746 337.781 7.70411 337.732 7.76815C337.721 7.77945 337.706 7.79075 337.698 7.80582C337.676 7.82466 337.679 7.85103 337.698 7.8661C337.713 7.88494 337.739 7.8887 337.758 7.8661C337.773 7.8548 337.785 7.8435 337.796 7.83219C337.86 7.78322 337.946 7.77945 338.014 7.82466C338.032 7.83596 338.059 7.83973 338.074 7.82089C338.092 7.80582 338.092 7.77945 338.077 7.76061C338.029 7.6928 338.036 7.60616 338.085 7.54211C338.096 7.53081 338.111 7.51951 338.119 7.50444C338.141 7.4856 338.138 7.45923 338.119 7.44416C338.104 7.42532 338.077 7.42156 338.059 7.44416C338.044 7.45546 338.032 7.46676 338.021 7.47807C337.957 7.52704 337.871 7.53081 337.803 7.4856C337.785 7.4743 337.758 7.47053 337.743 7.48937ZM337.965 7.71164C337.923 7.70034 337.886 7.70034 337.845 7.71164C337.852 7.67397 337.852 7.63253 337.845 7.59109C337.886 7.60239 337.923 7.60239 337.965 7.59109C337.957 7.62876 337.957 7.6702 337.965 7.71164Z" fill="#585857"/>
<path d="M348.054 15.299C348.035 15.3141 348.035 15.3404 348.05 15.3593C348.099 15.4271 348.091 15.5137 348.043 15.5778C348.031 15.5891 348.016 15.6004 348.009 15.6155C347.986 15.6343 347.99 15.6607 348.009 15.6757C348.024 15.6946 348.05 15.6983 348.069 15.6757C348.084 15.6644 348.095 15.6531 348.106 15.6418C348.17 15.5928 348.257 15.5891 348.324 15.6343C348.343 15.6456 348.369 15.6494 348.384 15.6305C348.403 15.6155 348.403 15.5891 348.388 15.5702C348.339 15.5024 348.347 15.4158 348.396 15.3517C348.407 15.3404 348.422 15.3291 348.429 15.3141C348.452 15.2952 348.448 15.2689 348.429 15.2538C348.414 15.235 348.388 15.2312 348.369 15.2538C348.354 15.2651 348.343 15.2764 348.332 15.2877C348.268 15.3367 348.182 15.3404 348.114 15.2952C348.095 15.2839 348.069 15.2802 348.054 15.299ZM348.275 15.5213C348.234 15.51 348.197 15.51 348.155 15.5213C348.163 15.4836 348.163 15.4422 348.155 15.4007C348.197 15.412 348.234 15.412 348.275 15.4007C348.268 15.4384 348.268 15.4798 348.275 15.5213Z" fill="#585857"/>
<path d="M343.582 20.0873C343.567 20.0986 343.571 20.1174 343.582 20.1287C343.616 20.1777 343.612 20.2417 343.578 20.2869C343.571 20.2945 343.559 20.302 343.552 20.3133C343.533 20.3246 343.541 20.3472 343.552 20.3585C343.563 20.3698 343.582 20.3736 343.597 20.3585C343.608 20.351 343.616 20.3434 343.623 20.3321C343.668 20.2982 343.732 20.2945 343.781 20.3284C343.796 20.3397 343.811 20.3397 343.822 20.3284C343.837 20.3171 343.834 20.2982 343.822 20.2869C343.788 20.2379 343.792 20.1739 343.826 20.1287C343.834 20.1212 343.845 20.1136 343.852 20.1023C343.871 20.091 343.864 20.0684 343.852 20.0571C343.841 20.0458 343.822 20.0421 343.807 20.0571C343.796 20.0647 343.788 20.0722 343.781 20.0835C343.736 20.1174 343.672 20.1212 343.623 20.0873C343.608 20.076 343.593 20.076 343.582 20.0873ZM343.743 20.2493C343.713 20.2417 343.683 20.2417 343.657 20.2493C343.665 20.2191 343.661 20.1927 343.657 20.1626C343.687 20.1701 343.717 20.1701 343.743 20.1626C343.736 20.1927 343.74 20.2191 343.743 20.2493Z" fill="#585857"/>
<path d="M337.533 5.78657C337.518 5.79787 337.522 5.81671 337.533 5.82801C337.567 5.87698 337.563 5.94103 337.529 5.98624C337.522 5.99377 337.51 6.0013 337.503 6.01261C337.484 6.02391 337.492 6.04651 337.503 6.05781C337.514 6.06912 337.533 6.07288 337.548 6.05781C337.559 6.05028 337.567 6.04274 337.574 6.03144C337.619 5.99754 337.683 5.99377 337.732 6.02768C337.747 6.03898 337.762 6.03898 337.773 6.02768C337.788 6.01637 337.785 5.99754 337.773 5.98624C337.739 5.93726 337.743 5.87322 337.777 5.82801C337.785 5.82047 337.796 5.81294 337.803 5.80164C337.822 5.79034 337.815 5.76773 337.803 5.75643C337.792 5.74513 337.773 5.74136 337.758 5.75643C337.747 5.76396 337.739 5.7715 337.732 5.7828C337.687 5.81671 337.623 5.82047 337.574 5.78657C337.559 5.77527 337.544 5.77527 337.533 5.78657ZM337.694 5.94856C337.664 5.94103 337.634 5.94103 337.608 5.94856C337.616 5.91842 337.612 5.89205 337.608 5.86191C337.638 5.86945 337.668 5.86945 337.694 5.86191C337.687 5.89205 337.691 5.91842 337.694 5.94856Z" fill="#585857"/>
<path d="M343.18 14.0935C343.15 14.1198 343.15 14.165 343.173 14.1952C343.255 14.312 343.244 14.4664 343.161 14.5719C343.139 14.5907 343.12 14.6096 343.101 14.6359C343.06 14.6661 343.071 14.7151 343.101 14.7414C343.128 14.7716 343.176 14.7829 343.206 14.7414C343.229 14.7226 343.251 14.7 343.27 14.6812C343.379 14.5983 343.529 14.587 343.646 14.6699C343.68 14.6925 343.721 14.6925 343.747 14.6623C343.777 14.6359 343.777 14.5907 343.755 14.5606C343.672 14.4438 343.683 14.2894 343.766 14.1839C343.788 14.165 343.807 14.1462 343.826 14.1198C343.867 14.0897 343.856 14.0407 343.826 14.0143C343.8 13.9842 343.751 13.9729 343.721 14.0143C343.698 14.0332 343.676 14.0558 343.657 14.0746C343.548 14.1575 343.398 14.1688 343.282 14.0859C343.248 14.0633 343.206 14.0633 343.18 14.0935ZM343.567 14.4815C343.499 14.4664 343.428 14.4627 343.36 14.4815C343.375 14.4137 343.372 14.3421 343.36 14.2743C343.428 14.2894 343.499 14.2931 343.567 14.2743C343.552 14.3421 343.556 14.4137 343.567 14.4815Z" fill="#585857"/>
<path d="M333.35 17.8533L333.253 17.8118L331.875 17.1902C331.446 16.9981 330.977 17.0621 330.68 17.3635L325.217 22.8412C324.921 23.1425 324.849 23.6135 325.045 24.0429L325.664 25.4255L325.705 25.5197C325.818 25.7646 326.002 25.9718 326.224 26.1074L326.118 25.644L326.299 25.4632C326.257 25.4067 326.227 25.354 326.201 25.2937L326.058 24.9885L325.765 24.333L332.167 17.9098L332.821 18.2036L333.125 18.3468C333.185 18.3769 333.238 18.4033 333.29 18.4447L333.463 18.2714L333.932 18.3769C333.797 18.1509 333.59 17.9663 333.346 17.857L333.35 17.8533ZM325.679 24.1371L325.533 23.8207C325.435 23.5946 325.458 23.3648 325.6 23.2217L331.06 17.744C331.146 17.6573 331.262 17.6159 331.39 17.6159C331.48 17.6159 331.57 17.6347 331.664 17.6762L331.98 17.8193L325.687 24.1333L325.679 24.1371Z" fill="#585857"/>
<path d="M337.469 18.9156C337.413 18.731 337.263 18.5916 337.079 18.5464L333.575 17.7704C333.463 17.7478 333.35 17.7553 333.253 17.808C333.204 17.8307 333.162 17.8608 333.125 17.8985L325.758 25.2899C325.72 25.3276 325.687 25.3766 325.664 25.4218C325.615 25.516 325.604 25.6327 325.627 25.7458L326.4 29.2569C326.441 29.4453 326.584 29.5959 326.768 29.6487C326.821 29.6638 326.866 29.6675 326.914 29.6675C327.042 29.6675 327.162 29.6186 327.256 29.5244L337.345 19.4054C337.473 19.2773 337.518 19.0927 337.469 18.9156ZM326.899 29.1476L326.224 26.1037L326.118 25.6403L326.299 25.4594L333.467 18.2639L333.936 18.3694L336.989 19.0437L326.899 29.1476Z" fill="#585857"/>
<path d="M335.428 18.4118L326.271 27.5996L326.398 27.7274L335.556 18.5397L335.428 18.4118Z" fill="#585857"/>
<path d="M327.136 26.0735L326.246 26.9664C326.212 27.0003 326.156 27.0003 326.118 26.9664C326.081 26.9324 326.085 26.8759 326.118 26.8383L327.008 25.9454C327.042 25.9115 327.098 25.9115 327.136 25.9454C327.174 25.9793 327.17 26.0358 327.136 26.0735Z" fill="#585857"/>
<path d="M326.438 26.0095L326.077 26.3711C326.043 26.405 325.987 26.405 325.949 26.3711C325.912 26.3372 325.916 26.2807 325.949 26.2431L326.31 25.8814C326.344 25.8475 326.4 25.8475 326.438 25.8814C326.475 25.9153 326.471 25.9718 326.438 26.0095Z" fill="#585857"/>
<path d="M336.001 18.7084L335.092 19.6201C335.059 19.654 335.002 19.654 334.965 19.6201C334.931 19.5862 334.931 19.5297 334.965 19.492L335.873 18.5803C335.907 18.5464 335.963 18.5464 336.001 18.5803C336.039 18.6142 336.035 18.6707 336.001 18.7084Z" fill="#585857"/>
<path d="M336.467 18.7951L336.065 19.1982C336.031 19.2321 335.975 19.2321 335.937 19.1982C335.9 19.1643 335.903 19.1078 335.937 19.0701L336.339 18.667C336.373 18.6331 336.429 18.6331 336.467 18.667C336.504 18.7009 336.5 18.7574 336.467 18.7951Z" fill="#585857"/>
<path d="M336.974 18.9194L336.147 19.7482C336.114 19.7821 336.057 19.7821 336.02 19.7482C335.982 19.7143 335.986 19.6578 336.02 19.6201L336.846 18.7913C336.88 18.7574 336.936 18.7574 336.974 18.7913C337.011 18.8252 337.007 18.8817 336.974 18.9194Z" fill="#585857"/>
<defs>
<linearGradient id="paint0_linear_3_5" x1="41.1851" y1="78.9175" x2="24.6054" y2="17.2441" gradientUnits="userSpaceOnUse">
<stop stop-color="#C56F1C"/>
<stop offset="1" stop-color="#FEEC34"/>
</linearGradient>
<linearGradient id="paint1_linear_3_5" x1="4.66938" y1="94.2071" x2="61.239" y2="94.2071" gradientUnits="userSpaceOnUse">
<stop stop-color="#C56F1C"/>
<stop offset="1" stop-color="#FEEC34"/>
</linearGradient>
<linearGradient id="paint2_linear_3_5" x1="35.9089" y1="105.877" x2="29.946" y2="83.7076" gradientUnits="userSpaceOnUse">
<stop stop-color="#C56F1C"/>
<stop offset="1" stop-color="#FEEC34"/>
</linearGradient>
<linearGradient id="paint3_linear_3_5" x1="35.1104" y1="147.955" x2="30.7451" y2="131.723" gradientUnits="userSpaceOnUse">
<stop stop-color="#C56F1C"/>
<stop offset="1" stop-color="#FEEC34"/>
</linearGradient>
<linearGradient id="paint4_linear_3_5" x1="566.28" y1="78.9162" x2="549.7" y2="17.2428" gradientUnits="userSpaceOnUse">
<stop stop-color="#C56F1C"/>
<stop offset="1" stop-color="#FEEC34"/>
</linearGradient>
<linearGradient id="paint5_linear_3_5" x1="529.761" y1="94.2096" x2="586.331" y2="94.2096" gradientUnits="userSpaceOnUse">
<stop stop-color="#C56F1C"/>
<stop offset="1" stop-color="#FEEC34"/>
</linearGradient>
<linearGradient id="paint6_linear_3_5" x1="561.004" y1="105.876" x2="555.044" y2="83.7036" gradientUnits="userSpaceOnUse">
<stop stop-color="#C56F1C"/>
<stop offset="1" stop-color="#FEEC34"/>
</linearGradient>
<linearGradient id="paint7_linear_3_5" x1="560.203" y1="147.955" x2="555.84" y2="131.72" gradientUnits="userSpaceOnUse">
<stop stop-color="#C56F1C"/>
<stop offset="1" stop-color="#FEEC34"/>
</linearGradient>
</defs>
</svg>
