<?xml version="1.0" standalone="no"?>
<!DOCTYPE svg PUBLIC "-//W3C//DTD SVG 1.1//EN" "http://www.w3.org/Graphics/SVG/1.1/DTD/svg11.dtd" >
<svg xmlns="http://www.w3.org/2000/svg" xmlns:xlink="http://www.w3.org/1999/xlink" version="1.1">
<metadata>
Created by FontForge 20170731 at Thu Jan 12 18:28:29 2017
 By Aleksey,,,
Copyright (c) 2014 by Dino dos santos, Pedro Leal. All rights reserved.
</metadata>
<defs>
<font id="JulesText-BoldItalic" horiz-adv-x="603" >
  <font-face 
    font-family="JulesText-BoldItalic"
    font-weight="400"
    font-style="italic"
    font-stretch="normal"
    units-per-em="1000"
    panose-1="0 0 8 0 0 0 0 0 0 0"
    ascent="773"
    descent="-227"
    x-height="500"
    cap-height="680"
    bbox="-686 -250 1289 970"
    underline-thickness="50"
    underline-position="-150"
    unicode-range="U+0020-FB02"
  />
<missing-glyph horiz-adv-x="500" 
 />
    <glyph glyph-name="fi" unicode="fi" horiz-adv-x="641" 
d="M409 710q51 0 79 -20t28 -51q0 -28 -20.5 -49t-48.5 -21q-45 0 -45 37q0 11 6.5 30t6.5 25q0 14 -20 14q-41 0 -59 -92l-18 -83h93l-7 -35h-94l-107 -506q-17 -76 -72.5 -122.5t-145.5 -46.5q-50 0 -75.5 19t-25.5 51q0 30 18 50.5t47 20.5q42 0 42 -38q0 -12 -7.5 -31.5
t-7.5 -24.5q0 -16 21 -16q41 0 60 92l117 552h-55l7 35h55l9 41q16 77 72.5 123t146.5 46zM633 695q26 0 41.5 -16t15.5 -41q0 -35 -24 -57.5t-63 -22.5q-26 0 -42 15.5t-16 39.5q0 36 24 59t64 23zM630 101h35q-11 -54 -50.5 -82.5t-91.5 -28.5q-113 0 -87 118l70 326
q4 20 -0.5 25.5t-23.5 5.5h-28l7 35h195l-85 -400q-11 -44 19 -44q29 0 40 45z" />
    <glyph glyph-name="fl" unicode="fl" horiz-adv-x="644" 
d="M409 710q51 0 79 -20t28 -51q0 -28 -20.5 -49t-48.5 -21q-45 0 -45 37q0 11 6.5 30t6.5 25q0 14 -20 14q-41 0 -59 -92l-18 -83h93l-7 -35h-94l-107 -506q-17 -76 -72.5 -122.5t-145.5 -46.5q-50 0 -75.5 19t-25.5 51q0 30 18 50.5t47 20.5q42 0 42 -38q0 -12 -7.5 -31.5
t-7.5 -24.5q0 -16 21 -16q41 0 60 92l117 552h-55l7 35h55l9 41q16 77 72.5 123t146.5 46zM629 101h35q-11 -55 -50.5 -83t-91.5 -28q-111 0 -87 118l127 592h136l-128 -600q-9 -44 19 -44q29 0 40 45z" />
    <glyph glyph-name="f_b" unicode="fb" horiz-adv-x="947" 
d="M409 710q51 0 79 -20t28 -51q0 -28 -20.5 -49t-48.5 -21q-45 0 -45 37q0 11 6.5 30t6.5 25q0 14 -20 14q-41 0 -59 -92l-18 -83h93l-7 -35h-94l-107 -506q-17 -76 -72.5 -122.5t-145.5 -46.5q-50 0 -75.5 19t-25.5 51q0 30 18 50.5t47 20.5q42 0 42 -38q0 -12 -7.5 -31.5
t-7.5 -24.5q0 -16 21 -16q41 0 60 92l117 552h-55l7 35h55l9 41q16 77 72.5 123t146.5 46zM814 510q66 0 106.5 -42t40.5 -126q0 -86 -29.5 -165t-90 -133t-137.5 -54q-52 0 -89.5 28t-43.5 89l-82 -107h-76l149 700h136l-65 -306q31 60 80 88t101 28zM759 453
q-48 0 -91 -51.5t-62 -132.5l-7 -33q-16 -83 5 -135.5t69 -52.5t85 53.5t54 123t17 134.5q0 94 -70 94z" />
    <glyph glyph-name="f_h" unicode="fh" horiz-adv-x="970" 
d="M409 710q51 0 79 -20t28 -51q0 -28 -20.5 -49t-48.5 -21q-45 0 -45 37q0 11 6.5 30t6.5 25q0 14 -20 14q-41 0 -59 -92l-18 -83h93l-7 -35h-94l-107 -506q-17 -76 -72.5 -122.5t-145.5 -46.5q-50 0 -75.5 19t-25.5 51q0 30 18 50.5t47 20.5q42 0 42 -38q0 -12 -7.5 -31.5
t-7.5 -24.5q0 -16 21 -16q41 0 60 92l117 552h-55l7 35h55l9 41q16 77 72.5 123t146.5 46zM958 101h35q-11 -54 -50.5 -82.5t-91.5 -28.5q-113 0 -87 118l51 239q23 106 -55 106q-53 0 -99.5 -75.5t-75.5 -210.5l-36 -167h-136l149 700h136l-70 -322q61 132 190 132
q78 0 113.5 -43t17.5 -128l-50 -239q-11 -44 19 -44q29 0 40 45z" />
    <glyph glyph-name="f_j" unicode="fj" horiz-adv-x="621" 
d="M409 710q51 0 79 -20t28 -51q0 -28 -20.5 -49t-48.5 -21q-45 0 -45 37q0 11 6.5 30t6.5 25q0 14 -20 14q-41 0 -59 -92l-18 -83h93l-7 -35h-94l-107 -506q-17 -76 -72.5 -122.5t-145.5 -46.5q-50 0 -75.5 19t-25.5 51q0 30 18 50.5t47 20.5q42 0 42 -38q0 -12 -7.5 -31.5
t-7.5 -24.5q0 -16 21 -16q41 0 60 92l117 552h-55l7 35h55l9 41q16 77 72.5 123t146.5 46zM633 695q26 0 41.5 -16t15.5 -41q0 -35 -24 -57.5t-63 -22.5q-26 0 -42 15.5t-16 39.5q0 36 24 59t64 23zM651 500l-115 -541q-16 -76 -71.5 -122.5t-145.5 -46.5q-50 0 -75.5 19
t-25.5 51q0 30 18 50.5t47 20.5q42 0 42 -38q0 -12 -7.5 -31.5t-7.5 -24.5q0 -16 21 -16q41 0 60 92l110 521q4 20 0 25.5t-23 5.5h-28l7 35h194z" />
    <glyph glyph-name="f_k" unicode="fk" horiz-adv-x="939" 
d="M447 569q-45 0 -45 37q0 11 6.5 30t6.5 25q0 14 -20 14q-41 0 -59 -92l-18 -83h93l-7 -35h-94l-107 -506q-17 -76 -72.5 -122.5t-145.5 -46.5q-50 0 -75.5 19t-25.5 51q0 30 18 50.5t47 20.5q42 0 42 -38q0 -12 -7.5 -31.5t-7.5 -24.5q0 -16 21 -16q41 0 60 92l117 552
h-55l7 35h55l9 41q16 77 72.5 123t146.5 46q51 0 79 -20t28 -51q0 -28 -20.5 -49t-48.5 -21zM845 436q-20 0 -40.5 -23t-47.5 -59.5t-53 -56.5q72 -8 105.5 -44.5t33.5 -87.5q0 -13 -4.5 -42.5t-4.5 -40.5q0 -26 24 -26q29 0 38 45h35q-12 -55 -47.5 -83t-86.5 -28t-76 24.5
t-25 63.5q0 17 7 60.5t7 55.5q0 35 -18 52.5t-47 17.5h-40l-56 -264h-136l150 700h135l-84 -396h4q28 0 53.5 15.5t43.5 38t38.5 49.5t39.5 49.5t46.5 38t59.5 15.5q31 0 54 -15.5t23 -45.5q0 -26 -15.5 -44.5t-38.5 -18.5t-36.5 12.5t-22 25t-18.5 12.5z" />
    <glyph glyph-name=".notdef" horiz-adv-x="500" 
 />
    <glyph glyph-name=".null" horiz-adv-x="0" 
 />
    <glyph glyph-name="nonmarkingreturn" horiz-adv-x="333" 
 />
    <glyph glyph-name="space" unicode=" " horiz-adv-x="200" 
 />
    <glyph glyph-name="exclam" unicode="!" horiz-adv-x="335" 
d="M327 750q29 0 45.5 -21t10.5 -50q-9 -44 -73 -217t-86 -277h-35q22 105 32 278.5t19 215.5q7 29 32 50t55 21zM192 110q23 0 36 -13t13 -33q0 -29 -22 -51.5t-53 -22.5q-23 0 -36 13t-13 33q0 29 22 51.5t53 22.5z" />
    <glyph glyph-name="quotedbl" unicode="&#x22;" horiz-adv-x="373" 
d="M248 690q27 0 41 -19.5t9 -44.5q-7 -32 -25 -63l-56 -103h-35l-13 103q-4 40 2 63q5 25 28 44.5t49 19.5zM418 690q27 0 41 -19.5t9 -44.5q-7 -32 -25 -63l-56 -103h-35l-13 103q-4 40 2 63q5 25 28 44.5t49 19.5z" />
    <glyph glyph-name="numbersign" unicode="#" horiz-adv-x="510" 
d="M538 364h-93l-49 -115h117l-9 -45h-127l-62 -148h-50l62 148h-100l-62 -148h-50l62 148h-83l9 45h93l49 115h-117l9 45h127l62 147h50l-62 -147h100l62 147h50l-62 -147h83zM346 249l49 115h-100l-49 -115h100z" />
    <glyph glyph-name="dollar" unicode="$" 
d="M619 500h-35q15 72 -16.5 110t-96.5 43l-63 -228q8 -5 36 -22t39 -24t34 -23.5t33.5 -29t23.5 -30t18.5 -37t5.5 -41.5q0 -106 -88.5 -167t-220.5 -61h-1l-22 -80h-36l22 82q-38 3 -71 13t-51.5 18t-24.5 8q-11 0 -14 -15l-3 -16h-35l38 180h35q-15 -72 21.5 -110.5
t114.5 -42.5l73 265q-33 19 -47.5 28t-41.5 29.5t-39.5 37t-23 41.5t-10.5 52q0 96 78 153t194 57l28 100h36l-28 -102q43 -4 81.5 -19.5t42.5 -15.5q11 0 14 15l4 12h35zM307 545q0 -52 71 -100l57 208q-57 -5 -92.5 -33.5t-35.5 -74.5zM457 159q0 59 -91 114l-68 -246
q68 5 113.5 40.5t45.5 91.5z" />
    <glyph glyph-name="percent" unicode="%" horiz-adv-x="894" 
d="M298 326q-70 0 -108 35t-38 97q0 98 63.5 165t160.5 67q71 0 109 -34.5t38 -96.5q0 -99 -63.5 -166t-161.5 -67zM209 0l575 680h45l-575 -680h-45zM305 353q34 0 62 41.5t41.5 96.5t13.5 104q0 69 -52 69q-35 0 -62.5 -41.5t-41 -96t-13.5 -104.5q0 -69 52 -69zM662 -10
q-70 0 -108 35t-38 97q0 98 63 165t160 67q71 0 109.5 -35t38.5 -97q0 -98 -63.5 -165t-161.5 -67zM668 17q35 0 62.5 41.5t41 96.5t13.5 105q0 68 -51 68t-84.5 -81.5t-33.5 -162.5q0 -67 52 -67z" />
    <glyph glyph-name="ampersand" unicode="&#x26;" horiz-adv-x="733" 
d="M577 370h194l-7 -35h-49q-19 0 -24.5 -5t-11.5 -25q-35 -95 -107 -173l37 -69q10 -18 21.5 -23t33.5 -5h38l-8 -35h-210l-23 44q-92 -54 -196 -54q-103 0 -148 40.5t-45 101.5q0 158 225 230l-4 8q-40 75 -40 138q0 87 70 144.5t169 57.5q54 0 87 -24.5t33 -70.5
q0 -72 -50 -122.5t-132 -91.5l127 -241q56 62 86 145q6 18 1.5 24t-25.5 6h-49zM486 675q-48 0 -75.5 -36t-27.5 -93t28 -110l4 -8q63 41 97.5 83.5t34.5 104.5q0 59 -61 59zM340 49q53 0 105 25l-133 258q-47 -35 -70 -74t-23 -98q0 -49 30 -80t91 -31z" />
    <glyph glyph-name="quotesingle" unicode="'" horiz-adv-x="203" 
d="M248 690q27 0 41 -19.5t9 -44.5q-7 -32 -25 -63l-56 -103h-35l-13 103q-4 40 2 63q5 25 28 44.5t49 19.5z" />
    <glyph glyph-name="parenleft" unicode="(" horiz-adv-x="358" 
d="M479 771q-104 -107 -166 -287.5t-62 -343.5q0 -123 49 -211l-23 -19q-64 47 -108.5 133t-44.5 195q0 162 98 315.5t242 236.5z" />
    <glyph glyph-name="parenright" unicode=")" horiz-adv-x="358" 
d="M207 771l22 19q64 -47 108.5 -132.5t44.5 -193.5q0 -163 -97 -317t-243 -237l-15 19q105 109 166 286t61 343q0 125 -47 213z" />
    <glyph glyph-name="asterisk" unicode="*" horiz-adv-x="380" 
d="M341 710q18 0 27.5 -10t5.5 -27q-3 -16 -26 -49t-32 -63q28 17 49.5 41t35.5 37.5t33 13.5q15 0 24.5 -14.5t6.5 -30.5q-5 -23 -25 -31.5t-53 -10.5q-35 -2 -66 -16q25 -13 59 -16q33 -2 49 -10t11 -31q-4 -17 -19 -31t-30 -14t-24 9t-13 21.5t-15 30t-28 30.5
q-4 -30 5.5 -62.5t5.5 -48.5q-8 -38 -49 -38q-17 0 -27 10t-7 28q4 16 27 48t32 63q-29 -16 -50 -40t-35 -37.5t-32 -13.5q-16 0 -25.5 14t-6.5 31q5 23 24.5 31t53.5 10t68 16q-27 14 -61 16q-33 2 -49 10t-11 32q4 16 19 30.5t31 14.5q19 0 27 -13.5t19.5 -37.5t32.5 -41
q4 30 -5.5 63t-5.5 49q4 17 18 27t31 10z" />
    <glyph glyph-name="plus" unicode="+" horiz-adv-x="470" 
d="M490 329l-9 -45h-163l-34 -163h-45l34 163h-162l9 45h162l35 162h45l-35 -162h163z" />
    <glyph glyph-name="comma" unicode="," horiz-adv-x="210" 
d="M129 110q24 0 38 -14.5t14 -40.5q0 -59 -46.5 -112t-104.5 -53l5 26q32 0 55 20.5t23 46.5q0 14 -20 14q-19 0 -30.5 12t-11.5 31q0 29 23 49.5t55 20.5z" />
    <glyph glyph-name="hyphen" unicode="-" horiz-adv-x="390" 
d="M402 290l-10 -45h-290l10 45h290z" />
    <glyph glyph-name="period" unicode="." horiz-adv-x="210" 
d="M129 110q23 0 36 -13t13 -33q0 -29 -22 -51.5t-53 -22.5q-23 0 -36 13t-13 33q0 29 22 51.5t53 22.5z" />
    <glyph glyph-name="slash" unicode="/" horiz-adv-x="555" 
d="M660 680l-575 -680h-45l575 680h45z" />
    <glyph glyph-name="zero" unicode="0" horiz-adv-x="688" 
d="M491 690q109 0 164.5 -61t55.5 -170q0 -123 -44 -229t-129.5 -173t-195.5 -67q-109 0 -165 61t-56 171q0 122 44.5 228t130.5 173t195 67zM483 654q-50 0 -94.5 -50.5t-73 -126t-45 -160.5t-16.5 -158q0 -133 95 -133q50 0 94.5 50.5t73 126t45 160.5t16.5 158
q0 133 -95 133z" />
    <glyph glyph-name="one" unicode="1" horiz-adv-x="415" 
d="M43 0l7 35h65q20 0 26.5 5.5t10.5 24.5l104 490q4 20 -0.5 25t-23.5 5h-65l8 35q80 0 135.5 20.5t79.5 49.5h35l-133 -625q-5 -19 -0.5 -24.5t23.5 -5.5h65l-7 -35h-330z" />
    <glyph glyph-name="two" unicode="2" horiz-adv-x="595" 
d="M417 690q106 0 165.5 -37t59.5 -107q0 -37 -15.5 -74.5t-48 -74.5t-65 -67.5t-85.5 -68t-88.5 -61.5t-93.5 -61q-24 -15 -36 -23h225q49 0 70 9.5t27 39.5l4 15h35l-38 -180h-490l7 35q84 61 141.5 105.5t120.5 101.5t100.5 105t62 103t24.5 108q0 44 -21 70t-62 26
q-84 0 -103 -86q-5 -26 -26 -42.5t-49 -16.5q-48 0 -48 42q0 57 71.5 98t155.5 41z" />
    <glyph glyph-name="three" unicode="3" 
d="M391 357q48 -3 87.5 -16t71 -46t31.5 -82q0 -75 -46 -127t-116 -74t-158 -22q-83 0 -135 32t-52 76q0 30 21 51.5t53 21.5q24 0 37.5 -12t13.5 -32q0 -6 -2.5 -22.5t-2.5 -20.5q0 -58 86 -58q75 0 117.5 59t42.5 146q0 106 -142 106h-46l8 40h46q88 1 147 58t59 139
q0 80 -88 80q-48 0 -74.5 -20t-36.5 -66q-5 -26 -26 -42.5t-49 -16.5q-48 0 -48 42q0 57 72 98t155 41q220 0 220 -120q0 -87 -70.5 -141t-175.5 -72z" />
    <glyph glyph-name="four" unicode="4" horiz-adv-x="585" 
d="M595 690l-104 -488h95l-8 -36h-95l-21 -101q-5 -19 -0.5 -24.5t23.5 -5.5h65l-7 -35h-330l7 35h65q20 0 26.5 5.5t10.5 24.5l21 101h-285l8 36l494 488h35zM111 202h240l63 302z" />
    <glyph glyph-name="five" unicode="5" horiz-adv-x="605" 
d="M496 535q-42 0 -115 11t-106 13l-58 -190q71 41 147 41q101 0 164.5 -39t63.5 -118q0 -123 -96.5 -193t-234.5 -70q-83 0 -135 32t-52 76q0 30 21 51.5t53 21.5q24 0 37.5 -12t13.5 -32q0 -4 -2.5 -20.5t-2.5 -22.5q0 -58 86 -58q77 0 124 78t47 173q0 53 -26 75t-79 22
q-72 0 -141 -47h-36l107 358q65 0 163 -18t126 -18q59 0 70 44h35q-18 -81 -65.5 -119.5t-108.5 -38.5z" />
    <glyph glyph-name="six" unicode="6" horiz-adv-x="650" 
d="M611 509q-24 0 -38 12t-14 33q0 4 3 19.5t3 25.5q0 55 -71 55q-68 0 -122 -77.5t-88 -197.5q75 44 145 44q94 0 152.5 -39t58.5 -116q0 -118 -93 -198t-223 -80q-102 0 -153.5 64t-51.5 165q0 88 31 173.5t83.5 151t127 106t156.5 40.5q69 0 118 -32.5t49 -75.5
q0 -31 -21 -52t-52 -21zM398 383q-57 0 -124 -45q-24 -107 -24 -197q0 -115 82 -115q70 0 118 83t48 173q0 101 -100 101z" />
    <glyph glyph-name="seven" unicode="7" 
d="M710 690q-39 -60 -105 -142t-111.5 -139t-91 -146.5t-66.5 -187.5q-18 -84 -91 -84q-28 0 -45 19.5t-9 56.5q12 57 62 129t104.5 129t126 130t104.5 112q-64 -49 -139 -49q-42 0 -105 27.5t-88 27.5q-60 0 -70 -52l-5 -23h-35l39 182h35l-22 -100q63 110 166 110
q41 0 81 -20t72.5 -40t53.5 -20q29 0 50 16t52 64h37z" />
    <glyph glyph-name="eight" unicode="8" horiz-adv-x="635" 
d="M476 377q66 -40 102 -79t36 -100q0 -98 -86 -153t-215 -55q-118 0 -169.5 42.5t-51.5 103.5q0 37 17.5 68.5t50 56t65 41.5t76.5 34q-53 35 -82.5 73.5t-29.5 92.5q0 87 80 137.5t199 50.5q95 0 141 -39t46 -96q0 -62 -52.5 -107.5t-126.5 -70.5zM463 654
q-60 0 -97.5 -33t-37.5 -86q0 -43 29 -73.5t84 -63.5q62 31 95 67.5t33 89.5q0 47 -30 73t-76 26zM320 26q68 0 111 35.5t43 91.5q0 27 -10 49.5t-34 43.5t-40.5 32.5t-52.5 34.5q-76 -33 -117.5 -73.5t-41.5 -100.5q0 -45 36.5 -79t105.5 -34z" />
    <glyph glyph-name="nine" unicode="9" horiz-adv-x="650" 
d="M471 690q102 0 153.5 -64t51.5 -165q0 -118 -52 -226t-145 -176.5t-201 -68.5q-69 0 -118.5 32.5t-49.5 76.5q0 30 21 51t53 21q24 0 37.5 -12t13.5 -32q0 -3 -2.5 -20t-2.5 -25q0 -56 70 -56q67 0 121.5 78t88.5 197q-70 -43 -144 -43q-95 0 -153 38.5t-58 115.5
q0 118 93 198t223 80zM397 298q61 0 123 43q24 102 24 198q0 115 -81 115q-47 0 -86.5 -41.5t-59.5 -99.5t-20 -115q0 -100 100 -100z" />
    <glyph glyph-name="colon" unicode=":" horiz-adv-x="210" 
d="M183 365q23 0 36 -13t13 -33q0 -29 -22 -51.5t-53 -22.5q-23 0 -36 13t-13 33q0 29 22 51.5t53 22.5zM129 110q23 0 36 -13t13 -33q0 -29 -22 -51.5t-53 -22.5q-23 0 -36 13t-13 33q0 29 22 51.5t53 22.5z" />
    <glyph glyph-name="semicolon" unicode=";" horiz-adv-x="210" 
d="M183 365q23 0 36 -13t13 -33q0 -29 -22 -51.5t-53 -22.5q-23 0 -36 13t-13 33q0 29 22 51.5t53 22.5zM129 110q24 0 38 -14.5t14 -40.5q0 -59 -46.5 -112t-104.5 -53l5 26q32 0 55 20.5t23 46.5q0 14 -20 14q-19 0 -30.5 12t-11.5 31q0 29 23 49.5t55 20.5z" />
    <glyph glyph-name="less" unicode="&#x3c;" horiz-adv-x="470" 
d="M507 409l-9 -45l-278 -58l253 -57l-9 -45l-353 80l9 45z" />
    <glyph glyph-name="equal" unicode="=" horiz-adv-x="470" 
d="M507 409l-9 -45h-370l9 45h370zM473 249l-9 -45h-370l9 45h370z" />
    <glyph glyph-name="greater" unicode="&#x3e;" horiz-adv-x="470" 
d="M137 409l353 -80l-9 -45l-387 -80l9 45l278 57l-253 58z" />
    <glyph glyph-name="question" unicode="?" horiz-adv-x="546" 
d="M393 750q102 0 158 -39t56 -109q0 -22 -4 -43q-12 -55 -46.5 -98t-77.5 -71.5t-86 -55.5t-76.5 -64.5t-43.5 -84.5h-35q8 38 30 73t49.5 64.5t55 61.5t51.5 77.5t35 98.5q7 28 7 63q0 91 -80 91q-89 0 -106 -86q-6 -26 -26.5 -42.5t-48.5 -16.5q-48 0 -48 42q0 57 78 98
t158 41zM241 110q23 0 36 -13t13 -33q0 -29 -22 -51.5t-53 -22.5q-23 0 -36 13t-13 33q0 29 22 51.5t53 22.5z" />
    <glyph glyph-name="at" unicode="@" horiz-adv-x="870" 
d="M593 652q136 0 220 -66.5t84 -184.5q0 -135 -86 -243t-209 -108q-46 0 -72.5 20.5t-26.5 53.5q0 15 7 36q-74 -90 -156 -90q-51 0 -75.5 24.5t-24.5 63.5q0 65 54.5 136.5t137 119t156.5 47.5q56 0 56 -46q0 -8 -3 -17l39 55h109l-200 -293q-15 -22 -15 -39q0 -34 47 -34
q62 0 116 50.5t82.5 120.5t28.5 136q0 103 -71.5 163t-190.5 60q-118 0 -219 -64.5t-159 -169.5t-58 -223q0 -113 64 -179t173 -66l-8 -35q-137 0 -217.5 79t-80.5 207q0 129 68 241t183 178.5t247 66.5zM594 426q-43 0 -102.5 -52t-101.5 -119t-42 -110q0 -36 32 -36
q42 0 88.5 44.5t126.5 158.5q33 47 33 82q0 32 -34 32z" />
    <glyph glyph-name="A" unicode="A" horiz-adv-x="728" 
d="M700 35h25l-7 -35h-278l8 35h55q27 0 21 30l-30 138h-267l-85 -137q-19 -31 9 -31h53l-8 -35h-186l8 35h33q20 0 27.5 5t19.5 24l386 621h36l144 -620q5 -19 11 -24.5t25 -5.5zM251 243h235l-60 283z" />
    <glyph glyph-name="B" unicode="B" horiz-adv-x="670" 
d="M544 353q110 -31 110 -126q0 -103 -82 -165t-205 -62h-324l7 35h25q20 0 26.5 5.5t10.5 24.5l117 550q4 20 -0.5 25t-23.5 5h-25l8 35h305q203 0 203 -134q0 -69 -41.5 -119t-110.5 -74zM375 645l-59 -277h90q75 0 112 57t37 141q0 46 -25 62.5t-75 16.5h-80zM337 35
q85 0 130 57t45 147q0 51 -28.5 72.5t-84.5 21.5h-90l-64 -298h92z" />
    <glyph glyph-name="C" unicode="C" horiz-adv-x="705" 
d="M569 654q-69 0 -128 -38.5t-97 -101t-59 -138.5t-21 -153q0 -95 44.5 -146t126.5 -51q78 0 136 37t75 117h35l-38 -180h-35l3 15q3 15 -8 15q-6 0 -32.5 -10t-71 -20t-93.5 -10q-132 0 -206.5 71t-74.5 191q0 181 125 309.5t305 128.5q49 0 89 -10t62.5 -20t28.5 -10
q11 0 14 15l4 15h35l-39 -180h-35q33 154 -145 154z" />
    <glyph glyph-name="D" unicode="D" horiz-adv-x="773" 
d="M494 680q134 0 216 -67t82 -189q0 -180 -128 -302t-315 -122h-306l7 35h25q20 0 26.5 5.5t10.5 24.5l117 550q4 20 -0.5 25t-23.5 5h-25l8 35h306zM486 645h-81q-20 0 -26 -5.5t-10 -24.5l-117 -550q-5 -19 -0.5 -24.5t23.5 -5.5h82q94 0 163.5 64t102 159.5t32.5 204.5
q0 182 -169 182z" />
    <glyph glyph-name="E" unicode="E" horiz-adv-x="643" 
d="M188 680h537l-39 -179h-35l4 15q4 22 5.5 37.5t-2 34t-13.5 30t-32 19.5t-55 8h-153q-20 0 -26 -5.5t-10 -24.5l-53 -247h114q93 0 114 95l4 22h35l-57 -270h-35l5 23q20 95 -74 95h-114l-56 -268q-5 -19 -0.5 -24.5t23.5 -5.5h175q36 0 62.5 12t41.5 33.5t22.5 40
t13.5 43.5l3 15h35l-38 -179h-547l7 35h25q20 0 26.5 5.5t10.5 24.5l117 550q4 20 -0.5 25t-23.5 5h-25z" />
    <glyph glyph-name="F" unicode="F" horiz-adv-x="613" 
d="M188 680h537l-39 -179h-35l4 15q5 32 6 61t-24.5 48.5t-78.5 19.5h-153q-20 0 -26 -5.5t-10 -24.5l-57 -267h113q93 0 115 95l4 23h35l-58 -270h-35l6 22q8 43 -6.5 69t-67.5 26h-114l-52 -248q-5 -19 -0.5 -24.5t23.5 -5.5h55l-7 -35h-280l7 35h25q20 0 26.5 5.5
t10.5 24.5l117 550q4 20 -0.5 25t-23.5 5h-25z" />
    <glyph glyph-name="G" unicode="G" horiz-adv-x="783" 
d="M556 310h250l-8 -35h-25q-19 0 -25 -5t-11 -25l-6 -30q-22 -101 -116 -163t-221 -62q-124 0 -196.5 71.5t-72.5 190.5q0 180 125 309t305 129q56 0 97.5 -10t62.5 -20t27 -10q11 0 14 15l4 15h35l-39 -180h-35q7 46 0.5 75.5t-31.5 47t-54 24.5t-67 7q-94 0 -166.5 -70
t-107 -171.5t-34.5 -211.5q0 -85 38 -130t110 -45q78 0 118.5 40t59.5 130l10 49q4 19 0 24.5t-24 5.5h-25z" />
    <glyph glyph-name="H" unicode="H" horiz-adv-x="773" 
d="M625 680h250l-8 -35h-25q-20 0 -26 -5.5t-10 -24.5l-117 -550q-4 -19 0 -24.5t24 -5.5h25l-8 -35h-250l8 35h25q19 0 25 5t11 25l56 263h-298l-55 -263q-5 -19 -0.5 -24.5t23.5 -5.5h25l-7 -35h-250l7 35h25q20 0 26.5 5.5t10.5 24.5l117 550q4 20 -0.5 25t-23.5 5h-25
l8 35h250l-8 -35h-25q-20 0 -26 -5.5t-10 -24.5l-53 -247h297l53 247q4 20 -0.5 25t-23.5 5h-25z" />
    <glyph glyph-name="I" unicode="I" horiz-adv-x="335" 
d="M438 680l-8 -35h-25q-20 0 -26 -5.5t-10 -24.5l-117 -550q-5 -19 -0.5 -24.5t23.5 -5.5h25l-7 -35h-250l7 35h25q20 0 26.5 5.5t10.5 24.5l117 550q4 20 -0.5 25t-23.5 5h-25l8 35h250z" />
    <glyph glyph-name="J" unicode="J" horiz-adv-x="463" 
d="M574 680l-8 -35h-25q-20 0 -26 -5.5t-10 -24.5l-84 -391q-23 -113 -96 -173.5t-171 -60.5q-59 0 -91 27t-32 63q0 29 19.5 51t49.5 22q21 0 33.5 -12t12.5 -31q0 -21 -15 -38.5t-15 -25.5q0 -21 45 -21q43 0 67.5 33.5t40.5 104.5l96 452q4 20 -0.5 25t-23.5 5h-25l8 35
h250z" />
    <glyph glyph-name="K" unicode="K" horiz-adv-x="733" 
d="M438 680l-8 -35h-25q-20 0 -26 -5.5t-10 -24.5l-117 -550q-5 -19 -0.5 -24.5t23.5 -5.5h25l-7 -35h-250l7 35h25q20 0 26.5 5.5t10.5 24.5l117 550q4 20 -0.5 25t-23.5 5h-25l8 35h250zM850 680l-8 -35h-43q-34 0 -69 -29l-289 -240l212 -311q8 -12 13 -17.5t13 -9
t20 -3.5h36l-7 -35h-313l8 35h38q16 0 23 8.5t-2 21.5l-172 250l365 301q13 12 9.5 20.5t-18.5 8.5h-61l8 35h237z" />
    <glyph glyph-name="L" unicode="L" horiz-adv-x="593" 
d="M438 680l-8 -35h-25q-20 0 -26 -5.5t-10 -24.5l-117 -550q-5 -19 -0.5 -24.5t23.5 -5.5h134q40 0 69 12t45 33.5t23.5 40t13.5 43.5l3 15h35l-38 -179h-517l7 35h25q20 0 26.5 5.5t10.5 24.5l117 550q4 20 -0.5 25t-23.5 5h-25l8 35h250z" />
    <glyph glyph-name="M" unicode="M" horiz-adv-x="910" 
d="M1013 680l-8 -35h-25q-20 0 -26 -5.5t-10 -24.5l-117 -550q-5 -19 -0.5 -24.5t23.5 -5.5h25l-7 -35h-250l7 35h25q20 0 26.5 5.5t10.5 24.5l108 508l-359 -573h-42l-127 583l-110 -518q-5 -19 -0.5 -24.5t23.5 -5.5h34l-7 -35h-164l7 35h30q20 0 26.5 5.5t10.5 24.5
l117 550q4 20 -0.5 25t-23.5 5h-30l8 35h197l114 -514l320 514h194z" />
    <glyph glyph-name="N" unicode="N" horiz-adv-x="760" 
d="M871 680l-8 -35h-31q-20 0 -26 -5.5t-10 -24.5l-131 -615h-44l-356 574l-108 -509q-5 -19 -0.5 -24.5t23.5 -5.5h37l-8 -35h-166l7 35h30q20 0 26.5 5.5t10.5 24.5l117 550q4 20 -0.5 25t-23.5 5h-30l8 35h169l307 -493l92 428q4 19 0 24.5t-24 5.5h-35l8 35h166z" />
    <glyph glyph-name="O" unicode="O" horiz-adv-x="788" 
d="M541 690q125 0 195.5 -70t70.5 -188q0 -117 -53.5 -218.5t-149.5 -162.5t-212 -61q-126 0 -196.5 69.5t-70.5 188.5q0 180 120.5 311t295.5 131zM533 654q-65 0 -118.5 -42.5t-87 -111.5t-51.5 -151t-18 -165q0 -158 141 -158q65 0 118.5 42.5t87 111.5t51.5 151t18 165
q0 158 -141 158z" />
    <glyph glyph-name="P" unicode="P" horiz-adv-x="643" 
d="M493 680q113 0 163.5 -43t50.5 -110q0 -112 -85 -181t-215 -69h-111l-44 -212q-5 -19 -0.5 -24.5t23.5 -5.5h55l-7 -35h-280l7 35h25q20 0 26.5 5.5t10.5 24.5l117 550q4 20 -0.5 25t-23.5 5h-25l8 35h305zM455 645h-80l-71 -333h81q89 0 135.5 67.5t46.5 169.5
q0 52 -27.5 74t-84.5 22z" />
    <glyph glyph-name="Q" unicode="Q" horiz-adv-x="788" 
d="M488 2q53 -12 92.5 -32t59.5 -39.5t35.5 -37t31 -28.5t35.5 -11q7 0 21 4l-8 -36q-56 -32 -115 -32q-49 0 -84 20.5t-53.5 50t-33.5 59t-33.5 50t-43.5 20.5q-126 0 -196.5 69.5t-70.5 188.5q0 180 120.5 311t295.5 131q125 0 195.5 -70t70.5 -188q0 -153 -89.5 -274.5
t-229.5 -155.5zM258 184q0 -158 141 -158q85 0 150 77t95 182t30 211q0 158 -141 158q-85 0 -150 -77t-95 -182t-30 -211z" />
    <glyph glyph-name="R" unicode="R" horiz-adv-x="733" 
d="M711 35h24l-7 -35h-106q-78 0 -112 31.5t-35 114.5q0 74 -11 106.5t-30 40t-67 7.5h-66l-49 -235q-5 -19 -0.5 -24.5t23.5 -5.5h25l-7 -35h-250l7 35h25q20 0 26.5 5.5t10.5 24.5l117 550q4 20 -0.5 25t-23.5 5h-25l8 35h308q209 0 216 -136q4 -82 -48 -142.5t-140 -84.5
q101 -38 104 -153q3 -79 17.5 -104t65.5 -25zM308 335h83q90 0 135 59t45 157q2 53 -25.5 73.5t-87.5 20.5h-83z" />
    <glyph glyph-name="S" unicode="S" 
d="M445 690q44 0 79 -9t54.5 -18.5t26.5 -9.5q11 0 14 15l4 12h35l-39 -180h-35q16 77 -20.5 115.5t-110.5 38.5q-62 0 -102 -29.5t-40 -79.5q0 -37 28 -69t68 -56t80 -50.5t68 -65.5t28 -87q0 -107 -81.5 -167t-212.5 -60q-50 0 -91 10t-64 20.5t-29 10.5q-11 0 -14 -15
l-3 -16h-35l38 180h35q-16 -76 26 -115t128 -39q75 0 127 36.5t52 96.5q0 38 -28 70.5t-67.5 57t-79.5 50.5t-68 63t-28 83q0 97 71 152t186 55z" />
    <glyph glyph-name="T" unicode="T" horiz-adv-x="628" 
d="M740 680l-39 -179h-35l4 15q5 28 5.5 47t-6 39.5t-28.5 31.5t-60 11h-30q-20 0 -26 -5.5t-10 -24.5l-117 -550q-4 -19 0 -24.5t24 -5.5h25l-8 -35h-250l8 35h25q19 0 25 5t11 25l117 550q4 20 -0.5 25t-23.5 5h-30q-71 0 -101.5 -35.5t-41.5 -93.5l-4 -15h-35l39 179h562
z" />
    <glyph glyph-name="U" unicode="U" horiz-adv-x="755" 
d="M866 680l-8 -35h-36q-20 0 -26 -5.5t-10 -24.5l-79 -371q-26 -125 -111.5 -189.5t-202.5 -64.5q-125 0 -191 48.5t-67 143.5q0 38 8 73l77 360q4 20 -0.5 25t-23.5 5h-25l8 35h250l-8 -35h-25q-20 0 -26 -5.5t-10 -24.5l-78 -364q-10 -47 -11 -78q-2 -75 36 -109t120 -34
q85 0 151.5 55t88.5 159l79 371q4 20 -0.5 25t-23.5 5h-36l8 35h172z" />
    <glyph glyph-name="V" unicode="V" horiz-adv-x="728" 
d="M353 -5l-144 620q-4 19 -10.5 24.5t-25.5 5.5h-26l8 35h281l-8 -35h-54q-28 0 -21 -30l100 -450l276 449q20 31 -8 31h-53l8 35h187l-8 -35h-34q-20 0 -27.5 -5t-19.5 -24l-385 -621h-36z" />
    <glyph glyph-name="W" unicode="W" horiz-adv-x="1058" 
d="M1006 680h187l-8 -35h-34q-20 0 -28 -5t-19 -24l-363 -621h-36l-70 435l-272 -435h-37l-117 620q-4 19 -10.5 24.5t-25.5 5.5h-26l8 35h281l-8 -35h-54q-27 0 -21 -30l82 -445l191 313l-22 132q-4 19 -10.5 24.5t-25.5 5.5h-26l8 35h281l-8 -35h-54q-27 0 -21 -30
l65 -430l246 429q19 31 -8 31h-53z" />
    <glyph glyph-name="X" unicode="X" horiz-adv-x="658" 
d="M565 680h203l-8 -35h-36q-20 0 -30 -5.5t-27 -24.5l-205 -228l130 -322q7 -20 12.5 -25t22.5 -5h28l-7 -35h-275l7 35h38q31 0 22 30l-87 220l-200 -220q-13 -15 -9.5 -22.5t18.5 -7.5h51l-8 -35h-195l8 35h30q19 0 29.5 6t28.5 24l232 256l-116 294q-7 20 -12.5 25
t-22.5 5h-29l8 35h272l-8 -35h-38q-32 0 -21 -30l77 -193l172 193q12 15 9 22.5t-18 7.5h-54z" />
    <glyph glyph-name="Y" unicode="Y" horiz-adv-x="688" 
d="M823 680l-8 -35h-31q-21 0 -31 -6.5t-21 -22.5l-259 -352l-41 -199q-5 -19 -0.5 -24.5t23.5 -5.5h25l-7 -35h-250l7 35h25q20 0 26.5 5.5t10.5 24.5l35 168l-115 382q-6 18 -12.5 24t-25.5 6h-27l8 35h289l-8 -35h-55q-29 0 -21 -30l91 -322l236 321q23 31 -8 31h-48
l8 35h184z" />
    <glyph glyph-name="Z" unicode="Z" horiz-adv-x="663" 
d="M735 680l-8 -35l-493 -606h226q40 0 69 11.5t44.5 32t23 38.5t13.5 43l3 15h35l-38 -179h-557l7 35l493 606h-185q-41 0 -69.5 -10.5t-44 -30t-23.5 -38.5t-13 -46l-4 -15h-35l39 179h517z" />
    <glyph glyph-name="bracketleft" unicode="[" horiz-adv-x="350" 
d="M476 790l-10 -42h-70l-169 -796h70l-8 -42h-210l187 880h210z" />
    <glyph glyph-name="backslash" unicode="\" horiz-adv-x="555" 
d="M185 680h38l292 -680h-36z" />
    <glyph glyph-name="bracketright" unicode="]" horiz-adv-x="350" 
d="M421 790l-187 -880h-210l8 42h70l169 796h-70l10 42h210z" />
    <glyph glyph-name="asciicircum" unicode="^" horiz-adv-x="413" 
d="M391 161q-74 30 -135 74q-72 -42 -166 -74l-10 21q39 19 92 65t92 96h31q19 -53 51.5 -97.5t63.5 -63.5z" />
    <glyph glyph-name="underscore" unicode="_" horiz-adv-x="450" 
d="M394 -30l-10 -45h-350l10 45h350z" />
    <glyph glyph-name="grave" unicode="`" horiz-adv-x="298" 
d="M252 730q49 0 54 -59q7 -73 69 -96l-14 -25q-172 48 -172 116q0 27 18 45.5t45 18.5z" />
    <glyph glyph-name="a" unicode="a" horiz-adv-x="630" 
d="M576 56q30 0 39 45h35q-11 -55 -50.5 -83t-91.5 -28q-100 0 -90 95l4 23q-29 -58 -77 -88t-106 -30q-66 0 -106 42t-40 127q0 86 29.5 165t89.5 132.5t137 53.5q52 0 90 -28t44 -89l82 107h76l-85 -400q-9 -44 20 -44zM295 48q48 0 87.5 48t59 112t19.5 125
q0 57 -21 88.5t-59 31.5q-36 0 -66.5 -31t-49 -79t-29 -100.5t-10.5 -99.5q0 -95 69 -95z" />
    <glyph glyph-name="b" unicode="b" horiz-adv-x="610" 
d="M477 510q66 0 106.5 -42t40.5 -126q0 -86 -29.5 -165t-90 -133t-137.5 -54q-53 0 -90 28t-43 89l-82 -107h-77l135 634q5 20 0.5 25.5t-23.5 5.5h-28l7 35h195l-66 -306q31 61 80.5 88.5t101.5 27.5zM422 453q-47 0 -87 -48.5t-60 -112.5t-20 -122q0 -56 21.5 -89
t59.5 -33q36 0 66.5 31t49 79t29 101t10.5 100q0 94 -69 94z" />
    <glyph glyph-name="c" unicode="c" horiz-adv-x="553" 
d="M425 510q77 0 122 -31t45 -75q0 -32 -20.5 -53.5t-52.5 -21.5q-24 0 -38 12t-14 32q0 6 3 22t3 26q0 54 -62 54q-52 0 -95 -50.5t-64.5 -120t-21.5 -136.5q0 -130 118 -130q87 0 165 79l19 -22q-93 -105 -225 -105q-106 0 -159 49.5t-53 137.5q0 143 93.5 238t236.5 95z
" />
    <glyph glyph-name="d" unicode="d" horiz-adv-x="630" 
d="M576 56q30 0 39 45h35q-11 -55 -50.5 -83t-91.5 -28q-100 0 -90 95l4 23q-29 -58 -77 -88t-106 -30q-66 0 -106 42t-40 127q0 86 29.5 165t89.5 132.5t137 53.5q52 0 90 -28t44 -89l51 241q5 20 0.5 25.5t-23.5 5.5h-28l7 35h194l-128 -600q-9 -44 20 -44zM295 48
q53 0 94 53t61 141q21 100 1.5 155.5t-70.5 55.5q-36 0 -66.5 -31t-49 -79t-29 -100.5t-10.5 -99.5q0 -95 69 -95z" />
    <glyph glyph-name="e" unicode="e" horiz-adv-x="550" 
d="M323 210q-43 0 -90 10q-3 -27 -3 -52q0 -130 118 -130q87 0 165 79l19 -22q-93 -105 -225 -105q-106 0 -159 49.5t-53 137.5q0 138 87.5 235.5t219.5 97.5q92 0 133 -38t41 -100q0 -73 -72.5 -117.5t-180.5 -44.5zM395 475q-37 0 -70 -33t-53.5 -81t-32.5 -104
q31 -6 58 -6q78 0 117 41.5t39 107.5q0 75 -58 75z" />
    <glyph glyph-name="f" unicode="f" horiz-adv-x="366" 
d="M409 710q51 0 79 -20t28 -51q0 -28 -20.5 -49t-48.5 -21q-45 0 -45 37q0 11 6.5 30t6.5 25q0 14 -20 14q-41 0 -59 -92l-18 -83h93l-7 -35h-94l-107 -506q-17 -76 -72.5 -122.5t-145.5 -46.5q-50 0 -75.5 19t-25.5 51q0 30 18 50.5t47 20.5q42 0 42 -38q0 -12 -7.5 -31.5
t-7.5 -24.5q0 -16 21 -16q41 0 60 92l117 552h-55l7 35h55l9 41q16 77 72.5 123t146.5 46z" />
    <glyph glyph-name="g" unicode="g" horiz-adv-x="539" 
d="M572 556q30 0 47 -13t17 -33q0 -23 -15 -38t-36 -15q-24 0 -36 23.5t-31 23.5t-43 -16q66 -33 66 -103q0 -88 -70 -142.5t-172 -54.5q-55 0 -94 15q-33 -22 -33 -49q0 -23 26.5 -35t65.5 -15t85.5 -10t85.5 -17.5t65.5 -39.5t26.5 -74q0 -57 -46 -97.5t-114.5 -58
t-151.5 -17.5q-110 0 -163 30.5t-53 75.5q0 43 37.5 73.5t88.5 48.5q-45 27 -45 76q0 36 29 68.5t67 54.5q-51 34 -51 96q0 88 70 142.5t171 54.5q43 0 76 -9q70 55 130 55zM307 223q51 0 82 58t31 127q0 67 -60 67q-51 0 -82 -57t-31 -126t60 -69zM409 -84q0 33 -41.5 46.5
t-113 22t-105.5 21.5q-35 -15 -56.5 -42.5t-21.5 -59.5q0 -83 136 -83q93 0 147.5 24.5t54.5 70.5z" />
    <glyph glyph-name="h" unicode="h" horiz-adv-x="633" 
d="M620 101h35q-11 -55 -50.5 -83t-91.5 -28q-111 0 -87 118l52 239q23 106 -55 106q-54 0 -100.5 -75.5t-75.5 -210.5l-35 -167h-137l135 634q5 20 0.5 25.5t-23.5 5.5h-28l7 35h195l-71 -322q61 132 191 132q78 0 113.5 -43t17.5 -128l-51 -239q-9 -44 20 -44q30 0 39 45z
" />
    <glyph glyph-name="i" unicode="i" horiz-adv-x="306" 
d="M301 714q27 0 44 -17t17 -43q0 -35 -28.5 -62t-63.5 -27q-27 0 -43.5 16.5t-16.5 41.5q0 36 28 63.5t63 27.5zM291 101h35q-11 -55 -50.5 -83t-91.5 -28q-112 0 -86 118l69 326q5 20 0.5 25.5t-23.5 5.5h-28l7 35h194l-85 -400q-9 -44 20 -44q30 0 39 45z" />
    <glyph glyph-name="j" unicode="j" horiz-adv-x="288" 
d="M293 714q27 0 44 -17t17 -43q0 -35 -28.5 -62t-63.5 -27q-27 0 -43.5 16.5t-16.5 41.5q0 36 28 63.5t63 27.5zM317 500l-114 -541q-17 -76 -72.5 -122.5t-145.5 -46.5q-50 0 -75.5 19t-25.5 51q0 30 18 50.5t47 20.5q42 0 42 -38q0 -12 -7.5 -31.5t-7.5 -24.5
q0 -16 21 -16q41 0 60 92l110 521q5 20 0.5 25.5t-23.5 5.5h-28l7 35h194z" />
    <glyph glyph-name="k" unicode="k" horiz-adv-x="601" 
d="M508 436q-21 0 -41 -23t-47 -59.5t-54 -56.5q73 -8 106.5 -44.5t33.5 -87.5q0 -13 -4.5 -42.5t-4.5 -40.5q0 -26 24 -26q27 0 38 45h35q-12 -55 -48 -83t-87 -28q-50 0 -75.5 24.5t-25.5 63.5q0 17 7.5 60.5t7.5 55.5q0 35 -18 52.5t-48 17.5h-39l-56 -264h-137l135 634
q5 20 0.5 25.5t-23.5 5.5h-28l7 35h195l-85 -396h5q28 0 53 15.5t43 38t38.5 49.5t39.5 49.5t46.5 38t59.5 15.5q31 0 54 -15.5t23 -45.5q0 -26 -15 -44.5t-39 -18.5q-23 0 -36.5 12.5t-21.5 25t-18 12.5z" />
    <glyph glyph-name="l" unicode="l" horiz-adv-x="306" 
d="M291 101h35q-11 -55 -50.5 -83t-91.5 -28q-112 0 -86 118l112 526q5 20 0.5 25.5t-23.5 5.5h-28l7 35h194l-128 -600q-9 -44 20 -44q30 0 39 45z" />
    <glyph glyph-name="m" unicode="m" horiz-adv-x="961" 
d="M949 101h35q-11 -55 -50.5 -83t-91.5 -28q-111 0 -87 118l52 239q21 106 -56 106q-53 0 -99.5 -74.5t-74.5 -206.5l-37 -172h-136l74 347q23 106 -55 106q-54 0 -100.5 -75.5t-75.5 -210.5l-35 -167h-137l92 434q5 20 0.5 25.5t-23.5 5.5h-28l7 35h179l-12 -122
q61 132 191 132q66 0 102 -32.5t34 -95.5q70 128 192 128q78 0 114 -43t18 -128l-51 -239q-9 -44 19 -44q29 0 40 45z" />
    <glyph glyph-name="n" unicode="n" horiz-adv-x="633" 
d="M620 101h35q-11 -55 -50.5 -83t-91.5 -28q-111 0 -87 118l52 239q23 106 -55 106q-54 0 -100.5 -75.5t-75.5 -210.5l-35 -167h-137l92 434q5 20 0.5 25.5t-23.5 5.5h-28l7 35h179l-12 -122q61 132 191 132q78 0 113.5 -43t17.5 -128l-51 -239q-9 -44 20 -44q30 0 39 45z
" />
    <glyph glyph-name="o" unicode="o" 
d="M409 510q99 0 152 -50.5t53 -137.5q0 -140 -89 -236t-226 -96q-99 0 -151.5 50.5t-52.5 138.5q0 139 89 235t225 96zM402 475q-53 0 -95.5 -57.5t-62.5 -134.5t-20 -151q0 -107 82 -107q54 0 96.5 57.5t62.5 134.5t20 151q0 107 -83 107z" />
    <glyph glyph-name="p" unicode="p" horiz-adv-x="610" 
d="M477 510q66 0 106.5 -42t40.5 -126q0 -86 -29.5 -165t-90 -133t-137.5 -54q-53 0 -90 28t-43 89l-52 -242q-4 -20 0.5 -25t23.5 -5h25l-8 -35h-246l8 35h25q19 0 25 5t11 25l121 569q5 20 0.5 25.5t-23.5 5.5h-28l7 35h179l-8 -108q61 118 183 118zM491 359q0 94 -69 94
q-47 0 -87 -48.5t-60 -112.5t-20 -122q0 -56 21.5 -89t59.5 -33q36 0 66.5 31t49 79t29 101t10.5 100z" />
    <glyph glyph-name="q" unicode="q" horiz-adv-x="611" 
d="M506 -135q-4 -20 0.5 -25t23.5 -5h25l-8 -35h-246l8 35h25q19 0 26 5t11 25l51 243q-29 -57 -77 -87.5t-106 -30.5q-66 0 -106 42t-40 127q0 86 29.5 165t89.5 132.5t137 53.5q52 0 90 -28t44 -89l82 107h76zM461 333q0 58 -21 89t-59 31q-36 0 -66.5 -31t-49 -79
t-29 -100.5t-10.5 -99.5q0 -95 69 -95q47 0 86.5 47t59.5 111.5t20 126.5z" />
    <glyph glyph-name="r" unicode="r" horiz-adv-x="470" 
d="M463 510q27 0 47.5 -16t20.5 -45q0 -34 -24 -59t-54 -25q-50 0 -50 46q0 16 -2 22t-12 6q-27 0 -67.5 -66t-61.5 -159l-48 -214h-137l93 434q5 20 0.5 25.5t-23.5 5.5h-29l7 35h179l-11 -122q32 68 80 100t92 32z" />
    <glyph glyph-name="s" unicode="s" horiz-adv-x="483" 
d="M338 510q77 0 124 -28.5t47 -69.5q0 -31 -18.5 -50.5t-48.5 -19.5q-21 0 -34 11.5t-13 29.5q0 5 2.5 19.5t2.5 24.5q0 22 -18 35t-46 13q-35 0 -58.5 -21.5t-23.5 -56.5q0 -31 23 -54t55.5 -39t65 -33.5t55.5 -47t23 -70.5q0 -79 -68.5 -121t-177.5 -42q-85 0 -130 28.5
t-45 69.5q0 31 18.5 50.5t48.5 19.5q21 0 34 -11.5t13 -29.5q0 -5 -2.5 -19.5t-2.5 -23.5q0 -49 81 -49q51 0 78 22t27 63q0 25 -23.5 46.5t-56.5 38.5t-66 36.5t-56.5 50.5t-23.5 70q0 74 60.5 116t153.5 42z" />
    <glyph glyph-name="t" unicode="t" horiz-adv-x="333" 
d="M310 465l-75 -354q-4 -19 -4 -30q0 -32 30 -32q19 0 32 15.5t17 36.5h35q-11 -54 -51.5 -82.5t-96.5 -28.5q-52 0 -78 22.5t-26 60.5q0 15 3 28l78 364h-55l7 35h55l122 130h42l-28 -130h113l-7 -35h-113z" />
    <glyph glyph-name="u" unicode="u" horiz-adv-x="633" 
d="M317 500l-73 -347q-22 -105 56 -105q53 0 99.5 75.5t75.5 210.5l36 166h136l-87 -400q-9 -44 20 -44q30 0 39 45h35q-11 -55 -50.5 -83t-91.5 -28q-57 0 -77.5 29.5t-8.5 76.5l6 27q-61 -133 -190 -133q-78 0 -113.5 43t-18.5 128l57 273q4 20 -0.5 25.5t-23.5 5.5h-28
l7 35h195z" />
    <glyph glyph-name="v" unicode="v" horiz-adv-x="571" 
d="M503 510q35 0 55 -27t20 -71q0 -50 -21 -96t-55.5 -84.5t-71 -74t-76.5 -80.5t-63 -87h-48q12 27 12 57q0 33 -18 71t-39 67.5t-39 69.5t-18 75q0 83 116 180l25 -19q-33 -42 -33 -83q0 -31 23 -68t46 -79.5t23 -88.5q0 -36 -21 -88q20 29 57 68t65.5 67t50.5 65t22 70
q0 28 -31 56t-31 51q0 22 16 35.5t34 13.5z" />
    <glyph glyph-name="w" unicode="w" horiz-adv-x="824" 
d="M755 510q35 0 55 -27t20 -71q0 -50 -21 -96t-55.5 -84.5t-71 -74t-76.5 -80.5t-63 -87h-47q11 25 11 57q0 17 -2.5 33t-9 34.5t-11 30t-14.5 33.5t-14 31q-9 -13 -73 -90.5t-92 -128.5h-48q12 27 12 57q0 33 -18 71t-39 67.5t-39 69.5t-18 75q0 83 116 180l25 -19
q-33 -40 -33 -83q0 -31 23 -68t46 -79.5t23 -88.5q0 -31 -21 -88q12 17 57 76.5t62 91.5q-13 41 -13 78q0 91 123 180l25 -19q-33 -42 -33 -83q0 -34 28 -102.5t28 -126.5q0 -45 -24 -95q20 29 57 68t65.5 67t50.5 65t22 70q0 28 -31 56t-31 51q0 22 15.5 35.5t33.5 13.5z
" />
    <glyph glyph-name="x" unicode="x" horiz-adv-x="571" 
d="M569 510q29 0 50 -14t21 -42q0 -26 -18 -47t-43 -21q-18 0 -28.5 8t-13.5 17t-8.5 17t-13.5 8q-49 0 -108 -172q9 -101 24 -154.5t47 -53.5q28 0 42 45h35q-17 -55 -55.5 -83t-89.5 -28q-57 0 -84 43.5t-38 119.5q-35 -81 -81 -122t-95 -41q-29 0 -50 14t-21 42
q0 26 17.5 47.5t42.5 21.5q18 0 30 -8t16.5 -17.5t11 -17.5t14.5 -8q43 0 105 172q-12 129 -22 160q-15 48 -46 48q-28 0 -42 -44h-35q17 55 55.5 82.5t89.5 27.5q61 0 86.5 -43.5t34.5 -123.5q65 167 170 167z" />
    <glyph glyph-name="y" unicode="y" horiz-adv-x="571" 
d="M503 510q35 0 55 -27t20 -71q0 -63 -49 -169t-119.5 -206t-159 -173.5t-158.5 -73.5q-39 0 -59.5 18.5t-20.5 47.5q0 28 18.5 46.5t46.5 18.5q21 0 33 -11t12 -29q0 -13 -7.5 -26.5t-7.5 -18.5q0 -11 17 -11q39 0 102.5 62t63.5 111q0 40 -23.5 84.5t-51 78t-51 80
t-23.5 89.5q0 83 116 180l25 -19q-33 -42 -33 -83q0 -27 18 -59t40 -59.5t40 -73t18 -95.5q0 -52 -18 -109q62 82 115 182t53 160q0 28 -31 56t-31 51q0 22 16 35.5t34 13.5z" />
    <glyph glyph-name="z" unicode="z" horiz-adv-x="486" 
d="M428 53q32 0 44 48h34q-24 -171 -143 -171q-31 0 -62 17.5t-52 39t-48.5 39t-52.5 17.5q-42 0 -86 -54l-26 18q28 51 65 97t81 86.5t80.5 69.5t89 68.5t80.5 62.5q-66 -32 -140 -32q-50 0 -126 19l-13 -55h-35l42 187q208 -41 277 -41q47 0 68 12t37 40l28 -17
q-25 -50 -83.5 -108.5t-119 -104t-130.5 -104.5t-108 -104q39 20 82 20q42 0 113 -25t104 -25z" />
    <glyph glyph-name="braceleft" unicode="{" horiz-adv-x="445" 
d="M282 655q17 78 90 106.5t199 28.5l-8 -35q-70 0 -99 -18t-43 -87q-5 -21 -13 -84t-12 -81q-25 -120 -219 -135q165 -13 165 -109q0 -24 -27.5 -116.5t-27.5 -121.5q0 -37 23 -47.5t81 -10.5l-7 -35q-73 0 -121.5 7.5t-81 31.5t-32.5 65q0 19 29.5 127t29.5 141
q0 30 -16.5 40.5t-58.5 10.5l4 17l4 18q54 0 76 19.5t36 84.5q5 23 15 93.5t14 89.5z" />
    <glyph glyph-name="bar" unicode="|" horiz-adv-x="196" 
d="M284 790l-187 -880h-36l187 880h36z" />
    <glyph glyph-name="braceright" unicode="}" horiz-adv-x="445" 
d="M386 418q0 -30 16.5 -40t58.5 -10l-3 -18l-5 -17q-54 0 -76 -19.5t-36 -84.5q-5 -23 -14.5 -94t-13.5 -90q-9 -41 -34 -68.5t-65.5 -41.5t-85 -19.5t-104.5 -5.5l7 35q70 0 99 18t43 88q5 20 13.5 82t12.5 82q25 120 219 135q-165 13 -165 109q0 23 27 116t27 122
q0 37 -23 47.5t-80 10.5l7 35q112 0 173 -22t61 -81q0 -19 -29.5 -127.5t-29.5 -141.5z" />
    <glyph glyph-name="asciitilde" unicode="~" horiz-adv-x="440" 
d="M467 362q-25 -119 -101 -119q-26 0 -100 19t-95 19q-31 0 -40 -38h-29q12 59 39 89t62 30q27 0 98 -19t93 -19q35 0 44 38h29z" />
    <glyph glyph-name="exclamdown" unicode="&#xa1;" horiz-adv-x="335" 
d="M309 390q-23 0 -36 13t-13 33q0 29 22 51.5t53 22.5q23 0 36 -13t13 -33q0 -29 -22 -51.5t-53 -22.5zM175 -250q-30 0 -46.5 21t-10.5 50q9 42 73 216t86 278h35q-22 -104 -32 -278t-19 -216q-7 -30 -31.5 -50.5t-54.5 -20.5z" />
    <glyph glyph-name="cent" unicode="&#xa2;" horiz-adv-x="553" 
d="M519 329q-24 0 -38 12t-14 32q0 6 3 22t3 26q0 49 -50 53l-92 -436h17q87 0 165 79l19 -22q-89 -99 -211 -105l-17 -80h-37l17 81q-94 5 -141.5 54t-47.5 132q0 135 83.5 228t215.5 104l17 81h37l-17 -80q74 -1 117.5 -32t43.5 -74q0 -32 -20.5 -53.5t-52.5 -21.5z
M230 168q0 -97 66 -122l90 426q-68 -17 -112 -112t-44 -192z" />
    <glyph glyph-name="sterling" unicode="&#xa3;" 
d="M633 680h35l-39 -180h-35q16 74 -19 114t-112 40q-67 0 -101 -30t-34 -81q0 -26 21 -82.5t25 -73.5h169l-10 -45h-152v-4q0 -61 -43.5 -113.5t-117.5 -106.5h222q47 0 68.5 8.5t28.5 37.5l3 16h36l-38 -180h-490l8 36q53 36 80 56t57 47t42.5 50.5t12.5 48.5
q0 28 -32 104h-95l10 45h68q-15 43 -15 80q0 97 83 160t195 63q43 0 76 -9t50.5 -18.5t24.5 -9.5q11 0 14 15z" />
    <glyph glyph-name="currency" unicode="&#xa4;" horiz-adv-x="775" 
d="M823 680h35l-39 -180h-35q33 154 -145 154q-85 0 -151.5 -55.5t-106.5 -147.5h175l-9 -45h-183q-19 -57 -26 -115h184l-9 -45h-178q-1 -8 -1 -23q0 -95 44.5 -146t126.5 -51q78 0 136 37t75 117h35l-38 -180h-35l3 15q3 15 -8 15q-6 0 -32.5 -10t-71 -20t-93.5 -10
q-130 0 -204.5 69.5t-76.5 186.5h-92l9 45h85q4 60 26 115h-86l9 45h96q54 108 156 173.5t227 65.5q49 0 89 -10t62.5 -20t28.5 -10q11 0 14 15z" />
    <glyph glyph-name="yen" unicode="&#xa5;" horiz-adv-x="688" 
d="M639 680h184l-8 -35h-31q-21 0 -31 -6.5t-21 -22.5l-259 -352l-2 -12h131l-10 -45h-131l-29 -142q-5 -19 -0.5 -24.5t23.5 -5.5h25l-7 -35h-250l7 35h25q20 0 26.5 5.5t10.5 24.5l29 142h-129l10 45h119l-109 363q-6 18 -12.5 24t-25.5 6h-27l8 35h289l-8 -35h-55
q-29 0 -21 -30l91 -322l236 321q23 31 -8 31h-48z" />
    <glyph glyph-name="brokenbar" unicode="&#xa6;" horiz-adv-x="196" 
d="M284 790l-81 -380h-36l81 380h36zM178 290l-81 -380h-36l81 380h36z" />
    <glyph glyph-name="section" unicode="&#xa7;" horiz-adv-x="615" 
d="M634 380q0 -87 -101 -167q41 -38 41 -90q0 -87 -76.5 -145t-190.5 -58q-43 0 -78.5 9t-55 18.5t-25.5 9.5q-11 0 -14 -15l-4 -12h-35l39 180h35q-16 -77 20.5 -115.5t109.5 -38.5q64 0 105.5 30t41.5 80q0 33 -32.5 57.5t-79 40.5t-93 34t-79 49t-32.5 74q0 86 101 166
q-41 38 -41 90q0 87 76.5 145t190.5 58q43 0 78.5 -9t55 -18.5t26.5 -9.5q11 0 14 15l3 12h35l-39 -180h-35q16 77 -20.5 115.5t-109.5 38.5q-63 0 -104.5 -30t-41.5 -79q0 -33 32.5 -57.5t78.5 -41t92.5 -34.5t79 -48.5t32.5 -73.5zM250 397q0 -28 25.5 -50.5t58 -35.5
t81.5 -32.5t77 -35.5q22 33 22 60q0 28 -25.5 50.5t-58 35.5t-81.5 32.5t-77 35.5q-22 -33 -22 -60z" />
    <glyph glyph-name="dieresis" unicode="&#xa8;" horiz-adv-x="403" 
d="M255 699q23 0 36.5 -13.5t13.5 -34.5q0 -29 -22.5 -52t-53.5 -23q-23 0 -36.5 13.5t-13.5 34.5q0 29 22.5 52t53.5 23zM445 699q23 0 36.5 -13.5t13.5 -34.5q0 -29 -22.5 -52t-53.5 -23q-23 0 -36.5 13.5t-13.5 34.5q0 29 22.5 52t53.5 23z" />
    <glyph glyph-name="copyright" unicode="&#xa9;" horiz-adv-x="800" 
d="M398 -10q-125 0 -204.5 78.5t-79.5 198.5q0 107 62 205.5t162.5 158t208.5 59.5q125 0 204 -78.5t79 -198.5q0 -107 -61.5 -205.5t-162 -158t-208.5 -59.5zM405 26q98 0 188.5 54t145 142t54.5 184q0 107 -71 177.5t-183 70.5q-98 0 -188 -54t-145 -142t-55 -183
q0 -107 71 -178t183 -71zM436 130q-81 0 -127 43t-46 115q0 109 76 185.5t186 76.5q35 0 68 -10l33 -9q6 0 8 9l1 4h26l-24 -112h-26q11 43 -7.5 68t-63.5 25q-76 0 -121.5 -82.5t-45.5 -179.5q0 -107 89 -107q37 0 68.5 21t42.5 72h25l-24 -113h-26l1 5q2 9 -4 9l-37 -10
q-37 -10 -72 -10z" />
    <glyph glyph-name="ordfeminine" unicode="&#xaa;" horiz-adv-x="506" 
d="M244 324q-44 0 -72.5 29t-28.5 89q0 94 49.5 170t128.5 76q36 0 63 -18.5t30 -59.5l63 71h66l-59 -273q-5 -29 14 -29t25 28h28q-8 -40 -38.5 -61.5t-72.5 -21.5q-76 0 -72 70l2 9q-40 -79 -126 -79zM295 372q45 0 74 63.5t29 128.5q0 75 -46 75q-44 0 -71 -69.5
t-27 -139.5q0 -58 41 -58zM102 245l10 45h406l-10 -45h-406z" />
    <glyph glyph-name="guillemotleft" unicode="&#xab;" horiz-adv-x="585" 
d="M543 79q-48 70 -93.5 103.5t-122.5 63.5l10 45q91 30 150 63t137 104l15 -19q-51 -90 -165 -171q79 -77 92 -170zM308 79q-48 70 -93.5 103.5t-122.5 63.5l10 45q91 30 150 63t137 104l15 -19q-51 -90 -165 -171q79 -77 92 -170z" />
    <glyph glyph-name="logicalnot" unicode="&#xac;" horiz-adv-x="490" 
d="M510 329l-44 -208h-45l35 163h-345l9 45h390z" />
    <glyph glyph-name="uni00AD" unicode="&#xad;" horiz-adv-x="390" 
d="M402 290l-10 -45h-290l10 45h290z" />
    <glyph glyph-name="registered" unicode="&#xae;" horiz-adv-x="800" 
d="M547 690q125 0 204 -78.5t79 -198.5q0 -107 -61.5 -205.5t-162 -158t-208.5 -59.5q-125 0 -204.5 78.5t-79.5 198.5q0 107 62 205.5t162.5 158t208.5 59.5zM405 26q98 0 188.5 54t145 142t54.5 184q0 107 -71 177.5t-183 70.5q-98 0 -188 -54t-145 -142t-55 -183
q0 -107 71 -178t183 -71zM658 456q0 -95 -113 -129q63 -20 66 -92q2 -47 7 -59t24 -12h9l-5 -26h-53q-54 0 -77 16t-24 64q1 48 -3.5 67t-14.5 24t-36 6h-22l-28 -133q-3 -12 -0.5 -15t14.5 -3h11l-5 -26h-168l5 26h11q12 0 15.5 3t6.5 15l67 321q3 10 0 14t-14 4h-10l5 25
h195q137 0 137 -90zM450 340q50 0 73.5 37.5t23.5 93.5q0 28 -14 39t-45 11h-29l-38 -181h29z" />
    <glyph glyph-name="macron" unicode="&#xaf;" horiz-adv-x="363" 
d="M454 641l-8 -37h-272l7 37h273z" />
    <glyph glyph-name="degree" unicode="&#xb0;" horiz-adv-x="290" 
d="M292 690q39 0 62 -22.5t23 -58.5q0 -53 -39 -91t-91 -38q-39 0 -62 23t-23 59q0 52 39.5 90t90.5 38zM282 645q-30 0 -52 -21.5t-22 -51.5q0 -21 13.5 -34t35.5 -13q30 0 52 21.5t22 52.5q0 20 -13.5 33t-35.5 13z" />
    <glyph glyph-name="plusminus" unicode="&#xb1;" horiz-adv-x="470" 
d="M327 329h163l-9 -45h-163l-34 -163h-45l34 163h-162l9 45h162l35 162h45zM56 29l10 45h370l-10 -45h-370z" />
    <glyph glyph-name="uni00B2" unicode="&#xb2;" horiz-adv-x="316" 
d="M310 785q58 0 91 -19t33 -53q0 -61 -117 -138q-26 -18 -82 -50q-9 -6 -14 -9h113q22 0 31 3.5t11 14.5l1 4h21l-20 -98h-260l4 21q103 76 160.5 140t57.5 125q0 38 -29 38q-32 0 -41 -42q-3 -17 -16 -27.5t-32 -10.5q-31 0 -31 28q0 29 36 51t83 22z" />
    <glyph glyph-name="uni00B3" unicode="&#xb3;" horiz-adv-x="311" 
d="M305 620q93 -10 93 -73q0 -57 -48 -84.5t-121 -27.5q-42 0 -69.5 16.5t-27.5 40.5q0 18 13.5 31t33.5 13q15 0 24 -8t9 -20q0 -4 -2 -15t-2 -13q0 -24 34 -24q31 0 48 33.5t17 77.5q0 43 -57 43h-23l5 20h23q40 0 65.5 30.5t25.5 69.5q0 34 -31 34q-20 0 -30.5 -9
t-15.5 -33q-9 -38 -49 -38q-30 0 -30 28q0 29 35.5 51t82.5 22q119 0 119 -59q0 -82 -122 -106z" />
    <glyph glyph-name="acute" unicode="&#xb4;" horiz-adv-x="298" 
d="M356 730q20 0 31.5 -10t11.5 -28q0 -85 -227 -142l-6 24q70 23 112 97q31 59 78 59z" />
    <glyph glyph-name="paragraph" unicode="&#xb6;" horiz-adv-x="633" 
d="M739 700l-8 -36h-65l-133 -628h65l-8 -36h-185q-135 0 -218 69t-83 194q0 184 131 310.5t319 126.5h185zM629 664h-83l-133 -628h84z" />
    <glyph glyph-name="periodcentered" unicode="&#xb7;" horiz-adv-x="210" 
d="M171 309q23 0 36 -13t13 -33q0 -29 -22 -51.5t-53 -22.5q-23 0 -36 13t-13 33q0 29 22 51.5t53 22.5z" />
    <glyph glyph-name="cedilla" unicode="&#xb8;" horiz-adv-x="279" 
d="M152 0l-36 -52q36 0 61.5 -17t25.5 -48q0 -45 -38 -74.5t-93 -29.5q-43 0 -66 13l14 25q22 -10 47 -10q31 0 47.5 21.5t16.5 51.5q0 41 -61 41l54 79h28z" />
    <glyph glyph-name="uni00B9" unicode="&#xb9;" horiz-adv-x="224" 
d="M116 440l4 21h29q10 0 13 2.5t5 12.5l49 231q2 10 0.5 12.5t-11.5 2.5h-29l4 21q45 0 78.5 13t45.5 29h21l-65 -309q-2 -10 0 -12.5t12 -2.5h28l-4 -21h-180z" />
    <glyph glyph-name="ordmasculine" unicode="&#xba;" horiz-adv-x="451" 
d="M372 690q71 0 109.5 -35t38.5 -97q0 -99 -63.5 -165.5t-161.5 -66.5q-71 0 -110 35.5t-39 97.5q0 98 64 164.5t162 66.5zM366 663q-49 0 -80.5 -81t-31.5 -163q0 -65 47 -65q34 0 60.5 42t38.5 96t12 105q0 66 -46 66zM463 290l-10 -45h-351l10 45h351z" />
    <glyph glyph-name="guillemotright" unicode="&#xbb;" horiz-adv-x="585" 
d="M311 79l-15 19q53 92 164 170q-78 78 -91 171l22 19q48 -71 93 -104t123 -63l-10 -45q-90 -30 -148.5 -63t-137.5 -104zM76 79l-15 19q53 92 164 170q-78 78 -91 171l22 19q48 -71 93 -104t123 -63l-10 -45q-90 -30 -148.5 -63t-137.5 -104z" />
    <glyph glyph-name="onequarter" unicode="&#xbc;" horiz-adv-x="690" 
d="M279 361l-5 -21h-180l4 21h29q10 0 13.5 2.5t5.5 12.5l49 231q2 10 0 12.5t-12 2.5h-29l4 21q45 0 79 13t46 29h21l-65 -309q-2 -10 -0.5 -12.5t11.5 -2.5h29zM689 680h45l-575 -680h-45zM675 345h22l-51 -241h44l-5 -21h-43l-10 -47q-2 -10 0 -12.5t12 -2.5h28l-5 -21
h-179l4 21h29q10 0 13.5 2.5t4.5 12.5l10 47h-131l5 21zM449 104h104l26 122z" />
    <glyph glyph-name="onehalf" unicode="&#xbd;" horiz-adv-x="748" 
d="M94 340l4 21h29q10 0 13.5 2.5t5.5 12.5l49 231q2 10 0 12.5t-12 2.5h-29l4 21q45 0 79 13t46 29h21l-65 -309q-2 -10 -0.5 -12.5t11.5 -2.5h29l-5 -21h-180zM734 680l-575 -680h-45l575 680h45zM648 345q59 0 92 -18.5t33 -53.5q0 -61 -117 -138q-26 -17 -97 -59h113
q22 0 31 3.5t11 14.5l2 4h21l-21 -98h-260l4 21q104 77 161 139.5t57 123.5q0 40 -29 40q-31 0 -40 -42q-9 -38 -49 -38q-31 0 -31 27q0 32 37 53t82 21z" />
    <glyph glyph-name="threequarters" unicode="&#xbe;" horiz-adv-x="739" 
d="M377 447q0 -57 -48.5 -84.5t-121.5 -27.5q-42 0 -69.5 16.5t-27.5 40.5q0 18 13.5 31t33.5 13q15 0 24 -8t9 -20q0 -4 -1.5 -15t-1.5 -13q0 -24 33 -24q31 0 48 33.5t17 77.5q0 43 -56 43h-23l4 20h23q40 0 65.5 30.5t25.5 69.5q0 34 -31 34q-20 0 -30.5 -9t-15.5 -33
q-3 -17 -16 -27.5t-32 -10.5q-31 0 -31 28q0 29 35.5 51t83.5 22q119 0 119 -59q0 -82 -123 -106q94 -10 94 -73zM738 680h45l-575 -680h-45zM724 345h22l-51 -241h44l-5 -21h-43l-10 -47q-2 -10 0 -12.5t12 -2.5h28l-5 -21h-179l4 21h29q10 0 13.5 2.5t4.5 12.5l10 47h-131
l5 21zM498 104h104l26 122z" />
    <glyph glyph-name="questiondown" unicode="&#xbf;" horiz-adv-x="544" 
d="M303 390q-23 0 -36 13t-13 33q0 29 22 51.5t53 22.5q23 0 36 -13t13 -33q0 -29 -22 -51.5t-53 -22.5zM151 -250q-102 0 -158 39t-56 109q0 22 4 43q12 55 46.5 98t77.5 71.5t86 55.5t76.5 64.5t43.5 84.5h35q-8 -38 -30 -73t-49.5 -64.5t-55 -61.5t-51.5 -77.5t-35 -98.5
q-7 -28 -7 -63q0 -91 80 -91q89 0 106 86q6 26 26.5 42.5t48.5 16.5q48 0 48 -42q0 -57 -78 -98t-158 -41z" />
    <glyph glyph-name="Agrave" unicode="&#xc0;" horiz-adv-x="728" 
d="M567 730q-172 48 -172 116q0 27 18 45.5t45 18.5q49 0 54 -59q7 -73 69 -96zM700 35h25l-7 -35h-278l8 35h55q27 0 21 30l-30 138h-267l-85 -137q-19 -31 9 -31h53l-8 -35h-186l8 35h33q20 0 27.5 5t19.5 24l386 621h36l144 -620q5 -19 11 -24.5t25 -5.5zM251 243h235
l-60 283z" />
    <glyph glyph-name="Aacute" unicode="&#xc1;" horiz-adv-x="728" 
d="M713 872q0 -85 -227 -142l-6 24q70 23 112 97q31 59 78 59q20 0 31.5 -10t11.5 -28zM700 35h25l-7 -35h-278l8 35h55q27 0 21 30l-30 138h-267l-85 -137q-19 -31 9 -31h53l-8 -35h-186l8 35h33q20 0 27.5 5t19.5 24l386 621h36l144 -620q5 -19 11 -24.5t25 -5.5zM251 243
h235l-60 283z" />
    <glyph glyph-name="Acircumflex" unicode="&#xc2;" horiz-adv-x="728" 
d="M537 810q-72 -42 -166 -74l-10 21q39 19 92 65t92 96h31q19 -53 51.5 -97.5t63.5 -63.5l-19 -21q-74 30 -135 74zM700 35h25l-7 -35h-278l8 35h55q27 0 21 30l-30 138h-267l-85 -137q-19 -31 9 -31h53l-8 -35h-186l8 35h33q20 0 27.5 5t19.5 24l386 621h36l144 -620
q5 -19 11 -24.5t25 -5.5zM251 243h235l-60 283z" />
    <glyph glyph-name="Atilde" unicode="&#xc3;" horiz-adv-x="728" 
d="M450 791q-31 0 -40 -38h-29q12 59 39 89t62 30q27 0 72 -19t67 -19q35 0 44 38h29q-25 -119 -101 -119q-26 0 -74 19t-69 19zM700 35h25l-7 -35h-278l8 35h55q27 0 21 30l-30 138h-267l-85 -137q-19 -31 9 -31h53l-8 -35h-186l8 35h33q20 0 27.5 5t19.5 24l386 621h36
l144 -620q5 -19 11 -24.5t25 -5.5zM251 243h235l-60 283z" />
    <glyph glyph-name="Adieresis" unicode="&#xc4;" horiz-adv-x="728" 
d="M431 756q-23 0 -36.5 13.5t-13.5 34.5q0 29 22.5 52t53.5 23q23 0 36.5 -13.5t13.5 -34.5q0 -29 -22.5 -52t-53.5 -23zM621 756q-23 0 -36.5 13.5t-13.5 34.5q0 29 22.5 52t53.5 23q23 0 36.5 -13.5t13.5 -34.5q0 -29 -22.5 -52t-53.5 -23zM700 35h25l-7 -35h-278l8 35
h55q27 0 21 30l-30 138h-267l-85 -137q-19 -31 9 -31h53l-8 -35h-186l8 35h33q20 0 27.5 5t19.5 24l386 621h36l144 -620q5 -19 11 -24.5t25 -5.5zM251 243h235l-60 283z" />
    <glyph glyph-name="Aring" unicode="&#xc5;" horiz-adv-x="728" 
d="M522 741q-42 0 -67.5 24.5t-25.5 64.5q0 54 43 97t99 43q42 0 67.5 -24.5t25.5 -63.5q0 -58 -43 -99.5t-99 -41.5zM563 934q-40 0 -69 -29.5t-29 -67.5q0 -27 17.5 -44t47.5 -17q40 0 68.5 28.5t28.5 70.5q0 27 -17 43t-47 16zM700 35h25l-7 -35h-278l8 35h55q27 0 21 30
l-30 138h-267l-85 -137q-19 -31 9 -31h53l-8 -35h-186l8 35h33q20 0 27.5 5t19.5 24l386 621h36l144 -620q5 -19 11 -24.5t25 -5.5zM251 243h235l-60 283z" />
    <glyph glyph-name="AE" unicode="&#xc6;" horiz-adv-x="964" 
d="M1046 680l-38 -179h-35l3 15q5 32 6 60.5t-24.5 48.5t-78.5 20h-153q-20 0 -26 -5.5t-10 -24.5l-53 -247h114q93 0 114 95l4 22h35l-57 -270h-35l5 23q20 95 -74 95h-113l-57 -268q-4 -19 0 -24.5t24 -5.5h174q36 0 63 12t42 33.5t22.5 40.5t12.5 43l3 15h35l-38 -179
h-547l8 35h25q19 0 25 5t11 25l29 138h-220l-99 -137q-22 -31 9 -31h52l-8 -35h-186l8 35h33q19 0 25.5 4.5t21.5 24.5l447 616h501zM271 243h200l83 391z" />
    <glyph glyph-name="Ccedilla" unicode="&#xc7;" horiz-adv-x="705" 
d="M753 680h35l-39 -180h-35q33 154 -145 154q-69 0 -128 -38.5t-97 -101t-59 -138.5t-21 -153q0 -95 44.5 -146t126.5 -51q78 0 136 37t75 117h35l-38 -180h-35l3 15q3 15 -8 15q-6 0 -30 -9t-64.5 -19t-84.5 -12l-29 -42q36 0 61.5 -17t25.5 -48q0 -45 -38 -74.5
t-93 -29.5q-43 0 -66 13l14 25q22 -10 47 -10q31 0 47.5 21.5t16.5 51.5q0 41 -61 41l47 69q-128 3 -199.5 73.5t-71.5 188.5q0 181 125 309.5t305 128.5q49 0 89 -10t62.5 -20t28.5 -10q11 0 14 15z" />
    <glyph glyph-name="Egrave" unicode="&#xc8;" horiz-adv-x="643" 
d="M534 730q-172 48 -172 116q0 27 18 45.5t45 18.5q49 0 54 -59q7 -73 69 -96zM188 680h537l-39 -179h-35l4 15q4 22 5.5 37.5t-2 34t-13.5 30t-32 19.5t-55 8h-153q-20 0 -26 -5.5t-10 -24.5l-53 -247h114q93 0 114 95l4 22h35l-57 -270h-35l5 23q20 95 -74 95h-114
l-56 -268q-5 -19 -0.5 -24.5t23.5 -5.5h175q36 0 62.5 12t41.5 33.5t22.5 40t13.5 43.5l3 15h35l-38 -179h-547l7 35h25q20 0 26.5 5.5t10.5 24.5l117 550q4 20 -0.5 25t-23.5 5h-25z" />
    <glyph glyph-name="Eacute" unicode="&#xc9;" horiz-adv-x="643" 
d="M681 872q0 -85 -227 -142l-6 24q70 23 112 97q31 59 78 59q20 0 31.5 -10t11.5 -28zM188 680h537l-39 -179h-35l4 15q4 22 5.5 37.5t-2 34t-13.5 30t-32 19.5t-55 8h-153q-20 0 -26 -5.5t-10 -24.5l-53 -247h114q93 0 114 95l4 22h35l-57 -270h-35l5 23q20 95 -74 95
h-114l-56 -268q-5 -19 -0.5 -24.5t23.5 -5.5h175q36 0 62.5 12t41.5 33.5t22.5 40t13.5 43.5l3 15h35l-38 -179h-547l7 35h25q20 0 26.5 5.5t10.5 24.5l117 550q4 20 -0.5 25t-23.5 5h-25z" />
    <glyph glyph-name="Ecircumflex" unicode="&#xca;" horiz-adv-x="643" 
d="M504 810q-72 -42 -166 -74l-10 21q39 19 92 65t92 96h31q19 -53 51.5 -97.5t63.5 -63.5l-19 -21q-74 30 -135 74zM188 680h537l-39 -179h-35l4 15q4 22 5.5 37.5t-2 34t-13.5 30t-32 19.5t-55 8h-153q-20 0 -26 -5.5t-10 -24.5l-53 -247h114q93 0 114 95l4 22h35
l-57 -270h-35l5 23q20 95 -74 95h-114l-56 -268q-5 -19 -0.5 -24.5t23.5 -5.5h175q36 0 62.5 12t41.5 33.5t22.5 40t13.5 43.5l3 15h35l-38 -179h-547l7 35h25q20 0 26.5 5.5t10.5 24.5l117 550q4 20 -0.5 25t-23.5 5h-25z" />
    <glyph glyph-name="Edieresis" unicode="&#xcb;" horiz-adv-x="643" 
d="M398 756q-23 0 -36.5 13.5t-13.5 34.5q0 29 22.5 52t53.5 23q23 0 36.5 -13.5t13.5 -34.5q0 -29 -22.5 -52t-53.5 -23zM588 756q-23 0 -36.5 13.5t-13.5 34.5q0 29 22.5 52t53.5 23q23 0 36.5 -13.5t13.5 -34.5q0 -29 -22.5 -52t-53.5 -23zM188 680h537l-39 -179h-35
l4 15q4 22 5.5 37.5t-2 34t-13.5 30t-32 19.5t-55 8h-153q-20 0 -26 -5.5t-10 -24.5l-53 -247h114q93 0 114 95l4 22h35l-57 -270h-35l5 23q20 95 -74 95h-114l-56 -268q-5 -19 -0.5 -24.5t23.5 -5.5h175q36 0 62.5 12t41.5 33.5t22.5 40t13.5 43.5l3 15h35l-38 -179h-547
l7 35h25q20 0 26.5 5.5t10.5 24.5l117 550q4 20 -0.5 25t-23.5 5h-25z" />
    <glyph glyph-name="Igrave" unicode="&#xcc;" horiz-adv-x="335" 
d="M262 910q49 0 54 -59q7 -73 69 -96l-14 -25q-172 48 -172 116q0 27 18 45.5t45 18.5zM438 680l-8 -35h-25q-20 0 -26 -5.5t-10 -24.5l-117 -550q-5 -19 -0.5 -24.5t23.5 -5.5h25l-7 -35h-250l7 35h25q20 0 26.5 5.5t10.5 24.5l117 550q4 20 -0.5 25t-23.5 5h-25l8 35h250
z" />
    <glyph glyph-name="Iacute" unicode="&#xcd;" horiz-adv-x="335" 
d="M474 910q20 0 31.5 -10t11.5 -28q0 -85 -227 -142l-6 24q70 23 112 97q31 59 78 59zM438 680l-8 -35h-25q-20 0 -26 -5.5t-10 -24.5l-117 -550q-5 -19 -0.5 -24.5t23.5 -5.5h25l-7 -35h-250l7 35h25q20 0 26.5 5.5t10.5 24.5l117 550q4 20 -0.5 25t-23.5 5h-25l8 35h250z
" />
    <glyph glyph-name="Icircumflex" unicode="&#xce;" horiz-adv-x="335" 
d="M475 736q-74 30 -135 74q-72 -42 -166 -74l-10 21q39 19 92 65t92 96h31q19 -53 51.5 -97.5t63.5 -63.5zM438 680l-8 -35h-25q-20 0 -26 -5.5t-10 -24.5l-117 -550q-5 -19 -0.5 -24.5t23.5 -5.5h25l-7 -35h-250l7 35h25q20 0 26.5 5.5t10.5 24.5l117 550q4 20 -0.5 25
t-23.5 5h-25l8 35h250z" />
    <glyph glyph-name="Idieresis" unicode="&#xcf;" horiz-adv-x="335" 
d="M260 879q23 0 36.5 -13.5t13.5 -34.5q0 -29 -22.5 -52t-53.5 -23q-23 0 -36.5 13.5t-13.5 34.5q0 29 22.5 52t53.5 23zM450 879q23 0 36.5 -13.5t13.5 -34.5q0 -29 -22.5 -52t-53.5 -23q-23 0 -36.5 13.5t-13.5 34.5q0 29 22.5 52t53.5 23zM438 680l-8 -35h-25
q-20 0 -26 -5.5t-10 -24.5l-117 -550q-5 -19 -0.5 -24.5t23.5 -5.5h25l-7 -35h-250l7 35h25q20 0 26.5 5.5t10.5 24.5l117 550q4 20 -0.5 25t-23.5 5h-25l8 35h250z" />
    <glyph glyph-name="Eth" unicode="&#xd0;" horiz-adv-x="773" 
d="M494 680q134 0 216 -67t82 -189q0 -180 -128 -302t-315 -122h-306l7 35h25q20 0 26.5 5.5t10.5 24.5l55 263h-55l9 45h56l52 242q4 20 -0.5 25t-23.5 5h-25l8 35h306zM357 35q94 0 163.5 64t102 159.5t32.5 204.5q0 182 -169 182h-81q-20 0 -26 -5.5t-10 -24.5l-52 -242
h94l-9 -45h-95l-55 -263q-5 -19 -0.5 -24.5t23.5 -5.5h82z" />
    <glyph glyph-name="Ntilde" unicode="&#xd1;" horiz-adv-x="760" 
d="M711 872q-25 -119 -101 -119q-26 0 -74 19t-69 19q-31 0 -40 -38h-29q12 59 39 89t62 30q27 0 72 -19t67 -19q35 0 44 38h29zM871 680l-8 -35h-31q-20 0 -26 -5.5t-10 -24.5l-131 -615h-44l-356 574l-108 -509q-5 -19 -0.5 -24.5t23.5 -5.5h37l-8 -35h-166l7 35h30
q20 0 26.5 5.5t10.5 24.5l117 550q4 20 -0.5 25t-23.5 5h-30l8 35h169l307 -493l92 428q4 19 0 24.5t-24 5.5h-35l8 35h166z" />
    <glyph glyph-name="Ograve" unicode="&#xd2;" horiz-adv-x="788" 
d="M488 910q49 0 54 -59q7 -73 69 -96l-14 -25q-172 48 -172 116q0 27 18 45.5t45 18.5zM541 690q125 0 195.5 -70t70.5 -188q0 -117 -53.5 -218.5t-149.5 -162.5t-212 -61q-126 0 -196.5 69.5t-70.5 188.5q0 180 120.5 311t295.5 131zM533 654q-65 0 -118.5 -42.5
t-87 -111.5t-51.5 -151t-18 -165q0 -158 141 -158q65 0 118.5 42.5t87 111.5t51.5 151t18 165q0 158 -141 158z" />
    <glyph glyph-name="Oacute" unicode="&#xd3;" horiz-adv-x="788" 
d="M700 910q20 0 31.5 -10t11.5 -28q0 -85 -227 -142l-6 24q70 23 112 97q31 59 78 59zM541 690q125 0 195.5 -70t70.5 -188q0 -117 -53.5 -218.5t-149.5 -162.5t-212 -61q-126 0 -196.5 69.5t-70.5 188.5q0 180 120.5 311t295.5 131zM533 654q-65 0 -118.5 -42.5
t-87 -111.5t-51.5 -151t-18 -165q0 -158 141 -158q65 0 118.5 42.5t87 111.5t51.5 151t18 165q0 158 -141 158z" />
    <glyph glyph-name="Ocircumflex" unicode="&#xd4;" horiz-adv-x="788" 
d="M702 736q-74 30 -135 74q-72 -42 -166 -74l-10 21q39 19 92 65t92 96h31q19 -53 51.5 -97.5t63.5 -63.5zM541 690q125 0 195.5 -70t70.5 -188q0 -117 -53.5 -218.5t-149.5 -162.5t-212 -61q-126 0 -196.5 69.5t-70.5 188.5q0 180 120.5 311t295.5 131zM533 654
q-65 0 -118.5 -42.5t-87 -111.5t-51.5 -151t-18 -165q0 -158 141 -158q65 0 118.5 42.5t87 111.5t51.5 151t18 165q0 158 -141 158z" />
    <glyph glyph-name="Otilde" unicode="&#xd5;" horiz-adv-x="788" 
d="M724 872q-25 -119 -101 -119q-26 0 -74 19t-69 19q-31 0 -40 -38h-29q12 59 39 89t62 30q27 0 72 -19t67 -19q35 0 44 38h29zM541 690q125 0 195.5 -70t70.5 -188q0 -117 -53.5 -218.5t-149.5 -162.5t-212 -61q-126 0 -196.5 69.5t-70.5 188.5q0 180 120.5 311t295.5 131
zM533 654q-65 0 -118.5 -42.5t-87 -111.5t-51.5 -151t-18 -165q0 -158 141 -158q65 0 118.5 42.5t87 111.5t51.5 151t18 165q0 158 -141 158z" />
    <glyph glyph-name="Odieresis" unicode="&#xd6;" horiz-adv-x="788" 
d="M487 879q23 0 36.5 -13.5t13.5 -34.5q0 -29 -22.5 -52t-53.5 -23q-23 0 -36.5 13.5t-13.5 34.5q0 29 22.5 52t53.5 23zM677 879q23 0 36.5 -13.5t13.5 -34.5q0 -29 -22.5 -52t-53.5 -23q-23 0 -36.5 13.5t-13.5 34.5q0 29 22.5 52t53.5 23zM541 690q125 0 195.5 -70
t70.5 -188q0 -117 -53.5 -218.5t-149.5 -162.5t-212 -61q-126 0 -196.5 69.5t-70.5 188.5q0 180 120.5 311t295.5 131zM533 654q-65 0 -118.5 -42.5t-87 -111.5t-51.5 -151t-18 -165q0 -158 141 -158q65 0 118.5 42.5t87 111.5t51.5 151t18 165q0 158 -141 158z" />
    <glyph glyph-name="multiply" unicode="&#xd7;" horiz-adv-x="423" 
d="M465 435l-159 -131l101 -129l-36 -30l-102 129l-156 -129l-25 33l156 128l-101 129l36 30l101 -129l160 132z" />
    <glyph glyph-name="Oslash" unicode="&#xd8;" horiz-adv-x="788" 
d="M723 632q84 -69 84 -200q0 -117 -53.5 -218.5t-149.5 -162.5t-212 -61q-91 0 -154 37l-30 -37h-45l46 57q-84 70 -84 201q0 180 120.5 311t295.5 131q92 0 154 -38l30 38h45zM258 184q0 -36 8 -66l385 480q-33 56 -118 56q-65 0 -118.5 -42.5t-87 -111.5t-51.5 -151
t-18 -165zM399 26q65 0 118.5 42.5t87 111.5t51.5 151t18 165q0 35 -8 65l-385 -480q34 -55 118 -55z" />
    <glyph glyph-name="Ugrave" unicode="&#xd9;" horiz-adv-x="755" 
d="M490 910q49 0 54 -59q7 -73 69 -96l-14 -25q-172 48 -172 116q0 27 18 45.5t45 18.5zM866 680l-8 -35h-36q-20 0 -26 -5.5t-10 -24.5l-79 -371q-26 -125 -111.5 -189.5t-202.5 -64.5q-125 0 -191 48.5t-67 143.5q0 38 8 73l77 360q4 20 -0.5 25t-23.5 5h-25l8 35h250
l-8 -35h-25q-20 0 -26 -5.5t-10 -24.5l-78 -364q-10 -47 -11 -78q-2 -75 36 -109t120 -34q85 0 151.5 55t88.5 159l79 371q4 20 -0.5 25t-23.5 5h-36l8 35h172z" />
    <glyph glyph-name="Uacute" unicode="&#xda;" horiz-adv-x="755" 
d="M702 910q20 0 31.5 -10t11.5 -28q0 -85 -227 -142l-6 24q70 23 112 97q31 59 78 59zM866 680l-8 -35h-36q-20 0 -26 -5.5t-10 -24.5l-79 -371q-26 -125 -111.5 -189.5t-202.5 -64.5q-125 0 -191 48.5t-67 143.5q0 38 8 73l77 360q4 20 -0.5 25t-23.5 5h-25l8 35h250
l-8 -35h-25q-20 0 -26 -5.5t-10 -24.5l-78 -364q-10 -47 -11 -78q-2 -75 36 -109t120 -34q85 0 151.5 55t88.5 159l79 371q4 20 -0.5 25t-23.5 5h-36l8 35h172z" />
    <glyph glyph-name="Ucircumflex" unicode="&#xdb;" horiz-adv-x="755" 
d="M703 736q-74 30 -135 74q-72 -42 -166 -74l-10 21q39 19 92 65t92 96h31q19 -53 51.5 -97.5t63.5 -63.5zM866 680l-8 -35h-36q-20 0 -26 -5.5t-10 -24.5l-79 -371q-26 -125 -111.5 -189.5t-202.5 -64.5q-125 0 -191 48.5t-67 143.5q0 38 8 73l77 360q4 20 -0.5 25
t-23.5 5h-25l8 35h250l-8 -35h-25q-20 0 -26 -5.5t-10 -24.5l-78 -364q-10 -47 -11 -78q-2 -75 36 -109t120 -34q85 0 151.5 55t88.5 159l79 371q4 20 -0.5 25t-23.5 5h-36l8 35h172z" />
    <glyph glyph-name="Udieresis" unicode="&#xdc;" horiz-adv-x="755" 
d="M488 879q23 0 36.5 -13.5t13.5 -34.5q0 -29 -22.5 -52t-53.5 -23q-23 0 -36.5 13.5t-13.5 34.5q0 29 22.5 52t53.5 23zM678 879q23 0 36.5 -13.5t13.5 -34.5q0 -29 -22.5 -52t-53.5 -23q-23 0 -36.5 13.5t-13.5 34.5q0 29 22.5 52t53.5 23zM866 680l-8 -35h-36
q-20 0 -26 -5.5t-10 -24.5l-79 -371q-26 -125 -111.5 -189.5t-202.5 -64.5q-125 0 -191 48.5t-67 143.5q0 38 8 73l77 360q4 20 -0.5 25t-23.5 5h-25l8 35h250l-8 -35h-25q-20 0 -26 -5.5t-10 -24.5l-78 -364q-10 -47 -11 -78q-2 -75 36 -109t120 -34q85 0 151.5 55
t88.5 159l79 371q4 20 -0.5 25t-23.5 5h-36l8 35h172z" />
    <glyph glyph-name="Yacute" unicode="&#xdd;" horiz-adv-x="688" 
d="M688 910q20 0 31.5 -10t11.5 -28q0 -85 -227 -142l-6 24q70 23 112 97q31 59 78 59zM823 680l-8 -35h-31q-21 0 -31 -6.5t-21 -22.5l-259 -352l-41 -199q-5 -19 -0.5 -24.5t23.5 -5.5h25l-7 -35h-250l7 35h25q20 0 26.5 5.5t10.5 24.5l35 168l-115 382q-6 18 -12.5 24
t-25.5 6h-27l8 35h289l-8 -35h-55q-29 0 -21 -30l91 -322l236 321q23 31 -8 31h-48l8 35h184z" />
    <glyph glyph-name="Thorn" unicode="&#xde;" horiz-adv-x="643" 
d="M43 0l7 35h25q20 0 26.5 5.5t10.5 24.5l117 550q4 20 -0.5 25t-23.5 5h-25l8 35h250l-8 -35h-25q-20 0 -26 -5.5t-10 -24.5l-16 -71h111q113 0 163.5 -43t50.5 -110q0 -112 -85 -181t-215 -69h-110l-16 -76q-5 -19 -0.5 -24.5t23.5 -5.5h25l-7 -35h-250zM275 176h80
q90 0 136.5 67.5t46.5 169.5q0 51 -27.5 73.5t-84.5 22.5h-80z" />
    <glyph glyph-name="germandbls" unicode="&#xdf;" horiz-adv-x="628" 
d="M320 509l-117 -550q-17 -76 -72.5 -122.5t-145.5 -46.5q-50 0 -75.5 19t-25.5 51q0 30 18 50.5t47 20.5q42 0 42 -38q0 -12 -7.5 -31.5t-7.5 -24.5q0 -16 21 -16q41 0 60 92l117 552h-55l7 35h55l3 13q15 71 61.5 117.5t99 63t112.5 16.5q85 0 132.5 -28.5t47.5 -77.5
q0 -36 -18.5 -65t-45 -47.5t-53 -34.5t-45 -33t-18.5 -35q0 -21 27.5 -46t61 -46.5t61 -58t27.5 -77.5q0 -72 -58 -121.5t-160 -49.5q-70 0 -105 26.5t-35 62.5q0 24 11 35.5t26 11.5q24 0 24 -24q0 -5 -1.5 -14.5t-1.5 -13.5q0 -49 74 -49q41 0 67.5 27t26.5 68
q0 31 -22.5 57.5t-49 42.5t-49 41.5t-22.5 54.5q0 30 16.5 55t40 46t47 44.5t40 62t16.5 86.5q0 65 -69 65q-95 0 -130 -166z" />
    <glyph glyph-name="agrave" unicode="&#xe0;" horiz-adv-x="630" 
d="M357 730q49 0 54 -59q7 -73 69 -96l-14 -25q-172 48 -172 116q0 27 18 45.5t45 18.5zM576 56q30 0 39 45h35q-11 -55 -50.5 -83t-91.5 -28q-100 0 -90 95l4 23q-29 -58 -77 -88t-106 -30q-66 0 -106 42t-40 127q0 86 29.5 165t89.5 132.5t137 53.5q52 0 90 -28t44 -89
l82 107h76l-85 -400q-9 -44 20 -44zM295 48q48 0 87.5 48t59 112t19.5 125q0 57 -21 88.5t-59 31.5q-36 0 -66.5 -31t-49 -79t-29 -100.5t-10.5 -99.5q0 -95 69 -95z" />
    <glyph glyph-name="aacute" unicode="&#xe1;" horiz-adv-x="630" 
d="M570 730q20 0 31.5 -10t11.5 -28q0 -85 -227 -142l-6 24q70 23 112 97q31 59 78 59zM576 56q30 0 39 45h35q-11 -55 -50.5 -83t-91.5 -28q-100 0 -90 95l4 23q-29 -58 -77 -88t-106 -30q-66 0 -106 42t-40 127q0 86 29.5 165t89.5 132.5t137 53.5q52 0 90 -28t44 -89
l82 107h76l-85 -400q-9 -44 20 -44zM295 48q48 0 87.5 48t59 112t19.5 125q0 57 -21 88.5t-59 31.5q-36 0 -66.5 -31t-49 -79t-29 -100.5t-10.5 -99.5q0 -95 69 -95z" />
    <glyph glyph-name="acircumflex" unicode="&#xe2;" horiz-adv-x="630" 
d="M571 556q-74 30 -135 74q-72 -42 -166 -74l-10 21q39 19 92 65t92 96h31q19 -53 51.5 -97.5t63.5 -63.5zM576 56q30 0 39 45h35q-11 -55 -50.5 -83t-91.5 -28q-100 0 -90 95l4 23q-29 -58 -77 -88t-106 -30q-66 0 -106 42t-40 127q0 86 29.5 165t89.5 132.5t137 53.5
q52 0 90 -28t44 -89l82 107h76l-85 -400q-9 -44 20 -44zM295 48q48 0 87.5 48t59 112t19.5 125q0 57 -21 88.5t-59 31.5q-36 0 -66.5 -31t-49 -79t-29 -100.5t-10.5 -99.5q0 -95 69 -95z" />
    <glyph glyph-name="atilde" unicode="&#xe3;" horiz-adv-x="630" 
d="M593 692q-25 -119 -101 -119q-26 0 -74 19t-69 19q-31 0 -40 -38h-29q12 59 39 89t62 30q27 0 72 -19t67 -19q35 0 44 38h29zM576 56q30 0 39 45h35q-11 -55 -50.5 -83t-91.5 -28q-100 0 -90 95l4 23q-29 -58 -77 -88t-106 -30q-66 0 -106 42t-40 127q0 86 29.5 165
t89.5 132.5t137 53.5q52 0 90 -28t44 -89l82 107h76l-85 -400q-9 -44 20 -44zM295 48q48 0 87.5 48t59 112t19.5 125q0 57 -21 88.5t-59 31.5q-36 0 -66.5 -31t-49 -79t-29 -100.5t-10.5 -99.5q0 -95 69 -95z" />
    <glyph glyph-name="adieresis" unicode="&#xe4;" horiz-adv-x="630" 
d="M356 699q23 0 36.5 -13.5t13.5 -34.5q0 -29 -22.5 -52t-53.5 -23q-23 0 -36.5 13.5t-13.5 34.5q0 29 22.5 52t53.5 23zM546 699q23 0 36.5 -13.5t13.5 -34.5q0 -29 -22.5 -52t-53.5 -23q-23 0 -36.5 13.5t-13.5 34.5q0 29 22.5 52t53.5 23zM576 56q30 0 39 45h35
q-11 -55 -50.5 -83t-91.5 -28q-100 0 -90 95l4 23q-29 -58 -77 -88t-106 -30q-66 0 -106 42t-40 127q0 86 29.5 165t89.5 132.5t137 53.5q52 0 90 -28t44 -89l82 107h76l-85 -400q-9 -44 20 -44zM295 48q48 0 87.5 48t59 112t19.5 125q0 57 -21 88.5t-59 31.5
q-36 0 -66.5 -31t-49 -79t-29 -100.5t-10.5 -99.5q0 -95 69 -95z" />
    <glyph glyph-name="aring" unicode="&#xe5;" horiz-adv-x="630" 
d="M470 790q42 0 67.5 -24.5t25.5 -63.5q0 -58 -43 -99.5t-99 -41.5q-42 0 -67.5 24.5t-25.5 64.5q0 54 43 97t99 43zM462 754q-40 0 -69 -29.5t-29 -67.5q0 -27 17.5 -44t47.5 -17q40 0 68.5 28.5t28.5 70.5q0 27 -17 43t-47 16zM576 56q30 0 39 45h35q-11 -55 -50.5 -83
t-91.5 -28q-100 0 -90 95l4 23q-29 -58 -77 -88t-106 -30q-66 0 -106 42t-40 127q0 86 29.5 165t89.5 132.5t137 53.5q52 0 90 -28t44 -89l82 107h76l-85 -400q-9 -44 20 -44zM295 48q48 0 87.5 48t59 112t19.5 125q0 57 -21 88.5t-59 31.5q-36 0 -66.5 -31t-49 -79
t-29 -100.5t-10.5 -99.5q0 -95 69 -95z" />
    <glyph glyph-name="ae" unicode="&#xe6;" horiz-adv-x="903" 
d="M676 210q-49 0 -90 10q-3 -27 -3 -52q0 -130 118 -130q87 0 165 79l19 -22q-93 -105 -225 -105q-90 0 -142 37t-65 103q-76 -140 -214 -140q-66 0 -106 42t-40 127q0 86 30 165t90.5 132.5t137.5 53.5q122 0 185 -100q89 100 219 100q92 0 133 -38t41 -100
q0 -73 -72.5 -117.5t-180.5 -44.5zM748 475q-55 0 -97 -64.5t-59 -153.5q32 -6 58 -6q78 0 117 41.5t39 107.5q0 75 -58 75zM295 48q53 0 96 55.5t62 135.5t55 136q-52 78 -118 78q-51 0 -90 -53.5t-56.5 -122.5t-17.5 -134q0 -95 69 -95z" />
    <glyph glyph-name="ccedilla" unicode="&#xe7;" horiz-adv-x="553" 
d="M519 329q-24 0 -38 12t-14 32q0 6 3 22t3 26q0 54 -62 54q-52 0 -95 -50.5t-64.5 -120t-21.5 -136.5q0 -130 118 -130q87 0 165 79l19 -22q-89 -101 -214 -105l-29 -42q36 0 61.5 -17t25.5 -48q0 -45 -38 -74.5t-93 -29.5q-43 0 -66 13l14 25q22 -10 47 -10
q31 0 47.5 21.5t16.5 51.5q0 41 -61 41l47 69q-97 4 -146 53.5t-49 133.5q0 143 93.5 238t236.5 95q77 0 122 -31t45 -75q0 -32 -20.5 -53.5t-52.5 -21.5z" />
    <glyph glyph-name="egrave" unicode="&#xe8;" horiz-adv-x="550" 
d="M458 550q-172 48 -172 116q0 27 18 45.5t45 18.5q49 0 54 -59q7 -73 69 -96zM323 210q-43 0 -90 10q-3 -27 -3 -52q0 -130 118 -130q87 0 165 79l19 -22q-93 -105 -225 -105q-106 0 -159 49.5t-53 137.5q0 138 87.5 235.5t219.5 97.5q92 0 133 -38t41 -100
q0 -73 -72.5 -117.5t-180.5 -44.5zM395 475q-37 0 -70 -33t-53.5 -81t-32.5 -104q31 -6 58 -6q78 0 117 41.5t39 107.5q0 75 -58 75z" />
    <glyph glyph-name="eacute" unicode="&#xe9;" horiz-adv-x="550" 
d="M561 730q20 0 31.5 -10t11.5 -28q0 -85 -227 -142l-6 24q70 23 112 97q31 59 78 59zM402 510q92 0 133 -38t41 -100q0 -73 -72.5 -117.5t-180.5 -44.5q-43 0 -90 10q-3 -27 -3 -52q0 -130 118 -130q87 0 165 79l19 -22q-93 -105 -225 -105q-106 0 -159 49.5t-53 137.5
q0 138 87.5 235.5t219.5 97.5zM297 251q78 0 117 41.5t39 107.5q0 75 -58 75q-37 0 -70 -33t-53.5 -81t-32.5 -104q31 -6 58 -6z" />
    <glyph glyph-name="ecircumflex" unicode="&#xea;" horiz-adv-x="550" 
d="M428 630q-72 -42 -166 -74l-10 21q39 19 92 65t92 96h31q19 -53 51.5 -97.5t63.5 -63.5l-19 -21q-74 30 -135 74zM402 510q92 0 133 -38t41 -100q0 -73 -72.5 -117.5t-180.5 -44.5q-43 0 -90 10q-3 -27 -3 -52q0 -130 118 -130q87 0 165 79l19 -22q-93 -105 -225 -105
q-106 0 -159 49.5t-53 137.5q0 138 87.5 235.5t219.5 97.5zM297 251q78 0 117 41.5t39 107.5q0 75 -58 75q-37 0 -70 -33t-53.5 -81t-32.5 -104q31 -6 58 -6z" />
    <glyph glyph-name="edieresis" unicode="&#xeb;" horiz-adv-x="550" 
d="M322 576q-23 0 -36.5 13.5t-13.5 34.5q0 29 22.5 52t53.5 23q23 0 36.5 -13.5t13.5 -34.5q0 -29 -22.5 -52t-53.5 -23zM512 576q-23 0 -36.5 13.5t-13.5 34.5q0 29 22.5 52t53.5 23q23 0 36.5 -13.5t13.5 -34.5q0 -29 -22.5 -52t-53.5 -23zM402 510q92 0 133 -38t41 -100
q0 -73 -72.5 -117.5t-180.5 -44.5q-43 0 -90 10q-3 -27 -3 -52q0 -130 118 -130q87 0 165 79l19 -22q-93 -105 -225 -105q-106 0 -159 49.5t-53 137.5q0 138 87.5 235.5t219.5 97.5zM297 251q78 0 117 41.5t39 107.5q0 75 -58 75q-37 0 -70 -33t-53.5 -81t-32.5 -104
q31 -6 58 -6z" />
    <glyph glyph-name="igrave" unicode="&#xec;" horiz-adv-x="306" 
d="M204 730q49 0 54 -59q7 -73 69 -96l-14 -25q-172 48 -172 116q0 27 18 45.5t45 18.5zM291 101h35q-11 -55 -50.5 -83t-91.5 -28q-112 0 -86 118l69 326q5 20 0.5 25.5t-23.5 5.5h-28l7 35h194l-85 -400q-9 -44 20 -44q30 0 39 45z" />
    <glyph glyph-name="iacute" unicode="&#xed;" horiz-adv-x="306" 
d="M417 730q20 0 31.5 -10t11.5 -28q0 -85 -227 -142l-6 24q70 23 112 97q31 59 78 59zM291 101h35q-11 -55 -50.5 -83t-91.5 -28q-112 0 -86 118l69 326q5 20 0.5 25.5t-23.5 5.5h-28l7 35h194l-85 -400q-9 -44 20 -44q30 0 39 45z" />
    <glyph glyph-name="icircumflex" unicode="&#xee;" horiz-adv-x="306" 
d="M418 556q-74 30 -135 74q-72 -42 -166 -74l-10 21q39 19 92 65t92 96h31q19 -53 51.5 -97.5t63.5 -63.5zM291 101h35q-11 -55 -50.5 -83t-91.5 -28q-112 0 -86 118l69 326q5 20 0.5 25.5t-23.5 5.5h-28l7 35h194l-85 -400q-9 -44 20 -44q30 0 39 45z" />
    <glyph glyph-name="idieresis" unicode="&#xef;" horiz-adv-x="306" 
d="M203 699q23 0 36.5 -13.5t13.5 -34.5q0 -29 -22.5 -52t-53.5 -23q-23 0 -36.5 13.5t-13.5 34.5q0 29 22.5 52t53.5 23zM393 699q23 0 36.5 -13.5t13.5 -34.5q0 -29 -22.5 -52t-53.5 -23q-23 0 -36.5 13.5t-13.5 34.5q0 29 22.5 52t53.5 23zM291 101h35q-11 -55 -50.5 -83
t-91.5 -28q-112 0 -86 118l69 326q5 20 0.5 25.5t-23.5 5.5h-28l7 35h194l-85 -400q-9 -44 20 -44q30 0 39 45z" />
    <glyph glyph-name="eth" unicode="&#xf0;" horiz-adv-x="576" 
d="M426 748q97 -12 146.5 -84.5t49.5 -189.5q0 -93 -22.5 -179t-64 -154.5t-107 -109.5t-145.5 -41q-99 0 -151.5 50.5t-52.5 138.5q0 145 93.5 238t240.5 93q48 0 82 -17q6 103 -18 154.5t-83 59.5l-101 -126l-32 19l86 108q-80 -7 -156 -80l-22 25q93 93 211 97l92 116
l33 -19zM290 26q151 0 197 429q-30 19 -81 19q-59 0 -105.5 -52.5t-69 -127.5t-22.5 -154q0 -114 81 -114z" />
    <glyph glyph-name="ntilde" unicode="&#xf1;" horiz-adv-x="633" 
d="M605 692q-25 -119 -101 -119q-26 0 -74 19t-69 19q-31 0 -40 -38h-29q12 59 39 89t62 30q27 0 72 -19t67 -19q35 0 44 38h29zM620 101h35q-11 -55 -50.5 -83t-91.5 -28q-111 0 -87 118l52 239q23 106 -55 106q-54 0 -100.5 -75.5t-75.5 -210.5l-35 -167h-137l92 434
q5 20 0.5 25.5t-23.5 5.5h-28l7 35h179l-12 -122q61 132 191 132q78 0 113.5 -43t17.5 -128l-51 -239q-9 -44 20 -44q30 0 39 45z" />
    <glyph glyph-name="ograve" unicode="&#xf2;" 
d="M356 730q49 0 54 -59q7 -73 69 -96l-14 -25q-172 48 -172 116q0 27 18 45.5t45 18.5zM409 510q99 0 152 -50.5t53 -137.5q0 -140 -89 -236t-226 -96q-99 0 -151.5 50.5t-52.5 138.5q0 139 89 235t225 96zM402 475q-53 0 -95.5 -57.5t-62.5 -134.5t-20 -151
q0 -107 82 -107q54 0 96.5 57.5t62.5 134.5t20 151q0 107 -83 107z" />
    <glyph glyph-name="oacute" unicode="&#xf3;" 
d="M569 730q20 0 31.5 -10t11.5 -28q0 -85 -227 -142l-6 24q70 23 112 97q31 59 78 59zM409 510q99 0 152 -50.5t53 -137.5q0 -140 -89 -236t-226 -96q-99 0 -151.5 50.5t-52.5 138.5q0 139 89 235t225 96zM402 475q-53 0 -95.5 -57.5t-62.5 -134.5t-20 -151q0 -107 82 -107
q54 0 96.5 57.5t62.5 134.5t20 151q0 107 -83 107z" />
    <glyph glyph-name="ocircumflex" unicode="&#xf4;" 
d="M570 556q-74 30 -135 74q-72 -42 -166 -74l-10 21q39 19 92 65t92 96h31q19 -53 51.5 -97.5t63.5 -63.5zM409 510q99 0 152 -50.5t53 -137.5q0 -140 -89 -236t-226 -96q-99 0 -151.5 50.5t-52.5 138.5q0 139 89 235t225 96zM402 475q-53 0 -95.5 -57.5t-62.5 -134.5
t-20 -151q0 -107 82 -107q54 0 96.5 57.5t62.5 134.5t20 151q0 107 -83 107z" />
    <glyph glyph-name="otilde" unicode="&#xf5;" 
d="M592 692q-25 -119 -101 -119q-26 0 -74 19t-69 19q-31 0 -40 -38h-29q12 59 39 89t62 30q27 0 72 -19t67 -19q35 0 44 38h29zM409 510q99 0 152 -50.5t53 -137.5q0 -140 -89 -236t-226 -96q-99 0 -151.5 50.5t-52.5 138.5q0 139 89 235t225 96zM402 475
q-53 0 -95.5 -57.5t-62.5 -134.5t-20 -151q0 -107 82 -107q54 0 96.5 57.5t62.5 134.5t20 151q0 107 -83 107z" />
    <glyph glyph-name="odieresis" unicode="&#xf6;" 
d="M355 699q23 0 36.5 -13.5t13.5 -34.5q0 -29 -22.5 -52t-53.5 -23q-23 0 -36.5 13.5t-13.5 34.5q0 29 22.5 52t53.5 23zM545 699q23 0 36.5 -13.5t13.5 -34.5q0 -29 -22.5 -52t-53.5 -23q-23 0 -36.5 13.5t-13.5 34.5q0 29 22.5 52t53.5 23zM409 510q99 0 152 -50.5
t53 -137.5q0 -140 -89 -236t-226 -96q-99 0 -151.5 50.5t-52.5 138.5q0 139 89 235t225 96zM402 475q-53 0 -95.5 -57.5t-62.5 -134.5t-20 -151q0 -107 82 -107q54 0 96.5 57.5t62.5 134.5t20 151q0 107 -83 107z" />
    <glyph glyph-name="divide" unicode="&#xf7;" horiz-adv-x="470" 
d="M345 514q23 0 35.5 -13t12.5 -33q0 -29 -21.5 -51.5t-52.5 -22.5q-23 0 -36 13t-13 33q0 29 22 51.5t53 22.5zM490 329l-9 -45h-370l9 45h370zM282 219q23 0 36 -13t13 -33q0 -29 -22 -51.5t-53 -22.5q-23 0 -36 13t-13 33q0 29 22 51.5t53 22.5z" />
    <glyph glyph-name="oslash" unicode="&#xf8;" 
d="M658 530l-84 -84q40 -49 40 -124q0 -140 -89 -236t-226 -96q-88 0 -141 42l-62 -62h-45l84 84q-40 47 -40 125q0 139 89 235t225 96q89 0 142 -42l62 62h45zM402 475q-52 0 -93.5 -55t-62 -129.5t-22.5 -148.5l258 258q-11 75 -80 75zM306 25q52 0 94 55t62 129t22 148
l-258 -257q12 -75 80 -75z" />
    <glyph glyph-name="ugrave" unicode="&#xf9;" horiz-adv-x="633" 
d="M352 730q49 0 54 -59q7 -73 69 -96l-14 -25q-172 48 -172 116q0 27 18 45.5t45 18.5zM317 500l-73 -347q-22 -105 56 -105q53 0 99.5 75.5t75.5 210.5l36 166h136l-87 -400q-9 -44 20 -44q30 0 39 45h35q-11 -55 -50.5 -83t-91.5 -28q-57 0 -77.5 29.5t-8.5 76.5l6 27
q-61 -133 -190 -133q-78 0 -113.5 43t-18.5 128l57 273q4 20 -0.5 25.5t-23.5 5.5h-28l7 35h195z" />
    <glyph glyph-name="uacute" unicode="&#xfa;" horiz-adv-x="633" 
d="M564 730q20 0 31.5 -10t11.5 -28q0 -85 -227 -142l-6 24q70 23 112 97q31 59 78 59zM317 500l-73 -347q-22 -105 56 -105q53 0 99.5 75.5t75.5 210.5l36 166h136l-87 -400q-9 -44 20 -44q30 0 39 45h35q-11 -55 -50.5 -83t-91.5 -28q-57 0 -77.5 29.5t-8.5 76.5l6 27
q-61 -133 -190 -133q-78 0 -113.5 43t-18.5 128l57 273q4 20 -0.5 25.5t-23.5 5.5h-28l7 35h195z" />
    <glyph glyph-name="ucircumflex" unicode="&#xfb;" horiz-adv-x="633" 
d="M566 556q-74 30 -135 74q-72 -42 -166 -74l-10 21q39 19 92 65t92 96h31q19 -53 51.5 -97.5t63.5 -63.5zM317 500l-73 -347q-22 -105 56 -105q53 0 99.5 75.5t75.5 210.5l36 166h136l-87 -400q-9 -44 20 -44q30 0 39 45h35q-11 -55 -50.5 -83t-91.5 -28q-57 0 -77.5 29.5
t-8.5 76.5l6 27q-61 -133 -190 -133q-78 0 -113.5 43t-18.5 128l57 273q4 20 -0.5 25.5t-23.5 5.5h-28l7 35h195z" />
    <glyph glyph-name="udieresis" unicode="&#xfc;" horiz-adv-x="633" 
d="M351 699q23 0 36.5 -13.5t13.5 -34.5q0 -29 -22.5 -52t-53.5 -23q-23 0 -36.5 13.5t-13.5 34.5q0 29 22.5 52t53.5 23zM541 699q23 0 36.5 -13.5t13.5 -34.5q0 -29 -22.5 -52t-53.5 -23q-23 0 -36.5 13.5t-13.5 34.5q0 29 22.5 52t53.5 23zM317 500l-73 -347
q-22 -105 56 -105q53 0 99.5 75.5t75.5 210.5l36 166h136l-87 -400q-9 -44 20 -44q30 0 39 45h35q-11 -55 -50.5 -83t-91.5 -28q-57 0 -77.5 29.5t-8.5 76.5l6 27q-61 -133 -190 -133q-78 0 -113.5 43t-18.5 128l57 273q4 20 -0.5 25.5t-23.5 5.5h-28l7 35h195z" />
    <glyph glyph-name="yacute" unicode="&#xfd;" horiz-adv-x="571" 
d="M551 730q20 0 31.5 -10t11.5 -28q0 -85 -227 -142l-6 24q70 23 112 97q31 59 78 59zM503 510q35 0 55 -27t20 -71q0 -63 -49 -169t-119.5 -206t-159 -173.5t-158.5 -73.5q-39 0 -59.5 18.5t-20.5 47.5q0 28 18.5 46.5t46.5 18.5q21 0 33 -11t12 -29q0 -13 -7.5 -26.5
t-7.5 -18.5q0 -11 17 -11q39 0 102.5 62t63.5 111q0 40 -23.5 84.5t-51 78t-51 80t-23.5 89.5q0 83 116 180l25 -19q-33 -42 -33 -83q0 -27 18 -59t40 -59.5t40 -73t18 -95.5q0 -52 -18 -109q62 82 115 182t53 160q0 28 -31 56t-31 51q0 22 16 35.5t34 13.5z" />
    <glyph glyph-name="thorn" unicode="&#xfe;" horiz-adv-x="610" 
d="M477 510q66 0 106.5 -42t40.5 -126q0 -86 -29.5 -165t-90 -133t-137.5 -54q-53 0 -90 28t-43 89l-52 -242q-4 -20 0.5 -25t23.5 -5h25l-8 -35h-246l8 35h25q19 0 25 5t11 25l164 769q5 20 0.5 25.5t-23.5 5.5h-28l7 35h194l-66 -308q61 118 183 118zM491 359q0 94 -69 94
q-47 0 -87 -48.5t-60 -112.5t-20 -122q0 -56 21.5 -89t59.5 -33q36 0 66.5 31t49 79t29 101t10.5 100z" />
    <glyph glyph-name="ydieresis" unicode="&#xff;" horiz-adv-x="571" 
d="M337 699q23 0 36.5 -13.5t13.5 -34.5q0 -29 -22.5 -52t-53.5 -23q-23 0 -36.5 13.5t-13.5 34.5q0 29 22.5 52t53.5 23zM527 699q23 0 36.5 -13.5t13.5 -34.5q0 -29 -22.5 -52t-53.5 -23q-23 0 -36.5 13.5t-13.5 34.5q0 29 22.5 52t53.5 23zM503 510q35 0 55 -27t20 -71
q0 -63 -49 -169t-119.5 -206t-159 -173.5t-158.5 -73.5q-39 0 -59.5 18.5t-20.5 47.5q0 28 18.5 46.5t46.5 18.5q21 0 33 -11t12 -29q0 -13 -7.5 -26.5t-7.5 -18.5q0 -11 17 -11q39 0 102.5 62t63.5 111q0 40 -23.5 84.5t-51 78t-51 80t-23.5 89.5q0 83 116 180l25 -19
q-33 -42 -33 -83q0 -27 18 -59t40 -59.5t40 -73t18 -95.5q0 -52 -18 -109q62 82 115 182t53 160q0 28 -31 56t-31 51q0 22 16 35.5t34 13.5z" />
    <glyph glyph-name="Amacron" unicode="&#x100;" horiz-adv-x="728" 
d="M676 821l-8 -37h-272l7 37h273zM700 35h25l-7 -35h-278l8 35h55q27 0 21 30l-30 138h-267l-85 -137q-19 -31 9 -31h53l-8 -35h-186l8 35h33q20 0 27.5 5t19.5 24l386 621h36l144 -620q5 -19 11 -24.5t25 -5.5zM251 243h235l-60 283z" />
    <glyph glyph-name="amacron" unicode="&#x101;" horiz-adv-x="630" 
d="M575 641l-8 -37h-272l7 37h273zM576 56q30 0 39 45h35q-11 -55 -50.5 -83t-91.5 -28q-100 0 -90 95l4 23q-29 -58 -77 -88t-106 -30q-66 0 -106 42t-40 127q0 86 29.5 165t89.5 132.5t137 53.5q52 0 90 -28t44 -89l82 107h76l-85 -400q-9 -44 20 -44zM295 48
q48 0 87.5 48t59 112t19.5 125q0 57 -21 88.5t-59 31.5q-36 0 -66.5 -31t-49 -79t-29 -100.5t-10.5 -99.5q0 -95 69 -95z" />
    <glyph glyph-name="Abreve" unicode="&#x102;" horiz-adv-x="728" 
d="M520 730q-63 0 -88.5 40t-18.5 123h27q-1 -36 20 -59.5t77 -23.5q104 0 137 83h28q-58 -163 -182 -163zM700 35h25l-7 -35h-278l8 35h55q27 0 21 30l-30 138h-267l-85 -137q-19 -31 9 -31h53l-8 -35h-186l8 35h33q20 0 27.5 5t19.5 24l386 621h36l144 -620
q5 -19 11 -24.5t25 -5.5zM251 243h235l-60 283z" />
    <glyph glyph-name="abreve" unicode="&#x103;" horiz-adv-x="630" 
d="M602 713q-58 -163 -182 -163q-63 0 -88.5 40t-18.5 123h27q-1 -36 20 -59.5t77 -23.5q104 0 137 83h28zM576 56q30 0 39 45h35q-11 -55 -50.5 -83t-91.5 -28q-100 0 -90 95l4 23q-29 -58 -77 -88t-106 -30q-66 0 -106 42t-40 127q0 86 29.5 165t89.5 132.5t137 53.5
q52 0 90 -28t44 -89l82 107h76l-85 -400q-9 -44 20 -44zM295 48q48 0 87.5 48t59 112t19.5 125q0 57 -21 88.5t-59 31.5q-36 0 -66.5 -31t-49 -79t-29 -100.5t-10.5 -99.5q0 -95 69 -95z" />
    <glyph glyph-name="Aogonek" unicode="&#x104;" horiz-adv-x="728" 
d="M613 0q-79 -69 -79 -126q0 -39 42 -39q27 0 47 13l5 -19q-44 -30 -91 -30q-34 0 -53.5 15.5t-19.5 42.5q0 70 115 143h-139l8 35h55q27 0 21 30l-30 138h-267l-85 -137q-19 -31 9 -31h53l-8 -35h-186l8 35h33q20 0 27.5 5t19.5 24l386 621h36l144 -620q5 -19 11 -24.5
t25 -5.5h25l-7 -35h-105zM251 243h235l-60 283z" />
    <glyph glyph-name="aogonek" unicode="&#x105;" horiz-adv-x="630" 
d="M576 4q-84 -70 -84 -130q0 -39 42 -39q27 0 47 13l5 -19q-44 -30 -91 -30q-34 0 -53.5 15.5t-19.5 42.5q0 67 100 134q-4 -1 -14 -1q-100 0 -90 95l4 23q-29 -58 -77 -88t-106 -30q-66 0 -106 42t-40 127q0 86 29.5 165t89.5 132.5t137 53.5q52 0 90 -28t44 -89l82 107
h76l-85 -400q-9 -44 20 -44q30 0 39 45h35q-14 -69 -74 -97zM295 48q48 0 87.5 48t59 112t19.5 125q0 57 -21 88.5t-59 31.5q-36 0 -66.5 -31t-49 -79t-29 -100.5t-10.5 -99.5q0 -95 69 -95z" />
    <glyph glyph-name="Cacute" unicode="&#x106;" horiz-adv-x="705" 
d="M714 910q20 0 31.5 -10t11.5 -28q0 -85 -227 -142l-6 24q70 23 112 97q31 59 78 59zM569 654q-69 0 -128 -38.5t-97 -101t-59 -138.5t-21 -153q0 -95 44.5 -146t126.5 -51q78 0 136 37t75 117h35l-38 -180h-35l3 15q3 15 -8 15q-6 0 -32.5 -10t-71 -20t-93.5 -10
q-132 0 -206.5 71t-74.5 191q0 181 125 309.5t305 128.5q49 0 89 -10t62.5 -20t28.5 -10q11 0 14 15l4 15h35l-39 -180h-35q33 154 -145 154z" />
    <glyph glyph-name="cacute" unicode="&#x107;" horiz-adv-x="553" 
d="M577 730q20 0 31.5 -10t11.5 -28q0 -85 -227 -142l-6 24q70 23 112 97q31 59 78 59zM425 510q77 0 122 -31t45 -75q0 -32 -20.5 -53.5t-52.5 -21.5q-24 0 -38 12t-14 32q0 6 3 22t3 26q0 54 -62 54q-52 0 -95 -50.5t-64.5 -120t-21.5 -136.5q0 -130 118 -130q87 0 165 79
l19 -22q-93 -105 -225 -105q-106 0 -159 49.5t-53 137.5q0 143 93.5 238t236.5 95z" />
    <glyph glyph-name="Cdotaccent" unicode="&#x10a;" horiz-adv-x="705" 
d="M598 894q27 0 44 -17t17 -43q0 -35 -28.5 -62t-63.5 -27q-27 0 -43.5 16.5t-16.5 41.5q0 36 28 63.5t63 27.5zM569 654q-69 0 -128 -38.5t-97 -101t-59 -138.5t-21 -153q0 -95 44.5 -146t126.5 -51q78 0 136 37t75 117h35l-38 -180h-35l3 15q3 15 -8 15q-6 0 -32.5 -10
t-71 -20t-93.5 -10q-132 0 -206.5 71t-74.5 191q0 181 125 309.5t305 128.5q49 0 89 -10t62.5 -20t28.5 -10q11 0 14 15l4 15h35l-39 -180h-35q33 154 -145 154z" />
    <glyph glyph-name="cdotaccent" unicode="&#x10b;" horiz-adv-x="553" 
d="M461 714q27 0 44 -17t17 -43q0 -35 -28.5 -62t-63.5 -27q-27 0 -43.5 16.5t-16.5 41.5q0 36 28 63.5t63 27.5zM425 510q77 0 122 -31t45 -75q0 -32 -20.5 -53.5t-52.5 -21.5q-24 0 -38 12t-14 32q0 6 3 22t3 26q0 54 -62 54q-52 0 -95 -50.5t-64.5 -120t-21.5 -136.5
q0 -130 118 -130q87 0 165 79l19 -22q-93 -105 -225 -105q-106 0 -159 49.5t-53 137.5q0 143 93.5 238t236.5 95z" />
    <glyph glyph-name="Ccaron" unicode="&#x10c;" horiz-adv-x="705" 
d="M752 910l11 -21q-41 -20 -92.5 -64.5t-92.5 -96.5h-30q-19 50 -52 95.5t-64 65.5l19 21q71 -29 135 -74q87 47 166 74zM569 654q-69 0 -128 -38.5t-97 -101t-59 -138.5t-21 -153q0 -95 44.5 -146t126.5 -51q78 0 136 37t75 117h35l-38 -180h-35l3 15q3 15 -8 15
q-6 0 -32.5 -10t-71 -20t-93.5 -10q-132 0 -206.5 71t-74.5 191q0 181 125 309.5t305 128.5q49 0 89 -10t62.5 -20t28.5 -10q11 0 14 15l4 15h35l-39 -180h-35q33 154 -145 154z" />
    <glyph glyph-name="ccaron" unicode="&#x10d;" horiz-adv-x="553" 
d="M616 730l11 -21q-41 -20 -92.5 -64.5t-92.5 -96.5h-30q-19 50 -52 95.5t-64 65.5l19 21q71 -29 135 -74q87 47 166 74zM425 510q77 0 122 -31t45 -75q0 -32 -20.5 -53.5t-52.5 -21.5q-24 0 -38 12t-14 32q0 6 3 22t3 26q0 54 -62 54q-52 0 -95 -50.5t-64.5 -120
t-21.5 -136.5q0 -130 118 -130q87 0 165 79l19 -22q-93 -105 -225 -105q-106 0 -159 49.5t-53 137.5q0 143 93.5 238t236.5 95z" />
    <glyph glyph-name="Dcaron" unicode="&#x10e;" horiz-adv-x="773" 
d="M699 910l11 -21q-41 -20 -92.5 -64.5t-92.5 -96.5h-30q-19 50 -52 95.5t-64 65.5l19 21q71 -29 135 -74q87 47 166 74zM494 680q134 0 216 -67t82 -189q0 -180 -128 -302t-315 -122h-306l7 35h25q20 0 26.5 5.5t10.5 24.5l117 550q4 20 -0.5 25t-23.5 5h-25l8 35h306z
M486 645h-81q-20 0 -26 -5.5t-10 -24.5l-117 -550q-5 -19 -0.5 -24.5t23.5 -5.5h82q94 0 163.5 64t102 159.5t32.5 204.5q0 182 -169 182z" />
    <glyph glyph-name="dcaron" unicode="&#x10f;" horiz-adv-x="630" 
d="M791 710q24 0 38.5 -14.5t14.5 -40.5q0 -59 -47 -112t-105 -53l6 26q32 0 55 21t23 47q0 14 -20 14q-19 0 -30.5 11.5t-11.5 30.5q0 29 22.5 49.5t54.5 20.5zM576 56q30 0 39 45h35q-11 -55 -50.5 -83t-91.5 -28q-100 0 -90 95l4 23q-29 -58 -77 -88t-106 -30
q-66 0 -106 42t-40 127q0 86 29.5 165t89.5 132.5t137 53.5q52 0 90 -28t44 -89l51 241q5 20 0.5 25.5t-23.5 5.5h-28l7 35h194l-128 -600q-9 -44 20 -44zM295 48q53 0 94 53t61 141q21 100 1.5 155.5t-70.5 55.5q-36 0 -66.5 -31t-49 -79t-29 -100.5t-10.5 -99.5
q0 -95 69 -95z" />
    <glyph glyph-name="Dcroat" unicode="&#x110;" horiz-adv-x="773" 
d="M494 680q134 0 216 -67t82 -189q0 -180 -128 -302t-315 -122h-306l7 35h25q20 0 26.5 5.5t10.5 24.5l55 263h-55l9 45h56l52 242q4 20 -0.5 25t-23.5 5h-25l8 35h306zM357 35q94 0 163.5 64t102 159.5t32.5 204.5q0 182 -169 182h-81q-20 0 -26 -5.5t-10 -24.5l-52 -242
h94l-9 -45h-95l-55 -263q-5 -19 -0.5 -24.5t23.5 -5.5h82z" />
    <glyph glyph-name="dcroat" unicode="&#x111;" horiz-adv-x="630" 
d="M652 550l-96 -450q-9 -44 20 -44q30 0 39 45h35q-11 -55 -50.5 -83t-91.5 -28q-100 0 -90 95l4 23q-29 -58 -77 -88t-106 -30q-66 0 -106 42t-40 127q0 86 29.5 165t89.5 132.5t137 53.5q52 0 90 -28t44 -89l33 157h-99l9 45h100l8 39q5 20 0.5 25.5t-23.5 5.5h-28l7 35
h194l-22 -105h54l-9 -45h-55zM450 242q21 100 1.5 155.5t-70.5 55.5q-36 0 -66.5 -31t-49 -79t-29 -100.5t-10.5 -99.5q0 -95 69 -95q53 0 94 53t61 141z" />
    <glyph glyph-name="Emacron" unicode="&#x112;" horiz-adv-x="643" 
d="M643 821l-8 -37h-272l7 37h273zM188 680h537l-39 -179h-35l4 15q4 22 5.5 37.5t-2 34t-13.5 30t-32 19.5t-55 8h-153q-20 0 -26 -5.5t-10 -24.5l-53 -247h114q93 0 114 95l4 22h35l-57 -270h-35l5 23q20 95 -74 95h-114l-56 -268q-5 -19 -0.5 -24.5t23.5 -5.5h175
q36 0 62.5 12t41.5 33.5t22.5 40t13.5 43.5l3 15h35l-38 -179h-547l7 35h25q20 0 26.5 5.5t10.5 24.5l117 550q4 20 -0.5 25t-23.5 5h-25z" />
    <glyph glyph-name="emacron" unicode="&#x113;" horiz-adv-x="550" 
d="M567 641l-8 -37h-272l7 37h273zM323 210q-43 0 -90 10q-3 -27 -3 -52q0 -130 118 -130q87 0 165 79l19 -22q-93 -105 -225 -105q-106 0 -159 49.5t-53 137.5q0 138 87.5 235.5t219.5 97.5q92 0 133 -38t41 -100q0 -73 -72.5 -117.5t-180.5 -44.5zM395 475q-37 0 -70 -33
t-53.5 -81t-32.5 -104q31 -6 58 -6q78 0 117 41.5t39 107.5q0 75 -58 75z" />
    <glyph glyph-name="Edotaccent" unicode="&#x116;" horiz-adv-x="643" 
d="M491 745q-27 0 -43.5 16.5t-16.5 41.5q0 36 28 63.5t63 27.5q27 0 44 -17t17 -43q0 -35 -28.5 -62t-63.5 -27zM188 680h537l-39 -179h-35l4 15q4 22 5.5 37.5t-2 34t-13.5 30t-32 19.5t-55 8h-153q-20 0 -26 -5.5t-10 -24.5l-53 -247h114q93 0 114 95l4 22h35l-57 -270
h-35l5 23q20 95 -74 95h-114l-56 -268q-5 -19 -0.5 -24.5t23.5 -5.5h175q36 0 62.5 12t41.5 33.5t22.5 40t13.5 43.5l3 15h35l-38 -179h-547l7 35h25q20 0 26.5 5.5t10.5 24.5l117 550q4 20 -0.5 25t-23.5 5h-25z" />
    <glyph glyph-name="edotaccent" unicode="&#x117;" horiz-adv-x="550" 
d="M414 565q-27 0 -43.5 16.5t-16.5 41.5q0 36 28 63.5t63 27.5q27 0 44 -17t17 -43q0 -35 -28.5 -62t-63.5 -27zM323 210q-43 0 -90 10q-3 -27 -3 -52q0 -130 118 -130q87 0 165 79l19 -22q-93 -105 -225 -105q-106 0 -159 49.5t-53 137.5q0 138 87.5 235.5t219.5 97.5
q92 0 133 -38t41 -100q0 -73 -72.5 -117.5t-180.5 -44.5zM395 475q-37 0 -70 -33t-53.5 -81t-32.5 -104q31 -6 58 -6q78 0 117 41.5t39 107.5q0 75 -58 75z" />
    <glyph glyph-name="Eogonek" unicode="&#x118;" horiz-adv-x="643" 
d="M188 680h537l-39 -179h-35l4 15q4 22 5.5 37.5t-2 34t-13.5 30t-32 19.5t-55 8h-153q-20 0 -26 -5.5t-10 -24.5l-53 -247h114q93 0 114 95l4 22h35l-57 -270h-35l5 23q20 95 -74 95h-114l-56 -268q-5 -19 -0.5 -24.5t23.5 -5.5h175q36 0 62.5 12t41.5 33.5t22.5 40
t13.5 43.5l3 15h35l-38 -179h1q-91 -75 -91 -136q0 -39 42 -39q27 0 47 13l5 -19q-44 -30 -91 -30q-34 0 -53.5 15.5t-19.5 42.5q0 25 12.5 48.5t36 44t40.5 33t42 27.5h-518l7 35h25q20 0 26.5 5.5t10.5 24.5l117 550q4 20 -0.5 25t-23.5 5h-25z" />
    <glyph glyph-name="eogonek" unicode="&#x119;" horiz-adv-x="550" 
d="M323 210q-43 0 -90 10q-3 -27 -3 -52q0 -130 118 -130q87 0 165 79l19 -22q-50 -57 -119 -86q-36 -30 -61 -65.5t-25 -65.5q0 -39 42 -39q27 0 47 13l5 -19q-44 -30 -91 -30q-34 0 -53.5 15.5t-19.5 42.5q0 67 100 133q-21 -4 -50 -4q-106 0 -159 49.5t-53 137.5
q0 138 87.5 235.5t219.5 97.5q92 0 133 -38t41 -100q0 -73 -72.5 -117.5t-180.5 -44.5zM395 475q-37 0 -70 -33t-53.5 -81t-32.5 -104q31 -6 58 -6q78 0 117 41.5t39 107.5q0 75 -58 75z" />
    <glyph glyph-name="Ecaron" unicode="&#x11a;" horiz-adv-x="643" 
d="M472 728q-19 50 -52 95.5t-64 65.5l19 21q71 -29 135 -74q87 47 166 74l11 -21q-41 -20 -92.5 -64.5t-92.5 -96.5h-30zM188 680h537l-39 -179h-35l4 15q4 22 5.5 37.5t-2 34t-13.5 30t-32 19.5t-55 8h-153q-20 0 -26 -5.5t-10 -24.5l-53 -247h114q93 0 114 95l4 22h35
l-57 -270h-35l5 23q20 95 -74 95h-114l-56 -268q-5 -19 -0.5 -24.5t23.5 -5.5h175q36 0 62.5 12t41.5 33.5t22.5 40t13.5 43.5l3 15h35l-38 -179h-547l7 35h25q20 0 26.5 5.5t10.5 24.5l117 550q4 20 -0.5 25t-23.5 5h-25z" />
    <glyph glyph-name="ecaron" unicode="&#x11b;" horiz-adv-x="550" 
d="M396 548q-19 50 -52 95.5t-64 65.5l19 21q71 -29 135 -74q87 47 166 74l11 -21q-41 -20 -92.5 -64.5t-92.5 -96.5h-30zM402 510q92 0 133 -38t41 -100q0 -73 -72.5 -117.5t-180.5 -44.5q-43 0 -90 10q-3 -27 -3 -52q0 -130 118 -130q87 0 165 79l19 -22
q-93 -105 -225 -105q-106 0 -159 49.5t-53 137.5q0 138 87.5 235.5t219.5 97.5zM297 251q78 0 117 41.5t39 107.5q0 75 -58 75q-37 0 -70 -33t-53.5 -81t-32.5 -104q31 -6 58 -6z" />
    <glyph glyph-name="Gbreve" unicode="&#x11e;" horiz-adv-x="783" 
d="M747 893q-58 -163 -182 -163q-63 0 -88.5 40t-18.5 123h27q-1 -36 20 -59.5t77 -23.5q104 0 137 83h28zM556 310h250l-8 -35h-25q-19 0 -25 -5t-11 -25l-6 -30q-22 -101 -116 -163t-221 -62q-124 0 -196.5 71.5t-72.5 190.5q0 180 125 309t305 129q56 0 97.5 -10
t62.5 -20t27 -10q11 0 14 15l4 15h35l-39 -180h-35q7 46 0.5 75.5t-31.5 47t-54 24.5t-67 7q-94 0 -166.5 -70t-107 -171.5t-34.5 -211.5q0 -85 38 -130t110 -45q78 0 118.5 40t59.5 130l10 49q4 19 0 24.5t-24 5.5h-25z" />
    <glyph glyph-name="gbreve" unicode="&#x11f;" horiz-adv-x="539" 
d="M381 550q-63 0 -88.5 40t-18.5 123h27q-1 -36 20 -59.5t77 -23.5q104 0 137 83h28q-58 -163 -182 -163zM572 556q30 0 47 -13t17 -33q0 -23 -15 -38t-36 -15q-24 0 -36 23.5t-31 23.5t-43 -16q66 -33 66 -103q0 -88 -70 -142.5t-172 -54.5q-55 0 -94 15q-33 -22 -33 -49
q0 -23 26.5 -35t65.5 -15t85.5 -10t85.5 -17.5t65.5 -39.5t26.5 -74q0 -57 -46 -97.5t-114.5 -58t-151.5 -17.5q-110 0 -163 30.5t-53 75.5q0 43 37.5 73.5t88.5 48.5q-45 27 -45 76q0 36 29 68.5t67 54.5q-51 34 -51 96q0 88 70 142.5t171 54.5q43 0 76 -9q70 55 130 55z
M307 223q51 0 82 58t31 127q0 67 -60 67q-51 0 -82 -57t-31 -126t60 -69zM409 -84q0 33 -41.5 46.5t-113 22t-105.5 21.5q-35 -15 -56.5 -42.5t-21.5 -59.5q0 -83 136 -83q93 0 147.5 24.5t54.5 70.5z" />
    <glyph glyph-name="Gdotaccent" unicode="&#x120;" horiz-adv-x="783" 
d="M599 894q27 0 44 -17t17 -43q0 -35 -28.5 -62t-63.5 -27q-27 0 -43.5 16.5t-16.5 41.5q0 36 28 63.5t63 27.5zM556 310h250l-8 -35h-25q-19 0 -25 -5t-11 -25l-6 -30q-22 -101 -116 -163t-221 -62q-124 0 -196.5 71.5t-72.5 190.5q0 180 125 309t305 129q56 0 97.5 -10
t62.5 -20t27 -10q11 0 14 15l4 15h35l-39 -180h-35q7 46 0.5 75.5t-31.5 47t-54 24.5t-67 7q-94 0 -166.5 -70t-107 -171.5t-34.5 -211.5q0 -85 38 -130t110 -45q78 0 118.5 40t59.5 130l10 49q4 19 0 24.5t-24 5.5h-25z" />
    <glyph glyph-name="gdotaccent" unicode="&#x121;" horiz-adv-x="539" 
d="M384 565q-27 0 -43.5 16.5t-16.5 41.5q0 36 28 63.5t63 27.5q27 0 44 -17t17 -43q0 -35 -28.5 -62t-63.5 -27zM572 556q30 0 47 -13t17 -33q0 -23 -15 -38t-36 -15q-24 0 -36 23.5t-31 23.5t-43 -16q66 -33 66 -103q0 -88 -70 -142.5t-172 -54.5q-55 0 -94 15
q-33 -22 -33 -49q0 -23 26.5 -35t65.5 -15t85.5 -10t85.5 -17.5t65.5 -39.5t26.5 -74q0 -57 -46 -97.5t-114.5 -58t-151.5 -17.5q-110 0 -163 30.5t-53 75.5q0 43 37.5 73.5t88.5 48.5q-45 27 -45 76q0 36 29 68.5t67 54.5q-51 34 -51 96q0 88 70 142.5t171 54.5q43 0 76 -9
q70 55 130 55zM307 223q51 0 82 58t31 127q0 67 -60 67q-51 0 -82 -57t-31 -126t60 -69zM409 -84q0 33 -41.5 46.5t-113 22t-105.5 21.5q-35 -15 -56.5 -42.5t-21.5 -59.5q0 -83 136 -83q93 0 147.5 24.5t54.5 70.5z" />
    <glyph glyph-name="Gcommaaccent" unicode="&#x122;" horiz-adv-x="783" 
d="M556 310h250l-8 -35h-25q-19 0 -25 -5t-11 -25l-6 -30q-22 -101 -116 -163t-221 -62q-124 0 -196.5 71.5t-72.5 190.5q0 180 125 309t305 129q56 0 97.5 -10t62.5 -20t27 -10q11 0 14 15l4 15h35l-39 -180h-35q7 46 0.5 75.5t-31.5 47t-54 24.5t-67 7q-94 0 -166.5 -70
t-107 -171.5t-34.5 -211.5q0 -85 38 -130t110 -45q78 0 118.5 40t59.5 130l10 49q4 19 0 24.5t-24 5.5h-25zM401 -38q25 0 39 -14.5t14 -39.5q0 -58 -44 -103t-104 -45l6 26q28 0 51 15t23 34q0 15 -20 15q-19 0 -30.5 11.5t-11.5 30.5q0 29 22.5 49.5t54.5 20.5z" />
    <glyph glyph-name="gcommaaccent" unicode="&#x123;" horiz-adv-x="539" 
d="M386 573q-25 0 -39 14.5t-14 39.5q0 58 44 103t104 45l-5 -26q-29 0 -52.5 -15t-23.5 -35q0 -14 21 -14q19 0 30.5 -11.5t11.5 -30.5q0 -29 -22.5 -49.5t-54.5 -20.5zM572 556q30 0 47 -13t17 -33q0 -23 -15 -38t-36 -15q-24 0 -36 23.5t-31 23.5t-43 -16q66 -33 66 -103
q0 -88 -70 -142.5t-172 -54.5q-55 0 -94 15q-33 -22 -33 -49q0 -23 26.5 -35t65.5 -15t85.5 -10t85.5 -17.5t65.5 -39.5t26.5 -74q0 -57 -46 -97.5t-114.5 -58t-151.5 -17.5q-110 0 -163 30.5t-53 75.5q0 43 37.5 73.5t88.5 48.5q-45 27 -45 76q0 36 29 68.5t67 54.5
q-51 34 -51 96q0 88 70 142.5t171 54.5q43 0 76 -9q70 55 130 55zM307 223q51 0 82 58t31 127q0 67 -60 67q-51 0 -82 -57t-31 -126t60 -69zM409 -84q0 33 -41.5 46.5t-113 22t-105.5 21.5q-35 -15 -56.5 -42.5t-21.5 -59.5q0 -83 136 -83q93 0 147.5 24.5t54.5 70.5z" />
    <glyph glyph-name="Hbar" unicode="&#x126;" horiz-adv-x="773" 
d="M842 645q-20 0 -26 -5.5t-10 -24.5l-17 -82h54l-9 -45h-55l-90 -423q-4 -19 0 -24.5t24 -5.5h25l-8 -35h-250l8 35h25q19 0 25 5t11 25l56 263h-298l-55 -263q-5 -19 -0.5 -24.5t23.5 -5.5h25l-7 -35h-250l7 35h25q20 0 26.5 5.5t10.5 24.5l89 423h-55l9 45h56l18 82
q4 20 -0.5 25t-23.5 5h-25l8 35h250l-8 -35h-25q-20 0 -26 -5.5t-10 -24.5l-18 -82h298l17 82q4 20 -0.5 25t-23.5 5h-25l8 35h250l-8 -35h-25zM613 368l26 120h-298l-25 -120h297z" />
    <glyph glyph-name="hbar" unicode="&#x127;" horiz-adv-x="633" 
d="M620 101h35q-11 -55 -50.5 -83t-91.5 -28q-111 0 -87 118l52 239q23 106 -55 106q-54 0 -100.5 -75.5t-75.5 -210.5l-35 -167h-137l117 550h-45l9 45h46l8 39q5 20 0.5 25.5t-23.5 5.5h-28l7 35h195l-23 -105h108l-9 -45h-109l-38 -172q61 132 191 132q78 0 113.5 -43
t17.5 -128l-51 -239q-9 -44 20 -44q30 0 39 45z" />
    <glyph glyph-name="Imacron" unicode="&#x12a;" horiz-adv-x="335" 
d="M479 821l-8 -37h-272l7 37h273zM438 680l-8 -35h-25q-20 0 -26 -5.5t-10 -24.5l-117 -550q-5 -19 -0.5 -24.5t23.5 -5.5h25l-7 -35h-250l7 35h25q20 0 26.5 5.5t10.5 24.5l117 550q4 20 -0.5 25t-23.5 5h-25l8 35h250z" />
    <glyph glyph-name="imacron" unicode="&#x12b;" horiz-adv-x="306" 
d="M422 641l-8 -37h-272l7 37h273zM291 101h35q-11 -55 -50.5 -83t-91.5 -28q-112 0 -86 118l69 326q5 20 0.5 25.5t-23.5 5.5h-28l7 35h194l-85 -400q-9 -44 20 -44q30 0 39 45z" />
    <glyph glyph-name="Iogonek" unicode="&#x12e;" horiz-adv-x="335" 
d="M188 680h250l-8 -35h-25q-20 0 -26 -5.5t-10 -24.5l-117 -550q-5 -19 -0.5 -24.5t23.5 -5.5h25l-7 -35h-78q-91 -75 -91 -136q0 -39 42 -39q27 0 47 13l5 -19q-44 -30 -91 -30q-34 0 -53.5 15.5t-19.5 42.5q0 25 12.5 48.5t36 44t40.5 33t42 27.5h-142l7 35h25
q20 0 26.5 5.5t10.5 24.5l117 550q4 20 -0.5 25t-23.5 5h-25z" />
    <glyph glyph-name="iogonek" unicode="&#x12f;" horiz-adv-x="306" 
d="M301 714q27 0 44 -17t17 -43q0 -35 -28.5 -62t-63.5 -27q-27 0 -43.5 16.5t-16.5 41.5q0 36 28 63.5t63 27.5zM252 56q30 0 39 45h35q-16 -77 -85 -102q-87 -71 -87 -132q0 -39 42 -39q27 0 47 13l5 -19q-44 -30 -91 -30q-34 0 -53.5 15.5t-19.5 42.5q0 70 111 140h-11
q-112 0 -86 118l69 326q5 20 0.5 25.5t-23.5 5.5h-28l7 35h194l-85 -400q-9 -44 20 -44z" />
    <glyph glyph-name="Idotaccent" unicode="&#x130;" horiz-adv-x="335" 
d="M358 894q27 0 44 -17t17 -43q0 -35 -28.5 -62t-63.5 -27q-27 0 -43.5 16.5t-16.5 41.5q0 36 28 63.5t63 27.5zM438 680l-8 -35h-25q-20 0 -26 -5.5t-10 -24.5l-117 -550q-5 -19 -0.5 -24.5t23.5 -5.5h25l-7 -35h-250l7 35h25q20 0 26.5 5.5t10.5 24.5l117 550
q4 20 -0.5 25t-23.5 5h-25l8 35h250z" />
    <glyph glyph-name="dotlessi" unicode="&#x131;" horiz-adv-x="306" 
d="M291 101h35q-11 -55 -50.5 -83t-91.5 -28q-112 0 -86 118l69 326q5 20 0.5 25.5t-23.5 5.5h-28l7 35h194l-85 -400q-9 -44 20 -44q30 0 39 45z" />
    <glyph glyph-name="IJ" unicode="&#x132;" horiz-adv-x="783" 
d="M438 680l-8 -35h-25q-20 0 -26 -5.5t-10 -24.5l-117 -550q-5 -19 -0.5 -24.5t23.5 -5.5h25l-7 -35h-250l7 35h25q20 0 26.5 5.5t10.5 24.5l117 550q4 20 -0.5 25t-23.5 5h-25l8 35h250zM894 680l-8 -35h-25q-20 0 -26 -5.5t-10 -24.5l-84 -391q-23 -113 -96 -173.5
t-171 -60.5q-59 0 -91 27t-32 63q0 29 19.5 51t49.5 22q21 0 33.5 -12t12.5 -31q0 -21 -15 -38.5t-15 -25.5q0 -21 45 -21q43 0 67.5 33.5t40.5 104.5l96 452q4 20 -0.5 25t-23.5 5h-25l8 35h250z" />
    <glyph glyph-name="Kcommaaccent" unicode="&#x136;" horiz-adv-x="733" 
d="M438 680l-8 -35h-25q-20 0 -26 -5.5t-10 -24.5l-117 -550q-5 -19 -0.5 -24.5t23.5 -5.5h25l-7 -35h-250l7 35h25q20 0 26.5 5.5t10.5 24.5l117 550q4 20 -0.5 25t-23.5 5h-25l8 35h250zM850 680l-8 -35h-43q-34 0 -69 -29l-289 -240l212 -311q8 -12 13 -17.5t13 -9
t20 -3.5h36l-7 -35h-313l8 35h38q16 0 23 8.5t-2 21.5l-172 250l365 301q13 12 9.5 20.5t-18.5 8.5h-61l8 35h237zM344 -38q25 0 39 -14.5t14 -39.5q0 -58 -44 -103t-104 -45l6 26q28 0 51 15t23 34q0 15 -20 15q-19 0 -30.5 11.5t-11.5 30.5q0 29 22.5 49.5t54.5 20.5z" />
    <glyph glyph-name="kcommaaccent" unicode="&#x137;" horiz-adv-x="601" 
d="M508 436q-21 0 -41 -23t-47 -59.5t-54 -56.5q73 -8 106.5 -44.5t33.5 -87.5q0 -13 -4.5 -42.5t-4.5 -40.5q0 -26 24 -26q27 0 38 45h35q-12 -55 -48 -83t-87 -28q-50 0 -75.5 24.5t-25.5 63.5q0 17 7.5 60.5t7.5 55.5q0 35 -18 52.5t-48 17.5h-39l-56 -264h-137l135 634
q5 20 0.5 25.5t-23.5 5.5h-28l7 35h195l-85 -396h5q28 0 53 15.5t43 38t38.5 49.5t39.5 49.5t46.5 38t59.5 15.5q31 0 54 -15.5t23 -45.5q0 -26 -15 -44.5t-39 -18.5q-23 0 -36.5 12.5t-21.5 25t-18 12.5zM280 -38q25 0 39 -14.5t14 -39.5q0 -58 -44 -103t-104 -45l6 26
q28 0 51 15t23 34q0 15 -20 15q-19 0 -30.5 11.5t-11.5 30.5q0 29 22.5 49.5t54.5 20.5z" />
    <glyph glyph-name="Lacute" unicode="&#x139;" horiz-adv-x="593" 
d="M477 910q20 0 31.5 -10t11.5 -28q0 -85 -227 -142l-6 24q70 23 112 97q31 59 78 59zM438 680l-8 -35h-25q-20 0 -26 -5.5t-10 -24.5l-117 -550q-5 -19 -0.5 -24.5t23.5 -5.5h134q40 0 69 12t45 33.5t23.5 40t13.5 43.5l3 15h35l-38 -179h-517l7 35h25q20 0 26.5 5.5
t10.5 24.5l117 550q4 20 -0.5 25t-23.5 5h-25l8 35h250z" />
    <glyph glyph-name="lacute" unicode="&#x13a;" horiz-adv-x="306" 
d="M464 930q20 0 31.5 -10t11.5 -28q0 -85 -227 -142l-6 24q70 23 112 97q31 59 78 59zM291 101h35q-11 -55 -50.5 -83t-91.5 -28q-112 0 -86 118l112 526q5 20 0.5 25.5t-23.5 5.5h-28l7 35h194l-128 -600q-9 -44 20 -44q30 0 39 45z" />
    <glyph glyph-name="Lcommaaccent" unicode="&#x13b;" horiz-adv-x="593" 
d="M438 680l-8 -35h-25q-20 0 -26 -5.5t-10 -24.5l-117 -550q-5 -19 -0.5 -24.5t23.5 -5.5h134q40 0 69 12t45 33.5t23.5 40t13.5 43.5l3 15h35l-38 -179h-517l7 35h25q20 0 26.5 5.5t10.5 24.5l117 550q4 20 -0.5 25t-23.5 5h-25l8 35h250zM293 -38q25 0 39 -14.5t14 -39.5
q0 -58 -44 -103t-104 -45l6 26q28 0 51 15t23 34q0 15 -20 15q-19 0 -30.5 11.5t-11.5 30.5q0 29 22.5 49.5t54.5 20.5z" />
    <glyph glyph-name="lcommaaccent" unicode="&#x13c;" horiz-adv-x="306" 
d="M291 101h35q-11 -55 -50.5 -83t-91.5 -28q-112 0 -86 118l112 526q5 20 0.5 25.5t-23.5 5.5h-28l7 35h194l-128 -600q-9 -44 20 -44q30 0 39 45zM146 -38q25 0 39 -14.5t14 -39.5q0 -58 -44 -103t-104 -45l6 26q28 0 51 15t23 34q0 15 -20 15q-19 0 -30.5 11.5
t-11.5 30.5q0 29 22.5 49.5t54.5 20.5z" />
    <glyph glyph-name="Lcaron" unicode="&#x13d;" horiz-adv-x="593" 
d="M550 690q24 0 38.5 -14.5t14.5 -40.5q0 -59 -47 -112t-105 -53l6 26q32 0 55 21t23 47q0 14 -20 14q-19 0 -30.5 11.5t-11.5 30.5q0 29 22.5 49.5t54.5 20.5zM438 680l-8 -35h-25q-20 0 -26 -5.5t-10 -24.5l-117 -550q-5 -19 -0.5 -24.5t23.5 -5.5h134q40 0 69 12
t45 33.5t23.5 40t13.5 43.5l3 15h35l-38 -179h-517l7 35h25q20 0 26.5 5.5t10.5 24.5l117 550q4 20 -0.5 25t-23.5 5h-25l8 35h250z" />
    <glyph glyph-name="lcaron" unicode="&#x13e;" horiz-adv-x="306" 
d="M481 710q24 0 38.5 -14.5t14.5 -40.5q0 -59 -47 -112t-105 -53l6 26q32 0 55 21t23 47q0 14 -20 14q-19 0 -30.5 11.5t-11.5 30.5q0 29 22.5 49.5t54.5 20.5zM291 101h35q-11 -55 -50.5 -83t-91.5 -28q-112 0 -86 118l112 526q5 20 0.5 25.5t-23.5 5.5h-28l7 35h194
l-128 -600q-9 -44 20 -44q30 0 39 45z" />
    <glyph glyph-name="Ldot" unicode="&#x13f;" horiz-adv-x="593" 
d="M438 680l-8 -35h-25q-20 0 -26 -5.5t-10 -24.5l-117 -550q-5 -19 -0.5 -24.5t23.5 -5.5h134q40 0 69 12t45 33.5t23.5 40t13.5 43.5l3 15h35l-38 -179h-517l7 35h25q20 0 26.5 5.5t10.5 24.5l117 550q4 20 -0.5 25t-23.5 5h-25l8 35h250zM454 419q23 0 36 -13t13 -33
q0 -29 -22 -51.5t-53 -22.5q-23 0 -36 13t-13 33q0 29 22 51.5t53 22.5z" />
    <glyph glyph-name="ldot" unicode="&#x140;" horiz-adv-x="368" 
d="M291 101h35q-11 -55 -50.5 -83t-91.5 -28q-112 0 -86 118l112 526q5 20 0.5 25.5t-23.5 5.5h-28l7 35h194l-128 -600q-9 -44 20 -44q30 0 39 45zM396 419q23 0 36 -13t13 -33q0 -29 -22 -51.5t-53 -22.5q-23 0 -36 13t-13 33q0 29 22 51.5t53 22.5z" />
    <glyph glyph-name="Lslash" unicode="&#x141;" horiz-adv-x="593" 
d="M563 179h35l-38 -179h-517l7 35h25q20 0 26.5 5.5t10.5 24.5l41 197l-68 -40l11 50l68 40l65 303q4 20 -0.5 25t-23.5 5h-25l8 35h250l-8 -35h-25q-20 0 -26 -5.5t-10 -24.5l-45 -209l87 51l-12 -50l-85 -50l-62 -292q-5 -19 -0.5 -24.5t23.5 -5.5h134q40 0 69 12
t45 33.5t23.5 40t13.5 43.5z" />
    <glyph glyph-name="lslash" unicode="&#x142;" horiz-adv-x="306" 
d="M291 376l-59 -276q-9 -44 20 -44q30 0 39 45h35q-11 -55 -50.5 -83t-91.5 -28q-112 0 -86 118l35 165l-51 -33l10 50l52 34l66 310q5 20 0.5 25.5t-23.5 5.5h-28l7 35h194l-58 -274l76 49l-11 -50z" />
    <glyph glyph-name="Nacute" unicode="&#x143;" horiz-adv-x="760" 
d="M687 910q20 0 31.5 -10t11.5 -28q0 -85 -227 -142l-6 24q70 23 112 97q31 59 78 59zM871 680l-8 -35h-31q-20 0 -26 -5.5t-10 -24.5l-131 -615h-44l-356 574l-108 -509q-5 -19 -0.5 -24.5t23.5 -5.5h37l-8 -35h-166l7 35h30q20 0 26.5 5.5t10.5 24.5l117 550
q4 20 -0.5 25t-23.5 5h-30l8 35h169l307 -493l92 428q4 19 0 24.5t-24 5.5h-35l8 35h166z" />
    <glyph glyph-name="nacute" unicode="&#x144;" horiz-adv-x="633" 
d="M581 730q20 0 31.5 -10t11.5 -28q0 -85 -227 -142l-6 24q70 23 112 97q31 59 78 59zM620 101h35q-11 -55 -50.5 -83t-91.5 -28q-111 0 -87 118l52 239q23 106 -55 106q-54 0 -100.5 -75.5t-75.5 -210.5l-35 -167h-137l92 434q5 20 0.5 25.5t-23.5 5.5h-28l7 35h179
l-12 -122q61 132 191 132q78 0 113.5 -43t17.5 -128l-51 -239q-9 -44 20 -44q30 0 39 45z" />
    <glyph glyph-name="Ncommaaccent" unicode="&#x145;" horiz-adv-x="760" 
d="M871 680l-8 -35h-31q-20 0 -26 -5.5t-10 -24.5l-131 -615h-44l-356 574l-108 -509q-5 -19 -0.5 -24.5t23.5 -5.5h37l-8 -35h-166l7 35h30q20 0 26.5 5.5t10.5 24.5l117 550q4 20 -0.5 25t-23.5 5h-30l8 35h169l307 -493l92 428q4 19 0 24.5t-24 5.5h-35l8 35h166z
M373 -38q25 0 39 -14.5t14 -39.5q0 -58 -44 -103t-104 -45l6 26q28 0 51 15t23 34q0 15 -20 15q-19 0 -30.5 11.5t-11.5 30.5q0 29 22.5 49.5t54.5 20.5z" />
    <glyph glyph-name="ncommaaccent" unicode="&#x146;" horiz-adv-x="633" 
d="M620 101h35q-11 -55 -50.5 -83t-91.5 -28q-111 0 -87 118l52 239q23 106 -55 106q-54 0 -100.5 -75.5t-75.5 -210.5l-35 -167h-137l92 434q5 20 0.5 25.5t-23.5 5.5h-28l7 35h179l-12 -122q61 132 191 132q78 0 113.5 -43t17.5 -128l-51 -239q-9 -44 20 -44q30 0 39 45z
M300 -38q25 0 39 -14.5t14 -39.5q0 -58 -44 -103t-104 -45l6 26q28 0 51 15t23 34q0 15 -20 15q-19 0 -30.5 11.5t-11.5 30.5q0 29 22.5 49.5t54.5 20.5z" />
    <glyph glyph-name="Ncaron" unicode="&#x147;" horiz-adv-x="760" 
d="M725 910l11 -21q-41 -20 -92.5 -64.5t-92.5 -96.5h-30q-19 50 -52 95.5t-64 65.5l19 21q71 -29 135 -74q87 47 166 74zM871 680l-8 -35h-31q-20 0 -26 -5.5t-10 -24.5l-131 -615h-44l-356 574l-108 -509q-5 -19 -0.5 -24.5t23.5 -5.5h37l-8 -35h-166l7 35h30
q20 0 26.5 5.5t10.5 24.5l117 550q4 20 -0.5 25t-23.5 5h-30l8 35h169l307 -493l92 428q4 19 0 24.5t-24 5.5h-35l8 35h166z" />
    <glyph glyph-name="ncaron" unicode="&#x148;" horiz-adv-x="633" 
d="M620 730l11 -21q-41 -20 -92.5 -64.5t-92.5 -96.5h-30q-19 50 -52 95.5t-64 65.5l19 21q71 -29 135 -74q87 47 166 74zM620 101h35q-11 -55 -50.5 -83t-91.5 -28q-111 0 -87 118l52 239q23 106 -55 106q-54 0 -100.5 -75.5t-75.5 -210.5l-35 -167h-137l92 434
q5 20 0.5 25.5t-23.5 5.5h-28l7 35h179l-12 -122q61 132 191 132q78 0 113.5 -43t17.5 -128l-51 -239q-9 -44 20 -44q30 0 39 45z" />
    <glyph glyph-name="Eng" unicode="&#x14a;" horiz-adv-x="760" 
d="M188 680h169l307 -493l92 428q4 19 0 24.5t-24 5.5h-35l8 35h166l-8 -35h-31q-20 0 -26 -5.5t-10 -24.5l-133 -626q-20 -95 -73 -147t-130 -52q-70 0 -101.5 32t-23.5 72q5 27 24 42.5t44 15.5q24 0 36 -14t7 -35q-3 -15 -14 -31t-13 -22q-5 -25 53 -25q113 0 146 158
l3 17l-356 574l-108 -509q-5 -19 -0.5 -24.5t23.5 -5.5h37l-8 -35h-166l7 35h30q20 0 26.5 5.5t10.5 24.5l117 550q4 20 -0.5 25t-23.5 5h-30z" />
    <glyph glyph-name="eng" unicode="&#x14b;" horiz-adv-x="626" 
d="M481 510q78 0 113.5 -43t17.5 -128l-81 -380q-16 -76 -71.5 -122.5t-145.5 -46.5q-50 0 -75.5 19t-25.5 51q0 30 18 50.5t47 20.5q42 0 42 -38q0 -12 -7.5 -31.5t-7.5 -24.5q0 -16 21 -16q40 0 60 92l92 434q23 106 -55 106q-54 0 -100.5 -75.5t-75.5 -210.5l-35 -167
h-137l92 434q5 20 0.5 25.5t-23.5 5.5h-28l7 35h179l-12 -122q61 132 191 132z" />
    <glyph glyph-name="Omacron" unicode="&#x14c;" horiz-adv-x="788" 
d="M706 821l-8 -37h-272l7 37h273zM541 690q125 0 195.5 -70t70.5 -188q0 -117 -53.5 -218.5t-149.5 -162.5t-212 -61q-126 0 -196.5 69.5t-70.5 188.5q0 180 120.5 311t295.5 131zM533 654q-65 0 -118.5 -42.5t-87 -111.5t-51.5 -151t-18 -165q0 -158 141 -158
q65 0 118.5 42.5t87 111.5t51.5 151t18 165q0 158 -141 158z" />
    <glyph glyph-name="omacron" unicode="&#x14d;" 
d="M574 641l-8 -37h-272l7 37h273zM409 510q99 0 152 -50.5t53 -137.5q0 -140 -89 -236t-226 -96q-99 0 -151.5 50.5t-52.5 138.5q0 139 89 235t225 96zM402 475q-53 0 -95.5 -57.5t-62.5 -134.5t-20 -151q0 -107 82 -107q54 0 96.5 57.5t62.5 134.5t20 151q0 107 -83 107z
" />
    <glyph glyph-name="Ohungarumlaut" unicode="&#x150;" horiz-adv-x="788" 
d="M624 910q20 0 31.5 -10t11.5 -28q0 -85 -227 -142l-5 25q70 22 111 96q31 59 78 59zM804 910q20 0 31.5 -10t11.5 -28q0 -85 -227 -142l-5 25q70 22 111 96q31 59 78 59zM541 690q125 0 195.5 -70t70.5 -188q0 -117 -53.5 -218.5t-149.5 -162.5t-212 -61
q-126 0 -196.5 69.5t-70.5 188.5q0 180 120.5 311t295.5 131zM533 654q-65 0 -118.5 -42.5t-87 -111.5t-51.5 -151t-18 -165q0 -158 141 -158q65 0 118.5 42.5t87 111.5t51.5 151t18 165q0 158 -141 158z" />
    <glyph glyph-name="ohungarumlaut" unicode="&#x151;" 
d="M493 730q20 0 31.5 -10t11.5 -28q0 -85 -227 -142l-5 25q70 22 111 96q31 59 78 59zM673 730q20 0 31.5 -10t11.5 -28q0 -85 -227 -142l-5 25q70 22 111 96q31 59 78 59zM409 510q99 0 152 -50.5t53 -137.5q0 -140 -89 -236t-226 -96q-99 0 -151.5 50.5t-52.5 138.5
q0 139 89 235t225 96zM402 475q-53 0 -95.5 -57.5t-62.5 -134.5t-20 -151q0 -107 82 -107q54 0 96.5 57.5t62.5 134.5t20 151q0 107 -83 107z" />
    <glyph glyph-name="OE" unicode="&#x152;" horiz-adv-x="1130" 
d="M768 680h445l-39 -179h-35l4 15q5 28 5.5 47t-7 39.5t-31.5 31.5t-64 11h-154q-20 0 -26 -5.5t-10 -24.5l-52 -247h113q95 0 114 95l5 22h35l-57 -270h-35l4 23q22 95 -74 95h-113l-57 -268q-4 -19 0 -24.5t24 -5.5h175q36 0 62.5 12t41.5 33.5t22.5 40.5t12.5 43l4 15
h35l-38 -179h-455l17 83q-104 -93 -248 -93q-126 0 -196.5 69.5t-70.5 188.5q0 180 120.5 311t295.5 131q143 0 209 -93zM399 26q100 0 160.5 78t93.5 236q35 152 7.5 233t-127.5 81q-65 0 -118.5 -42.5t-87 -111.5t-51.5 -151t-18 -165q0 -158 141 -158z" />
    <glyph glyph-name="oe" unicode="&#x153;" horiz-adv-x="921" 
d="M694 210q-49 0 -90 10q-3 -27 -3 -52q0 -130 118 -130q87 0 165 79l19 -22q-93 -105 -225 -105q-126 0 -177 78q-84 -78 -202 -78q-99 0 -151.5 50.5t-52.5 138.5q0 139 89 235t225 96q120 0 169 -78q83 78 195 78q92 0 133 -38t41 -100q0 -73 -72.5 -117.5t-180.5 -44.5
zM306 25q54 0 96.5 57.5t62.5 134.5t20 151q0 107 -83 107q-53 0 -95.5 -57.5t-62.5 -134.5t-20 -151q0 -107 82 -107zM766 475q-55 0 -97 -64.5t-59 -153.5q32 -6 58 -6q78 0 117 41.5t39 107.5q0 75 -58 75z" />
    <glyph glyph-name="Racute" unicode="&#x154;" horiz-adv-x="733" 
d="M643 910q20 0 31.5 -10t11.5 -28q0 -85 -227 -142l-6 24q70 23 112 97q31 59 78 59zM711 35h24l-7 -35h-106q-78 0 -112 31.5t-35 114.5q0 74 -11 106.5t-30 40t-67 7.5h-66l-49 -235q-5 -19 -0.5 -24.5t23.5 -5.5h25l-7 -35h-250l7 35h25q20 0 26.5 5.5t10.5 24.5
l117 550q4 20 -0.5 25t-23.5 5h-25l8 35h308q209 0 216 -136q4 -82 -48 -142.5t-140 -84.5q101 -38 104 -153q3 -79 17.5 -104t65.5 -25zM308 335h83q90 0 135 59t45 157q2 53 -25.5 73.5t-87.5 20.5h-83z" />
    <glyph glyph-name="racute" unicode="&#x155;" horiz-adv-x="470" 
d="M491 730q20 0 31.5 -10t11.5 -28q0 -85 -227 -142l-6 24q70 23 112 97q31 59 78 59zM463 510q27 0 47.5 -16t20.5 -45q0 -34 -24 -59t-54 -25q-50 0 -50 46q0 16 -2 22t-12 6q-27 0 -67.5 -66t-61.5 -159l-48 -214h-137l93 434q5 20 0.5 25.5t-23.5 5.5h-29l7 35h179
l-11 -122q32 68 80 100t92 32z" />
    <glyph glyph-name="Rcommaaccent" unicode="&#x156;" horiz-adv-x="733" 
d="M711 35h24l-7 -35h-106q-78 0 -112 31.5t-35 114.5q0 74 -11 106.5t-30 40t-67 7.5h-66l-49 -235q-5 -19 -0.5 -24.5t23.5 -5.5h25l-7 -35h-250l7 35h25q20 0 26.5 5.5t10.5 24.5l117 550q4 20 -0.5 25t-23.5 5h-25l8 35h308q209 0 216 -136q4 -82 -48 -142.5t-140 -84.5
q101 -38 104 -153q3 -79 17.5 -104t65.5 -25zM308 335h83q90 0 135 59t45 157q2 53 -25.5 73.5t-87.5 20.5h-83zM378 -38q25 0 39 -14.5t14 -39.5q0 -58 -44 -103t-104 -45l6 26q28 0 51 15t23 34q0 15 -20 15q-19 0 -30.5 11.5t-11.5 30.5q0 29 22.5 49.5t54.5 20.5z" />
    <glyph glyph-name="rcommaaccent" unicode="&#x157;" horiz-adv-x="470" 
d="M463 510q27 0 47.5 -16t20.5 -45q0 -34 -24 -59t-54 -25q-50 0 -50 46q0 16 -2 22t-12 6q-27 0 -67.5 -66t-61.5 -159l-48 -214h-137l93 434q5 20 0.5 25.5t-23.5 5.5h-29l7 35h179l-11 -122q32 68 80 100t92 32zM133 -38q25 0 39 -14.5t14 -39.5q0 -58 -44 -103
t-104 -45l6 26q28 0 51 15t23 34q0 15 -20 15q-19 0 -30.5 11.5t-11.5 30.5q0 29 22.5 49.5t54.5 20.5z" />
    <glyph glyph-name="Rcaron" unicode="&#x158;" horiz-adv-x="733" 
d="M681 910l11 -21q-41 -20 -92.5 -64.5t-92.5 -96.5h-30q-19 50 -52 95.5t-64 65.5l19 21q71 -29 135 -74q87 47 166 74zM711 35h24l-7 -35h-106q-78 0 -112 31.5t-35 114.5q0 74 -11 106.5t-30 40t-67 7.5h-66l-49 -235q-5 -19 -0.5 -24.5t23.5 -5.5h25l-7 -35h-250l7 35
h25q20 0 26.5 5.5t10.5 24.5l117 550q4 20 -0.5 25t-23.5 5h-25l8 35h308q209 0 216 -136q4 -82 -48 -142.5t-140 -84.5q101 -38 104 -153q3 -79 17.5 -104t65.5 -25zM308 335h83q90 0 135 59t45 157q2 53 -25.5 73.5t-87.5 20.5h-83z" />
    <glyph glyph-name="rcaron" unicode="&#x159;" horiz-adv-x="470" 
d="M530 730l11 -21q-41 -20 -92.5 -64.5t-92.5 -96.5h-30q-19 50 -52 95.5t-64 65.5l19 21q71 -29 135 -74q87 47 166 74zM463 510q27 0 47.5 -16t20.5 -45q0 -34 -24 -59t-54 -25q-50 0 -50 46q0 16 -2 22t-12 6q-27 0 -67.5 -66t-61.5 -159l-48 -214h-137l93 434
q5 20 0.5 25.5t-23.5 5.5h-29l7 35h179l-11 -122q32 68 80 100t92 32z" />
    <glyph glyph-name="Sacute" unicode="&#x15a;" 
d="M606 910q20 0 31.5 -10t11.5 -28q0 -85 -227 -142l-6 24q70 23 112 97q31 59 78 59zM445 690q44 0 79 -9t54.5 -18.5t26.5 -9.5q11 0 14 15l4 12h35l-39 -180h-35q16 77 -20.5 115.5t-110.5 38.5q-62 0 -102 -29.5t-40 -79.5q0 -37 28 -69t68 -56t80 -50.5t68 -65.5
t28 -87q0 -107 -81.5 -167t-212.5 -60q-50 0 -91 10t-64 20.5t-29 10.5q-11 0 -14 -15l-3 -16h-35l38 180h35q-16 -76 26 -115t128 -39q75 0 127 36.5t52 96.5q0 38 -28 70.5t-67.5 57t-79.5 50.5t-68 63t-28 83q0 97 71 152t186 55z" />
    <glyph glyph-name="sacute" unicode="&#x15b;" horiz-adv-x="483" 
d="M509 730q20 0 31.5 -10t11.5 -28q0 -85 -227 -142l-6 24q70 23 112 97q31 59 78 59zM338 510q77 0 124 -28.5t47 -69.5q0 -31 -18.5 -50.5t-48.5 -19.5q-21 0 -34 11.5t-13 29.5q0 5 2.5 19.5t2.5 24.5q0 22 -18 35t-46 13q-35 0 -58.5 -21.5t-23.5 -56.5q0 -31 23 -54
t55.5 -39t65 -33.5t55.5 -47t23 -70.5q0 -79 -68.5 -121t-177.5 -42q-85 0 -130 28.5t-45 69.5q0 31 18.5 50.5t48.5 19.5q21 0 34 -11.5t13 -29.5q0 -5 -2.5 -19.5t-2.5 -23.5q0 -49 81 -49q51 0 78 22t27 63q0 25 -23.5 46.5t-56.5 38.5t-66 36.5t-56.5 50.5t-23.5 70
q0 74 60.5 116t153.5 42z" />
    <glyph glyph-name="Scedilla" unicode="&#x15e;" 
d="M623 680h35l-39 -180h-35q16 77 -20.5 115.5t-110.5 38.5q-62 0 -102 -29.5t-40 -79.5q0 -37 28 -69t68 -56t80 -50.5t68 -65.5t28 -87q0 -105 -79 -165t-206 -62l-29 -42q36 0 61.5 -17t25.5 -48q0 -45 -38 -74.5t-93 -29.5q-43 0 -66 13l14 25q22 -10 47 -10
q31 0 47.5 21.5t16.5 51.5q0 41 -61 41l47 69q-44 2 -81 12.5t-57.5 19.5t-26.5 9q-11 0 -14 -15l-3 -16h-35l38 180h35q-16 -76 26 -115t128 -39q75 0 127 36.5t52 96.5q0 38 -28 70.5t-67.5 57t-79.5 50.5t-68 63t-28 83q0 97 71 152t186 55q44 0 79 -9t54.5 -18.5
t26.5 -9.5q11 0 14 15z" />
    <glyph glyph-name="scedilla" unicode="&#x15f;" horiz-adv-x="483" 
d="M442 342q-21 0 -34 11.5t-13 29.5q0 5 2.5 19.5t2.5 24.5q0 22 -18 35t-46 13q-35 0 -58.5 -21.5t-23.5 -56.5q0 -31 23 -54t55.5 -39t65 -33.5t55.5 -47t23 -70.5q0 -77 -65 -119t-169 -44l-29 -42q36 0 61.5 -17t25.5 -48q0 -45 -38 -74.5t-93 -29.5q-43 0 -66 13
l14 25q22 -10 47 -10q31 0 47.5 21.5t16.5 51.5q0 41 -61 41l47 69q-77 3 -118 31t-41 67q0 31 18.5 50.5t48.5 19.5q21 0 34 -11.5t13 -29.5q0 -5 -2.5 -19.5t-2.5 -23.5q0 -49 81 -49q51 0 78 22t27 63q0 25 -23.5 46.5t-56.5 38.5t-66 36.5t-56.5 50.5t-23.5 70
q0 74 60.5 116t153.5 42q77 0 124 -28.5t47 -69.5q0 -31 -18.5 -50.5t-48.5 -19.5z" />
    <glyph glyph-name="Scaron" unicode="&#x160;" 
d="M645 910l11 -21q-41 -20 -92.5 -64.5t-92.5 -96.5h-30q-19 50 -52 95.5t-64 65.5l19 21q71 -29 135 -74q87 47 166 74zM445 690q44 0 79 -9t54.5 -18.5t26.5 -9.5q11 0 14 15l4 12h35l-39 -180h-35q16 77 -20.5 115.5t-110.5 38.5q-62 0 -102 -29.5t-40 -79.5
q0 -37 28 -69t68 -56t80 -50.5t68 -65.5t28 -87q0 -107 -81.5 -167t-212.5 -60q-50 0 -91 10t-64 20.5t-29 10.5q-11 0 -14 -15l-3 -16h-35l38 180h35q-16 -76 26 -115t128 -39q75 0 127 36.5t52 96.5q0 38 -28 70.5t-67.5 57t-79.5 50.5t-68 63t-28 83q0 97 71 152t186 55z
" />
    <glyph glyph-name="scaron" unicode="&#x161;" horiz-adv-x="483" 
d="M547 730l11 -21q-41 -20 -92.5 -64.5t-92.5 -96.5h-30q-19 50 -52 95.5t-64 65.5l19 21q71 -29 135 -74q87 47 166 74zM338 510q77 0 124 -28.5t47 -69.5q0 -31 -18.5 -50.5t-48.5 -19.5q-21 0 -34 11.5t-13 29.5q0 5 2.5 19.5t2.5 24.5q0 22 -18 35t-46 13
q-35 0 -58.5 -21.5t-23.5 -56.5q0 -31 23 -54t55.5 -39t65 -33.5t55.5 -47t23 -70.5q0 -79 -68.5 -121t-177.5 -42q-85 0 -130 28.5t-45 69.5q0 31 18.5 50.5t48.5 19.5q21 0 34 -11.5t13 -29.5q0 -5 -2.5 -19.5t-2.5 -23.5q0 -49 81 -49q51 0 78 22t27 63q0 25 -23.5 46.5
t-56.5 38.5t-66 36.5t-56.5 50.5t-23.5 70q0 74 60.5 116t153.5 42z" />
    <glyph glyph-name="uni0162" unicode="&#x162;" horiz-adv-x="628" 
d="M178 680h562l-39 -179h-35l4 15q5 28 5.5 47t-6 39.5t-28.5 31.5t-60 11h-30q-20 0 -26 -5.5t-10 -24.5l-117 -550q-4 -19 0 -24.5t24 -5.5h25l-8 -35h-110l-36 -52q36 0 61.5 -17t25.5 -48q0 -45 -38 -74.5t-93 -29.5q-43 0 -66 13l14 25q22 -10 47 -10q31 0 47.5 21.5
t16.5 51.5q0 41 -61 41l54 79h-112l8 35h25q19 0 25 5t11 25l117 550q4 20 -0.5 25t-23.5 5h-30q-71 0 -101.5 -35.5t-41.5 -93.5l-4 -15h-35z" />
    <glyph glyph-name="uni0163" unicode="&#x163;" horiz-adv-x="333" 
d="M310 465l-75 -354q-4 -19 -4 -30q0 -32 30 -32q19 0 32 15.5t17 36.5h35q-11 -52 -48.5 -80.5t-90.5 -30.5l-29 -42q36 0 61.5 -17t25.5 -48q0 -45 -38 -74.5t-93 -29.5q-43 0 -66 13l14 25q22 -10 47 -10q31 0 47.5 21.5t16.5 51.5q0 41 -61 41l48 70q-43 4 -64.5 25.5
t-21.5 56.5q0 15 3 28l78 364h-55l7 35h55l122 130h42l-28 -130h113l-7 -35h-113z" />
    <glyph glyph-name="Tcaron" unicode="&#x164;" horiz-adv-x="628" 
d="M659 910l11 -21q-41 -20 -92.5 -64.5t-92.5 -96.5h-30q-19 50 -52 95.5t-64 65.5l19 21q71 -29 135 -74q87 47 166 74zM740 680l-39 -179h-35l4 15q5 28 5.5 47t-6 39.5t-28.5 31.5t-60 11h-30q-20 0 -26 -5.5t-10 -24.5l-117 -550q-4 -19 0 -24.5t24 -5.5h25l-8 -35
h-250l8 35h25q19 0 25 5t11 25l117 550q4 20 -0.5 25t-23.5 5h-30q-71 0 -101.5 -35.5t-41.5 -93.5l-4 -15h-35l39 179h562z" />
    <glyph glyph-name="tcaron" unicode="&#x165;" horiz-adv-x="333" 
d="M471 755q24 0 38.5 -14.5t14.5 -40.5q0 -59 -47 -112t-105 -53l6 26q32 0 55 21t23 47q0 14 -20 14q-19 0 -30.5 11.5t-11.5 30.5q0 29 22.5 49.5t54.5 20.5zM310 465l-75 -354q-4 -19 -4 -30q0 -32 30 -32q19 0 32 15.5t17 36.5h35q-11 -54 -51.5 -82.5t-96.5 -28.5
q-52 0 -78 22.5t-26 60.5q0 15 3 28l78 364h-55l7 35h55l122 130h42l-28 -130h113l-7 -35h-113z" />
    <glyph glyph-name="Tbar" unicode="&#x166;" horiz-adv-x="628" 
d="M178 680h562l-39 -179h-35l4 15q5 28 5.5 47t-6 39.5t-28.5 31.5t-60 11h-30q-20 0 -26 -5.5t-10 -24.5l-54 -252h97l-10 -45h-96l-54 -253q-4 -19 0 -24.5t24 -5.5h25l-8 -35h-250l8 35h25q19 0 25 5t11 25l54 253h-98l11 45h96l54 252q4 20 -0.5 25t-23.5 5h-30
q-71 0 -101.5 -35.5t-41.5 -93.5l-4 -15h-35z" />
    <glyph glyph-name="tbar" unicode="&#x167;" horiz-adv-x="333" 
d="M423 465h-113l-36 -172h83l-9 -45h-84l-29 -137q-4 -19 -4 -30q0 -32 30 -32q19 0 32 15.5t17 36.5h35q-11 -54 -51.5 -82.5t-96.5 -28.5q-52 0 -78 22.5t-26 60.5q0 15 3 28l32 147h-55l8 45h56l37 172h-55l7 35h55l122 130h42l-28 -130h113z" />
    <glyph glyph-name="Umacron" unicode="&#x16a;" horiz-adv-x="755" 
d="M707 821l-8 -37h-272l7 37h273zM866 680l-8 -35h-36q-20 0 -26 -5.5t-10 -24.5l-79 -371q-26 -125 -111.5 -189.5t-202.5 -64.5q-125 0 -191 48.5t-67 143.5q0 38 8 73l77 360q4 20 -0.5 25t-23.5 5h-25l8 35h250l-8 -35h-25q-20 0 -26 -5.5t-10 -24.5l-78 -364
q-10 -47 -11 -78q-2 -75 36 -109t120 -34q85 0 151.5 55t88.5 159l79 371q4 20 -0.5 25t-23.5 5h-36l8 35h172z" />
    <glyph glyph-name="umacron" unicode="&#x16b;" horiz-adv-x="633" 
d="M570 641l-8 -37h-272l7 37h273zM317 500l-73 -347q-22 -105 56 -105q53 0 99.5 75.5t75.5 210.5l36 166h136l-87 -400q-9 -44 20 -44q30 0 39 45h35q-11 -55 -50.5 -83t-91.5 -28q-57 0 -77.5 29.5t-8.5 76.5l6 27q-61 -133 -190 -133q-78 0 -113.5 43t-18.5 128l57 273
q4 20 -0.5 25.5t-23.5 5.5h-28l7 35h195z" />
    <glyph glyph-name="Uring" unicode="&#x16e;" horiz-adv-x="755" 
d="M603 970q42 0 67.5 -24.5t25.5 -63.5q0 -58 -43 -99.5t-99 -41.5q-42 0 -67.5 24.5t-25.5 64.5q0 54 43 97t99 43zM595 934q-40 0 -69 -29.5t-29 -67.5q0 -27 17.5 -44t47.5 -17q40 0 68.5 28.5t28.5 70.5q0 27 -17 43t-47 16zM866 680l-8 -35h-36q-20 0 -26 -5.5
t-10 -24.5l-79 -371q-26 -125 -111.5 -189.5t-202.5 -64.5q-125 0 -191 48.5t-67 143.5q0 38 8 73l77 360q4 20 -0.5 25t-23.5 5h-25l8 35h250l-8 -35h-25q-20 0 -26 -5.5t-10 -24.5l-78 -364q-10 -47 -11 -78q-2 -75 36 -109t120 -34q85 0 151.5 55t88.5 159l79 371
q4 20 -0.5 25t-23.5 5h-36l8 35h172z" />
    <glyph glyph-name="uring" unicode="&#x16f;" horiz-adv-x="633" 
d="M465 790q42 0 67.5 -24.5t25.5 -63.5q0 -58 -43 -99.5t-99 -41.5q-42 0 -67.5 24.5t-25.5 64.5q0 54 43 97t99 43zM457 754q-40 0 -69 -29.5t-29 -67.5q0 -27 17.5 -44t47.5 -17q40 0 68.5 28.5t28.5 70.5q0 27 -17 43t-47 16zM317 500l-73 -347q-22 -105 56 -105
q53 0 99.5 75.5t75.5 210.5l36 166h136l-87 -400q-9 -44 20 -44q30 0 39 45h35q-11 -55 -50.5 -83t-91.5 -28q-57 0 -77.5 29.5t-8.5 76.5l6 27q-61 -133 -190 -133q-78 0 -113.5 43t-18.5 128l57 273q4 20 -0.5 25.5t-23.5 5.5h-28l7 35h195z" />
    <glyph glyph-name="Uhungarumlaut" unicode="&#x170;" horiz-adv-x="755" 
d="M626 910q20 0 31.5 -10t11.5 -28q0 -85 -227 -142l-5 25q70 22 111 96q31 59 78 59zM806 910q20 0 31.5 -10t11.5 -28q0 -85 -227 -142l-5 25q70 22 111 96q31 59 78 59zM866 680l-8 -35h-36q-20 0 -26 -5.5t-10 -24.5l-79 -371q-26 -125 -111.5 -189.5t-202.5 -64.5
q-125 0 -191 48.5t-67 143.5q0 38 8 73l77 360q4 20 -0.5 25t-23.5 5h-25l8 35h250l-8 -35h-25q-20 0 -26 -5.5t-10 -24.5l-78 -364q-10 -47 -11 -78q-2 -75 36 -109t120 -34q85 0 151.5 55t88.5 159l79 371q4 20 -0.5 25t-23.5 5h-36l8 35h172z" />
    <glyph glyph-name="uhungarumlaut" unicode="&#x171;" horiz-adv-x="633" 
d="M488 730q20 0 31.5 -10t11.5 -28q0 -85 -227 -142l-5 25q70 22 111 96q31 59 78 59zM668 730q20 0 31.5 -10t11.5 -28q0 -85 -227 -142l-5 25q70 22 111 96q31 59 78 59zM317 500l-73 -347q-22 -105 56 -105q53 0 99.5 75.5t75.5 210.5l36 166h136l-87 -400
q-9 -44 20 -44q30 0 39 45h35q-11 -55 -50.5 -83t-91.5 -28q-57 0 -77.5 29.5t-8.5 76.5l6 27q-61 -133 -190 -133q-78 0 -113.5 43t-18.5 128l57 273q4 20 -0.5 25.5t-23.5 5.5h-28l7 35h195z" />
    <glyph glyph-name="Uogonek" unicode="&#x172;" horiz-adv-x="755" 
d="M694 680h172l-8 -35h-36q-20 0 -26 -5.5t-10 -24.5l-79 -371q-25 -119 -103.5 -183t-187.5 -70q-80 -72 -80 -127q0 -39 42 -39q27 0 47 13l5 -19q-44 -30 -91 -30q-34 0 -53.5 15.5t-19.5 42.5q0 70 115 143q-119 2 -182 51t-64 141q0 38 8 73l77 360q4 20 -0.5 25
t-23.5 5h-25l8 35h250l-8 -35h-25q-20 0 -26 -5.5t-10 -24.5l-78 -364q-10 -47 -11 -78q-2 -75 36 -109t120 -34q85 0 151.5 55t88.5 159l79 371q4 20 -0.5 25t-23.5 5h-36z" />
    <glyph glyph-name="uogonek" unicode="&#x173;" horiz-adv-x="633" 
d="M568 -1q-90 -74 -90 -135q0 -39 42 -39q27 0 47 13l5 -19q-44 -30 -91 -30q-34 0 -53.5 15.5t-19.5 42.5q0 70 115 143h-11q-57 0 -77.5 29.5t-8.5 76.5l6 27q-61 -133 -190 -133q-78 0 -113.5 43t-18.5 128l57 273q4 20 -0.5 25.5t-23.5 5.5h-28l7 35h195l-73 -347
q-22 -105 56 -105q53 0 99.5 75.5t75.5 210.5l36 166h136l-87 -400q-9 -44 20 -44q30 0 39 45h35q-16 -77 -86 -102z" />
    <glyph glyph-name="Wcircumflex" unicode="&#x174;" horiz-adv-x="1058" 
d="M860 736q-74 30 -135 74q-72 -42 -166 -74l-10 21q39 19 92 65t92 96h31q19 -53 51.5 -97.5t63.5 -63.5zM1006 680h187l-8 -35h-34q-20 0 -28 -5t-19 -24l-363 -621h-36l-70 435l-272 -435h-37l-117 620q-4 19 -10.5 24.5t-25.5 5.5h-26l8 35h281l-8 -35h-54
q-27 0 -21 -30l82 -445l191 313l-22 132q-4 19 -10.5 24.5t-25.5 5.5h-26l8 35h281l-8 -35h-54q-27 0 -21 -30l65 -430l246 429q19 31 -8 31h-53z" />
    <glyph glyph-name="wcircumflex" unicode="&#x175;" horiz-adv-x="824" 
d="M538 630q-72 -42 -166 -74l-10 21q39 19 92 65t92 96h31q19 -53 51.5 -97.5t63.5 -63.5l-19 -21q-74 30 -135 74zM755 510q35 0 55 -27t20 -71q0 -50 -21 -96t-55.5 -84.5t-71 -74t-76.5 -80.5t-63 -87h-47q11 25 11 57q0 17 -2.5 33t-9 34.5t-11 30t-14.5 33.5t-14 31
q-9 -13 -73 -90.5t-92 -128.5h-48q12 27 12 57q0 33 -18 71t-39 67.5t-39 69.5t-18 75q0 83 116 180l25 -19q-33 -40 -33 -83q0 -31 23 -68t46 -79.5t23 -88.5q0 -31 -21 -88q12 17 57 76.5t62 91.5q-13 41 -13 78q0 91 123 180l25 -19q-33 -42 -33 -83q0 -34 28 -102.5
t28 -126.5q0 -45 -24 -95q20 29 57 68t65.5 67t50.5 65t22 70q0 28 -31 56t-31 51q0 22 15.5 35.5t33.5 13.5z" />
    <glyph glyph-name="Ycircumflex" unicode="&#x176;" horiz-adv-x="688" 
d="M689 736q-74 30 -135 74q-72 -42 -166 -74l-10 21q39 19 92 65t92 96h31q19 -53 51.5 -97.5t63.5 -63.5zM823 680l-8 -35h-31q-21 0 -31 -6.5t-21 -22.5l-259 -352l-41 -199q-5 -19 -0.5 -24.5t23.5 -5.5h25l-7 -35h-250l7 35h25q20 0 26.5 5.5t10.5 24.5l35 168
l-115 382q-6 18 -12.5 24t-25.5 6h-27l8 35h289l-8 -35h-55q-29 0 -21 -30l91 -322l236 321q23 31 -8 31h-48l8 35h184z" />
    <glyph glyph-name="ycircumflex" unicode="&#x177;" horiz-adv-x="571" 
d="M552 556q-74 30 -135 74q-72 -42 -166 -74l-10 21q39 19 92 65t92 96h31q19 -53 51.5 -97.5t63.5 -63.5zM503 510q35 0 55 -27t20 -71q0 -63 -49 -169t-119.5 -206t-159 -173.5t-158.5 -73.5q-39 0 -59.5 18.5t-20.5 47.5q0 28 18.5 46.5t46.5 18.5q21 0 33 -11t12 -29
q0 -13 -7.5 -26.5t-7.5 -18.5q0 -11 17 -11q39 0 102.5 62t63.5 111q0 40 -23.5 84.5t-51 78t-51 80t-23.5 89.5q0 83 116 180l25 -19q-33 -42 -33 -83q0 -27 18 -59t40 -59.5t40 -73t18 -95.5q0 -52 -18 -109q62 82 115 182t53 160q0 28 -31 56t-31 51q0 22 16 35.5
t34 13.5z" />
    <glyph glyph-name="Ydieresis" unicode="&#x178;" horiz-adv-x="688" 
d="M474 879q23 0 36.5 -13.5t13.5 -34.5q0 -29 -22.5 -52t-53.5 -23q-23 0 -36.5 13.5t-13.5 34.5q0 29 22.5 52t53.5 23zM664 879q23 0 36.5 -13.5t13.5 -34.5q0 -29 -22.5 -52t-53.5 -23q-23 0 -36.5 13.5t-13.5 34.5q0 29 22.5 52t53.5 23zM823 680l-8 -35h-31
q-21 0 -31 -6.5t-21 -22.5l-259 -352l-41 -199q-5 -19 -0.5 -24.5t23.5 -5.5h25l-7 -35h-250l7 35h25q20 0 26.5 5.5t10.5 24.5l35 168l-115 382q-6 18 -12.5 24t-25.5 6h-27l8 35h289l-8 -35h-55q-29 0 -21 -30l91 -322l236 321q23 31 -8 31h-48l8 35h184z" />
    <glyph glyph-name="Zacute" unicode="&#x179;" horiz-adv-x="663" 
d="M630 910q20 0 31.5 -10t11.5 -28q0 -85 -227 -142l-6 24q70 23 112 97q31 59 78 59zM735 680l-8 -35l-493 -606h226q40 0 69 11.5t44.5 32t23 38.5t13.5 43l3 15h35l-38 -179h-557l7 35l493 606h-185q-41 0 -69.5 -10.5t-44 -30t-23.5 -38.5t-13 -46l-4 -15h-35l39 179
h517z" />
    <glyph glyph-name="zacute" unicode="&#x17a;" horiz-adv-x="486" 
d="M564 692q0 -85 -227 -142l-6 24q70 23 112 97q31 59 78 59q20 0 31.5 -10t11.5 -28zM428 53q32 0 44 48h34q-24 -171 -143 -171q-31 0 -62 17.5t-52 39t-48.5 39t-52.5 17.5q-42 0 -86 -54l-26 18q28 51 65 97t81 86.5t80.5 69.5t89 68.5t80.5 62.5q-66 -32 -140 -32
q-50 0 -126 19l-13 -55h-35l42 187q208 -41 277 -41q47 0 68 12t37 40l28 -17q-25 -50 -83.5 -108.5t-119 -104t-130.5 -104.5t-108 -104q39 20 82 20q42 0 113 -25t104 -25z" />
    <glyph glyph-name="Zdotaccent" unicode="&#x17b;" horiz-adv-x="663" 
d="M514 894q27 0 44 -17t17 -43q0 -35 -28.5 -62t-63.5 -27q-27 0 -43.5 16.5t-16.5 41.5q0 36 28 63.5t63 27.5zM735 680l-8 -35l-493 -606h226q40 0 69 11.5t44.5 32t23 38.5t13.5 43l3 15h35l-38 -179h-557l7 35l493 606h-185q-41 0 -69.5 -10.5t-44 -30t-23.5 -38.5
t-13 -46l-4 -15h-35l39 179h517z" />
    <glyph glyph-name="zdotaccent" unicode="&#x17c;" horiz-adv-x="486" 
d="M374 565q-27 0 -43.5 16.5t-16.5 41.5q0 36 28 63.5t63 27.5q27 0 44 -17t17 -43q0 -35 -28.5 -62t-63.5 -27zM428 53q32 0 44 48h34q-24 -171 -143 -171q-31 0 -62 17.5t-52 39t-48.5 39t-52.5 17.5q-42 0 -86 -54l-26 18q28 51 65 97t81 86.5t80.5 69.5t89 68.5
t80.5 62.5q-66 -32 -140 -32q-50 0 -126 19l-13 -55h-35l42 187q208 -41 277 -41q47 0 68 12t37 40l28 -17q-25 -50 -83.5 -108.5t-119 -104t-130.5 -104.5t-108 -104q39 20 82 20q42 0 113 -25t104 -25z" />
    <glyph glyph-name="Zcaron" unicode="&#x17d;" horiz-adv-x="663" 
d="M669 910l11 -21q-41 -20 -92.5 -64.5t-92.5 -96.5h-30q-19 50 -52 95.5t-64 65.5l19 21q71 -29 135 -74q87 47 166 74zM735 680l-8 -35l-493 -606h226q40 0 69 11.5t44.5 32t23 38.5t13.5 43l3 15h35l-38 -179h-557l7 35l493 606h-185q-41 0 -69.5 -10.5t-44 -30
t-23.5 -38.5t-13 -46l-4 -15h-35l39 179h517z" />
    <glyph glyph-name="zcaron" unicode="&#x17e;" horiz-adv-x="486" 
d="M355 548q-19 50 -52 95.5t-64 65.5l19 21q71 -29 135 -74q87 47 166 74l11 -21q-41 -20 -92.5 -64.5t-92.5 -96.5h-30zM570 504q-25 -50 -83.5 -108.5t-119 -104t-130.5 -104.5t-108 -104q39 20 82 20q42 0 113 -25t104 -25q32 0 44 48h34q-24 -171 -143 -171
q-31 0 -62 17.5t-52 39t-48.5 39t-52.5 17.5q-42 0 -86 -54l-26 18q28 51 65 97t81 86.5t80.5 69.5t89 68.5t80.5 62.5q-66 -32 -140 -32q-50 0 -126 19l-13 -55h-35l42 187q208 -41 277 -41q47 0 68 12t37 40z" />
    <glyph glyph-name="florin" unicode="&#x192;" horiz-adv-x="477" 
d="M536 710q49 0 74 -17.5t25 -46.5q0 -30 -22.5 -53.5t-52.5 -23.5q-42 0 -42 33q0 12 9.5 34.5t9.5 26.5q0 12 -19 12q-41 0 -69 -92l-26 -83h94l-12 -35h-94l-160 -506q-25 -77 -86 -123t-151 -46q-48 0 -74 18t-26 46q0 29 23.5 53t52.5 24q43 0 43 -32q0 -10 -10 -32
t-10 -29q0 -13 19 -13q40 0 69 92l174 548h-55l12 35h55l12 41q25 77 86 123t151 46z" />
    <glyph glyph-name="Scommaaccent" unicode="&#x218;" 
d="M445 690q44 0 79 -9t54.5 -18.5t26.5 -9.5q11 0 14 15l4 12h35l-39 -180h-35q16 77 -20.5 115.5t-110.5 38.5q-62 0 -102 -29.5t-40 -79.5q0 -37 28 -69t68 -56t80 -50.5t68 -65.5t28 -87q0 -107 -81.5 -167t-212.5 -60q-50 0 -91 10t-64 20.5t-29 10.5q-11 0 -14 -15
l-3 -16h-35l38 180h35q-16 -76 26 -115t128 -39q75 0 127 36.5t52 96.5q0 38 -28 70.5t-67.5 57t-79.5 50.5t-68 63t-28 83q0 97 71 152t186 55zM282 -38q25 0 39 -14.5t14 -39.5q0 -58 -44 -103t-104 -45l6 26q28 0 51 15t23 34q0 15 -20 15q-19 0 -30.5 11.5t-11.5 30.5
q0 29 22.5 49.5t54.5 20.5z" />
    <glyph glyph-name="scommaaccent" unicode="&#x219;" horiz-adv-x="483" 
d="M338 510q77 0 124 -28.5t47 -69.5q0 -31 -18.5 -50.5t-48.5 -19.5q-21 0 -34 11.5t-13 29.5q0 5 2.5 19.5t2.5 24.5q0 22 -18 35t-46 13q-35 0 -58.5 -21.5t-23.5 -56.5q0 -31 23 -54t55.5 -39t65 -33.5t55.5 -47t23 -70.5q0 -79 -68.5 -121t-177.5 -42q-85 0 -130 28.5
t-45 69.5q0 31 18.5 50.5t48.5 19.5q21 0 34 -11.5t13 -29.5q0 -5 -2.5 -19.5t-2.5 -23.5q0 -49 81 -49q51 0 78 22t27 63q0 25 -23.5 46.5t-56.5 38.5t-66 36.5t-56.5 50.5t-23.5 70q0 74 60.5 116t153.5 42zM226 -38q25 0 39 -14.5t14 -39.5q0 -58 -44 -103t-104 -45l6 26
q28 0 51 15t23 34q0 15 -20 15q-19 0 -30.5 11.5t-11.5 30.5q0 29 22.5 49.5t54.5 20.5z" />
    <glyph glyph-name="uni021A" unicode="&#x21a;" horiz-adv-x="628" 
d="M740 680l-39 -179h-35l4 15q5 28 5.5 47t-6 39.5t-28.5 31.5t-60 11h-30q-20 0 -26 -5.5t-10 -24.5l-117 -550q-4 -19 0 -24.5t24 -5.5h25l-8 -35h-250l8 35h25q19 0 25 5t11 25l117 550q4 20 -0.5 25t-23.5 5h-30q-71 0 -101.5 -35.5t-41.5 -93.5l-4 -15h-35l39 179h562
zM306 -38q25 0 39 -14.5t14 -39.5q0 -58 -44 -103t-104 -45l6 26q28 0 51 15t23 34q0 15 -20 15q-19 0 -30.5 11.5t-11.5 30.5q0 29 22.5 49.5t54.5 20.5z" />
    <glyph glyph-name="uni021B" unicode="&#x21b;" horiz-adv-x="333" 
d="M310 465l-75 -354q-4 -19 -4 -30q0 -32 30 -32q19 0 32 15.5t17 36.5h35q-11 -54 -51.5 -82.5t-96.5 -28.5q-52 0 -78 22.5t-26 60.5q0 15 3 28l78 364h-55l7 35h55l122 130h42l-28 -130h113l-7 -35h-113zM190 -38q25 0 39 -14.5t14 -39.5q0 -58 -44 -103t-104 -45l6 26
q28 0 51 15t23 34q0 15 -20 15q-19 0 -30.5 11.5t-11.5 30.5q0 29 22.5 49.5t54.5 20.5z" />
    <glyph glyph-name="uni0237" unicode="&#x237;" horiz-adv-x="288" 
d="M317 500l-114 -541q-17 -76 -72.5 -122.5t-145.5 -46.5q-50 0 -75.5 19t-25.5 51q0 30 18 50.5t47 20.5q42 0 42 -38q0 -12 -7.5 -31.5t-7.5 -24.5q0 -16 21 -16q41 0 60 92l110 521q5 20 0.5 25.5t-23.5 5.5h-28l7 35h194z" />
    <glyph glyph-name="circumflex" unicode="&#x2c6;" horiz-adv-x="413" 
d="M475 556q-74 30 -135 74q-72 -42 -166 -74l-10 21q39 19 92 65t92 96h31q19 -53 51.5 -97.5t63.5 -63.5z" />
    <glyph glyph-name="caron" unicode="&#x2c7;" horiz-adv-x="413" 
d="M512 730l11 -21q-41 -20 -92.5 -64.5t-92.5 -96.5h-30q-19 50 -52 95.5t-64 65.5l19 21q71 -29 135 -74q87 47 166 74z" />
    <glyph glyph-name="breve" unicode="&#x2d8;" horiz-adv-x="379" 
d="M486 713q-58 -163 -182 -163q-63 0 -88.5 40t-18.5 123h27q-1 -36 20 -59.5t77 -23.5q104 0 137 83h28z" />
    <glyph glyph-name="dotaccent" unicode="&#x2d9;" horiz-adv-x="239" 
d="M271 714q27 0 44 -17t17 -43q0 -35 -28.5 -62t-63.5 -27q-27 0 -43.5 16.5t-16.5 41.5q0 36 28 63.5t63 27.5z" />
    <glyph glyph-name="ring" unicode="&#x2da;" horiz-adv-x="290" 
d="M313 790q42 0 67.5 -24.5t25.5 -63.5q0 -58 -43 -99.5t-99 -41.5q-42 0 -67.5 24.5t-25.5 64.5q0 54 43 97t99 43zM305 754q-40 0 -69 -29.5t-29 -67.5q0 -27 17.5 -44t47.5 -17q40 0 68.5 28.5t28.5 70.5q0 27 -17 43t-47 16z" />
    <glyph glyph-name="ogonek" unicode="&#x2db;" horiz-adv-x="271" 
d="M180 0q-91 -75 -91 -136q0 -39 42 -39q27 0 47 13l5 -19q-44 -30 -91 -30q-34 0 -53.5 15.5t-19.5 42.5q0 25 12.5 48.5t36 44t40.5 33t42 27.5h30z" />
    <glyph glyph-name="tilde" unicode="&#x2dc;" horiz-adv-x="370" 
d="M476 692q-25 -119 -101 -119q-26 0 -74 19t-69 19q-31 0 -40 -38h-29q12 59 39 89t62 30q27 0 72 -19t67 -19q35 0 44 38h29z" />
    <glyph glyph-name="hungarumlaut" unicode="&#x2dd;" horiz-adv-x="478" 
d="M356 730q20 0 31.5 -10t11.5 -28q0 -85 -227 -142l-5 25q70 22 111 96q31 59 78 59zM536 730q20 0 31.5 -10t11.5 -28q0 -85 -227 -142l-5 25q70 22 111 96q31 59 78 59z" />
    <glyph glyph-name="gravecomb" unicode="&#x300;" horiz-adv-x="0" 
d="M-46 730q50 0 55 -59q7 -73 69 -96l-14 -25q-173 48 -173 116q0 27 18 45.5t45 18.5z" />
    <glyph glyph-name="acutecomb" unicode="&#x301;" horiz-adv-x="0" 
d="M59 730q20 0 31.5 -10t11.5 -28q0 -84 -228 -142l-6 24q70 23 112 97q32 59 79 59z" />
    <glyph glyph-name="uni0302" unicode="&#x302;" horiz-adv-x="0" 
d="M63 556q-77 31 -136 74q-72 -42 -166 -74l-10 21q39 19 92 65t92 96h31q19 -53 51.5 -97.5t64.5 -63.5z" />
    <glyph glyph-name="tildecomb" unicode="&#x303;" horiz-adv-x="0" 
d="M106 692q-25 -119 -101 -119q-26 0 -74 19t-69 19q-31 0 -40 -38h-29q12 59 39 89t62 30q27 0 72 -19t67 -19q35 0 44 38h29z" />
    <glyph glyph-name="uni0304" unicode="&#x304;" horiz-adv-x="0" 
d="M92 641l-8 -37h-273l7 37h274z" />
    <glyph glyph-name="uni0306" unicode="&#x306;" horiz-adv-x="0" 
d="M107 713q-58 -163 -182 -163q-63 0 -88.5 40t-18.5 123h27q-1 -36 20 -59.5t77 -23.5q104 0 137 83h28z" />
    <glyph glyph-name="uni0307" unicode="&#x307;" horiz-adv-x="0" 
d="M32 714q27 0 44 -17t17 -43q0 -35 -28.5 -62t-63.5 -27q-27 0 -43.5 16.5t-16.5 41.5q0 36 28 63.5t63 27.5z" />
    <glyph glyph-name="uni0308" unicode="&#x308;" horiz-adv-x="0" 
d="M-148 699q23 0 36.5 -13.5t13.5 -34.5q0 -29 -22.5 -52t-53.5 -23q-23 0 -36.5 13.5t-13.5 34.5q0 29 22.5 52t53.5 23zM43 699q23 0 36.5 -13.5t13.5 -34.5q0 -29 -22.5 -52t-53.5 -23q-24 0 -37.5 13.5t-13.5 34.5q0 29 22.5 52t54.5 23z" />
    <glyph glyph-name="uni030A" unicode="&#x30a;" horiz-adv-x="0" 
d="M23 790q42 0 67.5 -24.5t25.5 -63.5q0 -58 -43 -99.5t-99 -41.5q-42 0 -67.5 24.5t-25.5 64.5q0 54 43 97t99 43zM15 754q-40 0 -69 -29.5t-29 -67.5q0 -27 17.5 -44t47.5 -17q40 0 68.5 28.5t28.5 70.5q0 27 -17 43t-47 16z" />
    <glyph glyph-name="uni030B" unicode="&#x30b;" horiz-adv-x="0" 
d="M-122 730q20 0 31.5 -10t11.5 -28q0 -85 -227 -142l-5 25q70 22 111 96q31 59 78 59zM59 730q20 0 31.5 -10t11.5 -28q0 -85 -228 -142l-5 25q70 22 111 96q32 59 79 59z" />
    <glyph glyph-name="uni030C" unicode="&#x30c;" horiz-adv-x="0" 
d="M100 730l11 -21q-41 -20 -93 -64.5t-93 -96.5h-30q-19 50 -52 95.5t-64 65.5l19 21q71 -29 135 -74q86 46 167 74z" />
    <glyph glyph-name="uni0312" unicode="&#x312;" horiz-adv-x="0" 
d="M17 573q-25 0 -39 14.5t-14 39.5q0 58 44 103t104 45l-5 -26q-29 0 -52.5 -15t-23.5 -35q0 -14 21 -14q19 0 30.5 -11.5t11.5 -30.5q0 -29 -22.5 -49.5t-54.5 -20.5z" />
    <glyph glyph-name="uni0326" unicode="&#x326;" horiz-adv-x="0" 
d="M-113 -38q25 0 39 -14.5t14 -39.5q0 -58 -44 -103t-104 -45l6 26q28 0 51 15t23 34q0 15 -20 15q-19 0 -30.5 11.5t-11.5 30.5q0 29 22.5 49.5t54.5 20.5z" />
    <glyph glyph-name="uni0327" unicode="&#x327;" horiz-adv-x="0" 
d="M-127 0l-36 -52q36 0 61.5 -17t25.5 -48q0 -45 -38 -74.5t-93 -29.5q-43 0 -66 13l14 25q22 -10 47 -10q31 0 47.5 21.5t16.5 51.5q0 41 -61 41l54 79h28z" />
    <glyph glyph-name="uni0328" unicode="&#x328;" horiz-adv-x="0" 
d="M-91 0q-91 -75 -91 -136q0 -39 42 -39q27 0 47 13l5 -19q-44 -30 -91 -30q-34 0 -53.5 15.5t-19.5 42.5q0 25 12.5 48.5t36 44t40.5 33t42 27.5h30z" />
    <glyph glyph-name="uni0335" unicode="&#x335;" horiz-adv-x="0" 
d="M11 288l-9 -45h-290l9 45h290z" />
    <glyph glyph-name="uni0336" unicode="&#x336;" horiz-adv-x="0" 
d="M12 288l-9 -45h-689l9 45h689z" />
    <glyph glyph-name="uni0337" unicode="&#x337;" horiz-adv-x="0" 
d="M-5 413l-285 -185l10 50l286 185z" />
    <glyph glyph-name="uni0338" unicode="&#x338;" horiz-adv-x="0" 
d="M78 700l-562 -700h-45l562 700h45z" />
    <glyph glyph-name="uni0394" unicode="&#x394;" horiz-adv-x="730" 
d="M520 685l157 -685h-623l430 685h36zM124 40h404l-102 486z" />
    <glyph glyph-name="uni03A9" unicode="&#x3a9;" horiz-adv-x="848" 
d="M744 149l4 15h36l-35 -164h-265l30 141q98 40 159 133.5t61 201.5q0 87 -43.5 142.5t-123.5 55.5q-74 0 -140.5 -52t-104.5 -130.5t-38 -157.5q0 -66 29.5 -117.5t80.5 -75.5l-8 -36l-15 -69h1l-8 -36h-265l35 164h36l-3 -15q-14 -64 9 -88.5t94 -24.5h65l16 75
q-100 22 -154.5 83t-54.5 150q0 101 63.5 186.5t162.5 132.5t207 47q133 0 218 -69.5t85 -176.5q0 -129 -96.5 -226.5t-238.5 -126.5l-15 -75h66q71 0 104 24.5t46 88.5z" />
    <glyph glyph-name="uni03BC" unicode="&#x3bc;" horiz-adv-x="633" 
d="M619 101h35q-11 -55 -50.5 -83t-91.5 -28q-57 0 -77.5 29.5t-8.5 76.5l6 27q-61 -133 -190 -133q-12 0 -32 2l-7 -33q-17 -76 -72.5 -122.5t-145.5 -46.5q-50 0 -75.5 19t-25.5 51q0 30 18 50.5t47 20.5q42 0 42 -38q0 -12 -7.5 -31.5t-7.5 -24.5q0 -16 21 -16
q40 0 60 92l53 248l57 273q4 20 -0.5 25.5t-23.5 5.5h-28l7 35h195l-73 -347q-22 -105 56 -105q53 0 99.5 75.5t75.5 210.5l36 166h136l-87 -400q-9 -44 20 -44q30 0 39 45z" />
    <glyph glyph-name="pi" unicode="&#x3c0;" horiz-adv-x="620" 
d="M704 500l-7 -35h-25q-20 0 -26.5 -5.5t-10.5 -24.5l-78 -370q-5 -19 -0.5 -24.5t23.5 -5.5h25l-7 -35h-247l8 35h25q19 0 25 5t11 25l84 395h-192l-84 -395q-4 -19 0 -24.5t24 -5.5h25l-8 -35h-246l7 35h25q20 0 26.5 5.5t10.5 24.5l78 370q5 19 0.5 24.5t-23.5 5.5h-25
l7 35h575z" />
    <glyph glyph-name="Wgrave" unicode="&#x1e80;" horiz-adv-x="1058" 
d="M647 910q49 0 54 -59q7 -73 69 -96l-14 -25q-172 48 -172 116q0 27 18 45.5t45 18.5zM1006 680h187l-8 -35h-34q-20 0 -28 -5t-19 -24l-363 -621h-36l-70 435l-272 -435h-37l-117 620q-4 19 -10.5 24.5t-25.5 5.5h-26l8 35h281l-8 -35h-54q-27 0 -21 -30l82 -445l191 313
l-22 132q-4 19 -10.5 24.5t-25.5 5.5h-26l8 35h281l-8 -35h-54q-27 0 -21 -30l65 -430l246 429q19 31 -8 31h-53z" />
    <glyph glyph-name="wgrave" unicode="&#x1e81;" horiz-adv-x="824" 
d="M568 550q-172 48 -172 116q0 27 18 45.5t45 18.5q49 0 54 -59q7 -73 69 -96zM755 510q35 0 55 -27t20 -71q0 -50 -21 -96t-55.5 -84.5t-71 -74t-76.5 -80.5t-63 -87h-47q11 25 11 57q0 17 -2.5 33t-9 34.5t-11 30t-14.5 33.5t-14 31q-9 -13 -73 -90.5t-92 -128.5h-48
q12 27 12 57q0 33 -18 71t-39 67.5t-39 69.5t-18 75q0 83 116 180l25 -19q-33 -40 -33 -83q0 -31 23 -68t46 -79.5t23 -88.5q0 -31 -21 -88q12 17 57 76.5t62 91.5q-13 41 -13 78q0 91 123 180l25 -19q-33 -42 -33 -83q0 -34 28 -102.5t28 -126.5q0 -45 -24 -95q20 29 57 68
t65.5 67t50.5 65t22 70q0 28 -31 56t-31 51q0 22 15.5 35.5t33.5 13.5z" />
    <glyph glyph-name="Wacute" unicode="&#x1e82;" horiz-adv-x="1058" 
d="M859 910q20 0 31.5 -10t11.5 -28q0 -85 -227 -142l-6 24q70 23 112 97q31 59 78 59zM1006 680h187l-8 -35h-34q-20 0 -28 -5t-19 -24l-363 -621h-36l-70 435l-272 -435h-37l-117 620q-4 19 -10.5 24.5t-25.5 5.5h-26l8 35h281l-8 -35h-54q-27 0 -21 -30l82 -445l191 313
l-22 132q-4 19 -10.5 24.5t-25.5 5.5h-26l8 35h281l-8 -35h-54q-27 0 -21 -30l65 -430l246 429q19 31 -8 31h-53z" />
    <glyph glyph-name="wacute" unicode="&#x1e83;" horiz-adv-x="824" 
d="M715 692q0 -85 -227 -142l-6 24q70 23 112 97q31 59 78 59q20 0 31.5 -10t11.5 -28zM755 510q35 0 55 -27t20 -71q0 -50 -21 -96t-55.5 -84.5t-71 -74t-76.5 -80.5t-63 -87h-47q11 25 11 57q0 17 -2.5 33t-9 34.5t-11 30t-14.5 33.5t-14 31q-9 -13 -73 -90.5t-92 -128.5
h-48q12 27 12 57q0 33 -18 71t-39 67.5t-39 69.5t-18 75q0 83 116 180l25 -19q-33 -40 -33 -83q0 -31 23 -68t46 -79.5t23 -88.5q0 -31 -21 -88q12 17 57 76.5t62 91.5q-13 41 -13 78q0 91 123 180l25 -19q-33 -42 -33 -83q0 -34 28 -102.5t28 -126.5q0 -45 -24 -95
q20 29 57 68t65.5 67t50.5 65t22 70q0 28 -31 56t-31 51q0 22 15.5 35.5t33.5 13.5z" />
    <glyph glyph-name="Wdieresis" unicode="&#x1e84;" horiz-adv-x="1058" 
d="M645 879q23 0 36.5 -13.5t13.5 -34.5q0 -29 -22.5 -52t-53.5 -23q-23 0 -36.5 13.5t-13.5 34.5q0 29 22.5 52t53.5 23zM835 879q23 0 36.5 -13.5t13.5 -34.5q0 -29 -22.5 -52t-53.5 -23q-23 0 -36.5 13.5t-13.5 34.5q0 29 22.5 52t53.5 23zM1006 680h187l-8 -35h-34
q-20 0 -28 -5t-19 -24l-363 -621h-36l-70 435l-272 -435h-37l-117 620q-4 19 -10.5 24.5t-25.5 5.5h-26l8 35h281l-8 -35h-54q-27 0 -21 -30l82 -445l191 313l-22 132q-4 19 -10.5 24.5t-25.5 5.5h-26l8 35h281l-8 -35h-54q-27 0 -21 -30l65 -430l246 429q19 31 -8 31h-53z
" />
    <glyph glyph-name="wdieresis" unicode="&#x1e85;" horiz-adv-x="824" 
d="M432 576q-23 0 -36.5 13.5t-13.5 34.5q0 29 22.5 52t53.5 23q23 0 36.5 -13.5t13.5 -34.5q0 -29 -22.5 -52t-53.5 -23zM622 576q-23 0 -36.5 13.5t-13.5 34.5q0 29 22.5 52t53.5 23q23 0 36.5 -13.5t13.5 -34.5q0 -29 -22.5 -52t-53.5 -23zM755 510q35 0 55 -27t20 -71
q0 -50 -21 -96t-55.5 -84.5t-71 -74t-76.5 -80.5t-63 -87h-47q11 25 11 57q0 17 -2.5 33t-9 34.5t-11 30t-14.5 33.5t-14 31q-9 -13 -73 -90.5t-92 -128.5h-48q12 27 12 57q0 33 -18 71t-39 67.5t-39 69.5t-18 75q0 83 116 180l25 -19q-33 -40 -33 -83q0 -31 23 -68
t46 -79.5t23 -88.5q0 -31 -21 -88q12 17 57 76.5t62 91.5q-13 41 -13 78q0 91 123 180l25 -19q-33 -42 -33 -83q0 -34 28 -102.5t28 -126.5q0 -45 -24 -95q20 29 57 68t65.5 67t50.5 65t22 70q0 28 -31 56t-31 51q0 22 15.5 35.5t33.5 13.5z" />
    <glyph glyph-name="Ygrave" unicode="&#x1ef2;" horiz-adv-x="688" 
d="M476 910q49 0 54 -59q7 -73 69 -96l-14 -25q-172 48 -172 116q0 27 18 45.5t45 18.5zM823 680l-8 -35h-31q-21 0 -31 -6.5t-21 -22.5l-259 -352l-41 -199q-5 -19 -0.5 -24.5t23.5 -5.5h25l-7 -35h-250l7 35h25q20 0 26.5 5.5t10.5 24.5l35 168l-115 382q-6 18 -12.5 24
t-25.5 6h-27l8 35h289l-8 -35h-55q-29 0 -21 -30l91 -322l236 321q23 31 -8 31h-48l8 35h184z" />
    <glyph glyph-name="ygrave" unicode="&#x1ef3;" horiz-adv-x="571" 
d="M338 730q49 0 54 -59q7 -73 69 -96l-14 -25q-172 48 -172 116q0 27 18 45.5t45 18.5zM503 510q35 0 55 -27t20 -71q0 -63 -49 -169t-119.5 -206t-159 -173.5t-158.5 -73.5q-39 0 -59.5 18.5t-20.5 47.5q0 28 18.5 46.5t46.5 18.5q21 0 33 -11t12 -29q0 -13 -7.5 -26.5
t-7.5 -18.5q0 -11 17 -11q39 0 102.5 62t63.5 111q0 40 -23.5 84.5t-51 78t-51 80t-23.5 89.5q0 83 116 180l25 -19q-33 -42 -33 -83q0 -27 18 -59t40 -59.5t40 -73t18 -95.5q0 -52 -18 -109q62 82 115 182t53 160q0 28 -31 56t-31 51q0 22 16 35.5t34 13.5z" />
    <glyph glyph-name="endash" unicode="&#x2013;" horiz-adv-x="490" 
d="M502 290l-10 -45h-390l10 45h390z" />
    <glyph glyph-name="emdash" unicode="&#x2014;" horiz-adv-x="640" 
d="M652 290l-10 -45h-540l10 45h540z" />
    <glyph glyph-name="quoteleft" unicode="&#x2018;" horiz-adv-x="210" 
d="M81 470q-24 0 -38 14.5t-14 40.5q0 59 47 112t104 53l-5 -26q-32 0 -55 -20.5t-23 -46.5q0 -14 20 -14q19 0 30.5 -12t11.5 -31q0 -29 -23 -49.5t-55 -20.5z" />
    <glyph glyph-name="quoteright" unicode="&#x2019;" horiz-adv-x="210" 
d="M129 690q24 0 38 -14.5t14 -40.5q0 -59 -46.5 -112t-104.5 -53l5 26q32 0 55 20.5t23 46.5q0 15 -20 15q-19 0 -30.5 11.5t-11.5 30.5q0 29 23 49.5t55 20.5z" />
    <glyph glyph-name="quotesinglbase" unicode="&#x201a;" horiz-adv-x="210" 
d="M129 110q24 0 38 -14.5t14 -40.5q0 -59 -46.5 -112t-104.5 -53l5 26q32 0 55 20.5t23 46.5q0 14 -20 14q-19 0 -30.5 12t-11.5 31q0 29 23 49.5t55 20.5z" />
    <glyph glyph-name="quotedblleft" unicode="&#x201c;" horiz-adv-x="379" 
d="M81 470q-24 0 -38 14.5t-14 40.5q0 59 47 112t104 53l-5 -26q-32 0 -55 -20.5t-23 -46.5q0 -14 20 -14q19 0 30.5 -12t11.5 -31q0 -29 -23 -49.5t-55 -20.5zM250 470q-24 0 -38 14.5t-14 40.5q0 59 46.5 112t104.5 53l-5 -26q-32 0 -55 -20.5t-23 -46.5q0 -14 20 -14
q19 0 30.5 -12t11.5 -31q0 -29 -23 -49.5t-55 -20.5z" />
    <glyph glyph-name="quotedblright" unicode="&#x201d;" horiz-adv-x="379" 
d="M129 690q24 0 38 -14.5t14 -40.5q0 -59 -46.5 -112t-104.5 -53l5 26q32 0 55 20.5t23 46.5q0 15 -20 15q-19 0 -30.5 11.5t-11.5 30.5q0 29 23 49.5t55 20.5zM298 690q24 0 38 -14.5t14 -40.5q0 -59 -47 -112t-104 -53l5 26q32 0 55 20.5t23 46.5q0 15 -20 15
q-19 0 -30.5 11.5t-11.5 30.5q0 29 23 49.5t55 20.5z" />
    <glyph glyph-name="quotedblbase" unicode="&#x201e;" horiz-adv-x="379" 
d="M129 110q24 0 38 -14.5t14 -40.5q0 -59 -46.5 -112t-104.5 -53l5 26q32 0 55 20.5t23 46.5q0 14 -20 14q-19 0 -30.5 12t-11.5 31q0 29 23 49.5t55 20.5zM298 110q24 0 38 -14.5t14 -40.5q0 -59 -47 -112t-104 -53l5 26q32 0 55 20.5t23 46.5q0 14 -20 14q-19 0 -30.5 12
t-11.5 31q0 29 23 49.5t55 20.5z" />
    <glyph glyph-name="dagger" unicode="&#x2020;" horiz-adv-x="455" 
d="M375 690q27 0 39.5 -16t8.5 -36q-6 -27 -32.5 -56t-33.5 -57q28 1 61 22t60 21q20 0 33 -16.5t7 -43.5t-26 -43.5t-40 -16.5q-27 0 -51 20.5t-52 21.5q-4 -27 6.5 -74.5t4.5 -75.5q-5 -25 -25 -68t-45.5 -112t-44.5 -160h-35q19 90 24 165t1.5 102t4.5 73q6 27 36.5 74.5
t37.5 75.5q-28 -1 -61.5 -21.5t-60.5 -20.5q-20 0 -32.5 16.5t-6.5 43.5t25.5 43.5t39.5 16.5q27 0 51.5 -21t52.5 -22q5 28 -10 57t-9 56q4 20 24.5 36t47.5 16z" />
    <glyph glyph-name="daggerdbl" unicode="&#x2021;" horiz-adv-x="455" 
d="M407 233q20 0 33 -16.5t7 -43.5t-26 -43.5t-40 -16.5q-27 0 -51 20.5t-52 21.5q-5 -28 9.5 -56.5t9.5 -55.5q-4 -20 -24 -36.5t-47 -16.5t-40 16.5t-9 36.5q6 27 32.5 55.5t33.5 56.5q-28 -1 -61.5 -21.5t-60.5 -20.5q-20 0 -32.5 16.5t-6.5 43.5t25.5 43.5t39.5 16.5
q27 0 51.5 -21t52.5 -22q4 27 -6.5 75t-4.5 75t36.5 74.5t37.5 75.5q-28 -1 -61.5 -21.5t-60.5 -20.5q-20 0 -32.5 16.5t-6.5 43.5t25.5 43.5t39.5 16.5q27 0 51.5 -21t52.5 -22q5 28 -10 57t-9 56q4 20 24.5 36t47.5 16t39.5 -16t8.5 -36q-6 -27 -32.5 -56t-33.5 -57
q28 1 61 22t60 21q20 0 33 -16.5t7 -43.5t-26 -43.5t-40 -16.5q-27 0 -51 20.5t-52 21.5q-4 -27 6.5 -74.5t4.5 -75.5q-6 -27 -37 -74.5t-37 -75.5q28 1 61 22t60 21z" />
    <glyph glyph-name="bullet" unicode="&#x2022;" horiz-adv-x="265" 
d="M205 342q33 0 54 -21t21 -52q0 -44 -35 -78t-79 -34q-33 0 -54 20.5t-21 51.5q0 44 35 78.5t79 34.5z" />
    <glyph glyph-name="ellipsis" unicode="&#x2026;" horiz-adv-x="590" 
d="M129 110q23 0 36 -13t13 -33q0 -29 -22 -51.5t-53 -22.5q-23 0 -36 13t-13 33q0 29 22 51.5t53 22.5zM319 110q23 0 36 -13t13 -33q0 -29 -22 -51.5t-53 -22.5q-23 0 -36 13t-13 33q0 29 22 51.5t53 22.5zM509 110q23 0 36 -13t13 -33q0 -29 -22 -51.5t-53 -22.5
q-23 0 -36 13t-13 33q0 29 22 51.5t53 22.5z" />
    <glyph glyph-name="perthousand" unicode="&#x2030;" horiz-adv-x="1296" 
d="M298 326q-70 0 -108 35t-38 97q0 98 63.5 165t160.5 67q71 0 109 -34.5t38 -96.5q0 -99 -63.5 -166t-161.5 -67zM209 0l575 680h45l-575 -680h-45zM305 353q34 0 62 41.5t41.5 96.5t13.5 104q0 69 -52 69q-35 0 -62.5 -41.5t-41 -96t-13.5 -104.5q0 -69 52 -69zM662 -10
q-70 0 -108 35t-38 97q0 98 63 165t160 67q71 0 109.5 -35t38.5 -97q0 -98 -63.5 -165t-161.5 -67zM1065 -10q-70 0 -108 35t-38 97q0 98 63 165t160 67q71 0 109 -35t38 -97q0 -98 -63 -165t-161 -67zM668 17q35 0 62.5 41.5t41 96.5t13.5 105q0 68 -51 68t-84.5 -81.5
t-33.5 -162.5q0 -67 52 -67zM1070 17q35 0 63 41.5t41.5 96.5t13.5 105q0 68 -51 68t-84.5 -81.5t-33.5 -162.5q0 -67 51 -67z" />
    <glyph glyph-name="guilsinglleft" unicode="&#x2039;" horiz-adv-x="350" 
d="M308 79q-48 70 -93.5 103.5t-122.5 63.5l10 45q91 30 150 63t137 104l15 -19q-51 -90 -165 -171q79 -77 92 -170z" />
    <glyph glyph-name="guilsinglright" unicode="&#x203a;" horiz-adv-x="350" 
d="M76 79l-15 19q53 92 164 170q-78 78 -91 171l22 19q48 -71 93 -104t123 -63l-10 -45q-90 -30 -148.5 -63t-137.5 -104z" />
    <glyph glyph-name="fraction" unicode="&#x2044;" horiz-adv-x="555" 
d="M660 680l-575 -680h-45l575 680h45z" />
    <glyph glyph-name="Euro" unicode="&#x20ac;" horiz-adv-x="775" 
d="M823 680h35l-39 -180h-35q33 154 -145 154q-85 0 -151.5 -55.5t-106.5 -147.5h175l-9 -45h-183q-19 -57 -26 -115h184l-9 -45h-178q-1 -8 -1 -23q0 -95 44.5 -146t126.5 -51q78 0 136 37t75 117h35l-38 -180h-35l3 15q3 15 -8 15q-6 0 -32.5 -10t-71 -20t-93.5 -10
q-130 0 -204.5 69.5t-76.5 186.5h-92l9 45h85q4 60 26 115h-86l9 45h96q54 108 156 173.5t227 65.5q49 0 89 -10t62.5 -20t28.5 -10q11 0 14 15z" />
    <glyph glyph-name="trademark" unicode="&#x2122;" horiz-adv-x="1110" 
d="M578 680l-28 -127h-26l2 9q2 21 3.5 41.5t-15.5 35.5t-53 15h-14q-13 0 -17.5 -4t-7.5 -18l-81 -380q-3 -13 0 -17t17 -4h15l-6 -27h-183l6 27h16q13 0 17.5 3.5t7.5 17.5l81 381q3 13 0 17t-17 4h-13q-28 0 -47.5 -8t-30.5 -24.5t-15.5 -28t-10.5 -31.5l-2 -9h-27
l28 127h401zM1212 680l-6 -26h-16q-13 0 -17.5 -3.5t-7.5 -17.5l-81 -381q-3 -13 0 -17t17 -4h15l-5 -27h-184l6 27h16q13 0 17.5 3.5t7.5 17.5l73 345l-246 -393h-33l-87 400l-76 -352q-3 -14 0 -17.5t17 -3.5h24l-6 -27h-117l6 27h21q14 0 18.5 4t7.5 17l80 381q3 13 0 17
t-17 4h-21l6 26h149l79 -346l216 346h144z" />
    <glyph glyph-name="oneeighth" unicode="&#x215b;" horiz-adv-x="754" 
d="M279 361l-5 -21h-180l4 21h29q10 0 13.5 2.5t5.5 12.5l49 231q2 10 0 12.5t-12 2.5h-29l4 21q45 0 79 13t46 29h21l-65 -309q-2 -10 -0.5 -12.5t11.5 -2.5h29zM689 680h45l-575 -680h-45zM685 196q32 -20 49 -40t17 -51q0 -51 -47.5 -80.5t-117.5 -29.5q-118 0 -118 72
q0 36 26.5 56.5t74.5 38.5q-55 40 -55 87q0 45 44 70.5t108 25.5q52 0 76 -20t24 -48q0 -27 -25.5 -49t-55.5 -32zM665 324q-25 0 -38.5 -14.5t-13.5 -36.5q0 -14 8 -26.5t17.5 -20t26.5 -18.5q46 35 46 69q0 21 -12 34t-34 13zM590 17q27 0 44 15t17 38q0 16 -10 31.5
t-20 23.5t-31 23q-67 -30 -67 -79q0 -21 18 -36.5t49 -15.5z" />
    <glyph glyph-name="threeeighths" unicode="&#x215c;" horiz-adv-x="803" 
d="M377 447q0 -57 -48.5 -84.5t-121.5 -27.5q-42 0 -69.5 16.5t-27.5 40.5q0 18 13.5 31t33.5 13q15 0 24 -8t9 -20q0 -4 -1.5 -15t-1.5 -13q0 -24 33 -24q31 0 48 33.5t17 77.5q0 43 -56 43h-23l4 20h23q40 0 65.5 30.5t25.5 69.5q0 34 -31 34q-20 0 -30.5 -9t-15.5 -33
q-3 -17 -16 -27.5t-32 -10.5q-31 0 -31 28q0 29 35.5 51t83.5 22q119 0 119 -59q0 -82 -123 -106q94 -10 94 -73zM738 680h45l-575 -680h-45zM734 196q32 -20 49 -40t17 -51q0 -51 -47.5 -80.5t-117.5 -29.5q-118 0 -118 72q0 36 26.5 56.5t74.5 38.5q-55 40 -55 87
q0 45 44 70.5t108 25.5q52 0 76 -20t24 -48q0 -27 -25.5 -49t-55.5 -32zM714 324q-25 0 -38.5 -14.5t-13.5 -36.5q0 -14 8 -26.5t17.5 -20t26.5 -18.5q46 35 46 69q0 21 -12 34t-34 13zM639 17q27 0 44 15t17 38q0 16 -10 31.5t-20 23.5t-31 23q-67 -30 -67 -79
q0 -21 18 -36.5t49 -15.5z" />
    <glyph glyph-name="fiveeighths" unicode="&#x215d;" horiz-adv-x="799" 
d="M382 470q0 -64 -51.5 -98t-124.5 -34q-42 0 -69.5 16t-27.5 40q0 18 13.5 31.5t33.5 13.5q33 0 33 -29q0 -3 -1.5 -14t-1.5 -14q0 -24 33 -24q31 0 51 44t20 84q0 41 -45 41q-35 0 -67 -25h-21l55 184q38 0 88 -9t62 -9q35 0 38 19h22q-11 -48 -37.5 -72t-60.5 -24
q-21 0 -58 5.5t-57 6.5l-24 -76q36 21 73 21q53 0 88.5 -19t35.5 -59zM734 680h45l-575 -680h-45zM730 196q32 -20 49 -40t17 -51q0 -51 -47.5 -80.5t-117.5 -29.5q-118 0 -118 72q0 36 26.5 56.5t74.5 38.5q-55 40 -55 87q0 45 44 70.5t108 25.5q52 0 76 -20t24 -48
q0 -27 -25.5 -49t-55.5 -32zM710 324q-25 0 -38.5 -14.5t-13.5 -36.5q0 -14 8 -26.5t17.5 -20t26.5 -18.5q46 35 46 69q0 21 -12 34t-34 13zM635 17q27 0 44 15t17 38q0 16 -10 31.5t-20 23.5t-31 23q-67 -30 -67 -79q0 -21 18 -36.5t49 -15.5z" />
    <glyph glyph-name="seveneighths" unicode="&#x215e;" horiz-adv-x="748" 
d="M166 589l-1 -5h-21l20 95h22l-13 -60q38 65 89 65q29 0 60.5 -23.5t38.5 -23.5q16 0 28 9t29 38h22q-21 -33 -65 -86t-73 -101.5t-42 -109.5q-10 -52 -59 -52q-18 0 -30 12.5t-7 34.5q6 28 39.5 65t87.5 86t77 75q-41 -31 -80 -31q-18 0 -51 16t-45 16q-22 0 -26 -20z
M684 680h45l-575 -680h-45zM680 196q32 -20 49 -40t17 -51q0 -51 -47.5 -80.5t-117.5 -29.5q-118 0 -118 72q0 36 26.5 56.5t74.5 38.5q-55 40 -55 87q0 45 44 70.5t108 25.5q52 0 76 -20t24 -48q0 -27 -25.5 -49t-55.5 -32zM660 324q-25 0 -38.5 -14.5t-13.5 -36.5
q0 -14 8 -26.5t17.5 -20t26.5 -18.5q46 35 46 69q0 21 -12 34t-34 13zM585 17q27 0 44 15t17 38q0 16 -10 31.5t-20 23.5t-31 23q-67 -30 -67 -79q0 -21 18 -36.5t49 -15.5z" />
    <glyph glyph-name="arrowleft" unicode="&#x2190;" horiz-adv-x="820" 
d="M392 485l4 -5q-41 -62 -70 -124h174l79 87q12 12 27 12h45l-88 -99h45l79 87q12 12 27 12h45l-88 -99h45l79 87q12 12 27 12h45l-98 -105l53 -105h-45q-15 0 -21 12l-43 87h-45l46 -99h-45q-15 0 -21 12l-43 87h-45l46 -99h-45q-15 0 -21 12l-43 87h-174q3 -63 18 -124
l-6 -5q-113 100 -212 130l2 10q112 30 267 130z" />
    <glyph glyph-name="arrowup" unicode="&#x2191;" horiz-adv-x="420" 
d="M366 710q8 -103 79 -239l-6 -5q-49 25 -115 44l-37 -174l74 -61q10 -9 7 -24l-9 -45l-85 67l-10 -45l74 -61q11 -10 7 -24l-9 -45l-85 67l-9 -45l74 -61q10 -10 6 -24l-9 -45l-89 75l-121 -75l9 45q5 16 18 24l100 61l9 45l-113 -67l9 45q5 16 17 24l100 61l10 45
l-113 -67l9 45q3 15 17 24l100 61l37 174q-69 -18 -133 -44l-4 5q128 133 181 239h10z" />
    <glyph glyph-name="arrowright" unicode="&#x2192;" horiz-adv-x="820" 
d="M634 485q113 -100 211 -130l-2 -10q-111 -30 -266 -130l-4 5q33 51 70 124h-174l-79 -87q-12 -12 -27 -12h-45l88 99h-45l-79 -87q-12 -12 -27 -12h-45l88 99h-45l-79 -87q-12 -12 -27 -12h-45l97 105l-52 105h45q15 0 21 -12l43 -87h45l-46 99h45q15 0 21 -12l43 -87h45
l-46 99h45q15 0 21 -12l43 -87h174q-6 74 -18 124z" />
    <glyph glyph-name="arrowdown" unicode="&#x2193;" horiz-adv-x="420" 
d="M466 710l-10 -45q-3 -16 -17 -24l-100 -61l-9 -45l113 67l-10 -45q-3 -16 -17 -24l-100 -61l-9 -45l113 67l-10 -45q-3 -16 -17 -24l-100 -61l-37 -174q69 18 134 44l4 -5q-128 -133 -181 -239h-10q-8 103 -79 239l6 5q48 -24 114 -44l37 174l-74 61q-10 10 -7 24l10 45
l85 -67l9 45l-74 61q-10 10 -7 24l10 45l85 -67l9 45l-74 61q-10 10 -7 24l10 45l89 -75z" />
    <glyph glyph-name="arrowboth" unicode="&#x2194;" horiz-adv-x="820" 
d="M634 485q113 -100 211 -130l-2 -10q-111 -30 -266 -130l-4 5q33 51 70 124h-320q3 -63 18 -124l-6 -5q-113 100 -212 130l2 10q112 30 267 130l4 -5q-41 -62 -70 -124h320q-6 74 -18 124z" />
    <glyph glyph-name="arrowupdn" unicode="&#x2195;" horiz-adv-x="420" 
d="M366 710q8 -103 79 -239l-6 -5q-49 25 -115 44l-68 -320q69 18 134 44l4 -5q-128 -133 -181 -239h-10q-8 103 -79 239l6 5q48 -24 114 -44l68 320q-69 -18 -133 -44l-4 5q128 133 181 239h10z" />
    <glyph glyph-name="uni2196" unicode="&#x2196;" horiz-adv-x="687" 
d="M199 341q12 162 -21 261l8 7q87 -54 245 -77l-1 -7q-60 -21 -132 -57l97 -123l109 19q16 1 23 -9l26 -32l-122 -22l25 -32l108 18q16 3 24 -8l25 -32l-122 -23l25 -31l109 18q16 2 23 -8l25 -32l-131 -22l-49 -127l-26 32q-7 10 -2 25l40 105l-24 32l-48 -117l-25 31
q-9 11 -3 26l40 104l-25 32l-47 -117l-25 32q-9 10 -4 25l42 105l-97 123q-45 -57 -83 -119h-7z" />
    <glyph glyph-name="uni2197" unicode="&#x2197;" horiz-adv-x="687" 
d="M632 341h-7q-9 59 -31 119l-149 -123l-4 -105q-1 -14 -14 -25l-39 -32l3 117l-39 -32l-4 -104q0 -15 -13 -26l-39 -31l2 117l-38 -32l-4 -105q-2 -15 -14 -25l-38 -32l5 127l-123 22l39 32q12 10 27 8l101 -18l39 31l-112 23l37 32q14 11 28 8l100 -18l39 32l-112 22
l38 32q14 11 27 9l101 -19l149 123q-46 31 -106 57l1 7q170 23 277 77l6 -7q-74 -95 -133 -261z" />
    <glyph glyph-name="uni2198" unicode="&#x2198;" horiz-adv-x="687" 
d="M637 360q-12 -162 21 -261l-8 -7q-87 54 -245 77l1 7q60 21 132 57l-97 123l-109 -19q-16 -1 -23 9l-26 32l122 22l-25 32l-108 -18q-16 -3 -24 8l-24 32l121 23l-25 31l-109 -18q-16 -2 -23 8l-25 32l131 22l49 127l26 -32q7 -10 2 -25l-40 -105l24 -32l48 117l25 -31
q9 -11 3 -26l-40 -104l25 -32l47 117l25 -32q9 -10 4 -25l-42 -105l97 -123q45 57 83 119h7z" />
    <glyph glyph-name="uni2199" unicode="&#x2199;" horiz-adv-x="687" 
d="M204 360h7q9 -58 31 -119l149 123l4 105q1 14 14 25l39 32l-3 -117l39 32l4 104q0 15 13 26l39 31l-2 -117l38 32l4 105q2 15 14 25l38 32l-5 -127l123 -22l-39 -32q-12 -10 -27 -8l-101 18l-39 -31l113 -23l-38 -32q-14 -11 -28 -8l-100 18l-39 -32l112 -22l-38 -32
q-14 -10 -27 -9l-101 19l-149 -123q46 -31 106 -57l-1 -7q-170 -23 -277 -77l-6 7q74 95 133 261z" />
    <glyph glyph-name="partialdiff" unicode="&#x2202;" horiz-adv-x="617" 
d="M463 750q103 0 154.5 -59.5t51.5 -165.5q0 -130 -48.5 -252t-140.5 -202.5t-203 -80.5q-91 0 -138.5 43t-47.5 119q0 149 108 253.5t263 104.5q48 0 80 -17q8 53 8 85q0 68 -28 99.5t-86 31.5q-94 0 -183 -80l-14 17q44 47 102.5 75.5t121.5 28.5zM450 474
q-62 0 -117 -59t-85 -142t-30 -160q0 -87 70 -87q150 0 242 429q-29 19 -80 19z" />
    <glyph glyph-name="emptyset" unicode="&#x2205;" horiz-adv-x="800" 
d="M757 611q74 -76 74 -192q0 -111 -59.5 -210.5t-160 -159t-213.5 -59.5q-108 0 -182 55l-43 -45h-50l66 69q-75 75 -75 193q0 83 36 162t95 137t138.5 93.5t163.5 35.5q108 0 182 -55l44 45h50zM160 272q0 -101 63 -166l471 492q-64 47 -157 47q-151 0 -264 -113
t-113 -260zM408 35q151 0 264 113.5t113 260.5q0 100 -63 165l-471 -492q64 -47 157 -47z" />
    <glyph glyph-name="product" unicode="&#x220f;" horiz-adv-x="778" 
d="M884 700l-8 -35h-25q-20 0 -26 -5.5t-10 -24.5l-121 -570q-4 -19 0 -24.5t24 -5.5h25l-8 -35h-250l8 35h25q19 0 25 5t11 25l126 595h-302l-126 -595q-5 -19 -0.5 -24.5t23.5 -5.5h25l-7 -35h-250l7 35h25q20 0 26.5 5.5t10.5 24.5l121 570q4 20 -0.5 25t-23.5 5h-25
l8 35h692z" />
    <glyph glyph-name="summation" unicode="&#x2211;" horiz-adv-x="664" 
d="M613 179h35l-38 -179h-557l7 35l269 321l-119 289l8 35h517l-39 -179h-35l4 15q5 28 5.5 46t-7 38.5t-31.5 30.5t-65 10h-206l111 -285l-250 -317h238q40 0 69 11.5t44.5 32t23 38.5t13.5 43z" />
    <glyph glyph-name="minus" unicode="&#x2212;" horiz-adv-x="470" 
d="M490 329l-9 -45h-370l9 45h370z" />
    <glyph glyph-name="radical" unicode="&#x221a;" horiz-adv-x="674" 
d="M361 -5l-55 289h-195l9 45h226l42 -224l336 575h45l-396 -685h-12z" />
    <glyph glyph-name="infinity" unicode="&#x221e;" horiz-adv-x="765" 
d="M655 394q54 0 85.5 -29t31.5 -79q0 -74 -52 -127t-126 -53q-60 0 -98 28t-71 78q-55 -51 -101 -78.5t-100 -27.5t-89 30t-35 82q0 73 55.5 124.5t129.5 51.5q54 0 89 -27t67 -77q55 50 104.5 77t109.5 27zM233 151q30 0 61 16t51.5 33t55.5 51q-20 32 -33.5 49.5t-38 33
t-54.5 15.5q-53 0 -91 -35.5t-38 -86.5q0 -36 24 -56t63 -20zM603 151q54 0 88.5 37t34.5 89q0 34 -22 53t-59 19q-47 0 -87 -25t-92 -73q21 -33 36 -51t42 -33.5t59 -15.5z" />
    <glyph glyph-name="integral" unicode="&#x222b;" horiz-adv-x="376" 
d="M419 710q51 0 79 -20t28 -51q0 -28 -20.5 -49t-48.5 -21q-45 0 -45 37q0 8 6.5 28.5t6.5 26.5q0 14 -20 14q-41 0 -59 -92l-142 -664q-17 -77 -72.5 -123t-145.5 -46q-51 0 -79.5 20t-28.5 51q0 28 20.5 49t48.5 21q46 0 46 -37q0 -11 -7 -30t-7 -26q0 -13 19 -13
q42 0 61 92l141 664q16 77 72.5 123t146.5 46z" />
    <glyph glyph-name="approxequal" unicode="&#x2248;" horiz-adv-x="440" 
d="M467 460q-25 -120 -101 -120q-26 0 -100 19.5t-95 19.5q-31 0 -40 -39h-29q12 59 39 89t62 30q27 0 98 -19t93 -19q35 0 44 39h29zM467 272q-25 -119 -101 -119q-26 0 -100 19t-95 19q-31 0 -40 -38h-29q12 59 39 89t62 30q27 0 98 -19t93 -19q35 0 44 38h29z" />
    <glyph glyph-name="notequal" unicode="&#x2260;" horiz-adv-x="470" 
d="M498 364h-127l-98 -115h200l-9 -45h-229l-84 -100h-45l84 100h-96l9 45h125l98 115h-198l9 45h227l85 100h45l-85 -100h98z" />
    <glyph glyph-name="lessequal" unicode="&#x2264;" horiz-adv-x="470" 
d="M507 409l-9 -45l-278 -58l253 -57l-9 -45l-353 80l9 45zM436 74l-10 -45h-370l10 45h370z" />
    <glyph glyph-name="greaterequal" unicode="&#x2265;" horiz-adv-x="470" 
d="M137 409l353 -80l-9 -45l-387 -80l9 45l278 57l-253 58zM436 74l-10 -45h-370l10 45h370z" />
    <glyph glyph-name="lozenge" unicode="&#x25ca;" horiz-adv-x="480" 
d="M229 -5l-107 345l254 345h20l106 -345l-253 -345h-20zM252 74l200 274l-78 258l-202 -274z" />
    <glyph glyph-name="i.loclTRK" horiz-adv-x="306" 
d="M301 714q27 0 44 -17t17 -43q0 -35 -28.5 -62t-63.5 -27q-27 0 -43.5 16.5t-16.5 41.5q0 36 28 63.5t63 27.5zM291 101h35q-11 -55 -50.5 -83t-91.5 -28q-112 0 -86 118l69 326q5 20 0.5 25.5t-23.5 5.5h-28l7 35h194l-85 -400q-9 -44 20 -44q30 0 39 45z" />
    <glyph glyph-name="f.ss01" horiz-adv-x="366" 
d="M409 710q51 0 79 -20t28 -51q0 -28 -20.5 -49t-48.5 -21q-45 0 -45 37q0 11 6.5 30t6.5 25q0 14 -20 14q-41 0 -59 -92l-18 -83h93l-7 -35h-94l-107 -506q-17 -76 -72.5 -122.5t-145.5 -46.5v31q31 0 46.5 21t25.5 71l117 552h-55l7 35h55l9 41q16 77 72.5 123t146.5 46z
" />
    <glyph glyph-name="j.ss01" horiz-adv-x="288" 
d="M293 714q31 0 48 -22t11 -53q-8 -31 -34 -52.5t-57 -21.5t-48 21.5t-10 52.5q6 31 32.5 53t57.5 22zM317 500l-114 -541q-17 -76 -72.5 -122.5t-145.5 -46.5v31q31 0 46.5 21t25.5 71l110 521q5 20 0.5 25.5t-23.5 5.5h-28l7 35h194z" />
    <glyph glyph-name="y.ss01" horiz-adv-x="571" 
d="M503 510q35 0 55 -27t20 -71q0 -51 -29 -130t-82 -163.5t-117.5 -158.5t-144.5 -122t-154 -48v35q75 0 157 60.5t82 112.5q0 40 -23.5 84.5t-51 78t-51 80t-23.5 89.5q0 83 116 180l25 -19q-37 -41 -37 -83q0 -26 16.5 -58t36.5 -60t38.5 -70t22.5 -90t-12 -118
q60 75 114 178t54 164q0 28 -31 56t-31 51q0 22 16 35.5t34 13.5z" />
    <glyph glyph-name="yacute.ss01" horiz-adv-x="571" 
d="M551 730q20 0 31.5 -10t11.5 -28q0 -85 -227 -142l-6 24q70 23 112 97q31 59 78 59zM503 510q35 0 55 -27t20 -71q0 -51 -29 -130t-82 -163.5t-117.5 -158.5t-144.5 -122t-154 -48v35q75 0 157 60.5t82 112.5q0 40 -23.5 84.5t-51 78t-51 80t-23.5 89.5q0 83 116 180
l25 -19q-37 -41 -37 -83q0 -26 16.5 -58t36.5 -60t38.5 -70t22.5 -90t-12 -118q60 75 114 178t54 164q0 28 -31 56t-31 51q0 22 16 35.5t34 13.5z" />
    <glyph glyph-name="ycircumflex.ss01" horiz-adv-x="571" 
d="M552 556q-74 30 -135 74q-72 -42 -166 -74l-10 21q39 19 92 65t92 96h31q19 -53 51.5 -97.5t63.5 -63.5zM503 510q35 0 55 -27t20 -71q0 -51 -29 -130t-82 -163.5t-117.5 -158.5t-144.5 -122t-154 -48v35q75 0 157 60.5t82 112.5q0 40 -23.5 84.5t-51 78t-51 80
t-23.5 89.5q0 83 116 180l25 -19q-37 -41 -37 -83q0 -26 16.5 -58t36.5 -60t38.5 -70t22.5 -90t-12 -118q60 75 114 178t54 164q0 28 -31 56t-31 51q0 22 16 35.5t34 13.5z" />
    <glyph glyph-name="ydieresis.ss01" horiz-adv-x="571" 
d="M337 699q23 0 36.5 -13.5t13.5 -34.5q0 -29 -22.5 -52t-53.5 -23q-23 0 -36.5 13.5t-13.5 34.5q0 29 22.5 52t53.5 23zM527 699q23 0 36.5 -13.5t13.5 -34.5q0 -29 -22.5 -52t-53.5 -23q-23 0 -36.5 13.5t-13.5 34.5q0 29 22.5 52t53.5 23zM503 510q35 0 55 -27t20 -71
q0 -51 -29 -130t-82 -163.5t-117.5 -158.5t-144.5 -122t-154 -48v35q75 0 157 60.5t82 112.5q0 40 -23.5 84.5t-51 78t-51 80t-23.5 89.5q0 83 116 180l25 -19q-37 -41 -37 -83q0 -26 16.5 -58t36.5 -60t38.5 -70t22.5 -90t-12 -118q60 75 114 178t54 164q0 28 -31 56
t-31 51q0 22 16 35.5t34 13.5z" />
    <glyph glyph-name="ygrave.ss01" horiz-adv-x="571" 
d="M338 730q49 0 54 -59q7 -73 69 -96l-14 -25q-172 48 -172 116q0 27 18 45.5t45 18.5zM503 510q35 0 55 -27t20 -71q0 -51 -29 -130t-82 -163.5t-117.5 -158.5t-144.5 -122t-154 -48v35q75 0 157 60.5t82 112.5q0 40 -23.5 84.5t-51 78t-51 80t-23.5 89.5q0 83 116 180
l25 -19q-37 -41 -37 -83q0 -26 16.5 -58t36.5 -60t38.5 -70t22.5 -90t-12 -118q60 75 114 178t54 164q0 28 -31 56t-31 51q0 22 16 35.5t34 13.5z" />
    <glyph glyph-name="f_b.ss01" horiz-adv-x="947" 
d="M409 710q51 0 79 -20t28 -51q0 -28 -20.5 -49t-48.5 -21q-45 0 -45 37q0 11 6.5 30t6.5 25q0 14 -20 14q-41 0 -59 -92l-18 -83h93l-7 -35h-94l-107 -506q-17 -76 -72.5 -122.5t-145.5 -46.5v31q31 0 46.5 21t25.5 71l117 552h-55l7 35h55l9 41q16 77 72.5 123t146.5 46z
M814 510q66 0 106.5 -42t40.5 -126q0 -86 -29.5 -165t-90 -133t-137.5 -54q-52 0 -89.5 28t-43.5 89l-82 -107h-76l149 700h136l-65 -306q31 60 80 88t101 28zM759 453q-48 0 -91 -51.5t-62 -132.5l-7 -33q-16 -83 5 -135.5t69 -52.5t85 53.5t54 123t17 134.5q0 94 -70 94z
" />
    <glyph glyph-name="f_h.ss01" horiz-adv-x="970" 
d="M409 710q51 0 79 -20t28 -51q0 -28 -20.5 -49t-48.5 -21q-45 0 -45 37q0 11 6.5 30t6.5 25q0 14 -20 14q-41 0 -59 -92l-18 -83h93l-7 -35h-94l-107 -506q-17 -76 -72.5 -122.5t-145.5 -46.5v31q31 0 46.5 21t25.5 71l117 552h-55l7 35h55l9 41q16 77 72.5 123t146.5 46z
M958 101h35q-11 -54 -50.5 -82.5t-91.5 -28.5q-113 0 -87 118l51 239q23 106 -55 106q-53 0 -99.5 -75.5t-75.5 -210.5l-36 -167h-136l149 700h136l-70 -322q61 132 190 132q78 0 113.5 -43t17.5 -128l-50 -239q-11 -44 19 -44q29 0 40 45z" />
    <glyph glyph-name="f_j.ss01" horiz-adv-x="621" 
d="M409 710q51 0 79 -20t28 -51q0 -28 -20.5 -49t-48.5 -21q-45 0 -45 37q0 11 6.5 30t6.5 25q0 14 -20 14q-41 0 -59 -92l-18 -83h93l-7 -35h-94l-107 -506q-17 -76 -72.5 -122.5t-145.5 -46.5v31q31 0 46.5 21t25.5 71l117 552h-55l7 35h55l9 41q16 77 72.5 123t146.5 46z
M633 695q26 0 41.5 -16t15.5 -41q0 -35 -24 -57.5t-63 -22.5q-26 0 -42 15.5t-16 39.5q0 36 24 59t64 23zM651 500l-115 -541q-16 -76 -71.5 -122.5t-145.5 -46.5q-50 0 -75.5 19t-25.5 51q0 30 18 50.5t47 20.5q42 0 42 -38q0 -12 -7.5 -31.5t-7.5 -24.5q0 -16 21 -16
q41 0 60 92l110 521q4 20 0 25.5t-23 5.5h-28l7 35h194z" />
    <glyph glyph-name="f_k.ss01" horiz-adv-x="939" 
d="M447 569q-45 0 -45 37q0 11 6.5 30t6.5 25q0 14 -20 14q-41 0 -59 -92l-18 -83h93l-7 -35h-94l-107 -506q-17 -76 -72.5 -122.5t-145.5 -46.5v31q31 0 46.5 21t25.5 71l117 552h-55l7 35h55l9 41q16 77 72.5 123t146.5 46q51 0 79 -20t28 -51q0 -28 -20.5 -49t-48.5 -21z
M845 436q-20 0 -40.5 -23t-47.5 -59.5t-53 -56.5q72 -8 105.5 -44.5t33.5 -87.5q0 -13 -4.5 -42.5t-4.5 -40.5q0 -26 24 -26q29 0 38 45h35q-12 -55 -47.5 -83t-86.5 -28t-76 24.5t-25 63.5q0 17 7 60.5t7 55.5q0 35 -18 52.5t-47 17.5h-40l-56 -264h-136l150 700h135
l-84 -396h4q28 0 53.5 15.5t43.5 38t38.5 49.5t39.5 49.5t46.5 38t59.5 15.5q31 0 54 -15.5t23 -45.5q0 -26 -15.5 -44.5t-38.5 -18.5t-36.5 12.5t-22 25t-18.5 12.5z" />
    <glyph glyph-name="fi.ss01" horiz-adv-x="641" 
d="M409 710q51 0 79 -20t28 -51q0 -28 -20.5 -49t-48.5 -21q-45 0 -45 37q0 11 6.5 30t6.5 25q0 14 -20 14q-41 0 -59 -92l-18 -83h93l-7 -35h-94l-107 -506q-17 -76 -72.5 -122.5t-145.5 -46.5v31q31 0 46.5 21t25.5 71l117 552h-55l7 35h55l9 41q16 77 72.5 123t146.5 46z
M633 695q26 0 41.5 -16t15.5 -41q0 -35 -24 -57.5t-63 -22.5q-26 0 -42 15.5t-16 39.5q0 36 24 59t64 23zM630 101h35q-11 -54 -50.5 -82.5t-91.5 -28.5q-113 0 -87 118l70 326q4 20 -0.5 25.5t-23.5 5.5h-28l7 35h195l-85 -400q-11 -44 19 -44q29 0 40 45z" />
    <glyph glyph-name="fl.ss01" horiz-adv-x="644" 
d="M409 710q51 0 79 -20t28 -51q0 -28 -20.5 -49t-48.5 -21q-45 0 -45 37q0 11 6.5 30t6.5 25q0 14 -20 14q-41 0 -59 -92l-18 -83h93l-7 -35h-94l-107 -506q-17 -76 -72.5 -122.5t-145.5 -46.5v31q31 0 46.5 21t25.5 71l117 552h-55l7 35h55l9 41q16 77 72.5 123t146.5 46z
M629 101h35q-11 -55 -50.5 -83t-91.5 -28q-111 0 -87 118l127 592h136l-128 -600q-9 -44 19 -44q29 0 40 45z" />
    <glyph glyph-name="zero.lf" horiz-adv-x="688" 
d="M491 690q109 0 164.5 -61t55.5 -170q0 -123 -44 -229t-129.5 -173t-195.5 -67q-109 0 -165 61t-56 171q0 122 44.5 228t130.5 173t195 67zM483 654q-50 0 -94.5 -50.5t-73 -126t-45 -160.5t-16.5 -158q0 -133 95 -133q50 0 94.5 50.5t73 126t45 160.5t16.5 158
q0 133 -95 133z" />
    <glyph glyph-name="one.lf" horiz-adv-x="415" 
d="M43 0l7 35h65q20 0 26.5 5.5t10.5 24.5l104 490q4 20 -0.5 25t-23.5 5h-65l8 35q80 0 135.5 20.5t79.5 49.5h35l-133 -625q-5 -19 -0.5 -24.5t23.5 -5.5h65l-7 -35h-330z" />
    <glyph glyph-name="two.lf" horiz-adv-x="595" 
d="M417 690q106 0 165.5 -37t59.5 -107q0 -37 -15.5 -74.5t-48 -74.5t-65 -67.5t-85.5 -68t-88.5 -61.5t-93.5 -61q-24 -15 -36 -23h225q49 0 70 9.5t27 39.5l4 15h35l-38 -180h-490l7 35q84 61 141.5 105.5t120.5 101.5t100.5 105t62 103t24.5 108q0 44 -21 70t-62 26
q-84 0 -103 -86q-5 -26 -26 -42.5t-49 -16.5q-48 0 -48 42q0 57 71.5 98t155.5 41z" />
    <glyph glyph-name="three.lf" 
d="M391 357q48 -3 87.5 -16t71 -46t31.5 -82q0 -75 -46 -127t-116 -74t-158 -22q-83 0 -135 32t-52 76q0 30 21 51.5t53 21.5q24 0 37.5 -12t13.5 -32q0 -6 -2.5 -22.5t-2.5 -20.5q0 -58 86 -58q75 0 117.5 59t42.5 146q0 106 -142 106h-46l8 40h46q88 1 147 58t59 139
q0 80 -88 80q-48 0 -74.5 -20t-36.5 -66q-5 -26 -26 -42.5t-49 -16.5q-48 0 -48 42q0 57 72 98t155 41q220 0 220 -120q0 -87 -70.5 -141t-175.5 -72z" />
    <glyph glyph-name="four.lf" horiz-adv-x="585" 
d="M595 690l-104 -488h95l-8 -36h-95l-21 -101q-5 -19 -0.5 -24.5t23.5 -5.5h65l-7 -35h-330l7 35h65q20 0 26.5 5.5t10.5 24.5l21 101h-285l8 36l494 488h35zM111 202h240l63 302z" />
    <glyph glyph-name="five.lf" horiz-adv-x="605" 
d="M496 535q-42 0 -115 11t-106 13l-58 -190q71 41 147 41q101 0 164.5 -39t63.5 -118q0 -123 -96.5 -193t-234.5 -70q-83 0 -135 32t-52 76q0 30 21 51.5t53 21.5q24 0 37.5 -12t13.5 -32q0 -4 -2.5 -20.5t-2.5 -22.5q0 -58 86 -58q77 0 124 78t47 173q0 53 -26 75t-79 22
q-72 0 -141 -47h-36l107 358q65 0 163 -18t126 -18q59 0 70 44h35q-18 -81 -65.5 -119.5t-108.5 -38.5z" />
    <glyph glyph-name="six.lf" horiz-adv-x="650" 
d="M611 509q-24 0 -38 12t-14 33q0 4 3 19.5t3 25.5q0 55 -71 55q-68 0 -122 -77.5t-88 -197.5q75 44 145 44q94 0 152.5 -39t58.5 -116q0 -118 -93 -198t-223 -80q-102 0 -153.5 64t-51.5 165q0 88 31 173.5t83.5 151t127 106t156.5 40.5q69 0 118 -32.5t49 -75.5
q0 -31 -21 -52t-52 -21zM398 383q-57 0 -124 -45q-24 -107 -24 -197q0 -115 82 -115q70 0 118 83t48 173q0 101 -100 101z" />
    <glyph glyph-name="seven.lf" 
d="M710 690q-39 -60 -105 -142t-111.5 -139t-91 -146.5t-66.5 -187.5q-18 -84 -91 -84q-28 0 -45 19.5t-9 56.5q12 57 62 129t104.5 129t126 130t104.5 112q-64 -49 -139 -49q-42 0 -105 27.5t-88 27.5q-60 0 -70 -52l-5 -23h-35l39 182h35l-22 -100q63 110 166 110
q41 0 81 -20t72.5 -40t53.5 -20q29 0 50 16t52 64h37z" />
    <glyph glyph-name="eight.lf" horiz-adv-x="635" 
d="M476 377q66 -40 102 -79t36 -100q0 -98 -86 -153t-215 -55q-118 0 -169.5 42.5t-51.5 103.5q0 37 17.5 68.5t50 56t65 41.5t76.5 34q-53 35 -82.5 73.5t-29.5 92.5q0 87 80 137.5t199 50.5q95 0 141 -39t46 -96q0 -62 -52.5 -107.5t-126.5 -70.5zM463 654
q-60 0 -97.5 -33t-37.5 -86q0 -43 29 -73.5t84 -63.5q62 31 95 67.5t33 89.5q0 47 -30 73t-76 26zM320 26q68 0 111 35.5t43 91.5q0 27 -10 49.5t-34 43.5t-40.5 32.5t-52.5 34.5q-76 -33 -117.5 -73.5t-41.5 -100.5q0 -45 36.5 -79t105.5 -34z" />
    <glyph glyph-name="nine.lf" horiz-adv-x="650" 
d="M471 690q102 0 153.5 -64t51.5 -165q0 -118 -52 -226t-145 -176.5t-201 -68.5q-69 0 -118.5 32.5t-49.5 76.5q0 30 21 51t53 21q24 0 37.5 -12t13.5 -32q0 -3 -2.5 -20t-2.5 -25q0 -56 70 -56q67 0 121.5 78t88.5 197q-70 -43 -144 -43q-95 0 -153 38.5t-58 115.5
q0 118 93 198t223 80zM397 298q61 0 123 43q24 102 24 198q0 115 -81 115q-47 0 -86.5 -41.5t-59.5 -99.5t-20 -115q0 -100 100 -100z" />
    <glyph glyph-name="zero.osf" horiz-adv-x="688" 
d="M452 510q114 0 173.5 -55.5t59.5 -143.5q0 -136 -99.5 -228.5t-243.5 -92.5q-115 0 -174 55t-59 144q0 135 100 228t243 93zM445 474q-60 0 -106.5 -51.5t-69 -124.5t-22.5 -149q0 -123 102 -123q59 0 106 51.5t69.5 124.5t22.5 149q0 123 -102 123z" />
    <glyph glyph-name="one.osf" horiz-adv-x="415" 
d="M43 0l7 35h65q20 0 26.5 5.5t10.5 24.5l66 310q4 20 -0.5 25t-23.5 5h-65l7 35q81 0 136.5 20.5t78.5 49.5h35l-94 -445q-5 -19 -0.5 -24.5t23.5 -5.5h65l-7 -35h-330z" />
    <glyph glyph-name="two.osf" horiz-adv-x="595" 
d="M378 510q235 0 235 -110q0 -105 -185 -200q-53 -27 -191 -84h198q49 0 70 9.5t27 39.5l4 15h35l-38 -180h-490l7 35q26 16 75.5 46.5t76.5 47t69 44t66 46t52.5 43.5t43.5 45.5t25.5 44t10.5 46.5q0 34 -23 55t-68 21q-85 0 -103 -86q-5 -26 -26 -42.5t-49 -16.5
q-48 0 -48 42q0 57 71.5 98t154.5 41z" />
    <glyph glyph-name="three.osf" 
d="M353 177q48 -3 87.5 -16t71 -46t31.5 -82q0 -75 -46 -127t-116 -74t-158 -22q-83 0 -135 32t-52 76q0 30 21 51.5t53 21.5q24 0 37.5 -12t13.5 -32q0 -7 -2.5 -23t-2.5 -20q0 -58 86 -58q75 0 117.5 59t42.5 146q0 106 -142 106h-46l8 40h46q88 1 147 58t59 139
q0 80 -88 80q-48 0 -74.5 -20t-36.5 -66q-5 -26 -26 -42.5t-49 -16.5q-48 0 -48 42q0 57 72 98t155 41q220 0 220 -120q0 -87 -70.5 -141t-175.5 -72z" />
    <glyph glyph-name="four.osf" horiz-adv-x="585" 
d="M556 510l-104 -488h96l-8 -36h-95l-35 -166h-140l35 166h-285l8 36l493 488h35zM73 22h239l64 302z" />
    <glyph glyph-name="five.osf" horiz-adv-x="605" 
d="M458 355q-42 0 -115 11t-106 13l-58 -190q71 41 147 41q101 0 164.5 -39t63.5 -118q0 -123 -96.5 -193t-234.5 -70q-83 0 -135 32t-52 76q0 30 21 51.5t53 21.5q24 0 37.5 -12t13.5 -32q0 -4 -2.5 -20.5t-2.5 -22.5q0 -58 86 -58q52 0 92.5 39t59.5 95t19 117
q0 53 -26 75t-79 22q-72 0 -141 -47h-36l107 358q65 0 163 -18t126 -18q59 0 70 44h35q-18 -81 -65.5 -119.5t-108.5 -38.5z" />
    <glyph glyph-name="six.osf" horiz-adv-x="650" 
d="M611 509q-24 0 -38 12t-14 33q0 4 3 19.5t3 25.5q0 55 -71 55q-68 0 -122 -77.5t-88 -197.5q75 44 145 44q94 0 152.5 -39t58.5 -116q0 -118 -93 -198t-223 -80q-102 0 -153.5 64t-51.5 165q0 88 31 173.5t83.5 151t127 106t156.5 40.5q69 0 118 -32.5t49 -75.5
q0 -31 -21 -52t-52 -21zM398 383q-57 0 -124 -45q-24 -107 -24 -197q0 -115 82 -115q70 0 118 83t48 173q0 101 -100 101z" />
    <glyph glyph-name="seven.osf" 
d="M671 510q-39 -60 -104.5 -142t-111 -139t-91 -146.5t-66.5 -187.5q-17 -84 -91 -84q-28 0 -45 19.5t-9 55.5q12 57 62 129.5t104.5 129.5t126.5 130t104 112q-66 -49 -139 -49q-42 0 -105 27.5t-88 27.5q-59 0 -71 -52l-4 -23h-35l38 182h35l-21 -100q63 110 165 110
q41 0 81.5 -20t72.5 -40t53 -20q29 0 50 16t52 64h37z" />
    <glyph glyph-name="eight.osf" horiz-adv-x="635" 
d="M476 377q66 -40 102 -79t36 -100q0 -98 -86 -153t-215 -55q-118 0 -169.5 42.5t-51.5 103.5q0 37 17.5 68.5t50 56t65 41.5t76.5 34q-53 35 -82.5 73.5t-29.5 92.5q0 87 80 137.5t199 50.5q95 0 141 -39t46 -96q0 -62 -52.5 -107.5t-126.5 -70.5zM463 654
q-60 0 -97.5 -33t-37.5 -86q0 -43 29 -73.5t84 -63.5q62 31 95 67.5t33 89.5q0 47 -30 73t-76 26zM320 26q68 0 111 35.5t43 91.5q0 27 -10 49.5t-34 43.5t-40.5 32.5t-52.5 34.5q-76 -33 -117.5 -73.5t-41.5 -100.5q0 -45 36.5 -79t105.5 -34z" />
    <glyph glyph-name="nine.osf" horiz-adv-x="650" 
d="M432 510q103 0 154.5 -64.5t51.5 -164.5q0 -118 -52 -226t-145 -176.5t-202 -68.5q-69 0 -118 32.5t-49 76.5q0 30 21 51t52 21q24 0 37.5 -12t13.5 -32q0 -3 -2.5 -20t-2.5 -25q0 -56 70 -56q68 0 122.5 78t87.5 197q-68 -43 -144 -43q-95 0 -153 38.5t-58 115.5
q0 118 93 198t223 80zM358 118q61 0 123 43q24 102 24 198q0 115 -81 115q-70 0 -117.5 -82.5t-47.5 -173.5q0 -100 99 -100z" />
    <glyph glyph-name="zero.subs" horiz-adv-x="359" 
d="M231 245q58 0 87.5 -31t29.5 -87q0 -95 -52.5 -163.5t-138.5 -68.5q-57 0 -87 30.5t-30 87.5q0 95 53 163.5t138 68.5zM227 224q-39 0 -68.5 -92.5t-29.5 -164.5q0 -51 33 -51q39 0 68.5 92t29.5 164q0 52 -33 52z" />
    <glyph glyph-name="one.subs" horiz-adv-x="224" 
d="M1 -100l4 21h29q10 0 13 2.5t5 12.5l50 231q2 10 0 12.5t-12 2.5h-29l4 21q45 0 78.5 13t45.5 29h21l-65 -309q-2 -10 0 -12.5t12 -2.5h29l-5 -21h-180z" />
    <glyph glyph-name="two.subs" horiz-adv-x="316" 
d="M195 245q59 0 91.5 -19t32.5 -54q0 -25 -17.5 -50.5t-44.5 -47t-63.5 -45.5t-69.5 -43q-12 -7 -18 -10h113q23 0 31.5 3t10.5 15l1 4h21l-20 -98h-260l4 21q103 76 160.5 140t57.5 125q0 38 -29 38q-32 0 -40 -42q-9 -38 -49 -38q-31 0 -31 28q0 29 36 51t83 22z" />
    <glyph glyph-name="three.subs" horiz-adv-x="311" 
d="M190 80q93 -10 93 -73q0 -58 -47.5 -85t-121.5 -27q-42 0 -69.5 16.5t-27.5 39.5q0 18 13.5 31.5t33.5 13.5q15 0 24 -8t9 -20q0 -4 -2 -15t-2 -14q0 -23 34 -23q31 0 48 33.5t17 77.5q0 43 -57 43h-23l5 20h23q40 0 65.5 30.5t25.5 69.5q0 34 -31 34q-20 0 -30.5 -9
t-15.5 -33q-9 -38 -49 -38q-30 0 -30 28q0 29 35.5 51t82.5 22q119 0 119 -59q0 -82 -122 -106z" />
    <glyph glyph-name="four.subs" horiz-adv-x="301" 
d="M287 245l-51 -241h43l-5 -21h-42l-10 -47q-2 -10 0 -12.5t12 -2.5h28l-5 -21h-179l4 21h29q10 0 13 2.5t5 12.5l10 47h-132l5 21l253 241h22zM38 4h106l26 122z" />
    <glyph glyph-name="five.subs" horiz-adv-x="319" 
d="M230 149q-23 0 -60.5 5.5t-55.5 6.5l-24 -77q33 21 74 21q53 0 88.5 -19t35.5 -59q0 -64 -51.5 -98t-124.5 -34q-42 0 -70 16t-28 40q0 18 14 31.5t33 13.5q33 0 33 -28q0 -4 -1.5 -15t-1.5 -14q0 -23 34 -23q31 0 50.5 44t19.5 84t-44 40q-33 0 -68 -24h-21l55 183
q39 0 89 -9t62 -9q33 0 38 20h21q-10 -48 -36.5 -72t-60.5 -24z" />
    <glyph glyph-name="six.subs" horiz-adv-x="346" 
d="M291 144q-16 0 -25 8t-9 22q0 3 2 14t2 16q0 20 -25 20q-52 0 -88 -126q30 16 59 16q49 0 81 -20t32 -58q0 -60 -50 -100.5t-119 -40.5q-54 0 -82 34t-28 87q0 92 61.5 160.5t149.5 68.5q34 0 60 -16.5t26 -39.5q0 -19 -13.5 -32t-33.5 -13zM186 90q-19 0 -44 -15
q-16 -69 -16 -117q0 -42 30 -42q29 0 49 43.5t20 85.5q0 45 -39 45z" />
    <glyph glyph-name="seven.subs" horiz-adv-x="316" 
d="M347 244q-21 -32 -65.5 -86t-73 -102t-41.5 -109q-11 -52 -59 -52q-19 0 -31 12t-7 35q6 27 40 65t87 86t77 75q-41 -31 -79 -31q-19 0 -51.5 16t-44.5 16q-22 0 -26 -20l-1 -5h-21l20 95h21l-13 -60q38 65 89 65q29 0 61 -23.5t39 -23.5q16 0 27.5 9t29.5 38h22z" />
    <glyph glyph-name="eight.subs" horiz-adv-x="324" 
d="M236 95q32 -19 49 -39.5t17 -50.5q0 -51 -47.5 -80.5t-117.5 -29.5q-118 0 -118 72q0 25 16.5 44t34.5 28.5t50 21.5q-27 20 -41 39.5t-14 48.5q0 45 44 70.5t109 25.5q52 0 75.5 -20t23.5 -48q0 -27 -25.5 -49t-55.5 -33zM216 224q-25 0 -38.5 -14.5t-13.5 -36.5
q0 -33 52 -65q46 35 46 69q0 47 -46 47zM141 -84q27 0 44 15t17 38q0 17 -10 32t-20.5 23.5t-30.5 22.5q-66 -28 -66 -78q0 -22 17.5 -37.5t48.5 -15.5z" />
    <glyph glyph-name="nine.subs" horiz-adv-x="346" 
d="M226 245q54 0 82 -34.5t28 -87.5q0 -90 -61.5 -159t-149.5 -69q-35 0 -61 16.5t-26 39.5q0 18 14 31.5t34 13.5q15 0 24 -8t9 -20q0 -4 -1.5 -15t-1.5 -16q0 -21 25 -21q49 0 87 126q-30 -15 -59 -15q-50 0 -81 19t-31 58q0 60 49.5 100.5t119.5 40.5zM191 51q19 0 43 13
q16 69 16 118q0 42 -29 42t-49 -43t-20 -86q0 -44 39 -44z" />
    <glyph glyph-name="zero.tf" horiz-adv-x="653" 
d="M473 690q102 0 154 -59.5t52 -166.5q0 -121 -42 -228.5t-124.5 -176.5t-188.5 -69q-102 0 -154 59.5t-52 167.5q0 121 42.5 228t125 176t187.5 69zM465 654q-61 0 -112.5 -90t-77 -205t-25.5 -211q0 -122 82 -122q61 0 112.5 90t77 205t25.5 211q0 122 -82 122z" />
    <glyph glyph-name="one.tf" horiz-adv-x="653" 
d="M111 0l8 35h115q19 0 25 5t11 25l105 490q4 20 -0.5 25t-23.5 5h-115l7 35q209 0 265 70h35l-133 -625q-4 -19 0 -24.5t24 -5.5h115l-8 -35h-430z" />
    <glyph glyph-name="two.tf" horiz-adv-x="653" 
d="M456 690q105 0 165 -37.5t60 -106.5q0 -123 -197 -272q-58 -44 -236 -158h226q49 0 70 9.5t27 39.5l3 15h35l-38 -180h-490l8 35q84 61 141.5 105.5t120.5 101.5t100.5 105t62 103t24.5 108q0 44 -21 70t-62 26q-84 0 -103 -86q-5 -26 -26 -42.5t-49 -16.5q-48 0 -48 42
q0 57 71.5 98t155.5 41z" />
    <glyph glyph-name="three.tf" horiz-adv-x="653" 
d="M419 357q47 -3 86.5 -16t71 -46t31.5 -82q0 -75 -46 -127t-116 -74t-158 -22q-83 0 -134.5 32t-51.5 76q0 30 21 51.5t52 21.5q24 0 38 -12t14 -32q0 -6 -3 -22.5t-3 -20.5q0 -58 86 -58q75 0 117.5 59t42.5 146q0 106 -141 106h-46l8 40h46q88 1 147 58t59 139
q0 80 -89 80q-47 0 -73.5 -20t-36.5 -66q-5 -26 -26 -42.5t-49 -16.5q-48 0 -48 42q0 57 72 98t155 41q219 0 219 -120q0 -87 -70 -141t-175 -72z" />
    <glyph glyph-name="four.tf" horiz-adv-x="653" 
d="M638 690l-104 -488h96l-9 -36h-94l-22 -101q-4 -19 0 -24.5t24 -5.5h65l-8 -35h-330l8 35h65q19 0 25 5t11 25l22 101h-286l9 36l493 488h35zM155 202h239l64 302z" />
    <glyph glyph-name="five.tf" horiz-adv-x="653" 
d="M524 535q-41 0 -114.5 11t-105.5 13l-58 -190q71 41 147 41q100 0 164 -39t64 -118q0 -82 -47 -143t-121.5 -90.5t-163.5 -29.5q-82 0 -134 32t-52 76q0 30 21 51.5t52 21.5q24 0 38 -12t14 -32q0 -4 -2.5 -20.5t-2.5 -22.5q0 -58 86 -58q77 0 124 78t47 173q0 53 -26 75
t-79 22q-72 0 -141 -47h-36l107 358q65 0 163 -18t126 -18q59 0 70 44h35q-18 -81 -65.5 -119.5t-109.5 -38.5z" />
    <glyph glyph-name="six.tf" horiz-adv-x="653" 
d="M612 509q-24 0 -38 12t-14 33q0 4 3 19.5t3 25.5q0 55 -71 55q-67 0 -121.5 -78t-88.5 -197q75 44 145 44q95 0 153 -39t58 -116q0 -118 -93 -198t-222 -80q-103 0 -154.5 64t-51.5 165q0 119 52 227t145 176t202 68q69 0 117.5 -32.5t48.5 -75.5q0 -31 -21 -52t-52 -21z
M399 383q-57 0 -124 -45q-23 -103 -23 -197q0 -115 81 -115q70 0 118 83t48 173q0 101 -100 101z" />
    <glyph glyph-name="seven.tf" horiz-adv-x="653" 
d="M735 690q-39 -60 -105 -142t-111.5 -139t-91 -146.5t-66.5 -187.5q-18 -84 -91 -84q-28 0 -45 19.5t-9 56.5q12 57 62 129t104.5 129t126 130t104.5 112q-64 -49 -139 -49q-42 0 -105 27.5t-88 27.5q-60 0 -70 -52l-5 -23h-35l39 182h35l-22 -100q63 110 166 110
q41 0 81 -20t72.5 -40t53.5 -20q29 0 50 16t52 64h37z" />
    <glyph glyph-name="eight.tf" horiz-adv-x="653" 
d="M485 377q66 -40 101.5 -79t35.5 -100q0 -98 -85.5 -153t-214.5 -55q-118 0 -170 42.5t-52 103.5q0 37 17.5 68.5t50.5 56t65.5 41.5t76.5 34q-53 35 -82.5 73.5t-29.5 92.5q0 87 80 137.5t198 50.5q96 0 142 -39t46 -96q0 -62 -52.5 -107t-126.5 -71zM472 654
q-60 0 -97.5 -33t-37.5 -86q0 -43 29 -73.5t84 -63.5q62 31 95 67.5t33 89.5q0 47 -30 73t-76 26zM329 26q68 0 111 35.5t43 91.5q0 27 -10 49t-34.5 44t-40 32.5t-52.5 34.5q-76 -33 -117.5 -73.5t-41.5 -100.5q0 -45 36.5 -79t105.5 -34z" />
    <glyph glyph-name="nine.tf" horiz-adv-x="653" 
d="M472 690q103 0 154.5 -64.5t51.5 -164.5q0 -118 -52 -226t-145 -176.5t-202 -68.5q-69 0 -118 32.5t-49 76.5q0 30 21 51t52 21q24 0 37.5 -12t13.5 -32q0 -3 -2.5 -20t-2.5 -25q0 -56 70 -56q68 0 122.5 78t87.5 197q-68 -43 -144 -43q-95 0 -153 38.5t-58 115.5
q0 118 93 198t223 80zM398 298q61 0 123 43q24 102 24 198q0 115 -81 115q-70 0 -117.5 -82.5t-47.5 -173.5q0 -100 99 -100z" />
    <glyph glyph-name="zero.tosf" horiz-adv-x="653" 
d="M434 510q107 0 163 -54.5t56 -141.5q0 -136 -95 -230t-234 -94q-107 0 -162.5 54t-55.5 142q0 135 95 229.5t233 94.5zM427 474q-54 0 -98 -55t-65 -130t-21 -149q0 -114 89 -114q54 0 97.5 55t65 130.5t21.5 148.5q0 114 -89 114z" />
    <glyph glyph-name="one.tosf" horiz-adv-x="653" 
d="M111 0l8 35h115q19 0 25 5t11 25l66 310q5 19 0.5 24.5t-23.5 5.5h-115l7 35q210 0 264 70h35l-94 -445q-4 -19 0 -24.5t24 -5.5h115l-8 -35h-430z" />
    <glyph glyph-name="two.tosf" horiz-adv-x="653" 
d="M417 510q235 0 235 -110q0 -37 -23 -72t-54.5 -61t-84 -54t-92 -45.5t-95.5 -40.5q-18 -7 -27 -11h198q49 0 70 9.5t27 39.5l3 15h35l-38 -180h-490l8 35q26 16 75.5 46.5t76.5 47t69 44t66 46t52.5 43.5t43.5 45.5t25.5 44t10.5 46.5q0 34 -23.5 55t-67.5 21
q-85 0 -103 -86q-6 -26 -26.5 -42.5t-48.5 -16.5q-48 0 -48 42q0 57 71.5 98t154.5 41z" />
    <glyph glyph-name="three.tosf" horiz-adv-x="653" 
d="M381 177q47 -3 86.5 -16t71 -46t31.5 -82q0 -75 -46 -127t-116 -74t-158 -22q-83 0 -134.5 32t-51.5 76q0 30 21 51.5t52 21.5q24 0 38 -12t14 -32q0 -7 -3 -23.5t-3 -19.5q0 -58 86 -58q75 0 117.5 59t42.5 146q0 106 -141 106h-46l8 40h46q88 1 147 58t59 139
q0 80 -89 80q-47 0 -73.5 -20t-36.5 -66q-5 -26 -26 -42.5t-49 -16.5q-48 0 -48 42q0 57 72 98t155 41q219 0 219 -120q0 -87 -70 -141t-175 -72z" />
    <glyph glyph-name="four.tosf" horiz-adv-x="653" 
d="M599 510l-103 -488h95l-8 -36h-95l-35 -166h-140l35 166h-285l8 36l493 488h35zM116 22h240l64 302z" />
    <glyph glyph-name="five.tosf" horiz-adv-x="653" 
d="M486 355q-41 0 -114.5 11t-105.5 13l-58 -190q71 41 147 41q100 0 164 -39t64 -118q0 -82 -47 -143t-121.5 -90.5t-163.5 -29.5q-82 0 -134 32t-52 76q0 30 21 51.5t52 21.5q24 0 38 -12t14 -32q0 -4 -2.5 -20.5t-2.5 -22.5q0 -58 86 -58q52 0 92.5 39t59.5 95t19 117
q0 53 -26 75t-79 22q-72 0 -141 -47h-36l107 358q65 0 163 -18t126 -18q59 0 70 44h35q-18 -81 -65.5 -119.5t-109.5 -38.5z" />
    <glyph glyph-name="six.tosf" horiz-adv-x="653" 
d="M612 509q-24 0 -38 12t-14 33q0 4 3 19.5t3 25.5q0 55 -71 55q-67 0 -121.5 -78t-88.5 -197q75 44 145 44q95 0 153 -39t58 -116q0 -118 -93 -198t-222 -80q-103 0 -154.5 64t-51.5 165q0 119 52 227t145 176t202 68q69 0 117.5 -32.5t48.5 -75.5q0 -31 -21 -52t-52 -21z
M399 383q-57 0 -124 -45q-23 -103 -23 -197q0 -115 81 -115q70 0 118 83t48 173q0 101 -100 101z" />
    <glyph glyph-name="seven.tosf" horiz-adv-x="653" 
d="M696 510q-39 -60 -104.5 -142t-111 -139t-91 -146.5t-66.5 -187.5q-17 -84 -91 -84q-28 0 -45 19.5t-9 55.5q12 57 62 129.5t104.5 129.5t126.5 130t104 112q-66 -49 -139 -49q-42 0 -105 27.5t-88 27.5q-59 0 -71 -52l-4 -23h-35l38 182h35l-21 -100q63 110 165 110
q41 0 81.5 -20t72.5 -40t53 -20q29 0 50 16t52 64h37z" />
    <glyph glyph-name="eight.tosf" horiz-adv-x="653" 
d="M485 377q66 -40 101.5 -79t35.5 -100q0 -98 -85.5 -153t-214.5 -55q-118 0 -170 42.5t-52 103.5q0 37 17.5 68.5t50.5 56t65.5 41.5t76.5 34q-53 35 -82.5 73.5t-29.5 92.5q0 87 80 137.5t198 50.5q96 0 142 -39t46 -96q0 -62 -52.5 -107t-126.5 -71zM472 654
q-60 0 -97.5 -33t-37.5 -86q0 -43 29 -73.5t84 -63.5q62 31 95 67.5t33 89.5q0 47 -30 73t-76 26zM329 26q68 0 111 35.5t43 91.5q0 27 -10 49t-34.5 44t-40 32.5t-52.5 34.5q-76 -33 -117.5 -73.5t-41.5 -100.5q0 -45 36.5 -79t105.5 -34z" />
    <glyph glyph-name="nine.tosf" horiz-adv-x="653" 
d="M434 510q102 0 153.5 -64t51.5 -165q0 -118 -52 -226t-145 -176.5t-201 -68.5q-69 0 -118.5 32.5t-49.5 76.5q0 30 21 51t53 21q24 0 37.5 -12t13.5 -32q0 -3 -2.5 -20t-2.5 -25q0 -56 70 -56q67 0 121.5 78t88.5 197q-70 -43 -144 -43q-95 0 -153 38.5t-58 115.5
q0 118 93 198t223 80zM360 118q61 0 123 43q24 102 24 198q0 115 -81 115q-47 0 -86.5 -41.5t-59.5 -99.5t-20 -115q0 -100 100 -100z" />
    <glyph glyph-name="zero.dnom" horiz-adv-x="359" 
d="M252 345q57 0 87.5 -30.5t30.5 -86.5q0 -95 -53 -164t-139 -69q-57 0 -86.5 31t-29.5 88q0 95 52.5 163t137.5 68zM248 324q-39 0 -68.5 -92.5t-29.5 -164.5q0 -51 33 -51q39 0 68.5 92t29.5 164q0 52 -33 52z" />
    <glyph glyph-name="one.dnom" horiz-adv-x="224" 
d="M22 0l4 21h29q10 0 13.5 2.5t4.5 12.5l50 231q2 10 0 12.5t-12 2.5h-29l4 21q45 0 78.5 13t45.5 29h21l-65 -309q-2 -10 0 -12.5t12 -2.5h29l-5 -21h-180z" />
    <glyph glyph-name="two.dnom" horiz-adv-x="316" 
d="M216 345q59 0 92 -18.5t33 -53.5q0 -61 -117 -138q-26 -17 -97 -59h113q22 0 31 3.5t11 14.5l2 4h21l-21 -98h-260l4 21q104 77 161 139.5t57 123.5q0 40 -29 40q-31 0 -40 -42q-9 -38 -49 -38q-31 0 -31 27q0 32 37 53t82 21z" />
    <glyph glyph-name="three.dnom" horiz-adv-x="311" 
d="M211 180q93 -10 93 -73q0 -57 -48 -84.5t-121 -27.5q-42 0 -69.5 16.5t-27.5 40.5q0 18 13.5 31t33.5 13q15 0 24 -8t9 -20q0 -4 -2 -15t-2 -13q0 -24 34 -24q31 0 48 33.5t17 77.5q0 43 -57 43h-23l5 20h23q40 0 65.5 30.5t25.5 69.5q0 34 -31 34q-20 0 -30.5 -9
t-15.5 -33q-9 -38 -49 -38q-30 0 -30 28q0 29 35.5 51t82.5 22q119 0 119 -59q0 -82 -122 -106z" />
    <glyph glyph-name="four.dnom" horiz-adv-x="301" 
d="M308 345l-51 -241h44l-5 -21h-43l-10 -47q-2 -10 0 -12.5t12 -2.5h28l-5 -21h-179l4 21h29q10 0 13.5 2.5t4.5 12.5l10 47h-131l5 21l252 241h22zM60 104h105l26 122z" />
    <glyph glyph-name="five.dnom" horiz-adv-x="319" 
d="M251 249q-22 0 -60 5.5t-56 6.5l-23 -77q32 21 73 21q53 0 88.5 -19t35.5 -59q0 -64 -51.5 -98t-124.5 -34q-42 0 -69.5 16.5t-27.5 40.5q0 18 13.5 31t33.5 13q15 0 24 -8t9 -20q0 -4 -2 -14.5t-2 -13.5q0 -24 34 -24q31 0 51 44t20 84t-45 40q-33 0 -68 -24h-21l55 183
q39 0 89 -9t62 -9q35 0 38 20h21q-10 -48 -36.5 -72t-60.5 -24z" />
    <glyph glyph-name="six.dnom" horiz-adv-x="346" 
d="M312 244q-16 0 -25 8t-9 22q0 3 2 14t2 16q0 20 -25 20q-52 0 -88 -126q30 16 59 16q49 0 81 -20t32 -58q0 -60 -50 -100.5t-119 -40.5q-54 0 -82 34t-28 87q0 92 61.5 160.5t149.5 68.5q34 0 60 -16.5t26 -39.5q0 -19 -13.5 -32t-33.5 -13zM207 190q-19 0 -44 -15
q-16 -69 -16 -116q0 -43 30 -43q29 0 49 43.5t20 85.5q0 45 -39 45z" />
    <glyph glyph-name="seven.dnom" horiz-adv-x="316" 
d="M368 344q-21 -33 -65 -86t-73 -101.5t-42 -109.5q-11 -52 -59 -52q-18 0 -30 12.5t-8 34.5q6 27 40.5 65t87 86t76.5 75q-41 -31 -79 -31q-18 0 -51 16t-45 16q-22 0 -26 -20l-1 -5h-21l20 95h21l-12 -60q37 65 88 65q29 0 61 -23.5t39 -23.5q16 0 27.5 9t29.5 38h22z
" />
    <glyph glyph-name="eight.dnom" horiz-adv-x="324" 
d="M256 195q20 -13 32.5 -23t23 -28t10.5 -39q0 -51 -47.5 -80.5t-117.5 -29.5q-118 0 -118 72q0 25 16.5 44t34.5 28.5t50 21.5q-27 20 -41 39.5t-14 48.5q0 45 44 70.5t108 25.5q52 0 76 -20t24 -48q0 -27 -25.5 -49t-55.5 -33zM236 324q-25 0 -38.5 -14.5t-13.5 -36.5
q0 -34 51 -65q47 34 47 69q0 21 -12 34t-34 13zM161 17q27 0 44 15t17 38q0 16 -10 31t-20.5 23.5t-30.5 22.5q-67 -29 -67 -78q0 -21 18 -36.5t49 -15.5z" />
    <glyph glyph-name="nine.dnom" horiz-adv-x="346" 
d="M247 345q54 0 82 -34.5t28 -87.5q0 -90 -61.5 -159t-149.5 -69q-35 0 -61 16.5t-26 40.5q0 18 14 31t34 13q15 0 24 -8t9 -20q0 -4 -1.5 -15t-1.5 -16q0 -21 25 -21q49 0 87 126q-30 -15 -59 -15q-50 0 -81 19t-31 58q0 60 49.5 100.5t119.5 40.5zM212 151q19 0 43 13
q16 69 16 118q0 42 -29 42t-49 -43t-20 -86q0 -44 39 -44z" />
    <glyph glyph-name="zero.numr" horiz-adv-x="359" 
d="M325 685q57 0 87 -30.5t30 -86.5q0 -95 -53 -164t-139 -69q-57 0 -86.5 31t-29.5 88q0 94 53 162.5t138 68.5zM321 664q-39 0 -69 -93t-30 -164q0 -51 33 -51q39 0 69 93t30 164q0 51 -33 51z" />
    <glyph glyph-name="one.numr" horiz-adv-x="224" 
d="M94 340l4 21h29q10 0 13.5 2.5t5.5 12.5l49 231q2 10 0 12.5t-12 2.5h-29l4 21q45 0 79 13t46 29h21l-65 -309q-2 -10 -0.5 -12.5t11.5 -2.5h29l-5 -21h-180z" />
    <glyph glyph-name="two.numr" horiz-adv-x="316" 
d="M289 685q58 0 91 -18.5t33 -53.5q0 -61 -117 -138q-26 -17 -97 -59h113q22 0 31 3.5t12 14.5l1 4h21l-21 -98h-260l4 21q103 76 161 140t58 124q0 39 -29 39q-32 0 -41 -42q-9 -38 -49 -38q-30 0 -30 27q0 32 37 53t82 21z" />
    <glyph glyph-name="three.numr" horiz-adv-x="311" 
d="M283 520q94 -10 94 -73q0 -57 -48.5 -84.5t-121.5 -27.5q-42 0 -69.5 16.5t-27.5 40.5q0 18 13.5 31t33.5 13q15 0 24 -8t9 -20q0 -4 -1.5 -15t-1.5 -13q0 -24 33 -24q31 0 48 33.5t17 77.5q0 43 -56 43h-23l4 20h23q40 0 65.5 30.5t25.5 69.5q0 34 -31 34
q-20 0 -30.5 -9t-15.5 -33q-3 -17 -16 -27.5t-32 -10.5q-31 0 -31 28q0 29 35.5 51t83.5 22q119 0 119 -59q0 -82 -123 -106z" />
    <glyph glyph-name="four.numr" horiz-adv-x="301" 
d="M381 685l-51 -241h43l-5 -21h-43l-9 -47q-2 -10 -0.5 -12.5t11.5 -2.5h28l-5 -21h-179l4 21h29q10 0 13.5 2.5t5.5 12.5l10 47h-132l5 21l253 241h22zM132 444h105l27 124l-1 -1z" />
    <glyph glyph-name="five.numr" horiz-adv-x="319" 
d="M324 591q-21 0 -58 5.5t-57 6.5l-24 -76q36 21 73 21q53 0 88.5 -19t35.5 -59q0 -64 -51.5 -98t-124.5 -34q-42 0 -69.5 16t-27.5 40q0 18 13.5 31.5t33.5 13.5q33 0 33 -29q0 -3 -1.5 -14t-1.5 -14q0 -24 33 -24q31 0 51 44t20 84q0 41 -45 41q-35 0 -67 -25h-21l55 184
q38 0 88 -9t62 -9q35 0 38 19h22q-11 -48 -37.5 -72t-60.5 -24z" />
    <glyph glyph-name="six.numr" horiz-adv-x="346" 
d="M383 584q-16 0 -25 8t-9 22q0 3 2.5 14t2.5 16q0 20 -26 20q-50 0 -88 -126q32 16 59 16q50 0 81.5 -19.5t31.5 -58.5q0 -60 -49.5 -100.5t-118.5 -40.5q-54 0 -82.5 34t-28.5 87q0 92 61.5 160.5t149.5 68.5q34 0 60 -16.5t26 -39.5q0 -19 -13 -32t-34 -13zM278 530
q-17 0 -44 -15q-15 -65 -15 -116q0 -43 29 -43t49 43t20 86q0 45 -39 45z" />
    <glyph glyph-name="seven.numr" horiz-adv-x="316" 
d="M440 684q-21 -33 -65 -86t-73 -101.5t-42 -109.5q-10 -52 -59 -52q-18 0 -30 12.5t-7 34.5q6 28 39.5 65t87.5 86t77 75q-41 -31 -80 -31q-18 0 -51 16t-45 16q-22 0 -26 -20l-1 -5h-21l20 95h22l-13 -60q38 65 89 65q29 0 60.5 -23.5t38.5 -23.5q16 0 28 9t29 38h22z
" />
    <glyph glyph-name="eight.numr" horiz-adv-x="324" 
d="M330 535q32 -19 49 -39.5t17 -50.5q0 -51 -47.5 -80.5t-117.5 -29.5q-118 0 -118 72q0 25 16.5 44t34.5 28.5t50 21.5q-27 20 -41 39.5t-14 48.5q0 45 44 70.5t109 25.5q52 0 75.5 -20t23.5 -48q0 -27 -25.5 -49t-55.5 -33zM310 664q-25 0 -38.5 -14.5t-13.5 -36.5
q0 -33 52 -65q46 35 46 69q0 47 -46 47zM235 357q27 0 44 15t17 38q0 16 -10 31t-20.5 23.5t-30.5 22.5q-66 -28 -66 -78q0 -22 17.5 -37t48.5 -15z" />
    <glyph glyph-name="nine.numr" horiz-adv-x="346" 
d="M320 685q54 0 82 -34.5t28 -87.5q0 -90 -61.5 -159t-149.5 -69q-35 0 -61 16.5t-26 40.5q0 18 14 31t34 13q15 0 24 -8t9 -20q0 -4 -1.5 -15t-1.5 -16q0 -21 25 -21q49 0 87 126q-30 -15 -59 -15q-50 0 -81 19t-31 58q0 60 49.5 100.5t119.5 40.5zM285 491q19 0 43 13
q16 69 16 118q0 42 -29 42t-49 -43t-20 -86q0 -44 39 -44z" />
    <glyph glyph-name="zero.sups" horiz-adv-x="359" 
d="M346 785q58 0 87.5 -31t29.5 -87q0 -95 -53 -163.5t-139 -68.5q-56 0 -86 31t-30 86q0 95 53 164t138 69zM342 764q-39 0 -69 -94t-30 -164q0 -50 33 -50q39 0 69 92.5t30 163.5q0 52 -33 52z" />
    <glyph glyph-name="four.sups" horiz-adv-x="301" 
d="M402 785l-51 -241h43l-5 -21h-43l-9 -47q-2 -10 0 -12.5t12 -2.5h28l-5 -21h-179l4 21h29q10 0 13 2.5t5 12.5l10 47h-132l5 21l253 241h22zM153 544h105l26 122z" />
    <glyph glyph-name="five.sups" horiz-adv-x="319" 
d="M345 691q-21 0 -58 5.5t-57 6.5l-24 -76q36 21 73 21q53 0 88.5 -19t35.5 -59q0 -64 -51.5 -98t-124.5 -34q-42 0 -69.5 16t-27.5 40q0 18 13.5 31.5t33.5 13.5q33 0 33 -29q0 -3 -1.5 -14t-1.5 -14q0 -24 33 -24q31 0 51 44t20 84q0 41 -45 41q-35 0 -67 -25h-21l55 184
q39 0 89 -9t61 -9q35 0 38 19h22q-11 -48 -37.5 -72t-60.5 -24z" />
    <glyph glyph-name="six.sups" horiz-adv-x="346" 
d="M406 684q-16 0 -25 8t-9 22q0 3 2 14t2 16q0 20 -25 20q-52 0 -88 -126q30 16 59 16q49 0 81 -20t32 -58q0 -60 -50 -100.5t-119 -40.5q-54 0 -82 34t-28 87q0 92 61.5 160.5t149.5 68.5q34 0 60 -16.5t26 -39.5q0 -19 -13.5 -32t-33.5 -13zM301 630q-19 0 -44 -15
q-16 -69 -16 -116q0 -43 30 -43q29 0 49 43.5t20 85.5q0 45 -39 45z" />
    <glyph glyph-name="seven.sups" horiz-adv-x="316" 
d="M462 784q-19 -30 -51 -69.5t-54 -66.5t-44 -70t-32 -91q-10 -52 -59 -52q-18 0 -30 12.5t-7 34.5q6 27 40 65t87 86t77 75q-41 -31 -80 -31q-19 0 -51 16t-44 16q-22 0 -26 -20l-1 -5h-21l20 95h21l-13 -60q38 65 89 65q29 0 60.5 -23.5t38.5 -23.5q16 0 28 9t30 38h22z
" />
    <glyph glyph-name="eight.sups" horiz-adv-x="324" 
d="M351 635q32 -19 49 -39.5t17 -50.5q0 -51 -47.5 -80.5t-117.5 -29.5q-118 0 -118 72q0 25 16.5 44t34.5 28.5t50 21.5q-27 20 -41 39.5t-14 48.5q0 45 44 70.5t109 25.5q52 0 75.5 -20t23.5 -48q0 -27 -25.5 -49t-55.5 -33zM331 764q-25 0 -38.5 -14.5t-13.5 -36.5
q0 -33 52 -65q46 35 46 69q0 47 -46 47zM256 457q27 0 44 15t17 38q0 16 -10 31t-20.5 23.5t-30.5 22.5q-66 -28 -66 -78q0 -22 17.5 -37t48.5 -15z" />
    <glyph glyph-name="nine.sups" horiz-adv-x="346" 
d="M341 785q54 0 82 -34.5t28 -87.5q0 -90 -61.5 -159t-149.5 -69q-35 0 -61 16.5t-26 40.5q0 18 14 31t34 13q15 0 24 -8t9 -20q0 -4 -1.5 -15t-1.5 -16q0 -21 25 -21q49 0 87 126q-30 -15 -59 -15q-50 0 -81 19t-31 58q0 60 49.5 100.5t119.5 40.5zM306 591q19 0 43 13
q16 69 16 118q0 42 -29 42t-49 -43t-20 -86q0 -44 39 -44z" />
    <glyph glyph-name="periodcentered.cap" horiz-adv-x="210" 
d="M192 409q23 0 36 -13t13 -33q0 -29 -22 -51.5t-53 -22.5q-23 0 -36 13t-13 33q0 29 22 51.5t53 22.5z" />
    <glyph glyph-name="exclamdown.cap" horiz-adv-x="335" 
d="M309 630q-23 0 -36 13t-13 33q0 29 22 51.5t53 22.5q23 0 36 -13t13 -33q0 -29 -22 -51.5t-53 -22.5zM175 -10q-30 0 -46.5 21t-10.5 50q9 43 73 216.5t86 277.5h35q-22 -104 -32 -278t-19 -216q-7 -30 -31.5 -50.5t-54.5 -20.5z" />
    <glyph glyph-name="questiondown.cap" horiz-adv-x="544" 
d="M303 630q-23 0 -36 13t-13 33q0 29 22 51.5t53 22.5q23 0 36 -13t13 -33q0 -29 -22 -51.5t-53 -22.5zM151 -10q-102 0 -158 39t-56 110q0 22 4 42q12 55 46.5 98t77.5 71.5t86 55.5t76.5 64.5t43.5 84.5h35q-8 -38 -30 -73t-49.5 -64.5t-55 -61.5t-51.5 -77.5t-35 -98.5
q-7 -28 -7 -63q0 -91 80 -91q89 0 106 87q6 25 26.5 41.5t48.5 16.5q48 0 48 -42q0 -57 -78 -98t-158 -41z" />
    <glyph glyph-name="emdash.cap" horiz-adv-x="640" 
d="M670 373l-10 -45h-540l10 45h540z" />
    <glyph glyph-name="endash.cap" horiz-adv-x="490" 
d="M520 373l-10 -45h-390l10 45h390z" />
    <glyph glyph-name="hyphen.cap" horiz-adv-x="390" 
d="M420 373l-10 -45h-290l10 45h290z" />
    <glyph glyph-name="uni00AD.cap" horiz-adv-x="390" 
d="M402 373l-10 -45h-290l10 45h290z" />
    <glyph glyph-name="guillemotleft.cap" horiz-adv-x="585" 
d="M308 179q-48 70 -93.5 103.5t-122.5 63.5l10 45q91 30 150 63t137 104l15 -19q-51 -90 -165 -171q79 -77 92 -170zM543 179q-48 70 -93.5 103.5t-122.5 63.5l10 45q91 30 150 63t137 104l15 -19q-51 -90 -165 -171q79 -77 92 -170z" />
    <glyph glyph-name="guillemotright.cap" horiz-adv-x="585" 
d="M76 179l-15 19q53 92 164 170q-78 78 -91 171l22 19q48 -71 93 -104t123 -63l-10 -45q-90 -30 -148.5 -63t-137.5 -104zM311 179l-15 19q53 92 164 170q-78 78 -91 171l22 19q48 -71 93 -104t123 -63l-10 -45q-90 -30 -148.5 -63t-137.5 -104z" />
    <glyph glyph-name="guilsinglleft.cap" horiz-adv-x="350" 
d="M308 179q-48 70 -93.5 103.5t-122.5 63.5l10 45q91 30 150 63t137 104l15 -19q-51 -90 -165 -171q79 -77 92 -170z" />
    <glyph glyph-name="guilsinglright.cap" horiz-adv-x="350" 
d="M76 179l-15 19q53 92 164 170q-78 78 -91 171l22 19q48 -71 93 -104t123 -63l-10 -45q-90 -30 -148.5 -63t-137.5 -104z" />
    <glyph glyph-name="at.cap" horiz-adv-x="870" 
d="M610 732q136 0 220 -66.5t84 -184.5q0 -135 -86 -243t-209 -108q-46 0 -72.5 20.5t-26.5 53.5q0 15 7 36q-74 -90 -156 -90q-51 0 -75.5 24.5t-24.5 63.5q0 65 54.5 136.5t137 119t156.5 47.5q56 0 56 -46q0 -8 -3 -17l39 55h109l-200 -293q-15 -22 -15 -39q0 -34 47 -34
q62 0 116 50.5t82.5 120.5t28.5 136q0 103 -71.5 163t-190.5 60q-118 0 -219 -64.5t-159 -169.5t-58 -223q0 -113 64 -179t173 -66l-8 -35q-137 0 -217.5 79t-80.5 207q0 129 68 241t183 178.5t247 66.5zM611 506q-43 0 -102.5 -52t-101.5 -119t-42 -110q0 -36 32 -36
q42 0 88.5 44.5t126.5 158.5q33 47 33 82q0 32 -34 32z" />
    <glyph glyph-name="caroncomb.alt" horiz-adv-x="0" 
d="M46 710q24 0 38.5 -14.5t14.5 -40.5q0 -59 -47 -112t-105 -53l6 26q32 0 55 21t23 47q0 14 -20 14q-19 0 -30.5 11.5t-11.5 30.5q0 29 22.5 49.5t54.5 20.5z" />
    </font>
</defs>
</svg>
