<?xml version="1.0" encoding="UTF-8"?><svg xmlns="http://www.w3.org/2000/svg" xmlns:xlink="http://www.w3.org/1999/xlink" viewBox="0 0 845.32 192.07"><defs><style>.cls-1{fill:url(#Degradado_sin_nombre_3-154);}.cls-1,.cls-2,.cls-3,.cls-4,.cls-5,.cls-6,.cls-7,.cls-8,.cls-9,.cls-10,.cls-11,.cls-12,.cls-13,.cls-14,.cls-15,.cls-16,.cls-17,.cls-18,.cls-19,.cls-20,.cls-21,.cls-22,.cls-23,.cls-24,.cls-25,.cls-26,.cls-27,.cls-28,.cls-29,.cls-30,.cls-31,.cls-32,.cls-33,.cls-34,.cls-35,.cls-36,.cls-37,.cls-38,.cls-39,.cls-40,.cls-41,.cls-42,.cls-43,.cls-44,.cls-45,.cls-46,.cls-47,.cls-48,.cls-49,.cls-50,.cls-51,.cls-52,.cls-53,.cls-54,.cls-55,.cls-56,.cls-57,.cls-58,.cls-59,.cls-60,.cls-61,.cls-62,.cls-63,.cls-64,.cls-65,.cls-66,.cls-67,.cls-68,.cls-69,.cls-70,.cls-71,.cls-72,.cls-73,.cls-74,.cls-75,.cls-76,.cls-77,.cls-78,.cls-79,.cls-80,.cls-81,.cls-82,.cls-83,.cls-84,.cls-85,.cls-86,.cls-87,.cls-88,.cls-89,.cls-90,.cls-91,.cls-92,.cls-93,.cls-94,.cls-95,.cls-96,.cls-97,.cls-98,.cls-99,.cls-100,.cls-101,.cls-102,.cls-103,.cls-104,.cls-105,.cls-106,.cls-107,.cls-108,.cls-109,.cls-110,.cls-111,.cls-112,.cls-113,.cls-114,.cls-115,.cls-116,.cls-117,.cls-118,.cls-119,.cls-120,.cls-121,.cls-122,.cls-123,.cls-124,.cls-125,.cls-126,.cls-127,.cls-128,.cls-129,.cls-130,.cls-131,.cls-132,.cls-133,.cls-134,.cls-135,.cls-136,.cls-137,.cls-138,.cls-139,.cls-140,.cls-141,.cls-142,.cls-143,.cls-144,.cls-145,.cls-146,.cls-147,.cls-148,.cls-149,.cls-150,.cls-151,.cls-152,.cls-153,.cls-154,.cls-155,.cls-156,.cls-157,.cls-158,.cls-159,.cls-160,.cls-161,.cls-162,.cls-163,.cls-164,.cls-165,.cls-166,.cls-167,.cls-168,.cls-169,.cls-170,.cls-171,.cls-172,.cls-173,.cls-174,.cls-175,.cls-176,.cls-177,.cls-178,.cls-179,.cls-180,.cls-181,.cls-182,.cls-183,.cls-184,.cls-185,.cls-186,.cls-187,.cls-188,.cls-189,.cls-190,.cls-191,.cls-192,.cls-193,.cls-194,.cls-195,.cls-196,.cls-197,.cls-198,.cls-199,.cls-200,.cls-201,.cls-202,.cls-203,.cls-204,.cls-205,.cls-206,.cls-207,.cls-208,.cls-209,.cls-210,.cls-211,.cls-212,.cls-213,.cls-214,.cls-215,.cls-216,.cls-217,.cls-218{stroke-width:0px;}.cls-1,.cls-2,.cls-3,.cls-4,.cls-5,.cls-6,.cls-7,.cls-8,.cls-9,.cls-10,.cls-11,.cls-12,.cls-13,.cls-14,.cls-15,.cls-16,.cls-17,.cls-18,.cls-19,.cls-20,.cls-21,.cls-22,.cls-23,.cls-24,.cls-25,.cls-26,.cls-27,.cls-28,.cls-29,.cls-30,.cls-31,.cls-32,.cls-33,.cls-34,.cls-35,.cls-36,.cls-37,.cls-38,.cls-39,.cls-40,.cls-41,.cls-42,.cls-43,.cls-44,.cls-45,.cls-46,.cls-47,.cls-48,.cls-49,.cls-50,.cls-51,.cls-52,.cls-53,.cls-54,.cls-55,.cls-56,.cls-57,.cls-58,.cls-59,.cls-60,.cls-61,.cls-62,.cls-63,.cls-64,.cls-65,.cls-66,.cls-67,.cls-68,.cls-69,.cls-70,.cls-71,.cls-72,.cls-73,.cls-74,.cls-75,.cls-76,.cls-78,.cls-79,.cls-80,.cls-81,.cls-82,.cls-83,.cls-84,.cls-85,.cls-86,.cls-87,.cls-88,.cls-89,.cls-90,.cls-92,.cls-93,.cls-94,.cls-95,.cls-96,.cls-97,.cls-98,.cls-100,.cls-101,.cls-102,.cls-103,.cls-104,.cls-105,.cls-106,.cls-107,.cls-108,.cls-109,.cls-110,.cls-111,.cls-112,.cls-113,.cls-114,.cls-115,.cls-116,.cls-117,.cls-118,.cls-119,.cls-120,.cls-121,.cls-122,.cls-123,.cls-124,.cls-125,.cls-126,.cls-127,.cls-128,.cls-129,.cls-130,.cls-131,.cls-132,.cls-133,.cls-134,.cls-135,.cls-136,.cls-137,.cls-138,.cls-139,.cls-140,.cls-141,.cls-142,.cls-143,.cls-144,.cls-145,.cls-146,.cls-147,.cls-148,.cls-149,.cls-150,.cls-151,.cls-152,.cls-153,.cls-154,.cls-155,.cls-156,.cls-157,.cls-158,.cls-159,.cls-160,.cls-161,.cls-162,.cls-163,.cls-164,.cls-165,.cls-166,.cls-167,.cls-168,.cls-169,.cls-170,.cls-171,.cls-172,.cls-173,.cls-174,.cls-175,.cls-176,.cls-177,.cls-178,.cls-179,.cls-180,.cls-181,.cls-182,.cls-183,.cls-184,.cls-185,.cls-186,.cls-187,.cls-188,.cls-189,.cls-190,.cls-191,.cls-192,.cls-193,.cls-194,.cls-195,.cls-196,.cls-197,.cls-198,.cls-199,.cls-200,.cls-201,.cls-202,.cls-203,.cls-204,.cls-205,.cls-206,.cls-207,.cls-208,.cls-209,.cls-210,.cls-211,.cls-212,.cls-213,.cls-214,.cls-215,.cls-216,.cls-217,.cls-218{mix-blend-mode:multiply;}.cls-2{fill:url(#Degradado_sin_nombre_3-25);}.cls-3{fill:url(#Degradado_sin_nombre_3-152);}.cls-4{fill:url(#Degradado_sin_nombre_3-203);}.cls-5{fill:url(#Degradado_sin_nombre_3-177);}.cls-6{fill:url(#Degradado_sin_nombre_3-110);}.cls-7{fill:url(#Degradado_sin_nombre_3-20);}.cls-8{fill:url(#Degradado_sin_nombre_3-47);}.cls-9{fill:url(#Degradado_sin_nombre_3-166);}.cls-10{fill:url(#Degradado_sin_nombre_3-68);}.cls-11{fill:url(#Degradado_sin_nombre_3-38);}.cls-12{fill:url(#Degradado_sin_nombre_3-114);}.cls-13{fill:url(#Degradado_sin_nombre_3-109);}.cls-14{fill:url(#Degradado_sin_nombre_3-182);}.cls-15{fill:url(#Degradado_sin_nombre_3-99);}.cls-16{fill:url(#Degradado_sin_nombre_3-191);}.cls-17{fill:url(#Degradado_sin_nombre_3-104);}.cls-18{fill:url(#Degradado_sin_nombre_3-130);}.cls-19{fill:url(#Degradado_sin_nombre_3-215);}.cls-20{fill:url(#Degradado_sin_nombre_3-36);}.cls-21{fill:url(#Degradado_sin_nombre_3-54);}.cls-22{fill:url(#Degradado_sin_nombre_3-192);}.cls-23{fill:url(#Degradado_sin_nombre_3-55);}.cls-24{fill:url(#Degradado_sin_nombre_3-59);}.cls-25{fill:url(#Degradado_sin_nombre_3-62);}.cls-26{fill:url(#Degradado_sin_nombre_3-19);}.cls-27{fill:url(#Degradado_sin_nombre_3-71);}.cls-28{fill:url(#Degradado_sin_nombre_3-193);}.cls-29{fill:url(#Degradado_sin_nombre_3-94);}.cls-30{fill:url(#Degradado_sin_nombre_3-174);}.cls-31{fill:url(#Degradado_sin_nombre_3-189);}.cls-32{fill:url(#Degradado_sin_nombre_3-205);}.cls-33{fill:url(#Degradado_sin_nombre_3-150);}.cls-34{fill:url(#Degradado_sin_nombre_3-64);}.cls-35{fill:url(#Degradado_sin_nombre_3-180);}.cls-36{fill:url(#Degradado_sin_nombre_3-46);}.cls-37{fill:url(#Degradado_sin_nombre_3-13);}.cls-38{fill:url(#Degradado_sin_nombre_3-43);}.cls-39{fill:url(#Degradado_sin_nombre_3-67);}.cls-40{fill:url(#Degradado_sin_nombre_3-183);}.cls-41{fill:url(#Degradado_sin_nombre_3-76);}.cls-42{fill:url(#Degradado_sin_nombre_3-87);}.cls-43{fill:url(#Degradado_sin_nombre_3-66);}.cls-44{fill:url(#Degradado_sin_nombre_3-176);}.cls-45{fill:url(#Degradado_sin_nombre_3-12);}.cls-46{fill:url(#Degradado_sin_nombre_3-88);}.cls-47{fill:url(#Degradado_sin_nombre_3-103);}.cls-48{fill:url(#Degradado_sin_nombre_3-169);}.cls-49{fill:url(#Degradado_sin_nombre_3-45);}.cls-50{fill:url(#Degradado_sin_nombre_3-147);}.cls-219{isolation:isolate;}.cls-51{fill:url(#Degradado_sin_nombre_3-195);}.cls-52{fill:url(#Degradado_sin_nombre_3-11);}.cls-53{fill:url(#Degradado_sin_nombre_3-128);}.cls-54{fill:url(#Degradado_sin_nombre_3-124);}.cls-55{fill:url(#Degradado_sin_nombre_3-17);}.cls-56{fill:url(#Degradado_sin_nombre_3-187);}.cls-57{fill:url(#Degradado_sin_nombre_3-172);}.cls-58{fill:url(#Degradado_sin_nombre_3-33);}.cls-59{fill:url(#Degradado_sin_nombre_3-81);}.cls-60{fill:url(#Degradado_sin_nombre_3-31);}.cls-61{fill:url(#Degradado_sin_nombre_3-78);}.cls-62{fill:url(#Degradado_sin_nombre_3-77);}.cls-63{fill:url(#Degradado_sin_nombre_3-145);}.cls-64{fill:url(#Degradado_sin_nombre_3-28);}.cls-65{fill:url(#Degradado_sin_nombre_3-39);}.cls-66{fill:url(#Degradado_sin_nombre_3-158);}.cls-67{fill:url(#Degradado_sin_nombre_3-23);}.cls-68{fill:url(#Degradado_sin_nombre_3-167);}.cls-69{fill:url(#Degradado_sin_nombre_3-112);}.cls-70{fill:url(#Degradado_sin_nombre_3-116);}.cls-71{fill:url(#Degradado_sin_nombre_3-106);}.cls-72{fill:url(#Degradado_sin_nombre_3-60);}.cls-73{fill:url(#Degradado_sin_nombre_3-84);}.cls-74{fill:url(#Degradado_sin_nombre_3-160);}.cls-75{fill:url(#Degradado_sin_nombre_3-175);}.cls-76{fill:url(#Degradado_sin_nombre_3-56);}.cls-77{fill:none;}.cls-78{fill:url(#Degradado_sin_nombre_3-29);}.cls-79{fill:url(#Degradado_sin_nombre_3-125);}.cls-80{fill:url(#Degradado_sin_nombre_3-51);}.cls-81{fill:url(#Degradado_sin_nombre_3-122);}.cls-82{fill:url(#Degradado_sin_nombre_3-14);}.cls-83{fill:url(#Degradado_sin_nombre_3-92);}.cls-84{fill:url(#Degradado_sin_nombre_3-129);}.cls-85{fill:url(#Degradado_sin_nombre_3-95);}.cls-86{fill:url(#Degradado_sin_nombre_3-7);}.cls-220{font-family:Galvji-Bold, 'Galvji Bold';font-size:100.92px;font-weight:700;}.cls-220,.cls-91,.cls-99{fill:#fff;}.cls-87{fill:url(#Degradado_sin_nombre_3-137);}.cls-88{fill:url(#Degradado_sin_nombre_3-89);}.cls-89{fill:url(#Degradado_sin_nombre_3-86);}.cls-90{fill:url(#Degradado_sin_nombre_3-197);}.cls-91{mix-blend-mode:overlay;opacity:.5;}.cls-92{fill:url(#Degradado_sin_nombre_3-121);}.cls-93{fill:url(#Degradado_sin_nombre_3-96);}.cls-94{fill:url(#Degradado_sin_nombre_3-163);}.cls-95{fill:url(#Degradado_sin_nombre_3-156);}.cls-96{fill:url(#Degradado_sin_nombre_3-126);}.cls-97{fill:url(#Degradado_sin_nombre_3-212);}.cls-98{fill:url(#Degradado_sin_nombre_3-73);}.cls-100{fill:url(#Degradado_sin_nombre_3-181);}.cls-101{fill:url(#Degradado_sin_nombre_3-199);}.cls-102{fill:url(#Degradado_sin_nombre_3-151);}.cls-103{fill:url(#Degradado_sin_nombre_3-5);}.cls-104{fill:url(#Degradado_sin_nombre_3-155);}.cls-105{fill:url(#Degradado_sin_nombre_3-120);}.cls-106{fill:url(#Degradado_sin_nombre_3-200);}.cls-107{fill:url(#Degradado_sin_nombre_3);}.cls-108{fill:url(#Degradado_sin_nombre_3-69);}.cls-109{fill:url(#Degradado_sin_nombre_3-65);}.cls-110{fill:url(#Degradado_sin_nombre_3-72);}.cls-111{fill:url(#Degradado_sin_nombre_3-57);}.cls-112{fill:url(#Degradado_sin_nombre_3-159);}.cls-113{fill:url(#Degradado_sin_nombre_3-207);}.cls-114{fill:url(#Degradado_sin_nombre_3-16);}.cls-115{fill:url(#Degradado_sin_nombre_3-79);}.cls-116{fill:url(#Degradado_sin_nombre_3-186);}.cls-117{fill:url(#Degradado_sin_nombre_3-196);}.cls-118{fill:url(#Degradado_sin_nombre_3-85);}.cls-119{fill:url(#Degradado_sin_nombre_3-117);}.cls-120{fill:url(#Degradado_sin_nombre_3-21);}.cls-121{fill:url(#Degradado_sin_nombre_3-139);}.cls-122{fill:url(#Degradado_sin_nombre_3-61);}.cls-123{fill:url(#Degradado_sin_nombre_3-75);}.cls-124{fill:url(#Degradado_sin_nombre_3-82);}.cls-125{fill:url(#Degradado_sin_nombre_3-80);}.cls-126{fill:url(#Degradado_sin_nombre_3-2);}.cls-127{fill:url(#Degradado_sin_nombre_3-58);}.cls-221{clip-path:url(#clippath);}.cls-128{fill:url(#Degradado_sin_nombre_3-133);}.cls-129{fill:url(#Degradado_sin_nombre_3-115);}.cls-130{fill:url(#Degradado_sin_nombre_3-26);}.cls-131{fill:url(#Degradado_sin_nombre_3-185);}.cls-132{fill:url(#Degradado_sin_nombre_3-146);}.cls-133{fill:url(#Degradado_sin_nombre_3-127);}.cls-134{fill:url(#Degradado_sin_nombre_3-142);}.cls-135{fill:url(#Degradado_sin_nombre_3-22);}.cls-136{fill:url(#Degradado_sin_nombre_3-143);}.cls-137{fill:url(#Degradado_sin_nombre_3-101);}.cls-138{fill:url(#Degradado_sin_nombre_3-165);}.cls-139{fill:url(#Degradado_sin_nombre_3-119);}.cls-140{fill:url(#Degradado_sin_nombre_3-18);}.cls-141{fill:url(#Degradado_sin_nombre_3-98);}.cls-142{fill:url(#Degradado_sin_nombre_3-213);}.cls-143{fill:url(#Degradado_sin_nombre_3-164);}.cls-144{fill:url(#Degradado_sin_nombre_3-53);}.cls-145{fill:url(#Degradado_sin_nombre_3-8);}.cls-146{fill:url(#Degradado_sin_nombre_3-24);}.cls-147{fill:url(#Degradado_sin_nombre_3-194);}.cls-148{fill:url(#Degradado_sin_nombre_3-162);}.cls-149{fill:url(#Degradado_sin_nombre_3-111);}.cls-150{fill:url(#Degradado_sin_nombre_3-35);}.cls-151{fill:url(#Degradado_sin_nombre_3-211);}.cls-152{fill:url(#Degradado_sin_nombre_3-201);}.cls-153{fill:url(#Degradado_sin_nombre_3-3);}.cls-154{fill:url(#Degradado_sin_nombre_3-100);}.cls-155{fill:url(#Degradado_sin_nombre_3-190);}.cls-156{fill:url(#Degradado_sin_nombre_3-113);}.cls-157{fill:url(#Degradado_sin_nombre_3-90);}.cls-158{fill:url(#Degradado_sin_nombre_3-206);}.cls-159{fill:url(#Degradado_sin_nombre_3-15);}.cls-160{fill:url(#Degradado_sin_nombre_3-141);}.cls-161{fill:url(#Degradado_sin_nombre_3-148);}.cls-162{fill:url(#Degradado_sin_nombre_3-97);}.cls-163{fill:url(#Degradado_sin_nombre_3-105);}.cls-164{fill:url(#Degradado_sin_nombre_3-157);}.cls-165{fill:url(#Degradado_sin_nombre_3-4);}.cls-166{fill:url(#Degradado_sin_nombre_3-184);}.cls-167{fill:url(#Degradado_sin_nombre_3-44);}.cls-168{fill:url(#Degradado_sin_nombre_3-210);}.cls-169{fill:url(#Degradado_sin_nombre_3-134);}.cls-170{fill:url(#Degradado_sin_nombre_3-83);}.cls-171{fill:url(#Degradado_sin_nombre_3-37);}.cls-172{fill:url(#Degradado_sin_nombre_3-41);}.cls-173{fill:url(#Degradado_sin_nombre_3-108);}.cls-174{fill:url(#Degradado_sin_nombre_3-49);}.cls-175{fill:url(#Degradado_sin_nombre_3-32);}.cls-176{fill:url(#Degradado_sin_nombre_3-140);}.cls-177{fill:url(#Degradado_sin_nombre_3-178);}.cls-178{fill:url(#Degradado_sin_nombre_3-144);}.cls-179{fill:url(#Degradado_sin_nombre_3-30);}.cls-180{fill:url(#Degradado_sin_nombre_3-6);}.cls-181{fill:url(#Degradado_sin_nombre_3-171);}.cls-182{fill:url(#Degradado_sin_nombre_3-27);}.cls-183{fill:url(#Degradado_sin_nombre_3-42);}.cls-184{fill:url(#Degradado_sin_nombre_3-136);}.cls-185{fill:url(#Degradado_sin_nombre_3-48);}.cls-186{fill:url(#Degradado_sin_nombre_3-209);}.cls-187{fill:url(#Degradado_sin_nombre_3-107);}.cls-188{fill:url(#Degradado_sin_nombre_3-123);}.cls-189{fill:url(#Degradado_sin_nombre_3-34);}.cls-190{fill:url(#Degradado_sin_nombre_3-135);}.cls-191{fill:url(#Degradado_sin_nombre_3-214);}.cls-192{fill:url(#Degradado_sin_nombre_3-198);}.cls-193{fill:url(#Degradado_sin_nombre_3-188);}.cls-194{fill:url(#Degradado_sin_nombre_3-40);}.cls-195{fill:url(#Degradado_sin_nombre_3-93);}.cls-196{fill:url(#Degradado_sin_nombre_3-153);}.cls-197{fill:url(#Degradado_sin_nombre_3-70);}.cls-198{fill:url(#Degradado_sin_nombre_3-50);}.cls-199{fill:url(#Degradado_sin_nombre_3-138);}.cls-200{fill:url(#Degradado_sin_nombre_3-10);}.cls-201{fill:url(#Degradado_sin_nombre_3-161);}.cls-202{fill:url(#Degradado_sin_nombre_3-179);}.cls-203{fill:url(#Degradado_sin_nombre_3-204);}.cls-204{fill:url(#Degradado_sin_nombre_3-74);}.cls-205{fill:url(#Degradado_sin_nombre_3-149);}.cls-206{fill:url(#Degradado_sin_nombre_3-131);}.cls-207{fill:url(#Degradado_sin_nombre_3-132);}.cls-208{fill:url(#Degradado_sin_nombre_3-63);}.cls-209{fill:url(#Degradado_sin_nombre_3-52);}.cls-210{fill:url(#Degradado_sin_nombre_3-202);}.cls-211{fill:url(#Degradado_sin_nombre_3-9);}.cls-212{fill:url(#Degradado_sin_nombre_3-102);}.cls-213{fill:url(#Degradado_sin_nombre_3-118);}.cls-214{fill:url(#Degradado_sin_nombre_3-170);}.cls-215{fill:url(#Degradado_sin_nombre_3-208);}.cls-216{fill:url(#Degradado_sin_nombre_3-91);}.cls-217{fill:url(#Degradado_sin_nombre_3-168);}.cls-218{fill:url(#Degradado_sin_nombre_3-173);}</style><clipPath id="clippath"><polygon class="cls-77" points="100.75 0 0 73.2 38.48 191.63 163.01 191.63 201.5 73.2 100.75 0"/></clipPath><linearGradient id="Degradado_sin_nombre_3" x1="8493.31" y1="9484.16" x2="8625.53" y2="9744.9" gradientTransform="translate(-7590.47 10411.27) rotate(-101.92)" gradientUnits="userSpaceOnUse"><stop offset="0" stop-color="#c65229"/><stop offset=".1" stop-color="#ca6131"/><stop offset=".29" stop-color="#f2cc7c"/><stop offset=".58" stop-color="#80b580"/><stop offset=".81" stop-color="#427e9c"/><stop offset="1" stop-color="#2e5fa2"/></linearGradient><linearGradient id="Degradado_sin_nombre_3-2" x1="8513.62" y1="9473.87" x2="8645.84" y2="9734.6" xlink:href="#Degradado_sin_nombre_3"/><linearGradient id="Degradado_sin_nombre_3-3" x1="8400.93" y1="9531.01" x2="8533.14" y2="9791.74" xlink:href="#Degradado_sin_nombre_3"/><linearGradient id="Degradado_sin_nombre_3-4" x1="8511.38" y1="9475" x2="8643.59" y2="9735.74" xlink:href="#Degradado_sin_nombre_3"/><linearGradient id="Degradado_sin_nombre_3-5" x1="8448.74" y1="9506.77" x2="8580.95" y2="9767.5" xlink:href="#Degradado_sin_nombre_3"/><linearGradient id="Degradado_sin_nombre_3-6" x1="8488.29" y1="9486.71" x2="8620.51" y2="9747.44" xlink:href="#Degradado_sin_nombre_3"/><linearGradient id="Degradado_sin_nombre_3-7" x1="8342.3" y1="9560.74" x2="8474.51" y2="9821.47" xlink:href="#Degradado_sin_nombre_3"/><linearGradient id="Degradado_sin_nombre_3-8" x1="8406.21" y1="9528.33" x2="8538.43" y2="9789.06" xlink:href="#Degradado_sin_nombre_3"/><linearGradient id="Degradado_sin_nombre_3-9" x1="8340.84" y1="9561.48" x2="8473.05" y2="9822.21" xlink:href="#Degradado_sin_nombre_3"/><linearGradient id="Degradado_sin_nombre_3-10" x1="8455.61" y1="9503.28" x2="8587.83" y2="9764.01" xlink:href="#Degradado_sin_nombre_3"/><linearGradient id="Degradado_sin_nombre_3-11" x1="8365.42" y1="9549.02" x2="8497.64" y2="9809.75" xlink:href="#Degradado_sin_nombre_3"/><linearGradient id="Degradado_sin_nombre_3-12" x1="8472.88" y1="9494.53" x2="8605.09" y2="9755.26" xlink:href="#Degradado_sin_nombre_3"/><linearGradient id="Degradado_sin_nombre_3-13" x1="8472.88" y1="9494.53" x2="8605.09" y2="9755.26" xlink:href="#Degradado_sin_nombre_3"/><linearGradient id="Degradado_sin_nombre_3-14" x1="8383.1" y1="9540.05" x2="8515.31" y2="9800.79" xlink:href="#Degradado_sin_nombre_3"/><linearGradient id="Degradado_sin_nombre_3-15" x1="8383.1" y1="9540.05" x2="8515.31" y2="9800.79" xlink:href="#Degradado_sin_nombre_3"/><linearGradient id="Degradado_sin_nombre_3-16" x1="8387.18" y1="9537.98" x2="8519.39" y2="9798.72" xlink:href="#Degradado_sin_nombre_3"/><linearGradient id="Degradado_sin_nombre_3-17" x1="8387.18" y1="9537.98" x2="8519.39" y2="9798.72" xlink:href="#Degradado_sin_nombre_3"/><linearGradient id="Degradado_sin_nombre_3-18" x1="8467.53" y1="9497.24" x2="8599.74" y2="9757.97" xlink:href="#Degradado_sin_nombre_3"/><linearGradient id="Degradado_sin_nombre_3-19" x1="8467.53" y1="9497.24" x2="8599.74" y2="9757.97" xlink:href="#Degradado_sin_nombre_3"/><linearGradient id="Degradado_sin_nombre_3-20" x1="8502.88" y1="9479.31" x2="8635.1" y2="9740.04" xlink:href="#Degradado_sin_nombre_3"/><linearGradient id="Degradado_sin_nombre_3-21" x1="8502.88" y1="9479.31" x2="8635.1" y2="9740.04" xlink:href="#Degradado_sin_nombre_3"/><linearGradient id="Degradado_sin_nombre_3-22" x1="8349.31" y1="9557.19" x2="8481.52" y2="9817.92" xlink:href="#Degradado_sin_nombre_3"/><linearGradient id="Degradado_sin_nombre_3-23" x1="8349.31" y1="9557.19" x2="8481.52" y2="9817.92" xlink:href="#Degradado_sin_nombre_3"/><linearGradient id="Degradado_sin_nombre_3-24" x1="8424.92" y1="9518.85" x2="8557.13" y2="9779.58" xlink:href="#Degradado_sin_nombre_3"/><linearGradient id="Degradado_sin_nombre_3-25" x1="8424.92" y1="9518.85" x2="8557.13" y2="9779.58" xlink:href="#Degradado_sin_nombre_3"/><linearGradient id="Degradado_sin_nombre_3-26" x1="8431.07" y1="9515.73" x2="8563.28" y2="9776.46" xlink:href="#Degradado_sin_nombre_3"/><linearGradient id="Degradado_sin_nombre_3-27" x1="8431.07" y1="9515.73" x2="8563.28" y2="9776.46" xlink:href="#Degradado_sin_nombre_3"/><linearGradient id="Degradado_sin_nombre_3-28" x1="8410.44" y1="9526.19" x2="8542.65" y2="9786.92" xlink:href="#Degradado_sin_nombre_3"/><linearGradient id="Degradado_sin_nombre_3-29" x1="8410.44" y1="9526.19" x2="8542.65" y2="9786.92" xlink:href="#Degradado_sin_nombre_3"/><linearGradient id="Degradado_sin_nombre_3-30" x1="8410.44" y1="9526.19" x2="8542.65" y2="9786.92" xlink:href="#Degradado_sin_nombre_3"/><linearGradient id="Degradado_sin_nombre_3-31" x1="8446.3" y1="9508.01" x2="8578.51" y2="9768.74" xlink:href="#Degradado_sin_nombre_3"/><linearGradient id="Degradado_sin_nombre_3-32" x1="8446.3" y1="9508.01" x2="8578.51" y2="9768.74" xlink:href="#Degradado_sin_nombre_3"/><linearGradient id="Degradado_sin_nombre_3-33" x1="8446.3" y1="9508.01" x2="8578.51" y2="9768.74" xlink:href="#Degradado_sin_nombre_3"/><linearGradient id="Degradado_sin_nombre_3-34" x1="8413.98" y1="9524.39" x2="8546.2" y2="9785.12" xlink:href="#Degradado_sin_nombre_3"/><linearGradient id="Degradado_sin_nombre_3-35" x1="8413.98" y1="9524.39" x2="8546.2" y2="9785.12" xlink:href="#Degradado_sin_nombre_3"/><linearGradient id="Degradado_sin_nombre_3-36" x1="8413.98" y1="9524.39" x2="8546.2" y2="9785.12" xlink:href="#Degradado_sin_nombre_3"/><linearGradient id="Degradado_sin_nombre_3-37" x1="8441.03" y1="9510.68" x2="8573.24" y2="9771.41" xlink:href="#Degradado_sin_nombre_3"/><linearGradient id="Degradado_sin_nombre_3-38" x1="8441.03" y1="9510.68" x2="8573.24" y2="9771.41" xlink:href="#Degradado_sin_nombre_3"/><linearGradient id="Degradado_sin_nombre_3-39" x1="8441.03" y1="9510.68" x2="8573.24" y2="9771.41" xlink:href="#Degradado_sin_nombre_3"/><linearGradient id="Degradado_sin_nombre_3-40" x1="8493.59" y1="9484.03" x2="8625.8" y2="9744.76" xlink:href="#Degradado_sin_nombre_3"/><linearGradient id="Degradado_sin_nombre_3-41" x1="8493.59" y1="9484.03" x2="8625.8" y2="9744.76" xlink:href="#Degradado_sin_nombre_3"/><linearGradient id="Degradado_sin_nombre_3-42" x1="8359.06" y1="9552.24" x2="8491.28" y2="9812.97" xlink:href="#Degradado_sin_nombre_3"/><linearGradient id="Degradado_sin_nombre_3-43" x1="8359.06" y1="9552.24" x2="8491.28" y2="9812.97" xlink:href="#Degradado_sin_nombre_3"/><linearGradient id="Degradado_sin_nombre_3-44" x1="8473.18" y1="9494.37" x2="8605.4" y2="9755.1" xlink:href="#Degradado_sin_nombre_3"/><linearGradient id="Degradado_sin_nombre_3-45" x1="8473.18" y1="9494.37" x2="8605.4" y2="9755.1" xlink:href="#Degradado_sin_nombre_3"/><linearGradient id="Degradado_sin_nombre_3-46" x1="8473.18" y1="9494.37" x2="8605.4" y2="9755.1" xlink:href="#Degradado_sin_nombre_3"/><linearGradient id="Degradado_sin_nombre_3-47" x1="8380.47" y1="9541.39" x2="8512.69" y2="9802.12" xlink:href="#Degradado_sin_nombre_3"/><linearGradient id="Degradado_sin_nombre_3-48" x1="8380.47" y1="9541.39" x2="8512.69" y2="9802.12" xlink:href="#Degradado_sin_nombre_3"/><linearGradient id="Degradado_sin_nombre_3-49" x1="8380.47" y1="9541.39" x2="8512.69" y2="9802.12" xlink:href="#Degradado_sin_nombre_3"/><linearGradient id="Degradado_sin_nombre_3-50" x1="8493.45" y1="9484.09" x2="8625.67" y2="9744.82" xlink:href="#Degradado_sin_nombre_3"/><linearGradient id="Degradado_sin_nombre_3-51" x1="8493.45" y1="9484.09" x2="8625.67" y2="9744.82" xlink:href="#Degradado_sin_nombre_3"/><linearGradient id="Degradado_sin_nombre_3-52" x1="8493.45" y1="9484.09" x2="8625.67" y2="9744.82" xlink:href="#Degradado_sin_nombre_3"/><linearGradient id="Degradado_sin_nombre_3-53" x1="8359.96" y1="9551.79" x2="8492.18" y2="9812.52" xlink:href="#Degradado_sin_nombre_3"/><linearGradient id="Degradado_sin_nombre_3-54" x1="8359.96" y1="9551.79" x2="8492.18" y2="9812.52" xlink:href="#Degradado_sin_nombre_3"/><linearGradient id="Degradado_sin_nombre_3-55" x1="8359.96" y1="9551.79" x2="8492.18" y2="9812.52" xlink:href="#Degradado_sin_nombre_3"/><linearGradient id="Degradado_sin_nombre_3-56" x1="8357.79" y1="9552.89" x2="8490" y2="9813.62" xlink:href="#Degradado_sin_nombre_3"/><linearGradient id="Degradado_sin_nombre_3-57" x1="8357.79" y1="9552.89" x2="8490" y2="9813.62" xlink:href="#Degradado_sin_nombre_3"/><linearGradient id="Degradado_sin_nombre_3-58" x1="8496.78" y1="9482.41" x2="8629" y2="9743.14" xlink:href="#Degradado_sin_nombre_3"/><linearGradient id="Degradado_sin_nombre_3-59" x1="8496.78" y1="9482.41" x2="8629" y2="9743.14" xlink:href="#Degradado_sin_nombre_3"/><linearGradient id="Degradado_sin_nombre_3-60" x1="8477.73" y1="9492.06" x2="8609.95" y2="9752.8" xlink:href="#Degradado_sin_nombre_3"/><linearGradient id="Degradado_sin_nombre_3-61" x1="8477.73" y1="9492.06" x2="8609.95" y2="9752.8" xlink:href="#Degradado_sin_nombre_3"/><linearGradient id="Degradado_sin_nombre_3-62" x1="8477.73" y1="9492.06" x2="8609.95" y2="9752.8" xlink:href="#Degradado_sin_nombre_3"/><linearGradient id="Degradado_sin_nombre_3-63" x1="8378.34" y1="9542.46" x2="8510.56" y2="9803.2" xlink:href="#Degradado_sin_nombre_3"/><linearGradient id="Degradado_sin_nombre_3-64" x1="8378.34" y1="9542.46" x2="8510.56" y2="9803.2" xlink:href="#Degradado_sin_nombre_3"/><linearGradient id="Degradado_sin_nombre_3-65" x1="8378.34" y1="9542.46" x2="8510.56" y2="9803.2" xlink:href="#Degradado_sin_nombre_3"/><linearGradient id="Degradado_sin_nombre_3-66" x1="8358.75" y1="9552.4" x2="8490.97" y2="9813.13" xlink:href="#Degradado_sin_nombre_3"/><linearGradient id="Degradado_sin_nombre_3-67" x1="8358.75" y1="9552.4" x2="8490.97" y2="9813.13" xlink:href="#Degradado_sin_nombre_3"/><linearGradient id="Degradado_sin_nombre_3-68" x1="8358.75" y1="9552.4" x2="8490.97" y2="9813.13" xlink:href="#Degradado_sin_nombre_3"/><linearGradient id="Degradado_sin_nombre_3-69" x1="8495.95" y1="9482.83" x2="8628.17" y2="9743.56" xlink:href="#Degradado_sin_nombre_3"/><linearGradient id="Degradado_sin_nombre_3-70" x1="8495.95" y1="9482.83" x2="8628.17" y2="9743.56" xlink:href="#Degradado_sin_nombre_3"/><linearGradient id="Degradado_sin_nombre_3-71" x1="8495.95" y1="9482.83" x2="8628.17" y2="9743.56" xlink:href="#Degradado_sin_nombre_3"/><linearGradient id="Degradado_sin_nombre_3-72" x1="8486.84" y1="9576.6" x2="8571.27" y2="9743.1" gradientTransform="translate(-7577.69 10444.2) rotate(-102.17)" xlink:href="#Degradado_sin_nombre_3"/><linearGradient id="Degradado_sin_nombre_3-73" x1="8499.81" y1="9570.02" x2="8584.24" y2="9736.53" gradientTransform="translate(-7577.69 10444.2) rotate(-102.17)" xlink:href="#Degradado_sin_nombre_3"/><linearGradient id="Degradado_sin_nombre_3-74" x1="8403.27" y1="9618.98" x2="8487.7" y2="9785.48" gradientTransform="translate(-7577.69 10444.2) rotate(-102.17)" xlink:href="#Degradado_sin_nombre_3"/><linearGradient id="Degradado_sin_nombre_3-75" x1="8427.85" y1="9606.52" x2="8512.28" y2="9773.02" gradientTransform="translate(-7577.69 10444.2) rotate(-102.17)" xlink:href="#Degradado_sin_nombre_3"/><linearGradient id="Degradado_sin_nombre_3-76" x1="8498.38" y1="9570.75" x2="8582.81" y2="9737.25" gradientTransform="translate(-7577.69 10444.2) rotate(-102.17)" xlink:href="#Degradado_sin_nombre_3"/><linearGradient id="Degradado_sin_nombre_3-77" x1="8458.38" y1="9591.04" x2="8542.81" y2="9757.54" gradientTransform="translate(-7577.69 10444.2) rotate(-102.17)" xlink:href="#Degradado_sin_nombre_3"/><linearGradient id="Degradado_sin_nombre_3-78" x1="8483.64" y1="9578.23" x2="8568.07" y2="9744.73" gradientTransform="translate(-7577.69 10444.2) rotate(-102.17)" xlink:href="#Degradado_sin_nombre_3"/><linearGradient id="Degradado_sin_nombre_3-79" x1="8390.41" y1="9625.5" x2="8474.84" y2="9792" gradientTransform="translate(-7577.69 10444.2) rotate(-102.17)" xlink:href="#Degradado_sin_nombre_3"/><linearGradient id="Degradado_sin_nombre_3-80" x1="8431.22" y1="9604.81" x2="8515.65" y2="9771.31" gradientTransform="translate(-7577.69 10444.2) rotate(-102.17)" xlink:href="#Degradado_sin_nombre_3"/><linearGradient id="Degradado_sin_nombre_3-81" x1="8389.48" y1="9625.98" x2="8473.91" y2="9792.48" gradientTransform="translate(-7577.69 10444.2) rotate(-102.17)" xlink:href="#Degradado_sin_nombre_3"/><linearGradient id="Degradado_sin_nombre_3-82" x1="8462.77" y1="9588.81" x2="8547.2" y2="9755.31" gradientTransform="translate(-7577.69 10444.2) rotate(-102.17)" xlink:href="#Degradado_sin_nombre_3"/><linearGradient id="Degradado_sin_nombre_3-83" x1="8405.17" y1="9618.02" x2="8489.6" y2="9784.52" gradientTransform="translate(-7577.69 10444.2) rotate(-102.17)" xlink:href="#Degradado_sin_nombre_3"/><linearGradient id="Degradado_sin_nombre_3-84" x1="8473.79" y1="9583.22" x2="8558.22" y2="9749.72" gradientTransform="translate(-7577.69 10444.2) rotate(-102.17)" xlink:href="#Degradado_sin_nombre_3"/><linearGradient id="Degradado_sin_nombre_3-85" x1="8473.79" y1="9583.22" x2="8558.22" y2="9749.72" gradientTransform="translate(-7577.69 10444.2) rotate(-102.17)" xlink:href="#Degradado_sin_nombre_3"/><linearGradient id="Degradado_sin_nombre_3-86" x1="8416.46" y1="9612.29" x2="8500.89" y2="9778.79" gradientTransform="translate(-7577.69 10444.2) rotate(-102.17)" xlink:href="#Degradado_sin_nombre_3"/><linearGradient id="Degradado_sin_nombre_3-87" x1="8416.46" y1="9612.29" x2="8500.89" y2="9778.79" gradientTransform="translate(-7577.69 10444.2) rotate(-102.17)" xlink:href="#Degradado_sin_nombre_3"/><linearGradient id="Degradado_sin_nombre_3-88" x1="8419.07" y1="9610.97" x2="8503.5" y2="9777.47" gradientTransform="translate(-7577.69 10444.2) rotate(-102.17)" xlink:href="#Degradado_sin_nombre_3"/><linearGradient id="Degradado_sin_nombre_3-89" x1="8419.07" y1="9610.97" x2="8503.5" y2="9777.47" gradientTransform="translate(-7577.69 10444.2) rotate(-102.17)" xlink:href="#Degradado_sin_nombre_3"/><linearGradient id="Degradado_sin_nombre_3-90" x1="8470.38" y1="9584.95" x2="8554.81" y2="9751.45" gradientTransform="translate(-7577.69 10444.2) rotate(-102.17)" xlink:href="#Degradado_sin_nombre_3"/><linearGradient id="Degradado_sin_nombre_3-91" x1="8470.38" y1="9584.95" x2="8554.81" y2="9751.45" gradientTransform="translate(-7577.69 10444.2) rotate(-102.17)" xlink:href="#Degradado_sin_nombre_3"/><linearGradient id="Degradado_sin_nombre_3-92" x1="8492.96" y1="9573.5" x2="8577.39" y2="9740" gradientTransform="translate(-7577.69 10444.2) rotate(-102.17)" xlink:href="#Degradado_sin_nombre_3"/><linearGradient id="Degradado_sin_nombre_3-93" x1="8492.96" y1="9573.5" x2="8577.39" y2="9740" gradientTransform="translate(-7577.69 10444.2) rotate(-102.17)" xlink:href="#Degradado_sin_nombre_3"/><linearGradient id="Degradado_sin_nombre_3-94" x1="8394.88" y1="9623.23" x2="8479.31" y2="9789.73" gradientTransform="translate(-7577.69 10444.2) rotate(-102.17)" xlink:href="#Degradado_sin_nombre_3"/><linearGradient id="Degradado_sin_nombre_3-95" x1="8394.88" y1="9623.23" x2="8479.31" y2="9789.73" gradientTransform="translate(-7577.69 10444.2) rotate(-102.17)" xlink:href="#Degradado_sin_nombre_3"/><linearGradient id="Degradado_sin_nombre_3-96" x1="8443.17" y1="9598.75" x2="8527.6" y2="9765.25" gradientTransform="translate(-7577.69 10444.2) rotate(-102.17)" xlink:href="#Degradado_sin_nombre_3"/><linearGradient id="Degradado_sin_nombre_3-97" x1="8443.17" y1="9598.75" x2="8527.6" y2="9765.25" gradientTransform="translate(-7577.69 10444.2) rotate(-102.17)" xlink:href="#Degradado_sin_nombre_3"/><linearGradient id="Degradado_sin_nombre_3-98" x1="8447.09" y1="9596.76" x2="8531.53" y2="9763.26" gradientTransform="translate(-7577.69 10444.2) rotate(-102.17)" xlink:href="#Degradado_sin_nombre_3"/><linearGradient id="Degradado_sin_nombre_3-99" x1="8447.09" y1="9596.76" x2="8531.53" y2="9763.26" gradientTransform="translate(-7577.69 10444.2) rotate(-102.17)" xlink:href="#Degradado_sin_nombre_3"/><linearGradient id="Degradado_sin_nombre_3-100" x1="8433.92" y1="9603.44" x2="8518.35" y2="9769.94" gradientTransform="translate(-7577.69 10444.2) rotate(-102.17)" xlink:href="#Degradado_sin_nombre_3"/><linearGradient id="Degradado_sin_nombre_3-101" x1="8433.92" y1="9603.44" x2="8518.35" y2="9769.94" gradientTransform="translate(-7577.69 10444.2) rotate(-102.17)" xlink:href="#Degradado_sin_nombre_3"/><linearGradient id="Degradado_sin_nombre_3-102" x1="8433.92" y1="9603.44" x2="8518.35" y2="9769.94" gradientTransform="translate(-7577.69 10444.2) rotate(-102.17)" xlink:href="#Degradado_sin_nombre_3"/><linearGradient id="Degradado_sin_nombre_3-103" x1="8456.82" y1="9591.83" x2="8541.25" y2="9758.33" gradientTransform="translate(-7577.69 10444.2) rotate(-102.17)" xlink:href="#Degradado_sin_nombre_3"/><linearGradient id="Degradado_sin_nombre_3-104" x1="8456.82" y1="9591.83" x2="8541.25" y2="9758.33" gradientTransform="translate(-7577.69 10444.2) rotate(-102.17)" xlink:href="#Degradado_sin_nombre_3"/><linearGradient id="Degradado_sin_nombre_3-105" x1="8456.82" y1="9591.83" x2="8541.25" y2="9758.33" gradientTransform="translate(-7577.69 10444.2) rotate(-102.17)" xlink:href="#Degradado_sin_nombre_3"/><linearGradient id="Degradado_sin_nombre_3-106" x1="8436.18" y1="9602.29" x2="8520.61" y2="9768.79" gradientTransform="translate(-7577.69 10444.2) rotate(-102.17)" xlink:href="#Degradado_sin_nombre_3"/><linearGradient id="Degradado_sin_nombre_3-107" x1="8436.18" y1="9602.29" x2="8520.61" y2="9768.79" gradientTransform="translate(-7577.69 10444.2) rotate(-102.17)" xlink:href="#Degradado_sin_nombre_3"/><linearGradient id="Degradado_sin_nombre_3-108" x1="8436.18" y1="9602.29" x2="8520.61" y2="9768.79" gradientTransform="translate(-7577.69 10444.2) rotate(-102.17)" xlink:href="#Degradado_sin_nombre_3"/><linearGradient id="Degradado_sin_nombre_3-109" x1="8453.45" y1="9593.53" x2="8537.89" y2="9760.03" gradientTransform="translate(-7577.69 10444.2) rotate(-102.17)" xlink:href="#Degradado_sin_nombre_3"/><linearGradient id="Degradado_sin_nombre_3-110" x1="8453.45" y1="9593.53" x2="8537.89" y2="9760.03" gradientTransform="translate(-7577.69 10444.2) rotate(-102.17)" xlink:href="#Degradado_sin_nombre_3"/><linearGradient id="Degradado_sin_nombre_3-111" x1="8453.45" y1="9593.53" x2="8537.89" y2="9760.03" gradientTransform="translate(-7577.69 10444.2) rotate(-102.17)" xlink:href="#Degradado_sin_nombre_3"/><linearGradient id="Degradado_sin_nombre_3-112" x1="8487.02" y1="9576.51" x2="8571.45" y2="9743.01" gradientTransform="translate(-7577.69 10444.2) rotate(-102.17)" xlink:href="#Degradado_sin_nombre_3"/><linearGradient id="Degradado_sin_nombre_3-113" x1="8487.02" y1="9576.51" x2="8571.45" y2="9743.01" gradientTransform="translate(-7577.69 10444.2) rotate(-102.17)" xlink:href="#Degradado_sin_nombre_3"/><linearGradient id="Degradado_sin_nombre_3-114" x1="8401.11" y1="9620.07" x2="8485.54" y2="9786.58" gradientTransform="translate(-7577.69 10444.2) rotate(-102.17)" xlink:href="#Degradado_sin_nombre_3"/><linearGradient id="Degradado_sin_nombre_3-115" x1="8401.11" y1="9620.07" x2="8485.54" y2="9786.58" gradientTransform="translate(-7577.69 10444.2) rotate(-102.17)" xlink:href="#Degradado_sin_nombre_3"/><linearGradient id="Degradado_sin_nombre_3-116" x1="8473.99" y1="9583.12" x2="8558.42" y2="9749.62" gradientTransform="translate(-7577.69 10444.2) rotate(-102.17)" xlink:href="#Degradado_sin_nombre_3"/><linearGradient id="Degradado_sin_nombre_3-117" x1="8473.99" y1="9583.12" x2="8558.42" y2="9749.62" gradientTransform="translate(-7577.69 10444.2) rotate(-102.17)" xlink:href="#Degradado_sin_nombre_3"/><linearGradient id="Degradado_sin_nombre_3-118" x1="8473.99" y1="9583.12" x2="8558.42" y2="9749.62" gradientTransform="translate(-7577.69 10444.2) rotate(-102.17)" xlink:href="#Degradado_sin_nombre_3"/><linearGradient id="Degradado_sin_nombre_3-119" x1="8414.78" y1="9613.14" x2="8499.22" y2="9779.64" gradientTransform="translate(-7577.69 10444.2) rotate(-102.17)" xlink:href="#Degradado_sin_nombre_3"/><linearGradient id="Degradado_sin_nombre_3-120" x1="8414.78" y1="9613.14" x2="8499.22" y2="9779.64" gradientTransform="translate(-7577.69 10444.2) rotate(-102.17)" xlink:href="#Degradado_sin_nombre_3"/><linearGradient id="Degradado_sin_nombre_3-121" x1="8414.78" y1="9613.14" x2="8499.22" y2="9779.64" gradientTransform="translate(-7577.69 10444.2) rotate(-102.17)" xlink:href="#Degradado_sin_nombre_3"/><linearGradient id="Degradado_sin_nombre_3-122" x1="8486.93" y1="9576.55" x2="8571.37" y2="9743.06" gradientTransform="translate(-7577.69 10444.2) rotate(-102.17)" xlink:href="#Degradado_sin_nombre_3"/><linearGradient id="Degradado_sin_nombre_3-123" x1="8486.93" y1="9576.55" x2="8571.37" y2="9743.06" gradientTransform="translate(-7577.69 10444.2) rotate(-102.17)" xlink:href="#Degradado_sin_nombre_3"/><linearGradient id="Degradado_sin_nombre_3-124" x1="8486.93" y1="9576.55" x2="8571.37" y2="9743.06" gradientTransform="translate(-7577.69 10444.2) rotate(-102.17)" xlink:href="#Degradado_sin_nombre_3"/><linearGradient id="Degradado_sin_nombre_3-125" x1="8401.69" y1="9619.78" x2="8486.12" y2="9786.28" gradientTransform="translate(-7577.69 10444.2) rotate(-102.17)" xlink:href="#Degradado_sin_nombre_3"/><linearGradient id="Degradado_sin_nombre_3-126" x1="8401.69" y1="9619.78" x2="8486.12" y2="9786.28" gradientTransform="translate(-7577.69 10444.2) rotate(-102.17)" xlink:href="#Degradado_sin_nombre_3"/><linearGradient id="Degradado_sin_nombre_3-127" x1="8401.69" y1="9619.78" x2="8486.12" y2="9786.28" gradientTransform="translate(-7577.69 10444.2) rotate(-102.17)" xlink:href="#Degradado_sin_nombre_3"/><linearGradient id="Degradado_sin_nombre_3-128" x1="8400.3" y1="9620.49" x2="8484.73" y2="9786.99" gradientTransform="translate(-7577.69 10444.2) rotate(-102.17)" xlink:href="#Degradado_sin_nombre_3"/><linearGradient id="Degradado_sin_nombre_3-129" x1="8400.3" y1="9620.49" x2="8484.73" y2="9786.99" gradientTransform="translate(-7577.69 10444.2) rotate(-102.17)" xlink:href="#Degradado_sin_nombre_3"/><linearGradient id="Degradado_sin_nombre_3-130" x1="8489.06" y1="9575.48" x2="8573.49" y2="9741.98" gradientTransform="translate(-7577.69 10444.2) rotate(-102.17)" xlink:href="#Degradado_sin_nombre_3"/><linearGradient id="Degradado_sin_nombre_3-131" x1="8489.06" y1="9575.48" x2="8573.49" y2="9741.98" gradientTransform="translate(-7577.69 10444.2) rotate(-102.17)" xlink:href="#Degradado_sin_nombre_3"/><linearGradient id="Degradado_sin_nombre_3-132" x1="8476.89" y1="9581.65" x2="8561.33" y2="9748.15" gradientTransform="translate(-7577.69 10444.2) rotate(-102.17)" xlink:href="#Degradado_sin_nombre_3"/><linearGradient id="Degradado_sin_nombre_3-133" x1="8476.89" y1="9581.65" x2="8561.33" y2="9748.15" gradientTransform="translate(-7577.69 10444.2) rotate(-102.17)" xlink:href="#Degradado_sin_nombre_3"/><linearGradient id="Degradado_sin_nombre_3-134" x1="8476.89" y1="9581.65" x2="8561.33" y2="9748.15" gradientTransform="translate(-7577.69 10444.2) rotate(-102.17)" xlink:href="#Degradado_sin_nombre_3"/><linearGradient id="Degradado_sin_nombre_3-135" x1="8413.42" y1="9613.83" x2="8497.86" y2="9780.33" gradientTransform="translate(-7577.69 10444.2) rotate(-102.17)" xlink:href="#Degradado_sin_nombre_3"/><linearGradient id="Degradado_sin_nombre_3-136" x1="8413.42" y1="9613.83" x2="8497.86" y2="9780.33" gradientTransform="translate(-7577.69 10444.2) rotate(-102.17)" xlink:href="#Degradado_sin_nombre_3"/><linearGradient id="Degradado_sin_nombre_3-137" x1="8413.42" y1="9613.83" x2="8497.86" y2="9780.33" gradientTransform="translate(-7577.69 10444.2) rotate(-102.17)" xlink:href="#Degradado_sin_nombre_3"/><linearGradient id="Degradado_sin_nombre_3-138" x1="8400.92" y1="9620.17" x2="8485.35" y2="9786.68" gradientTransform="translate(-7577.69 10444.2) rotate(-102.17)" xlink:href="#Degradado_sin_nombre_3"/><linearGradient id="Degradado_sin_nombre_3-139" x1="8400.92" y1="9620.17" x2="8485.35" y2="9786.68" gradientTransform="translate(-7577.69 10444.2) rotate(-102.17)" xlink:href="#Degradado_sin_nombre_3"/><linearGradient id="Degradado_sin_nombre_3-140" x1="8400.92" y1="9620.17" x2="8485.35" y2="9786.68" gradientTransform="translate(-7577.69 10444.2) rotate(-102.17)" xlink:href="#Degradado_sin_nombre_3"/><linearGradient id="Degradado_sin_nombre_3-141" x1="8488.53" y1="9575.75" x2="8572.96" y2="9742.25" gradientTransform="translate(-7577.69 10444.2) rotate(-102.17)" xlink:href="#Degradado_sin_nombre_3"/><linearGradient id="Degradado_sin_nombre_3-142" x1="8488.53" y1="9575.75" x2="8572.96" y2="9742.25" gradientTransform="translate(-7577.69 10444.2) rotate(-102.17)" xlink:href="#Degradado_sin_nombre_3"/><linearGradient id="Degradado_sin_nombre_3-143" x1="8488.53" y1="9575.75" x2="8572.96" y2="9742.25" gradientTransform="translate(-7577.69 10444.2) rotate(-102.17)" xlink:href="#Degradado_sin_nombre_3"/><linearGradient id="Degradado_sin_nombre_3-144" x1="8468.5" y1="9695.87" x2="8522.38" y2="9802.12" gradientTransform="translate(-7544.09 10528.85) rotate(-102.8)" xlink:href="#Degradado_sin_nombre_3"/><linearGradient id="Degradado_sin_nombre_3-145" x1="8476.78" y1="9691.68" x2="8530.65" y2="9797.92" gradientTransform="translate(-7544.09 10528.85) rotate(-102.8)" xlink:href="#Degradado_sin_nombre_3"/><linearGradient id="Degradado_sin_nombre_3-146" x1="8415.18" y1="9722.91" x2="8469.05" y2="9829.16" gradientTransform="translate(-7544.09 10528.85) rotate(-102.8)" xlink:href="#Degradado_sin_nombre_3"/><linearGradient id="Degradado_sin_nombre_3-147" x1="8430.86" y1="9714.96" x2="8484.73" y2="9821.21" gradientTransform="translate(-7544.09 10528.85) rotate(-102.8)" xlink:href="#Degradado_sin_nombre_3"/><linearGradient id="Degradado_sin_nombre_3-148" x1="8475.86" y1="9692.14" x2="8529.74" y2="9798.38" gradientTransform="translate(-7544.09 10528.85) rotate(-102.8)" xlink:href="#Degradado_sin_nombre_3"/><linearGradient id="Degradado_sin_nombre_3-149" x1="8450.34" y1="9705.08" x2="8504.21" y2="9811.33" gradientTransform="translate(-7544.09 10528.85) rotate(-102.8)" xlink:href="#Degradado_sin_nombre_3"/><linearGradient id="Degradado_sin_nombre_3-150" x1="8466.46" y1="9696.91" x2="8520.33" y2="9803.15" gradientTransform="translate(-7544.09 10528.85) rotate(-102.8)" xlink:href="#Degradado_sin_nombre_3"/><linearGradient id="Degradado_sin_nombre_3-151" x1="8406.97" y1="9727.08" x2="8460.84" y2="9833.32" gradientTransform="translate(-7544.09 10528.85) rotate(-102.8)" xlink:href="#Degradado_sin_nombre_3"/><linearGradient id="Degradado_sin_nombre_3-152" x1="8433.01" y1="9713.87" x2="8486.89" y2="9820.11" gradientTransform="translate(-7544.09 10528.85) rotate(-102.8)" xlink:href="#Degradado_sin_nombre_3"/><linearGradient id="Degradado_sin_nombre_3-153" x1="8406.37" y1="9727.38" x2="8460.25" y2="9833.62" gradientTransform="translate(-7544.09 10528.85) rotate(-102.8)" xlink:href="#Degradado_sin_nombre_3"/><linearGradient id="Degradado_sin_nombre_3-154" x1="8453.14" y1="9703.66" x2="8507.02" y2="9809.91" gradientTransform="translate(-7544.09 10528.85) rotate(-102.8)" xlink:href="#Degradado_sin_nombre_3"/><linearGradient id="Degradado_sin_nombre_3-155" x1="8416.39" y1="9722.3" x2="8470.27" y2="9828.54" gradientTransform="translate(-7544.09 10528.85) rotate(-102.8)" xlink:href="#Degradado_sin_nombre_3"/><linearGradient id="Degradado_sin_nombre_3-156" x1="8460.18" y1="9700.1" x2="8514.05" y2="9806.34" gradientTransform="translate(-7544.09 10528.85) rotate(-102.8)" xlink:href="#Degradado_sin_nombre_3"/><linearGradient id="Degradado_sin_nombre_3-157" x1="8460.18" y1="9700.1" x2="8514.05" y2="9806.34" gradientTransform="translate(-7544.09 10528.85) rotate(-102.8)" xlink:href="#Degradado_sin_nombre_3"/><linearGradient id="Degradado_sin_nombre_3-158" x1="8423.59" y1="9718.65" x2="8477.47" y2="9824.89" gradientTransform="translate(-7544.09 10528.85) rotate(-102.8)" xlink:href="#Degradado_sin_nombre_3"/><linearGradient id="Degradado_sin_nombre_3-159" x1="8423.59" y1="9718.65" x2="8477.47" y2="9824.89" gradientTransform="translate(-7544.09 10528.85) rotate(-102.8)" xlink:href="#Degradado_sin_nombre_3"/><linearGradient id="Degradado_sin_nombre_3-160" x1="8425.26" y1="9717.8" x2="8479.13" y2="9824.05" gradientTransform="translate(-7544.09 10528.85) rotate(-102.8)" xlink:href="#Degradado_sin_nombre_3"/><linearGradient id="Degradado_sin_nombre_3-161" x1="8425.26" y1="9717.8" x2="8479.13" y2="9824.05" gradientTransform="translate(-7544.09 10528.85) rotate(-102.8)" xlink:href="#Degradado_sin_nombre_3"/><linearGradient id="Degradado_sin_nombre_3-162" x1="8458" y1="9701.2" x2="8511.87" y2="9807.44" gradientTransform="translate(-7544.09 10528.85) rotate(-102.8)" xlink:href="#Degradado_sin_nombre_3"/><linearGradient id="Degradado_sin_nombre_3-163" x1="8458" y1="9701.2" x2="8511.87" y2="9807.44" gradientTransform="translate(-7544.09 10528.85) rotate(-102.8)" xlink:href="#Degradado_sin_nombre_3"/><linearGradient id="Degradado_sin_nombre_3-164" x1="8472.4" y1="9693.89" x2="8526.28" y2="9800.14" gradientTransform="translate(-7544.09 10528.85) rotate(-102.8)" xlink:href="#Degradado_sin_nombre_3"/><linearGradient id="Degradado_sin_nombre_3-165" x1="8472.4" y1="9693.89" x2="8526.28" y2="9800.14" gradientTransform="translate(-7544.09 10528.85) rotate(-102.8)" xlink:href="#Degradado_sin_nombre_3"/><linearGradient id="Degradado_sin_nombre_3-166" x1="8409.82" y1="9725.63" x2="8463.7" y2="9831.87" gradientTransform="translate(-7544.09 10528.85) rotate(-102.8)" xlink:href="#Degradado_sin_nombre_3"/><linearGradient id="Degradado_sin_nombre_3-167" x1="8409.82" y1="9725.63" x2="8463.7" y2="9831.87" gradientTransform="translate(-7544.09 10528.85) rotate(-102.8)" xlink:href="#Degradado_sin_nombre_3"/><linearGradient id="Degradado_sin_nombre_3-168" x1="8440.63" y1="9710" x2="8494.51" y2="9816.25" gradientTransform="translate(-7544.09 10528.85) rotate(-102.8)" xlink:href="#Degradado_sin_nombre_3"/><linearGradient id="Degradado_sin_nombre_3-169" x1="8440.63" y1="9710" x2="8494.51" y2="9816.25" gradientTransform="translate(-7544.09 10528.85) rotate(-102.8)" xlink:href="#Degradado_sin_nombre_3"/><linearGradient id="Degradado_sin_nombre_3-170" x1="8443.14" y1="9708.73" x2="8497.01" y2="9814.98" gradientTransform="translate(-7544.09 10528.85) rotate(-102.8)" xlink:href="#Degradado_sin_nombre_3"/><linearGradient id="Degradado_sin_nombre_3-171" x1="8443.14" y1="9708.73" x2="8497.01" y2="9814.98" gradientTransform="translate(-7544.09 10528.85) rotate(-102.8)" xlink:href="#Degradado_sin_nombre_3"/><linearGradient id="Degradado_sin_nombre_3-172" x1="8434.73" y1="9713" x2="8488.61" y2="9819.24" gradientTransform="translate(-7544.09 10528.85) rotate(-102.8)" xlink:href="#Degradado_sin_nombre_3"/><linearGradient id="Degradado_sin_nombre_3-173" x1="8434.73" y1="9713" x2="8488.61" y2="9819.24" gradientTransform="translate(-7544.09 10528.85) rotate(-102.8)" xlink:href="#Degradado_sin_nombre_3"/><linearGradient id="Degradado_sin_nombre_3-174" x1="8434.73" y1="9713" x2="8488.61" y2="9819.24" gradientTransform="translate(-7544.09 10528.85) rotate(-102.8)" xlink:href="#Degradado_sin_nombre_3"/><linearGradient id="Degradado_sin_nombre_3-175" x1="8449.34" y1="9705.59" x2="8503.22" y2="9811.83" gradientTransform="translate(-7544.09 10528.85) rotate(-102.8)" xlink:href="#Degradado_sin_nombre_3"/><linearGradient id="Degradado_sin_nombre_3-176" x1="8449.34" y1="9705.59" x2="8503.22" y2="9811.83" gradientTransform="translate(-7544.09 10528.85) rotate(-102.8)" xlink:href="#Degradado_sin_nombre_3"/><linearGradient id="Degradado_sin_nombre_3-177" x1="8449.34" y1="9705.59" x2="8503.22" y2="9811.83" gradientTransform="translate(-7544.09 10528.85) rotate(-102.8)" xlink:href="#Degradado_sin_nombre_3"/><linearGradient id="Degradado_sin_nombre_3-178" x1="8436.18" y1="9712.26" x2="8490.05" y2="9818.51" gradientTransform="translate(-7544.09 10528.85) rotate(-102.8)" xlink:href="#Degradado_sin_nombre_3"/><linearGradient id="Degradado_sin_nombre_3-179" x1="8436.18" y1="9712.26" x2="8490.05" y2="9818.51" gradientTransform="translate(-7544.09 10528.85) rotate(-102.8)" xlink:href="#Degradado_sin_nombre_3"/><linearGradient id="Degradado_sin_nombre_3-180" x1="8436.18" y1="9712.26" x2="8490.05" y2="9818.51" gradientTransform="translate(-7544.09 10528.85) rotate(-102.8)" xlink:href="#Degradado_sin_nombre_3"/><linearGradient id="Degradado_sin_nombre_3-181" x1="8447.2" y1="9706.68" x2="8501.07" y2="9812.92" gradientTransform="translate(-7544.09 10528.85) rotate(-102.8)" xlink:href="#Degradado_sin_nombre_3"/><linearGradient id="Degradado_sin_nombre_3-182" x1="8447.2" y1="9706.68" x2="8501.07" y2="9812.92" gradientTransform="translate(-7544.09 10528.85) rotate(-102.8)" xlink:href="#Degradado_sin_nombre_3"/><linearGradient id="Degradado_sin_nombre_3-183" x1="8447.2" y1="9706.68" x2="8501.07" y2="9812.92" gradientTransform="translate(-7544.09 10528.85) rotate(-102.8)" xlink:href="#Degradado_sin_nombre_3"/><linearGradient id="Degradado_sin_nombre_3-184" x1="8468.62" y1="9695.82" x2="8522.49" y2="9802.06" gradientTransform="translate(-7544.09 10528.85) rotate(-102.8)" xlink:href="#Degradado_sin_nombre_3"/><linearGradient id="Degradado_sin_nombre_3-185" x1="8468.62" y1="9695.82" x2="8522.49" y2="9802.06" gradientTransform="translate(-7544.09 10528.85) rotate(-102.8)" xlink:href="#Degradado_sin_nombre_3"/><linearGradient id="Degradado_sin_nombre_3-186" x1="8413.8" y1="9723.61" x2="8467.67" y2="9829.86" gradientTransform="translate(-7544.09 10528.85) rotate(-102.8)" xlink:href="#Degradado_sin_nombre_3"/><linearGradient id="Degradado_sin_nombre_3-187" x1="8413.8" y1="9723.61" x2="8467.67" y2="9829.86" gradientTransform="translate(-7544.09 10528.85) rotate(-102.8)" xlink:href="#Degradado_sin_nombre_3"/><linearGradient id="Degradado_sin_nombre_3-188" x1="8460.3" y1="9700.03" x2="8514.18" y2="9806.28" gradientTransform="translate(-7544.09 10528.85) rotate(-102.8)" xlink:href="#Degradado_sin_nombre_3"/><linearGradient id="Degradado_sin_nombre_3-189" x1="8460.3" y1="9700.03" x2="8514.18" y2="9806.28" gradientTransform="translate(-7544.09 10528.85) rotate(-102.8)" xlink:href="#Degradado_sin_nombre_3"/><linearGradient id="Degradado_sin_nombre_3-190" x1="8460.3" y1="9700.03" x2="8514.18" y2="9806.28" gradientTransform="translate(-7544.09 10528.85) rotate(-102.8)" xlink:href="#Degradado_sin_nombre_3"/><linearGradient id="Degradado_sin_nombre_3-191" x1="8422.52" y1="9719.19" x2="8476.4" y2="9825.43" gradientTransform="translate(-7544.09 10528.85) rotate(-102.8)" xlink:href="#Degradado_sin_nombre_3"/><linearGradient id="Degradado_sin_nombre_3-192" x1="8422.52" y1="9719.19" x2="8476.4" y2="9825.43" gradientTransform="translate(-7544.09 10528.85) rotate(-102.8)" xlink:href="#Degradado_sin_nombre_3"/><linearGradient id="Degradado_sin_nombre_3-193" x1="8422.52" y1="9719.19" x2="8476.4" y2="9825.43" gradientTransform="translate(-7544.09 10528.85) rotate(-102.8)" xlink:href="#Degradado_sin_nombre_3"/><linearGradient id="Degradado_sin_nombre_3-194" x1="8468.56" y1="9695.84" x2="8522.44" y2="9802.09" gradientTransform="translate(-7544.09 10528.85) rotate(-102.8)" xlink:href="#Degradado_sin_nombre_3"/><linearGradient id="Degradado_sin_nombre_3-195" x1="8468.56" y1="9695.84" x2="8522.44" y2="9802.09" gradientTransform="translate(-7544.09 10528.85) rotate(-102.8)" xlink:href="#Degradado_sin_nombre_3"/><linearGradient id="Degradado_sin_nombre_3-196" x1="8468.56" y1="9695.84" x2="8522.44" y2="9802.09" gradientTransform="translate(-7544.09 10528.85) rotate(-102.8)" xlink:href="#Degradado_sin_nombre_3"/><linearGradient id="Degradado_sin_nombre_3-197" x1="8414.17" y1="9723.43" x2="8468.04" y2="9829.67" gradientTransform="translate(-7544.09 10528.85) rotate(-102.8)" xlink:href="#Degradado_sin_nombre_3"/><linearGradient id="Degradado_sin_nombre_3-198" x1="8414.17" y1="9723.43" x2="8468.04" y2="9829.67" gradientTransform="translate(-7544.09 10528.85) rotate(-102.8)" xlink:href="#Degradado_sin_nombre_3"/><linearGradient id="Degradado_sin_nombre_3-199" x1="8414.17" y1="9723.43" x2="8468.04" y2="9829.67" gradientTransform="translate(-7544.09 10528.85) rotate(-102.8)" xlink:href="#Degradado_sin_nombre_3"/><linearGradient id="Degradado_sin_nombre_3-200" x1="8413.28" y1="9723.88" x2="8467.16" y2="9830.12" gradientTransform="translate(-7544.09 10528.85) rotate(-102.8)" xlink:href="#Degradado_sin_nombre_3"/><linearGradient id="Degradado_sin_nombre_3-201" x1="8413.28" y1="9723.88" x2="8467.16" y2="9830.12" gradientTransform="translate(-7544.09 10528.85) rotate(-102.8)" xlink:href="#Degradado_sin_nombre_3"/><linearGradient id="Degradado_sin_nombre_3-202" x1="8469.92" y1="9695.16" x2="8523.79" y2="9801.4" gradientTransform="translate(-7544.09 10528.85) rotate(-102.8)" xlink:href="#Degradado_sin_nombre_3"/><linearGradient id="Degradado_sin_nombre_3-203" x1="8469.92" y1="9695.16" x2="8523.79" y2="9801.4" gradientTransform="translate(-7544.09 10528.85) rotate(-102.8)" xlink:href="#Degradado_sin_nombre_3"/><linearGradient id="Degradado_sin_nombre_3-204" x1="8462.16" y1="9699.09" x2="8516.03" y2="9805.33" gradientTransform="translate(-7544.09 10528.85) rotate(-102.8)" xlink:href="#Degradado_sin_nombre_3"/><linearGradient id="Degradado_sin_nombre_3-205" x1="8462.16" y1="9699.09" x2="8516.03" y2="9805.33" gradientTransform="translate(-7544.09 10528.85) rotate(-102.8)" xlink:href="#Degradado_sin_nombre_3"/><linearGradient id="Degradado_sin_nombre_3-206" x1="8462.16" y1="9699.09" x2="8516.03" y2="9805.33" gradientTransform="translate(-7544.09 10528.85) rotate(-102.8)" xlink:href="#Degradado_sin_nombre_3"/><linearGradient id="Degradado_sin_nombre_3-207" x1="8421.66" y1="9719.63" x2="8475.53" y2="9825.87" gradientTransform="translate(-7544.09 10528.85) rotate(-102.8)" xlink:href="#Degradado_sin_nombre_3"/><linearGradient id="Degradado_sin_nombre_3-208" x1="8421.66" y1="9719.63" x2="8475.53" y2="9825.87" gradientTransform="translate(-7544.09 10528.85) rotate(-102.8)" xlink:href="#Degradado_sin_nombre_3"/><linearGradient id="Degradado_sin_nombre_3-209" x1="8421.66" y1="9719.63" x2="8475.53" y2="9825.87" gradientTransform="translate(-7544.09 10528.85) rotate(-102.8)" xlink:href="#Degradado_sin_nombre_3"/><linearGradient id="Degradado_sin_nombre_3-210" x1="8413.67" y1="9723.68" x2="8467.55" y2="9829.92" gradientTransform="translate(-7544.09 10528.85) rotate(-102.8)" xlink:href="#Degradado_sin_nombre_3"/><linearGradient id="Degradado_sin_nombre_3-211" x1="8413.67" y1="9723.68" x2="8467.55" y2="9829.92" gradientTransform="translate(-7544.09 10528.85) rotate(-102.8)" xlink:href="#Degradado_sin_nombre_3"/><linearGradient id="Degradado_sin_nombre_3-212" x1="8413.67" y1="9723.68" x2="8467.55" y2="9829.92" gradientTransform="translate(-7544.09 10528.85) rotate(-102.8)" xlink:href="#Degradado_sin_nombre_3"/><linearGradient id="Degradado_sin_nombre_3-213" x1="8469.58" y1="9695.33" x2="8523.45" y2="9801.57" gradientTransform="translate(-7544.09 10528.85) rotate(-102.8)" xlink:href="#Degradado_sin_nombre_3"/><linearGradient id="Degradado_sin_nombre_3-214" x1="8469.58" y1="9695.33" x2="8523.45" y2="9801.57" gradientTransform="translate(-7544.09 10528.85) rotate(-102.8)" xlink:href="#Degradado_sin_nombre_3"/><linearGradient id="Degradado_sin_nombre_3-215" x1="8469.58" y1="9695.33" x2="8523.45" y2="9801.57" gradientTransform="translate(-7544.09 10528.85) rotate(-102.8)" xlink:href="#Degradado_sin_nombre_3"/></defs><g class="cls-219"><g id="Capa_2"><g id="Capa_1-2"><path class="cls-99" d="m502.77,94.88c0-12.08-9.82-21.9-21.9-21.9h-20.52v.04h-7.64v75.68h28.15c12.08,0,21.9-9.78,21.9-21.87,0-6.32-2.67-12.02-6.98-16.01,4.31-3.93,6.98-9.63,6.98-15.95Zm-21.9,42.03h-15.37v-20.17h15.37c5.57,0,10.1,4.53,10.1,10.1s-4.53,10.07-10.1,10.07Zm0-31.96h-15.37v-20.13h15.37c5.57,0,10.1,4.5,10.1,10.07s-4.53,10.07-10.1,10.07Z"/><path class="cls-99" d="m547.09,73.43c-20.8,0-37.66,16.83-37.66,37.63s16.86,37.66,37.66,37.66,37.63-16.86,37.63-37.66-16.83-37.63-37.63-37.63Zm0,61.98c-13.47,0-24.35-10.89-24.35-24.35s10.89-24.32,24.35-24.32,24.32,10.89,24.32,24.32-10.89,24.35-24.32,24.35Z"/><path class="cls-99" d="m691.95,73.43c-20.65,0-37.4,16.72-37.4,37.37s16.75,37.4,37.4,37.4,37.37-16.75,37.37-37.4-16.72-37.37-37.37-37.37Zm0,61.55c-13.37,0-24.18-10.81-24.18-24.18s10.81-24.15,24.18-24.15,24.15,10.81,24.15,24.15-10.81,24.18-24.15,24.18Z"/><path class="cls-99" d="m282.17,97.02c0-13.24-10.73-23.97-23.97-23.97-.22,0-.44,0-.63.03v-.03h-32.53v11.99h32.53c.22-.03.41-.03.63-.03,6.64,0,12.02,5.38,12.02,12.02s-5.38,11.99-12.02,11.99h-12.02l6.04,11.2,15.42,28.5h14.53l-15.79-29.2c9.22-3.33,15.79-12.14,15.79-22.49Z"/><polygon class="cls-99" points="408.45 110.21 408.26 110.36 370.29 72.23 370.29 148.71 383.41 148.71 383.41 103.82 408.26 128.64 408.45 128.48 408.61 128.64 433.46 103.82 433.46 148.71 446.58 148.71 446.58 72.23 408.61 110.36 408.45 110.21"/><path class="cls-99" d="m326.84,125.02c-1.3,2.95-5.48,2.95-6.79,0l-22.97-51.97h-14.16l30.58,69.19c1.74,3.94,5.64,6.47,9.94,6.47s8.2-2.54,9.94-6.47l30.58-69.19h-14.16l-22.97,51.97Z"/><rect class="cls-99" x="225.03" y="97.59" width="13.12" height="51.13"/><path class="cls-99" d="m632.52,120.77c3.63-3.72,6.18-6.55,7.69-8.54,3.46-4.56,5.17-9.86,5.08-15.84-.15-5.53-2.05-10.59-5.68-15.15-1.97-2.38-4.39-4.21-7.28-5.51-2.87-1.3-6.1-1.99-9.64-2.07-7.65-.06-13.29,1.34-16.92,4.26-1.97,1.58-3.5,3.31-4.6,5.17-1.12,1.84-1.95,3.8-2.49,5.86-.56,2.05-.91,4.21-1.02,6.51-.11,2.29-.17,4.6-.17,6.98h13.49c0-2.14.19-4.11.58-5.92.41-1.82,1.08-3.39,2.03-4.73.93-1.34,2.18-2.36,3.72-3.03,1.53-.67,3.42-.95,5.62-.89,2.29.17,4.17,1.04,5.62,2.62,1.47,1.58,2.2,3.83,2.2,6.74.15,2.53-.93,5.17-3.26,7.93-2.33,2.77-5.32,5.79-8.93,9.1l-21.2,20.6v14.09h48.31v-14.33h-27.47c5.92-5.51,10.7-10.14,14.33-13.83Z"/><path class="cls-99" d="m771.43,120.6c3.63-3.72,6.18-6.55,7.69-8.54,3.46-4.56,5.17-9.86,5.08-15.84-.15-5.53-2.05-10.59-5.68-15.15-1.97-2.38-4.39-4.21-7.28-5.51-2.87-1.3-6.1-1.99-9.64-2.07-7.65-.06-13.29,1.34-16.92,4.26-1.97,1.58-3.5,3.31-4.6,5.17-1.12,1.84-1.95,3.8-2.49,5.86-.56,2.05-.91,4.21-1.02,6.51-.11,2.29-.17,4.6-.17,6.98h13.49c0-2.14.19-4.11.58-5.92.41-1.82,1.08-3.39,2.03-4.73.93-1.34,2.18-2.36,3.72-3.03,1.53-.67,3.41-.95,5.62-.89,2.29.17,4.17,1.04,5.62,2.62,1.47,1.58,2.2,3.83,2.2,6.74.15,2.53-.93,5.17-3.26,7.93-2.33,2.77-5.32,5.79-8.93,9.1l-21.2,20.6v14.09h48.31v-14.33h-27.47c5.92-5.51,10.7-10.14,14.33-13.83Z"/><text class="cls-220" transform="translate(798.61 146.83) scale(.9 1)"><tspan x="0" y="0">3</tspan></text><rect class="cls-99" x="224.91" y="158.43" width="618.12" height="2.45"/><path class="cls-99" d="m238.67,181.19c1.38-1.28,2.07-3,2.07-5.17,0-1.36-.3-2.6-.9-3.72-.33-.63-.78-1.18-1.35-1.63-1.46-1.2-3.61-1.8-6.45-1.8h-7v22.76h4.67v-9.05l6.24,9.05h5.67l-6.27-8.74c1.38-.34,2.49-.91,3.33-1.7Zm-3.95-2.12c-.71.51-1.67.77-2.88.77h-2.13v-7.1h2.52c1.25,0,2.2.34,2.85,1.02.62.63.93,1.47.93,2.52,0,1.23-.43,2.17-1.28,2.8Z"/><path class="cls-99" d="m257.69,182.19c0,1.06-.06,1.86-.18,2.4-.22,1-.7,1.77-1.43,2.32-.76.56-1.62.83-2.58.83-1.37,0-2.43-.46-3.2-1.38-.68-.81-1.02-2.2-1.02-4.15v-13.34h-4.67v13.17c0,1.93.18,3.47.55,4.62.54,1.69,1.61,3.02,3.2,4,1.51.93,3.24,1.4,5.18,1.4,1.63,0,3.11-.33,4.43-1,1.54-.79,2.69-1.97,3.43-3.55.66-1.37.98-3.19.98-5.47v-13.17h-4.7v13.32Z"/><polygon class="cls-99" points="265.99 191.62 278.65 191.62 278.65 187.8 270.66 187.8 270.66 182.1 278.65 182.1 278.65 178.28 270.66 178.28 270.66 172.68 278.65 172.68 278.65 168.87 265.99 168.87 265.99 191.62"/><path class="cls-99" d="m295.22,170.03c-1.54-.78-3.6-1.17-6.17-1.17h-6.45v22.76h6.72c4.47,0,7.69-1.58,9.65-4.74,1.23-1.98,1.85-4.28,1.85-6.9,0-2.09-.42-3.95-1.25-5.59-.99-1.96-2.44-3.41-4.35-4.37Zm-.03,14.05c-.71,1.37-1.73,2.37-3.05,3-.96.46-2.28.68-3.97.68h-.9v-15.12h1.72c1.11,0,2.14.2,3.08.6,1.27.52,2.24,1.36,2.92,2.52.73,1.26,1.1,2.71,1.1,4.37,0,1.48-.3,2.8-.9,3.95Z"/><path class="cls-99" d="m310,168.87l-7.87,22.76h4.95l1.35-3.93h8.77l1.27,3.93h5.13l-7.77-22.76h-5.83Zm-.37,14.99l3.18-9.42,3.15,9.42h-6.34Z"/><polygon class="cls-99" points="343.38 184.12 338.78 168.87 333.96 168.87 340.88 191.62 345.83 191.62 353.03 168.87 348.18 168.87 343.38 184.12"/><path class="cls-99" d="m361,168.87l-7.87,22.76h4.95l1.35-3.93h8.77l1.27,3.93h5.13l-7.77-22.76h-5.83Zm-.37,14.99l3.18-9.42,3.15,9.42h-6.34Z"/><path class="cls-99" d="m387.46,172.75c1.82,0,3.6.79,5.33,2.37l3.05-3.08c-1.12-1.09-2.15-1.87-3.07-2.33-1.65-.84-3.49-1.27-5.54-1.27s-3.8.41-5.37,1.23c-1.88.99-3.33,2.45-4.37,4.37-1.04,1.92-1.57,4.01-1.57,6.25,0,1.35.19,2.66.58,3.93.53,1.72,1.36,3.2,2.48,4.44,2.06,2.28,4.77,3.42,8.15,3.42,1.92,0,3.68-.38,5.27-1.13,1-.48,2.07-1.25,3.2-2.32l-2.83-3.22c-1.36,1.57-3.05,2.35-5.08,2.35-1.27,0-2.43-.3-3.48-.9-1.08-.61-1.9-1.42-2.47-2.43-.72-1.27-1.08-2.68-1.08-4.23,0-2.09.58-3.82,1.75-5.18,1.28-1.5,2.96-2.25,5.04-2.25Z"/><path class="cls-99" d="m404.26,168.87l-7.87,22.76h4.95l1.35-3.93h8.77l1.27,3.93h5.13l-7.77-22.76h-5.83Zm-.37,14.99l3.18-9.42,3.15,9.42h-6.34Z"/><path class="cls-99" d="m430.72,172.75c1.82,0,3.6.79,5.33,2.37l3.05-3.08c-1.12-1.09-2.15-1.87-3.07-2.33-1.65-.84-3.49-1.27-5.54-1.27s-3.8.41-5.37,1.23c-1.88.99-3.33,2.45-4.37,4.37-1.04,1.92-1.57,4.01-1.57,6.25,0,1.35.19,2.66.58,3.93.53,1.72,1.36,3.2,2.48,4.44,2.06,2.28,4.77,3.42,8.15,3.42,1.92,0,3.68-.38,5.27-1.13,1-.48,2.07-1.25,3.2-2.32l-2.83-3.22c-1.36,1.57-3.05,2.35-5.08,2.35-1.27,0-2.43-.3-3.48-.9-1.08-.61-1.9-1.42-2.47-2.43-.72-1.27-1.08-2.68-1.08-4.23,0-2.09.58-3.82,1.75-5.18,1.28-1.5,2.96-2.25,5.04-2.25Z"/><rect class="cls-99" x="441.99" y="168.87" width="4.67" height="22.76"/><path class="cls-99" d="m467.71,169.75c-1.67-.89-3.48-1.33-5.45-1.33-3.28,0-6.03,1.06-8.25,3.17-2.47,2.37-3.7,5.29-3.7,8.77,0,1.96.43,3.76,1.3,5.42,1.02,1.97,2.53,3.53,4.53,4.68,1.87,1.07,3.88,1.6,6.05,1.6,1.96,0,3.78-.45,5.47-1.35,1.99-1.04,3.53-2.55,4.63-4.52,1.02-1.82,1.53-3.77,1.53-5.84,0-2.24-.45-4.21-1.35-5.9-1.09-2.01-2.68-3.58-4.77-4.7Zm1.03,12.95c-.31,1.06-.81,1.96-1.48,2.72-1.4,1.54-3.13,2.32-5.18,2.32-1.93,0-3.58-.71-4.95-2.12-1.37-1.42-2.05-3.21-2.05-5.35,0-1.98.57-3.66,1.72-5.03,1.38-1.67,3.16-2.5,5.33-2.5,1.81,0,3.38.63,4.72,1.9,1.5,1.42,2.25,3.34,2.25,5.75,0,.73-.12,1.51-.35,2.32Z"/><polygon class="cls-99" points="491.64 183.07 482.08 168.87 477.5 168.87 477.5 191.62 482.17 191.62 482.17 177.23 491.75 191.62 496.3 191.62 496.3 168.87 491.64 168.87 491.64 183.07"/><path class="cls-99" d="m506.61,168.87l-7.87,22.76h4.95l1.35-3.93h8.77l1.27,3.93h5.13l-7.77-22.76h-5.83Zm-.37,14.99l3.18-9.42,3.15,9.42h-6.34Z"/><polygon class="cls-99" points="527.33 168.87 522.66 168.87 522.66 191.62 534.95 191.62 534.95 187.75 527.33 187.75 527.33 168.87"/><polygon class="cls-99" points="552.95 176.5 548.53 168.62 542.98 168.62 550.6 181.34 550.6 191.37 555.27 191.37 555.27 181.34 562.75 168.62 557.28 168.62 552.95 176.5"/><polygon class="cls-99" points="587.09 182.44 580.27 168.62 574.99 168.62 574.99 191.37 579.66 191.37 579.66 177.2 587.09 192.07 594.53 177.2 594.53 191.37 599.2 191.37 599.2 168.62 593.91 168.62 587.09 182.44"/><rect class="cls-99" x="603.95" y="168.62" width="4.67" height="22.76"/><path class="cls-99" d="m623.79,172.5c1.82,0,3.6.79,5.33,2.37l3.05-3.08c-1.12-1.09-2.15-1.87-3.07-2.33-1.65-.84-3.49-1.27-5.54-1.27s-3.8.41-5.37,1.23c-1.88.99-3.33,2.45-4.37,4.37-1.04,1.92-1.57,4.01-1.57,6.25,0,1.35.19,2.66.58,3.93.53,1.72,1.36,3.2,2.48,4.44,2.06,2.28,4.77,3.42,8.15,3.42,1.92,0,3.68-.38,5.27-1.13,1-.48,2.07-1.25,3.2-2.32l-2.83-3.22c-1.36,1.57-3.05,2.35-5.08,2.35-1.27,0-2.43-.3-3.48-.9-1.08-.61-1.9-1.42-2.47-2.43-.72-1.27-1.08-2.68-1.08-4.23,0-2.09.58-3.82,1.75-5.18,1.28-1.5,2.96-2.25,5.04-2.25Z"/><polygon class="cls-99" points="634.27 191.37 646.93 191.37 646.93 187.55 638.94 187.55 638.94 181.85 646.93 181.85 646.93 178.03 638.94 178.03 638.94 172.43 646.93 172.43 646.93 168.62 634.27 168.62 634.27 191.37"/><path class="cls-99" d="m673.73,169.78c-1.54-.78-3.6-1.17-6.17-1.17h-6.45v22.76h6.72c4.47,0,7.69-1.58,9.65-4.74,1.23-1.98,1.85-4.28,1.85-6.9,0-2.09-.42-3.95-1.25-5.59-.99-1.96-2.44-3.41-4.35-4.37Zm-.03,14.05c-.71,1.37-1.73,2.37-3.05,3-.96.46-2.28.68-3.97.68h-.9v-15.12h1.72c1.11,0,2.14.2,3.08.6,1.27.52,2.24,1.36,2.92,2.52.73,1.26,1.1,2.71,1.1,4.37,0,1.48-.3,2.8-.9,3.95Z"/><polygon class="cls-99" points="682.2 191.37 694.85 191.37 694.85 187.55 686.87 187.55 686.87 181.85 694.85 181.85 694.85 178.03 686.87 178.03 686.87 172.43 694.85 172.43 694.85 168.62 682.2 168.62 682.2 191.37"/><path class="cls-99" d="m720.55,179.99c1.04-.34,1.84-.8,2.38-1.37.97-1.02,1.45-2.33,1.45-3.92,0-2.08-.73-3.67-2.2-4.77-1.16-.88-3.08-1.32-5.78-1.32h-7.35v22.76h8.39c1.39,0,2.48-.1,3.28-.3,1.26-.32,2.25-.96,2.98-1.92.79-1.06,1.18-2.34,1.18-3.85,0-1.74-.55-3.11-1.65-4.1-.62-.56-1.52-.96-2.68-1.22Zm-6.84-7.82h1.63c1.86,0,3.07.33,3.63.98.47.52.7,1.2.7,2.03,0,.99-.32,1.75-.95,2.28-.63.53-1.68.8-3.15.8h-1.87v-6.1Zm4.53,15.55c-.47.14-1.22.22-2.25.22h-2.28v-6.18h2.02c1.48,0,2.52.18,3.13.53.87.51,1.3,1.38,1.3,2.62,0,1.46-.64,2.39-1.92,2.82Z"/><path class="cls-99" d="m744.87,169.5c-1.67-.89-3.48-1.33-5.45-1.33-3.28,0-6.03,1.06-8.25,3.17-2.47,2.37-3.7,5.29-3.7,8.77,0,1.96.43,3.76,1.3,5.42,1.02,1.97,2.53,3.53,4.53,4.68,1.87,1.07,3.88,1.6,6.05,1.6,1.96,0,3.78-.45,5.47-1.35,1.99-1.04,3.53-2.55,4.63-4.52,1.02-1.82,1.53-3.77,1.53-5.84,0-2.24-.45-4.21-1.35-5.9-1.09-2.01-2.68-3.58-4.77-4.7Zm1.03,12.95c-.31,1.06-.81,1.96-1.48,2.72-1.4,1.54-3.13,2.32-5.18,2.32-1.93,0-3.58-.71-4.95-2.12-1.37-1.42-2.05-3.21-2.05-5.35,0-1.98.57-3.66,1.72-5.03,1.38-1.67,3.16-2.5,5.33-2.5,1.81,0,3.38.63,4.72,1.9,1.5,1.42,2.25,3.34,2.25,5.75,0,.73-.12,1.51-.35,2.32Z"/><path class="cls-99" d="m765.54,178.6v3.82h6.34c-.15.54-.28.96-.4,1.25-.47,1.13-1.22,2.05-2.25,2.73-1.17.78-2.43,1.17-3.8,1.17-1.78,0-3.34-.6-4.68-1.8-1.65-1.47-2.47-3.37-2.47-5.72,0-1.09.2-2.13.6-3.13.53-1.3,1.3-2.33,2.3-3.08,1.19-.89,2.56-1.33,4.12-1.33,1.44,0,2.73.38,3.87,1.15.55.37,1.12.92,1.73,1.67l3.53-2.77c-.81-1.01-1.73-1.84-2.75-2.48-1.99-1.26-4.15-1.88-6.48-1.88-3.32,0-6.08,1.11-8.27,3.32-2.26,2.29-3.38,5.13-3.38,8.52,0,2.33.55,4.42,1.65,6.25,1.03,1.73,2.47,3.1,4.3,4.08,1.77.97,3.68,1.45,5.75,1.45,3.27,0,6.06-1.18,8.39-3.53,2.21-2.23,3.32-5.05,3.32-8.44,0-.4,0-.81-.02-1.23h-11.39Z"/><path class="cls-99" d="m796.63,169.5c-1.67-.89-3.48-1.33-5.45-1.33-3.28,0-6.03,1.06-8.25,3.17-2.47,2.37-3.7,5.29-3.7,8.77,0,1.96.43,3.76,1.3,5.42,1.02,1.97,2.53,3.53,4.53,4.68,1.87,1.07,3.88,1.6,6.05,1.6,1.96,0,3.78-.45,5.47-1.35,1.99-1.04,3.53-2.55,4.63-4.52,1.02-1.82,1.53-3.77,1.53-5.84,0-2.24-.45-4.21-1.35-5.9-1.09-2.01-2.68-3.58-4.77-4.7Zm1.03,12.95c-.31,1.06-.81,1.96-1.48,2.72-1.4,1.54-3.13,2.32-5.18,2.32-1.93,0-3.58-.71-4.95-2.12-1.37-1.42-2.05-3.21-2.05-5.35,0-1.98.57-3.66,1.72-5.03,1.38-1.67,3.16-2.5,5.33-2.5,1.81,0,3.38.63,4.72,1.9,1.5,1.42,2.25,3.34,2.25,5.75,0,.73-.12,1.51-.35,2.32Z"/><polygon class="cls-99" points="804.15 172.43 809.57 172.43 809.57 191.37 814.24 191.37 814.24 172.43 819.66 172.43 819.66 168.62 804.15 168.62 804.15 172.43"/><polygon class="cls-99" points="835.99 162.03 831.51 162.03 828.29 166.56 831.26 166.56 835.99 162.03"/><path class="cls-99" d="m833.51,168.62h-5.84l-7.87,22.76h4.95l1.35-3.93h8.77l1.27,3.93h5.14l-7.77-22.76Zm-6.2,14.99l3.18-9.42,3.15,9.42h-6.33Z"/><polygon class="cls-99" points="100.75 0 0 73.2 38.48 191.63 163.01 191.63 201.5 73.2 100.75 0"/><g class="cls-221"><path class="cls-107" d="m109.54.67c-2.62-.22-5.23-.35-7.83-.38l2.82,14.69,5.01-14.31Z"/><path class="cls-126" d="m55.36,10.51c-1.95.92-3.88,1.89-5.77,2.94l8.15,9.48-2.38-12.41Z"/><path class="cls-153" d="m36.41,190.43c1.74,1.33,3.53,2.61,5.36,3.83l4.25-12.15-9.61,8.32Z"/><path class="cls-165" d="m14.19,45.05c-1.26,1.78-2.45,3.61-3.61,5.48l11.86,4.11-8.25-9.59Z"/><path class="cls-103" d="m3.32,147.92c.87,2.03,1.79,4.03,2.78,6l9.65-8.35-12.43,2.35Z"/><path class="cls-180" d="m-4.7,95.45c-.2,1.93-.34,3.85-.43,5.78l11.06-2.09-10.62-3.68Z"/><path class="cls-86" d="m184.8,170.61c1.87-2.44,3.65-4.97,5.31-7.59l-16.88-5.85,11.57,13.45Z"/><path class="cls-145" d="m197.35,62.94c-1.25-2.8-2.62-5.54-4.12-8.23l-13.31,11.52,17.43-3.3Z"/><path class="cls-211" d="m140.87,204.21c2.5-1.03,4.96-2.12,7.37-3.34l-10.32-11.99,2.94,15.33Z"/><path class="cls-200" d="m161.46,19.47c-2.17-1.52-4.41-2.97-6.72-4.34l-5.1,14.56,11.82-10.23Z"/><path class="cls-52" d="m205.93,118.28c.34-2.94.54-5.87.64-8.8l-16.83,3.18,16.19,5.62Z"/><path class="cls-45" d="m109.16,39.13c4.32.55,8.64,1.52,12.93,2.95,3.11,1.04,6.09,2.29,8.94,3.72l18.61-16.1,5.1-14.56c-6.37-3.77-13.22-6.95-20.52-9.39-8.18-2.73-16.45-4.38-24.68-5.08l-5.01,14.31,4.64,24.15Z"/><path class="cls-37" d="m109.16,39.13c4.32.55,8.64,1.52,12.93,2.95,3.11,1.04,6.09,2.29,8.94,3.72l18.61-16.1,5.1-14.56c-6.37-3.77-13.22-6.95-20.52-9.39-8.18-2.73-16.45-4.38-24.68-5.08l-5.01,14.31,4.64,24.15Z"/><path class="cls-82" d="m86.44,172.34c-2.4-.52-4.79-1.16-7.17-1.96-4.59-1.53-8.89-3.51-12.9-5.87l-20.34,17.6-4.25,12.15c7.69,5.14,16.17,9.37,25.37,12.44,6.29,2.1,12.65,3.55,18.99,4.43l5.01-14.32-4.7-24.49Z"/><path class="cls-159" d="m86.44,172.34c-2.4-.52-4.79-1.16-7.17-1.96-4.59-1.53-8.89-3.51-12.9-5.87l-20.34,17.6-4.25,12.15c7.69,5.14,16.17,9.37,25.37,12.44,6.29,2.1,12.65,3.55,18.99,4.43l5.01-14.32-4.7-24.49Z"/><path class="cls-114" d="m163.27,80.65c3.16,7.73,4.91,16.06,5.04,24.58l21.44,7.43,16.83-3.18c.51-16.22-2.75-32.11-9.22-46.54l-17.43,3.3-16.65,14.41Z"/><path class="cls-55" d="m163.27,80.65c3.16,7.73,4.91,16.06,5.04,24.58l21.44,7.43,16.83-3.18c.51-16.22-2.75-32.11-9.22-46.54l-17.43,3.3-16.65,14.41Z"/><path class="cls-140" d="m36.51,127.6c-2.04-6.1-3.21-12.51-3.43-19.05l-27.15-9.42-11.06,2.09c-.77,16.23,2.22,32.17,8.45,46.69l12.43-2.35,20.76-17.97Z"/><path class="cls-26" d="m36.51,127.6c-2.04-6.1-3.21-12.51-3.43-19.05l-27.15-9.42-11.06,2.09c-.77,16.23,2.22,32.17,8.45,46.69l12.43-2.35,20.76-17.97Z"/><path class="cls-7" d="m48.18,63.57c4.26-5.25,9.26-9.77,14.78-13.47l-5.22-27.18-8.15-9.48c-13.86,7.63-26.03,18.35-35.4,31.6l8.25,9.59,25.75,8.93Z"/><path class="cls-120" d="m48.18,63.57c4.26-5.25,9.26-9.77,14.78-13.47l-5.22-27.18-8.15-9.48c-13.86,7.63-26.03,18.35-35.4,31.6l8.25,9.59,25.75,8.93Z"/><path class="cls-135" d="m152.31,149.91c-5.35,6.32-11.77,11.55-18.89,15.49l4.51,23.48,10.32,11.99c14.16-7.12,26.71-17.41,36.55-30.26l-11.57-13.45-20.92-7.25Z"/><path class="cls-67" d="m152.31,149.91c-5.35,6.32-11.77,11.55-18.89,15.49l4.51,23.48,10.32,11.99c14.16-7.12,26.71-17.41,36.55-30.26l-11.57-13.45-20.92-7.25Z"/><path class="cls-146" d="m55.1,156.19c-5.02-4.59-9.28-9.88-12.69-15.66l-26.66,5.04-9.65,8.35c7.13,14.15,17.44,26.69,30.31,36.52l9.61-8.32,9.07-25.92Z"/><path class="cls-2" d="m55.1,156.19c-5.02-4.59-9.28-9.88-12.69-15.66l-26.66,5.04-9.65,8.35c7.13,14.15,17.44,26.69,30.31,36.52l9.61-8.32,9.07-25.92Z"/><path class="cls-130" d="m141.68,52.44c6.55,5,12.07,11.09,16.35,17.93l21.89-4.14,13.31-11.52c-7.69-13.82-18.47-25.94-31.77-35.25l-11.82,10.23-7.96,22.75Z"/><path class="cls-182" d="m141.68,52.44c6.55,5,12.07,11.09,16.35,17.93l21.89-4.14,13.31-11.52c-7.69-13.82-18.47-25.94-31.77-35.25l-11.82,10.23-7.96,22.75Z"/><path class="cls-64" d="m55.1,156.19l-9.07,25.92,20.34-17.6c-4.09-2.4-7.85-5.2-11.27-8.32Z"/><path class="cls-78" d="m55.1,156.19l-9.07,25.92,20.34-17.6c-4.09-2.4-7.85-5.2-11.27-8.32Z"/><path class="cls-179" d="m55.1,156.19l-9.07,25.92,20.34-17.6c-4.09-2.4-7.85-5.2-11.27-8.32Z"/><path class="cls-60" d="m141.68,52.44l7.96-22.75-18.61,16.1c3.8,1.9,7.35,4.14,10.65,6.65Z"/><path class="cls-175" d="m141.68,52.44l7.96-22.75-18.61,16.1c3.8,1.9,7.35,4.14,10.65,6.65Z"/><path class="cls-58" d="m141.68,52.44l7.96-22.75-18.61,16.1c3.8,1.9,7.35,4.14,10.65,6.65Z"/><path class="cls-189" d="m179.92,66.24l-21.89,4.14c2.04,3.27,3.78,6.71,5.24,10.27l16.65-14.41Z"/><path class="cls-150" d="m179.92,66.24l-21.89,4.14c2.04,3.27,3.78,6.71,5.24,10.27l16.65-14.41Z"/><path class="cls-20" d="m179.92,66.24l-21.89,4.14c2.04,3.27,3.78,6.71,5.24,10.27l16.65-14.41Z"/><path class="cls-171" d="m15.75,145.57l26.66-5.04c-2.41-4.09-4.39-8.42-5.9-12.93l-20.76,17.97Z"/><path class="cls-11" d="m15.75,145.57l26.66-5.04c-2.41-4.09-4.39-8.42-5.9-12.93l-20.76,17.97Z"/><path class="cls-65" d="m15.75,145.57l26.66-5.04c-2.41-4.09-4.39-8.42-5.9-12.93l-20.76,17.97Z"/><path class="cls-194" d="m34.21,93.79c.57-3,1.32-6,2.32-8.98,1.08-3.23,2.39-6.33,3.88-9.28l-17.97-20.89-11.86-4.11c-4.21,6.83-7.73,14.22-10.38,22.16-2.52,7.54-4.11,15.17-4.89,22.76l10.62,3.68,28.28-5.35Z"/><path class="cls-172" d="m34.21,93.79c.57-3,1.32-6,2.32-8.98,1.08-3.23,2.39-6.33,3.88-9.28l-17.97-20.89-11.86-4.11c-4.21,6.83-7.73,14.22-10.38,22.16-2.52,7.54-4.11,15.17-4.89,22.76l10.62,3.68,28.28-5.35Z"/><path class="cls-183" d="m167.46,116.88c-.58,3.6-1.44,7.19-2.63,10.76-1.53,4.59-3.52,8.91-5.88,12.92l14.28,16.6,16.88,5.85c4.51-7.12,8.26-14.89,11.05-23.25,2.38-7.12,3.94-14.31,4.77-21.48l-16.19-5.62-22.28,4.21Z"/><path class="cls-38" d="m167.46,116.88c-.58,3.6-1.44,7.19-2.63,10.76-1.53,4.59-3.52,8.91-5.88,12.92l14.28,16.6,16.88,5.85c4.51-7.12,8.26-14.89,11.05-23.25,2.38-7.12,3.94-14.31,4.77-21.48l-16.19-5.62-22.28,4.21Z"/><path class="cls-167" d="m5.93,99.14l27.15,9.42c-.17-4.88.2-9.82,1.13-14.76l-28.28,5.35Z"/><path class="cls-49" d="m5.93,99.14l27.15,9.42c-.17-4.88.2-9.82,1.13-14.76l-28.28,5.35Z"/><path class="cls-36" d="m5.93,99.14l27.15,9.42c-.17-4.88.2-9.82,1.13-14.76l-28.28,5.35Z"/><path class="cls-8" d="m189.74,112.67l-21.44-7.43c.06,3.86-.22,7.75-.84,11.65l22.28-4.21Z"/><path class="cls-185" d="m189.74,112.67l-21.44-7.43c.06,3.86-.22,7.75-.84,11.65l22.28-4.21Z"/><path class="cls-174" d="m189.74,112.67l-21.44-7.43c.06,3.86-.22,7.75-.84,11.65l22.28-4.21Z"/><path class="cls-198" d="m48.18,63.57l-25.75-8.93,17.97,20.89c2.19-4.31,4.81-8.31,7.78-11.96Z"/><path class="cls-80" d="m48.18,63.57l-25.75-8.93,17.97,20.89c2.19-4.31,4.81-8.31,7.78-11.96Z"/><path class="cls-209" d="m48.18,63.57l-25.75-8.93,17.97,20.89c2.19-4.31,4.81-8.31,7.78-11.96Z"/><path class="cls-144" d="m152.31,149.91l20.92,7.25-14.28-16.6c-1.96,3.33-4.19,6.45-6.64,9.34Z"/><path class="cls-21" d="m152.31,149.91l20.92,7.25-14.28-16.6c-1.96,3.33-4.19,6.45-6.64,9.34Z"/><path class="cls-23" d="m152.31,149.91l20.92,7.25-14.28-16.6c-1.96,3.33-4.19,6.45-6.64,9.34Z"/><path class="cls-76" d="m122.03,170.4c-7.28,2.43-15,3.63-22.85,3.46l-8.04,22.97,2.91,15.14c16.23,1.03,32.21-1.75,46.82-7.75l-2.94-15.33-15.9-18.48Z"/><path class="cls-111" d="m122.03,170.4c-7.28,2.43-15,3.63-22.85,3.46l-8.04,22.97,2.91,15.14c16.23,1.03,32.21-1.75,46.82-7.75l-2.94-15.33-15.9-18.48Z"/><path class="cls-127" d="m55.36,10.51l2.38,12.41,17.7,20.57c6.58-2.65,13.58-4.28,20.77-4.76l8.32-23.76-2.82-14.69c-16.21-.16-32.04,3.44-46.35,10.22Z"/><path class="cls-24" d="m55.36,10.51l2.38,12.41,17.7,20.57c6.58-2.65,13.58-4.28,20.77-4.76l8.32-23.76-2.82-14.69c-16.21-.16-32.04,3.44-46.35,10.22Z"/><path class="cls-72" d="m104.53,14.98l-8.32,23.76c4.27-.28,8.61-.17,12.96.39l-4.64-24.15Z"/><path class="cls-122" d="m104.53,14.98l-8.32,23.76c4.27-.28,8.61-.17,12.96.39l-4.64-24.15Z"/><path class="cls-25" d="m104.53,14.98l-8.32,23.76c4.27-.28,8.61-.17,12.96.39l-4.64-24.15Z"/><path class="cls-208" d="m91.14,196.82l8.04-22.97c-4.23-.1-8.49-.6-12.74-1.52l4.7,24.49Z"/><path class="cls-34" d="m91.14,196.82l8.04-22.97c-4.23-.1-8.49-.6-12.74-1.52l4.7,24.49Z"/><path class="cls-109" d="m91.14,196.82l8.04-22.97c-4.23-.1-8.49-.6-12.74-1.52l4.7,24.49Z"/><path class="cls-43" d="m137.93,188.88l-4.51-23.48c-3.63,2.01-7.44,3.69-11.39,5l15.9,18.48Z"/><path class="cls-39" d="m137.93,188.88l-4.51-23.48c-3.63,2.01-7.44,3.69-11.39,5l15.9,18.48Z"/><path class="cls-10" d="m137.93,188.88l-4.51-23.48c-3.63,2.01-7.44,3.69-11.39,5l15.9,18.48Z"/><path class="cls-108" d="m75.44,43.5l-17.7-20.57,5.22,27.18c3.92-2.63,8.1-4.85,12.48-6.61Z"/><path class="cls-197" d="m75.44,43.5l-17.7-20.57,5.22,27.18c3.92-2.63,8.1-4.85,12.48-6.61Z"/><path class="cls-27" d="m75.44,43.5l-17.7-20.57,5.22,27.18c3.92-2.63,8.1-4.85,12.48-6.61Z"/><polygon class="cls-91" points="59.29 7.66 80.41 41.3 92.71 38.79 97.3 9.88 89.85 11.4 85.61 35.28 66.74 6.14 59.29 7.66"/><polygon class="cls-91" points="112.31 -.39 114.95 40.87 127.45 44.68 146 20.5 138.42 18.19 122.69 37.94 119.88 1.92 112.31 -.39"/><polygon class="cls-91" points="162.25 17.23 144.73 54.68 153.85 64.03 181.75 51.74 176.21 46.07 152.92 55.83 167.78 22.9 162.25 17.23"/><polygon class="cls-91" points="199.49 65.71 165.63 86.47 168.01 98.79 196.87 103.69 195.43 96.22 171.6 91.73 200.93 73.18 199.49 65.71"/><polygon class="cls-91" points="206.98 118.81 165.69 121.01 161.75 133.47 185.74 152.27 188.13 144.72 168.54 128.78 204.59 126.36 206.98 118.81"/><polygon class="cls-91" points="186.44 171.43 149.18 153.5 139.74 162.53 151.73 190.55 157.45 185.08 147.94 161.69 180.72 176.9 186.44 171.43"/><polygon class="cls-91" points="136.27 206.63 116.97 171.91 104.55 173.76 98.43 202.39 105.95 201.27 111.46 177.65 128.74 207.75 136.27 206.63"/><polygon class="cls-91" points="82.09 212.65 81.65 171.31 69.37 166.84 49.56 190 57 192.71 73.76 173.82 74.64 209.94 82.09 212.65"/><polygon class="cls-91" points="32.62 190.24 52.11 153.77 43.5 143.95 14.99 154.73 20.21 160.69 43.99 152.19 27.39 184.28 32.62 190.24"/><polygon class="cls-91" points="-.37 141.46 34.54 122.53 32.83 110.1 4.27 103.67 5.31 111.2 28.87 116.96 -1.41 133.92 -.37 141.46"/><polygon class="cls-91" points="-6.1 88.57 35.25 88.58 39.85 76.35 16.9 56.29 14.11 63.7 32.82 80.66 -3.31 81.16 -6.1 88.57"/><polygon class="cls-91" points="14.68 39.86 50.93 59.74 60.84 51.23 50.37 22.61 44.36 27.77 52.6 51.64 20.69 34.7 14.68 39.86"/><path class="cls-110" d="m106.2,38.76c-1.67-.13-3.34-.21-5-.22l1.84,9.37,3.16-9.15Z"/><path class="cls-98" d="m71.63,45.19c-1.24.6-2.47,1.22-3.68,1.89l5.23,6.03-1.56-7.92Z"/><path class="cls-204" d="m91.83,173.23c1.69.23,3.38.4,5.06.5l-1.9-9.66-3.16,9.16Z"/><path class="cls-123" d="m60.03,160.14c1.12.84,2.26,1.66,3.43,2.43l2.68-7.77-6.12,5.34Z"/><path class="cls-41" d="m45.43,67.36c-.8,1.14-1.56,2.31-2.29,3.51l7.59,2.59-5.3-6.1Z"/><path class="cls-62" d="m38.78,133.08c.56,1.29,1.15,2.57,1.79,3.82l6.14-5.36-7.93,1.54Z"/><path class="cls-61" d="m33.51,99.6c-.12,1.23-.21,2.46-.26,3.69l7.06-1.37-6.79-2.32Z"/><path class="cls-115" d="m154.73,147.07c1.19-1.56,2.32-3.18,3.37-4.86l-10.8-3.69,7.43,8.56Z"/><path class="cls-125" d="m162.45,78.28c-.81-1.78-1.69-3.53-2.65-5.24l-8.47,7.39,11.12-2.15Z"/><path class="cls-59" d="m126.77,168.65c1.59-.66,3.16-1.37,4.7-2.15l-6.62-7.63,1.92,9.78Z"/><path class="cls-124" d="m139.41,50.62c-1.39-.97-2.83-1.88-4.3-2.75l-3.21,9.31,7.52-6.56Z"/><path class="cls-170" d="m168.08,113.6c.21-1.88.33-3.75.38-5.62l-10.74,2.08,10.35,3.54Z"/><path class="cls-73" d="m106.07,63.32c2.76.34,5.52.95,8.26,1.85,1.99.65,3.9,1.45,5.72,2.35l11.84-10.34,3.21-9.31c-4.08-2.39-8.46-4.4-13.13-5.94-5.23-1.72-10.52-2.75-15.78-3.17l-3.16,9.15,3.03,15.41Z"/><path class="cls-118" d="m106.07,63.32c2.76.34,5.52.95,8.26,1.85,1.99.65,3.9,1.45,5.72,2.35l11.84-10.34,3.21-9.31c-4.08-2.39-8.46-4.4-13.13-5.94-5.23-1.72-10.52-2.75-15.78-3.17l-3.16,9.15,3.03,15.41Z"/><path class="cls-89" d="m91.92,148.45c-1.53-.33-3.06-.73-4.59-1.23-2.93-.97-5.69-2.22-8.26-3.71l-12.94,11.3-2.68,7.77c4.93,3.26,10.35,5.94,16.24,7.88,4.03,1.32,8.09,2.23,12.14,2.78l3.16-9.16-3.07-15.62Z"/><path class="cls-42" d="m91.92,148.45c-1.53-.33-3.06-.73-4.59-1.23-2.93-.97-5.69-2.22-8.26-3.71l-12.94,11.3-2.68,7.77c4.93,3.26,10.35,5.94,16.24,7.88,4.03,1.32,8.09,2.23,12.14,2.78l3.16-9.16-3.07-15.62Z"/><path class="cls-46" d="m140.73,89.68c2.04,4.93,3.18,10.24,3.28,15.69l13.71,4.69,10.74-2.08c.28-10.36-1.84-20.5-6.01-29.7l-11.12,2.15-10.59,9.25Z"/><path class="cls-88" d="m140.73,89.68c2.04,4.93,3.18,10.24,3.28,15.69l13.71,4.69,10.74-2.08c.28-10.36-1.84-20.5-6.01-29.7l-11.12,2.15-10.59,9.25Z"/><path class="cls-157" d="m59.92,120.01c-1.32-3.89-2.08-7.98-2.25-12.15l-17.36-5.94-7.06,1.37c-.45,10.36,1.51,20.53,5.52,29.79l7.93-1.54,13.21-11.53Z"/><path class="cls-216" d="m59.92,120.01c-1.32-3.89-2.08-7.98-2.25-12.15l-17.36-5.94-7.06,1.37c-.45,10.36,1.51,20.53,5.52,29.79l7.93-1.54,13.21-11.53Z"/><path class="cls-83" d="m67.2,79.1c2.71-3.36,5.88-6.26,9.4-8.64l-3.41-17.34-5.23-6.03c-8.83,4.91-16.57,11.79-22.52,20.28l5.3,6.1,16.47,5.63Z"/><path class="cls-195" d="m67.2,79.1c2.71-3.36,5.88-6.26,9.4-8.64l-3.41-17.34-5.23-6.03c-8.83,4.91-16.57,11.79-22.52,20.28l5.3,6.1,16.47,5.63Z"/><path class="cls-29" d="m133.93,133.94c-3.4,4.05-7.48,7.41-12.02,9.94l2.94,14.98,6.62,7.63c9.02-4.58,17.01-11.19,23.26-19.43l-7.43-8.56-13.38-4.57Z"/><path class="cls-85" d="m133.93,133.94c-3.4,4.05-7.48,7.41-12.02,9.94l2.94,14.98,6.62,7.63c9.02-4.58,17.01-11.19,23.26-19.43l-7.43-8.56-13.38-4.57Z"/><path class="cls-93" d="m71.86,138.22c-3.22-2.92-5.96-6.28-8.14-9.97l-17.01,3.29-6.14,5.36c4.59,9.02,11.21,17,19.46,23.23l6.12-5.34,5.72-16.58Z"/><path class="cls-162" d="m71.86,138.22c-3.22-2.92-5.96-6.28-8.14-9.97l-17.01,3.29-6.14,5.36c4.59,9.02,11.21,17,19.46,23.23l6.12-5.34,5.72-16.58Z"/><path class="cls-141" d="m126.87,71.73c4.2,3.17,7.74,7.05,10.49,11.41l13.97-2.7,8.47-7.39c-4.95-8.8-11.87-16.51-20.39-22.42l-7.52,6.56-5.02,14.55Z"/><path class="cls-15" d="m126.87,71.73c4.2,3.17,7.74,7.05,10.49,11.41l13.97-2.7,8.47-7.39c-4.95-8.8-11.87-16.51-20.39-22.42l-7.52,6.56-5.02,14.55Z"/><path class="cls-154" d="m71.86,138.22l-5.72,16.58,12.94-11.3c-2.62-1.52-5.03-3.3-7.22-5.28Z"/><path class="cls-137" d="m71.86,138.22l-5.72,16.58,12.94-11.3c-2.62-1.52-5.03-3.3-7.22-5.28Z"/><path class="cls-212" d="m71.86,138.22l-5.72,16.58,12.94-11.3c-2.62-1.52-5.03-3.3-7.22-5.28Z"/><path class="cls-47" d="m126.87,71.73l5.02-14.55-11.84,10.34c2.43,1.2,4.71,2.62,6.82,4.22Z"/><path class="cls-17" d="m126.87,71.73l5.02-14.55-11.84,10.34c2.43,1.2,4.71,2.62,6.82,4.22Z"/><path class="cls-163" d="m126.87,71.73l5.02-14.55-11.84,10.34c2.43,1.2,4.71,2.62,6.82,4.22Z"/><path class="cls-71" d="m151.33,80.43l-13.97,2.7c1.31,2.08,2.43,4.27,3.37,6.55l10.59-9.25Z"/><path class="cls-187" d="m151.33,80.43l-13.97,2.7c1.31,2.08,2.43,4.27,3.37,6.55l10.59-9.25Z"/><path class="cls-173" d="m151.33,80.43l-13.97,2.7c1.31,2.08,2.43,4.27,3.37,6.55l10.59-9.25Z"/><path class="cls-13" d="m46.71,131.55l17.01-3.29c-1.55-2.61-2.83-5.36-3.8-8.24l-13.21,11.53Z"/><path class="cls-6" d="m46.71,131.55l17.01-3.29c-1.55-2.61-2.83-5.36-3.8-8.24l-13.21,11.53Z"/><path class="cls-149" d="m46.71,131.55l17.01-3.29c-1.55-2.61-2.83-5.36-3.8-8.24l-13.21,11.53Z"/><path class="cls-69" d="m58.35,98.43c.35-1.92.83-3.83,1.45-5.74.68-2.07,1.51-4.05,2.45-5.94l-11.53-13.29-7.59-2.59c-2.67,4.37-4.9,9.1-6.57,14.18-1.59,4.82-2.58,9.7-3.06,14.55l6.79,2.32,18.05-3.49Z"/><path class="cls-156" d="m58.35,98.43c.35-1.92.83-3.83,1.45-5.74.68-2.07,1.51-4.05,2.45-5.94l-11.53-13.29-7.59-2.59c-2.67,4.37-4.9,9.1-6.57,14.18-1.59,4.82-2.58,9.7-3.06,14.55l6.79,2.32,18.05-3.49Z"/><path class="cls-12" d="m143.51,112.81c-.36,2.3-.9,4.6-1.65,6.88-.97,2.94-2.22,5.7-3.72,8.27l9.16,10.56,10.8,3.69c2.86-4.56,5.23-9.53,6.99-14.88,1.5-4.55,2.48-9.15,2.99-13.73l-10.35-3.54-14.22,2.75Z"/><path class="cls-129" d="m143.51,112.81c-.36,2.3-.9,4.6-1.65,6.88-.97,2.94-2.22,5.7-3.72,8.27l9.16,10.56,10.8,3.69c2.86-4.56,5.23-9.53,6.99-14.88,1.5-4.55,2.48-9.15,2.99-13.73l-10.35-3.54-14.22,2.75Z"/><path class="cls-70" d="m40.31,101.92l17.36,5.94c-.12-3.11.1-6.27.68-9.43l-18.05,3.49Z"/><path class="cls-119" d="m40.31,101.92l17.36,5.94c-.12-3.11.1-6.27.68-9.43l-18.05,3.49Z"/><path class="cls-213" d="m40.31,101.92l17.36,5.94c-.12-3.11.1-6.27.68-9.43l-18.05,3.49Z"/><path class="cls-139" d="m157.73,110.06l-13.71-4.69c.05,2.46-.12,4.95-.51,7.44l14.22-2.75Z"/><path class="cls-105" d="m157.73,110.06l-13.71-4.69c.05,2.46-.12,4.95-.51,7.44l14.22-2.75Z"/><path class="cls-92" d="m157.73,110.06l-13.71-4.69c.05,2.46-.12,4.95-.51,7.44l14.22-2.75Z"/><path class="cls-81" d="m67.2,79.1l-16.47-5.63,11.53,13.29c1.39-2.76,3.05-5.32,4.93-7.66Z"/><path class="cls-188" d="m67.2,79.1l-16.47-5.63,11.53,13.29c1.39-2.76,3.05-5.32,4.93-7.66Z"/><path class="cls-54" d="m67.2,79.1l-16.47-5.63,11.53,13.29c1.39-2.76,3.05-5.32,4.93-7.66Z"/><path class="cls-79" d="m133.93,133.94l13.38,4.57-9.16-10.56c-1.24,2.13-2.66,4.13-4.21,5.98Z"/><path class="cls-96" d="m133.93,133.94l13.38,4.57-9.16-10.56c-1.24,2.13-2.66,4.13-4.21,5.98Z"/><path class="cls-133" d="m133.93,133.94l13.38,4.57-9.16-10.56c-1.24,2.13-2.66,4.13-4.21,5.98Z"/><path class="cls-53" d="m114.65,147.11c-4.64,1.57-9.57,2.36-14.58,2.27l-5.07,14.69,1.9,9.66c10.37.61,20.57-1.21,29.88-5.08l-1.92-9.78-10.2-11.76Z"/><path class="cls-84" d="m114.65,147.11c-4.64,1.57-9.57,2.36-14.58,2.27l-5.07,14.69,1.9,9.66c10.37.61,20.57-1.21,29.88-5.08l-1.92-9.78-10.2-11.76Z"/><path class="cls-18" d="m71.63,45.19l1.56,7.92,11.36,13.09c4.19-1.71,8.66-2.77,13.25-3.1l5.25-15.2-1.84-9.37c-10.35-.06-20.45,2.29-29.57,6.65Z"/><path class="cls-206" d="m71.63,45.19l1.56,7.92,11.36,13.09c4.19-1.71,8.66-2.77,13.25-3.1l5.25-15.2-1.84-9.37c-10.35-.06-20.45,2.29-29.57,6.65Z"/><path class="cls-207" d="m103.04,47.91l-5.25,15.2c2.73-.19,5.5-.13,8.27.21l-3.03-15.41Z"/><path class="cls-128" d="m103.04,47.91l-5.25,15.2c2.73-.19,5.5-.13,8.27.21l-3.03-15.41Z"/><path class="cls-169" d="m103.04,47.91l-5.25,15.2c2.73-.19,5.5-.13,8.27.21l-3.03-15.41Z"/><path class="cls-190" d="m94.99,164.07l5.07-14.69c-2.7-.05-5.42-.36-8.14-.94l3.07,15.62Z"/><path class="cls-184" d="m94.99,164.07l5.07-14.69c-2.7-.05-5.42-.36-8.14-.94l3.07,15.62Z"/><path class="cls-87" d="m94.99,164.07l5.07-14.69c-2.7-.05-5.42-.36-8.14-.94l3.07,15.62Z"/><path class="cls-199" d="m124.85,158.87l-2.94-14.98c-2.31,1.29-4.74,2.38-7.26,3.23l10.2,11.76Z"/><path class="cls-121" d="m124.85,158.87l-2.94-14.98c-2.31,1.29-4.74,2.38-7.26,3.23l10.2,11.76Z"/><path class="cls-176" d="m124.85,158.87l-2.94-14.98c-2.31,1.29-4.74,2.38-7.26,3.23l10.2,11.76Z"/><path class="cls-160" d="m84.54,66.2l-11.36-13.09,3.41,17.34c2.5-1.69,5.16-3.12,7.95-4.25Z"/><path class="cls-134" d="m84.54,66.2l-11.36-13.09,3.41,17.34c2.5-1.69,5.16-3.12,7.95-4.25Z"/><path class="cls-136" d="m84.54,66.2l-11.36-13.09,3.41,17.34c2.5-1.69,5.16-3.12,7.95-4.25Z"/><path class="cls-178" d="m103.84,63.16c-1.07-.07-2.13-.11-3.19-.1l1.24,5.97,1.95-5.86Z"/><path class="cls-63" d="m81.82,67.52c-.79.39-1.57.8-2.33,1.23l3.38,3.81-1.05-5.04Z"/><path class="cls-132" d="m95.63,149.07c1.08.13,2.16.23,3.23.28l-1.28-6.15-1.95,5.87Z"/><path class="cls-50" d="m75.24,140.94c.72.53,1.45,1.04,2.21,1.53l1.66-4.98-3.86,3.45Z"/><path class="cls-161" d="m65.27,81.85c-.5.73-.98,1.49-1.43,2.26l4.86,1.6-3.42-3.86Z"/><path class="cls-205" d="m61.49,123.83c.37.82.75,1.63,1.17,2.43l3.88-3.46-5.05,1.04Z"/><path class="cls-33" d="m57.89,102.5c-.07.79-.11,1.57-.14,2.36l4.49-.92-4.35-1.43Z"/><path class="cls-102" d="m135.57,131.93c.75-1.01,1.45-2.05,2.12-3.13l-6.91-2.28,4.8,5.41Z"/><path class="cls-3" d="m140.01,87.98c-.53-1.13-1.1-2.24-1.73-3.33l-5.35,4.78,7.08-1.45Z"/><path class="cls-196" d="m117.89,145.89c1.01-.43,2.01-.9,2.98-1.41l-4.28-4.82,1.3,6.23Z"/><path class="cls-1" d="m125.11,70.5c-.9-.61-1.82-1.18-2.76-1.72l-1.98,5.96,4.75-4.24Z"/><path class="cls-104" d="m143.85,110.48c.12-1.2.18-2.4.2-3.59l-6.84,1.4,6.63,2.19Z"/><path class="cls-95" d="m103.93,78.83c1.76.2,3.53.56,5.29,1.12,1.28.4,2.5.9,3.67,1.46l7.48-6.68,1.98-5.96c-2.62-1.5-5.43-2.75-8.42-3.69-3.35-1.06-6.73-1.68-10.09-1.91l-1.95,5.86,2.04,9.81Z"/><path class="cls-164" d="m103.93,78.83c1.76.2,3.53.56,5.29,1.12,1.28.4,2.5.9,3.67,1.46l7.48-6.68,1.98-5.96c-2.62-1.5-5.43-2.75-8.42-3.69-3.35-1.06-6.73-1.68-10.09-1.91l-1.95,5.86,2.04,9.81Z"/><path class="cls-66" d="m95.51,133.25c-.98-.2-1.96-.44-2.93-.75-1.88-.59-3.65-1.38-5.29-2.31l-8.18,7.3-1.66,4.98c3.17,2.05,6.65,3.72,10.42,4.91,2.58.82,5.18,1.37,7.77,1.69l1.95-5.87-2.07-9.95Z"/><path class="cls-112" d="m95.51,133.25c-.98-.2-1.96-.44-2.93-.75-1.88-.59-3.65-1.38-5.29-2.31l-8.18,7.3-1.66,4.98c3.17,2.05,6.65,3.72,10.42,4.91,2.58.82,5.18,1.37,7.77,1.69l1.95-5.87-2.07-9.95Z"/><path class="cls-74" d="m126.23,95.41c1.34,3.13,2.1,6.51,2.21,9.98l8.78,2.89,6.84-1.4c.1-6.61-1.32-13.07-4.05-18.91l-7.08,1.45-6.69,5.98Z"/><path class="cls-201" d="m126.23,95.41c1.34,3.13,2.1,6.51,2.21,9.98l8.78,2.89,6.84-1.4c.1-6.61-1.32-13.07-4.05-18.91l-7.08,1.45-6.69,5.98Z"/><path class="cls-148" d="m74.88,115.34c-.87-2.47-1.39-5.08-1.52-7.74l-11.12-3.66-4.49.92c-.21,6.62,1.11,13.09,3.74,18.97l5.05-1.04,8.35-7.45Z"/><path class="cls-94" d="m74.88,115.34c-.87-2.47-1.39-5.08-1.52-7.74l-11.12-3.66-4.49.92c-.21,6.62,1.11,13.09,3.74,18.97l5.05-1.04,8.35-7.45Z"/><path class="cls-143" d="m79.24,89.18c1.7-2.16,3.71-4.04,5.94-5.58l-2.3-11.04-3.38-3.81c-5.6,3.19-10.49,7.64-14.22,13.1l3.42,3.86,10.55,3.48Z"/><path class="cls-138" d="m79.24,89.18c1.7-2.16,3.71-4.04,5.94-5.58l-2.3-11.04-3.38-3.81c-5.6,3.19-10.49,7.64-14.22,13.1l3.42,3.86,10.55,3.48Z"/><path class="cls-9" d="m122.21,123.7c-2.14,2.61-4.72,4.78-7.6,6.43l1.99,9.54,4.28,4.82c5.72-2.99,10.77-7.26,14.7-12.56l-4.8-5.41-8.57-2.82Z"/><path class="cls-68" d="m122.21,123.7c-2.14,2.61-4.72,4.78-7.6,6.43l1.99,9.54,4.28,4.82c5.72-2.99,10.77-7.26,14.7-12.56l-4.8-5.41-8.57-2.82Z"/><path class="cls-217" d="m82.64,126.87c-2.07-1.84-3.85-3.97-5.27-6.3l-10.83,2.22-3.88,3.46c3,5.72,7.27,10.76,12.58,14.69l3.86-3.45,3.53-10.62Z"/><path class="cls-48" d="m82.64,126.87c-2.07-1.84-3.85-3.97-5.27-6.3l-10.83,2.22-3.88,3.46c3,5.72,7.27,10.76,12.58,14.69l3.86-3.45,3.53-10.62Z"/><path class="cls-214" d="m117.26,84.06c2.7,1.99,4.99,4.44,6.77,7.2l8.89-1.82,5.35-4.78c-3.22-5.58-7.69-10.45-13.17-14.16l-4.75,4.24-3.1,9.32Z"/><path class="cls-181" d="m117.26,84.06c2.7,1.99,4.99,4.44,6.77,7.2l8.89-1.82,5.35-4.78c-3.22-5.58-7.69-10.45-13.17-14.16l-4.75,4.24-3.1,9.32Z"/><path class="cls-57" d="m82.64,126.87l-3.53,10.62,8.18-7.3c-1.68-.95-3.23-2.07-4.64-3.32Z"/><path class="cls-218" d="m82.64,126.87l-3.53,10.62,8.18-7.3c-1.68-.95-3.23-2.07-4.64-3.32Z"/><path class="cls-30" d="m82.64,126.87l-3.53,10.62,8.18-7.3c-1.68-.95-3.23-2.07-4.64-3.32Z"/><path class="cls-75" d="m117.26,84.06l3.1-9.32-7.48,6.68c1.56.75,3.02,1.64,4.38,2.64Z"/><path class="cls-44" d="m117.26,84.06l3.1-9.32-7.48,6.68c1.56.75,3.02,1.64,4.38,2.64Z"/><path class="cls-5" d="m117.26,84.06l3.1-9.32-7.48,6.68c1.56.75,3.02,1.64,4.38,2.64Z"/><path class="cls-177" d="m132.93,89.43l-8.89,1.82c.85,1.32,1.58,2.71,2.2,4.15l6.69-5.98Z"/><path class="cls-202" d="m132.93,89.43l-8.89,1.82c.85,1.32,1.58,2.71,2.2,4.15l6.69-5.98Z"/><path class="cls-35" d="m132.93,89.43l-8.89,1.82c.85,1.32,1.58,2.71,2.2,4.15l6.69-5.98Z"/><path class="cls-100" d="m66.54,122.79l10.83-2.22c-1.01-1.65-1.84-3.4-2.48-5.23l-8.35,7.45Z"/><path class="cls-14" d="m66.54,122.79l10.83-2.22c-1.01-1.65-1.84-3.4-2.48-5.23l-8.35,7.45Z"/><path class="cls-40" d="m66.54,122.79l10.83-2.22c-1.01-1.65-1.84-3.4-2.48-5.23l-8.35,7.45Z"/><path class="cls-166" d="m73.73,101.58c.21-1.23.5-2.45.89-3.67.42-1.32.93-2.59,1.52-3.81l-7.45-8.4-4.86-1.6c-1.67,2.81-3.06,5.84-4.09,9.09-.98,3.09-1.58,6.21-1.85,9.31l4.35,1.43,11.49-2.36Z"/><path class="cls-131" d="m73.73,101.58c.21-1.23.5-2.45.89-3.67.42-1.32.93-2.59,1.52-3.81l-7.45-8.4-4.86-1.6c-1.67,2.81-3.06,5.84-4.09,9.09-.98,3.09-1.58,6.21-1.85,9.31l4.35,1.43,11.49-2.36Z"/><path class="cls-116" d="m128.17,110.15c-.21,1.47-.54,2.94-1,4.4-.6,1.88-1.38,3.65-2.31,5.3l5.92,6.67,6.91,2.28c1.79-2.93,3.27-6.12,4.36-9.54.92-2.92,1.52-5.86,1.81-8.78l-6.63-2.19-9.05,1.86Z"/><path class="cls-56" d="m128.17,110.15c-.21,1.47-.54,2.94-1,4.4-.6,1.88-1.38,3.65-2.31,5.3l5.92,6.67,6.91,2.28c1.79-2.93,3.27-6.12,4.36-9.54.92-2.92,1.52-5.86,1.81-8.78l-6.63-2.19-9.05,1.86Z"/><path class="cls-193" d="m62.24,103.94l11.12,3.66c-.1-1.99.02-4,.37-6.02l-11.49,2.36Z"/><path class="cls-31" d="m62.24,103.94l11.12,3.66c-.1-1.99.02-4,.37-6.02l-11.49,2.36Z"/><path class="cls-155" d="m62.24,103.94l11.12,3.66c-.1-1.99.02-4,.37-6.02l-11.49,2.36Z"/><path class="cls-16" d="m137.22,108.29l-8.78-2.89c.05,1.57-.04,3.16-.27,4.75l9.05-1.86Z"/><path class="cls-22" d="m137.22,108.29l-8.78-2.89c.05,1.57-.04,3.16-.27,4.75l9.05-1.86Z"/><path class="cls-28" d="m137.22,108.29l-8.78-2.89c.05,1.57-.04,3.16-.27,4.75l9.05-1.86Z"/><path class="cls-147" d="m79.24,89.18l-10.55-3.48,7.45,8.4c.87-1.77,1.91-3.41,3.09-4.92Z"/><path class="cls-51" d="m79.24,89.18l-10.55-3.48,7.45,8.4c.87-1.77,1.91-3.41,3.09-4.92Z"/><path class="cls-117" d="m79.24,89.18l-10.55-3.48,7.45,8.4c.87-1.77,1.91-3.41,3.09-4.92Z"/><path class="cls-90" d="m122.21,123.7l8.57,2.82-5.92-6.67c-.78,1.37-1.67,2.65-2.65,3.85Z"/><path class="cls-192" d="m122.21,123.7l8.57,2.82-5.92-6.67c-.78,1.37-1.67,2.65-2.65,3.85Z"/><path class="cls-101" d="m122.21,123.7l8.57,2.82-5.92-6.67c-.78,1.37-1.67,2.65-2.65,3.85Z"/><path class="cls-106" d="m110,132.24c-2.95,1.04-6.09,1.57-9.29,1.55l-3.13,9.41,1.28,6.15c6.62.32,13.11-.92,19.03-3.45l-1.3-6.23-6.59-7.43Z"/><path class="cls-152" d="m110,132.24c-2.95,1.04-6.09,1.57-9.29,1.55l-3.13,9.41,1.28,6.15c6.62.32,13.11-.92,19.03-3.45l-1.3-6.23-6.59-7.43Z"/><path class="cls-210" d="m81.82,67.52l1.05,5.04,7.34,8.27c2.66-1.12,5.51-1.83,8.43-2.07l3.24-9.73-1.24-5.97c-6.61.04-13.03,1.6-18.82,4.46Z"/><path class="cls-4" d="m81.82,67.52l1.05,5.04,7.34,8.27c2.66-1.12,5.51-1.83,8.43-2.07l3.24-9.73-1.24-5.97c-6.61.04-13.03,1.6-18.82,4.46Z"/><path class="cls-203" d="m101.89,69.03l-3.24,9.73c1.74-.14,3.51-.12,5.28.08l-2.04-9.81Z"/><path class="cls-32" d="m101.89,69.03l-3.24,9.73c1.74-.14,3.51-.12,5.28.08l-2.04-9.81Z"/><path class="cls-158" d="m101.89,69.03l-3.24,9.73c1.74-.14,3.51-.12,5.28.08l-2.04-9.81Z"/><path class="cls-113" d="m97.58,143.2l3.13-9.41c-1.72-.01-3.46-.19-5.2-.54l2.07,9.95Z"/><path class="cls-215" d="m97.58,143.2l3.13-9.41c-1.72-.01-3.46-.19-5.2-.54l2.07,9.95Z"/><path class="cls-186" d="m97.58,143.2l3.13-9.41c-1.72-.01-3.46-.19-5.2-.54l2.07,9.95Z"/><path class="cls-168" d="m116.59,139.67l-1.99-9.54c-1.47.84-3.01,1.55-4.61,2.11l6.59,7.43Z"/><path class="cls-151" d="m116.59,139.67l-1.99-9.54c-1.47.84-3.01,1.55-4.61,2.11l6.59,7.43Z"/><path class="cls-97" d="m116.59,139.67l-1.99-9.54c-1.47.84-3.01,1.55-4.61,2.11l6.59,7.43Z"/><path class="cls-142" d="m90.21,80.83l-7.34-8.27,2.3,11.04c1.58-1.1,3.27-2.03,5.04-2.77Z"/><path class="cls-191" d="m90.21,80.83l-7.34-8.27,2.3,11.04c1.58-1.1,3.27-2.03,5.04-2.77Z"/><path class="cls-19" d="m90.21,80.83l-7.34-8.27,2.3,11.04c1.58-1.1,3.27-2.03,5.04-2.77Z"/><polygon class="cls-99" points="137.73 121.89 163.34 111.38 129.26 99.15 107.44 40.56 84.79 83.7 38.6 74.18 71.2 109.6 55.3 152.46 112.67 131.79 154.54 167.04 137.73 121.89"/><polygon class="cls-99" points="42.26 124.21 52.75 117.44 40.19 114.76 36.59 102.21 31.59 112.92 12.57 108.87 27.43 124.25 22.88 136.69 36.24 128.07 46.59 136.46 42.26 124.21"/><polygon class="cls-99" points="155.59 60.57 166.55 53.51 153.44 50.71 149.67 37.61 143.31 48.55 124.59 44.55 140.11 60.62 135.36 73.6 149.31 64.6 160.11 73.36 155.59 60.57"/></g></g></g></g></svg>